<svg viewBox="0 0 342 592" fill="none" xmlns="http://www.w3.org/2000/svg">
<g clip-path="url(#clip0_440_3435)">
<path d="M33.8513 449.476C33.8513 445.123 30.3217 441.594 25.9688 441.594C30.3217 441.594 33.8513 438.064 33.8513 433.711C33.8513 438.064 37.3809 441.594 41.7339 441.594C37.3809 441.594 33.8513 445.123 33.8513 449.476Z" fill="white"/>
<path d="M317.241 417.299C317.241 412.356 313.236 408.35 308.292 408.35C313.236 408.35 317.241 404.345 317.241 399.401C317.241 404.345 321.247 408.35 326.19 408.35C321.247 408.35 317.241 412.356 317.241 417.299Z" stroke="white" stroke-miterlimit="10"/>
<path d="M227.819 562.906C227.819 557.962 223.814 553.957 218.87 553.957C223.814 553.957 227.819 549.951 227.819 545.008C227.819 549.951 231.825 553.957 236.768 553.957C231.825 553.957 227.819 557.962 227.819 562.906Z" stroke="white" stroke-miterlimit="10"/>
<path d="M47.3756 251.853C47.3756 243.244 40.3963 236.261 31.7842 236.261C40.3928 236.261 47.3756 229.282 47.3756 220.67C47.3756 229.279 54.3549 236.261 62.967 236.261C54.3584 236.261 47.3756 243.241 47.3756 251.853Z" fill="white"/>
<path d="M329.035 389.844C329.035 382.684 323.23 376.879 316.07 376.879C323.23 376.879 329.035 371.074 329.035 363.914C329.035 371.074 334.84 376.879 342 376.879C334.84 376.879 329.035 382.684 329.035 389.844Z" fill="white"/>
<path d="M97.9225 29.2552C97.9225 23.8357 93.5279 19.4411 88.1084 19.4411C93.5279 19.4411 97.9225 15.0464 97.9225 9.62695C97.9225 15.0464 102.317 19.4411 107.737 19.4411C102.317 19.4411 97.9225 23.8357 97.9225 29.2552Z" fill="white"/>
<path d="M259.735 577.382C259.735 571.963 255.34 567.568 249.921 567.568C255.34 567.568 259.735 563.173 259.735 557.754C259.735 563.173 264.13 567.568 269.549 567.568C264.13 567.568 259.735 571.963 259.735 577.382Z" fill="white"/>
<path d="M9.8073 490.306C13.8077 490.306 17.0506 487.063 17.0506 483.063C17.0506 479.062 13.8077 475.819 9.8073 475.819C5.80692 475.819 2.56396 479.062 2.56396 483.063C2.56396 487.063 5.80692 490.306 9.8073 490.306Z" stroke="white" stroke-miterlimit="10"/>
<path d="M307.666 262.257C311.905 262.257 315.34 258.822 315.34 254.583C315.34 250.345 311.905 246.909 307.666 246.909C303.428 246.909 299.992 250.345 299.992 254.583C299.992 258.822 303.428 262.257 307.666 262.257Z" stroke="white" stroke-width="0.77" stroke-miterlimit="10"/>
<path d="M64.1757 70.7626C67.5832 70.7626 70.3456 68.0002 70.3456 64.5927C70.3456 61.1852 67.5832 58.4229 64.1757 58.4229C60.7682 58.4229 58.0059 61.1852 58.0059 64.5927C58.0059 68.0002 60.7682 70.7626 64.1757 70.7626Z" stroke="white" stroke-miterlimit="10"/>
<path d="M301.347 251.672C303.977 251.672 306.11 249.54 306.11 246.909C306.11 244.279 303.977 242.146 301.347 242.146C298.716 242.146 296.584 244.279 296.584 246.909C296.584 249.54 298.716 251.672 301.347 251.672Z" stroke="white" stroke-width="0.77" stroke-miterlimit="10"/>
<path d="M1.5669 260.739C2.38617 260.739 3.05031 260.075 3.05031 259.256C3.05031 258.437 2.38617 257.772 1.5669 257.772C0.74764 257.772 0.0834961 258.437 0.0834961 259.256C0.0834961 260.075 0.74764 260.739 1.5669 260.739Z" fill="white"/>
<path d="M330.16 220.673C331.799 220.673 333.127 219.345 333.127 217.706C333.127 216.068 331.799 214.739 330.16 214.739C328.522 214.739 327.193 216.068 327.193 217.706C327.193 219.345 328.522 220.673 330.16 220.673Z" fill="white"/>
<path d="M150.683 576.406C152.321 576.406 153.649 575.078 153.649 573.439C153.649 571.801 152.321 570.473 150.683 570.473C149.044 570.473 147.716 571.801 147.716 573.439C147.716 575.078 149.044 576.406 150.683 576.406Z" fill="white"/>
<path d="M307.666 54.6221C309.305 54.6221 310.633 53.2938 310.633 51.6553C310.633 50.0168 309.305 48.6885 307.666 48.6885C306.027 48.6885 304.699 50.0168 304.699 51.6553C304.699 53.2938 306.027 54.6221 307.666 54.6221Z" fill="white"/>
<path d="M70.4948 553.328C72.3559 553.328 73.8646 551.82 73.8646 549.959C73.8646 548.098 72.3559 546.589 70.4948 546.589C68.6337 546.589 67.125 548.098 67.125 549.959C67.125 551.82 68.6337 553.328 70.4948 553.328Z" fill="white"/>
<path d="M267.934 523.782C269.795 523.782 271.304 522.273 271.304 520.412C271.304 518.551 269.795 517.042 267.934 517.042C266.073 517.042 264.564 518.551 264.564 520.412C264.564 522.273 266.073 523.782 267.934 523.782Z" fill="white"/>
<path d="M60.3503 296.681C62.2114 296.681 63.7201 295.172 63.7201 293.311C63.7201 291.45 62.2114 289.941 60.3503 289.941C58.4892 289.941 56.9805 291.45 56.9805 293.311C56.9805 295.172 58.4892 296.681 60.3503 296.681Z" fill="white"/>
<path d="M328.677 536.441C329.495 536.441 330.157 535.779 330.157 534.961C330.157 534.144 329.495 533.481 328.677 533.481C327.86 533.481 327.197 534.144 327.197 534.961C327.197 535.779 327.86 536.441 328.677 536.441Z" fill="white"/>
<path d="M191.728 539.717C192.545 539.717 193.208 539.054 193.208 538.237C193.208 537.419 192.545 536.757 191.728 536.757C190.911 536.757 190.248 537.419 190.248 538.237C190.248 539.054 190.911 539.717 191.728 539.717Z" fill="white"/>
<path d="M76.3767 83.9982C77.1192 83.9982 77.7211 83.4134 77.7211 82.692C77.7211 81.9706 77.1192 81.3857 76.3767 81.3857C75.6342 81.3857 75.0322 81.9706 75.0322 82.692C75.0322 83.4134 75.6342 83.9982 76.3767 83.9982Z" fill="white"/>
<path d="M296.584 184.04C297.326 184.04 297.928 183.455 297.928 182.734C297.928 182.013 297.326 181.428 296.584 181.428C295.841 181.428 295.239 182.013 295.239 182.734C295.239 183.455 295.841 184.04 296.584 184.04Z" fill="white"/>
<path d="M245.95 36.6896C246.692 36.6896 247.294 36.1048 247.294 35.3834C247.294 34.662 246.692 34.0771 245.95 34.0771C245.207 34.0771 244.605 34.662 244.605 35.3834C244.605 36.1048 245.207 36.6896 245.95 36.6896Z" fill="white"/>
<path d="M330.161 136.443C330.903 136.443 331.505 135.858 331.505 135.136C331.505 134.415 330.903 133.83 330.161 133.83C329.418 133.83 328.816 134.415 328.816 135.136C328.816 135.858 329.418 136.443 330.161 136.443Z" fill="white"/>
<path d="M333.124 2.61246C333.866 2.61246 334.468 2.02764 334.468 1.30623C334.468 0.58482 333.866 0 333.124 0C332.381 0 331.779 0.58482 331.779 1.30623C331.779 2.02764 332.381 2.61246 333.124 2.61246Z" fill="white"/>
<path d="M9.80734 116.727C10.5499 116.727 11.1518 116.142 11.1518 115.42C11.1518 114.699 10.5499 114.114 9.80734 114.114C9.06482 114.114 8.46289 114.699 8.46289 115.42C8.46289 116.142 9.06482 116.727 9.80734 116.727Z" fill="white"/>
<path d="M41.5114 168.442C42.254 168.442 42.8559 167.857 42.8559 167.135C42.8559 166.414 42.254 165.829 41.5114 165.829C40.7689 165.829 40.167 166.414 40.167 167.135C40.167 167.857 40.7689 168.442 41.5114 168.442Z" fill="white"/>
<path d="M52.5444 501.242C53.3617 501.242 54.0243 500.579 54.0243 499.762C54.0243 498.945 53.3617 498.282 52.5444 498.282C51.727 498.282 51.0645 498.945 51.0645 499.762C51.0645 500.579 51.727 501.242 52.5444 501.242Z" fill="white"/>
<path d="M7.96577 581.78C8.78312 581.78 9.44571 581.118 9.44571 580.3C9.44571 579.483 8.78312 578.82 7.96577 578.82C7.14843 578.82 6.48584 579.483 6.48584 580.3C6.48584 581.118 7.14843 581.78 7.96577 581.78Z" fill="white"/>
<path d="M47.1005 262.258C47.1005 254.941 41.1669 249.008 33.8506 249.008C41.1669 249.008 47.1005 243.074 47.1005 235.758C47.1005 243.074 53.0341 249.008 60.3504 249.008C53.0341 249.008 47.1005 254.941 47.1005 262.258Z" stroke="white" stroke-miterlimit="10"/>
<path d="M289.574 103.807C289.574 98.0539 284.908 93.3883 279.155 93.3883C284.908 93.3883 289.574 88.7227 289.574 82.9697C289.574 88.7227 294.239 93.3883 299.992 93.3883C294.239 93.3883 289.574 98.0539 289.574 103.807Z" stroke="white" stroke-width="0.78" stroke-miterlimit="10"/>
<path d="M9.70312 195.254L22.4875 208.038" stroke="white" stroke-miterlimit="10"/>
<path d="M9.70312 208.038L22.4875 195.254" stroke="white" stroke-miterlimit="10"/>
<path d="M20.7676 531.845L33.552 544.629" stroke="white" stroke-miterlimit="10"/>
<path d="M20.7676 544.629L33.552 531.845" stroke="white" stroke-miterlimit="10"/>
<path d="M291.654 298.926V326.965" stroke="white" stroke-width="1.26" stroke-miterlimit="10"/>
<path d="M280.263 312.947H303.049" stroke="white" stroke-width="1.26" stroke-miterlimit="10"/>
<path d="M285.748 307.038L297.563 318.853" stroke="white" stroke-width="1.26" stroke-miterlimit="10"/>
<path d="M285.748 318.853L297.563 307.038" stroke="white" stroke-width="1.26" stroke-miterlimit="10"/>
<path d="M11.3945 5.41992V33.4622" stroke="white" stroke-width="1.26" stroke-miterlimit="10"/>
<path d="M0 19.4414H22.7861" stroke="white" stroke-width="1.26" stroke-miterlimit="10"/>
<path d="M5.48535 13.5352L17.3005 25.3503" stroke="white" stroke-width="1.26" stroke-miterlimit="10"/>
<path d="M5.48535 25.3503L17.3005 13.5352" stroke="white" stroke-width="1.26" stroke-miterlimit="10"/>
<path d="M103.95 520.103V548.141" stroke="white" stroke-width="1.26" stroke-miterlimit="10"/>
<path d="M92.5586 534.124H115.345" stroke="white" stroke-width="1.26" stroke-miterlimit="10"/>
<path d="M98.0439 528.215L109.859 540.03" stroke="white" stroke-width="1.26" stroke-miterlimit="10"/>
<path d="M98.0439 540.03L109.859 528.215" stroke="white" stroke-width="1.26" stroke-miterlimit="10"/>
<path d="M320.221 569.177V591.428" stroke="white" stroke-miterlimit="10"/>
<path d="M311.182 580.301H329.26" stroke="white" stroke-miterlimit="10"/>
<path d="M315.534 575.614L324.907 584.991" stroke="white" stroke-miterlimit="10"/>
<path d="M315.534 584.991L324.907 575.614" stroke="white" stroke-miterlimit="10"/>
</g>
<defs>
<clipPath id="clip0_440_3435">
<rect width="342" height="591.428" fill="white"/>
</clipPath>
</defs>
</svg>
