<svg viewBox="0 0 252 165" fill="none" xmlns="http://www.w3.org/2000/svg">
<g filter="url(#filter0_d_321_3450)">
<path d="M72.9785 74.3969V57.1458H103.535L103.998 54.74C105.335 47.8028 106.164 41.8634 106.594 36.1642H72.9785V18.9131H178.891V74.3969H72.9785Z" fill="#0A13FF"/>
<path d="M177.891 19.9142V73.3959H73.9779V58.1469H104.361L104.981 54.9302C106.407 47.5293 107.26 41.2862 107.667 35.1632H73.9779V19.9142H177.891ZM179.89 17.9121H71.9785V37.1653H105.511C105.064 42.5008 104.261 48.0865 103.018 54.5532L102.712 56.1448H71.9785V75.3979H179.89V17.9121Z" fill="white"/>
<path d="M35.7817 140.795L36.5614 135.79C38.3708 124.178 39.6837 114.031 40.1769 102.563H21.3164V85.3117H127.505V91.3312C130.951 87.1136 136.825 84.7578 144.17 84.7578C150.418 84.7578 155.639 86.4729 159.178 89.6395V85.3117H230.281V102.563H221.977L231.001 123.207V140.795H35.7817Z" fill="#0A13FF"/>
<path d="M144.169 85.7589C151.357 85.7589 156.952 88.0446 160.177 92.1622V86.3128H229.281V101.562H220.451L230.005 123.418V139.795H36.951L37.5508 135.944C39.4635 123.685 40.7631 113.441 41.2196 101.562H22.3158V86.3128H126.505V94.7882C129.164 89.0923 135.439 85.7589 144.169 85.7589ZM144.169 83.7568C137.641 83.7568 132.213 85.562 128.504 88.8521V84.3107H20.3164V103.564H39.1303C38.6071 114.562 37.3242 124.409 35.5748 135.634L34.9749 139.484L34.6151 141.797H232.001V122.997L231.834 122.613L223.507 103.564H231.281V84.3107H158.178V87.5841C154.572 85.0915 149.757 83.7568 144.169 83.7568Z" fill="white"/>
<path d="M107.837 53.8953C109.33 46.1507 110.433 38.4594 110.766 30.1575H76.8936V21.582H122.755C122.422 33.0338 121.486 44.1019 119.44 53.8953H107.837ZM76.8936 59.8147H122.755V68.3902H76.8936V59.8147Z" fill="url(#paint0_linear_321_3450)"/>
<path d="M128.281 31.3754H148.118V29.3267H128.281V21.582H159.167V37.4617C154.249 38.4027 147.344 39.01 139.33 39.01V41.1689C147.341 41.1689 154.249 40.7818 160.547 39.5105V48.9168H128.277V31.3788L128.281 31.3754ZM139.33 51.4061V60.0917L153.143 60.0349C160.327 59.9782 168.061 59.4276 174.416 58.43V68.3902H128.277V51.4027H139.327L139.33 51.4061ZM163.089 21.582H174.139V54.8363H163.089V21.582Z" fill="url(#paint1_linear_321_3450)"/>
<path d="M40.4255 134.789C42.4715 121.675 43.9077 110.387 44.2376 96.556H25.2305V87.9805H55.8971C55.5672 104.968 54.5709 118.522 52.0284 134.789H40.4255ZM58.6595 87.9805H69.7093V104.524H74.681V113.931H69.7093V134.789H58.6595V87.9805Z" fill="url(#paint2_linear_321_3450)"/>
<path d="M76.894 87.9805H107.227V96.556H87.9437V126.213C95.9544 126.213 102.862 125.826 109.16 124.555V134.792H76.8906V87.9805H76.894ZM111.703 87.9805H122.752V134.789H111.703V87.9805Z" fill="url(#paint3_linear_321_3450)"/>
<path d="M163.092 105.131H159.224C158.007 111.274 152.483 114.868 143.752 114.868C133.805 114.868 128.004 110.166 128.004 102.418V99.8723C128.004 92.1277 133.805 87.4229 143.752 87.4229C151.763 87.4229 157.068 90.466 158.837 95.7214H163.092V87.9768H174.142V120.4H163.092V105.128V105.131ZM139.334 116.696V126.213L153.146 126.156C160.33 126.099 168.064 125.549 174.419 124.551V134.788H128.28V116.696H139.33H139.334ZM132.206 101.204C138.727 101.371 143.755 104.691 143.755 112.545C143.755 104.687 148.727 101.314 155.305 101.147C148.897 100.98 143.979 97.8269 143.755 90.3592C143.479 97.8302 138.56 101.037 132.206 101.204Z" fill="url(#paint4_linear_321_3450)"/>
<path d="M179.337 87.9805H225.199V96.556H214.313L225.199 118.412H212.49L202.266 96.5026L192.043 118.412H179.334L190.22 96.556H179.334V87.9805H179.337ZM179.337 126.213H225.199V134.789H179.337V126.213Z" fill="url(#paint5_linear_321_3450)"/>
</g>
<defs>
<filter id="filter0_d_321_3450" x="0.316406" y="0.912109" width="251.685" height="163.885" filterUnits="userSpaceOnUse" color-interpolation-filters="sRGB">
<feFlood flood-opacity="0" result="BackgroundImageFix"/>
<feColorMatrix in="SourceAlpha" type="matrix" values="0 0 0 0 0 0 0 0 0 0 0 0 0 0 0 0 0 0 127 0" result="hardAlpha"/>
<feOffset dy="3"/>
<feGaussianBlur stdDeviation="10"/>
<feColorMatrix type="matrix" values="0 0 0 0 0.0158333 0 0 0 0 0.0385169 0 0 0 0 0.633333 0 0 0 0.3 0"/>
<feBlend mode="normal" in2="BackgroundImageFix" result="effect1_dropShadow_321_3450"/>
<feBlend mode="normal" in="SourceGraphic" in2="effect1_dropShadow_321_3450" result="shape"/>
</filter>
<linearGradient id="paint0_linear_321_3450" x1="99.8227" y1="68.3902" x2="99.8227" y2="21.582" gradientUnits="userSpaceOnUse">
<stop stop-color="#00FF7E"/>
<stop offset="1" stop-color="#00FFFF"/>
</linearGradient>
<linearGradient id="paint1_linear_321_3450" x1="151.35" y1="7.13383" x2="151.35" y2="7.13383" gradientUnits="userSpaceOnUse">
<stop stop-color="#00FF7E"/>
<stop offset="1" stop-color="#00FFFF"/>
</linearGradient>
<linearGradient id="paint2_linear_321_3450" x1="49.9557" y1="134.789" x2="49.9557" y2="87.9805" gradientUnits="userSpaceOnUse">
<stop stop-color="#00FF7E"/>
<stop offset="1" stop-color="#00FFFF"/>
</linearGradient>
<linearGradient id="paint3_linear_321_3450" x1="99.8231" y1="134.789" x2="99.8231" y2="87.9805" gradientUnits="userSpaceOnUse">
<stop stop-color="#00FF7E"/>
<stop offset="1" stop-color="#00FFFF"/>
</linearGradient>
<linearGradient id="paint4_linear_321_3450" x1="151.213" y1="134.788" x2="151.213" y2="87.4262" gradientUnits="userSpaceOnUse">
<stop stop-color="#00FF7E"/>
<stop offset="1" stop-color="#00FFFF"/>
</linearGradient>
<linearGradient id="paint5_linear_321_3450" x1="202.266" y1="134.789" x2="202.266" y2="87.9805" gradientUnits="userSpaceOnUse">
<stop stop-color="#00FF7E"/>
<stop offset="1" stop-color="#00FFFF"/>
</linearGradient>
</defs>
</svg>
