<svg viewBox="0 0 212 124" fill="none" xmlns="http://www.w3.org/2000/svg">
<path d="M52.6621 56.4847V39.2337H83.2188L83.682 36.8278C85.0182 29.8907 85.8479 23.9513 86.2778 18.2521H52.6621V1.00098H158.574V56.4847H52.6621Z" fill="#0A13FF"/>
<path d="M157.574 2.00206V55.4838H53.6615V40.2347H84.0448L84.6647 37.0181C86.0909 29.6172 86.9439 23.3741 87.3504 17.2511H53.6615V2.00206H157.574ZM159.573 0H51.6621V19.2532H85.1945C84.748 24.5886 83.9449 30.1744 82.702 36.641L82.3954 38.2327H51.6621V57.4858H159.573V0Z" fill="white"/>
<path d="M15.4653 122.883L16.245 117.878C18.0544 106.266 19.3673 96.1192 19.8605 84.6507H1V67.3996H107.189V73.4191C110.634 69.2015 116.509 66.8457 123.853 66.8457C130.101 66.8457 135.323 68.5608 138.862 71.7274V67.3996H209.965V84.6507H201.661L210.685 105.295V122.883H15.4653Z" fill="#0A13FF"/>
<path d="M123.853 67.8468C131.04 67.8468 136.635 70.1325 139.861 74.25V68.4007H208.965V83.6497H200.135L209.688 105.506V121.882H16.6346L17.2344 118.032C19.1471 105.772 20.4466 95.5286 20.9032 83.6497H1.99935V68.4007H106.189V76.8761C108.848 71.1802 115.122 67.8468 123.853 67.8468ZM123.853 65.8447C117.325 65.8447 111.897 67.6499 108.188 70.94V66.3986H0V85.6518H18.8138C18.2907 96.6498 17.0078 106.497 15.2583 117.721L14.6585 121.572L14.2987 123.884H211.684V105.085L211.517 104.701L203.19 85.6518H210.964V66.3986H137.862V69.672C134.256 67.1794 129.441 65.8447 123.853 65.8447Z" fill="white"/>
<path d="M87.5204 35.9832C89.0132 28.2385 90.1162 20.5473 90.4494 12.2454H56.5771V3.66992H102.439C102.106 15.1217 101.169 26.1898 99.1232 35.9832H87.5204ZM56.5771 41.9026H102.439V50.4781H56.5771V41.9026Z" fill="url(#paint0_linear_392_3461)"/>
<path d="M107.964 13.4633H127.801V11.4146H107.964V3.66992H138.851V19.5496C133.932 20.4906 127.028 21.0979 119.014 21.0979V23.2567C127.025 23.2567 133.932 22.8697 140.23 21.5984V31.0047H107.961V13.4667L107.964 13.4633ZM119.014 33.4939V42.1796L132.826 42.1228C140.01 42.0661 147.745 41.5155 154.099 40.5178V50.4781H107.961V33.4906H119.011L119.014 33.4939ZM142.773 3.66992H153.823V36.9241H142.773V3.66992Z" fill="url(#paint1_linear_392_3461)"/>
<path d="M20.1091 116.877C22.1551 103.763 23.5913 92.4748 23.9212 78.6439H4.91406V70.0684H35.5807C35.2508 87.0558 34.2545 100.61 31.712 116.877H20.1091ZM38.3431 70.0684H49.3929V86.6121H54.3646V96.0184H49.3929V116.877H38.3431V70.0684Z" fill="url(#paint2_linear_392_3461)"/>
<path d="M56.5776 70.0684H86.911V78.6439H67.6273V108.301C75.638 108.301 82.5457 107.914 88.8437 106.643V116.88H56.5742V70.0684H56.5776ZM91.3862 70.0684H102.436V116.877H91.3862V70.0684Z" fill="url(#paint3_linear_392_3461)"/>
<path d="M142.776 87.219H138.907C137.691 93.362 132.166 96.9557 123.436 96.9557C113.489 96.9557 107.688 92.2542 107.688 84.5062V81.9602C107.688 74.2156 113.489 69.5107 123.436 69.5107C131.446 69.5107 136.751 72.5539 138.521 77.8093H142.776V70.0646H153.826V102.488H142.776V87.2156V87.219ZM119.017 98.7842V108.301L132.829 108.244C140.014 108.187 147.748 107.637 154.102 106.639V116.876H107.964V98.7842H119.014H119.017ZM111.889 83.2916C118.411 83.4584 123.439 86.7785 123.439 94.6333C123.439 86.7752 128.411 83.4017 134.989 83.2349C128.581 83.068 123.662 79.9148 123.439 72.4471C123.162 79.9181 118.244 83.1248 111.889 83.2916Z" fill="url(#paint4_linear_392_3461)"/>
<path d="M159.021 70.0684H204.883V78.6439H193.996L204.883 100.5H192.173L181.95 78.5905L171.727 100.5H159.018L169.904 78.6439H159.018V70.0684H159.021ZM159.021 108.301H204.883V116.877H159.021V108.301Z" fill="url(#paint5_linear_392_3461)"/>
<defs>
<linearGradient id="paint0_linear_392_3461" x1="79.5063" y1="50.4781" x2="79.5063" y2="3.66992" gradientUnits="userSpaceOnUse">
<stop stop-color="#00FF7E"/>
<stop offset="1" stop-color="#00FFFF"/>
</linearGradient>
<linearGradient id="paint1_linear_392_3461" x1="131.033" y1="-10.7783" x2="131.033" y2="-10.7783" gradientUnits="userSpaceOnUse">
<stop stop-color="#00FF7E"/>
<stop offset="1" stop-color="#00FFFF"/>
</linearGradient>
<linearGradient id="paint2_linear_392_3461" x1="29.6393" y1="116.877" x2="29.6393" y2="70.0684" gradientUnits="userSpaceOnUse">
<stop stop-color="#00FF7E"/>
<stop offset="1" stop-color="#00FFFF"/>
</linearGradient>
<linearGradient id="paint3_linear_392_3461" x1="79.5067" y1="116.877" x2="79.5067" y2="70.0684" gradientUnits="userSpaceOnUse">
<stop stop-color="#00FF7E"/>
<stop offset="1" stop-color="#00FFFF"/>
</linearGradient>
<linearGradient id="paint4_linear_392_3461" x1="130.897" y1="116.876" x2="130.897" y2="69.5141" gradientUnits="userSpaceOnUse">
<stop stop-color="#00FF7E"/>
<stop offset="1" stop-color="#00FFFF"/>
</linearGradient>
<linearGradient id="paint5_linear_392_3461" x1="181.95" y1="116.877" x2="181.95" y2="70.0684" gradientUnits="userSpaceOnUse">
<stop stop-color="#00FF7E"/>
<stop offset="1" stop-color="#00FFFF"/>
</linearGradient>
</defs>
</svg>
