<svg class="tree-image-resource" viewBox="0 0 860 860" fill="none" xmlns="http://www.w3.org/2000/svg">
<g clip-path="url(#clip0_121_4377)">
<path d="M492.163 145.882C494.177 137.384 494.128 126.655 491.612 118.292C484.647 95.1441 462.984 75.5005 430.001 75.5005C397.018 75.5005 375.354 95.1441 368.39 118.292C365.874 126.655 365.825 137.384 367.839 145.882C367.839 175.299 398.671 187.392 429.627 187.529C460.832 187.668 492.163 175.575 492.163 145.882Z" class="fill" stroke="#0A13FF" stroke-width="5" stroke-miterlimit="10"/>
<path d="M559.758 262.256C563.962 244.519 563.86 222.121 558.608 204.665C544.07 156.346 498.849 115.341 430 115.341C361.152 115.341 315.93 156.346 301.393 204.665C296.141 222.121 296.038 244.519 300.242 262.256C300.242 323.663 364.602 348.905 429.22 349.192C494.358 349.481 559.758 324.238 559.758 262.256Z" class="fill" stroke="#0A13FF" stroke-width="5" stroke-miterlimit="10"/>
</g>
<defs>
<clipPath id="clip0_121_4377">
<rect width="100%" height="100%" fill="white"/>
</clipPath>
</defs>
</svg>
