<svg class="tree-image-resource" viewBox="0 0 860 860" fill="none" xmlns="http://www.w3.org/2000/svg">
<g clip-path="url(#clip0_121_4344)">
<path d="M324.55 301.415C339.765 301.415 352.1 288.711 352.1 273.041C352.1 257.371 339.765 244.668 324.55 244.668C309.335 244.668 297 257.371 297 273.041C297 288.711 309.335 301.415 324.55 301.415Z" fill="#FFEBD1" stroke="#0A13FF" stroke-width="5" stroke-miterlimit="10"/>
<path d="M535.45 301.415C550.666 301.415 563 288.711 563 273.041C563 257.371 550.666 244.668 535.45 244.668C520.235 244.668 507.9 257.371 507.9 273.041C507.9 288.711 520.235 301.415 535.45 301.415Z" fill="#FFEBD1" stroke="#0A13FF" stroke-width="5" stroke-miterlimit="10"/>
<path d="M310.301 273.042H549.701" stroke="#0A13FF" stroke-width="5" stroke-miterlimit="10"/>
<path d="M539.064 268.902C539.064 319.008 490.235 349.572 430.001 349.572C369.767 349.572 320.938 319.008 320.938 268.902C320.938 218.796 339.115 168.122 430.001 168.122C520.887 168.122 539.064 218.796 539.064 268.902Z" fill="#FFEBD1" stroke="#0A13FF" stroke-width="5" stroke-miterlimit="10"/>
<path d="M439.893 283.443C434.548 288.986 426.148 289.305 420.105 283.443" stroke="#0A13FF" stroke-width="5" stroke-linecap="round" stroke-linejoin="round"/>
<path d="M486.612 300.522C498.904 300.522 508.869 291.852 508.869 281.156C508.869 270.46 498.904 261.79 486.612 261.79C474.32 261.79 464.355 270.46 464.355 281.156C464.355 291.852 474.32 300.522 486.612 300.522Z" fill="url(#paint0_radial_121_4344)"/>
<path d="M373.388 300.522C385.68 300.522 395.645 291.852 395.645 281.156C395.645 270.46 385.68 261.79 373.388 261.79C361.096 261.79 351.131 270.46 351.131 281.156C351.131 291.852 361.096 300.522 373.388 300.522Z" fill="url(#paint1_radial_121_4344)"/>
<path d="M400.194 282.433C405.354 282.433 409.537 277.18 409.537 270.701C409.537 264.221 405.354 258.968 400.194 258.968C395.034 258.968 390.852 264.221 390.852 270.701C390.852 277.18 395.034 282.433 400.194 282.433Z" fill="#0A13FF"/>
<path d="M459.806 282.433C464.965 282.433 469.148 277.18 469.148 270.701C469.148 264.221 464.965 258.968 459.806 258.968C454.646 258.968 450.463 264.221 450.463 270.701C450.463 277.18 454.646 282.433 459.806 282.433Z" fill="#0A13FF"/>
<path d="M395.641 159.737H464.041C484.696 159.737 504.506 167.943 519.111 182.548C533.717 197.154 541.922 216.963 541.922 237.618L317.76 237.618C317.76 216.963 325.965 197.154 340.571 182.548C355.176 167.943 374.986 159.737 395.641 159.737Z" class="fill"/>
<path d="M312.061 237.618H547.623" stroke="#0A13FF" stroke-width="5" stroke-miterlimit="10"/>
</g>
<defs>
<radialGradient id="paint0_radial_121_4344" cx="0" cy="0" r="1" gradientUnits="userSpaceOnUse" gradientTransform="translate(486.612 281.159) scale(18.4381 13.1421)">
<stop stop-color="#FBC3C3"/>
<stop offset="0.5608" stop-color="#FEDCCC"/>
<stop offset="1" stop-color="#FFEBD1"/>
</radialGradient>
<radialGradient id="paint1_radial_121_4344" cx="0" cy="0" r="1" gradientUnits="userSpaceOnUse" gradientTransform="translate(373.388 281.159) scale(18.4381 13.1421)">
<stop stop-color="#FBC3C3"/>
<stop offset="0.5608" stop-color="#FEDCCC"/>
<stop offset="1" stop-color="#FFEBD1"/>
</radialGradient>
<clipPath id="clip0_121_4344">
<rect width="100%" height="100%" fill="white"/>
</clipPath>
</defs>
</svg>
