<svg class="tree-image-resource" viewBox="0 0 860 860" fill="none" xmlns="http://www.w3.org/2000/svg">
<g clip-path="url(#clip0_121_4334)">
<path d="M562.945 237.891C565.576 236.151 567.673 233.715 569.004 230.855C570.336 227.996 570.849 224.823 570.488 221.689C570.127 218.556 568.905 215.583 566.958 213.101C565.01 210.619 562.414 208.725 559.456 207.629C561.913 205.344 563.642 202.385 564.427 199.123C565.212 195.861 565.018 192.44 563.869 189.288C562.72 186.135 560.667 183.391 557.967 181.399C555.268 179.407 552.041 178.255 548.69 178.086C550.534 175.374 551.557 172.186 551.636 168.907C551.715 165.627 550.847 162.394 549.135 159.596C547.423 156.797 544.94 154.552 541.984 153.129C539.028 151.706 535.724 151.166 532.469 151.573C532.769 149.172 532.554 146.734 531.838 144.422C531.121 142.11 529.92 139.978 528.314 138.167C526.708 136.357 524.735 134.909 522.525 133.922C520.315 132.935 517.921 132.43 515.5 132.441C513.542 132.445 511.598 132.787 509.755 133.452C509.592 130.199 508.502 127.06 506.612 124.407C504.723 121.754 502.113 119.697 499.092 118.479C496.071 117.261 492.764 116.933 489.563 117.535C486.362 118.136 483.399 119.641 481.026 121.871C480.492 118.823 479.141 115.977 477.115 113.637C475.089 111.298 472.465 109.553 469.524 108.59C466.584 107.626 463.436 107.48 460.419 108.168C457.401 108.855 454.627 110.349 452.394 112.491C450.896 109.892 448.74 107.734 446.143 106.233C443.546 104.732 440.6 103.942 437.6 103.941C430.113 103.941 426.087 106.039 422.617 111.372C418.045 105.785 412.308 105.004 405.178 105.362C397.232 105.76 390.734 110.37 388.824 117.728C385.998 115.663 382.469 113.441 378.7 113.441C374.503 113.442 370.452 114.988 367.321 117.782C364.189 120.577 362.195 124.427 361.719 128.597C359.113 127.272 356.212 126.638 353.291 126.755C350.371 126.873 347.53 127.738 345.039 129.267C342.549 130.797 340.493 132.94 339.068 135.492C337.643 138.044 336.896 140.919 336.9 143.841C336.9 143.879 336.906 143.916 336.906 143.954C334.514 143.678 332.09 143.912 329.794 144.64C327.499 145.368 325.384 146.575 323.588 148.18C321.793 149.785 320.358 151.752 319.377 153.951C318.397 156.151 317.894 158.533 317.9 160.941C317.904 162.9 318.246 164.844 318.911 166.686C315.977 166.832 313.131 167.733 310.647 169.302C308.164 170.871 306.128 173.054 304.736 175.641C303.345 178.228 302.644 181.13 302.704 184.067C302.763 187.004 303.58 189.875 305.075 192.404C304.984 192.619 304.883 192.831 304.794 193.047C302.684 194.056 300.805 195.489 299.273 197.256C297.741 199.022 296.588 201.085 295.886 203.316C295.185 205.547 294.949 207.898 295.194 210.224C295.44 212.55 296.161 214.8 297.312 216.836C295.028 218.288 293.122 220.263 291.752 222.598C290.381 224.932 289.585 227.558 289.429 230.261C289.273 232.963 289.761 235.664 290.854 238.14C291.947 240.617 293.613 242.798 295.714 244.504C293.784 246.638 292.423 249.225 291.76 252.025C291.097 254.824 291.152 257.746 291.92 260.519C292.689 263.292 294.145 265.826 296.155 267.885C298.164 269.945 300.662 271.463 303.415 272.298C321.955 305.862 371.281 314.841 429.237 314.841C489.097 314.841 539.759 305.27 556.793 268.918C560.121 268.266 563.18 266.639 565.58 264.244C567.981 261.849 569.614 258.794 570.274 255.468C570.934 252.141 570.589 248.694 569.284 245.564C567.979 242.435 565.772 239.764 562.945 237.891Z" class="fill" stroke="#0A13FF" stroke-width="5" stroke-linecap="round" stroke-linejoin="round"/>
</g>
<defs>
<clipPath id="clip0_121_4334">
<rect width="100%" height="100%" fill="white"/>
</clipPath>
</defs>
</svg>
