<svg class="tree-image-resource" viewBox="0 0 860 860" fill="none" xmlns="http://www.w3.org/2000/svg">
<g clip-path="url(#clip0_121_4443)">
<path d="M342.736 361.424C329.781 387.018 303.946 390.041 303.727 389.967C303.507 389.781 292.679 366.07 308.167 341.917C320.896 322.067 342.86 320.821 342.86 320.821C342.86 320.821 353.385 340.385 342.736 361.424Z" class="fill" stroke="#0A13FF" stroke-width="5" stroke-miterlimit="10"/>
<path d="M516.89 361.424C529.845 387.018 555.68 390.041 555.899 389.967C556.119 389.781 566.947 366.07 551.459 341.917C538.73 322.067 516.766 320.821 516.766 320.821C516.766 320.821 506.241 340.385 516.89 361.424Z" class="fill" stroke="#0A13FF" stroke-width="5" stroke-miterlimit="10"/>
<path d="M559.757 258.307C564.109 240.587 563.712 222.033 558.607 204.516C544.069 156.196 498.848 115.192 429.999 115.192C361.151 115.192 315.929 156.197 301.392 204.516C296.286 222.033 295.889 240.587 300.241 258.307C300.241 395.528 559.757 395.528 559.757 258.307Z" class="fill" stroke="#0A13FF" stroke-width="5" stroke-miterlimit="10"/>
</g>
<defs>
<clipPath id="clip0_121_4443">
<rect width="100%" height="100%" fill="white"/>
</clipPath>
</defs>
</svg>
