<svg class="tree-image-resource" viewBox="0 0 860 860" fill="none" xmlns="http://www.w3.org/2000/svg">
<g clip-path="url(#clip0_121_4418)">
<path d="M434.695 116.314C503.544 116.314 552.984 143.121 568.054 205.639C572.326 223.36 573.408 241.692 569.204 259.429C569.204 259.429 560.659 288.048 564.723 298.432C568.786 308.817 576.461 320.555 569.237 336.357C562.014 352.159 564.271 358.48 570.14 370.219C576.01 381.957 578.855 398.089 568.875 417.811C558.895 437.534 574.935 449.918 574.935 468.425C574.935 486.604 553.548 514.406 434.695 514.406C315.841 514.406 294.455 486.604 294.455 468.425C294.455 449.918 310.495 437.534 300.515 417.811C290.534 398.089 293.38 381.957 299.249 370.219C305.119 358.48 307.376 352.159 300.152 336.357C292.929 320.555 300.604 308.817 304.667 298.432C308.731 288.048 300.186 259.429 300.186 259.429C295.982 241.692 297.064 223.36 301.336 205.639C316.406 143.121 365.846 116.314 434.695 116.314Z" class="fill" stroke="#0A13FF" stroke-width="5" stroke-miterlimit="10"/>
</g>
<defs>
<clipPath id="clip0_121_4418">
<rect width="100%" height="100%" fill="white"/>
</clipPath>
</defs>
</svg>
