<svg class="tree-image-resource" viewBox="0 0 860 860" fill="none" xmlns="http://www.w3.org/2000/svg">
<g clip-path="url(#clip0_131_3458)">
<path d="M355.148 502.525L347.148 636.782H512.851L504.851 502.525H355.148Z" class="fill" stroke="#0A13FF" stroke-width="5" stroke-miterlimit="10"/>
<path d="M354.287 522.723H506.842" stroke="#0A13FF" stroke-width="5" stroke-miterlimit="10"/>
<path d="M478.565 522.247C478.565 522.247 478.09 555.277 508.268 569.059L478.565 522.247Z" class="fill"/>
<path d="M478.565 522.247C478.565 522.247 478.09 555.277 508.268 569.059" stroke="#0A13FF" stroke-width="5" stroke-miterlimit="10"/>
<path d="M381.613 522.247C381.613 522.247 382.088 555.277 351.91 569.059L381.613 522.247Z" class="fill"/>
<path d="M381.613 522.247C381.613 522.247 382.088 555.277 351.91 569.059" stroke="#0A13FF" stroke-width="5" stroke-miterlimit="10"/>
<path d="M430.001 530.247C421.335 530.247 421.321 543.714 430.001 543.714C438.666 543.714 438.68 530.247 430.001 530.247Z" class="fill"/>
</g>
<defs>
<clipPath id="clip0_131_3458">
<rect width="100%" height="100%" fill="white"/>
</clipPath>
</defs>
</svg>
