<svg viewBox="0 0 50 41" fill="none" xmlns="http://www.w3.org/2000/svg">
<g clip-path="url(#clip0_334_4107)">
<g filter="url(#filter0_d_334_4107)">
<path d="M25.3266 35.9266C34.0776 35.9266 41.1717 28.8795 41.1717 20.1864C41.1717 11.4934 34.0776 4.44629 25.3266 4.44629C16.5756 4.44629 9.48145 11.4934 9.48145 20.1864C9.48145 28.8795 16.5756 35.9266 25.3266 35.9266Z" fill="url(#paint0_linear_334_4107)"/>
</g>
<mask id="mask0_334_4107" style="mask-type:luminance" maskUnits="userSpaceOnUse" x="9" y="4" width="33" height="32">
<path d="M25.3266 35.9266C34.0776 35.9266 41.1717 28.8795 41.1717 20.1864C41.1717 11.4934 34.0776 4.44629 25.3266 4.44629C16.5756 4.44629 9.48145 11.4934 9.48145 20.1864C9.48145 28.8795 16.5756 35.9266 25.3266 35.9266Z" fill="white"/>
</mask>
<g mask="url(#mask0_334_4107)">
<g style="mix-blend-mode:multiply" opacity="0.18">
<path d="M13.9539 20.3491C13.8447 20.0479 13.7436 19.733 13.5741 19.4589C13.4129 19.1956 13.2271 18.9214 12.9976 18.7124C12.6424 18.3894 12.3364 18.1886 11.8883 18.0176C11.7489 17.9633 11.6068 17.9497 11.4593 17.9226C11.1287 17.8656 10.8964 17.8764 10.5467 17.9226C10.2871 17.9579 10.033 18.0664 9.79798 18.1723C9.5712 18.2727 9.36627 18.4437 9.175 18.593C8.98373 18.7396 8.82252 18.9187 8.66404 19.1033C8.48644 19.2607 8.35801 19.4453 8.27878 19.6651C8.16401 19.8687 8.10663 20.0886 8.1039 20.3274C8.08478 20.7699 8.26785 21.3127 8.593 21.6249C8.60939 21.6411 8.62852 21.6574 8.64492 21.6737C8.66404 21.8746 8.69137 22.0754 8.72142 22.2709C8.7952 22.754 8.89356 23.2344 8.97827 23.7149L9.52748 26.7331C9.62038 27.2407 9.70782 27.7483 9.80345 28.2559C9.87722 28.6494 10.0302 29.0131 10.2652 29.3361C10.451 29.5886 10.6095 29.7596 10.8937 29.936C11.033 30.0229 11.2325 30.1097 11.391 30.1586C11.4729 30.183 11.615 30.1993 11.6669 30.2074C11.7708 30.2237 11.8828 30.2536 11.9894 30.2536C12.2271 30.2536 12.473 30.2264 12.708 30.183C12.7927 30.1667 12.8747 30.145 12.9539 30.1151C13.2599 30.012 13.5741 29.9061 13.8392 29.7189C14.0223 29.5913 14.2163 29.4664 14.3802 29.3117C14.5441 29.1543 14.6862 28.9697 14.8201 28.7879C14.9103 28.6657 14.9677 28.5273 15.0305 28.3889C15.0961 28.245 15.1671 28.1093 15.2027 27.9546C15.2573 27.7211 15.3119 27.4687 15.301 27.2271C15.2901 26.9639 15.2737 26.6789 15.189 26.4264C15.0606 26.0356 14.9021 25.6773 14.6972 25.3217C14.4676 24.9281 14.2381 24.5373 14.055 24.122C14.0168 23.9971 13.984 23.8696 13.9594 23.742C13.9594 23.6524 13.9649 23.5629 13.9731 23.476C14.0714 23.0064 14.1889 22.5369 14.1971 22.0537C14.2026 21.6954 14.1643 21.3317 14.1097 20.9789C14.0769 20.7644 14.0223 20.5527 13.9458 20.3464L13.9539 20.3491Z" fill="#0640E6"/>
<path d="M23.2498 8.29528C23.0859 7.8067 22.7962 7.4077 22.3672 7.11456C21.9492 6.82956 21.43 6.73999 20.9355 6.71013C20.5038 6.68299 20.0584 6.71013 19.6349 6.80785C19.1676 6.91913 18.7687 7.15256 18.4025 7.45385C17.8479 7.90985 17.4954 8.55856 17.0746 9.12856C16.9161 9.31856 16.744 9.49499 16.5554 9.65242C16.4789 9.7067 16.3997 9.76099 16.3205 9.81256C16.1483 9.88042 15.9734 9.94556 15.8068 10.027C15.5117 10.1708 15.263 10.3961 15.0827 10.6676C14.6455 11.3217 14.834 12.1767 15.3313 12.7358C15.7603 13.2217 16.4707 13.428 17.1019 13.4334C17.6894 13.4388 18.296 13.2624 18.7823 12.934C19.2059 12.649 19.5583 12.2826 19.9518 11.9623C20.0666 11.8808 20.1868 11.8076 20.3152 11.7451C20.6404 11.6284 20.9792 11.566 21.3098 11.4628C21.7743 11.3163 22.1869 11.1046 22.5476 10.7761C23.217 10.1681 23.5476 9.16113 23.2525 8.29256L23.2498 8.29528Z" fill="#066FE6"/>
<path d="M39.2641 9.70117C39.122 9.02532 38.7094 8.39289 38.2285 7.90432C37.7066 7.37503 37.07 7.00046 36.3869 6.72089C35.8978 6.52003 35.3677 6.39246 34.8349 6.34903C34.7803 6.0586 34.6026 5.7926 34.3239 5.60532C33.0944 4.78017 31.2773 5.33117 30.7063 6.67475C30.4057 7.38046 30.444 8.12417 30.7636 8.81632C31.0123 9.35917 31.5314 9.77717 32.0725 10.0079C32.567 10.2196 33.0916 10.339 33.5917 10.5263C33.6791 10.5697 33.7665 10.6159 33.8485 10.6675C33.8868 10.7027 33.9223 10.7407 33.9578 10.7787C34.0944 10.985 34.2065 11.2076 34.3349 11.422C34.5125 11.7152 34.7201 12.0002 34.9606 12.2472C35.4661 12.771 36.223 13.1619 36.9716 13.0723C37.3678 13.0262 37.7504 12.9285 38.081 12.6977C38.4225 12.4616 38.693 12.1929 38.9226 11.8427C39.3406 11.2049 39.4226 10.4286 39.2668 9.69575L39.2641 9.70117Z" fill="#066FE6"/>
<path d="M30.5884 31.6081C30.5693 31.3231 30.4791 31.0326 30.3698 30.7666C30.266 30.5169 30.1512 30.2428 29.9709 30.0392C29.6758 29.7053 29.3288 29.5153 28.8943 29.4203C28.6101 29.3579 28.2959 29.3579 28.009 29.4095C27.4188 29.5126 26.9188 29.7651 26.4051 30.0419C26.1373 30.1858 25.8641 30.3188 25.5717 30.4056C25.3449 30.4491 25.1182 30.4681 24.8914 30.5142C24.5198 30.5875 24.1919 30.6933 23.8722 30.8996C23.5388 31.1141 23.2902 31.4479 23.1727 31.8225C23.0552 32.1998 23.0689 32.5662 23.1836 32.9462C23.2847 33.2855 23.506 33.5841 23.7656 33.8202C24.0498 34.0781 24.405 34.2192 24.7684 34.3196C25.3832 34.4906 26.0526 34.3929 26.651 34.2111C27.0827 34.0808 27.4899 33.8799 27.8861 33.6601C28.009 33.6248 28.1347 33.5895 28.2577 33.5569C28.6812 33.4728 29.1211 33.4755 29.5282 33.3208C29.8206 33.2095 30.1075 33.0141 30.2824 32.7535C30.5201 32.4033 30.6157 32.0288 30.5884 31.6053V31.6081Z" fill="#0640E6"/>
<path d="M41.7036 20.3416C41.2801 19.929 40.6079 19.7716 40.0314 19.7255C39.4467 19.6766 38.8128 19.8965 38.4138 20.3307C38.004 20.7759 37.799 21.3459 37.7963 21.9485C37.7936 22.4316 37.9439 22.893 38.0258 23.3653C38.0313 23.4467 38.034 23.5282 38.0313 23.6096C38.0122 23.691 37.9876 23.7725 37.9575 23.8512C37.851 24.0846 37.7307 24.3099 37.6351 24.5515C37.4957 24.9152 37.4957 25.3359 37.6488 25.6942C37.8236 26.1067 38.1379 26.3755 38.5559 26.5383C38.9384 26.6876 39.3565 26.6143 39.7172 26.4487C40.0369 26.3022 40.2664 26.0362 40.4713 25.762C40.6134 25.5747 40.7336 25.3712 40.8347 25.1622C41.1107 24.5895 41.2582 24.0249 41.3238 23.3979C41.3566 23.1047 41.3648 22.8089 41.373 22.513C41.3785 22.3095 41.373 22.0977 41.3402 21.8915C41.4768 21.848 41.6025 21.7747 41.7036 21.6662C42.0452 21.2943 42.078 20.7107 41.7036 20.3443V20.3416Z" fill="#0640E6"/>
</g>
</g>
<path d="M45.0978 24.4425C48.3958 26.7361 50.1418 28.7664 49.6445 30.0855C48.527 33.0414 36.5919 31.3259 22.9819 26.2557C9.36912 21.1827 -0.759846 14.6765 0.357702 11.7207C0.857729 10.3961 3.53001 10.0107 7.55208 10.4422" stroke="url(#paint1_linear_334_4107)" stroke-width="1.6" stroke-linecap="round" stroke-linejoin="round"/>
</g>
<defs>
<filter id="filter0_d_334_4107" x="-1.23855" y="-6.27371" width="53.1304" height="52.9205" filterUnits="userSpaceOnUse" color-interpolation-filters="sRGB">
<feFlood flood-opacity="0" result="BackgroundImageFix"/>
<feColorMatrix in="SourceAlpha" type="matrix" values="0 0 0 0 0 0 0 0 0 0 0 0 0 0 0 0 0 0 127 0" result="hardAlpha"/>
<feOffset/>
<feGaussianBlur stdDeviation="5.36"/>
<feColorMatrix type="matrix" values="0 0 0 0 1 0 0 0 0 1 0 0 0 0 1 0 0 0 0.5 0"/>
<feBlend mode="normal" in2="BackgroundImageFix" result="effect1_dropShadow_334_4107"/>
<feBlend mode="normal" in="SourceGraphic" in2="effect1_dropShadow_334_4107" result="shape"/>
</filter>
<linearGradient id="paint0_linear_334_4107" x1="25.3266" y1="35.9293" x2="25.3266" y2="4.44629" gradientUnits="userSpaceOnUse">
<stop stop-color="#0234D4"/>
<stop offset="0.13" stop-color="#013DD6"/>
<stop offset="0.35" stop-color="#0158DD"/>
<stop offset="0.63" stop-color="#0084E8"/>
<stop offset="0.97" stop-color="#00C0F7"/>
<stop offset="1" stop-color="#00C7F9"/>
</linearGradient>
<linearGradient id="paint1_linear_334_4107" x1="-0.00024149" y1="20.9031" x2="49.9998" y2="20.9031" gradientUnits="userSpaceOnUse">
<stop stop-color="#3FCCEC"/>
<stop offset="0.53" stop-color="#1E83F6"/>
<stop offset="1" stop-color="#0023FF"/>
</linearGradient>
<clipPath id="clip0_334_4107">
<rect width="50" height="40.7143" fill="white"/>
</clipPath>
</defs>
</svg>
