<svg viewBox="0 0 50 41" fill="none" xmlns="http://www.w3.org/2000/svg">
<g clip-path="url(#clip0_334_4107)">
<g filter="url(#filter0_d_334_4107)">
<path d="M25.3165 35.9266C33.8101 35.9266 40.6956 28.7796 40.6956 19.9633C40.6956 11.147 33.8101 4 25.3165 4C16.8229 4 9.9375 11.147 9.9375 19.9633C9.9375 28.7796 16.8229 35.9266 25.3165 35.9266Z" fill="url(#paint0_linear_334_4107)"/>
</g>
<mask id="mask0_334_4107" style="mask-type:luminance" maskUnits="userSpaceOnUse" x="9" y="4" width="32" height="32">
<path d="M25.3175 35.9266C33.8111 35.9266 40.6965 28.7796 40.6965 19.9633C40.6965 11.147 33.8111 4 25.3175 4C16.8239 4 9.93848 11.147 9.93848 19.9633C9.93848 28.7796 16.8239 35.9266 25.3175 35.9266Z" fill="white"/>
</mask>
<g mask="url(#mask0_334_4107)">
<g style="mix-blend-mode:multiply" opacity="0.18">
<path d="M14.2789 20.1282C14.1728 19.8227 14.0747 19.5034 13.9103 19.2253C13.7538 18.9583 13.5735 18.6803 13.3507 18.4683C13.0059 18.1407 12.7089 17.937 12.274 17.7636C12.1387 17.7086 12.0008 17.6948 11.8576 17.6673C11.5367 17.6095 11.3113 17.6205 10.9718 17.6673C10.7199 17.7031 10.4733 17.8132 10.2452 17.9205C10.0251 18.0224 9.82616 18.1958 9.64052 18.3472C9.45488 18.4958 9.29841 18.6775 9.1446 18.8647C8.97221 19.0244 8.84757 19.2116 8.77066 19.4345C8.65928 19.641 8.60358 19.864 8.60093 20.1062C8.58237 20.5549 8.76005 21.1055 9.07564 21.422C9.09156 21.4386 9.11012 21.4551 9.12603 21.4716C9.1446 21.6753 9.17112 21.879 9.20029 22.0772C9.27189 22.5672 9.36736 23.0544 9.44958 23.5417L9.98263 26.6027C10.0728 27.1175 10.1577 27.6323 10.2505 28.147C10.3221 28.5462 10.4706 28.9151 10.6987 29.2426C10.879 29.4987 11.0328 29.6721 11.3086 29.851C11.4439 29.9391 11.6375 30.0272 11.7913 30.0767C11.8709 30.1015 12.0088 30.118 12.0592 30.1263C12.1599 30.1428 12.2687 30.1731 12.3721 30.1731C12.6028 30.1731 12.8415 30.1456 13.0696 30.1015C13.1518 30.085 13.2313 30.063 13.3083 30.0327C13.6053 29.9281 13.9103 29.8207 14.1675 29.6308C14.3452 29.5014 14.5335 29.3748 14.6926 29.2179C14.8517 29.0582 14.9896 28.871 15.1196 28.6866C15.2071 28.5627 15.2628 28.4223 15.3238 28.2819C15.3874 28.136 15.4564 27.9984 15.4909 27.8415C15.5439 27.6047 15.5969 27.3487 15.5863 27.1037C15.5757 26.8367 15.5598 26.5477 15.4776 26.2917C15.353 25.8953 15.1991 25.5319 15.0002 25.1713C14.7775 24.7722 14.5547 24.3758 14.377 23.9546C14.3399 23.828 14.3081 23.6986 14.2842 23.5692C14.2842 23.4784 14.2895 23.3875 14.2975 23.2994C14.3929 22.8232 14.507 22.347 14.5149 21.857C14.5202 21.4936 14.4831 21.1247 14.4301 20.7669C14.3982 20.5494 14.3452 20.3347 14.2709 20.1255L14.2789 20.1282Z" fill="#0640E6"/>
<path d="M23.3012 7.90383C23.1421 7.40833 22.861 7.00367 22.4446 6.70637C22.0388 6.41733 21.5349 6.32649 21.0549 6.29621C20.6359 6.26868 20.2036 6.29621 19.7926 6.39531C19.3391 6.50817 18.9519 6.74491 18.5965 7.05047C18.0582 7.51293 17.716 8.17084 17.3076 8.74893C17.1538 8.94162 16.9867 9.12055 16.8038 9.28021C16.7295 9.33526 16.6526 9.39032 16.5757 9.44262C16.4086 9.51144 16.2389 9.57751 16.0771 9.66009C15.7907 9.80599 15.5494 10.0345 15.3743 10.3097C14.95 10.9732 15.133 11.8403 15.6157 12.4074C16.032 12.9001 16.7215 13.1093 17.3342 13.1148C17.9043 13.1203 18.4931 12.9414 18.9651 12.6083C19.3762 12.3193 19.7183 11.9476 20.1002 11.6228C20.2116 11.5402 20.3283 11.4659 20.4529 11.4026C20.7685 11.2842 21.0974 11.2209 21.4183 11.1163C21.8691 10.9677 22.2696 10.7529 22.6196 10.4199C23.2694 9.80323 23.5903 8.78196 23.3038 7.90107L23.3012 7.90383Z" fill="#066FE6"/>
<path d="M38.8442 9.3292C38.7063 8.64376 38.3059 8.00237 37.8391 7.50687C37.3326 6.97008 36.7147 6.5902 36.0516 6.30666C35.5769 6.10296 35.0624 5.97358 34.5453 5.92954C34.4923 5.63499 34.3199 5.36522 34.0494 5.17528C32.856 4.33844 31.0924 4.89725 30.5381 6.25987C30.2464 6.97559 30.2835 7.72984 30.5938 8.4318C30.8351 8.98235 31.339 9.40628 31.8641 9.64026C32.3441 9.85498 32.8533 9.9761 33.3386 10.166C33.4235 10.2101 33.5084 10.2569 33.5879 10.3092C33.6251 10.345 33.6595 10.3835 33.694 10.422C33.8266 10.6313 33.9353 10.857 34.06 11.0745C34.2324 11.3718 34.4339 11.6608 34.6673 11.9113C35.1579 12.4426 35.8925 12.839 36.6192 12.7481C37.0037 12.7013 37.375 12.6022 37.6959 12.3683C38.0274 12.1288 38.2899 11.8562 38.5127 11.5011C38.9185 10.8542 38.998 10.0669 38.8469 9.3237L38.8442 9.3292Z" fill="#066FE6"/>
<path d="M30.4245 31.547C30.4059 31.2579 30.3184 30.9634 30.2123 30.6936C30.1116 30.4404 30.0002 30.1623 29.8251 29.9559C29.5387 29.6173 29.2019 29.4246 28.7802 29.3283C28.5044 29.2649 28.1995 29.2649 27.921 29.3172C27.3482 29.4219 26.8628 29.6779 26.3643 29.9586C26.1044 30.1045 25.8392 30.2394 25.5554 30.3275C25.3353 30.3716 25.1152 30.3908 24.895 30.4376C24.5344 30.5119 24.2161 30.6193 23.9058 30.8285C23.5823 31.046 23.341 31.3846 23.2269 31.7645C23.1129 32.1471 23.1261 32.5187 23.2375 32.9041C23.3357 33.2482 23.5505 33.551 23.8024 33.7905C24.0782 34.052 24.423 34.1951 24.7757 34.297C25.3724 34.4704 26.0221 34.3713 26.6029 34.1869C27.022 34.0548 27.4171 33.8511 27.8017 33.6281C27.921 33.5923 28.043 33.5565 28.1623 33.5235C28.5734 33.4381 29.0004 33.4409 29.3955 33.284C29.6793 33.1711 29.9577 32.9729 30.1275 32.7087C30.3582 32.3535 30.451 31.9737 30.4245 31.5442V31.547Z" fill="#0640E6"/>
<path d="M41.2118 20.1209C40.8007 19.7025 40.1483 19.5429 39.5887 19.4961C39.0212 19.4465 38.4059 19.6695 38.0187 20.1099C37.6209 20.5614 37.422 21.1395 37.4194 21.7506C37.4167 22.2406 37.5626 22.7085 37.6422 23.1875C37.6475 23.2701 37.6501 23.3527 37.6475 23.4353C37.6289 23.5178 37.605 23.6004 37.5759 23.6803C37.4724 23.917 37.3557 24.1455 37.2629 24.3905C37.1277 24.7593 37.1277 25.186 37.2762 25.5494C37.4459 25.9678 37.7509 26.2403 38.1567 26.4055C38.5279 26.5569 38.9337 26.4826 39.2838 26.3147C39.594 26.166 39.8168 25.8962 40.0157 25.6182C40.1536 25.4283 40.2703 25.2218 40.3684 25.0098C40.6363 24.429 40.7795 23.8564 40.8431 23.2205C40.875 22.9232 40.8829 22.6232 40.8909 22.3231C40.8962 22.1167 40.8909 21.902 40.8591 21.6928C40.9917 21.6487 41.1137 21.5744 41.2118 21.4643C41.5433 21.0872 41.5751 20.4953 41.2118 20.1237V20.1209Z" fill="#0640E6"/>
</g>
</g>
<path d="M44.5059 24.2801C47.7068 26.6062 49.4015 28.6653 48.9188 30.0031C47.8341 33.0009 36.2501 31.2611 23.0405 26.119C9.82813 20.974 -0.0028884 14.3757 1.08179 11.3779C1.5671 10.0345 4.16077 9.64365 8.06454 10.0813" stroke="url(#paint1_linear_334_4107)" stroke-width="1.6" stroke-linecap="round" stroke-linejoin="round"/>
</g>
<defs>
<filter id="filter0_d_334_4107" x="-0.7825" y="-6.72" width="52.1978" height="53.3668" filterUnits="userSpaceOnUse" color-interpolation-filters="sRGB">
<feFlood flood-opacity="0" result="BackgroundImageFix"/>
<feColorMatrix in="SourceAlpha" type="matrix" values="0 0 0 0 0 0 0 0 0 0 0 0 0 0 0 0 0 0 127 0" result="hardAlpha"/>
<feOffset/>
<feGaussianBlur stdDeviation="5.36"/>
<feColorMatrix type="matrix" values="0 0 0 0 1 0 0 0 0 1 0 0 0 0 1 0 0 0 0.5 0"/>
<feBlend mode="normal" in2="BackgroundImageFix" result="effect1_dropShadow_334_4107"/>
<feBlend mode="normal" in="SourceGraphic" in2="effect1_dropShadow_334_4107" result="shape"/>
</filter>
<linearGradient id="paint0_linear_334_4107" x1="25.3165" y1="35.9293" x2="25.3165" y2="4" gradientUnits="userSpaceOnUse">
<stop stop-color="#0234D4"/>
<stop offset="0.13" stop-color="#013DD6"/>
<stop offset="0.35" stop-color="#0158DD"/>
<stop offset="0.63" stop-color="#0084E8"/>
<stop offset="0.97" stop-color="#00C0F7"/>
<stop offset="1" stop-color="#00C7F9"/>
</linearGradient>
<linearGradient id="paint1_linear_334_4107" x1="0.734372" y1="20.6905" x2="49.2636" y2="20.6905" gradientUnits="userSpaceOnUse">
<stop stop-color="#3FCCEC"/>
<stop offset="0.53" stop-color="#1E83F6"/>
<stop offset="1" stop-color="#0023FF"/>
</linearGradient>
<clipPath id="clip0_334_4107">
<rect width="50" height="40.7143" fill="white"/>
</clipPath>
</defs>
</svg>
