<svg class="tree-image-resource" viewBox="0 0 860 860" fill="none" xmlns="http://www.w3.org/2000/svg">
<g clip-path="url(#clip0_203_3645)">
<path d="M345.639 479.91L365.379 413L327.199 400.9C327.199 400.9 311.999 430.54 297.999 455.63C286.599 476.1 307.779 501.68 307.779 501.68C307.779 501.68 300.169 515.85 304.479 526.41C309.799 539.46 335.549 541.58 351.209 515.22" fill="#FFEBD1"/>
<path d="M345.639 479.91L365.379 413L327.199 400.9C327.199 400.9 311.999 430.54 297.999 455.63C286.599 476.1 307.779 501.68 307.779 501.68C307.779 501.68 300.169 515.85 304.479 526.41C309.799 539.46 335.549 541.58 351.209 515.22" stroke="#0A13FF" stroke-width="5" stroke-linecap="round" stroke-linejoin="round"/>
<path d="M429.999 375.64L341.109 480.52L302.799 498.21C302.799 498.21 285.249 464.11 296.399 437.77C302.689 421.23 321.399 396.49 329.779 385.97C352.479 357.41 380.349 348.97 400.149 348.97H426.999" class="fill"/>
<path d="M429.999 375.64L341.109 480.52L302.799 498.21C302.799 498.21 285.249 464.11 296.399 437.77C302.689 421.23 321.399 396.49 329.779 385.97C352.479 357.41 380.349 348.97 400.149 348.97H426.999" stroke="#0A13FF" stroke-width="5" stroke-miterlimit="10"/>
<path d="M295.808 459.11C310.608 459.11 310.628 482.11 295.808 482.11C291.628 482.11 292.688 469.56 292.688 469.56C292.688 469.56 289.998 459.11 295.808 459.11Z" fill="#0A13FF"/>
<path d="M340.15 448.17C354.95 448.17 354.98 471.17 340.15 471.17C325.32 471.17 325.33 448.17 340.15 448.17Z" fill="#0A13FF"/>
<path d="M317.309 402.92C331.979 404.92 328.949 427.68 314.259 425.72C312.553 425.558 310.912 424.981 309.479 424.04C308.047 423.099 306.866 421.822 306.039 420.32L317.309 402.92Z" fill="#0A13FF"/>
<path d="M510.329 468.37L493.199 413L531.379 400.9C531.379 400.9 546.599 430.5 560.559 455.59C571.959 476.06 550.779 501.64 550.779 501.64C550.779 501.64 558.399 515.81 554.089 526.37C548.759 539.42 523.009 541.54 507.349 515.18" fill="#FFEBD1"/>
<path d="M510.329 468.37L493.199 413L531.379 400.9C531.379 400.9 546.599 430.5 560.559 455.59C571.959 476.06 550.779 501.64 550.779 501.64C550.779 501.64 558.399 515.81 554.089 526.37C548.759 539.42 523.009 541.54 507.349 515.18" stroke="#0A13FF" stroke-width="5" stroke-linecap="round" stroke-linejoin="round"/>
<path d="M516.66 473.5L523.84 468.37" stroke="#0A13FF" stroke-width="5" stroke-linecap="round" stroke-linejoin="round"/>
<path d="M257.438 266.001L181.402 300.509L225.489 397.653L301.525 363.145L257.438 266.001Z" class="fill" stroke="#0A13FF" stroke-width="5" stroke-linecap="round" stroke-linejoin="round"/>
<path d="M233.19 292.489L166.129 342.238L229.689 427.916L296.751 378.166L233.19 292.489Z" class="fill" stroke="#0A13FF" stroke-width="5" stroke-linecap="round" stroke-linejoin="round"/>
<path d="M185.219 347.17L230.379 312.79" stroke="#0A13FF" stroke-width="5" stroke-linecap="round" stroke-linejoin="round"/>
<path d="M195.281 357.73L238.511 324.81" stroke="#0A13FF" stroke-width="5" stroke-linecap="round" stroke-linejoin="round"/>
<path d="M204.512 369.85L247.742 336.93" stroke="#0A13FF" stroke-width="5" stroke-linecap="round" stroke-linejoin="round"/>
<path d="M213.738 381.97L256.968 349.05" stroke="#0A13FF" stroke-width="5" stroke-linecap="round" stroke-linejoin="round"/>
<path d="M222.969 394.09L266.209 361.17" stroke="#0A13FF" stroke-width="5" stroke-linecap="round" stroke-linejoin="round"/>
<path d="M232.199 406.2L275.439 373.29" stroke="#0A13FF" stroke-width="5" stroke-linecap="round" stroke-linejoin="round"/>
<path d="M574.628 347L552.898 361.78L553.898 370.53L579.768 380.41" stroke="#0A13FF" stroke-width="14" stroke-linecap="round" stroke-linejoin="round"/>
<path d="M603.801 389.59L628.361 399L634.951 393.17L627.621 366.64" stroke="#0A13FF" stroke-width="14" stroke-linecap="round" stroke-linejoin="round"/>
<path d="M623.911 334.07L620.481 320.27L611.261 316.64L591.871 330" stroke="#0A13FF" stroke-width="14" stroke-linecap="round" stroke-linejoin="round"/>
<path d="M610.82 383.72L600.93 388.14L605.73 398.87" class="fill"/>
<path d="M610.82 383.72L600.93 388.14L605.73 398.87" stroke="#0A13FF" stroke-width="11.81" stroke-linecap="round" stroke-linejoin="round"/>
<path d="M575.05 355.44L576.91 344.77L565.34 342.75" class="fill"/>
<path d="M575.05 355.44L576.91 344.77L565.34 342.75" stroke="#0A13FF" stroke-width="11.81" stroke-linecap="round" stroke-linejoin="round"/>
<path d="M616.43 338.83L624.75 345.76L632.27 336.74" class="fill"/>
<path d="M616.43 338.83L624.75 345.76L632.27 336.74" stroke="#0A13FF" stroke-width="11.81" stroke-linecap="round" stroke-linejoin="round"/>
<path d="M430 375.64L518.89 480.52L557.2 498.21C557.2 498.21 574.75 464.11 563.6 437.77C557.31 421.23 538.6 396.49 530.22 385.97C507.52 357.41 479.65 348.97 459.85 348.97H433" class="fill"/>
<path d="M430 375.64L518.89 480.52L557.2 498.21C557.2 498.21 574.75 464.11 563.6 437.77C557.31 421.23 538.6 396.49 530.22 385.97C507.52 357.41 479.65 348.97 459.85 348.97H433" stroke="#0A13FF" stroke-width="5" stroke-miterlimit="10"/>
<path d="M503.769 390.84C496.429 372.78 486.459 354.73 429.999 354.73C373.539 354.73 363.569 372.73 356.229 390.84C343.929 421.06 335.449 533.65 335.449 533.65C365.039 537.94 400.679 539.89 429.999 539.75C459.319 539.89 494.999 537.94 524.549 533.65C524.549 533.65 516.069 421.06 503.769 390.84Z" class="fill"/>
<path d="M377.5 352.39C363.175 356.824 350.137 364.661 339.5 375.23C380.91 362.23 398.26 396.08 430.01 385.5V377.9L413.65 348.9H399.65C392.172 349.352 384.755 350.52 377.5 352.39Z" fill="#68FEC4" stroke="#0A13FF" stroke-width="5" stroke-linecap="round" stroke-linejoin="round"/>
<path d="M482.498 352.39C496.823 356.824 509.861 364.661 520.498 375.23C479.088 362.23 461.738 396.08 429.988 385.5V377.9L446.348 348.9H460.348C467.826 349.352 475.244 350.52 482.498 352.39Z" fill="#68FEC4" stroke="#0A13FF" stroke-width="5" stroke-linecap="round" stroke-linejoin="round"/>
<path d="M430.001 375.65C446.277 375.65 459.471 362.456 459.471 346.18C459.471 329.904 446.277 316.71 430.001 316.71C413.725 316.71 400.531 329.904 400.531 346.18C400.531 362.456 413.725 375.65 430.001 375.65Z" fill="#FFEBD1" stroke="#0A13FF" stroke-width="5" stroke-miterlimit="10"/>
<path d="M429.999 389.66C433.479 389.66 436.299 386.839 436.299 383.36C436.299 379.881 433.479 377.06 429.999 377.06C426.52 377.06 423.699 379.881 423.699 383.36C423.699 386.839 426.52 389.66 429.999 389.66Z" fill="#68FEC4" stroke="#0A13FF" stroke-width="5" stroke-miterlimit="10"/>
<path d="M516.281 464.97L524.491 453.59" stroke="#0A13FF" stroke-width="5" stroke-linecap="round" stroke-linejoin="round"/>
<path d="M429.941 389.66C433.42 389.66 436.241 386.839 436.241 383.36C436.241 379.881 433.42 377.06 429.941 377.06C426.461 377.06 423.641 379.881 423.641 383.36C423.641 386.839 426.461 389.66 429.941 389.66Z" fill="#68FEC4" stroke="#0A13FF" stroke-width="5" stroke-miterlimit="10"/>
<path d="M507.849 407.25C514.189 441.59 524.549 533.19 524.549 533.19C494.959 537.48 447.909 539.75 429.999 539.75C412.089 539.75 364.999 537.48 335.449 533.19C335.449 533.19 345.809 441.59 352.149 407.25" class="fill"/>
<path d="M507.849 407.25C514.189 441.59 524.549 533.19 524.549 533.19C494.959 537.48 447.909 539.75 429.999 539.75C412.089 539.75 364.999 537.48 335.449 533.19C335.449 533.19 345.809 441.59 352.149 407.25" stroke="#0A13FF" stroke-width="5" stroke-miterlimit="10"/>
<path d="M564.19 459.11C549.39 459.11 549.37 482.11 564.19 482.11C568.37 482.11 567.31 469.56 567.31 469.56C567.31 469.56 570 459.11 564.19 459.11Z" fill="#0A13FF"/>
<path d="M519.85 448.17C505.05 448.17 505.02 471.17 519.85 471.17C534.68 471.17 534.67 448.17 519.85 448.17Z" fill="#0A13FF"/>
<path d="M542.689 402.92C528.019 404.92 531.049 427.68 545.689 425.72C547.395 425.558 549.036 424.981 550.469 424.04C551.901 423.099 553.082 421.822 553.909 420.32L542.689 402.92Z" fill="#0A13FF"/>
<path d="M507.849 407.25C514.189 441.59 524.549 533.19 524.549 533.19C494.959 537.48 447.909 539.75 429.999 539.75C412.089 539.75 364.999 537.48 335.449 533.19C335.449 533.19 345.809 441.59 352.149 407.25" class="fill"/>
<path d="M507.849 407.25C514.189 441.59 524.549 533.19 524.549 533.19C494.959 537.48 447.909 539.75 429.999 539.75C412.089 539.75 364.999 537.48 335.449 533.19C335.449 533.19 345.809 441.59 352.149 407.25" stroke="#0A13FF" stroke-width="5" stroke-miterlimit="10"/>
<path d="M491.541 499.28C476.741 499.28 476.711 522.28 491.541 522.28C506.371 522.28 506.361 499.28 491.541 499.28Z" fill="#0A13FF"/>
<path d="M370.44 497.89C355.64 497.89 355.62 520.89 370.44 520.89C385.26 520.89 385.26 497.89 370.44 497.89Z" fill="#0A13FF"/>
<path d="M430.639 466.11C415.839 466.11 415.819 489.11 430.639 489.11C445.459 489.11 445.469 466.11 430.639 466.11Z" fill="#0A13FF"/>
<path d="M473.701 414.47C458.901 414.47 458.881 437.47 473.701 437.47C488.521 437.47 488.531 414.47 473.701 414.47Z" fill="#0A13FF"/>
<path d="M389.432 414.34C374.632 414.34 374.602 437.34 389.432 437.34C404.262 437.34 404.252 414.34 389.432 414.34Z" fill="#0A13FF"/>
</g>
<defs>
<clipPath id="clip0_203_3645">
<rect width="100%" height="100%" class="fill"/>
</clipPath>
</defs>
</svg>
