<svg class="tree-image-resource" viewBox="0 0 860 860" fill="none" xmlns="http://www.w3.org/2000/svg">
<g clip-path="url(#clip0_203_3481)">
<path d="M342.601 483L366.161 413C361.571 392.85 367.161 349.2 335.511 385.22C335.511 385.22 311.571 429.87 298.791 455.59C289.911 473.46 308.571 501.64 308.571 501.64C308.571 501.64 300.961 515.81 305.271 526.37C310.601 539.42 336.341 541.54 352.001 515.18" fill="#FFEBD1"/>
<path d="M342.601 483L366.161 413C361.571 392.85 367.161 349.2 335.511 385.22C335.511 385.22 311.571 429.87 298.791 455.59C289.911 473.46 308.571 501.64 308.571 501.64C308.571 501.64 300.961 515.81 305.271 526.37C310.601 539.42 336.341 541.54 352.001 515.18" stroke="#0A13FF" stroke-width="5" stroke-linecap="round" stroke-linejoin="round"/>
<path d="M517.4 483L493.84 413C498.43 392.85 492.84 349.2 524.49 385.22C524.49 385.22 548.43 429.87 561.21 455.59C570.09 473.46 551.43 501.64 551.43 501.64C551.43 501.64 559.04 515.81 554.73 526.37C549.4 539.42 523.66 541.54 508 515.18" fill="#FFEBD1"/>
<path d="M517.4 483L493.84 413C498.43 392.85 492.84 349.2 524.49 385.22C524.49 385.22 548.43 429.87 561.21 455.59C570.09 473.46 551.43 501.64 551.43 501.64C551.43 501.64 559.04 515.81 554.73 526.37C549.4 539.42 523.66 541.54 508 515.18" stroke="#0A13FF" stroke-width="5" stroke-linecap="round" stroke-linejoin="round"/>
<path d="M430 375.64L508.9 413.26C508.9 413.26 514.55 402.26 526.6 381.63C504.6 356.54 478.6 348.94 459.85 348.94H433" class="fill"/>
<path d="M430 375.64L508.9 413.26C508.9 413.26 514.55 402.26 526.6 381.63C504.6 356.54 478.6 348.94 459.85 348.94H433" stroke="#0A13FF" stroke-width="5" stroke-miterlimit="10"/>
<path d="M430 375.64L351.1 413.26C351.1 413.26 345.45 402.26 333.4 381.63C355.4 356.54 381.4 348.94 400.15 348.94H427" class="fill"/>
<path d="M430 375.64L351.1 413.26C351.1 413.26 345.45 402.26 333.4 381.63C355.4 356.54 381.4 348.94 400.15 348.94H427" stroke="#0A13FF" stroke-width="5" stroke-miterlimit="10"/>
<path d="M503.769 390.84C496.429 372.78 486.459 354.73 429.999 354.73C373.539 354.73 363.569 372.73 356.229 390.84C343.929 421.06 335.449 533.65 335.449 533.65C365.039 537.94 400.679 539.89 429.999 539.75C459.319 539.89 494.999 537.94 524.549 533.65C524.549 533.65 516.069 421.06 503.769 390.84Z" class="fill"/>
<path d="M507.849 407.25C514.189 441.59 524.549 533.19 524.549 533.19C494.959 537.48 447.909 539.75 429.999 539.75C412.089 539.75 364.999 537.48 335.449 533.19C335.449 533.19 345.809 441.59 352.149 407.25" class="fill"/>
<path d="M507.849 407.25C514.189 441.59 524.549 533.19 524.549 533.19C494.959 537.48 447.909 539.75 429.999 539.75C412.089 539.75 364.999 537.48 335.449 533.19C335.449 533.19 345.809 441.59 352.149 407.25" stroke="#0A13FF" stroke-width="5" stroke-miterlimit="10"/>
<path d="M377.5 352.39C363.175 356.824 350.137 364.661 339.5 375.23C380.91 362.23 398.26 396.08 430.01 385.5V377.9L413.65 348.9H399.65C392.172 349.352 384.755 350.52 377.5 352.39Z" fill="#68FEC4" stroke="#0A13FF" stroke-width="5" stroke-linecap="round" stroke-linejoin="round"/>
<path d="M482.5 352.39C496.825 356.824 509.863 364.661 520.5 375.23C479.09 362.23 461.74 396.08 429.99 385.5V377.9L446.35 348.9H460.35C467.828 349.352 475.246 350.52 482.5 352.39Z" fill="#68FEC4" stroke="#0A13FF" stroke-width="5" stroke-linecap="round" stroke-linejoin="round"/>
<path d="M429.999 375.65C446.275 375.65 459.469 362.456 459.469 346.18C459.469 329.904 446.275 316.71 429.999 316.71C413.723 316.71 400.529 329.904 400.529 346.18C400.529 362.456 413.723 375.65 429.999 375.65Z" fill="#FFEBD1" stroke="#0A13FF" stroke-width="5" stroke-miterlimit="10"/>
<path d="M429.999 389.66C433.479 389.66 436.299 386.839 436.299 383.36C436.299 379.881 433.479 377.06 429.999 377.06C426.52 377.06 423.699 379.881 423.699 383.36C423.699 386.839 426.52 389.66 429.999 389.66Z" fill="#68FEC4" stroke="#0A13FF" stroke-width="5" stroke-miterlimit="10"/>
<path d="M518.99 479.91L524.49 472.28" stroke="#0A13FF" stroke-width="5" stroke-linecap="round" stroke-linejoin="round"/>
<path d="M341.01 479.91L335.51 472.28" stroke="#0A13FF" stroke-width="5" stroke-linecap="round" stroke-linejoin="round"/>
<path d="M429.941 389.66C433.42 389.66 436.241 386.839 436.241 383.36C436.241 379.881 433.42 377.06 429.941 377.06C426.461 377.06 423.641 379.881 423.641 383.36C423.641 386.839 426.461 389.66 429.941 389.66Z" fill="#68FEC4" stroke="#0A13FF" stroke-width="5" stroke-miterlimit="10"/>
<path d="M257.438 266.001L181.402 300.509L225.489 397.653L301.525 363.145L257.438 266.001Z" class="fill" stroke="#0A13FF" stroke-width="5" stroke-linecap="round" stroke-linejoin="round"/>
<path d="M233.192 292.489L166.131 342.238L229.691 427.916L296.753 378.166L233.192 292.489Z" class="fill" stroke="#0A13FF" stroke-width="5" stroke-linecap="round" stroke-linejoin="round"/>
<path d="M185.221 347.17L230.381 312.79" stroke="#0A13FF" stroke-width="5" stroke-linecap="round" stroke-linejoin="round"/>
<path d="M195.279 357.73L238.509 324.81" stroke="#0A13FF" stroke-width="5" stroke-linecap="round" stroke-linejoin="round"/>
<path d="M204.51 369.85L247.74 336.93" stroke="#0A13FF" stroke-width="5" stroke-linecap="round" stroke-linejoin="round"/>
<path d="M213.74 381.97L256.97 349.05" stroke="#0A13FF" stroke-width="5" stroke-linecap="round" stroke-linejoin="round"/>
<path d="M222.971 394.09L266.211 361.17" stroke="#0A13FF" stroke-width="5" stroke-linecap="round" stroke-linejoin="round"/>
<path d="M232.199 406.2L275.439 373.29" stroke="#0A13FF" stroke-width="5" stroke-linecap="round" stroke-linejoin="round"/>
<path d="M574.63 347L552.9 361.78L553.9 370.53L579.77 380.41" stroke="#0A13FF" stroke-width="14" stroke-linecap="round" stroke-linejoin="round"/>
<path d="M603.801 389.59L628.361 399L634.951 393.17L627.621 366.64" stroke="#0A13FF" stroke-width="14" stroke-linecap="round" stroke-linejoin="round"/>
<path d="M623.909 334.07L620.479 320.27L611.259 316.64L591.869 330" stroke="#0A13FF" stroke-width="14" stroke-linecap="round" stroke-linejoin="round"/>
<path d="M610.82 383.72L600.93 388.14L605.73 398.87" class="fill"/>
<path d="M610.82 383.72L600.93 388.14L605.73 398.87" stroke="#0A13FF" stroke-width="11.81" stroke-linecap="round" stroke-linejoin="round"/>
<path d="M575.05 355.44L576.91 344.77L565.34 342.75" class="fill"/>
<path d="M575.05 355.44L576.91 344.77L565.34 342.75" stroke="#0A13FF" stroke-width="11.81" stroke-linecap="round" stroke-linejoin="round"/>
<path d="M616.43 338.83L624.75 345.76L632.27 336.74" class="fill"/>
<path d="M616.43 338.83L624.75 345.76L632.27 336.74" stroke="#0A13FF" stroke-width="11.81" stroke-linecap="round" stroke-linejoin="round"/>
</g>
<defs>
<clipPath id="clip0_203_3481">
<rect width="100%" height="100%" class="fill"/>
</clipPath>
</defs>
</svg>
