<svg class="tree-image-resource" viewBox="0 0 860 860" fill="none" xmlns="http://www.w3.org/2000/svg">
<g clip-path="url(#clip0_203_3543)">
<path d="M510.329 468.37L493.199 413L531.379 400.9C531.379 400.9 546.599 430.5 560.559 455.59C571.959 476.06 550.779 501.64 550.779 501.64C550.779 501.64 558.399 515.81 554.089 526.37C548.759 539.42 523.009 541.54 507.349 515.18" fill="#FFEBD1"/>
<path d="M510.329 468.37L493.199 413L531.379 400.9C531.379 400.9 546.599 430.5 560.559 455.59C571.959 476.06 550.779 501.64 550.779 501.64C550.779 501.64 558.399 515.81 554.089 526.37C548.759 539.42 523.009 541.54 507.349 515.18" stroke="#0A13FF" stroke-width="5" stroke-linecap="round" stroke-linejoin="round"/>
<path d="M345.641 479.91L365.381 413L327.201 400.9C327.201 400.9 312.001 430.54 298.001 455.63C286.601 476.1 307.781 501.68 307.781 501.68C307.781 501.68 300.171 515.85 304.481 526.41C309.801 539.46 335.551 541.58 351.211 515.22" fill="#FFEBD1"/>
<path d="M345.641 479.91L365.381 413L327.201 400.9C327.201 400.9 312.001 430.54 298.001 455.63C286.601 476.1 307.781 501.68 307.781 501.68C307.781 501.68 300.171 515.85 304.481 526.41C309.801 539.46 335.551 541.58 351.211 515.22" stroke="#0A13FF" stroke-width="5" stroke-linecap="round" stroke-linejoin="round"/>
<path d="M341.92 473.5L334.74 468.37" stroke="#0A13FF" stroke-width="5" stroke-linecap="round" stroke-linejoin="round"/>
<path d="M516.66 473.5L523.84 468.37" stroke="#0A13FF" stroke-width="5" stroke-linecap="round" stroke-linejoin="round"/>
<path d="M257.438 266.001L181.402 300.509L225.489 397.653L301.525 363.145L257.438 266.001Z" fill="#FFFFFF" stroke="#0A13FF" stroke-width="5" stroke-linecap="round" stroke-linejoin="round"/>
<path d="M233.192 292.489L166.131 342.238L229.691 427.916L296.753 378.166L233.192 292.489Z" fill="#FFFFFF" stroke="#0A13FF" stroke-width="5" stroke-linecap="round" stroke-linejoin="round"/>
<path d="M185.221 347.17L230.381 312.79" stroke="#0A13FF" stroke-width="5" stroke-linecap="round" stroke-linejoin="round"/>
<path d="M195.279 357.73L238.509 324.81" stroke="#0A13FF" stroke-width="5" stroke-linecap="round" stroke-linejoin="round"/>
<path d="M204.51 369.85L247.74 336.93" stroke="#0A13FF" stroke-width="5" stroke-linecap="round" stroke-linejoin="round"/>
<path d="M213.74 381.97L256.97 349.05" stroke="#0A13FF" stroke-width="5" stroke-linecap="round" stroke-linejoin="round"/>
<path d="M222.971 394.09L266.211 361.17" stroke="#0A13FF" stroke-width="5" stroke-linecap="round" stroke-linejoin="round"/>
<path d="M232.199 406.2L275.439 373.29" stroke="#0A13FF" stroke-width="5" stroke-linecap="round" stroke-linejoin="round"/>
<path d="M574.628 347L552.898 361.78L553.898 370.53L579.768 380.41" stroke="#0A13FF" stroke-width="14" stroke-linecap="round" stroke-linejoin="round"/>
<path d="M603.801 389.59L628.361 399L634.951 393.17L627.621 366.64" stroke="#0A13FF" stroke-width="14" stroke-linecap="round" stroke-linejoin="round"/>
<path d="M623.911 334.07L620.481 320.27L611.261 316.64L591.871 330" stroke="#0A13FF" stroke-width="14" stroke-linecap="round" stroke-linejoin="round"/>
<path d="M610.82 383.72L600.93 388.14L605.73 398.87" class="fill"/>
<path d="M610.82 383.72L600.93 388.14L605.73 398.87" stroke="#0A13FF" stroke-width="11.81" stroke-linecap="round" stroke-linejoin="round"/>
<path d="M575.05 355.44L576.91 344.77L565.34 342.75" class="fill"/>
<path d="M575.05 355.44L576.91 344.77L565.34 342.75" stroke="#0A13FF" stroke-width="11.81" stroke-linecap="round" stroke-linejoin="round"/>
<path d="M616.43 338.83L624.75 345.76L632.27 336.74" class="fill"/>
<path d="M616.43 338.83L624.75 345.76L632.27 336.74" stroke="#0A13FF" stroke-width="11.81" stroke-linecap="round" stroke-linejoin="round"/>
<path d="M430 375.64L347.05 440.11L286.33 481.18C286.33 481.18 295.85 456.73 307.48 426.26C330.88 364.79 373.06 348.94 400.15 348.94H427" class="fill"/>
<path d="M430 375.64L347.05 440.11L286.33 481.18C286.33 481.18 295.85 456.73 307.48 426.26C330.88 364.79 373.06 348.94 400.15 348.94H427" stroke="#0A13FF" stroke-width="5" stroke-miterlimit="10"/>
<path d="M430 375.64L513.08 448.35L572.35 477.55C572.35 477.55 566.35 462.03 552.52 426.26C529.12 364.79 486.94 348.94 459.85 348.94H433" class="fill"/>
<path d="M430 375.64L513.08 448.35L572.35 477.55C572.35 477.55 566.35 462.03 552.52 426.26C529.12 364.79 486.94 348.94 459.85 348.94H433" stroke="#0A13FF" stroke-width="5" stroke-miterlimit="10"/>
<path d="M503.769 390.84C496.429 372.78 486.459 354.73 429.999 354.73C373.539 354.73 363.569 372.73 356.229 390.84C343.929 421.06 335.449 533.65 335.449 533.65C365.039 537.94 400.679 539.89 429.999 539.75C459.319 539.89 494.999 537.94 524.549 533.65C524.549 533.65 516.069 421.06 503.769 390.84Z" class="fill"/>
<path d="M507.849 407.25C514.189 441.59 524.549 533.19 524.549 533.19C494.959 537.48 447.909 539.75 429.999 539.75C412.089 539.75 364.999 537.48 335.449 533.19C335.449 533.19 345.809 441.59 352.149 407.25" class="fill"/>
<path d="M507.849 407.25C514.189 441.59 524.549 533.19 524.549 533.19C494.959 537.48 447.909 539.75 429.999 539.75C412.089 539.75 364.999 537.48 335.449 533.19C335.449 533.19 345.809 441.59 352.149 407.25" stroke="#0A13FF" stroke-width="5" stroke-miterlimit="10"/>
<path d="M377.5 352.39C363.175 356.824 350.137 364.661 339.5 375.23C380.91 362.23 398.26 396.08 430.01 385.5V377.9L413.65 348.9H399.65C392.172 349.352 384.755 350.52 377.5 352.39Z" fill="#68FEC4" stroke="#0A13FF" stroke-width="5" stroke-linecap="round" stroke-linejoin="round"/>
<path d="M482.498 352.39C496.823 356.824 509.861 364.661 520.498 375.23C479.088 362.23 461.738 396.08 429.988 385.5V377.9L446.348 348.9H460.348C467.826 349.352 475.244 350.52 482.498 352.39Z" fill="#68FEC4" stroke="#0A13FF" stroke-width="5" stroke-linecap="round" stroke-linejoin="round"/>
<path d="M430.001 375.65C446.277 375.65 459.471 362.456 459.471 346.18C459.471 329.904 446.277 316.71 430.001 316.71C413.725 316.71 400.531 329.904 400.531 346.18C400.531 362.456 413.725 375.65 430.001 375.65Z" fill="#FFEBD1" stroke="#0A13FF" stroke-width="5" stroke-miterlimit="10"/>
<path d="M429.999 389.66C433.479 389.66 436.299 386.839 436.299 383.36C436.299 379.881 433.479 377.06 429.999 377.06C426.52 377.06 423.699 379.881 423.699 383.36C423.699 386.839 426.52 389.66 429.999 389.66Z" fill="#68FEC4" stroke="#0A13FF" stroke-width="5" stroke-miterlimit="10"/>
<path d="M429.941 389.66C433.42 389.66 436.241 386.839 436.241 383.36C436.241 379.881 433.42 377.06 429.941 377.06C426.461 377.06 423.641 379.881 423.641 383.36C423.641 386.839 426.461 389.66 429.941 389.66Z" fill="#68FEC4" stroke="#0A13FF" stroke-width="5" stroke-miterlimit="10"/>
</g>
<defs>
<clipPath id="clip0_203_3543">
<rect width="100%" height="100%" class="fill"/>
</clipPath>
</defs>
</svg>
