<svg class="tree-image-resource" viewBox="0 0 860 860" fill="none" xmlns="http://www.w3.org/2000/svg">
<g clip-path="url(#clip0_203_3436)">
<path d="M345.641 479.91L365.381 413L327.201 400.9C327.201 400.9 312.001 430.54 298.001 455.63C286.601 476.1 307.781 501.68 307.781 501.68C307.781 501.68 300.171 515.85 304.481 526.41C309.801 539.46 335.551 541.58 351.211 515.22" fill="#FFEBD1"/>
<path d="M345.641 479.91L365.381 413L327.201 400.9C327.201 400.9 312.001 430.54 298.001 455.63C286.601 476.1 307.781 501.68 307.781 501.68C307.781 501.68 300.171 515.85 304.481 526.41C309.801 539.46 335.551 541.58 351.211 515.22" stroke="#0A13FF" stroke-width="5" stroke-linecap="round" stroke-linejoin="round"/>
<path d="M341.92 473.5L334.74 468.37" stroke="#0A13FF" stroke-width="5" stroke-linecap="round" stroke-linejoin="round"/>
<path d="M517.4 483L493.84 413L524.49 403.29C524.49 403.29 548.43 429.87 561.21 455.59C570.09 473.46 551.43 501.64 551.43 501.64C551.43 501.64 559.04 515.81 554.73 526.37C549.4 539.42 523.66 541.54 508 515.18" fill="#FFEBD1"/>
<path d="M517.4 483L493.84 413L524.49 403.29C524.49 403.29 548.43 429.87 561.21 455.59C570.09 473.46 551.43 501.64 551.43 501.64C551.43 501.64 559.04 515.81 554.73 526.37C549.4 539.42 523.66 541.54 508 515.18" stroke="#0A13FF" stroke-width="5" stroke-linecap="round" stroke-linejoin="round"/>
<path d="M319.73 428.87C325.186 428.87 329.61 424.447 329.61 418.99C329.61 413.533 325.186 409.11 319.73 409.11C314.273 409.11 309.85 413.533 309.85 418.99C309.85 424.447 314.273 428.87 319.73 428.87Z" fill="white" stroke="#0A13FF" stroke-width="5" stroke-miterlimit="10"/>
<path d="M326.659 445.19C332.116 445.19 336.539 440.767 336.539 435.31C336.539 429.853 332.116 425.43 326.659 425.43C321.203 425.43 316.779 429.853 316.779 435.31C316.779 440.767 321.203 445.19 326.659 445.19Z" fill="white" stroke="#0A13FF" stroke-width="5" stroke-miterlimit="10"/>
<path d="M339.489 456.41C344.946 456.41 349.369 451.987 349.369 446.53C349.369 441.073 344.946 436.65 339.489 436.65C334.033 436.65 329.609 441.073 329.609 446.53C329.609 451.987 334.033 456.41 339.489 456.41Z" fill="white" stroke="#0A13FF" stroke-width="5" stroke-miterlimit="10"/>
<path d="M347.269 547.4C353.797 547.4 359.089 542.484 359.089 536.42C359.089 530.356 353.797 525.44 347.269 525.44C340.741 525.44 335.449 530.356 335.449 536.42C335.449 542.484 340.741 547.4 347.269 547.4Z" fill="white" stroke="#0A13FF" stroke-width="5.19" stroke-miterlimit="10"/>
<path d="M370.91 550.73C377.438 550.73 382.73 545.814 382.73 539.75C382.73 533.686 377.438 528.77 370.91 528.77C364.382 528.77 359.09 533.686 359.09 539.75C359.09 545.814 364.382 550.73 370.91 550.73Z" fill="white" stroke="#0A13FF" stroke-width="5.19" stroke-miterlimit="10"/>
<path d="M394.541 553.6C401.069 553.6 406.361 548.684 406.361 542.62C406.361 536.556 401.069 531.64 394.541 531.64C388.013 531.64 382.721 536.556 382.721 542.62C382.721 548.684 388.013 553.6 394.541 553.6Z" fill="white" stroke="#0A13FF" stroke-width="5.19" stroke-miterlimit="10"/>
<path d="M418.179 554.43C424.707 554.43 429.999 549.514 429.999 543.45C429.999 537.386 424.707 532.47 418.179 532.47C411.651 532.47 406.359 537.386 406.359 543.45C406.359 549.514 411.651 554.43 418.179 554.43Z" fill="white" stroke="#0A13FF" stroke-width="5.19" stroke-miterlimit="10"/>
<path d="M512.73 550.73C519.258 550.73 524.55 545.814 524.55 539.75C524.55 533.686 519.258 528.77 512.73 528.77C506.202 528.77 500.91 533.686 500.91 539.75C500.91 545.814 506.202 550.73 512.73 550.73Z" fill="white" stroke="#0A13FF" stroke-width="5.19" stroke-miterlimit="10"/>
<path d="M489.09 553.6C495.618 553.6 500.91 548.684 500.91 542.62C500.91 536.556 495.618 531.64 489.09 531.64C482.562 531.64 477.27 536.556 477.27 542.62C477.27 548.684 482.562 553.6 489.09 553.6Z" fill="white" stroke="#0A13FF" stroke-width="5.19" stroke-miterlimit="10"/>
<path d="M465.461 554.43C471.989 554.43 477.281 549.514 477.281 543.45C477.281 537.386 471.989 532.47 465.461 532.47C458.933 532.47 453.641 537.386 453.641 543.45C453.641 549.514 458.933 554.43 465.461 554.43Z" fill="white" stroke="#0A13FF" stroke-width="5.19" stroke-miterlimit="10"/>
<path d="M441.82 555.89C448.348 555.89 453.64 550.974 453.64 544.91C453.64 538.846 448.348 533.93 441.82 533.93C435.292 533.93 430 538.846 430 544.91C430 550.974 435.292 555.89 441.82 555.89Z" fill="white" stroke="#0A13FF" stroke-width="5.19" stroke-miterlimit="10"/>
<path d="M540.271 428.87C545.727 428.87 550.151 424.447 550.151 418.99C550.151 413.533 545.727 409.11 540.271 409.11C534.814 409.11 530.391 413.533 530.391 418.99C530.391 424.447 534.814 428.87 540.271 428.87Z" fill="white" stroke="#0A13FF" stroke-width="5" stroke-miterlimit="10"/>
<path d="M533.341 445.19C538.798 445.19 543.221 440.767 543.221 435.31C543.221 429.853 538.798 425.43 533.341 425.43C527.884 425.43 523.461 429.853 523.461 435.31C523.461 440.767 527.884 445.19 533.341 445.19Z" fill="white" stroke="#0A13FF" stroke-width="5" stroke-miterlimit="10"/>
<path d="M520.511 456.41C525.967 456.41 530.391 451.987 530.391 446.53C530.391 441.073 525.967 436.65 520.511 436.65C515.054 436.65 510.631 441.073 510.631 446.53C510.631 451.987 515.054 456.41 520.511 456.41Z" fill="white" stroke="#0A13FF" stroke-width="5" stroke-miterlimit="10"/>
<path d="M429.999 375.64L346.919 448.35C340.995 445.724 335.763 441.754 331.641 436.753C327.518 431.753 324.618 425.861 323.17 419.544C321.722 413.228 321.766 406.661 323.298 400.364C324.831 394.067 327.81 388.214 331.999 383.27C354.269 356.87 380.999 348.94 400.149 348.94H426.999" fill="white"/>
<path d="M429.999 375.64L346.919 448.35C340.995 445.724 335.763 441.754 331.641 436.753C327.518 431.753 324.618 425.861 323.17 419.544C321.722 413.228 321.766 406.661 323.298 400.364C324.831 394.067 327.81 388.214 331.999 383.27C354.269 356.87 380.999 348.94 400.149 348.94H426.999" stroke="#0A13FF" stroke-width="5" stroke-miterlimit="10"/>
<path d="M430 375.64L513.08 448.35C519.005 445.724 524.236 441.754 528.359 436.753C532.481 431.753 535.382 425.861 536.83 419.544C538.278 413.228 538.234 406.661 536.701 400.364C535.168 394.067 532.189 388.214 528 383.27C505.73 356.87 479 348.94 459.85 348.94H433" fill="white"/>
<path d="M430 375.64L513.08 448.35C519.005 445.724 524.236 441.754 528.359 436.753C532.481 431.753 535.382 425.861 536.83 419.544C538.278 413.228 538.234 406.661 536.701 400.364C535.168 394.067 532.189 388.214 528 383.27C505.73 356.87 479 348.94 459.85 348.94H433" stroke="#0A13FF" stroke-width="5" stroke-miterlimit="10"/>
<path d="M503.769 390.84C496.429 372.78 486.459 354.73 429.999 354.73C373.539 354.73 363.569 372.73 356.229 390.84C343.929 421.06 335.449 533.65 335.449 533.65C365.039 537.94 400.679 539.89 429.999 539.75C459.319 539.89 494.999 537.94 524.549 533.65C524.549 533.65 516.069 421.06 503.769 390.84Z" fill="white"/>
<path d="M507.849 407.25C514.189 441.59 524.549 533.19 524.549 533.19C494.959 537.48 447.909 539.75 429.999 539.75C412.089 539.75 364.999 537.48 335.449 533.19C335.449 533.19 345.809 441.59 352.149 407.25" fill="white"/>
<path d="M507.849 407.25C514.189 441.59 524.549 533.19 524.549 533.19C494.959 537.48 447.909 539.75 429.999 539.75C412.089 539.75 364.999 537.48 335.449 533.19C335.449 533.19 345.809 441.59 352.149 407.25" stroke="#0A13FF" stroke-width="5" stroke-miterlimit="10"/>
<path d="M377.5 352.39C363.175 356.824 350.137 364.661 339.5 375.23C380.91 362.23 398.26 396.08 430.01 385.5V377.9L413.65 348.9H399.65C392.172 349.352 384.755 350.52 377.5 352.39Z" fill="#68FEC4" stroke="#0A13FF" stroke-width="5" stroke-linecap="round" stroke-linejoin="round"/>
<path d="M482.5 352.39C496.825 356.824 509.863 364.661 520.5 375.23C479.09 362.23 461.74 396.08 429.99 385.5V377.9L446.35 348.9H460.35C467.828 349.352 475.246 350.52 482.5 352.39Z" fill="#68FEC4" stroke="#0A13FF" stroke-width="5" stroke-linecap="round" stroke-linejoin="round"/>
<path d="M429.999 375.65C446.275 375.65 459.469 362.456 459.469 346.18C459.469 329.904 446.275 316.71 429.999 316.71C413.723 316.71 400.529 329.904 400.529 346.18C400.529 362.456 413.723 375.65 429.999 375.65Z" fill="#FFEBD1" stroke="#0A13FF" stroke-width="5" stroke-miterlimit="10"/>
<path d="M429.999 389.66C433.479 389.66 436.299 386.839 436.299 383.36C436.299 379.881 433.479 377.06 429.999 377.06C426.52 377.06 423.699 379.881 423.699 383.36C423.699 386.839 426.52 389.66 429.999 389.66Z" fill="#68FEC4" stroke="#0A13FF" stroke-width="5" stroke-miterlimit="10"/>
<path d="M518.99 479.91L524.49 472.28" stroke="#0A13FF" stroke-width="5" stroke-linecap="round" stroke-linejoin="round"/>
<path d="M429.941 389.66C433.42 389.66 436.241 386.839 436.241 383.36C436.241 379.881 433.42 377.06 429.941 377.06C426.461 377.06 423.641 379.881 423.641 383.36C423.641 386.839 426.461 389.66 429.941 389.66Z" fill="#68FEC4" stroke="#0A13FF" stroke-width="5" stroke-miterlimit="10"/>
<path d="M257.438 266.001L181.402 300.509L225.489 397.653L301.525 363.145L257.438 266.001Z" fill="white" stroke="#0A13FF" stroke-width="5" stroke-linecap="round" stroke-linejoin="round"/>
<path d="M233.192 292.489L166.131 342.238L229.691 427.916L296.753 378.166L233.192 292.489Z" fill="white" stroke="#0A13FF" stroke-width="5" stroke-linecap="round" stroke-linejoin="round"/>
<path d="M185.221 347.17L230.381 312.79" stroke="#0A13FF" stroke-width="5" stroke-linecap="round" stroke-linejoin="round"/>
<path d="M195.279 357.73L238.509 324.81" stroke="#0A13FF" stroke-width="5" stroke-linecap="round" stroke-linejoin="round"/>
<path d="M204.51 369.85L247.74 336.93" stroke="#0A13FF" stroke-width="5" stroke-linecap="round" stroke-linejoin="round"/>
<path d="M213.74 381.97L256.97 349.05" stroke="#0A13FF" stroke-width="5" stroke-linecap="round" stroke-linejoin="round"/>
<path d="M222.971 394.09L266.211 361.17" stroke="#0A13FF" stroke-width="5" stroke-linecap="round" stroke-linejoin="round"/>
<path d="M232.199 406.2L275.439 373.29" stroke="#0A13FF" stroke-width="5" stroke-linecap="round" stroke-linejoin="round"/>
<path d="M574.63 347L552.9 361.78L553.9 370.53L579.77 380.41" stroke="#0A13FF" stroke-width="14" stroke-linecap="round" stroke-linejoin="round"/>
<path d="M603.801 389.59L628.361 399L634.951 393.17L627.621 366.64" stroke="#0A13FF" stroke-width="14" stroke-linecap="round" stroke-linejoin="round"/>
<path d="M623.909 334.07L620.479 320.27L611.259 316.64L591.869 330" stroke="#0A13FF" stroke-width="14" stroke-linecap="round" stroke-linejoin="round"/>
<path d="M610.82 383.72L600.93 388.14L605.73 398.87" fill="white"/>
<path d="M610.82 383.72L600.93 388.14L605.73 398.87" stroke="#0A13FF" stroke-width="11.81" stroke-linecap="round" stroke-linejoin="round"/>
<path d="M575.05 355.44L576.91 344.77L565.34 342.75" fill="white"/>
<path d="M575.05 355.44L576.91 344.77L565.34 342.75" stroke="#0A13FF" stroke-width="11.81" stroke-linecap="round" stroke-linejoin="round"/>
<path d="M616.43 338.83L624.75 345.76L632.27 336.74" fill="white"/>
<path d="M616.43 338.83L624.75 345.76L632.27 336.74" stroke="#0A13FF" stroke-width="11.81" stroke-linecap="round" stroke-linejoin="round"/>
</g>
<defs>
<clipPath id="clip0_203_3436">
<rect width="100%" height="100%" fill="white"/>
</clipPath>
</defs>
</svg>
