<svg class="tree-image-resource" viewBox="0 0 860 860" fill="none" xmlns="http://www.w3.org/2000/svg">
<g clip-path="url(#clip0_152_3870)">
<path d="M568.311 616.37C569.121 614.04 568.711 608.85 568.791 606.21C569.041 597.39 568.831 590.58 564.751 583.03C563.901 581.46 562.771 580.24 561.471 579.29C565.111 558.74 568.461 530.17 561.971 517.63C551.281 496.96 542.011 512.28 534.171 536.52C529.031 552.41 529.561 572.12 530.531 583.82C524.781 589.19 521.021 596.95 521.721 606.46C523.771 634.5 513.341 649.91 522.351 663.72C527.121 671.04 539.611 672.37 548.251 671.8C558.911 671.1 564.371 667.15 567.521 657.51C570.901 647.18 565.591 634.02 564.521 620.51C566.521 619.51 567.911 617.55 568.331 616.38L568.311 616.37ZM551.981 532.6C551.981 532.6 554.951 550.32 550.711 576.45C547.771 576.49 544.851 576.97 542.351 577.64C540.851 538.12 551.981 532.6 551.981 532.6ZM532.511 602.51C531.511 614.51 531.681 620.47 543.511 622.51C555.501 624.58 566.081 620.91 568.081 616.91" fill="#FFCA45"/>
<path d="M532.511 602.51C531.511 614.51 531.681 620.47 543.511 622.51C555.501 624.58 566.081 620.91 568.081 616.91M568.311 616.37C569.121 614.04 568.711 608.85 568.791 606.21C569.041 597.39 568.831 590.58 564.751 583.03C563.901 581.46 562.771 580.24 561.471 579.29C565.111 558.74 568.461 530.17 561.971 517.63C551.281 496.96 542.011 512.28 534.171 536.52C529.031 552.41 529.561 572.12 530.531 583.82C524.781 589.19 521.021 596.95 521.721 606.46C523.771 634.5 513.341 649.91 522.351 663.72C527.121 671.04 539.611 672.37 548.251 671.8C558.911 671.1 564.371 667.15 567.521 657.51C570.901 647.18 565.591 634.02 564.521 620.51C566.521 619.51 567.911 617.55 568.331 616.38L568.311 616.37ZM551.981 532.6C551.981 532.6 554.951 550.32 550.711 576.45C547.771 576.49 544.851 576.97 542.351 577.64C540.851 538.12 551.981 532.6 551.981 532.6Z" stroke="#0A13FF" stroke-width="5" stroke-miterlimit="10"/>
<path d="M493.91 410.07C503.94 387.74 511.4 345.57 531.03 397.58L568.02 505.31C574.11 514.01 579.4 534.86 566.77 546.27C563.6 549.13 558.11 550.3 553.38 550.74C548.14 551.23 544.39 545.59 547.13 541.1C547.15 541.06 547.18 541.02 547.21 540.98C545.8 543.76 544.94 544.83 541.17 543.88C534.82 542.28 530.03 533.72 533.22 523.12C530.61 518.02 528.33 512.31 526.24 506.1L493.92 410.07H493.91Z" fill="#FFEBD1" stroke="#0A13FF" stroke-width="5" stroke-linecap="round" stroke-linejoin="round"/>
<path d="M560.097 606.03C555.967 606.03 555.957 616.18 560.097 616.18C564.237 616.18 564.237 606.03 560.097 606.03Z" fill="#0A13FF"/>
<path d="M365.819 410.07C352.399 395.85 342.499 354.73 328.699 397.58L291.709 505.31C285.619 514.01 272.409 528.02 282.209 540.49C288.199 548.11 302.899 548.32 312.519 540.97C313.929 543.75 317.409 545.42 321.179 544.47C327.529 542.87 329.699 533.72 326.509 523.11C329.119 518.01 331.399 512.3 333.489 506.09L365.809 410.06L365.819 410.07Z" fill="#FFEBD1" stroke="#0A13FF" stroke-width="5" stroke-linecap="round" stroke-linejoin="round"/>
<path d="M429.998 375.64L346.918 448.35L286.328 481.18C286.328 481.18 295.848 456.72 307.478 426.25C330.878 364.79 373.058 348.93 400.148 348.93H426.998" class="fill"/>
<path d="M429.998 375.64L346.918 448.35L286.328 481.18C286.328 481.18 295.848 456.72 307.478 426.25C330.878 364.79 373.058 348.93 400.148 348.93H426.998" stroke="#0A13FF" stroke-width="5" stroke-miterlimit="10"/>
<path d="M430 375.64L513.08 448.35L572.35 477.55C572.35 477.55 566.41 462.03 552.52 426.25C529.12 364.79 486.94 348.93 459.85 348.93H433" class="fill"/>
<path d="M430 375.64L513.08 448.35L572.35 477.55C572.35 477.55 566.41 462.03 552.52 426.25C529.12 364.79 486.94 348.93 459.85 348.93H433" stroke="#0A13FF" stroke-width="5" stroke-miterlimit="10"/>
<path d="M503.767 390.84C496.417 372.78 486.457 354.73 429.997 354.73C373.537 354.73 363.567 372.78 356.227 390.84C343.927 421.07 335.447 533.65 335.447 533.65C365.037 537.95 400.677 539.89 429.997 539.76C459.317 539.9 494.957 537.95 524.547 533.65C524.547 533.65 516.067 421.07 503.767 390.84Z" class="fill"/>
<path d="M507.847 407.25C514.187 441.6 524.547 533.19 524.547 533.19C494.957 537.49 447.907 539.76 429.997 539.76C412.087 539.76 365.037 537.49 335.447 533.19C335.447 533.19 345.807 441.6 352.147 407.25" class="fill"/>
<path d="M507.847 407.25C514.187 441.6 524.547 533.19 524.547 533.19C494.957 537.49 447.907 539.76 429.997 539.76C412.087 539.76 365.037 537.49 335.447 533.19C335.447 533.19 345.807 441.6 352.147 407.25" stroke="#0A13FF" stroke-width="5" stroke-miterlimit="10"/>
<path d="M377.498 352.39C365.158 356.11 351.878 363.18 339.488 375.23C380.908 362.22 398.248 396.08 429.998 385.5L429.968 377.9L413.608 348.94H400.148C399.968 348.94 399.788 348.94 399.598 348.94C397.088 348.98 388.288 349.71 377.488 352.38L377.498 352.39Z" fill="#E343FF" stroke="#0A13FF" stroke-width="5" stroke-miterlimit="10"/>
<path d="M482.5 352.39C494.84 356.11 508.12 363.18 520.51 375.23C479.09 362.22 461.75 396.08 430 385.5L430.03 377.9L446.39 348.94H459.85C460.03 348.94 460.21 348.94 460.4 348.94C462.91 348.98 471.71 349.71 482.51 352.38L482.5 352.39Z" fill="#E343FF" stroke="#0A13FF" stroke-width="5" stroke-miterlimit="10"/>
<path d="M429.997 375.65C446.273 375.65 459.467 362.456 459.467 346.18C459.467 329.904 446.273 316.71 429.997 316.71C413.722 316.71 400.527 329.904 400.527 346.18C400.527 362.456 413.722 375.65 429.997 375.65Z" fill="#FFEBD1" stroke="#0A13FF" stroke-width="5" stroke-miterlimit="10"/>
<path d="M429.999 389.66C433.479 389.66 436.299 386.839 436.299 383.36C436.299 379.881 433.479 377.06 429.999 377.06C426.52 377.06 423.699 379.881 423.699 383.36C423.699 386.839 426.52 389.66 429.999 389.66Z" fill="#E343FF" stroke="#0A13FF" stroke-width="5" stroke-miterlimit="10"/>
<path d="M345.84 369.94C345.84 369.94 333.01 404.63 337.29 455.48C341.57 506.33 326.52 523.11 326.52 523.11L294.16 524.98C294.16 524.98 279.29 554.49 288.46 594.48C296.3 628.7 328.5 623.52 340.79 608.1C354.27 591.18 355.74 573.76 352.55 515.78C350.64 481.1 350.13 447.09 352.26 411.27C353.36 392.66 357.1 372.26 358.73 363.99C359 362.63 357.47 361.64 356.34 362.45L345.85 369.93L345.84 369.94Z" fill="#FFCA45" stroke="#0A13FF" stroke-width="5" stroke-miterlimit="10"/>
<path d="M291.709 505.31C285.619 514.01 272.409 528.02 282.209 540.49C288.199 548.11 302.899 548.32 312.519 540.97C313.929 543.75 317.409 545.42 321.179 544.47C327.529 542.87 329.699 533.72 326.509 523.11C329.119 518.01 331.399 512.3 333.489 506.09" fill="#FFEBD1"/>
<path d="M291.709 505.31C285.619 514.01 272.409 528.02 282.209 540.49C288.199 548.11 302.899 548.32 312.519 540.97C313.929 543.75 317.409 545.42 321.179 544.47C327.529 542.87 329.699 533.72 326.509 523.11C329.119 518.01 331.399 512.3 333.489 506.09" stroke="#0A13FF" stroke-width="5" stroke-linecap="round" stroke-linejoin="round"/>
</g>
<defs>
<clipPath id="clip0_152_3870">
<rect width="100%" height="100%" class="fill"/>
</clipPath>
</defs>
</svg>
