<svg class="tree-image-resource" viewBox="0 0 860 860" fill="none" xmlns="http://www.w3.org/2000/svg">
<g clip-path="url(#clip0_152_4031)">
<path d="M365.821 410.07C352.401 395.85 342.501 354.73 328.701 397.58L291.711 505.31C285.621 514.01 272.411 528.02 282.211 540.49C288.201 548.11 302.901 548.32 312.521 540.97C313.931 543.75 317.411 545.42 321.181 544.47C327.531 542.87 329.701 533.72 326.511 523.11C329.121 518.01 331.401 512.3 333.491 506.09L365.811 410.06L365.821 410.07Z" fill="#FFEBD1" stroke="#0A13FF" stroke-width="5" stroke-linecap="round" stroke-linejoin="round"/>
<path d="M429.999 375.64L337.929 511.88L281.609 491.09C281.609 491.09 296.339 452.59 307.479 426.25C330.879 364.79 373.059 348.93 400.149 348.93H426.999" fill="white"/>
<path d="M429.999 375.64L337.929 511.88L281.609 491.09C281.609 491.09 296.339 452.59 307.479 426.25C330.879 364.79 373.059 348.93 400.149 348.93H426.999" stroke="#0A13FF" stroke-width="5" stroke-miterlimit="10"/>
<path d="M568.311 616.37C569.121 614.04 568.711 608.85 568.791 606.21C569.041 597.39 568.831 590.58 564.751 583.03C563.901 581.46 562.771 580.24 561.471 579.29C565.111 558.74 568.461 530.17 561.971 517.63C551.281 496.96 542.011 512.28 534.171 536.52C529.031 552.41 529.561 572.12 530.531 583.82C524.781 589.19 521.021 596.95 521.721 606.46C523.771 634.5 513.341 649.91 522.351 663.72C527.121 671.04 539.611 672.37 548.251 671.8C558.911 671.1 564.371 667.15 567.521 657.51C570.901 647.18 565.591 634.02 564.521 620.51C566.521 619.51 567.911 617.55 568.331 616.38L568.311 616.37ZM551.981 532.6C551.981 532.6 554.951 550.32 550.711 576.45C547.771 576.49 544.851 576.97 542.351 577.64C540.851 538.12 551.981 532.6 551.981 532.6ZM532.511 602.51C531.511 614.51 531.681 620.47 543.511 622.51C555.501 624.58 566.081 620.91 568.081 616.91" fill="#FFCA45"/>
<path d="M532.511 602.51C531.511 614.51 531.681 620.47 543.511 622.51C555.501 624.58 566.081 620.91 568.081 616.91M568.311 616.37C569.121 614.04 568.711 608.85 568.791 606.21C569.041 597.39 568.831 590.58 564.751 583.03C563.901 581.46 562.771 580.24 561.471 579.29C565.111 558.74 568.461 530.17 561.971 517.63C551.281 496.96 542.011 512.28 534.171 536.52C529.031 552.41 529.561 572.12 530.531 583.82C524.781 589.19 521.021 596.95 521.721 606.46C523.771 634.5 513.341 649.91 522.351 663.72C527.121 671.04 539.611 672.37 548.251 671.8C558.911 671.1 564.371 667.15 567.521 657.51C570.901 647.18 565.591 634.02 564.521 620.51C566.521 619.51 567.911 617.55 568.331 616.38L568.311 616.37ZM551.981 532.6C551.981 532.6 554.951 550.32 550.711 576.45C547.771 576.49 544.851 576.97 542.351 577.64C540.851 538.12 551.981 532.6 551.981 532.6Z" stroke="#0A13FF" stroke-width="5" stroke-miterlimit="10"/>
<path d="M493.91 410.07C503.94 387.74 511.4 345.57 531.03 397.58L568.02 505.31C574.11 514.01 579.4 534.86 566.77 546.27C563.6 549.13 558.11 550.3 553.38 550.74C548.14 551.23 544.39 545.59 547.13 541.1C547.15 541.06 547.18 541.02 547.21 540.98C545.8 543.76 544.94 544.83 541.17 543.88C534.82 542.28 530.03 533.72 533.22 523.12C530.61 518.02 528.33 512.31 526.24 506.1L493.92 410.07H493.91Z" fill="#FFEBD1" stroke="#0A13FF" stroke-width="5" stroke-linecap="round" stroke-linejoin="round"/>
<path d="M430.004 375.64L522.074 511.88L578.394 491.09C578.394 491.09 563.664 452.59 552.524 426.25C529.124 364.79 486.944 348.93 459.854 348.93H433.004" fill="white"/>
<path d="M430.004 375.64L522.074 511.88L578.394 491.09C578.394 491.09 563.664 452.59 552.524 426.25C529.124 364.79 486.944 348.93 459.854 348.93H433.004" stroke="#0A13FF" stroke-width="5" stroke-miterlimit="10"/>
<path d="M564.193 459.11C549.393 459.11 549.373 482.11 564.193 482.11C568.373 482.11 571.373 480.27 573.193 477.64C575.283 474.62 570.903 468.74 570.903 468.74C570.903 468.74 570.033 459.11 564.183 459.11H564.193Z" fill="#0A13FF"/>
<path d="M519.854 448.17C505.054 448.17 505.034 471.17 519.854 471.17C534.674 471.17 534.674 448.17 519.854 448.17Z" fill="#0A13FF"/>
<path d="M542.065 402.97C527.265 402.97 527.245 425.97 542.065 425.97C546.135 425.97 549.085 424.23 550.925 421.71L542.065 402.97Z" fill="#0A13FF"/>
<path d="M503.773 390.84C496.423 372.78 486.463 354.73 430.003 354.73C373.543 354.73 363.573 372.78 356.233 390.84C343.933 421.07 335.453 533.65 335.453 533.65C365.043 537.95 400.683 539.89 430.003 539.76C459.323 539.9 494.963 537.95 524.553 533.65C524.553 533.65 516.073 421.07 503.773 390.84Z" fill="white"/>
<path d="M507.853 407.25C514.193 441.6 524.553 533.19 524.553 533.19C494.963 537.49 447.913 539.76 430.003 539.76C412.093 539.76 365.043 537.49 335.453 533.19C335.453 533.19 345.813 441.6 352.153 407.25" fill="white"/>
<path d="M507.853 407.25C514.193 441.6 524.553 533.19 524.553 533.19C494.963 537.49 447.913 539.76 430.003 539.76C412.093 539.76 365.043 537.49 335.453 533.19C335.453 533.19 345.813 441.6 352.153 407.25" stroke="#0A13FF" stroke-width="5" stroke-miterlimit="10"/>
<path d="M491.545 499.28C476.745 499.28 476.725 522.28 491.545 522.28C506.365 522.28 506.365 499.28 491.545 499.28Z" fill="#0A13FF"/>
<path d="M370.443 497.89C355.643 497.89 355.623 520.89 370.443 520.89C385.263 520.89 385.263 497.89 370.443 497.89Z" fill="#0A13FF"/>
<path d="M434.815 455.54C420.015 455.54 419.995 478.54 434.815 478.54C449.635 478.54 449.635 455.54 434.815 455.54Z" fill="#0A13FF"/>
<path d="M390.904 404.46C376.104 404.46 376.084 427.46 390.904 427.46C405.724 427.46 405.724 404.46 390.904 404.46Z" fill="#0A13FF"/>
<path d="M377.502 352.39C365.162 356.11 351.882 363.18 339.492 375.23C380.912 362.22 398.252 396.08 430.002 385.5L429.972 377.9L413.612 348.94H400.152C399.972 348.94 399.792 348.94 399.602 348.94C397.092 348.98 388.292 349.71 377.492 352.38L377.502 352.39Z" fill="#E343FF" stroke="#0A13FF" stroke-width="5" stroke-linecap="round" stroke-linejoin="round"/>
<path d="M482.504 352.39C494.844 356.11 508.124 363.18 520.514 375.23C479.094 362.22 461.754 396.08 430.004 385.5L430.034 377.9L446.394 348.94H459.854C460.034 348.94 460.214 348.94 460.404 348.94C462.914 348.98 471.714 349.71 482.514 352.38L482.504 352.39Z" fill="#E343FF" stroke="#0A13FF" stroke-width="5" stroke-linecap="round" stroke-linejoin="round"/>
<path d="M430.001 375.65C446.277 375.65 459.471 362.456 459.471 346.18C459.471 329.904 446.277 316.71 430.001 316.71C413.725 316.71 400.531 329.904 400.531 346.18C400.531 362.456 413.725 375.65 430.001 375.65Z" fill="#FFEBD1" stroke="#0A13FF" stroke-width="5" stroke-miterlimit="10"/>
<path d="M430.003 389.66C433.483 389.66 436.303 386.839 436.303 383.36C436.303 379.881 433.483 377.06 430.003 377.06C426.524 377.06 423.703 379.881 423.703 383.36C423.703 386.839 426.524 389.66 430.003 389.66Z" fill="#E343FF" stroke="#0A13FF" stroke-width="5" stroke-linecap="round" stroke-linejoin="round"/>
<path d="M328.789 453.333L320.105 457.161L324.034 466.073L332.718 462.245L328.789 453.333Z" fill="white"/>
<path d="M472.381 402.97C457.581 402.97 457.561 425.97 472.381 425.97C487.201 425.97 487.201 402.97 472.381 402.97Z" fill="#0A13FF"/>
<path d="M315.301 488.16C308.531 488.16 304.851 492.97 304.271 498.2C303.581 504.39 323.801 508.39 325.371 504.76C328.321 497.95 324.971 488.16 315.301 488.16Z" fill="#0A13FF"/>
<path d="M317.1 415.96C302.3 415.96 302.28 438.96 317.1 438.96C331.92 438.96 331.92 415.96 317.1 415.96Z" fill="#0A13FF"/>
<path d="M345.84 369.94C345.84 369.94 333.01 404.63 337.29 455.48C341.57 506.33 326.52 523.11 326.52 523.11L294.16 524.98C294.16 524.98 279.29 554.49 288.46 594.48C296.3 628.7 328.5 623.52 340.79 608.1C354.27 591.18 355.74 573.76 352.55 515.78C350.64 481.1 350.13 447.09 352.26 411.27C353.36 392.66 357.1 372.26 358.73 363.99C359 362.63 357.47 361.64 356.34 362.45L345.85 369.93L345.84 369.94Z" fill="#FFCA45" stroke="#0A13FF" stroke-width="5" stroke-miterlimit="10"/>
<path d="M560.101 606.03C555.971 606.03 555.961 616.18 560.101 616.18C564.241 616.18 564.241 606.03 560.101 606.03Z" fill="#0A13FF"/>
<path d="M291.711 505.31C285.621 514.01 272.411 528.02 282.211 540.49C288.201 548.11 302.901 548.32 312.521 540.97C313.931 543.75 317.411 545.42 321.181 544.47C327.531 542.87 329.701 533.72 326.511 523.11C327.671 520.85 328.761 518.47 329.801 515.98" fill="#FFEBD1"/>
<path d="M291.711 505.31C285.621 514.01 272.411 528.02 282.211 540.49C288.201 548.11 302.901 548.32 312.521 540.97C313.931 543.75 317.411 545.42 321.181 544.47C327.531 542.87 329.701 533.72 326.511 523.11C327.671 520.85 328.761 518.47 329.801 515.98" stroke="#0A13FF" stroke-width="5" stroke-linecap="round" stroke-linejoin="round"/>
</g>
<defs>
<clipPath id="clip0_152_4031">
<rect width="100%" height="100%" fill="white"/>
</clipPath>
</defs>
</svg>
