<svg class="tree-image-resource" viewBox="0 0 860 860" fill="none" xmlns="http://www.w3.org/2000/svg">
<g clip-path="url(#clip0_152_3924)">
<path d="M560.099 606.03C555.969 606.03 555.959 616.18 560.099 616.18C564.239 616.18 564.239 606.03 560.099 606.03Z" fill="#0A13FF"/>
<path d="M345.84 369.94C345.84 369.94 333.01 404.63 337.29 455.48C341.57 506.33 326.52 523.11 326.52 523.11L294.16 524.98C294.16 524.98 279.29 554.49 288.46 594.48C296.3 628.7 328.5 623.52 340.79 608.1C354.27 591.18 355.74 573.76 352.55 515.78C350.64 481.1 350.13 447.09 352.26 411.27C353.36 392.66 357.1 372.26 358.73 363.99C359 362.63 357.47 361.64 356.34 362.45L345.85 369.93L345.84 369.94Z" fill="#FFCA45" stroke="#0A13FF" stroke-width="5" stroke-miterlimit="10"/>
<path d="M568.309 616.37C569.119 614.04 568.709 608.85 568.789 606.21C569.039 597.39 568.829 590.58 564.749 583.03C563.899 581.46 562.769 580.24 561.469 579.29C565.109 558.74 568.459 530.17 561.969 517.63C551.279 496.96 542.009 512.28 534.169 536.52C529.029 552.41 529.559 572.12 530.529 583.82C524.779 589.19 521.019 596.95 521.719 606.46C523.769 634.5 513.339 649.91 522.349 663.72C527.119 671.04 539.609 672.37 548.249 671.8C558.909 671.1 564.369 667.15 567.519 657.51C570.899 647.18 565.589 634.02 564.519 620.51C566.519 619.51 567.909 617.55 568.329 616.38L568.309 616.37ZM551.979 532.6C551.979 532.6 554.949 550.32 550.709 576.45C547.769 576.49 544.849 576.97 542.349 577.64C540.849 538.12 551.979 532.6 551.979 532.6ZM532.509 602.51C531.509 614.51 531.679 620.47 543.509 622.51C555.499 624.58 566.079 620.91 568.079 616.91" fill="#FFCA45"/>
<path d="M532.509 602.51C531.509 614.51 531.679 620.47 543.509 622.51C555.499 624.58 566.079 620.91 568.079 616.91M568.309 616.37C569.119 614.04 568.709 608.85 568.789 606.21C569.039 597.39 568.829 590.58 564.749 583.03C563.899 581.46 562.769 580.24 561.469 579.29C565.109 558.74 568.459 530.17 561.969 517.63C551.279 496.96 542.009 512.28 534.169 536.52C529.029 552.41 529.559 572.12 530.529 583.82C524.779 589.19 521.019 596.95 521.719 606.46C523.769 634.5 513.339 649.91 522.349 663.72C527.119 671.04 539.609 672.37 548.249 671.8C558.909 671.1 564.369 667.15 567.519 657.51C570.899 647.18 565.589 634.02 564.519 620.51C566.519 619.51 567.909 617.55 568.329 616.38L568.309 616.37ZM551.979 532.6C551.979 532.6 554.949 550.32 550.709 576.45C547.769 576.49 544.849 576.97 542.349 577.64C540.849 538.12 551.979 532.6 551.979 532.6Z" stroke="#0A13FF" stroke-width="5" stroke-miterlimit="10"/>
<path d="M493.908 410.07L531.028 397.58L568.018 505.31C574.108 514.01 579.398 534.86 566.768 546.27C563.598 549.13 558.108 550.3 553.378 550.74C548.138 551.23 544.388 545.59 547.128 541.1C547.148 541.06 547.178 541.02 547.208 540.98C545.798 543.76 544.938 544.83 541.168 543.88C534.818 542.28 530.028 533.72 533.218 523.12C530.608 518.02 528.328 512.31 526.238 506.1L493.918 410.07H493.908Z" fill="#FFEBD1" stroke="#0A13FF" stroke-width="5" stroke-linecap="round" stroke-linejoin="round"/>
<path d="M365.819 410.07L328.699 397.58L291.709 505.31C285.619 514.01 272.409 528.02 282.209 540.49C288.199 548.11 302.899 548.32 312.519 540.97C313.929 543.75 317.409 545.42 321.179 544.47C327.529 542.87 329.699 533.72 326.509 523.11C329.119 518.01 331.399 512.3 333.489 506.09L365.809 410.06L365.819 410.07Z" fill="#FFEBD1" stroke="#0A13FF" stroke-width="5" stroke-linecap="round" stroke-linejoin="round"/>
<path d="M429.999 375.64L346.919 448.35C346.919 448.35 323.159 437.89 307.469 426.25C330.869 364.79 373.049 348.93 400.139 348.93H426.989" fill="white"/>
<path d="M429.999 375.64L346.919 448.35C346.919 448.35 323.159 437.89 307.469 426.25C330.869 364.79 373.049 348.93 400.139 348.93H426.989" stroke="#0A13FF" stroke-width="5" stroke-miterlimit="10"/>
<path d="M429.998 375.64L513.078 448.35C513.078 448.35 536.838 437.89 552.528 426.25C529.128 364.79 486.948 348.93 459.858 348.93H433.008" fill="white"/>
<path d="M429.998 375.64L513.078 448.35C513.078 448.35 536.838 437.89 552.528 426.25C529.128 364.79 486.948 348.93 459.858 348.93H433.008" stroke="#0A13FF" stroke-width="5" stroke-miterlimit="10"/>
<path d="M503.769 390.84C496.419 372.78 486.459 354.73 429.999 354.73C373.539 354.73 363.569 372.78 356.229 390.84C343.929 421.07 335.449 533.65 335.449 533.65C365.039 537.95 400.679 539.89 429.999 539.76C459.319 539.9 494.959 537.95 524.549 533.65C524.549 533.65 516.069 421.07 503.769 390.84Z" fill="white"/>
<path d="M507.849 407.25C514.189 441.6 524.549 533.19 524.549 533.19C494.959 537.49 447.909 539.76 429.999 539.76C412.089 539.76 365.039 537.49 335.449 533.19C335.449 533.19 345.809 441.6 352.149 407.25" fill="white"/>
<path d="M507.849 407.25C514.189 441.6 524.549 533.19 524.549 533.19C494.959 537.49 447.909 539.76 429.999 539.76C412.089 539.76 365.039 537.49 335.449 533.19C335.449 533.19 345.809 441.6 352.149 407.25" stroke="#0A13FF" stroke-width="5" stroke-miterlimit="10"/>
<path d="M377.498 352.39C365.158 356.11 351.878 363.18 339.488 375.23C380.908 362.22 398.248 396.08 429.998 385.5L429.968 377.9L413.608 348.94H400.148C399.968 348.94 399.788 348.94 399.598 348.94C397.088 348.98 388.288 349.71 377.488 352.38L377.498 352.39Z" fill="#E343FF" stroke="#0A13FF" stroke-width="5" stroke-miterlimit="10"/>
<path d="M482.498 352.39C494.838 356.11 508.118 363.18 520.508 375.23C479.088 362.22 461.748 396.08 429.998 385.5L430.028 377.9L446.388 348.94H459.848C460.028 348.94 460.208 348.94 460.398 348.94C462.908 348.98 471.708 349.71 482.508 352.38L482.498 352.39Z" fill="#E343FF" stroke="#0A13FF" stroke-width="5" stroke-miterlimit="10"/>
<path d="M429.999 375.65C446.275 375.65 459.469 362.456 459.469 346.18C459.469 329.904 446.275 316.71 429.999 316.71C413.723 316.71 400.529 329.904 400.529 346.18C400.529 362.456 413.723 375.65 429.999 375.65Z" fill="#FFEBD1" stroke="#0A13FF" stroke-width="5" stroke-miterlimit="10"/>
<path d="M429.999 389.66C433.479 389.66 436.299 386.839 436.299 383.36C436.299 379.881 433.479 377.06 429.999 377.06C426.52 377.06 423.699 379.881 423.699 383.36C423.699 386.839 426.52 389.66 429.999 389.66Z" fill="#E343FF" stroke="#0A13FF" stroke-width="5" stroke-miterlimit="10"/>
<path d="M345.84 369.94C345.84 369.94 333.01 404.63 337.29 455.48C341.57 506.33 326.52 523.11 326.52 523.11L294.16 524.98C294.16 524.98 279.29 554.49 288.46 594.48C296.3 628.7 328.5 623.52 340.79 608.1C354.27 591.18 355.74 573.76 352.55 515.78C350.64 481.1 350.13 447.09 352.26 411.27C353.36 392.66 357.1 372.26 358.73 363.99C359 362.63 357.47 361.64 356.34 362.45L345.85 369.93L345.84 369.94Z" fill="#FFCA45" stroke="#0A13FF" stroke-width="5" stroke-miterlimit="10"/>
<path d="M291.709 505.31C285.619 514.01 272.409 528.02 282.209 540.49C288.199 548.11 302.899 548.32 312.519 540.97C313.929 543.75 317.409 545.42 321.179 544.47C327.529 542.87 329.699 533.72 326.509 523.11C329.119 518.01 331.399 512.3 333.489 506.09" fill="#FFEBD1"/>
<path d="M291.709 505.31C285.619 514.01 272.409 528.02 282.209 540.49C288.199 548.11 302.899 548.32 312.519 540.97C313.929 543.75 317.409 545.42 321.179 544.47C327.529 542.87 329.699 533.72 326.509 523.11C329.119 518.01 331.399 512.3 333.489 506.09" stroke="#0A13FF" stroke-width="5" stroke-linecap="round" stroke-linejoin="round"/>
</g>
<defs>
<clipPath id="clip0_152_3924">
<rect width="100%" height="100%" fill="white"/>
</clipPath>
</defs>
</svg>
