<svg class="tree-image-resource" viewBox="0 0 860 860" fill="none" xmlns="http://www.w3.org/2000/svg">
<g clip-path="url(#clip0_152_4066)">
<path d="M365.821 410.07C352.401 395.85 342.501 354.73 328.701 397.58L291.711 505.31C285.621 514.01 272.411 528.02 282.211 540.49C288.201 548.11 302.901 548.32 312.521 540.97C313.931 543.75 317.411 545.42 321.181 544.47C327.531 542.87 329.701 533.72 326.511 523.11C329.121 518.01 331.401 512.3 333.491 506.09L365.811 410.06L365.821 410.07Z" fill="#FFEBD1" stroke="#0A13FF" stroke-width="5" stroke-linecap="round" stroke-linejoin="round"/>
<path d="M568.311 616.37C569.121 614.04 568.711 608.85 568.791 606.21C569.041 597.39 568.831 590.58 564.751 583.03C563.901 581.46 562.771 580.24 561.471 579.29C565.111 558.74 568.461 530.17 561.971 517.63C551.281 496.96 542.011 512.28 534.171 536.52C529.031 552.41 529.561 572.12 530.531 583.82C524.781 589.19 521.021 596.95 521.721 606.46C523.771 634.5 513.341 649.91 522.351 663.72C527.121 671.04 539.611 672.37 548.251 671.8C558.911 671.1 564.371 667.15 567.521 657.51C570.901 647.18 565.591 634.02 564.521 620.51C566.521 619.51 567.911 617.55 568.331 616.38L568.311 616.37ZM551.981 532.6C551.981 532.6 554.951 550.32 550.711 576.45C547.771 576.49 544.851 576.97 542.351 577.64C540.851 538.12 551.981 532.6 551.981 532.6ZM532.511 602.51C531.511 614.51 531.681 620.47 543.511 622.51C555.501 624.58 566.081 620.91 568.081 616.91" fill="#FFCA45"/>
<path d="M532.511 602.51C531.511 614.51 531.681 620.47 543.511 622.51C555.501 624.58 566.081 620.91 568.081 616.91M568.311 616.37C569.121 614.04 568.711 608.85 568.791 606.21C569.041 597.39 568.831 590.58 564.751 583.03C563.901 581.46 562.771 580.24 561.471 579.29C565.111 558.74 568.461 530.17 561.971 517.63C551.281 496.96 542.011 512.28 534.171 536.52C529.031 552.41 529.561 572.12 530.531 583.82C524.781 589.19 521.021 596.95 521.721 606.46C523.771 634.5 513.341 649.91 522.351 663.72C527.121 671.04 539.611 672.37 548.251 671.8C558.911 671.1 564.371 667.15 567.521 657.51C570.901 647.18 565.591 634.02 564.521 620.51C566.521 619.51 567.911 617.55 568.331 616.38L568.311 616.37ZM551.981 532.6C551.981 532.6 554.951 550.32 550.711 576.45C547.771 576.49 544.851 576.97 542.351 577.64C540.851 538.12 551.981 532.6 551.981 532.6Z" stroke="#0A13FF" stroke-width="5" stroke-miterlimit="10"/>
<path d="M493.91 410.07C503.94 387.74 511.4 345.57 531.03 397.58L568.02 505.31C574.11 514.01 579.4 534.86 566.77 546.27C563.6 549.13 558.11 550.3 553.38 550.74C548.14 551.23 544.39 545.59 547.13 541.1C547.15 541.06 547.18 541.02 547.21 540.98C545.8 543.76 544.94 544.83 541.17 543.88C534.82 542.28 530.03 533.72 533.22 523.12C530.61 518.02 528.33 512.31 526.24 506.1L493.92 410.07H493.91Z" fill="#FFEBD1" stroke="#0A13FF" stroke-width="5" stroke-linecap="round" stroke-linejoin="round"/>
<path d="M429.999 375.64L337.929 511.88L281.609 491.09C281.609 491.09 296.339 452.59 307.479 426.25C330.879 364.79 373.059 348.93 400.149 348.93H426.999" fill="white"/>
<path d="M429.999 375.64L337.929 511.88L281.609 491.09C281.609 491.09 296.339 452.59 307.479 426.25C330.879 364.79 373.059 348.93 400.149 348.93H426.999" stroke="#0A13FF" stroke-width="5" stroke-miterlimit="10"/>
<path d="M430 375.64L522.07 511.88L578.39 491.09C578.39 491.09 563.66 452.59 552.52 426.25C529.12 364.79 486.94 348.93 459.85 348.93H433" fill="white"/>
<path d="M430 375.64L522.07 511.88L578.39 491.09C578.39 491.09 563.66 452.59 552.52 426.25C529.12 364.79 486.94 348.93 459.85 348.93H433" stroke="#0A13FF" stroke-width="5" stroke-miterlimit="10"/>
<path d="M430 375.64L522.07 511.88L578.39 491.09C578.39 491.09 563.66 452.59 552.52 426.25C529.12 364.79 486.94 348.93 459.85 348.93H433" fill="white"/>
<path d="M430 375.64L522.07 511.88L578.39 491.09C578.39 491.09 563.66 452.59 552.52 426.25C529.12 364.79 486.94 348.93 459.85 348.93H433" stroke="#0A13FF" stroke-width="5" stroke-miterlimit="10"/>
<path d="M503.769 390.84C496.419 372.78 486.459 354.73 429.999 354.73C373.539 354.73 363.569 372.78 356.229 390.84C343.929 421.07 335.449 533.65 335.449 533.65C365.039 537.95 400.679 539.89 429.999 539.76C459.319 539.9 494.959 537.95 524.549 533.65C524.549 533.65 516.069 421.07 503.769 390.84Z" fill="white"/>
<path d="M352.149 407.25C347.399 433 329.969 566.54 321.539 631.79H537.209C529.199 566.54 512.599 432.99 507.849 407.25" fill="white"/>
<path d="M352.149 407.25C347.399 433 329.969 566.54 321.539 631.79H537.209C529.199 566.54 512.599 432.99 507.849 407.25" stroke="#0A13FF" stroke-width="5" stroke-miterlimit="10"/>
<path d="M377.498 352.39C365.158 356.11 351.878 363.18 339.488 375.23C380.908 362.22 398.248 396.08 429.998 385.5L429.968 377.9L413.608 348.94H400.148C399.968 348.94 399.788 348.94 399.598 348.94C397.088 348.98 388.288 349.71 377.488 352.38L377.498 352.39Z" fill="#E343FF" stroke="#0A13FF" stroke-width="5" stroke-linecap="round" stroke-linejoin="round"/>
<path d="M482.5 352.39C494.84 356.11 508.12 363.18 520.51 375.23C479.09 362.22 461.75 396.08 430 385.5L430.03 377.9L446.39 348.94H459.85C460.03 348.94 460.21 348.94 460.4 348.94C462.91 348.98 471.71 349.71 482.51 352.38L482.5 352.39Z" fill="#E343FF" stroke="#0A13FF" stroke-width="5" stroke-linecap="round" stroke-linejoin="round"/>
<path d="M429.997 375.65C446.273 375.65 459.467 362.456 459.467 346.18C459.467 329.904 446.273 316.71 429.997 316.71C413.722 316.71 400.527 329.904 400.527 346.18C400.527 362.456 413.722 375.65 429.997 375.65Z" fill="#FFEBD1" stroke="#0A13FF" stroke-width="5" stroke-miterlimit="10"/>
<path d="M429.999 389.66C433.479 389.66 436.299 386.839 436.299 383.36C436.299 379.881 433.479 377.06 429.999 377.06C426.52 377.06 423.699 379.881 423.699 383.36C423.699 386.839 426.52 389.66 429.999 389.66Z" fill="#E343FF" stroke="#0A13FF" stroke-width="5" stroke-linecap="round" stroke-linejoin="round"/>
<path d="M328.789 453.333L320.105 457.161L324.034 466.073L332.718 462.245L328.789 453.333Z" fill="white"/>
<path d="M560.101 606.03C555.971 606.03 555.961 616.18 560.101 616.18C564.241 616.18 564.241 606.03 560.101 606.03Z" fill="#0A13FF"/>
<path d="M430.001 375.65C446.277 375.65 459.471 362.456 459.471 346.18C459.471 329.904 446.277 316.71 430.001 316.71C413.725 316.71 400.531 329.904 400.531 346.18C400.531 362.456 413.725 375.65 430.001 375.65Z" fill="#FFEBD1" stroke="#0A13FF" stroke-width="5" stroke-miterlimit="10"/>
<path d="M345.84 369.94C345.84 369.94 333.01 404.63 337.29 455.48C341.57 506.33 326.52 523.11 326.52 523.11L294.16 524.98C294.16 524.98 279.29 554.49 288.46 594.48C296.3 628.7 328.5 623.52 340.79 608.1C354.27 591.18 355.74 573.76 352.55 515.78C350.64 481.1 350.13 447.09 352.26 411.27C353.36 392.66 357.1 372.26 358.73 363.99C359 362.63 357.47 361.64 356.34 362.45L345.85 369.93L345.84 369.94Z" fill="#FFCA45" stroke="#0A13FF" stroke-width="5" stroke-miterlimit="10"/>
<path d="M291.711 505.31C285.621 514.01 272.411 528.02 282.211 540.49C288.201 548.11 302.901 548.32 312.521 540.97C313.931 543.75 317.411 545.42 321.181 544.47C327.531 542.87 329.701 533.72 326.511 523.11C327.671 520.85 328.761 518.47 329.801 515.98" fill="#FFEBD1"/>
<path d="M291.711 505.31C285.621 514.01 272.411 528.02 282.211 540.49C288.201 548.11 302.901 548.32 312.521 540.97C313.931 543.75 317.411 545.42 321.181 544.47C327.531 542.87 329.701 533.72 326.511 523.11C327.671 520.85 328.761 518.47 329.801 515.98" stroke="#0A13FF" stroke-width="5" stroke-linecap="round" stroke-linejoin="round"/>
</g>
<defs>
<clipPath id="clip0_152_4066">
<rect width="100%" height="100%" fill="white"/>
</clipPath>
</defs>
</svg>
