<svg viewBox="0 0 454 134" fill="none" xmlns="http://www.w3.org/2000/svg">
<g clip-path="url(#clip0_252_3494)">
<path d="M72.1299 64.3799L73.2799 62.48V54.73L72.1299 52.8301L75.6799 50.28H91.3299V48.1799H76.0299L73.2799 49.5801V39.28L76.0299 40.6799H95.7299L97.4799 39.0801L103.23 43.23L102.08 45.1299V57.28H84.0799V59.47H99.5799L102.33 58.3201V68.3699L99.5799 66.97H75.6799L72.1299 64.3799ZM118.48 77.9299C118.48 85.8299 107.73 87.53 96.5299 87.53C85.3299 87.53 74.5299 85.8299 74.5299 77.9299C74.5299 70.0299 85.2799 68.3301 96.5299 68.3301C107.78 68.3301 118.48 70.0299 118.48 77.9299ZM107.48 77.9299C107.48 76.0799 102.73 75.8301 96.5299 75.8301C90.3299 75.8301 85.5299 76.0799 85.5299 77.9299C85.5299 79.7799 90.2799 80.03 96.5299 80.03C102.78 80.03 107.48 79.7799 107.48 77.9299ZM117.78 42.6799V64.73L119.18 67.48H105.38L106.78 64.73V42.6799L105.38 39.9299H119.18L117.78 42.6799Z" fill="white"/>
<path d="M165.78 75.6299L168.53 74.23V86.23L165.78 84.8301H125.28L122.53 86.23V74.23L125.28 75.6299H165.78ZM155.78 63.8799L127.28 64.73L124.53 66.1799V54.3799L127.23 55.73L155.78 54.8799V49.6799H127.28L124.53 51.0801V39.28L127.28 40.6799H156.93L158.68 39.0801L167.93 42.98L166.78 44.8799V70.1299L168.18 72.8799H154.38L155.78 70.1299V63.8799Z" fill="white"/>
<path d="M228.28 63.0303L231.03 61.6301V71.9302L228.28 70.5303H187.78L185.03 71.9302V61.6301L187.78 63.0303H202.58V60.2803H189.18L185.63 57.7302L186.78 55.8303V42.6802L185.38 39.9302H199.18L197.78 42.6802V43.0303H218.28V42.6802L216.88 39.9302H230.68L229.28 42.6802V55.8303L230.43 57.7302L226.88 60.2803H213.58V63.0303H228.28ZM230.68 86.3801H216.88L218.28 83.6301V80.0303H189.78L187.03 81.4302V71.1301L189.78 72.5303H226.88L230.43 75.0803L229.28 76.9802V83.6301L230.68 86.3801ZM197.78 50.5303V52.7803H218.28V50.5303H197.78Z" fill="white"/>
<path d="M280.78 57.4702L283.53 56.0703V68.1201L280.78 66.7202H277.33V83.6702L278.73 86.4202H264.93L266.33 83.6702V79.1702L257.08 85.8203L256.58 82.7202C253.83 78.2202 251.13 73.2203 249.88 69.3203C248.63 73.2203 245.93 78.2202 243.18 82.7202L242.68 85.8203L232.68 78.6201L234.78 77.8701C238.615 71.5624 241.83 64.898 244.38 57.9702V43.3701L242.88 40.7202H256.88L255.38 43.3701V57.9702C257.93 64.898 261.145 71.5624 264.98 77.8701L266.33 78.3701V42.7202L264.93 39.9702H278.73L277.33 42.7202V57.4702H280.78Z" fill="white"/>
<path d="M304.68 44.4702H311.58L314.33 43.0703V54.6201L311.58 53.2202H286.78L284.03 54.6201V43.0703L286.78 44.4702H293.68V42.2202L292.28 39.4702H306.08L304.68 42.2202V44.4702ZM313.48 70.3203C313.48 79.8203 308.53 86.1702 299.18 86.1702C289.83 86.1702 284.88 79.8203 284.88 70.3203C284.88 60.8203 289.88 54.4702 299.18 54.4702C308.48 54.4702 313.48 60.7803 313.48 70.2803V70.3203ZM303.23 70.3203C303.23 66.5703 301.98 63.7202 299.23 63.7202C296.48 63.7202 295.18 66.5703 295.18 70.3203C295.18 74.0703 296.43 76.9202 299.23 76.9202C302.03 76.9202 303.23 74.0303 303.23 70.2803V70.3203ZM330.78 58.4702L333.53 57.0703V69.1201L330.78 67.7202H327.33V83.6702L328.73 86.4202H314.93L316.33 83.6702V42.7202L314.93 39.9702H328.73L327.33 42.7202V58.4702H330.78Z" fill="white"/>
<path d="M364.23 84.8799H350.43L351.83 82.1299V49.9299H338.03L335.28 51.3301V39.28L338.03 40.6799H352.98L354.73 39.0801L363.98 43.73L362.83 45.6299V82.1299L364.23 84.8799ZM380.28 42.6799V83.6299L381.68 86.3799H367.88L369.28 83.6299V42.6799L367.88 39.9299H381.68L380.28 42.6799Z" fill="white"/>
<path d="M453.58 134H0V0H453.58V134ZM4.01999 130H449.58V4H4L4.01999 130Z" fill="white"/>
</g>
<defs>
<clipPath id="clip0_252_3494">
<rect width="453.56" height="134" fill="white"/>
</clipPath>
</defs>
</svg>
