<svg viewBox="0 0 955 134" fill="none" xmlns="http://www.w3.org/2000/svg">
<g clip-path="url(#clip0_175_3475)">
<path d="M954.4 134H0V0H954.4V134ZM4 130H950.4V4H4V130Z" fill="white"/>
<path d="M189.38 61.47H184.23L181.53 71.9199H186.98L185.33 78.1699H179.93L177.18 88.6799H169.18L171.93 78.1699H167.78L165.03 88.6799H157.03L159.78 78.1699H155.28L156.88 71.9199H161.38L164.08 61.47H159.43L161.03 55.22H165.73L168.43 44.77H176.43L173.73 55.22H177.88L180.58 44.77H188.58L185.88 55.22H191.03L189.38 61.47ZM173.53 71.9199L176.23 61.47H172.08L169.38 71.9199H173.53Z" fill="white"/>
<path d="M227.08 82.3799L217.08 89.5801L216.58 86.48C213.58 81.97 210.73 76.9701 209.38 73.0701C208.03 76.9701 205.13 81.97 202.18 86.48L201.68 89.5801L191.68 82.3799L193.78 81.6201C197.816 75.3486 201.2 68.6804 203.88 61.72V53.72H197.67L194.92 55.1201V43.1201L197.67 44.52H221.17L223.92 43.1201V55.1201L221.17 53.72H214.92V61.72C217.619 68.6713 221.003 75.3375 225.02 81.6201L227.08 82.3799ZM238.78 46.47V87.47L240.18 90.22H226.38L227.78 87.47V46.47L226.38 43.72H240.18L238.78 46.47Z" fill="white"/>
<path d="M286.78 66L289.53 64.6001V76.6499L286.78 75.25H272.03V87.4099L273.43 90.1599H259.67L261.07 87.4099V75.25H246.32L243.57 76.6499V64.6001L246.32 66H286.78ZM276.78 53.45H248.28L245.53 54.8501V43.05L248.28 44.45H277.93L279.68 42.8501L288.93 46.75L287.78 48.6499V64.5H276.78V53.45Z" fill="white"/>
<path d="M293.13 66.6201L294.28 64.72V47.22L292.88 44.47H306.67L305.27 47.22V48.8201H311.02V47.22L309.62 44.47H323.42L322.02 47.22V64.72L323.17 66.6201L319.62 69.1699H296.67L293.13 66.6201ZM338.03 80.97C338.03 89.53 327.53 91.3301 316.58 91.3301C305.63 91.3301 295.13 89.53 295.13 80.97C295.13 72.41 305.63 70.6201 316.58 70.6201C327.53 70.6201 338.03 72.42 338.03 81V80.97ZM311.03 56.8201H305.28V61.1699H311.03V56.8201ZM327.03 80.97C327.03 78.42 322.48 78.1201 316.58 78.1201C310.68 78.1201 306.13 78.42 306.13 80.97C306.13 83.52 310.68 83.8301 316.58 83.8301C322.48 83.8301 327.03 83.53 327.03 81V80.97ZM339.28 51.8201L342.03 50.4199V62L339.28 60.6001H336.83V67.25L338.23 70H324.43L325.83 67.25V46.5L324.43 43.75H338.23L336.83 46.5V51.8501L339.28 51.8201Z" fill="white"/>
<path d="M343.53 68.3201L346.13 69.6201L376.28 67.72V76.47L364.98 77.1699L363.53 87.4299L364.68 90.1799H350.88L352.53 87.4299L353.88 77.8799L346.28 78.3799L343.53 79.77V68.3201ZM344.38 55.22C344.38 47.22 351.28 43.6201 360.13 43.6201C368.98 43.6201 375.88 47.22 375.88 55.22C375.88 63.22 368.98 66.8201 360.13 66.8201C351.28 66.8201 344.38 63.22 344.38 55.22ZM354.38 55.22C354.38 57.57 357.03 58.5701 360.13 58.5701C363.23 58.5701 365.88 57.57 365.88 55.22C365.88 52.87 363.23 51.8701 360.13 51.8701C357.03 51.8701 354.38 52.87 354.38 55.22ZM388.78 46.47V87.47L390.18 90.22H376.38L377.78 87.47V46.47L376.38 43.72H390.18L388.78 46.47Z" fill="white"/>
<path d="M413.93 43.0701V55.0701L411.18 53.6699H404.53V79.3701H411.18L413.93 77.97V90.03L411.18 88.6299H403.88L402.13 90.23L393.38 85.5701L394.53 83.6799V49.3701L393.38 47.47L402.13 42.8201L403.88 44.4199H411.18L413.93 43.0701ZM439.53 46.47V87.47L440.93 90.22H428.67L430.07 87.47V69.8101H425.87V87.47H425.92L427.32 90.22H415.02L416.37 87.5701V46.4099L415.02 43.76H427.32L425.92 46.51H425.87V60.8101H430.07V46.51L428.67 43.76H440.97L439.53 46.47Z" fill="white"/>
<path d="M444.03 91.8799V86H475.67V91.8999L444.03 91.8799Z" fill="white"/>
<path d="M513.67 82.3799L503.67 89.5801L503.17 86.48C500.17 81.97 497.32 76.9701 495.97 73.0701C494.62 76.9701 491.72 81.97 488.77 86.48L488.27 89.5801L478.27 82.3799L480.37 81.6201C484.406 75.3486 487.79 68.6804 490.47 61.72V53.72H484.22L481.47 55.1201V43.1201L484.22 44.52H507.72L510.47 43.1201V55.1201L507.72 53.72H501.47V61.72C504.169 68.6713 507.552 75.3375 511.57 81.6201L513.67 82.3799ZM525.37 46.47V87.47L526.77 90.22H512.97L514.37 87.47V46.47L512.97 43.72H526.77L525.37 46.47Z" fill="white"/>
<path d="M573.38 66L576.13 64.6001V76.6499L573.38 75.25H558.67V87.4099L560.07 90.1599H546.27L547.67 87.4099V75.25H532.88L530.13 76.6499V64.6001L532.88 66H573.38ZM563.38 53.45H534.88L532.13 54.8501V43.05L534.88 44.45H564.53L566.28 42.8501L575.53 46.75L574.38 48.6499V64.5H563.38V53.45Z" fill="white"/>
<path d="M624.67 63.6201L626.17 62.9199V70.9199L623.97 69.9199H582.37L580.17 70.9199V62.9199L582.37 63.9199H623.97L624.42 63.72L621.92 62.4199H584.32L580.77 59.8701L581.92 57.97V55L580.77 53.1001L584.32 50.55H613.38V49.45H584.08L581.88 50.45V42.7L584.08 43.7H621.98L625.53 46.25L624.38 48.1499V51.1001L625.53 53L621.98 55.55H592.88V56.6499H621.88L624.63 55.25L624.67 63.6201ZM625.57 74.02L624.42 75.9199V78.9199L625.57 80.8201L622.02 83.3701H592.92V84.46H621.92L624.67 83V91.55L621.92 90.1499H591.73L589.98 91.75L580.73 87.8501L581.88 85.95V82.75L580.73 80.8501L584.28 78.3H613.38V77.1899H584.08L581.88 78.1899V70.4399L584.08 71.4399H621.98L625.57 74.02Z" fill="white"/>
<path d="M663.67 82.3799L653.67 89.5801L653.17 86.48C650.22 81.97 647.32 76.9701 645.97 73.0701C644.62 76.9701 641.72 81.97 638.77 86.48L638.27 89.5801L628.27 82.3799L630.37 81.6201C634.406 75.3486 637.79 68.6804 640.47 61.72V53.72H634.23L631.48 55.1201V43.1201L634.23 44.52H657.73L660.48 43.1201V55.1201L657.73 53.72H651.48V61.72C654.179 68.6713 657.562 75.3375 661.58 81.6201L663.67 82.3799ZM675.37 46.47V87.47L676.77 90.22H662.98L664.38 87.47V46.47L662.98 43.72H676.78L675.37 46.47Z" fill="white"/>
<path d="M725.38 46.47V87.47L726.78 90.22H712.98L714.38 87.47V79H706.93V86L708.33 88.76H694.53L695.93 86V71L683.08 71.7L680.38 73.1001V61L683.13 62.3999L695.93 61.7V53.7H683.13L680.38 55.1001V43.1001L683.13 44.5H697.13L698.88 42.8999L708.13 47.55L706.98 49.45V53.25H714.43V46.5L713.03 43.75H726.83L725.38 46.47ZM706.93 70H714.38V62.25H706.93V70Z" fill="white"/>
<path d="M759.58 67.6699L750.33 72.3201L748.58 70.72H741.88V79.4199H755.67L758.42 78.02V90.0801L755.67 88.6799H740.73L738.98 90.28L729.73 85.6201L730.88 83.73V66.4199L729.73 64.52L738.98 59.8701L740.73 61.47H747.43V53.72H733.67L730.92 55.1201V43.1201L733.67 44.52H748.67L750.42 42.9199L759.67 47.5701L758.52 49.47V65.8201L759.58 67.6699ZM775.88 61.47L778.63 60.0701V72.0701L775.88 70.6699H772.43V87.3799L773.83 90.1299H760.03L761.43 87.3799V46.3799L760.03 43.6299H773.83L772.43 46.3799V61.3799L775.88 61.47Z" fill="white"/>
<path d="M840.2 42.76L864.24 66.8L840.2 90.84" stroke="white" stroke-width="4" stroke-miterlimit="10"/>
</g>
<defs>
<clipPath id="clip0_175_3475">
<rect width="954.4" height="134" fill="white"/>
</clipPath>
</defs>
</svg>
