<svg viewBox="0 0 955 134" fill="none" xmlns="http://www.w3.org/2000/svg">
<g clip-path="url(#clip0_104_4260)">
<path d="M952.4 2H2V132H952.4V2Z" fill="url(#paint0_linear_104_4260)"/>
<path d="M954.4 134H0V0H954.4V134ZM4 130H950.4V4H4V130Z" fill="white"/>
<path d="M197.199 56.07C197.199 47.92 203.249 42.47 211.799 42.47C220.349 42.47 226.399 47.92 226.399 56.07C226.399 64.22 220.349 69.67 211.799 69.67C203.249 69.67 197.199 64.22 197.199 56.07ZM210.999 80.42H240.209L242.999 79V90.58L240.249 89.18H209.849L208.099 90.78L198.849 86.12L199.999 84.23V74L198.599 71.25H212.399L210.999 74V80.42ZM207.199 56.07C207.199 59.07 209.249 61.17 211.799 61.17C214.349 61.17 216.399 59.12 216.399 56.07C216.399 53.02 214.349 50.97 211.799 50.97C209.249 50.97 207.199 53 207.199 56.07ZM242.459 45.47V73.22L243.859 75.97H230.049L231.459 73.22V45.47L230.049 42.72H243.859L242.459 45.47Z" fill="white"/>
<path d="M254.5 76.07L246.75 66.42L249.5 65.92C255.834 62.0829 261.07 56.6749 264.7 50.22V46.22L263.3 43.47H277.1L275.71 46.22V50.22C279.34 56.6749 284.576 62.0829 290.91 65.92L293.66 66.42L285.91 76.07L284.61 73.32C277.8 68.97 272.55 63.62 270.2 59.32C267.85 63.62 262.6 68.97 255.8 73.32L254.5 76.07ZM250 78.42H290.51L293.26 77.02V89.08L290.51 87.68H250L247.25 89.08V77L250 78.42Z" fill="white"/>
<path d="M309.7 78.4201H323L325.65 77.0801V89.0801L322.9 87.6801H308.6L306.85 89.2801L297.6 84.6201L298.75 82.7301V48.4201L297.6 46.5201L306.85 41.8701L308.6 43.4701H322.6L325.35 42.0701V54.0701L322.6 52.6701H309.7V60.4201H322.1L324.85 59.0201V71.1201L322.1 69.7201H309.7V78.4201ZM342.96 60.4201L345.71 59.0201V71.1201L343 69.7201H339.55V86.4301L340.95 89.1801H327.1L328.5 86.4301V45.4301L327.1 42.6801H340.91L339.51 45.4301V60.4301L342.96 60.4201Z" fill="white"/>
<path d="M390.46 78.4201L393.21 77.0201V89.0801L390.46 87.6801H350L347.25 89.0801V77.0001L350 78.4001L390.46 78.4201ZM380.46 52.4701H352L349.25 53.8701V42.0701L352 43.4701H381.66L383.41 41.8701L392.66 45.7701L391.51 47.6701V72.9201L392.91 75.6701H379.05L380.46 72.9201V52.4701Z" fill="white"/>
<path d="M396.051 67.1701L397.201 65.2701V57.5201L396.051 55.6201L399.601 53.0701H410.251V51.0001H400.001L397.251 52.4001V42.0701L400.001 43.4701H413.201L414.951 41.8701L420.651 46.0001L419.501 47.9001V60.0701H406.451V62.2201H417.001L419.751 61.0701V71.1201L417.001 69.7201H399.601L396.051 67.1701ZM444.361 86.8801L435.111 90.7801L433.361 89.1801H410.101L408.351 90.7801L399.101 86.8801L400.251 84.9801V75.9201L399.101 74.0001L402.651 71.4501H440.811L444.361 74.0001L443.211 75.9001V85.0001L444.361 86.8801ZM411.251 81.6701H432.251V79.0001H411.251V81.6701ZM443.251 45.4701V67.4701L444.651 70.2201H420.151L421.551 67.4701V45.4701L420.151 42.7201H444.611L443.251 45.4701ZM432.441 42.8701L431.091 45.4701V51.2701H433.751V45.4701L432.441 42.8701ZM432.441 70.0701L433.751 67.4701V59.7701H431.091V67.4701L432.441 70.0701Z" fill="white"/>
<path d="M490.46 78.4201L493.21 77.0201V89.0801L490.46 87.6801H450L447.25 89.0801V77.0001L450 78.4001L490.46 78.4201ZM448.46 57.5701C448.46 47.4201 457.66 42.5701 470.21 42.5701C482.76 42.5701 491.97 47.4701 491.97 57.5701C491.97 67.6701 482.76 72.6201 470.21 72.6201C457.66 72.6201 448.45 67.7201 448.45 57.5701H448.46ZM459.21 57.5701C459.21 61.5701 464.16 63.5701 470.21 63.5701C476.26 63.5701 481.21 61.5701 481.21 57.5701C481.21 53.5701 476.21 51.5701 470.21 51.5701C464.21 51.5701 459.2 53.5201 459.2 57.5701H459.21Z" fill="white"/>
<path d="M540.46 78.6701L543.21 77.2701V89.0801L540.46 87.6801H500L497.25 89.0801V77.2701L500 78.6701H514.7V75.1701H508.8L507.05 76.7701L497.8 72.8801L499 71.0001V59.3201L497.85 57.4201L507.1 53.5201L508.85 55.1201H530.5V52.2201H501.7L499 53.6201V42.0701L501.75 43.4701H531.65L533.4 41.8701L542.66 45.7701L541.51 47.6701V59.1701L542.66 61.0701L533.35 65.0001L531.6 63.4001H510V66.4501H538.76L541.51 65.0501V76.5801L538.76 75.1701H525.76V78.6701H540.46Z" fill="white"/>
<path d="M602.999 60.5701L605.749 59.1701V70.0001L602.999 68.5701H562.449L559.699 70.0001V59.1701L562.449 60.5701H574.199V55.5701L572.799 52.8201H586.599L585.199 55.5701V60.5701H602.999ZM604.749 80.0801C604.749 88.9801 592.839 90.3301 582.749 90.3301C572.659 90.3301 560.749 88.9801 560.749 80.0801C560.749 71.1801 572.649 69.8201 582.749 69.8201C592.849 69.8201 604.709 71.1701 604.709 80.0801H604.749ZM592.999 50.7201H564.499L561.749 52.1201V41.3201L564.499 42.7201H594.099L595.849 41.1201L605.109 45.0201L603.999 46.9201V59.0701H592.999V50.7201ZM593.749 80.0801C593.749 77.7201 587.899 77.5801 582.749 77.5801C577.599 77.5801 571.749 77.7201 571.749 80.0801C571.749 82.4401 577.599 82.5801 582.749 82.5801C587.899 82.5801 593.699 82.4201 593.699 80.0801H593.749Z" fill="white"/>
<path d="M652.999 69L655.749 67.6V79.6L652.999 78.27H647.299V86.43L648.709 89.18H634.899L636.299 86.43V78.27H629.099V86.43L630.499 89.18H616.699L618.099 86.43V78.27H612.449L609.699 79.67V67.67L612.449 69.07L652.999 69ZM610.999 54.8C610.999 46.5 620.199 42.5 632.749 42.5C645.299 42.5 654.509 46.5 654.509 54.8C654.509 63.1 645.299 67.1 632.749 67.1C620.199 67.1 610.999 63.12 610.999 54.82V54.8ZM621.749 54.8C621.749 57 626.699 58.1 632.749 58.1C638.799 58.1 643.749 57 643.749 54.8C643.749 52.6 638.749 51.5 632.749 51.5C626.749 51.5 621.699 52.62 621.699 54.82L621.749 54.8Z" fill="white"/>
<path d="M679.349 47.22H686.249L688.999 45.82V57.37L686.249 56H661.449L658.699 57.4V45.82L661.449 47.22H668.349V45L666.999 42.22H680.799L679.349 45V47.22ZM688.149 73.07C688.149 82.58 683.199 88.93 673.849 88.93C664.499 88.93 659.549 82.58 659.549 73.07C659.549 63.56 664.549 57.22 673.849 57.22C683.149 57.22 688.149 63.57 688.149 73.07ZM677.899 73.07C677.899 69.32 676.649 66.47 673.899 66.47C671.149 66.47 669.849 69.32 669.849 73.07C669.849 76.82 671.099 79.67 673.899 79.67C676.699 79.67 677.899 76.83 677.899 73.07ZM705.459 61.22L708.209 59.82V71.87L705.459 70.47H701.999V86.47L703.409 89.22H689.599L690.999 86.47V45.47L689.599 42.72H703.409L701.999 45.47V61.22H705.459Z" fill="white"/>
<path d="M738.9 87.6799H725.1L726.5 84.9199V52.7199H712.7L710 54.1199V42.1199L712.75 43.5199H727.7L729.45 41.9199L738.7 46.5699L737.55 48.4699V84.9699L738.9 87.6799ZM755 45.4699V86.4699L756.4 89.2199H742.55L743.95 86.4699V45.4699L742.55 42.7199H756.36L755 45.4699Z" fill="white"/>
</g>
<defs>
<linearGradient id="paint0_linear_104_4260" x1="207.1" y1="337.1" x2="747.3" y2="-203.1" gradientUnits="userSpaceOnUse">
<stop offset="0.02" stop-color="#0E57FF"/>
<stop offset="1" stop-color="#00CBFF"/>
</linearGradient>
<clipPath id="clip0_104_4260">
<rect width="954.4" height="134" fill="white"/>
</clipPath>
</defs>
</svg>
