<svg viewBox="0 0 955 134" fill="none" xmlns="http://www.w3.org/2000/svg">
<g clip-path="url(#clip0_104_4031)">
<path d="M952.4 2H2V132H952.4V2Z" fill="url(#paint0_linear_104_4031)"/>
<path d="M954.4 134H0V0H954.4V134ZM4 130H950.4V4H4V130Z" fill="white"/>
<path d="M130 53.82C130 47.02 136.05 42.47 144.6 42.47C153.15 42.47 159.2 47 159.2 53.82C159.2 60.32 153.2 64.67 144.6 64.67C136 64.67 130 60.32 130 53.82ZM176.41 68.52L175.25 70.42V76.42L176.41 78.31L172.85 80.87H143.85V82.46H172.55L175.25 81V90.55L172.5 89.15H142.65L140.9 90.75L131.65 86.85L132.8 85V78.77L131.65 76.88L135.2 74.32H164.25V72.72H135L132.8 73.72V65L135 66H172.85L176.41 68.52ZM140 53.82C140 55.82 142.05 57.17 144.6 57.17C147.15 57.17 149.2 55.82 149.2 53.82C149.2 51.82 147.2 50.47 144.6 50.47C142 50.47 140 51.82 140 53.82ZM175.25 45.47V62L176.66 64.75H162.85L164.25 62V45.47L162.85 42.72H176.66L175.25 45.47Z" fill="white"/>
<path d="M201.8 77.52L212.75 76.67V85.67L182.7 88L180 89.38V77.62L182.7 79L190.8 78.41V75.22C185.55 73.92 182.4 70.57 182.4 65.52C182.4 58.92 187.8 55.22 196.25 55.22C204.7 55.22 210.1 58.92 210.1 65.52C210.1 70.52 207 73.88 201.8 75.17V77.52ZM209 54.42H183.5L180.75 55.82V44.52L183.5 45.92H190.75V45L189.35 42.25H203.15L201.75 45V46H209L211.75 44.6V55.9L209 54.42ZM192.65 65.52C192.65 67.02 194.1 68.07 196.25 68.07C198.4 68.07 199.85 67.07 199.85 65.52C199.85 63.97 198.4 63 196.25 63C194.1 63 192.65 64 192.65 65.52ZM225.3 86.43L226.71 89.18H212.9L214.25 86.53V45.47L212.85 42.72H226.66L225.25 45.47V86.47L225.3 86.43Z" fill="white"/>
<path d="M273.25 62.3201L276 60.9201V71.2201L273.25 69.8201H232.75L230 71.2201V60.9201L232.75 62.3201H238.05V58.6701C233.9 57.3201 231 55.0001 231 51.0001C231 42.8501 242.9 41.6001 253 41.6001C263.1 41.6001 275 42.8501 275 51.0001C275 55.0001 272.1 57.3501 268 58.7001V62.3501L273.25 62.3201ZM275 80.8301C275 89.0801 263.1 90.3301 253 90.3301C242.9 90.3301 231 89.0801 231 80.8301C231 72.5801 242.9 71.3201 253 71.3201C263.1 71.3201 275 72.5701 275 80.8301ZM242 51.0001C242 53.0001 247.85 53.1501 253 53.1501C258.15 53.1501 264 53.0001 264 51.0001C264 49.0001 258.15 48.8501 253 48.8501C247.85 48.8501 242 49.0001 242 51.0001ZM264 80.8601C264 78.7501 258.15 78.6101 253 78.6101C247.85 78.6101 242 78.7501 242 80.8601C242 82.9701 247.85 83.1101 253 83.1101C258.15 83.1101 264 82.9201 264 80.8301V80.8601ZM248.55 62.3201H257.45V60.3201C255.95 60.3201 254.45 60.4201 253 60.4201C251.55 60.4201 250.05 60.4201 248.55 60.3201V62.3201Z" fill="white"/>
<path d="M323.25 63.3201L326 61.9201V71.7201L323.25 70.3201H308.5V72.8201H321.85L325.41 75.3801L324.25 77.2701V85.0001L325.41 86.9001L316.15 90.8001L314.4 89.2001H291.6L289.85 90.8001L280.6 86.9001L281.75 85.0001V77.2701L280.6 75.3801L284.15 72.8201H297.5V70.3201H282.75L280 71.7201V61.9201L282.75 63.3201H323.25ZM321.5 61.3201H284.5L281.75 62.7201V52.9201L284.5 54.3201H289.05L288.4 49.7201H284.5L281.75 51.1201V41.3201L284.5 42.7201H321.5L324.25 41.3201V51.1201L321.5 49.7201H317.6L316.95 54.3201H321.5L324.25 52.9201V62.7201L321.5 61.3201ZM313.25 82.4201V79.5801H292.75V82.4201H313.25ZM299.35 49.7201L299.95 54.3201H306.05L306.65 49.7201H299.35Z" fill="white"/>
<path d="M333.2 90.8799H328L344.8 40.8799H350L333.2 90.8799Z" fill="white"/>
<path d="M395.75 60.8701L397.96 59.8701V68.1201L395.75 67.1201H354.15L351.95 68.1201V59.8701L354.15 60.8701H395.75ZM397.35 71.5201L396.21 73.4201V77.4201L397.35 79.3201L393.8 81.8701H364.7V83.2101H393.7L396.46 81.8201V90.6201L393.7 89.2201H363.55L361.8 90.8201L352.55 86.9201L353.7 85.0001V80.8001L352.55 78.9001L356.1 76.3501H385.2V75.0001H355.9L353.7 76.0001V68.0001L355.9 69.0001H393.8L397.35 71.5201ZM393.45 58.8201H356.45L353.7 60.0001V51.2001L356.45 52.3501H360.85L360.45 49.2501H356.45L353.7 50.4001V41.6001L356.45 42.7501H393.45L396.21 41.6001V50.4001L393.45 49.2501H389.45L389.05 52.3501H393.45L396.21 51.2001V60.0001L393.45 58.8201ZM371.35 49.2201L371.75 52.3201H378.15L378.55 49.2201H371.35Z" fill="white"/>
<path d="M431.4 66.6699L422.15 71.3199L420.4 69.7199H413.7V78.4199H427.5L430.25 77.0199V89.0799L427.5 87.6799H412.55L410.8 89.2799L401.55 84.6199L402.7 82.7299V65.4199L401.55 63.5199L410.8 58.8699L412.55 60.4699H419.25V52.7199H405.45L402.7 54.1199V42.1199L405.45 43.5199H420.4L422.15 41.9199L431.4 46.5699L430.25 48.4699V64.7699L431.4 66.6699ZM447.71 60.4699L450.46 59.0699V71.1199L447.71 69.7199H444.25V86.4299L445.65 89.1799H431.85L433.25 86.4299V45.4299L431.85 42.6799H445.65L444.25 45.4299V60.4299L447.71 60.4699Z" fill="white"/>
<path d="M459.25 76.07L451.5 66.42L454.25 65.92C460.584 62.0829 465.82 56.6749 469.45 50.22V46.22L468.05 43.47H481.85L480.45 46.22V50.22C484.08 56.6749 489.316 62.0829 495.65 65.92L498.4 66.42L490.65 76.07L489.35 73.32C482.55 68.97 477.3 63.62 474.95 59.32C472.6 63.62 467.35 68.97 460.55 73.32L459.25 76.07ZM454.7 78.42H495.2L498 77V89.08L495.24 87.68H454.7L452 89.08V77L454.7 78.42Z" fill="white"/>
<path d="M501.55 67.9201L502.7 66.0001V47.9201L502.1 45.5201L511.35 41.8701L513.05 43.4701H529.1L531.85 42.0701V52.6201L529.1 51.2201H513.7V53.3201H531.6V60.5701H513.7V62.7201H529.2L531.85 61.3701V71.8701L529.1 70.4701H505.1L501.55 67.9201ZM547.21 76.9201V86.3801L548.61 89.1301H534.8L536.2 86.3801V81.2801H507L504.25 82.6701V71.1201L507 72.5201H544.8L548.36 75.0701L547.21 76.9201ZM547.21 45.4201V68.4201L548.61 71.1701H534.8L536.2 68.4201V45.4201L534.8 42.6701H548.61L547.21 45.4201Z" fill="white"/>
<path d="M610.21 60.22L612.96 58.82V70.87L610.21 69.47H606.75V86.47L608.16 89.22H594.35L595.75 86.47V81.92L586.5 88.58L586 85.48C583.25 80.97 580.55 75.97 579.3 72.07C578.05 75.97 575.35 80.97 572.6 85.48L572.1 88.58L562.1 81.38L564.2 80.62C568.035 74.3122 571.25 67.6478 573.8 60.72V46.12L572.3 43.47H586.3L584.8 46.12V60.72C587.349 67.6478 590.565 74.3122 594.4 80.62L595.75 81.12V45.47L594.35 42.72H608.16L606.75 45.47V60.22H610.21Z" fill="white"/>
<path d="M657.71 62.3201L660.46 60.9201V71.2201L657.71 69.8201H617.2L614.45 71.2201V60.9201L617.2 62.3201H622.5V58.6701C618.35 57.3201 615.5 54.9701 615.5 50.9701C615.5 42.8201 627.4 41.5701 637.5 41.5701C647.6 41.5701 659.5 42.8201 659.5 50.9701C659.5 54.9701 656.59 57.3201 652.44 58.6701V62.3201H657.71ZM659.46 80.8301C659.46 89.0801 647.55 90.3301 637.46 90.3301C627.37 90.3301 615.46 89.0801 615.46 80.8301C615.46 72.5801 627.36 71.3201 637.46 71.3201C647.56 71.3201 659.46 72.5701 659.46 80.8301ZM626.45 51.0001C626.45 53.0001 632.3 53.1501 637.45 53.1501C642.6 53.1501 648.45 53.0001 648.45 51.0001C648.45 49.0001 642.6 48.8501 637.45 48.8501C632.3 48.8501 626.45 49.0001 626.45 51.0001ZM648.45 80.8601C648.45 78.7501 642.6 78.6101 637.45 78.6101C632.3 78.6101 626.45 78.7501 626.45 80.8601C626.45 82.9701 632.3 83.1101 637.45 83.1101C642.6 83.1101 648.45 82.9201 648.45 80.8301V80.8601ZM633 62.3201H641.9V60.3201C640.4 60.3201 638.9 60.4201 637.45 60.4201C636 60.4201 634.45 60.4201 633 60.3201V62.3201Z" fill="white"/>
<path d="M720.75 67.1701H705.45V69.4701H718.8L722.36 72.0001L721.21 73.9001V77.6001L722.36 79.5101L718.8 82.0601H689.7V83.1501H718.7L721.45 81.7601V90.5601L718.7 89.1601H688.55L686.8 90.7601L677.55 86.8601L678.7 85.0001V81.0001L677.55 79.0901L681.1 76.5501H710.2V75.4701H680.9L678.7 76.4701V68.4701L680.9 69.4701H694.45V67.1701H679.15L676.95 68.1701V59.4201L679.15 60.4201H679.5L677.35 52.2701L680.15 52.5201C685.021 52.0734 689.821 51.0496 694.45 49.4701H681.7L679 50.8701V41.3201L681.75 42.7201H718.26L721.01 41.3201V50.8701L718.26 49.4701H705.45C710.171 51.027 715.051 52.05 720 52.5201L722.75 52.2701L720.45 60.4201H720.79L723 59.4201V68.1701L720.75 67.1701ZM680.55 60.4201H719.55L718.3 59.4201C711.5 58.3701 704.55 56.9701 700 55.0701C695.5 57.0701 688.55 58.4701 681.8 59.5201L680.55 60.4201Z" fill="white"/>
<path d="M757.55 65.6699C757.55 78.8799 754 88.6699 742.3 88.6699C730.6 88.6699 727.05 78.8699 727.05 65.6699C727.05 52.4699 730.6 42.6699 742.3 42.6699C754 42.6699 757.55 52.4699 757.55 65.6699ZM747.05 65.6699C747.05 59.1699 746.35 52.4199 742.3 52.4199C738.25 52.4199 737.55 59.1699 737.55 65.6699C737.55 72.1699 738.25 78.9199 742.3 78.9199C746.35 78.9199 747.05 72.1699 747.05 65.6699ZM772.21 45.4699V86.4699L773.61 89.2199H759.8L761.2 86.4699V45.4699L759.8 42.7199H773.61L772.21 45.4699Z" fill="white"/>
<path d="M806.15 87.6799H792.35L793.75 84.9199V52.7199H780L777.25 54.1199V42.1199L780 43.5199H794.9L796.65 41.9199L805.9 46.5699L804.75 48.4699V84.9699L806.15 87.6799ZM822.21 45.4699V86.4699L823.61 89.2199H809.8L811.2 86.4699V45.4699L809.8 42.7199H823.61L822.21 45.4699Z" fill="white"/>
</g>
<defs>
<linearGradient id="paint0_linear_104_4031" x1="207.1" y1="337.1" x2="747.3" y2="-203.1" gradientUnits="userSpaceOnUse">
<stop stop-color="#009AFA"/>
<stop offset="0.98" stop-color="#29ECFF"/>
</linearGradient>
<clipPath id="clip0_104_4031">
<rect width="100%" height="100%" fill="white"/>
</clipPath>
</defs>
</svg>
