<svg viewBox="0 0 953 133" fill="none" xmlns="http://www.w3.org/2000/svg">
<g clip-path="url(#clip0_104_3938)">
<path d="M951.45 1.05005H1.0498V131.05H951.45V1.05005Z" fill="url(#paint0_linear_104_3938)"/>
<path d="M952.5 132.1H0V0H952.5V132.1ZM2.1 130H950.4V2.1H2.1V130Z" fill="#0B3260"/>
<path d="M129.05 54.87C129.05 48.07 135.05 43.52 143.65 43.52C152.25 43.52 158.25 48.07 158.25 54.87C158.25 61.37 152.2 65.72 143.65 65.72C135.1 65.72 129.05 61.37 129.05 54.87ZM175.45 69.57L174.3 71.47V77.47L175.45 79.37L171.9 81.92H142.85V83.52H171.55L174.3 82.12V91.67L171.55 90.27H141.7L140 91.82L130.75 87.92L131.9 86.02V79.82L130.75 77.92L134.3 75.37H163.3V73.77H134.05L131.85 74.77V66L134.05 67H171.9L175.45 69.57ZM139.05 54.87C139.05 56.87 141.05 58.22 143.65 58.22C146.25 58.22 148.25 56.87 148.25 54.87C148.25 52.87 146.2 51.52 143.65 51.52C141.1 51.52 139.05 52.87 139.05 54.87ZM174.3 46.52V63L175.7 65.75H161.9L163.3 63V46.52L161.9 43.77H175.7L174.3 46.52Z" fill="#416CB7"/>
<path d="M200.85 78.57L211.85 77.72V86.72L181.75 89L179 90.42V78.67L181.75 80L189.85 79.4V76.27C184.6 74.97 181.45 71.62 181.45 66.57C181.45 59.97 186.85 56.27 195.3 56.27C203.75 56.27 209.15 59.97 209.15 66.57C209.15 71.57 206.05 74.92 200.85 76.22V78.57ZM208.05 55.47H182.55L179.8 56.87V45.57L182.55 46.97H189.8V46L188.4 43.25H202.2L200.8 46V47H208.05L210.8 45.6V56.9L208.05 55.47ZM191.7 66.57C191.7 68.07 193.15 69.12 195.3 69.12C197.45 69.12 198.9 68.07 198.9 66.57C198.9 65.07 197.45 64 195.3 64C193.15 64 191.7 65.07 191.7 66.57ZM224.35 87.47L225.75 90.22H212L213.35 87.57V46.57L211.95 43.82H225.75L224.35 46.57V87.47Z" fill="#416CB7"/>
<path d="M272.3 63.3701L275.05 61.9701V72.2701L272.3 70.8701H231.8L229.05 72.2701V62.0001L231.8 63.4001H237.1V59.7201C232.95 58.3701 230.1 56.0201 230.1 52.0201C230.1 43.8701 242 42.6201 252.1 42.6201C262.2 42.6201 274.1 43.8701 274.1 52.0201C274.1 56.0201 271.2 58.3701 267.05 59.7201V63.3701H272.3ZM274.05 81.8701C274.05 90.1201 262.15 91.3701 252.05 91.3701C241.95 91.3701 230.05 90.1201 230.05 81.8701C230.05 73.6201 241.95 72.3701 252.05 72.3701C262.15 72.3701 274.05 73.6201 274.05 81.8701ZM241.05 52.0001C241.05 54.0001 246.9 54.1501 252.05 54.1501C257.2 54.1501 263.05 54.0001 263.05 52.0001C263.05 50.0001 257.2 49.8501 252.05 49.8501C246.9 49.8501 241.05 50.0001 241.05 52.0001ZM263.05 81.8501C263.05 79.7501 257.2 79.6001 252.05 79.6001C246.9 79.6001 241.05 79.7501 241.05 81.8501C241.05 83.9501 246.9 84.1001 252.05 84.1001C257.2 84.1001 263.05 84.0001 263.05 81.8701V81.8501ZM247.6 63.3701H256.5V61.3701C255 61.3701 253.5 61.4701 252.05 61.4701C250.6 61.4701 249.05 61.4201 247.6 61.3701V63.3701Z" fill="#416CB7"/>
<path d="M322.3 64.3699L325.05 62.9699V72.7699L322.3 71.3699H307.55V73.8699H320.9L324.45 76.4199L323.3 78.3199V85.9999L324.45 87.8999L315.2 91.7999L313.45 90.1999H290.65L288.9 91.7999L279.65 87.8999L280.8 85.9999V78.2999L279.65 76.3999L283.2 73.8499H296.55V71.3499H281.8L279.05 72.7499V62.9999L281.8 64.3999L322.3 64.3699ZM320.55 62.3699H283.55L280.8 63.7699V53.9999L283.55 55.3999H288.1L287.45 50.7999H283.55L280.8 52.1999V42.3999L283.55 43.7999H320.55L323.3 42.3999V52.1999L320.55 50.7999H316.65L316 55.3999H320.55L323.3 53.9999V63.7999L320.55 62.3699ZM312.3 83.4699V80.6199H291.8V83.4699H312.3ZM298.4 50.7699L299 55.3699H305.1L305.7 50.7699H298.4Z" fill="#416CB7"/>
<path d="M332.25 91.9199H327.05L343.85 41.9199H349L332.25 91.9199Z" fill="#416CB7"/>
<path d="M394.8 61.9201L397 60.9201V69.1701L394.8 68.1701H353.2L351 69.1701V60.9201L353.2 61.9201H394.8ZM396.4 72.5701L395.25 74.4701V78.4701L396.4 80.3701L392.85 82.9201H363.75V84.2701H392.75L395.5 82.8701V91.6701L392.75 90.2701H362.6L360.85 91.8701L351.6 87.9701L352.75 86.0701V81.8701L351.6 79.9701L355.15 77.4201H384.25V76.0001H355L352.8 77.0001V69.0001L355 70.0001H392.9L396.4 72.5701ZM392.5 59.8701H355.5L352.75 61.0001V52.2001L355.5 53.3501H359.9L359.5 50.2501H355.5L352.75 51.4001V42.6001L355.5 43.7501H392.5L395.25 42.6001V51.4001L392.5 50.2501H388.5L388.1 53.3501H392.5L395.25 52.2001V61.0001L392.5 59.8701ZM370.4 50.2701L370.8 53.3701H377.2L377.6 50.2701H370.4Z" fill="#416CB7"/>
<path d="M430.45 67.7199L421.2 72.3699L419.45 70.7699H412.75V79.4699H426.55L429.3 78.0699V90.1199L426.55 88.7199H411.6L409.85 90.3199L400.6 85.6699L401.75 83.7699V66.4699L400.6 64.5699L409.85 59.9199L411.6 61.5199H418.3V53.7699H404.5L401.75 55.1699V43.1199L404.5 44.5199H419.45L421.2 42.9199L430.45 47.5699L429.3 49.4699V65.8199L430.45 67.7199ZM446.75 61.5199L449.5 60.1199V72.1699L446.75 70.7699H443.3V87.4699L444.7 90.2199H430.9L432.3 87.4699V46.5199L430.9 43.7699H444.7L443.3 46.5199V61.5199H446.75Z" fill="#416CB7"/>
<path d="M458.3 77.12L450.55 67.47L453.3 66.97C459.634 63.1329 464.87 57.7249 468.5 51.27V47.27L467.1 44.52H480.9L479.5 47.27V51.27C483.126 57.7359 488.362 63.1546 494.7 67L497.45 67.5L489.7 77.15L488.4 74.4C481.6 70.05 476.4 64.7 474 60.4C471.65 64.7 466.4 70.05 459.6 74.4L458.3 77.12ZM453.75 79.47H494.25L497 78.07V90.12L494.25 88.72H453.75L451 90.12V78.07L453.75 79.47Z" fill="#416CB7"/>
<path d="M500.6 69L501.75 67.0999V49L501.15 46.5999L510.4 42.95L512.1 44.5499H528.1L530.85 43.15V53.6699L528.1 52.27H512.7V54.3699H530.6V61.6199H512.7V63.77H528.2L530.85 62.4199V72.9199L528.1 71.5199H504.1L500.6 69ZM546.25 78V87.4499L547.65 90.1999H533.85L535.25 87.4499V82.32H506.05L503.3 83.72V72.1699L506.05 73.57H543.85L547.4 76.12L546.25 78ZM546.25 46.5V69.5L547.65 72.25H533.85L535.25 69.5V46.5L533.85 43.75H547.65L546.25 46.5Z" fill="#416CB7"/>
<path d="M609.25 61.27L612 59.87V71.92L609.25 70.52H605.8V87.52L607.2 90.27H593.4L594.8 87.52V83L585.55 89.65L585.05 86.55C582.3 82.05 579.6 77.05 578.35 73.15C577.1 77.05 574.35 82.05 571.65 86.55L571.15 89.65L561.15 82.45L563.25 81.7C567.085 75.3923 570.3 68.7278 572.85 61.8V47.17L571.35 44.52H585.35L583.85 47.17V61.77C586.4 68.6978 589.615 75.3623 593.45 81.67L594.8 82.17V46.52L593.4 43.77H607.2L605.8 46.52V61.27H609.25Z" fill="#416CB7"/>
<path d="M656.75 63.3701L659.5 62.0001V72.3001L656.75 70.9001H616.25L613.5 72.3001V62.0001L616.25 63.4001H621.55V59.7201C617.4 58.3701 614.55 56.0201 614.55 52.0201C614.55 43.8701 626.45 42.6201 636.55 42.6201C646.65 42.6201 658.55 43.8701 658.55 52.0201C658.55 56.0201 655.65 58.3701 651.55 59.7201V63.3701H656.75ZM658.5 81.8701C658.5 90.1201 646.6 91.3701 636.5 91.3701C626.4 91.3701 614.5 90.1201 614.5 81.8701C614.5 73.6201 626.4 72.3701 636.5 72.3701C646.6 72.3701 658.5 73.6201 658.5 81.8701ZM625.5 52.0001C625.5 54.0001 631.35 54.1501 636.5 54.1501C641.65 54.1501 647.5 54.0001 647.5 52.0001C647.5 50.0001 641.65 49.8501 636.5 49.8501C631.35 49.8501 625.5 50.0001 625.5 52.0001ZM647.5 81.8501C647.5 79.7501 641.65 79.6001 636.5 79.6001C631.35 79.6001 625.5 79.7501 625.5 81.8501C625.5 83.9501 631.35 84.1001 636.5 84.1001C641.65 84.1001 647.5 84.0001 647.5 81.8701V81.8501ZM632.05 63.3501H641V61.3501C639.5 61.3501 638 61.4501 636.55 61.4501C635.1 61.4501 633.55 61.4001 632.1 61.3501L632.05 63.3501Z" fill="#416CB7"/>
<path d="M719.8 68.2201H704.5V70.5201H717.85L721.4 73.0701L720.25 75.0001V78.7001L721.4 80.6001L717.85 83.1501H688.75V84.2501H717.75L720.5 82.8501V91.6501L717.75 90.2501H687.6L685.85 91.8501L676.6 87.9501L677.75 86.0501V82.0501L676.6 80.1501L680.15 77.6001H709.25V76.5001H680L677.8 77.5001V69.5001L680 70.5001H693.5V68.2001H678.2L676 69.2001V60.4701L678.2 61.4701H678.55L676.4 53.3201L679.2 53.5701C684.069 53.1397 688.869 52.1326 693.5 50.5701H680.75L678 51.9201V42.3701L680.75 43.7701H717.25L720 42.3701V51.9201L717.25 50.5201H704.5C709.207 52.0562 714.07 53.0624 719 53.5201L721.75 53.2701L719.45 61.4201H719.8L722 60.4201V69.1701L719.8 68.2201ZM679.6 61.4701H718.55L717.3 60.4701C710.5 59.4701 703.55 58.0201 699 56.1201C694.5 58.1201 687.55 59.5201 680.8 60.5701L679.6 61.4701Z" fill="#416CB7"/>
<path d="M756.6 66.72C756.6 79.92 753.05 89.72 741.35 89.72C729.65 89.72 726.1 79.92 726.1 66.72C726.1 53.52 729.65 43.72 741.35 43.72C753.05 43.72 756.6 53.52 756.6 66.72ZM746.1 66.72C746.1 60.22 745.4 53.47 741.35 53.47C737.3 53.47 736.6 60.22 736.6 66.72C736.6 73.22 737.3 80 741.35 80C745.4 80 746.1 73.22 746.1 66.72ZM771.25 46.52V87.47L772.65 90.22H758.85L760.25 87.47V46.52L758.85 43.77H772.65L771.25 46.52Z" fill="#416CB7"/>
<path d="M805.2 88.7199H791.4L792.8 85.9999V53.7699H779L776.25 55.1699V43.1199L779 44.5199H794L795.75 42.9199L805 47.5699L803.85 49.4699V85.9999L805.2 88.7199ZM821.2 46.5199V87.4699L822.6 90.2199H808.8L810.2 87.4699V46.5199L808.8 43.7699H822.6L821.2 46.5199Z" fill="#416CB7"/>
</g>
<defs>
<linearGradient id="paint0_linear_104_3938" x1="206.15" y1="336.15" x2="746.35" y2="-204.05" gradientUnits="userSpaceOnUse">
<stop stop-color="#183372"/>
<stop offset="1" stop-color="#1850A2"/>
</linearGradient>
<clipPath id="clip0_104_3938">
<rect width="100%" height="100%" fill="white"/>
</clipPath>
</defs>
</svg>
