<svg viewBox="0 0 454 134" fill="none" xmlns="http://www.w3.org/2000/svg">
<g clip-path="url(#clip0_252_3441)">
<path d="M125.93 39.27V51.3198L123.2 49.9399H110.03V75.6399H123.2L125.95 74.24V86.24L123.2 84.8398H108.9L107.15 86.4399L97.9004 81.79L99.0504 79.8899V45.5898L97.9004 43.6899L107.15 39.04L108.9 40.6399H123.2L125.93 39.27ZM143.28 57.4199L146.03 56.02V68.0698L143.28 66.6699H139.83V83.6199L141.23 86.3699H127.43L128.83 83.6199V42.6699L127.43 39.9199H141.2L139.8 42.6699V57.4199H143.28Z" fill="white"/>
<path d="M181.08 78.5698L171.08 85.77L170.58 82.6699C167.58 78.1699 164.73 73.17 163.38 69.27C162.03 73.17 159.13 78.1699 156.18 82.6699L155.68 85.77L145.68 78.5698L147.78 77.8198C151.815 71.5546 155.199 64.8935 157.88 57.9399V43.3398L156.38 40.6899H170.38L168.88 43.3398V57.9399C171.579 64.8913 174.963 71.5572 178.98 77.8398L181.08 78.5698ZM192.78 42.6699V83.6199L194.18 86.3699H180.38L181.78 83.6199V42.6699L180.38 39.9199H194.2L192.78 42.6699Z" fill="white"/>
<path d="M209.63 64.0698L210.78 62.1699V45.1199L210.18 42.72L219.43 39.0698L221.13 40.6699H238.53V62.1699L239.68 64.0698L236.13 66.6199H213.2L209.63 64.0698ZM223.38 77.6199H251.08L253.83 76.22V87.77L251.08 86.3699H222.2L220.45 87.97L211.2 83.3198L212.35 81.4199V71.22L210.95 68.47H224.75L223.35 71.22L223.38 77.6199ZM221.78 49.1699V58.1199H227.53V49.1699H221.78ZM255.78 51.0698L258.53 49.6699V61.22L255.78 59.8198H253.33V70.4199L254.73 73.1699H240.93L242.33 70.4199V42.6699L240.93 39.9199H254.73L253.33 42.6699V51.0698H255.78Z" fill="white"/>
<path d="M303.83 56.8198L306.03 55.8198V64.5698L303.83 63.5698H262.2L260 64.5698V55.8198L262.2 56.8198H303.83ZM261.83 44.1199L260.68 42.22L269.93 38.3198L271.68 39.9199H301.58L304.33 38.52V46.4199H272.83V48.27H304.33V56.1699L301.58 54.77H264.2L260.65 52.22L261.8 50.3198L261.83 44.1199ZM305.43 67.9399L304.28 69.8398V74.29L305.43 76.1899L301.88 78.74H272.78V80.0898H301.78L304.53 78.6899V87.6899L301.78 86.29H271.63L269.88 87.8899L260.63 83.99L261.78 82.0898V77.3899L260.63 75.49L264.18 72.9399H293.28V71.5898H263.98L261.78 72.5898V64.3398L263.98 65.3398H301.88L305.43 67.9399Z" fill="white"/>
<path d="M339.2 84.8699H325.4L326.8 82.1199V49.9399H313L310.25 51.3398V39.29L313 40.6899H327.95L329.7 39.0898L338.95 43.74L337.8 45.6399V82.1399L339.2 84.8699ZM355.25 42.6699V83.6199L356.65 86.3699H342.85L344.25 83.6199V42.6699L342.85 39.9199H356.65L355.25 42.6699Z" fill="white"/>
<path d="M453.56 134H0V0H453.56V134ZM4 130H449.56V4H4V130Z" fill="white"/>
</g>
<defs>
<clipPath id="clip0_252_3441">
<rect width="453.56" height="134" fill="white"/>
</clipPath>
</defs>
</svg>
