<svg viewBox="0 0 462 142" fill="none" xmlns="http://www.w3.org/2000/svg">
<g clip-path="url(#clip0_252_3441)" filter="url(#filter0_d_252_3441)">
<path d="M129.93 39.27V51.3198L127.2 49.9399H114.03V75.6399H127.2L129.95 74.24V86.24L127.2 84.8398H112.9L111.15 86.4399L101.9 81.79L103.05 79.8899V45.5898L101.9 43.6899L111.15 39.04L112.9 40.6399H127.2L129.93 39.27ZM147.28 57.4199L150.03 56.02V68.0698L147.28 66.6699H143.83V83.6199L145.23 86.3699H131.43L132.83 83.6199V42.6699L131.43 39.9199H145.2L143.8 42.6699V57.4199H147.28Z" fill="white"/>
<path d="M185.08 78.5698L175.08 85.77L174.58 82.6699C171.58 78.1699 168.73 73.17 167.38 69.27C166.03 73.17 163.13 78.1699 160.18 82.6699L159.68 85.77L149.68 78.5698L151.78 77.8198C155.815 71.5546 159.199 64.8935 161.88 57.9399V43.3398L160.38 40.6899H174.38L172.88 43.3398V57.9399C175.579 64.8913 178.963 71.5572 182.98 77.8398L185.08 78.5698ZM196.78 42.6699V83.6199L198.18 86.3699H184.38L185.78 83.6199V42.6699L184.38 39.9199H198.2L196.78 42.6699Z" fill="white"/>
<path d="M213.63 64.0698L214.78 62.1699V45.1199L214.18 42.72L223.43 39.0698L225.13 40.6699H242.53V62.1699L243.68 64.0698L240.13 66.6199H217.2L213.63 64.0698ZM227.38 77.6199H255.08L257.83 76.22V87.77L255.08 86.3699H226.2L224.45 87.97L215.2 83.3198L216.35 81.4199V71.22L214.95 68.47H228.75L227.35 71.22L227.38 77.6199ZM225.78 49.1699V58.1199H231.53V49.1699H225.78ZM259.78 51.0698L262.53 49.6699V61.22L259.78 59.8198H257.33V70.4199L258.73 73.1699H244.93L246.33 70.4199V42.6699L244.93 39.9199H258.73L257.33 42.6699V51.0698H259.78Z" fill="white"/>
<path d="M307.83 56.8198L310.03 55.8198V64.5698L307.83 63.5698H266.2L264 64.5698V55.8198L266.2 56.8198H307.83ZM265.83 44.1199L264.68 42.22L273.93 38.3198L275.68 39.9199H305.58L308.33 38.52V46.4199H276.83V48.27H308.33V56.1699L305.58 54.77H268.2L264.65 52.22L265.8 50.3198L265.83 44.1199ZM309.43 67.9399L308.28 69.8398V74.29L309.43 76.1899L305.88 78.74H276.78V80.0898H305.78L308.53 78.6899V87.6899L305.78 86.29H275.63L273.88 87.8899L264.63 83.99L265.78 82.0898V77.3899L264.63 75.49L268.18 72.9399H297.28V71.5898H267.98L265.78 72.5898V64.3398L267.98 65.3398H305.88L309.43 67.9399Z" fill="white"/>
<path d="M343.2 84.8699H329.4L330.8 82.1199V49.9399H317L314.25 51.3398V39.29L317 40.6899H331.95L333.7 39.0898L342.95 43.74L341.8 45.6399V82.1399L343.2 84.8699ZM359.25 42.6699V83.6199L360.65 86.3699H346.85L348.25 83.6199V42.6699L346.85 39.9199H360.65L359.25 42.6699Z" fill="white"/>
<path d="M457.56 134H4V0H457.56V134ZM8 130H453.56V4H8V130Z" fill="white"/>
</g>
<defs>
<filter id="filter0_d_252_3441" x="0" y="0" width="461.56" height="142" filterUnits="userSpaceOnUse" color-interpolation-filters="sRGB">
<feFlood flood-opacity="0" result="BackgroundImageFix"/>
<feColorMatrix in="SourceAlpha" type="matrix" values="0 0 0 0 0 0 0 0 0 0 0 0 0 0 0 0 0 0 127 0" result="hardAlpha"/>
<feOffset dy="4"/>
<feGaussianBlur stdDeviation="2"/>
<feComposite in2="hardAlpha" operator="out"/>
<feColorMatrix type="matrix" values="0 0 0 0 0 0 0 0 0 0 0 0 0 0 0 0 0 0 0.25 0"/>
<feBlend mode="normal" in2="BackgroundImageFix" result="effect1_dropShadow_252_3441"/>
<feBlend mode="normal" in="SourceGraphic" in2="effect1_dropShadow_252_3441" result="shape"/>
</filter>
<clipPath id="clip0_252_3441">
<rect width="453.56" height="134" fill="white" transform="translate(4)"/>
</clipPath>
</defs>
</svg>
