<svg viewBox="0 0 953 133" fill="none" xmlns="http://www.w3.org/2000/svg">
<g clip-path="url(#clip0_104_3921)">
<path d="M951.45 1.05005H1.0498V131.05H951.45V1.05005Z" fill="url(#paint0_linear_104_3921)"/>
<path d="M952.5 132.1H0V0H952.5V132.1ZM2.1 130H950.4V2.1H2.1V130Z" fill="#0B3260"/>
<path d="M214.53 67H199.23V69.3H212.58L216.13 71.8499L215 73.72V78.1699L216.15 80.07L212.6 82.62H183.5V84H212.5L215.25 82.5999V91.65L212.5 90.25H182.33L180.58 91.8499L171.33 87.9499L172.48 86.05V81.3499L171.33 79.4499L174.88 76.9H204V75.5199H174.7L172.5 76.5199V68.2699L174.7 69.2699H188.25V67H172.95L170.75 68V59.22L172.95 60.22H214.55L216.75 59.22V68L214.53 67ZM171.33 56.0999L172.48 54.2V47L171.33 45.0999L180.58 42.2L182.33 43.7999H215V54.2L216.15 56.0999L212.6 58.65H174.9L171.33 56.0999ZM183.48 50.2999V52.15H204V50.27L183.48 50.2999Z" fill="#416CB7"/>
<path d="M219.48 95.72C223.23 94.17 225.08 92.42 225.08 89.22H224.93C222.23 89.22 219.73 87.12 219.73 83.52C219.71 82.7439 219.847 81.9717 220.133 81.25C220.419 80.5282 220.849 79.8719 221.395 79.3206C221.942 78.7693 222.595 78.3344 223.314 78.0421C224.033 77.7498 224.804 77.6063 225.58 77.62C228.83 77.62 231.33 80.02 231.33 83.97C231.33 90.47 227.83 96.83 221.33 98.97L219.48 95.72Z" fill="#416CB7"/>
<path d="M292.08 46.5201V74.2701L293.48 77.0201H279.68L281.08 74.2701V62.7701H274.93V54.0001H275.28L273.83 53.2501H267.58C269.405 57.7048 272.297 61.6433 276 64.7201L278.75 65.2201L270 73.3701L268.7 70.6201C265.856 68.0396 263.59 64.8874 262.05 61.3701C260.509 64.8874 258.243 68.0396 255.4 70.6201L254.1 73.3701L245.35 65.2201L248.1 64.7201C251.811 61.6524 254.712 57.7208 256.55 53.2701H250.3L247.55 54.6701V43.1201L250.3 44.5201H273.8L276.55 43.1201V54.0001H281.05V46.5001L279.65 43.7501H293.45L292.08 46.5201ZM261.13 81.4701H289.83L292.58 80.0701V91.6201L289.83 90.2201H260L258.25 91.8201L249 87.1701L250.15 85.2701V76.5701L248.75 73.8201H262.55L261.15 76.5701L261.13 81.4701Z" fill="#416CB7"/>
<path d="M326 88.7199H312.2L313.6 85.9699V53.7699H299.8L297.05 55.1699V43.1199L299.8 44.5199H314.75L316.5 42.9199L325.75 47.5699L324.6 49.4699V85.9999L326 88.7199ZM342.05 46.5199V87.4699L343.45 90.2199H329.65L331.05 87.4699V46.5199L329.65 43.7699H343.45L342.05 46.5199Z" fill="#416CB7"/>
<path d="M402.58 63.1199L405.33 61.72V72L402.58 70.5999H362.08L359.33 72V61.72L362.08 63.1199H402.58ZM361.08 48L359.93 46.0999L369.18 42.2L370.93 43.7999H400.83L403.58 42.4V51H372.08V53.5999H403.58V62.25L400.83 60.8499H363.48L359.93 58.2999L361.08 56.4V48ZM404.33 81.9C404.33 90.15 392.43 91.4 382.33 91.4C372.23 91.4 360.33 90.15 360.33 81.9C360.33 73.65 372.23 72.4 382.33 72.4C392.43 72.4 404.33 73.62 404.33 81.87V81.9ZM393.33 81.9C393.33 79.8 387.48 79.65 382.33 79.65C377.18 79.65 371.33 79.8 371.33 81.9C371.33 84 377.18 84.15 382.33 84.15C387.48 84.15 393.33 84 393.33 81.87V81.9Z" fill="#416CB7"/>
<path d="M467.83 46.52V87.47L469.23 90.22H445.18L446.58 87.47V70.47H443.68C443.28 80.67 441.08 89.77 432.38 89.77C422.63 89.77 421.03 78.37 421.03 66.77C421.03 55.17 422.63 43.77 432.38 43.77C440.63 43.77 443.03 51.92 443.58 61.47H446.58V46.52L445.18 43.77H469.23L467.83 46.52ZM435 66.72C435 60.72 434.85 53.22 432.4 53.22C429.95 53.22 429.8 60.72 429.8 66.72C429.8 72.72 429.95 80.22 432.4 80.22C434.85 80.22 435 72.72 435 66.72ZM457.25 89.72L458.35 87.52V46.52L457.25 44.32L456.1 46.52V87.47L457.25 89.72Z" fill="#416CB7"/>
<path d="M484.83 79.47H499.08L501.73 78.12V90.12L499 88.77H483.7L481.95 90.37L472.7 85.72L473.85 83.82V47.27L472.45 44.52H486.25L484.85 47.27L484.83 79.47ZM517.08 46.52V87.47L518.48 90.22H504.68L506.08 87.47V69H494.63L491.88 70.4V58.37L494.63 59.77H506.08V46.52L504.68 43.77H518.48L517.08 46.52Z" fill="#416CB7"/>
<path d="M555.38 82.4201L545.38 89.6201L544.88 86.5201C541.88 82.0201 539.03 77.0201 537.68 73.1201C536.33 77.0201 533.43 82.0201 530.48 86.5201L529.98 89.6201L519.98 82.4201L522.081 81.6701C526.117 75.3986 529.501 68.7305 532.18 61.7701V53.7701H525.93L523.18 55.1701V43.1201L525.93 44.5201H549.43L552.18 43.1201V55.1701L549.43 53.7701H543.18V61.7701C545.88 68.7215 549.263 75.3875 553.281 81.6701L555.38 82.4201ZM567.081 46.5201V87.4701L568.48 90.2201H554.68L556.081 87.4701V46.5201L554.68 43.7701H568.48L567.081 46.5201Z" fill="#416CB7"/>
<path d="M629.58 46.5201V63.5201L630.98 66.2701H617.18L618.58 63.5201V57.1201H612.43V53.1201L611.33 52.5701H605.08C607.447 54.9462 610.342 56.7282 613.53 57.7701L616.28 58.0201L610 67.1201L608.7 64.8701C605.2 63.2201 601.5 60.8701 599.55 58.3701C597.55 60.9201 593.9 63.2201 590.4 64.8701L589.1 67.1201L582.88 58.0001L585.62 57.7501C588.812 56.7107 591.711 54.9285 594.08 52.5501H587.83L585.08 53.9501V43.1201L587.83 44.5201H611.33L614.08 43.1201V49.1201H618.58V46.5201L617.18 43.7701H631L629.58 46.5201ZM630.73 70.0701L629.58 72.0001V77.7001L630.73 79.6001L627.18 82.1501H598.18V83.5001H626.88L629.63 82.1001V91.6501L626.88 90.2501H597L595.25 91.8501L586 87.9201L587.14 86.0201V80.0201L586 78.1701L589.55 75.6201H618.6V74.2701H589.33L587.12 75.2701V66.5201L589.33 67.5201H627.18L630.73 70.0701Z" fill="#416CB7"/>
<path d="M634.33 56.62C634.33 48.77 640.33 43.52 648.93 43.52C657.53 43.52 663.53 48.77 663.53 56.62C663.53 64.47 657.53 69.72 648.93 69.72C640.33 69.72 634.33 64.47 634.33 56.62ZM677.63 76V87.47L679.03 90.22H665.23L666.63 87.47V80.32H639.93L637.18 81.72V70.17L639.93 71.57H675.23L678.78 74.12L677.63 76ZM644.33 56.6C644.33 57.5098 644.6 58.3992 645.105 59.1556C645.611 59.9121 646.329 60.5017 647.17 60.8499C648.01 61.198 648.935 61.2891 649.827 61.1116C650.72 60.9341 651.539 60.496 652.183 59.8527C652.826 59.2094 653.264 58.3897 653.442 57.4974C653.619 56.6051 653.528 55.6802 653.18 54.8397C652.832 53.9991 652.242 53.2807 651.486 52.7753C650.729 52.2698 649.84 52 648.93 52C648.319 51.9819 647.711 52.0892 647.144 52.3152C646.576 52.5412 646.061 52.8812 645.63 53.3141C645.199 53.7471 644.861 54.2638 644.637 54.8324C644.414 55.401 644.309 56.0094 644.33 56.62V56.6ZM682.83 55.45H677.63V57.3H682.83V65.05H677.63V67.55L679.03 70.3H665.23L666.63 67.55V46.55L665.23 43.8H679L677.6 46.55V47.75H682.8L682.83 55.45Z" fill="#416CB7"/>
<path d="M704 48.27H710.9L713.65 46.87V58.42L710.88 57H686.08L683.33 58.4V46.87L686.08 48.27H693V46L691.6 43.25H705.4L704 46V48.27ZM712.8 74.12C712.8 83.62 707.85 89.97 698.5 89.97C689.15 89.97 684.2 83.62 684.2 74.12C684.2 64.62 689.2 58.27 698.5 58.27C707.8 58.27 712.78 64.62 712.78 74.12H712.8ZM702.55 74.12C702.55 70.37 701.3 67.52 698.55 67.52C695.8 67.52 694.5 70.37 694.5 74.12C694.5 77.87 695.75 80.72 698.55 80.72C701.35 80.72 702.53 77.87 702.53 74.12H702.55ZM730.1 62.27L732.85 60.87V72.92L730.1 71.52H726.65V87.52L728.05 90.27H714.25L715.65 87.52V46.52L714.25 43.77H728L726.6 46.52V62.27H730.1Z" fill="#416CB7"/>
<path d="M763.53 88.7199H749.73L751.13 85.9699V53.7699H737.33L734.58 55.1699V43.1199L737.33 44.5199H752.28L754.03 42.9199L763.28 47.5699L762.13 49.4699V85.9999L763.53 88.7199ZM779.58 46.5199V87.4699L780.98 90.2199H767.18L768.58 87.4699V46.5199L767.18 43.7699H781L779.58 46.5199Z" fill="#416CB7"/>
</g>
<defs>
<linearGradient id="paint0_linear_104_3921" x1="206.15" y1="336.15" x2="746.35" y2="-204.05" gradientUnits="userSpaceOnUse">
<stop stop-color="#183372"/>
<stop offset="1" stop-color="#1850A2"/>
</linearGradient>
<clipPath id="clip0_104_3921">
<rect width="100%" height="100%" fill="white"/>
</clipPath>
</defs>
</svg>
