<svg viewBox="0 0 955 134" fill="none" xmlns="http://www.w3.org/2000/svg">
<g clip-path="url(#clip0_104_4014)">
<path d="M952.4 2H2V132H952.4V2Z" fill="url(#paint0_linear_104_4014)"/>
<path d="M954.4 134H0V0H954.4V134ZM4 130H950.4V4H4V130Z" fill="white"/>
<path d="M215.48 65.9201H200.18V68.2201H213.53L217.08 70.7701L215.93 72.6701V77.1201L217.08 79.0201L213.53 81.5801H184.43V82.9201H213.43L216.18 81.5301V90.5301L213.43 89.1301H183.28L181.53 90.7301L172.28 86.8301L173.43 84.9301V80.2301L172.28 78.3301L175.83 75.7701H204.93V74.4701H175.63L173.43 75.4701V67.2201L175.63 68.2201H189.18V65.9201H173.88L171.68 66.9201V58.1701L173.88 59.1701H215.48L217.68 58.1701V66.9201L215.48 65.9201ZM172.28 55.0001L173.43 53.1001V45.9001L172.28 44.0001L181.53 41.1001L183.28 42.7001H215.93V53.1001L217.08 55.0001L213.53 57.5501H175.83L172.28 55.0001ZM184.43 49.2001V51.0501H204.93V49.2201L184.43 49.2001Z" fill="white"/>
<path d="M220.43 94.6799C224.18 93.1299 226.03 91.3799 226.03 88.1799H225.88C223.18 88.1799 220.68 86.0799 220.68 82.4699C220.659 81.6943 220.796 80.9225 221.083 80.2013C221.369 79.4801 221.798 78.8244 222.345 78.2739C222.892 77.7234 223.545 77.2894 224.264 76.9983C224.983 76.7071 225.754 76.5648 226.53 76.58C229.78 76.58 232.28 78.9699 232.28 82.9199C232.28 89.4299 228.78 95.7799 222.33 97.9199L220.43 94.6799Z" fill="white"/>
<path d="M293 45.4701V73.2201L294.4 75.9701H280.6L282 73.2201V61.7201H275.85V53.0001H276.2L274.75 52.2501H268.5C270.356 56.6952 273.274 60.6167 277 63.6701L279.75 64.1701L271 72.3201L269.7 69.5701C266.838 66.9944 264.555 63.8419 263 60.3201C261.459 63.8373 259.193 66.9895 256.35 69.5701L255.05 72.3201L246.3 64.1701L249.05 63.6701C252.761 60.6024 255.663 56.6707 257.5 52.2201H251.25L248.5 53.6201V42.0701L251.25 43.4701H274.75L277.5 42.0701V53.0001H282V45.5001L280.6 42.7501H294.4L293 45.4701ZM262.05 80.4701H290.75L293.5 79.0701V90.5801L290.75 89.1801H260.93L259.18 90.7801L249.93 86.1201L251.08 84.2301V75.5201L249.68 72.7701H263.48L262.08 75.5201L262.05 80.4701Z" fill="white"/>
<path d="M327 87.6799H313.2L314.6 84.9199V52.7199H300.8L298 54.1199V42.1199L300.75 43.5199H315.75L317.5 41.9199L326.75 46.5699L325.6 48.4699V84.9699L327 87.6799ZM343 45.4699V86.4699L344.4 89.2199H330.6L332 86.4699V45.4699L330.6 42.7199H344.4L343 45.4699Z" fill="white"/>
<path d="M403.53 62.0701L406.28 60.6701V71.0001L403.53 69.6001H363L360.28 71.0001V60.6701L363.03 62.0701H403.53ZM362 46.9201L360.88 45.0001L370.13 41.1001L371.88 42.7001H401.78L404.53 41.3001V50.0001H373V52.6001H404.5V61.2501L401.75 59.8501H364.43L360.88 57.3001L362.03 55.4001L362 46.9201ZM405.25 80.8301C405.25 89.0801 393.35 90.3301 383.25 90.3301C373.15 90.3301 361.25 89.0801 361.25 80.8301C361.25 72.5801 373.15 71.3201 383.25 71.3201C393.35 71.3201 405.28 72.5701 405.28 80.8301H405.25ZM394.25 80.8301C394.25 78.7201 388.4 78.5801 383.25 78.5801C378.1 78.5801 372.25 78.7201 372.25 80.8301C372.25 82.9401 378.1 83.0801 383.25 83.0801C388.4 83.0801 394.28 82.9201 394.28 80.8301H394.25Z" fill="white"/>
<path d="M468.78 45.4699V86.4699L470.18 89.2199H446.13L447.53 86.4699V69.3699H444.63C444.23 79.5799 442.03 88.6799 433.33 88.6799C423.58 88.6799 421.98 77.2699 421.98 65.6799C421.98 54.0899 423.58 42.6799 433.33 42.6799C441.58 42.6799 443.98 50.8299 444.53 60.3799H447.53V45.4699L446.13 42.7199H470.18L468.78 45.4699ZM435.93 65.6699C435.93 59.6699 435.78 52.1699 433.33 52.1699C430.88 52.1699 430.73 59.6699 430.73 65.6699C430.73 71.6699 430.88 79.1699 433.33 79.1699C435.78 79.1699 435.93 71.6699 435.93 65.6699ZM458.18 88.6699L459.28 86.4799V45.4799L458.18 43.2799L457 45.4699V86.4699L458.18 88.6699Z" fill="white"/>
<path d="M485.78 78.42H500L502.65 77.08V89.08L499.9 87.68H484.6L482.85 89.28L473.6 84.62L474.75 82.73V46.22L473.35 43.47H487.15L485.75 46.22L485.78 78.42ZM518 45.47V86.47L519.4 89.22H505.6L507 86.47V68H495.58L492.83 69.4V57.32L495.58 58.72H507V45.47L505.6 42.72H519.4L518 45.47Z" fill="white"/>
<path d="M556.33 81.3801L546.33 88.5801L545.83 85.4801C542.83 80.9701 539.98 75.9701 538.63 72.0701C537.28 75.9701 534.38 80.9701 531.43 85.4801L530.93 88.5801L520.93 81.3801L523.03 80.6201C527.066 74.3486 530.45 67.6805 533.13 60.7201V52.7201H526.88L524.13 54.1201V42.1201L526.88 43.5201H550.38L553.13 42.1201V54.1201L550.38 52.7201H544.13V60.7201C546.829 67.6715 550.213 74.3375 554.23 80.6201L556.33 81.3801ZM568 45.4701V86.4701L569.4 89.2201H555.6L557 86.4701V45.4701L555.6 42.7201H569.4L568 45.4701Z" fill="white"/>
<path d="M630.53 45.4701V62.4701L631.93 65.2201H618.13L619.53 62.4701V56.0701H613.38V52.0001L612.28 51.4501H606C608.366 53.8262 611.262 55.6081 614.45 56.6501L617.2 56.9001L611 66.0701L609.7 63.8201C606.2 62.1701 602.5 59.8201 600.55 57.3201C598.6 59.8701 594.9 62.1701 591.4 63.8201L590.1 66.0701L583.85 56.9201L586.6 56.6701C589.787 55.6281 592.683 53.8462 595.05 51.4701H588.8L586 52.8701V42.0701L588.75 43.4701H612.25L615 42.0701V48.0701H619.5V45.4701L618.1 42.7201H631.9L630.53 45.4701ZM631.68 69.0001L630.53 70.9001V76.6001L631.68 78.5001L628.13 81.0601H599.13V82.4001H627.83L630.53 81.0001V90.5501L627.78 89.1501H597.93L596.18 90.7501L586.93 86.8501L588.08 84.9501V79.0001L586.93 77.1001L590.48 74.5501H619.48V73.2201H590.28L588.08 74.2201V65.4701L590.28 66.4701H628.13L631.68 69.0001Z" fill="white"/>
<path d="M635.28 55.57C635.28 47.72 641.33 42.47 649.88 42.47C658.43 42.47 664.48 47.72 664.48 55.57C664.48 63.42 658.43 68.67 649.88 68.67C641.33 68.67 635.28 63.42 635.28 55.57ZM678.58 75V86.43L679.98 89.18H666.18L667.58 86.43V79.28H640.88L638.13 80.67V69.12L640.88 70.52H676.18L679.73 73.07L678.58 75ZM645.28 55.6C645.28 56.5098 645.55 57.3991 646.055 58.1556C646.561 58.9121 647.279 59.5017 648.12 59.8498C648.96 60.198 649.885 60.2891 650.778 60.1116C651.67 59.9341 652.49 59.496 653.133 58.8527C653.776 58.2093 654.214 57.3897 654.392 56.4974C654.569 55.6051 654.478 54.6802 654.13 53.8396C653.782 52.9991 653.192 52.2807 652.436 51.7752C651.679 51.2698 650.79 51 649.88 51C649.274 50.9822 648.67 51.088 648.106 51.311C647.542 51.5339 647.029 51.8694 646.599 52.297C646.168 52.7245 645.83 53.2352 645.603 53.7979C645.376 54.3606 645.266 54.9635 645.28 55.57V55.6ZM683.78 54.45H678.58V56.3H683.78V64H678.58V66.5L679.98 69.25H666.18L667.58 66.5V45.5L666.18 42.75H680L678.6 45.5V46.7H683.8L683.78 54.45Z" fill="white"/>
<path d="M704.93 47.22H711.83L714.58 45.82V57.37L711.83 56H687L684.25 57.4V45.82L687 47.22H693.9V45L692.5 42.25H706.3L704.93 45V47.22ZM713.73 73.07C713.73 82.58 708.73 88.93 699.43 88.93C690.13 88.93 685.13 82.58 685.13 73.07C685.13 63.56 690.13 57.22 699.43 57.22C708.73 57.22 713.73 63.57 713.73 73.07ZM703.48 73.07C703.48 69.32 702.23 66.47 699.43 66.47C696.63 66.47 695.43 69.32 695.43 73.07C695.43 76.82 696.68 79.67 699.43 79.67C702.18 79.67 703.48 76.83 703.48 73.07ZM731 61.22L733.75 59.82V71.87L731 70.47H727.55V86.47L728.95 89.22H715.15L716.55 86.47V45.47L715.15 42.72H729L727.6 45.47V61.22H731Z" fill="white"/>
<path d="M764.48 87.6799H750.68L752.08 84.9199V52.7199H738.28L735.53 54.1199V42.1199L738.28 43.5199H753.28L755.03 41.9199L764.28 46.5699L763.13 48.4699V84.9699L764.48 87.6799ZM780.48 45.4699V86.4699L781.88 89.2199H768.08L769.48 86.4699V45.4699L768.08 42.7199H781.88L780.48 45.4699Z" fill="white"/>
</g>
<defs>
<linearGradient id="paint0_linear_104_4014" x1="207.1" y1="337.1" x2="747.3" y2="-203.1" gradientUnits="userSpaceOnUse">
<stop offset="0.02" stop-color="#0E57FF"/>
<stop offset="1" stop-color="#00CBFF"/>
</linearGradient>
<clipPath id="clip0_104_4014">
<rect width="100%" height="100%" fill="white"/>
</clipPath>
</defs>
</svg>
