<svg viewBox="0 0 955 134" fill="none" xmlns="http://www.w3.org/2000/svg">
<g clip-path="url(#clip0_104_4050)">
<path d="M952.4 2H2V132H952.4V2Z" fill="url(#paint0_linear_104_4050)"/>
<path d="M954.4 134H0V0H954.4V134ZM4 130H950.4V4H4V130Z" fill="white"/>
<path d="M184.05 65.6699C184.05 78.8799 180.5 88.6699 168.8 88.6699C157.1 88.6699 153.55 78.8699 153.55 65.6699C153.55 52.4699 157.1 42.6699 168.8 42.6699C180.5 42.6699 184.05 52.4699 184.05 65.6699ZM173.55 65.6699C173.55 59.1699 172.85 52.4199 168.8 52.4199C164.75 52.4199 164.05 59.1699 164.05 65.6699C164.05 72.1699 164.75 78.9199 168.8 78.9199C172.85 78.9199 173.55 72.1699 173.55 65.6699ZM198.71 45.4699V86.4699L200.11 89.2199H186.3L187.71 86.4699V45.4699L186.3 42.7199H200.11L198.71 45.4699Z" fill="white"/>
<path d="M203.05 66.87L204.2 65V48L203.6 45.5999L212.85 41.95L214.55 43.5499H231.45V65L232.6 66.9L229.05 69.4499H206.6L203.05 66.87ZM217.25 80.4199H246.46L249.21 79.0199V90.58L246.46 89.18H216.1L214.35 90.7799L205.1 86.12L206.25 84.23V74L204.85 71.25H218.65L217.25 74V80.4199ZM215.2 52V61H220.45V52H215.2ZM248.71 45.5V73.22L250.11 75.97H236.3L237.71 73.22V66.5199H232.71V58.27H237.71V55H232.71V46.72H237.71V45.47L236.3 42.72H250.11L248.71 45.5Z" fill="white"/>
<path d="M287.05 81.3801L277.05 88.5801L276.55 85.4801C273.6 81.0001 270.7 76.0001 269.35 72.0701C268 76.0001 265.1 81.0001 262.15 85.4801L261.65 88.5801L251.65 81.3801L253.75 80.6201C257.787 74.3486 261.171 67.6805 263.85 60.7201V52.7201H257.6L254.85 54.1201V42.1201L257.6 43.5201H281.1L283.85 42.1201V54.1201L281.1 52.7201H274.85V60.7201C277.566 67.6734 280.966 74.3395 285 80.6201L287.05 81.3801ZM298.75 45.4701V86.4701L300.16 89.2201H286.35L287.75 86.4701V45.4701L286.35 42.7201H300.16L298.75 45.4701Z" fill="white"/>
<path d="M361.75 60.22L364.5 58.82V70.87L361.75 69.47H358.3V86.47L359.71 89.22H345.9L347.3 86.47V81.92L338.05 88.58L337.55 85.48C334.8 81 332.1 76 330.85 72.07C329.6 75.97 326.85 80.97 324.15 85.48L323.65 88.58L313.65 81.38L315.75 80.62C319.586 74.3122 322.801 67.6478 325.35 60.72V46.12L323.85 43.47H337.85L336.35 46.12V60.72C338.9 67.6478 342.115 74.3122 345.95 80.62L347.3 81.12V45.47L345.9 42.72H359.71L358.3 45.47V60.22H361.75Z" fill="white"/>
<path d="M409.25 62.3201L412 60.9201V71.2201L409.25 69.8201H368.75L366 71.2201V60.9201L368.75 62.3201H374.05V58.6701C369.9 57.3201 367 55.0001 367 51.0001C367 42.8501 378.9 41.6001 389 41.6001C399.1 41.6001 411 42.8501 411 51.0001C411 55.0001 408.1 57.3501 404 58.7001V62.3501L409.25 62.3201ZM411 80.8301C411 89.0801 399.1 90.3301 389 90.3301C378.9 90.3301 367 89.0801 367 80.8301C367 72.5801 378.9 71.3201 389 71.3201C399.1 71.3201 411 72.5701 411 80.8301ZM378 51.0001C378 53.0001 383.85 53.1501 389 53.1501C394.15 53.1501 400 53.0001 400 51.0001C400 49.0001 394.15 48.8501 389 48.8501C383.85 48.8501 378 49.0001 378 51.0001ZM400 80.8601C400 78.7501 394.15 78.6101 389 78.6101C383.85 78.6101 378 78.7501 378 80.8601C378 82.9701 383.85 83.1101 389 83.1101C394.15 83.1101 400 82.9201 400 80.8301V80.8601ZM384.55 62.3201H393.45V60.3201C391.95 60.3201 390.45 60.4201 389 60.4201C387.55 60.4201 386.05 60.4201 384.55 60.3201V62.3201Z" fill="white"/>
<path d="M471.75 62.0701L474.5 60.6701V71.0001L471.75 69.6001H431.25L428.5 71.0001V60.6701L431.25 62.0701H471.75ZM430.25 46.9201L429.1 45.0001L438.35 41.1001L440.1 42.7001H470L472.75 41.3001V50.0001H441.25V52.6001H472.75V61.2501L470 59.8201H432.65L429.1 57.2701L430.25 55.3701V46.9201ZM473.5 80.8301C473.5 89.0801 461.6 90.3301 451.5 90.3301C441.4 90.3301 429.5 89.0801 429.5 80.8301C429.5 72.5801 441.4 71.3201 451.5 71.3201C461.6 71.3201 473.5 72.5701 473.5 80.8301ZM462.5 80.8301C462.5 78.7201 456.65 78.5801 451.5 78.5801C446.35 78.5801 440.5 78.7201 440.5 80.8301C440.5 82.9401 446.35 83.0801 451.5 83.0801C456.65 83.0801 462.5 82.9201 462.5 80.8301Z" fill="white"/>
<path d="M534.25 63.8201L537 62.4201V72.4201L534.25 71.0201H493.75L491 72.4701V62.4701L493.75 63.8701H508.5V59.3701H519.5V63.8701L534.25 63.8201ZM491.4 53.8201L494.2 54.0701C499.141 53.4245 503.96 52.0531 508.5 50.0001H495.75L493 51.3701V41.3701L495.75 42.7701H532.25L535 41.3701V51.3701L532.25 50.0001H519.5C524.117 52.0195 529 53.3665 534 54.0001L536.75 53.7501L533.05 63.5001L531.55 61.4001C525.05 60.1001 518.05 58.1001 514 55.8001C509.95 58.1501 503 60.2001 496.55 61.5001L494.95 63.5001L491.4 53.8201ZM536 81.3301C536 89.1801 524.1 90.3301 514 90.3301C503.9 90.3301 492 89.1801 492 81.3301C492 73.4801 503.9 72.3301 514 72.3301C524.1 72.3301 536 73.4701 536 81.3301ZM525 81.3301C525 79.4701 519.15 79.3301 514 79.3301C508.85 79.3301 503 79.4701 503 81.3301C503 83.1901 508.85 83.3301 514 83.3301C519.15 83.3301 525 83.1701 525 81.3301Z" fill="white"/>
<path d="M571.6 65.6699C571.6 78.8799 568.05 88.6699 556.35 88.6699C544.65 88.6699 541.1 78.8699 541.1 65.6699C541.1 52.4699 544.65 42.6699 556.35 42.6699C568.05 42.6699 571.6 52.4699 571.6 65.6699ZM561.1 65.6699C561.1 59.1699 560.4 52.4199 556.35 52.4199C552.3 52.4199 551.6 59.1699 551.6 65.6699C551.6 72.1699 552.3 78.9199 556.35 78.9199C560.4 78.9199 561.1 72.1699 561.1 65.6699ZM586.25 45.4699V86.4699L587.66 89.2199H573.85L575.25 86.4699V45.4699L573.85 42.7199H587.66L586.25 45.4699Z" fill="white"/>
<path d="M632.6 65.6699C632.6 78.8799 629.15 88.6699 617.85 88.6699C606.55 88.6699 603.1 78.8699 603.1 65.6699C603.1 52.4699 606.55 42.6699 617.85 42.6699C629.15 42.6699 632.6 52.4699 632.6 65.6699ZM622.1 65.6699C622.1 59.1699 621.5 52.4199 617.85 52.4199C614.2 52.4199 613.6 59.1699 613.6 65.6699C613.6 72.1699 614.2 78.9199 617.85 78.9199C621.5 78.9199 622.1 72.1699 622.1 65.6699ZM649.25 60.2199L652 58.8199V70.8699L649.25 69.4699H645.8V86.4699L647.21 89.2199H633.4L634.8 86.4699V45.4699L633.4 42.7199H647.21L645.8 45.4699V60.2199H649.25Z" fill="white"/>
<path d="M699.25 45.4699V86.4699L700.66 89.2199H686.85L688.25 86.4699V78.4699H683.25V84.9199L684.65 87.6799H671.4L672.8 84.9199V52.7199H669.8V84.9199L671.2 87.6799H657.9L659.25 84.9999V52.7199H655.5L652.75 54.1199V42.1199L655.5 43.5199H673.5L675.25 41.9199L684.5 46.5699L683.35 48.4699V52.7699H688.35V45.4699L686.95 42.7199H700.76L699.25 45.4699ZM683.25 69.4699H688.25V61.7199H683.25V69.4699Z" fill="white"/>
<path d="M711.8 75.07L703.05 68.92L705.05 67.92C708.15 64.07 710.35 59.12 712.05 53.22V46.22L710.65 43.47H723.95L722.55 46.22V53.22C723.133 56.714 724.501 60.0304 726.55 62.92C728.599 60.0304 729.967 56.714 730.55 53.22V46.22L729.15 43.47H742.45L741 46.22V53.22C742.65 59.12 744.85 64.07 748 67.92L750 68.92L741.24 75.07L740.44 72.57C738.323 69.8055 736.746 66.6676 735.79 63.32C734.49 67.37 730.89 71.82 726.54 75.07C722.19 71.82 718.54 67.37 717.29 63.32C716.334 66.6676 714.756 69.8055 712.64 72.57L711.8 75.07ZM706.25 78.42H746.75L749.5 77V89.08L746.75 87.68H706.25L703.5 89.08V77L706.25 78.42Z" fill="white"/>
<path d="M782.7 87.6799H768.9L770.3 84.9199V52.7199H756.5L753.75 54.1199V42.1199L756.5 43.5199H771.5L773.25 41.9199L782.5 46.5699L781.35 48.4699V84.9699L782.7 87.6799ZM798.7 45.4699V86.4699L800.11 89.2199H786.35L787.75 86.4699V45.4699L786.35 42.7199H800.16L798.7 45.4699Z" fill="white"/>
</g>
<defs>
<linearGradient id="paint0_linear_104_4050" x1="207.1" y1="337.1" x2="747.3" y2="-203.1" gradientUnits="userSpaceOnUse">
<stop stop-color="#1BCC9C"/>
<stop offset="1" stop-color="#65E5ED"/>
</linearGradient>
<clipPath id="clip0_104_4050">
<rect width="100%" height="100%" fill="white"/>
</clipPath>
</defs>
</svg>
