<svg viewBox="0 0 953 133" fill="none" xmlns="http://www.w3.org/2000/svg">
<g clip-path="url(#clip0_104_3957)">
<path d="M951.45 1.05005H1.0498V131.05H951.45V1.05005Z" fill="url(#paint0_linear_104_3957)"/>
<path d="M952.5 132.1H0V0H952.5V132.1ZM2.1 130H950.4V2.1H2.1V130Z" fill="#0B3260"/>
<path d="M183.1 66.72C183.1 79.92 179.55 89.72 167.85 89.72C156.15 89.72 152.6 79.92 152.6 66.72C152.6 53.52 156.15 43.72 167.85 43.72C179.55 43.72 183.1 53.52 183.1 66.72ZM172.6 66.72C172.6 60.22 171.9 53.47 167.85 53.47C163.8 53.47 163.1 60.22 163.1 66.72C163.1 73.22 163.8 80 167.85 80C171.9 80 172.6 73.22 172.6 66.72ZM197.75 46.52V87.47L199.15 90.22H185.35L186.75 87.47V46.52L185.35 43.77H199.15L197.75 46.52Z" fill="#416CB7"/>
<path d="M202.1 67.9199L203.25 66.0199V49L202.65 46.5999L211.9 42.95L213.6 44.5499H230.5V66L231.65 67.9L228.1 70.4499H205.65L202.1 67.9199ZM216.3 81.47H245.5L248.25 80.07V91.62L245.5 90.22H215.15L213.4 91.82L204.15 87.1699L205.3 85.2699V75.07L203.9 72.32H217.7L216.3 75.07V81.47ZM214.25 53V62H219.5V53H214.25ZM247.75 46.5V74.2699L249.15 77.0199H235.35L236.75 74.2699V67.57H231.75V59.32H236.75V56H231.75V47.77H236.75V46.52L235.35 43.77H249.15L247.75 46.5Z" fill="#416CB7"/>
<path d="M286.1 82.4201L276.1 89.6201L275.6 86.5201C272.6 82.0201 269.75 77.0201 268.4 73.1201C267.05 77.0201 264.15 82.0201 261.2 86.5201L260.7 89.6201L250.7 82.4201L252.8 81.6701C256.837 75.3986 260.221 68.7305 262.9 61.7701V53.7701H256.65L253.9 55.1701V43.1201L256.65 44.5201H280.15L282.9 43.1201V55.1701L280.15 53.7701H273.9V61.7701C276.6 68.7215 279.983 75.3875 284 81.6701L286.1 82.4201ZM297.8 46.5201V87.4701L299.2 90.2201H285.4L286.8 87.4701V46.5201L285.4 43.7701H299.2L297.8 46.5201Z" fill="#416CB7"/>
<path d="M360.8 61.27L363.55 59.87V71.92L360.8 70.52H357.35V87.52L358.75 90.27H345L346.4 87.52V83L337.15 89.65L336.65 86.55C333.9 82.05 331.2 77.05 329.95 73.15C328.7 77.05 326 82.05 323.25 86.55L322.75 89.65L312.75 82.45L314.85 81.7C318.685 75.3923 321.9 68.7278 324.45 61.8V47.17L322.95 44.52H336.95L335.45 47.17V61.77C338 68.6978 341.215 75.3623 345.05 81.67L346.4 82.17V46.52L345 43.77H358.8L357.4 46.52V61.27H360.8Z" fill="#416CB7"/>
<path d="M408.3 63.3701L411.05 61.9701V72.2701L408.3 70.8701H367.8L365.05 72.2701V62.0001L367.8 63.4001H373.1V59.7201C368.95 58.3701 366.05 56.0201 366.05 52.0201C366.05 43.8701 377.95 42.6201 388.05 42.6201C398.15 42.6201 410.05 43.8701 410.05 52.0201C410.05 56.0201 407.15 58.3701 403 59.7201V63.3701H408.3ZM410.05 81.8701C410.05 90.1201 398.15 91.3701 388.05 91.3701C377.95 91.3701 366.05 90.1201 366.05 81.8701C366.05 73.6201 377.95 72.3701 388.05 72.3701C398.15 72.3701 410.05 73.6201 410.05 81.8701ZM377.05 52.0001C377.05 54.0001 382.9 54.1501 388.05 54.1501C393.2 54.1501 399.05 54.0001 399.05 52.0001C399.05 50.0001 393.2 49.8501 388.05 49.8501C382.9 49.8501 377.05 50.0001 377.05 52.0001ZM399.05 81.8501C399.05 79.7501 393.2 79.6001 388.05 79.6001C382.9 79.6001 377.05 79.7501 377.05 81.8501C377.05 83.9501 382.9 84.1001 388.05 84.1001C393.2 84.1001 399.05 84.0001 399.05 81.8701V81.8501ZM383.6 63.3701H392.5V61.3701C391 61.3701 389.5 61.4701 388.05 61.4701C386.6 61.4701 385.1 61.4201 383.6 61.3701V63.3701Z" fill="#416CB7"/>
<path d="M470.8 63.1199L473.55 61.72V72L470.8 70.5999H430.3L427.55 72V61.72L430.3 63.1199H470.8ZM429.3 48L428.15 46.0999L437.4 42.2L439.15 43.7999H469.05L471.8 42.4V51H440.3V53.5999H471.8V62.25L469.05 60.8499H431.7L428.15 58.2999L429.3 56.4V48ZM472.55 81.9C472.55 90.15 460.65 91.4 450.55 91.4C440.45 91.4 428.55 90.15 428.55 81.9C428.55 73.65 440.45 72.4 450.55 72.4C460.65 72.4 472.55 73.62 472.55 81.87V81.9ZM461.55 81.9C461.55 79.8 455.7 79.65 450.55 79.65C445.4 79.65 439.55 79.8 439.55 81.9C439.55 84 445.4 84.15 450.55 84.15C455.7 84.15 461.55 84 461.55 81.87V81.9Z" fill="#416CB7"/>
<path d="M533.3 64.8701L536.05 63.4701V73.4701L533.3 72.0701H492.8L490.05 73.4701V63.4701L492.8 64.8701H507.55V60.3701H518.55V64.8701H533.3ZM490.45 54.8201L493.25 55.0701C498.187 54.4468 503.006 53.099 507.55 51.0701H494.8L492.05 52.4701V42.3701L494.8 43.7701H531.3L534.05 42.3701V52.4201L531.3 51.0001H518.55C523.167 53.0195 528.05 54.3665 533.05 55.0001L535.8 54.7501L532.1 64.5001L530.6 62.4001C524.1 61.1001 517.1 59.1001 513.05 56.8001C509.05 59.1501 502.05 61.2001 495.6 62.5001L494 64.6201L490.45 54.8201ZM535.05 82.3701C535.05 90.2201 523.15 91.3701 513.05 91.3701C502.95 91.3701 491.05 90.2201 491.05 82.3701C491.05 74.5201 502.95 73.3701 513.05 73.3701C523.15 73.3701 535.05 74.5201 535.05 82.3701ZM524.05 82.3701C524.05 80.5201 518.2 80.3701 513.05 80.3701C507.9 80.3701 502.05 80.5201 502.05 82.3701C502.05 84.2201 507.9 84.3701 513.05 84.3701C518.2 84.3701 524.05 84.2201 524.05 82.3701Z" fill="#416CB7"/>
<path d="M570.65 66.72C570.65 79.92 567.1 89.72 555.4 89.72C543.7 89.72 540.15 79.92 540.15 66.72C540.15 53.52 543.7 43.72 555.4 43.72C567.1 43.72 570.65 53.52 570.65 66.72ZM560.15 66.72C560.15 60.22 559.45 53.47 555.4 53.47C551.35 53.47 550.65 60.22 550.65 66.72C550.65 73.22 551.35 80 555.4 80C559.45 80 560.15 73.22 560.15 66.72ZM585.3 46.52V87.47L586.7 90.22H572.9L574.3 87.47V46.52L572.9 43.77H586.7L585.3 46.52Z" fill="#416CB7"/>
<path d="M631.65 66.72C631.65 79.92 628.2 89.72 616.9 89.72C605.6 89.72 602.15 79.92 602.15 66.72C602.15 53.52 605.6 43.72 616.9 43.72C628.2 43.72 631.65 53.52 631.65 66.72ZM621.15 66.72C621.15 60.22 620.55 53.47 616.9 53.47C613.25 53.47 612.65 60.22 612.65 66.72C612.65 73.22 613.25 80 616.9 80C620.55 80 621.15 73.22 621.15 66.72ZM648.3 61.27L651.05 59.87V71.92L648.3 70.52H644.85V87.52L646.25 90.27H632.45L633.85 87.52V46.52L632.45 43.77H646.25L644.85 46.52V61.27H648.3Z" fill="#416CB7"/>
<path d="M698.3 46.5199V87.4699L699.7 90.2199H685.9L687.3 87.4699V79.4699H682.35V85.9999L683.75 88.7499H670.45L671.85 85.9999V53.7699H668.8V85.9999H668.85L670.25 88.7499H657L658.35 86.0999V53.7699H654.6L651.85 55.1699V43.1199L654.6 44.5199H672.6L674.35 42.9199L683.6 47.5699L682.45 49.4699V53.7699H687.4V46.5199L686 43.7699H699.8L698.3 46.5199ZM682.35 70.5199H687.3V62.7699H682.35V70.5199Z" fill="#416CB7"/>
<path d="M710.85 76.1201L702.1 70L704.1 69C707.2 65.15 709.4 60.2 711.05 54.3V47.3L709.65 44.55H723L721.6 47.3V54.3C722.183 57.7941 723.55 61.1105 725.6 64C727.649 61.1105 729.016 57.7941 729.6 54.3V47.3L728.2 44.55H741.5L740.1 47.3V54.3C741.75 60.2 743.95 65.15 747.1 69L749.1 70L740.35 76.1501L739.55 73.6501C737.433 70.8856 735.856 67.7477 734.9 64.4001C733.6 68.4001 730 72.9001 725.65 76.1501C721.3 72.9001 717.7 68.4501 716.4 64.4001C715.443 67.7477 713.866 70.8856 711.75 73.6501L710.85 76.1201ZM705.3 79.4701H745.8L748.55 78.07V90.1201L745.8 88.7201H705.3L702.55 90.1201V78.07L705.3 79.4701Z" fill="#416CB7"/>
<path d="M781.75 88.7199H768L769.4 85.9699V53.7699H755.6L752.85 55.1699V43.1199L755.6 44.5199H770.6L772.35 42.9199L781.6 47.5699L780.45 49.4699V85.9999L781.75 88.7199ZM797.75 46.5199V87.4699L799.15 90.2199H785.4L786.8 87.4699V46.5199L785.4 43.7699H799.2L797.75 46.5199Z" fill="#416CB7"/>
</g>
<defs>
<linearGradient id="paint0_linear_104_3957" x1="206.15" y1="336.15" x2="746.35" y2="-204.05" gradientUnits="userSpaceOnUse">
<stop stop-color="#183372"/>
<stop offset="1" stop-color="#1850A2"/>
</linearGradient>
<clipPath id="clip0_104_3957">
<rect width="100%" height="100%" fill="white"/>
</clipPath>
</defs>
</svg>
