<svg viewBox="0 0 955 134" fill="none" xmlns="http://www.w3.org/2000/svg">
<g clip-path="url(#clip0_104_4067)">
<path d="M952.4 2H2V132H952.4V2Z" fill="url(#paint0_linear_104_4067)"/>
<path d="M954.4 134H0V0H954.4V134ZM4 130H950.4V4H4V130Z" fill="white"/>
<path d="M270.75 82.38L260.75 89.58L260.25 86.48C257.3 82 254.4 77 253.05 73.07C251.7 76.97 248.8 81.97 245.85 86.48L245.35 89.58L235.35 82.38L237.45 81.62C241.486 75.3485 244.87 68.6804 247.55 61.72V53.72H241.3L238.55 55.12V43.12L241.3 44.52H264.8L267.55 43.12V55.12L264.8 53.72H258.55V61.72C261.249 68.6713 264.632 75.3374 268.65 81.62L270.75 82.38ZM282.46 46.47V87.47L283.86 90.22H270.05L271.46 87.47V46.47L270.05 43.72H283.86L282.46 46.47Z" fill="white"/>
<path d="M330.46 66L333.21 64.6V76.6L330.46 75.2H315.7V87.43L317.1 90.18H303.3L304.7 87.43V75.27H290L287.25 76.67V64.67L290 66H330.46ZM320.46 53.45H292L289.25 54.85V43.07L292 44.47H321.6L323.35 42.87L332.61 46.77L331.46 48.67V64.52H320.46V53.45Z" fill="white"/>
<path d="M336.8 66.62L337.95 64.72V47.22L336.55 44.47H350.35L349 47.22V48.82H354.75V47.22L353.35 44.47H367.15L365.75 47.22V64.72L366.9 66.62L363.35 69.17H340.35L336.8 66.62ZM381.71 81C381.71 89.56 371.21 91.36 360.25 91.36C349.29 91.36 338.8 89.53 338.8 81C338.8 72.47 349.3 70.65 360.25 70.65C371.2 70.65 381.71 72.42 381.71 81ZM354.71 56.85H349V61.2H354.75L354.71 56.85ZM370.7 81C370.7 78.45 366.15 78.15 360.25 78.15C354.35 78.15 349.8 78.45 349.8 81C349.8 83.55 354.35 83.86 360.25 83.86C366.15 83.86 370.7 83.53 370.7 81ZM383 51.82L385.75 50.42V62L383 60.57H380.55V67.22L381.95 69.97H368.1L369.5 67.22V46.47L368.1 43.72H381.91L380.51 46.47V51.82H383Z" fill="white"/>
<path d="M387.2 68.32L389.8 69.62L420 67.72V76.47L408.7 77.17L407.2 87.43L408.35 90.18H394.55L396.2 87.43L397.55 77.88L389.95 78.38L387.2 79.77V68.32ZM388.05 55.22C388.05 47.22 394.95 43.62 403.8 43.62C412.65 43.62 419.55 47.22 419.55 55.22C419.55 63.22 412.65 66.82 403.8 66.82C394.95 66.82 388.05 63.22 388.05 55.22ZM398.05 55.22C398.05 57.57 400.7 58.57 403.8 58.57C406.9 58.57 409.55 57.57 409.55 55.22C409.55 52.87 406.9 51.87 403.8 51.87C400.7 51.87 398.05 52.87 398.05 55.22ZM432.46 46.47V87.47L433.86 90.22H420.05L421.46 87.47V46.47L420.05 43.72H433.86L432.46 46.47Z" fill="white"/>
<path d="M457.6 43.07V55.07L454.85 53.67H448.2V79.37H454.85L457.6 78V90.08L454.85 88.68H447.55L445.8 90.28L437.05 85.62L438.2 83.73V49.42L437.05 47.52L445.8 42.87L447.55 44.47H454.85L457.6 43.07ZM483.21 46.47V87.47L484.61 90.22H472.3L473.71 87.47V69.77H469.5V87.43H469.55L471 90.18H458.65L460 87.53V46.37L458.65 43.72H471L469.59 46.47H469.54V60.77H473.75V46.47L472.34 43.72H484.65L483.21 46.47Z" fill="white"/>
<path d="M526.7 53.22H503.2L500.45 54.62V45.07L503.2 46.47H509.45V45.47L508.05 42.72H521.85L520.45 45.47V46.47H526.7L529.45 45.07V54.62L526.7 53.22ZM500.6 62C500.6 56.8 506.2 53.95 514.95 53.95C523.7 53.95 529.3 56.82 529.3 62C529.3 67.18 523.7 70 514.95 70C506.2 70 500.6 67.22 500.6 62ZM543 86L544.16 87.9L534.9 91.8L533.15 90.2H511.9L510.15 91.8L500.9 87.9L502.05 86V73.47L500.65 70.72H514.45L513.05 73.47V73.82H532.05V73.47L530.65 70.72H544.46L543 73.47V86ZM510.85 62C510.85 63 512.5 63.8 514.95 63.8C517.4 63.8 519.05 63.05 519.05 62C519.05 60.95 517.4 60.2 514.95 60.2C512.5 60.2 510.85 61 510.85 62ZM513.05 82.9H532.05V81.08H513.05V82.9ZM545.46 52.15L548.21 50.75V62.32L545.46 60.92H543V66.92L544.41 69.67H530.6L532 67V46.47L530.6 43.72H544.41L543 46.47V52.17L545.46 52.15Z" fill="white"/>
<path d="M593 73.22L595.75 71.82V83.12L593 81.72H587.3V87.43L588.71 90.18H574.9L576.3 87.43V81.72H569.1V87.43L570.5 90.18H556.7L558.1 87.43V81.72H552.45L549.7 83.12V71.82L552.45 73.22H593ZM550.3 56.62L559.55 52.72L561.3 54.32H583V52.22H554.2L551.45 53.62V43.07L554.2 44.47H584.1L585.85 42.87L595.11 46.77L594 48.67V57.37L595.15 59.27L585.89 63.17L584.14 61.57H562.45V63.67H591.21L593.96 62.27V72.27L591.21 70.87H561.3L559.55 72.47L550.3 68.57L551.45 66.67V58.47L550.3 56.62Z" fill="white"/>
<path d="M619.35 48.22H626.25L629 46.82V58.37L626.25 57H601.45L598.7 58.4V46.82L601.45 48.22H608.35V46L607 43.22H620.8L619.35 46V48.22ZM628.15 74.07C628.15 83.58 623.2 89.93 613.85 89.93C604.5 89.93 599.55 83.58 599.55 74.07C599.55 64.56 604.55 58.22 613.85 58.22C623.15 58.22 628.15 64.57 628.15 74.07ZM617.9 74.07C617.9 70.32 616.65 67.47 613.9 67.47C611.15 67.47 609.85 70.32 609.85 74.07C609.85 77.82 611.1 80.67 613.9 80.67C616.7 80.67 617.9 77.83 617.9 74.07ZM645.46 62.22L648.21 60.82V72.87L645.46 71.47H642V87.47L643.41 90.22H629.6L631 87.47V46.47L629.6 43.72H643.41L642 46.47V62.22H645.46Z" fill="white"/>
<path d="M678.9 88.68H665.1L666.5 85.92V53.72H652.7L650 55.12V43.12L652.75 44.52H667.7L669.45 42.92L678.7 47.57L677.55 49.47V85.97L678.9 88.68ZM695 46.47V87.47L696.4 90.22H682.55L683.95 87.47V46.47L682.55 43.72H696.36L695 46.47Z" fill="white"/>
<path d="M841.61 92.26L838.79 89.43L861.41 66.8L838.79 44.17L841.61 41.34L867.07 66.8L841.61 92.26Z" fill="white"/>
</g>
<defs>
<linearGradient id="paint0_linear_104_4067" x1="2" y1="67" x2="952.4" y2="67" gradientUnits="userSpaceOnUse">
<stop offset="0.02" stop-color="#0E57FF"/>
<stop offset="1" stop-color="#00CBFF"/>
</linearGradient>
<clipPath id="clip0_104_4067">
<rect width="100%" height="100%" fill="white"/>
</clipPath>
</defs>
</svg>
