<svg viewBox="0 0 955 134" fill="none" xmlns="http://www.w3.org/2000/svg">
<g clip-path="url(#clip0_104_3974)">
<path d="M952.4 2H2V132H952.4V2Z" fill="url(#paint0_linear_104_3974)"/>
<path d="M954.4 134H0V0H954.4V134ZM4 130H950.4V4H4V130Z" fill="white"/>
<path d="M119 45.4699V73.2199L120.4 75.9699H106.55L108 73.2199V61.7199H101.8V52.9999H102.15L100.7 52.2499H94.45C96.2873 56.7006 99.1888 60.6323 102.9 63.6999L105.65 64.1999L96.9 72.3199L95.6 69.5699C92.7747 66.9845 90.5258 63.8327 89 60.3199C87.4595 63.8372 85.1934 66.9894 82.35 69.5699L81 72.3199L72.25 64.1699L75 63.6699C78.7112 60.6023 81.6127 56.6706 83.45 52.2199H77.2L74.45 53.6199V42.0699L77.2 43.4699H100.7L103.45 42.0699V52.9999H108V45.4999L106.59 42.7499H120.4L119 45.4699ZM88 80.4699H116.71L119.46 79.0699V90.5799L116.71 89.1799H86.85L85.1 90.7799L75.85 86.1199L77 84.2299V75.5199L75.6 72.7699H89.4L88 75.5199V80.4699Z" fill="white"/>
<path d="M169.46 60.22L172.21 58.82V70.87L169.46 69.47H166V86.47L167.41 89.22H153.6L155 86.47V81.92L145.75 88.58L145.25 85.48C142.5 81 139.8 76 138.55 72.07C137.3 75.97 134.55 80.97 131.85 85.48L131.35 88.58L121.35 81.38L123.45 80.62C127.285 74.3122 130.5 67.6478 133.05 60.72V52.72H127.3L124.55 54.12V42.12L127.3 43.52H149.8L152.55 42.12V54.12L149.8 52.72H144.05V60.72C146.599 67.6478 149.814 74.3122 153.65 80.62L155 81.12V45.47L153.6 42.72H167.41L166 45.47V60.22H169.46Z" fill="white"/>
<path d="M186.2 55.07C186.2 47.52 192.2 42.47 200.55 42.47C208.9 42.47 214.9 47.52 214.9 55.07C214.9 62.62 208.9 67.67 200.55 67.67C192.2 67.67 186.2 62.62 186.2 55.07ZM232.66 79.47C232.66 88.47 221.9 90.33 210.66 90.33C199.42 90.33 188.71 88.43 188.71 79.47C188.71 70.51 199.5 68.62 210.7 68.62C221.9 68.62 232.66 70.52 232.66 79.47ZM196.2 55.07C196.148 55.9419 196.359 56.8094 196.806 57.56C197.253 58.3106 197.915 58.9097 198.706 59.2796C199.497 59.6496 200.381 59.7733 201.244 59.6348C202.106 59.4963 202.907 59.1019 203.543 58.5028C204.179 57.9037 204.62 57.1274 204.809 56.2747C204.998 55.4219 204.927 54.532 204.604 53.7202C204.282 52.9084 203.723 52.2122 203 51.7218C202.277 51.2315 201.424 50.9695 200.55 50.97C199.992 50.9387 199.433 51.0215 198.908 51.2133C198.382 51.4051 197.901 51.7018 197.494 52.0854C197.087 52.469 196.763 52.9314 196.54 53.4445C196.318 53.9577 196.202 54.5107 196.2 55.07ZM221.65 79.47C221.65 76.92 216.9 76.62 210.65 76.62C204.4 76.62 199.7 76.92 199.7 79.47C199.7 82.02 204.45 82.33 210.65 82.33C216.85 82.33 221.65 82 221.65 79.47ZM231.46 45.47V65.22L232.86 67.97H219.05L220.46 65.22V64.52H215.2V56.77H220.46V54H215.2V46.22H220.46V45.47L219.05 42.72H232.86L231.46 45.47Z" fill="white"/>
<path d="M241.25 68.57L235.75 57.92H238.5C245.3 55.77 250.05 53.02 253.7 49.72V46.22L252.3 43.47H266.1L264.7 46.22V49.72C268.35 53.02 273.1 55.77 279.91 57.92H282.66L277.16 68.57L275.85 66.32C269.1 63.82 262.4 60.22 259.2 56.82C256 60.22 249.3 63.82 242.55 66.32L241.25 68.57ZM239 69H279.51L282.26 67.6V79.6L279.51 78.2H264.7V86.36L266.1 89.11H252.3L253.7 86.36V78.27H239L236.25 79.67V67.67L239 69Z" fill="white"/>
<path d="M332.21 62.17V72.17L329.46 70.77H289L286.25 72.17V62.17L289 63.57H329.51L332.21 62.17ZM291.75 61.52L290.15 63.52L286.6 53.72L289.4 53.97C294.336 53.3563 299.154 52.0186 303.7 50H291L288.25 51.4V41.4L291 42.8H327.51L330.26 41.4V51.4L327.46 50H314.7C319.321 52.0192 324.207 53.3662 329.21 54L331.96 53.75L328.25 63.5L326.75 61.4C320.25 60.1 313.25 58.1 309.2 55.8C305.15 58.17 298.2 60.22 291.75 61.52ZM331.21 81.33C331.21 89.18 319.3 90.33 309.21 90.33C299.12 90.33 287.21 89.18 287.21 81.33C287.21 73.48 299.11 72.33 309.21 72.33C319.31 72.33 331.21 73.47 331.21 81.33ZM320.21 81.33C320.21 79.47 314.36 79.33 309.21 79.33C304.06 79.33 298.21 79.47 298.21 81.33C298.21 83.19 304.06 83.33 309.21 83.33C314.36 83.33 320.2 83.17 320.2 81.33H320.21Z" fill="white"/>
<path d="M339.4 90.88H334.2L351 40.88H356.15L339.4 90.88Z" fill="white"/>
<path d="M401.41 78.4199L404.16 77.0199V89.0799L401.41 87.6799H360.9L358.15 89.0799V76.9999L360.9 78.3999H375.65V71.6699H370.4L368.25 73.6699L358.5 68.9199L359.9 66.6199V48.6199L358.5 46.3199L368.25 41.5699L370.4 43.5199H402.4V66.6199L403.79 68.9199L394.04 73.6699L391.89 71.6699H386.64V78.4199H401.41ZM370.9 62.4199H391.4V52.7199H370.9V62.4199Z" fill="white"/>
<path d="M436 82.73L437.15 84.62L427.9 89.28L426.15 87.68H418.8L417 89.28L407.75 84.62L408.9 82.73V46.22L407.5 43.47H420.8L419.4 46.22V58.07H425.45V46.22L424.05 43.47H437.35L436 46.22V82.73ZM419.4 78.67H425.45V67.07H419.4V78.67ZM453.91 60.22L456.66 58.82V70.87L453.91 69.47H450.46V86.47L451.85 89.22H438.05L439.45 86.47V45.47L438.05 42.72H451.85L450.46 45.47V60.22H453.91Z" fill="white"/>
<path d="M458.15 53.82C458.15 47.02 464.2 42.47 472.75 42.47C481.3 42.47 487.35 47.02 487.35 53.82C487.35 60.32 481.3 64.67 472.75 64.67C464.2 64.67 458.15 60.32 458.15 53.82ZM504.55 68.52L503.4 70.42V76.42L504.55 78.31L501 80.83H472V82.42H500.7L503.4 81V90.55L500.65 89.15H470.8L469.05 90.75L459.8 86.85L461 85V78.77L459.85 76.88L463.4 74.32H492.4V72.72H463.15L460.95 73.72V65L463.15 66H501L504.55 68.52ZM468.15 53.82C468.15 55.82 470.2 57.17 472.75 57.17C475.3 57.17 477.35 55.82 477.35 53.82C477.35 51.82 475.3 50.47 472.75 50.47C470.2 50.47 468.15 51.82 468.15 53.82ZM503.4 45.47V62L504.8 64.75H491L492.4 62V45.47L491 42.72H504.8L503.4 45.47Z" fill="white"/>
<path d="M522 61.92C525.3 59.9894 528.04 57.2321 529.95 53.92H524.2L521.45 55.32V44.07L524.2 45.47H529.95V44.47L528.55 41.72H542.35L540.95 44.47V45.47H546.7L549.45 44.07V55.37L546.65 54H540.9C543.013 56.6473 545.767 58.7124 548.9 60L551.65 60.5L544.4 69.4L543.1 66.65C540.3 65.1 537 62.75 535.45 60.4C533.9 63.55 530.6 66.55 527.8 68.65L526.5 71.4L519.25 62.5L522 61.92ZM567.21 79.92C567.21 88.48 556.45 90.28 545.21 90.28C533.97 90.28 523.21 88.48 523.21 79.92C523.21 71.36 533.96 69.57 545.21 69.57C556.46 69.57 567.16 71.42 567.16 80L567.21 79.92ZM556.21 79.92C556.21 77.33 551.46 77.07 545.26 77.07C539.06 77.07 534.26 77.33 534.26 79.92C534.26 82.51 539.01 82.78 545.26 82.78C551.51 82.78 556.15 82.58 556.15 80L556.21 79.92ZM565.97 45.42V66.22L567.37 68.97H553.5L554.9 66.22V58.32H550.25V49.57H554.9V45.47L553.5 42.72H567.31L565.97 45.42Z" fill="white"/>
<path d="M613.91 65L616.66 63.6V75.67L613.91 74.27H599.15V86.43L600.55 89.18H586.75L588.15 86.43V74.27H573.4L570.65 75.67V63.62L573.4 65H613.91ZM603.91 52.45H575.4L572.65 53.85V42.07L575.4 43.47H605.05L606.8 41.87L616.06 45.77L614.91 47.67V63.52H603.91V52.45Z" fill="white"/>
<path d="M641 60.72C643.55 67.6478 646.765 74.3122 650.6 80.62L652.7 81.38L642.7 88.58L642.2 85.48C639.45 80.97 636.75 75.97 635.5 72.07C634.25 75.97 631.5 80.97 628.8 85.48L628.3 88.58L618.3 81.38L620.4 80.62C624.235 74.3122 627.45 67.6478 630 60.72V46.12L628.5 43.47H642.5L641 46.12V60.72ZM665.91 45.47V86.47L667.31 89.22H653.5L654.9 86.47V67H649L646.25 68.4V56.32L649 57.72H654.95V45.47L653.55 42.72H667.36L665.91 45.47Z" fill="white"/>
<path d="M713.75 65.67C713.75 78.88 710.2 88.67 698.5 88.67C686.8 88.67 683.25 78.87 683.25 65.67C683.25 52.47 686.8 42.67 698.5 42.67C710.2 42.67 713.75 52.47 713.75 65.67ZM703.25 65.67C703.25 59.17 702.55 52.42 698.5 52.42C694.45 52.42 693.75 59.17 693.75 65.67C693.75 72.17 694.45 78.92 698.5 78.92C702.55 78.92 703.25 72.17 703.25 65.67ZM728.41 45.47V86.47L729.81 89.22H716L717.4 86.47V45.47L716 42.72H729.81L728.41 45.47Z" fill="white"/>
<path d="M776.41 62.3199L779.16 60.9199V71.2199L776.41 69.8199H735.9L733.15 71.2199V60.9199L735.9 62.3199H741.2V58.6699C737.05 57.3199 734.15 54.9699 734.15 50.9699C734.15 42.8199 746.05 41.5699 756.15 41.5699C766.25 41.5699 778.15 42.8199 778.15 50.9699C778.15 54.9699 775.24 57.3199 771.09 58.6699V62.3199H776.41ZM778.16 80.8299C778.16 89.0799 766.25 90.3299 756.16 90.3299C746.07 90.3299 734.16 89.0799 734.16 80.8299C734.16 72.5799 746.06 71.3199 756.16 71.3199C766.26 71.3199 778.16 72.5699 778.16 80.8299ZM745.15 50.9999C745.15 52.9999 751 53.1499 756.15 53.1499C761.3 53.1499 767.15 52.9999 767.15 50.9999C767.15 48.9999 761.3 48.8499 756.15 48.8499C751 48.8499 745.15 48.9999 745.15 50.9999ZM767.15 80.8599C767.15 78.7499 761.3 78.6099 756.15 78.6099C751 78.6099 745.15 78.7499 745.15 80.8599C745.15 82.9699 751 83.1099 756.15 83.1099C761.3 83.1099 767.15 82.9199 767.15 80.8299V80.8599ZM751.7 62.3199H760.6V60.3199C759.1 60.3199 757.6 60.4199 756.15 60.4199C754.7 60.4199 753.2 60.4199 751.7 60.3199V62.3199Z" fill="white"/>
<path d="M802.8 47.22H809.7L812.45 45.82V57.37L809.7 56H784.9L782.15 57.4V45.82L784.9 47.22H791.8V45L790.4 42.25H804.2L802.8 45V47.22ZM811.6 73.07C811.6 82.58 806.6 88.93 797.3 88.93C788 88.93 783 82.58 783 73.07C783 63.56 788 57.22 797.3 57.22C806.6 57.22 811.6 63.57 811.6 73.07ZM801.35 73.07C801.35 69.32 800.1 66.47 797.3 66.47C794.5 66.47 793.3 69.32 793.3 73.07C793.3 76.82 794.55 79.67 797.3 79.67C800.05 79.67 801.35 76.83 801.35 73.07ZM828.91 61.22L831.66 59.82V71.87L828.91 70.47H825.46V86.47L826.86 89.22H813.05L814.45 86.47V45.47L813.05 42.72H826.86L825.46 45.47V61.22H828.91Z" fill="white"/>
<path d="M862.35 87.68H848.55L849.95 84.92V52.72H836.15L833.4 54.12V42.12L836.15 43.52H851.15L852.9 41.92L862.15 46.57L861 48.42V84.92L862.35 87.68ZM878.41 45.47V86.47L879.81 89.22H866L867.4 86.47V45.47L866 42.72H879.81L878.41 45.47Z" fill="white"/>
</g>
<defs>
<linearGradient id="paint0_linear_104_3974" x1="207.1" y1="337.1" x2="747.3" y2="-203.1" gradientUnits="userSpaceOnUse">
<stop stop-color="#EA0EFA"/>
<stop offset="1" stop-color="#FF8BED"/>
</linearGradient>
<clipPath id="clip0_104_3974">
<rect width="100%" height="100%" fill="white"/>
</clipPath>
</defs>
</svg>
