<svg viewBox="0 0 955 134" fill="none" xmlns="http://www.w3.org/2000/svg">
<g clip-path="url(#clip0_104_3995)">
<path d="M952.4 2H2V132H952.4V2Z" fill="url(#paint0_linear_104_3995)"/>
<path d="M954.4 134H0V0H954.4V134ZM4 130H950.4V4H4V130Z" fill="white"/>
<path d="M138.53 82.73L139.68 84.62L130.43 89.28L128.68 87.68H120.33L118.58 89.28L109.33 84.62L110.48 82.73V46.22L109.08 43.47H122.38L121 46.22V58.07H128V46.22L126.6 43.47H139.9L138.5 46.22L138.53 82.73ZM121 78.67H128V67.07H121V78.67ZM155 45.47V86.47L156.4 89.22H142.6L144 86.47V45.47L142.6 42.72H156.4L155 45.47Z" fill="white"/>
<path d="M160.33 61.07L161.48 59.17V46.17L160.08 43.42H173.88L172.48 46.17V55.32H185.88L188.63 53.92V65L185.88 63.6H163.88L160.33 61.07ZM206.13 68.52L205 70.42V76.42L206.15 78.31L202.6 80.87H174V82.46H202.2L205 81V90.55L202.25 89.15H172.88L171.13 90.75L161.88 86.85L163 85V78.77L161.85 76.88L165.4 74.32H194V72.72H165.23L163.03 73.72V65L165.23 66H202.58L206.13 68.52ZM204.98 45.52V62L206.38 64.75H192.58L194 62V45.47L192.6 42.72H206.4L204.98 45.52Z" fill="white"/>
<path d="M253 63.82L255.75 62.42V72.22L253 70.82H212.5L209.75 72.22V62.42L212.5 63.82H227.25V61.07H213.88L210.33 58.52L211.48 56.62V45.47L210.08 42.72H223.88L222.58 45.32H242.88L241.58 42.72H255.38L254 45.47V56.62L255.15 58.52L251.6 61.07H238.23V63.82H253ZM254.75 81.33C254.75 89.13 242.85 90.33 232.75 90.33C222.65 90.33 210.75 89.13 210.75 81.33C210.75 73.53 222.65 72.33 232.75 72.33C242.85 72.33 254.73 73.52 254.73 81.33H254.75ZM243.75 81.33C243.75 79.22 237.9 79.08 232.75 79.08C227.6 79.08 221.75 79.22 221.75 81.33C221.75 83.44 227.6 83.58 232.75 83.58C237.9 83.58 243.73 83.42 243.73 81.33H243.75ZM222.5 52.33V54.08H243V52.32L222.5 52.33Z" fill="white"/>
<path d="M303 72.22L305.75 70.82V82.12L303 80.72H288.23V86.43L289.63 89.18H275.83L277.23 86.43V80.72H262.48L259.73 82.12V70.82L262.48 72.22H303ZM260.1 46.27L269.85 41.52L272 43.47H301.25L304 42.07V52.62L301.25 51.22H272.48V53.32H303.48V60.57H272.48V62.67H301.23L303.98 61.27V71.27L301.23 69.87H272L269.85 71.87L260.1 67.12L261.5 64.82V48.57L260.1 46.27Z" fill="white"/>
<path d="M342.63 42.0701V54.0701L339.88 52.6701H333.23V78.3701H339.88L342.63 76.9701V89.0801L339.88 87.6801H332.58L330.83 89.2801L322.08 84.6201L323.23 82.7301V48.4201L322.08 46.5201L330.83 41.8701L332.58 43.4701H339.88L342.63 42.0701ZM368.23 45.4701V86.4701L369.63 89.2201H357.33L358.73 86.4701V68.7701H354.53V86.4301H354.58L355.98 89.1801H343.68L345 86.5301V45.3701L343.65 42.7201H356L354.6 45.4701H354.55V59.7701H358.75V45.4701L357.35 42.7201H369.65L368.23 45.4701Z" fill="white"/>
<path d="M379 70.57L370.25 62.42L373 61.92C376.925 58.828 380.018 54.807 382 50.22V46.22L380.6 43.47H394.4L393 46.22V50.22C394.968 54.8015 398.043 58.822 401.95 61.92L404.7 62.42L395.95 70.57L394.65 67.82C391.673 65.5448 389.232 62.643 387.5 59.32C385.768 62.643 383.327 65.5448 380.35 67.82L379 70.57ZM386.5 80.42H415.2L418 79V90.58L415.25 89.18H385.38L383.63 90.78L374.38 86.12L375.53 84.23V74L374.13 71.25H387.93L386.53 74L386.5 80.42ZM417.5 45.47V73.22L418.9 75.97H405.1L406.5 73.22V45.47L405.1 42.72H418.9L417.5 45.47Z" fill="white"/>
<path d="M436 60.6701C439.52 58.5477 442.431 55.5506 444.45 51.9701H438.2L435.45 53.3701V42.0701L438.2 43.4701H461.7L464.45 42.0701V53.3701L461.73 52.0001H455.48C457.635 55.083 460.544 57.5619 463.93 59.2001L466.68 59.4501L458.93 68.6001L457.63 66.1001C454.08 63.8501 451.23 61.1001 449.98 58.8501C448.107 62.2956 445.495 65.2837 442.33 67.6001L441.03 70.1001L433.28 60.9501L436 60.6701ZM479.7 79.4701C479.7 88.4701 469.2 90.3301 458.25 90.3301C447.3 90.3301 436.8 88.4301 436.8 79.4701C436.8 70.5101 447.3 68.6201 458.25 68.6201C469.2 68.6201 479.73 70.5201 479.73 79.4701H479.7ZM468.7 79.4701C468.7 76.9201 464.15 76.6201 458.25 76.6201C452.35 76.6201 447.8 76.9201 447.8 79.4701C447.8 82.0201 452.35 82.3301 458.25 82.3301C464.15 82.3301 468.73 82.0001 468.73 79.4701H468.7ZM480.45 50.8201L483.2 49.4201V61.0001L480.45 59.6001H478V65.2501L479.4 68.0001H465.6L467 65.2501V45.4701L465.6 42.7201H479.4L478 45.4701V50.8201H480.45Z" fill="white"/>
<path d="M512.53 82.73L513.68 84.62L504.43 89.28L502.68 87.68H495.33L493.58 89.28L484.33 84.62L485.48 82.73V46.22L484.08 43.47H497.38L496 46.22V58.07H502V46.22L500.6 43.47H513.9L512.5 46.22L512.53 82.73ZM496 78.67H502V67.07H496V78.67ZM530.5 60.22L533.25 58.82V70.87L530.5 69.47H527V86.47L528.4 89.22H514.6L516 86.47V45.47L514.6 42.72H528.4L527 45.47V60.22H530.5Z" fill="white"/>
<path d="M578 65.0001L580.75 63.6001V75.6701L578 74.2701H563.23V86.4301L564.63 89.1801H550.831L552.23 86.4301V74.2701H537.48L534.73 75.6701V63.6201L537.48 65.0201L578 65.0001ZM568 52.4701H539.5L536.75 53.8701V42.0701L539.5 43.4701H569.151L570.901 41.8701L580.151 45.7701L579 47.6701V63.5201H568V52.4701Z" fill="white"/>
<path d="M597.73 78.42H613L615.65 77.08V89.08L612.9 87.68H596.6L594.85 89.28L585.6 84.62L586.75 82.73V46.22L585.35 43.47H599.15L597.75 46.22L597.73 78.42ZM630 45.47V86.47L631.4 89.22H617.6L619 86.47V45.47L617.6 42.72H631.4L630 45.47Z" fill="white"/>
<path d="M677.83 65.6699C677.83 78.8799 674.28 88.6699 662.58 88.6699C650.88 88.6699 647.33 78.8699 647.33 65.6699C647.33 52.4699 650.88 42.6699 662.58 42.6699C674.28 42.6699 677.83 52.4699 677.83 65.6699ZM667.33 65.6699C667.33 59.1699 666.63 52.4199 662.58 52.4199C658.53 52.4199 657.83 59.1699 657.83 65.6699C657.83 72.1699 658.53 78.9199 662.58 78.9199C666.63 78.9199 667.33 72.1699 667.33 65.6699ZM692.48 45.4699V86.4699L693.88 89.2199H680.08L681.48 86.4699V45.4699L680.08 42.7199H693.88L692.48 45.4699Z" fill="white"/>
<path d="M740.48 62.3201L743.23 60.9201V71.2201L740.48 69.8201H700L697.25 71.2201V60.9201L700 62.3201H705.3V58.6701C701.15 57.3201 698.3 54.9701 698.3 50.9701C698.3 42.8201 710.2 41.5701 720.3 41.5701C730.4 41.5701 742.3 42.8201 742.3 50.9701C742.3 54.9701 739.4 57.3201 735.25 58.6701V62.3201H740.48ZM742.23 80.8301C742.23 89.0801 730.33 90.3301 720.23 90.3301C710.13 90.3301 698.23 89.0801 698.23 80.8301C698.23 72.5801 710.13 71.3201 720.23 71.3201C730.33 71.3201 742.23 72.5701 742.23 80.8301ZM709.23 51.0001C709.23 53.0001 715.08 53.1501 720.23 53.1501C725.38 53.1501 731.23 53.0001 731.23 51.0001C731.23 49.0001 725.38 48.8501 720.23 48.8501C715.08 48.8501 709.23 49.0001 709.23 51.0001ZM731.23 80.8601C731.23 78.7501 725.38 78.6101 720.23 78.6101C715.08 78.6101 709.23 78.7501 709.23 80.8601C709.23 82.9701 715.08 83.1101 720.23 83.1101C725.38 83.1101 731.23 82.9201 731.23 80.8301V80.8601ZM715.78 62.3201H724.68V60.3201C723.18 60.3201 721.68 60.4201 720.23 60.4201C718.78 60.4201 717.23 60.4201 715.78 60.3201V62.3201Z" fill="white"/>
<path d="M766.88 47.22H773.78L776.53 45.82V57.37L773.78 56H749L746.25 57.4V45.82L749 47.22H755.9V45L754.5 42.25H768.3L766.88 45V47.22ZM775.68 73.07C775.68 82.58 770.73 88.93 761.38 88.93C752.03 88.93 747.08 82.58 747.08 73.07C747.08 63.56 752.03 57.22 761.38 57.22C770.73 57.22 775.68 63.57 775.68 73.07ZM765.43 73.07C765.43 69.32 764.18 66.47 761.43 66.47C758.68 66.47 757.43 69.32 757.43 73.07C757.43 76.82 758.68 79.67 761.43 79.67C764.18 79.67 765.43 76.83 765.43 73.07ZM793 61.22L795.75 59.82V71.87L793 70.47H789.55V86.47L790.95 89.22H777.15L778.55 86.47V45.47L777.15 42.72H790.95L789.55 45.47V61.22H793Z" fill="white"/>
<path d="M826.43 87.6799H812.63L814.031 84.9199V52.7199H800.23L797.48 54.1199V42.1199L800.23 43.5199H815.18L816.93 41.9199L826.18 46.5699L825 48.4199V84.9199L826.43 87.6799ZM842.48 45.4699V86.4699L843.88 89.2199H830.081L831.48 86.4699V45.4699L830.081 42.7199H843.88L842.48 45.4699Z" fill="white"/>
</g>
<defs>
<linearGradient id="paint0_linear_104_3995" x1="207.1" y1="337.1" x2="747.3" y2="-203.1" gradientUnits="userSpaceOnUse">
<stop stop-color="#6D10FA"/>
<stop offset="1" stop-color="#D951FA"/>
</linearGradient>
<clipPath id="clip0_104_3995">
<rect width="100%" height="100%" fill="white"/>
</clipPath>
</defs>
</svg>
