<svg viewBox="0 0 953 133" fill="none" xmlns="http://www.w3.org/2000/svg">
<g clip-path="url(#clip0_104_3902)">
<path d="M951.45 1.05005H1.0498V131.05H951.45V1.05005Z" fill="url(#paint0_linear_104_3902)"/>
<path d="M952.5 132.1H0V0H952.5V132.1ZM2.1 130H950.4V2.1H2.1V130Z" fill="#0B3260"/>
<path d="M137.58 83.77L138.73 85.67L129.48 90.32L127.73 88.72H119.38L117.63 90.32L108.38 85.67L109.53 83.77V47.27L108.13 44.52H121.43L120 47.27V59.12H127V47.27L125.6 44.52H139L137.6 47.27L137.58 83.77ZM120.03 79.77H127.03V68.12H120.03V79.77ZM154.03 46.57V87.47L155.43 90.22H141.63L143.03 87.47V46.52L141.63 43.77H155.43L154.03 46.57Z" fill="#416CB7"/>
<path d="M159.38 62.12L160.53 60.22V47.27L159.13 44.52H172.93L171.53 47.27V56.42H184.93L187.68 55.02V66.02L184.93 64.62H162.93L159.38 62.12ZM205.18 69.57L204 71.47V77.47L205.15 79.37L201.6 81.92H173.08V83.52H201.28L204.03 82.12V91.67L201.28 90.27H171.93L170.18 91.87L160.93 87.97L162.08 86.07V79.87L160.93 77.97L164.48 75.42H193V73.82H164.28L162.08 74.82V66L164.28 67H201.63L205.18 69.57ZM204.03 46.57V63L205.43 65.75H191.63L193 63V46.52L191.6 43.77H205.4L204.03 46.57Z" fill="#416CB7"/>
<path d="M252 64.87L254.75 63.47V73.27L252 71.87H211.5L208.75 73.27V63.47L211.5 64.87H226.25V62.12H212.93L209.38 59.57L210.53 57.67V46.52L209.13 43.77H222.93L221.63 46.37H241.93L240.63 43.77H254.43L253 46.52V57.67L254.15 59.57L250.6 62.12H237.28V64.87H252ZM253.75 82.37C253.75 90.17 241.85 91.37 231.75 91.37C221.65 91.37 209.75 90.17 209.75 82.37C209.75 74.57 221.65 73.37 231.75 73.37C241.85 73.37 253.78 74.57 253.78 82.37H253.75ZM242.75 82.37C242.75 80.27 236.9 80.12 231.75 80.12C226.6 80.12 220.75 80.27 220.75 82.37C220.75 84.47 226.6 84.62 231.75 84.62C236.9 84.62 242.78 84.47 242.78 82.37H242.75ZM221.5 53.37V55.12H242V53.37H221.5Z" fill="#416CB7"/>
<path d="M302 73.2701L304.75 71.8701V83.1701L302 81.7701H287.28V87.4701L288.68 90.2201H274.88L276.28 87.4701V81.7701H261.53L258.78 83.1701V71.8701L261.53 73.2701H302ZM259.1 47.3201L268.85 42.5701L271 44.5701H300.25L303 43.1701V53.6701L300.25 52.2701H271.53V54.3701H302.53V61.6201H271.53V63.7201H300.28L303.03 62.3201V72.3701L300.28 71.0001H271L268.85 73.0001L259.1 68.2501L260.5 65.9501V49.6201L259.1 47.3201Z" fill="#416CB7"/>
<path d="M341.68 43.1199V55.1699L338.93 53.7699H332.28V79.4699H338.93L341.68 78.0699V90.1199L338.93 88.7199H331.63L329.88 90.3199L321.13 85.6699L322.28 83.7699V49.4699L321.13 47.5699L329.88 42.9199L331.63 44.5199H338.93L341.68 43.1199ZM367.28 46.5199V87.4699L368.68 90.2199H356.38L357.78 87.4699V69.8199H353.58V87.4699H353.63L355.03 90.2199H342.73L344.08 87.5699V46.4199L342.73 43.7699H355L353.6 46.5199H353.55V60.8199H357.75V46.5199L356.35 43.7699H368.65L367.28 46.5199Z" fill="#416CB7"/>
<path d="M378.08 71.62L369.33 63.47L372.08 62.97C375.976 59.8685 379.041 55.8483 381 51.27V47.27L379.6 44.52H393.4L392 47.27V51.27C393.977 55.8679 397.071 59.8997 401 63L403.75 63.5L395 71.62L393.7 68.87C390.723 66.5948 388.282 63.693 386.55 60.37C384.818 63.693 382.377 66.5948 379.4 68.87L378.08 71.62ZM385.58 81.47H414.28L417.03 80.07V91.62L414.28 90.22H384.43L382.68 91.82L373.43 87.17L374.58 85.27V75.07L373.18 72.32H387L385.6 75.07L385.58 81.47ZM416.53 46.52V74.27L417.93 77.02H404.13L405.53 74.27V46.52L404.13 43.77H417.93L416.53 46.52Z" fill="#416CB7"/>
<path d="M435.08 61.7201C438.6 59.5978 441.511 56.6006 443.53 53.0201H437.28L434.53 54.4201V43.1201L437.28 44.5201H460.78L463.53 43.1201V54.4201L460.78 53.0001H454.53C456.685 56.083 459.594 58.5619 462.98 60.2001L465.73 60.4501L458 69.6201L456.7 67.1201C453.15 64.8701 450.3 62.0701 449.05 59.8701C447.177 63.3156 444.565 66.3038 441.4 68.6201L440.1 71.1201L432.33 62.0001L435.08 61.7201ZM478.78 80.5201C478.78 89.5201 468.28 91.3701 457.33 91.3701C446.38 91.3701 435.88 89.4701 435.88 80.5201C435.88 71.5701 446.38 69.6701 457.33 69.6701C468.28 69.6701 478.78 71.5701 478.78 80.5201ZM467.78 80.5201C467.78 77.9701 463.23 77.6701 457.33 77.6701C451.43 77.6701 446.88 77.9701 446.88 80.5201C446.88 83.0701 451.43 83.3701 457.33 83.3701C463.23 83.3701 467.78 83.0701 467.78 80.5201ZM479.53 51.8701L482.28 50.4701V62.0001L479.53 60.6001H477.08V66.2501L478.48 69.0001H464.68L466.08 66.2501V46.5201L464.68 43.7701H478.48L477.08 46.5201V51.8701H479.53Z" fill="#416CB7"/>
<path d="M511.58 83.77L512.73 85.67L503.48 90.32L501.73 88.72H494.38L492.63 90.32L483.38 85.67L484.53 83.77V47.27L483.12 44.52H496.43L495 47.27V59.12H501.05V47.27L499.65 44.52H513L511.6 47.27L511.58 83.77ZM495.03 79.77H501.08V68.12H495L495.03 79.77ZM529.53 61.32L532.28 59.92V71.92L529.53 70.52H526.08V87.52L527.48 90.27H513.68L515.08 87.52V46.52L513.68 43.77H527.48L526.08 46.52V61.27L529.53 61.32Z" fill="#416CB7"/>
<path d="M577 66.0699L579.75 64.6699V76.6699L577 75.3199H562.28V87.4699L563.68 90.2199H549.88L551.28 87.4699V75.3199H536.53L533.78 76.7199V64.7199L536.53 66.1199L577 66.0699ZM567 53.5199H538.5L535.75 54.9199V43.1199L538.5 44.5199H568.15L569.9 42.9199L579.15 46.8199L578 48.7199V64.5699H567V53.5199Z" fill="#416CB7"/>
<path d="M596.78 79.47H612L614.65 78.12V90.12L611.9 88.72H595.6L593.85 90.32L584.6 85.67L585.75 83.77V47.27L584.35 44.52H598.15L596.75 47.27L596.78 79.47ZM629 46.52V87.47L630.4 90.22H616.6L618 87.47V46.52L616.6 43.77H630.4L629 46.52Z" fill="#416CB7"/>
<path d="M676.88 66.72C676.88 79.92 673.33 89.72 661.63 89.72C649.93 89.72 646.38 79.92 646.38 66.72C646.38 53.52 649.93 43.72 661.63 43.72C673.33 43.72 676.88 53.52 676.88 66.72ZM666.38 66.72C666.38 60.22 665.68 53.47 661.63 53.47C657.58 53.47 656.88 60.22 656.88 66.72C656.88 73.22 657.58 80 661.63 80C665.68 80 666.38 73.22 666.38 66.72ZM691.53 46.52V87.47L692.93 90.22H679.13L680.53 87.47V46.52L679.13 43.77H692.93L691.53 46.52Z" fill="#416CB7"/>
<path d="M739.53 63.3701L742.28 61.9701V72.2701L739.53 70.8701H699L696.25 72.2701V62.0001L699 63.4001H704.3V59.7201C700.15 58.3701 697.25 56.0201 697.25 52.0201C697.25 43.8701 709.15 42.6201 719.25 42.6201C729.35 42.6201 741.25 43.8701 741.25 52.0201C741.25 56.0201 738.35 58.3701 734.25 59.7201V63.3701H739.53ZM741.28 81.8701C741.28 90.1201 729.38 91.3701 719.28 91.3701C709.18 91.3701 697.28 90.1201 697.28 81.8701C697.28 73.6201 709.18 72.3701 719.28 72.3701C729.38 72.3701 741.28 73.6201 741.28 81.8701ZM708.28 52.0001C708.28 54.0001 714.13 54.1501 719.28 54.1501C724.43 54.1501 730.28 54.0001 730.28 52.0001C730.28 50.0001 724.43 49.8501 719.28 49.8501C714.13 49.8501 708.28 50.0001 708.28 52.0001ZM730.28 81.8501C730.28 79.7501 724.43 79.6001 719.28 79.6001C714.13 79.6001 708.28 79.7501 708.28 81.8501C708.28 83.9501 714.13 84.1001 719.28 84.1001C724.43 84.1001 730.28 84.0001 730.28 81.8701V81.8501ZM714.83 63.3501H723.73V61.3501C722.23 61.3501 720.73 61.4501 719.28 61.4501C717.83 61.4501 716.33 61.4001 714.83 61.3501V63.3501Z" fill="#416CB7"/>
<path d="M765.93 48.27H772.83L775.58 46.87V58.42L772.83 57H748L745.25 58.4V46.87L748 48.27H754.9V46L753.5 43.25H767.3L765.93 46V48.27ZM774.73 74.12C774.73 83.62 769.73 89.97 760.43 89.97C751.13 89.97 746.13 83.62 746.13 74.12C746.13 64.62 751.13 58.27 760.43 58.27C769.73 58.27 774.73 64.62 774.73 74.12ZM764.48 74.12C764.48 70.37 763.23 67.52 760.43 67.52C757.63 67.52 756.43 70.37 756.43 74.12C756.43 77.87 757.68 80.72 760.43 80.72C763.18 80.72 764.48 77.87 764.48 74.12ZM792 62.27L794.75 60.87V72.92L792 71.52H788.55V87.52L789.95 90.27H776.15L777.55 87.52V46.52L776.15 43.77H790L788.6 46.52V62.27H792Z" fill="#416CB7"/>
<path d="M825.48 88.7199H811.68L813.08 85.9699V53.7699H799.28L796.53 55.1699V43.1199L799.28 44.5199H814.28L816.03 42.9199L825.28 47.5699L824.13 49.4699V85.9999L825.48 88.7199ZM841.48 46.5199V87.4699L842.88 90.2199H829.08L830.48 87.4699V46.5199L829.08 43.7699H842.88L841.48 46.5199Z" fill="#416CB7"/>
</g>
<defs>
<linearGradient id="paint0_linear_104_3902" x1="206.15" y1="336.15" x2="746.35" y2="-204.05" gradientUnits="userSpaceOnUse">
<stop stop-color="#183372"/>
<stop offset="1" stop-color="#1850A2"/>
</linearGradient>
<clipPath id="clip0_104_3902">
<rect width="100%" height="100%" fill="white"/>
</clipPath>
</defs>
</svg>
