<svg viewBox="0 0 953 133" fill="none" xmlns="http://www.w3.org/2000/svg">
<g clip-path="url(#clip0_104_3881)">
<path d="M951.45 1.05005H1.0498V131.05H951.45V1.05005Z" fill="url(#paint0_linear_104_3881)"/>
<path d="M952.5 132.1H0V0H952.5V132.1ZM2.1 130H950.4V2.1H2.1V130Z" fill="#0B3260"/>
<path d="M118 46.52V74.27L119.4 77H105.6L107 74.25V62.77H100.85V54H101.2L99.7498 53.25H93.4998C95.3484 57.7132 98.2677 61.6525 102 64.72L104.75 65.22L95.9998 73.37L94.6998 70.62C91.8383 68.0444 89.5549 64.8919 87.9998 61.37C86.4593 64.8873 84.1932 68.0394 81.3498 70.62L80.0498 73.37L71.2998 65.22L74.0498 64.72C77.761 61.6523 80.6625 57.7206 82.4998 53.27H76.2498L73.4998 54.67V43.12L76.2498 44.52H99.7498L102.5 43.12V54H107V46.5L105.6 43.75H119.4L118 46.52ZM87.0498 81.47H115.75L118.5 80.07V91.62L115.75 90.22H85.8998L84.1498 91.82L74.8998 87.17L76.0498 85.27V76.57L74.6498 73.82H88.4498L87.0498 76.57V81.47Z" fill="#416CB7"/>
<path d="M168.5 61.27L171.25 59.87V71.92L168.5 70.52H165.05V87.52L166.45 90.27H152.65L154.05 87.52V83L144.8 89.65L144.3 86.55C141.55 82.05 138.85 77.05 137.6 73.15C136.35 77.05 133.65 82.05 130.9 86.55L130.4 89.65L120.4 82.45L122.5 81.7C126.336 75.3922 129.551 68.7278 132.1 61.8V53.8H126.35L123.6 55.2V43.12L126.35 44.52H148.85L151.6 43.12V55.17L148.85 53.77H143.1V61.77C145.65 68.6978 148.865 75.3622 152.7 81.67L154.05 82.17V46.52L152.65 43.77H166.45L165.05 46.52V61.27H168.5Z" fill="#416CB7"/>
<path d="M185.25 56.12C185.25 48.57 191.2 43.52 199.6 43.52C208 43.52 213.95 48.52 213.95 56.12C213.95 63.72 208 68.72 199.6 68.72C191.2 68.72 185.25 63.67 185.25 56.12ZM231.7 80.52C231.7 89.52 220.95 91.37 209.75 91.37C198.55 91.37 187.8 89.47 187.8 80.52C187.8 71.57 198.55 69.67 209.75 69.67C220.95 69.67 231.7 71.57 231.7 80.52ZM195.25 56.12C195.202 56.9914 195.417 57.8571 195.866 58.6052C196.315 59.3533 196.979 59.9493 197.771 60.3162C198.563 60.683 199.446 60.8037 200.308 60.6628C201.169 60.5218 201.968 60.1257 202.602 59.5256C203.235 58.9254 203.674 58.149 203.862 57.2967C204.049 56.4443 203.976 55.5554 203.653 54.7448C203.33 53.9342 202.771 53.2392 202.048 52.7499C201.326 52.2606 200.473 51.9993 199.6 52C199.04 51.9687 198.479 52.0521 197.953 52.2451C197.426 52.4381 196.944 52.7366 196.537 53.1223C196.13 53.508 195.805 53.9729 195.584 54.4884C195.363 55.0038 195.249 55.5591 195.25 56.12ZM220.7 80.52C220.7 77.97 215.95 77.67 209.75 77.67C203.55 77.67 198.8 77.97 198.8 80.52C198.8 83.07 203.55 83.37 209.75 83.37C215.95 83.37 220.7 83.07 220.7 80.52ZM230.5 46.52V66.27L231.9 69H218.1L219.5 66.25V65.55H214.25V57.82H219.5V55H214.25V47.27H219.5V46.52L218.1 43.77H231.9L230.5 46.52Z" fill="#416CB7"/>
<path d="M240.3 69.6201L234.8 59H237.55C244.35 56.85 249.1 54.1 252.75 50.8V47.3L251.35 44.55H265.15L263.75 47.3V50.8C267.4 54.1 272.15 56.8 278.95 59H281.7L276.2 69.6501L274.9 67.4001C268.15 64.9001 261.45 61.3001 258.25 57.9001C255.05 61.3001 248.35 64.9001 241.6 67.4001L240.3 69.6201ZM238 70.07H278.5L281.25 68.67V80.67L278.5 79.27H263.75V87.42L265.15 90.17H251.35L252.75 87.42V79.32H238L235.25 80.7201V68.7201L238 70.07Z" fill="#416CB7"/>
<path d="M331.25 63.22V73.22L328.5 71.82H288L285.25 73.22V63.22L288 64.62H328.5L331.25 63.22ZM290.8 62.57L289.2 64.62L285.65 54.82L288.45 55.07C293.387 54.4467 298.206 53.0989 302.75 51.07H290L287.25 52.47V42.37L290 43.77H326.5L329.25 42.37V52.42L326.5 51H313.75C318.367 53.0194 323.25 54.3664 328.25 55L331 54.75L327.3 64.5L325.8 62.4C319.3 61.1 312.3 59.1 308.25 56.8C304.2 59.22 297.25 61.27 290.8 62.57ZM330.25 82.37C330.25 90.22 318.35 91.37 308.25 91.37C298.15 91.37 286.25 90.22 286.25 82.37C286.25 74.52 298.15 73.37 308.25 73.37C318.35 73.37 330.25 74.52 330.25 82.37ZM319.25 82.37C319.25 80.52 313.4 80.37 308.25 80.37C303.1 80.37 297.25 80.52 297.25 82.37C297.25 84.22 303.1 84.37 308.25 84.37C313.4 84.37 319.25 84.22 319.25 82.37Z" fill="#416CB7"/>
<path d="M338.45 91.92H333.25L350.05 41.92H355.2L338.45 91.92Z" fill="#416CB7"/>
<path d="M400.45 79.47L403.2 78.07V90.12L400.45 88.72H360L357.25 90.12V78.07L360 79.47H374.7V72.72H369.45L367.3 74.72L357.55 69.97L358.95 67.67V49.67L357.55 47.37L367.3 42.62L369.45 44.62H401.45V67.72L402.85 70.02L393.1 74.77L390.95 72.77H385.7V79.52L400.45 79.47ZM369.95 63.47H390.45V53.77H370L369.95 63.47Z" fill="#416CB7"/>
<path d="M435 83.77L436.15 85.67L426.9 90.32L425.15 88.72H417.8L416.05 90.32L406.8 85.67L407.95 83.77V47.27L406.55 44.52H419.85L418.45 47.27V59.12H424.5V47.27L423.1 44.52H436.4L435 47.27V83.77ZM418.45 79.77H424.5V68.12H418.45V79.77ZM453 61.27L455.75 59.87V71.92L453 70.52H449.5V87.52L450.9 90.27H437.1L438.5 87.52V46.52L437.1 43.77H450.9L449.5 46.52V61.27H453Z" fill="#416CB7"/>
<path d="M457.2 54.87C457.2 48.07 463.25 43.52 471.8 43.52C480.35 43.52 486.4 48.07 486.4 54.87C486.4 61.37 480.4 65.72 471.8 65.72C463.2 65.72 457.2 61.37 457.2 54.87ZM503.6 69.57L502.45 71.47V77.47L503.6 79.37L500.05 81.92H471V83.52H499.7L502.45 82.12V91.67L499.7 90.27H469.85L468.1 91.87L458.85 87.97L460 86V79.8L458.85 77.9L462.4 75.35H491.45V73.75H462.2L460 74.75V66L462.2 67H500.05L503.6 69.57ZM467.2 54.87C467.2 56.87 469.25 58.22 471.8 58.22C474.35 58.22 476.4 56.87 476.4 54.87C476.4 52.87 474.4 51.52 471.8 51.52C469.2 51.52 467.2 52.87 467.2 54.87ZM502.45 46.52V63L503.85 65.75H490.05L491.45 63V46.52L490.05 43.77H503.85L502.45 46.52Z" fill="#416CB7"/>
<path d="M521 63C524.318 61.0764 527.076 58.3185 529 55H523.2L520.45 56.4V45.12L523.2 46.52H529V45.52L527.6 42.77H541.4L540 45.52V46.52H545.75L548.5 45.12V56.42L545.7 55H540C542.086 57.6339 544.803 59.6978 547.9 61L550.65 61.5L543.4 70.4L542.1 67.65C539.3 66.1 536 63.75 534.45 61.4C532.9 64.55 529.6 67.55 526.8 69.65L525.5 72.4L518.25 63.5L521 63ZM566.2 81C566.2 89.55 555.45 91.35 544.2 91.35C532.95 91.35 522.2 89.55 522.2 81C522.2 72.45 532.95 70.65 544.2 70.65C555.45 70.65 566.2 72.47 566.2 81ZM555.2 81C555.2 78.4 550.45 78.15 544.2 78.15C537.95 78.15 533.2 78.4 533.2 81C533.2 83.6 537.95 83.85 544.2 83.85C550.45 83.85 555.2 83.62 555.2 81ZM565 46.52V67.27L566.4 70.02H552.6L554 67.27V59.37H549.3V50.62H554V46.52L552.6 43.77H566.4L565 46.52Z" fill="#416CB7"/>
<path d="M613 66.07L615.75 64.67V76.67L613 75.32H598.2V87.47L599.6 90.22H585.8L587.2 87.47V75.32H572.45L569.7 76.72V64.72L572.45 66.12L613 66.07ZM603 53.52H574.5L571.75 54.92V43.12L574.5 44.52H604.1L605.85 42.92L615.1 46.82L614 48.72V64.57H603V53.52Z" fill="#416CB7"/>
<path d="M640.05 61.77C642.599 68.6978 645.815 75.3623 649.65 81.67L651.75 82.42L641.75 89.62L641.25 86.52C638.5 82.02 635.8 77.02 634.55 73.12C633.3 77.02 630.6 82.02 627.85 86.52L627.35 89.62L617.35 82.42L619.45 81.67C623.285 75.3623 626.5 68.6978 629.05 61.77V47.17L627.55 44.52H641.55L640.05 47.17V61.77ZM665 46.52V87.47L666.4 90.22H652.6L654 87.47V68H648L645.25 69.4V57.37L648 58.77H654V46.52L652.6 43.77H666.4L665 46.52Z" fill="#416CB7"/>
<path d="M712.8 66.72C712.8 79.92 709.25 89.72 697.55 89.72C685.85 89.72 682.3 79.92 682.3 66.72C682.3 53.52 685.85 43.72 697.55 43.72C709.25 43.72 712.8 53.52 712.8 66.72ZM702.3 66.72C702.3 60.22 701.6 53.47 697.55 53.47C693.5 53.47 692.8 60.22 692.8 66.72C692.8 73.22 693.5 80 697.55 80C701.6 80 702.3 73.22 702.3 66.72ZM727.45 46.52V87.47L728.85 90.22H715.05L716.45 87.47V46.52L715.05 43.77H728.85L727.45 46.52Z" fill="#416CB7"/>
<path d="M775.45 63.37L778.2 62V72.3L775.45 70.9H735L732.25 72.3V62L735 63.4H740.3V59.72C736.15 58.37 733.3 56.02 733.3 52.02C733.3 43.87 745.2 42.62 755.3 42.62C765.4 42.62 777.3 43.87 777.3 52.02C777.3 56.02 774.4 58.37 770.25 59.72V63.37H775.45ZM777.2 81.87C777.2 90.12 765.3 91.37 755.2 91.37C745.1 91.37 733.2 90.12 733.2 81.87C733.2 73.62 745.1 72.37 755.2 72.37C765.3 72.37 777.2 73.62 777.2 81.87ZM744.2 52C744.2 54 750.05 54.15 755.2 54.15C760.35 54.15 766.2 54 766.2 52C766.2 50 760.35 49.85 755.2 49.85C750.05 49.85 744.2 50 744.2 52ZM766.2 81.85C766.2 79.75 760.35 79.6 755.2 79.6C750.05 79.6 744.2 79.75 744.2 81.85C744.2 83.95 750.05 84.1 755.2 84.1C760.35 84.1 766.2 84 766.2 81.87V81.85ZM750.75 63.35H759.65V61.35C758.15 61.35 756.65 61.45 755.2 61.45C753.75 61.45 752.2 61.4 750.75 61.35V63.35Z" fill="#416CB7"/>
<path d="M801.85 48.27H808.75L811.5 46.87V58.42L808.75 57H784L781.25 58.4V46.87L784 48.27H790.9V46L789.5 43.25H803.3L801.85 46V48.27ZM810.65 74.12C810.65 83.62 805.7 89.97 796.35 89.97C787 89.97 782.05 83.62 782.05 74.12C782.05 64.62 787.05 58.27 796.35 58.27C805.65 58.27 810.65 64.62 810.65 74.12ZM800.4 74.12C800.4 70.37 799.15 67.52 796.4 67.52C793.65 67.52 792.35 70.37 792.35 74.12C792.35 77.87 793.6 80.72 796.4 80.72C799.2 80.72 800.4 77.87 800.4 74.12ZM828 62.27L830.75 60.87V72.92L828 71.52H824.5V87.52L825.9 90.27H812.1L813.5 87.52V46.52L812.1 43.77H825.9L824.5 46.52V62.27H828Z" fill="#416CB7"/>
<path d="M861.4 88.72H847.6L849 86V53.77H835.2L832.45 55.17V43.12L835.2 44.52H850.15L851.9 42.92L861.15 47.57L860 49.47V86L861.4 88.72ZM877.45 46.52V87.47L878.85 90.22H865.05L866.45 87.47V46.52L865.05 43.77H878.85L877.45 46.52Z" fill="#416CB7"/>
</g>
<defs>
<linearGradient id="paint0_linear_104_3881" x1="206.15" y1="336.15" x2="746.35" y2="-204.05" gradientUnits="userSpaceOnUse">
<stop stop-color="#183372"/>
<stop offset="1" stop-color="#1850A2"/>
</linearGradient>
<clipPath id="clip0_104_3881">
<rect width="100%" height="100%" fill="white"/>
</clipPath>
</defs>
</svg>
