<svg class="tree-image-resource" viewBox="0 0 860 860" fill="none" xmlns="http://www.w3.org/2000/svg">
<g clip-path="url(#clip0_119_3894)">
<path d="M419.992 535.298L362.984 526.414C362.984 526.414 364.366 666.599 366.645 695.83C354.594 697.506 342.099 710.619 344.667 724.576C346.92 736.821 355.629 745.414 380.203 744.606C393.931 744.155 405.005 743.029 411.998 733.923C415.09 729.827 416.811 724.859 416.915 719.729C417.369 703.412 418.882 576.386 419.992 535.298Z" fill="#FFEBD1" stroke="#0A13FF" stroke-width="3.9107" stroke-miterlimit="10"/>
<path d="M440.008 535.298L497.016 526.414C497.016 526.414 495.634 666.599 493.355 695.83C505.406 697.506 517.901 710.619 515.333 724.576C513.08 736.821 504.371 745.414 479.797 744.606C466.069 744.155 454.995 743.029 448.002 733.923C444.91 729.827 443.189 724.859 443.085 719.729C442.631 703.412 441.118 576.386 440.008 535.298Z" fill="#FFEBD1" stroke="#0A13FF" stroke-width="3.9107" stroke-miterlimit="10"/>
<path d="M425.723 527.245H355.148V579.404H425.723V527.245Z" fill="white" stroke="#0A13FF" stroke-width="3.9107" stroke-miterlimit="10"/>
<path d="M504.852 527.245H434.277V579.404H504.852V527.245Z" fill="white" stroke="#0A13FF" stroke-width="3.9107" stroke-miterlimit="10"/>
</g>
<defs>
<clipPath id="clip0_119_3894">
<rect width="100%" height="100%" fill="white"/>
</clipPath>
</defs>
</svg>
