<svg viewBox="0 0 952 1775" fill="none" xmlns="http://www.w3.org/2000/svg">
<g clip-path="url(#clip0_105_3636)">
<path d="M907.33 3.91992H44.5099C22.0927 3.91992 3.91992 22.0927 3.91992 44.5099V1730.33C3.91992 1752.75 22.0927 1770.92 44.5099 1770.92H907.33C929.747 1770.92 947.92 1752.75 947.92 1730.33V44.5099C947.92 22.0927 929.747 3.91992 907.33 3.91992Z" fill="white"/>
<path d="M907.33 1774.84H44.51C32.7093 1774.83 21.3957 1770.13 13.0513 1761.79C4.70692 1753.44 0.013234 1742.13 0 1730.33L0 44.51C0.013234 32.7093 4.70692 21.3957 13.0513 13.0513C21.3957 4.70692 32.7093 0.013234 44.51 0L907.33 0C919.131 0.013234 930.444 4.70692 938.789 13.0513C947.133 21.3957 951.827 32.7093 951.84 44.51V1730.33C951.827 1742.13 947.133 1753.44 938.789 1761.79C930.444 1770.13 919.131 1774.83 907.33 1774.84ZM44.51 7.84C34.7878 7.85059 25.4668 11.7174 18.5921 18.5921C11.7174 25.4668 7.85059 34.7878 7.84 44.51V1730.33C7.85059 1740.05 11.7174 1749.37 18.5921 1756.25C25.4668 1763.12 34.7878 1766.99 44.51 1767H907.33C917.052 1766.99 926.373 1763.12 933.248 1756.25C940.123 1749.37 943.989 1740.05 944 1730.33V44.51C943.989 34.7878 940.123 25.4668 933.248 18.5921C926.373 11.7174 917.052 7.85059 907.33 7.84H44.51Z" fill="white"/>
<path d="M903.75 48.47H44.0703V908.15H903.75V48.47Z" fill="#89F772"/>
<path d="M903.75 48.47H44.0703V908.15H903.75V48.47Z" fill="url(#paint0_radial_105_3636)"/>
<path d="M44.0703 908.15L141.01 908.47C141.01 908.36 141.01 908.26 141.01 908.15H44.0703Z" fill="#00C8FF"/>
<path d="M740.061 102.6C751.061 112.78 764.271 119.22 778.671 123.08C798.981 128.52 818.531 125.51 836.821 137.67C852.661 148.2 867.411 161.14 886.261 165.78C892 167.189 897.859 168.056 903.761 168.37V48.47H710.891C714.447 69.2128 724.692 88.2228 740.061 102.6Z" fill="#00C8FF"/>
<path d="M891.43 354.59C876.02 368.09 867.63 387.59 864.8 407.59C862.06 426.9 869.71 447.02 865.94 465.81C864.947 470.645 863.559 475.391 861.79 480C855.86 492.89 848.35 505 842.73 518.07C830.96 545.37 824.14 578.46 836.19 606.54C846.55 630.68 866.53 660.71 903.76 666.04V345.75C899.372 348.289 895.243 351.249 891.43 354.59Z" fill="#00C8FF"/>
<path d="M115.63 606.57C123.31 583.04 144.46 576.99 149.23 539.88C152.52 514.19 142.78 488.01 135.01 465.27C127.24 442.53 136.01 428.1 140.01 408.45C145.25 382.7 134.64 355.07 111.38 342.85C89.8303 331.53 64.4904 333.97 44.1104 345.85V666.05C47.345 666.512 50.6039 666.786 53.8703 666.87C97.2704 668 110.41 622.53 115.63 606.57Z" fill="#00C8FF"/>
<path d="M883.82 801.07C880.212 800.65 876.568 800.65 872.96 801.07C867.14 801.75 861.32 802.43 855.74 804.3C850.238 806.103 844.921 808.427 839.86 811.24C831.47 815.98 824.74 822.76 817.43 828.87C815.338 830.296 813.149 831.576 810.88 832.7C805.901 834.427 800.777 835.706 795.57 836.52C790.82 837.04 786.05 837.37 781.27 837.66C773.2 838.15 764.88 838.66 757.07 840.89C748.803 843.215 741.156 847.349 734.683 852.992C728.209 858.635 723.071 865.647 719.64 873.52C716.324 881.038 713.694 888.839 711.78 896.83C710.898 900.537 710.725 904.378 711.27 908.15H903.76V805.56C902.67 805.13 901.57 804.71 900.47 804.31C895.11 802.38 889.46 801.72 883.82 801.07Z" fill="#00C8FF"/>
<path d="M97.0698 853.18C94.2722 851.66 91.5583 849.991 88.9398 848.18C87.1151 846.604 85.3916 844.914 83.7798 843.12C82.2298 840.8 80.7798 838.4 79.3598 836.02C76.3738 831.038 72.9216 826.35 69.0498 822.02C62.2198 814.48 53.4198 809.28 44.0498 805.54V908.15H141C139.92 894.15 135.17 879.77 125.36 869.42C117.57 861.21 106.7 858.41 97.0698 853.18Z" fill="#00C8FF"/>
<path d="M112.4 140.74C141.07 109.88 141 54.89 141 48.65L44.0596 48.47V168.36C68.2296 169.69 95.7496 158.66 112.4 140.74Z" fill="#00C8FF"/>
<path d="M44.0693 908.15L141.009 908.47C141.009 908.36 141.009 908.26 141.009 908.15H44.0693Z" fill="url(#paint1_linear_105_3636)"/>
<path d="M740.061 102.6C751.061 112.78 764.271 119.22 778.671 123.08C798.981 128.52 818.531 125.51 836.821 137.67C852.661 148.2 867.411 161.14 886.261 165.78C892 167.189 897.859 168.056 903.761 168.37V48.47H710.891C714.447 69.2128 724.692 88.2228 740.061 102.6Z" fill="url(#paint2_linear_105_3636)"/>
<path d="M891.43 354.59C876.02 368.09 867.63 387.59 864.8 407.59C862.06 426.9 869.71 447.02 865.94 465.81C864.947 470.645 863.559 475.391 861.79 480C855.86 492.89 848.35 505 842.73 518.07C830.96 545.37 824.14 578.46 836.19 606.54C846.55 630.68 866.53 660.71 903.76 666.04V345.75C899.372 348.289 895.243 351.249 891.43 354.59Z" fill="url(#paint3_linear_105_3636)"/>
<path d="M115.629 606.57C123.309 583.04 144.459 576.99 149.229 539.88C152.519 514.19 142.779 488.01 135.009 465.27C127.239 442.53 136.009 428.1 140.009 408.45C145.249 382.7 134.639 355.07 111.379 342.85C89.8294 331.53 64.4894 333.97 44.1094 345.85V666.05C47.3441 666.512 50.6029 666.786 53.8694 666.87C97.2694 668 110.409 622.53 115.629 606.57Z" fill="url(#paint4_linear_105_3636)"/>
<path d="M757.07 840.89C748.803 843.215 741.156 847.349 734.683 852.992C728.209 858.635 723.071 865.647 719.64 873.52C716.324 881.038 713.694 888.839 711.78 896.83C710.898 900.537 710.725 904.378 711.27 908.15H903.76V805.56C902.67 805.13 901.57 804.71 900.47 804.31C895.11 802.38 889.47 801.72 883.82 801.07C880.212 800.65 876.568 800.65 872.96 801.07C867.14 801.75 861.32 802.43 855.74 804.3C850.238 806.103 844.921 808.427 839.86 811.24C831.47 815.98 824.74 822.76 817.43 828.87C815.338 830.296 813.149 831.576 810.88 832.7C805.901 834.427 800.777 835.706 795.57 836.52C790.82 837.04 786.05 837.37 781.27 837.66" fill="url(#paint5_linear_105_3636)"/>
<path d="M97.0698 853.18C94.2722 851.66 91.5583 849.991 88.9398 848.18C87.1151 846.604 85.3916 844.914 83.7798 843.12C82.2298 840.8 80.7798 838.4 79.3598 836.02C76.3738 831.038 72.9216 826.35 69.0498 822.02C62.2198 814.48 53.4198 809.28 44.0498 805.54V908.15H141C139.92 894.15 135.17 879.77 125.36 869.42C117.57 861.21 106.7 858.41 97.0698 853.18Z" fill="url(#paint6_linear_105_3636)"/>
<path d="M112.4 140.74C141.07 109.88 141 54.89 141 48.65L44.0596 48.47V168.36C68.2296 169.69 95.7496 158.66 112.4 140.74Z" fill="url(#paint7_linear_105_3636)"/>
<path d="M139.89 261.6C139.891 259.298 139.439 257.019 138.559 254.892C137.679 252.766 136.389 250.833 134.762 249.205C133.135 247.577 131.203 246.286 129.077 245.405C126.951 244.524 124.672 244.07 122.37 244.07C124.672 244.07 126.951 243.617 129.077 242.735C131.203 241.854 133.135 240.563 134.762 238.935C136.389 237.307 137.679 235.375 138.559 233.248C139.439 231.121 139.891 228.842 139.89 226.54C139.89 231.189 141.737 235.648 145.025 238.936C148.312 242.223 152.771 244.07 157.42 244.07C152.771 244.07 148.312 245.917 145.025 249.204C141.737 252.492 139.89 256.951 139.89 261.6Z" fill="white"/>
<path d="M658.36 864.63C658.36 862.328 657.907 860.049 657.025 857.923C656.144 855.797 654.853 853.865 653.225 852.238C651.597 850.611 649.664 849.321 647.538 848.441C645.411 847.561 643.132 847.109 640.83 847.11C645.479 847.11 649.938 845.263 653.226 841.976C656.513 838.688 658.36 834.229 658.36 829.58C658.359 831.882 658.811 834.161 659.691 836.288C660.571 838.414 661.861 840.347 663.488 841.975C665.115 843.603 667.047 844.894 669.173 845.775C671.299 846.657 673.578 847.11 675.88 847.11C673.579 847.109 671.3 847.561 669.174 848.441C667.048 849.321 665.116 850.612 663.489 852.239C661.862 853.866 660.571 855.798 659.691 857.924C658.811 860.05 658.359 862.329 658.36 864.63Z" fill="white"/>
<path d="M761.319 685.68C761.319 683.378 760.866 681.099 759.984 678.973C759.103 676.847 757.812 674.915 756.184 673.288C754.556 671.661 752.624 670.371 750.497 669.491C748.37 668.611 746.091 668.159 743.789 668.16C748.438 668.16 752.897 666.313 756.185 663.025C759.472 659.738 761.319 655.279 761.319 650.63C761.318 652.931 761.77 655.211 762.65 657.338C763.53 659.464 764.82 661.397 766.447 663.025C768.074 664.653 770.006 665.944 772.132 666.825C774.258 667.706 776.538 668.16 778.839 668.16C776.538 668.159 774.259 668.611 772.133 669.491C770.007 670.371 768.075 671.661 766.448 673.288C764.82 674.916 763.53 676.847 762.65 678.974C761.77 681.1 761.318 683.379 761.319 685.68Z" fill="white"/>
<path d="M197.5 171.81C197.497 164.168 194.459 156.84 189.055 151.438C183.65 146.035 176.321 143 168.68 143C176.323 143 183.654 139.964 189.059 134.559C194.463 129.154 197.5 121.823 197.5 114.18C197.5 121.823 200.536 129.154 205.941 134.559C211.346 139.964 218.676 143 226.32 143C218.678 143 211.349 146.035 205.944 151.438C200.54 156.84 197.502 164.168 197.5 171.81Z" fill="white"/>
<path d="M792.711 772C792.711 764.357 789.674 757.026 784.269 751.621C778.865 746.216 771.534 743.18 763.891 743.18C767.675 743.181 771.422 742.437 774.919 740.99C778.415 739.543 781.592 737.421 784.269 734.745C786.945 732.07 789.068 728.894 790.517 725.398C791.965 721.901 792.711 718.154 792.711 714.37C792.711 718.154 793.456 721.901 794.905 725.398C796.353 728.894 798.476 732.07 801.152 734.745C803.829 737.421 807.006 739.543 810.502 740.99C813.999 742.437 817.746 743.181 821.531 743.18C813.887 743.18 806.557 746.216 801.152 751.621C795.747 757.026 792.711 764.357 792.711 772Z" fill="white"/>
<path d="M177.6 807.04C184.647 807.04 190.36 801.327 190.36 794.28C190.36 787.233 184.647 781.52 177.6 781.52C170.553 781.52 164.84 787.233 164.84 794.28C164.84 801.327 170.553 807.04 177.6 807.04Z" fill="white"/>
<path d="M716.33 170.27C720.234 170.27 723.4 167.105 723.4 163.2C723.4 159.295 720.234 156.13 716.33 156.13C712.425 156.13 709.26 159.295 709.26 163.2C709.26 167.105 712.425 170.27 716.33 170.27Z" fill="white"/>
<path d="M794.769 324.42C798.674 324.42 801.839 321.255 801.839 317.35C801.839 313.445 798.674 310.28 794.769 310.28C790.865 310.28 787.699 313.445 787.699 317.35C787.699 321.255 790.865 324.42 794.769 324.42Z" fill="white"/>
<path d="M757.72 476.69C761.625 476.69 764.79 473.525 764.79 469.62C764.79 465.715 761.625 462.55 757.72 462.55C753.816 462.55 750.65 465.715 750.65 469.62C750.65 473.525 753.816 476.69 757.72 476.69Z" fill="white"/>
<path d="M240.76 674.02C244.665 674.02 247.83 670.855 247.83 666.95C247.83 663.045 244.665 659.88 240.76 659.88C236.856 659.88 233.69 663.045 233.69 666.95C233.69 670.855 236.856 674.02 240.76 674.02Z" fill="white"/>
<path d="M590.701 797.49C594.606 797.49 597.771 794.325 597.771 790.42C597.771 786.515 594.606 783.35 590.701 783.35C586.796 783.35 583.631 786.515 583.631 790.42C583.631 794.325 586.796 797.49 590.701 797.49Z" fill="white"/>
<path d="M308.18 875.03C312.085 875.03 315.25 871.865 315.25 867.96C315.25 864.055 312.085 860.89 308.18 860.89C304.276 860.89 301.11 864.055 301.11 867.96C301.11 871.865 304.276 875.03 308.18 875.03Z" fill="white"/>
<g clip-path="url(#clip1_105_3636)">
<path d="M827.245 692.732C828.463 692.732 829.451 691.744 829.451 690.526C829.451 689.308 828.463 688.32 827.245 688.32C826.027 688.32 825.039 689.308 825.039 690.526C825.039 691.744 826.027 692.732 827.245 692.732Z" fill="white"/>
</g>
<g clip-path="url(#clip2_105_3636)">
<path d="M495.645 81.7018C496.864 81.7018 497.851 80.7142 497.851 79.4959C497.851 78.2777 496.864 77.29 495.645 77.29C494.427 77.29 493.439 78.2777 493.439 79.4959C493.439 80.7142 494.427 81.7018 495.645 81.7018Z" fill="white"/>
</g>
<g clip-path="url(#clip3_105_3636)">
<path d="M836.815 271.702C838.034 271.702 839.021 270.714 839.021 269.496C839.021 268.278 838.034 267.29 836.815 267.29C835.597 267.29 834.609 268.278 834.609 269.496C834.609 270.714 835.597 271.702 836.815 271.702Z" fill="white"/>
</g>
<g clip-path="url(#clip4_105_3636)">
<path d="M74.8661 268.152C76.0843 268.152 77.072 267.164 77.072 265.946C77.072 264.728 76.0843 263.74 74.8661 263.74C73.6478 263.74 72.6602 264.728 72.6602 265.946C72.6602 267.164 73.6478 268.152 74.8661 268.152Z" fill="white"/>
</g>
<g clip-path="url(#clip5_105_3636)">
<path d="M287.296 178.582C288.514 178.582 289.502 177.594 289.502 176.376C289.502 175.158 288.514 174.17 287.296 174.17C286.077 174.17 285.09 175.158 285.09 176.376C285.09 177.594 286.077 178.582 287.296 178.582Z" fill="white"/>
</g>
<g clip-path="url(#clip6_105_3636)">
<path d="M178.046 406.822C179.264 406.822 180.252 405.834 180.252 404.616C180.252 403.398 179.264 402.41 178.046 402.41C176.827 402.41 175.84 403.398 175.84 404.616C175.84 405.834 176.827 406.822 178.046 406.822Z" fill="white"/>
</g>
<g clip-path="url(#clip7_105_3636)">
<path d="M162.096 187.102C163.314 187.102 164.301 186.114 164.301 184.896C164.301 183.678 163.314 182.69 162.096 182.69C160.877 182.69 159.89 183.678 159.89 184.896C159.89 186.114 160.877 187.102 162.096 187.102Z" fill="white"/>
</g>
<g clip-path="url(#clip8_105_3636)">
<path d="M187.846 599.382C189.064 599.382 190.051 598.394 190.051 597.176C190.051 595.958 189.064 594.97 187.846 594.97C186.627 594.97 185.64 595.958 185.64 597.176C185.64 598.394 186.627 599.382 187.846 599.382Z" fill="white"/>
</g>
<g clip-path="url(#clip9_105_3636)">
<path d="M219.826 536.682C221.044 536.682 222.032 535.694 222.032 534.476C222.032 533.258 221.044 532.27 219.826 532.27C218.608 532.27 217.62 533.258 217.62 534.476C217.62 535.694 218.608 536.682 219.826 536.682Z" fill="white"/>
</g>
<g clip-path="url(#clip10_105_3636)">
<path d="M397.636 665.542C398.854 665.542 399.841 664.554 399.841 663.336C399.841 662.117 398.854 661.13 397.636 661.13C396.417 661.13 395.43 662.117 395.43 663.336C395.43 664.554 396.417 665.542 397.636 665.542Z" fill="white"/>
</g>
<g clip-path="url(#clip11_105_3636)">
<path d="M279.856 777.282C281.075 777.282 282.062 776.294 282.062 775.076C282.062 773.858 281.075 772.87 279.856 772.87C278.638 772.87 277.65 773.858 277.65 775.076C277.65 776.294 278.638 777.282 279.856 777.282Z" fill="white"/>
</g>
<g clip-path="url(#clip12_105_3636)">
<path d="M420.876 863.272C422.094 863.272 423.082 862.284 423.082 861.066C423.082 859.847 422.094 858.86 420.876 858.86C419.658 858.86 418.67 859.847 418.67 861.066C418.67 862.284 419.658 863.272 420.876 863.272Z" fill="white"/>
</g>
<g clip-path="url(#clip13_105_3636)">
<path d="M474.995 816.512C476.213 816.512 477.201 815.524 477.201 814.306C477.201 813.088 476.213 812.1 474.995 812.1C473.777 812.1 472.789 813.088 472.789 814.306C472.789 815.524 473.777 816.512 474.995 816.512Z" fill="white"/>
</g>
<g clip-path="url(#clip14_105_3636)">
<path d="M728.806 797.032C730.024 797.032 731.011 796.044 731.011 794.826C731.011 793.608 730.024 792.62 728.806 792.62C727.587 792.62 726.6 793.608 726.6 794.826C726.6 796.044 727.587 797.032 728.806 797.032Z" fill="white"/>
</g>
<g clip-path="url(#clip15_105_3636)">
<path d="M158.426 868.102C159.644 868.102 160.632 867.114 160.632 865.896C160.632 864.678 159.644 863.69 158.426 863.69C157.207 863.69 156.22 864.678 156.22 865.896C156.22 867.114 157.207 868.102 158.426 868.102Z" fill="white"/>
</g>
<g clip-path="url(#clip16_105_3636)">
<path d="M123.906 647.242C125.124 647.242 126.112 646.254 126.112 645.036C126.112 643.818 125.124 642.83 123.906 642.83C122.688 642.83 121.7 643.818 121.7 645.036C121.7 646.254 122.688 647.242 123.906 647.242Z" fill="white"/>
</g>
<g clip-path="url(#clip17_105_3636)">
<path d="M66.326 796.862C67.5443 796.862 68.5319 795.874 68.5319 794.656C68.5319 793.438 67.5443 792.45 66.326 792.45C65.1077 792.45 64.1201 793.438 64.1201 794.656C64.1201 795.874 65.1077 796.862 66.326 796.862Z" fill="white"/>
</g>
<g clip-path="url(#clip18_105_3636)">
<path d="M703.087 654.672C704.305 654.672 705.293 653.684 705.293 652.466C705.293 651.248 704.305 650.26 703.087 650.26C701.868 650.26 700.881 651.248 700.881 652.466C700.881 653.684 701.868 654.672 703.087 654.672Z" fill="white"/>
</g>
<g clip-path="url(#clip19_105_3636)">
<path d="M704.225 567.382C705.444 567.382 706.431 566.394 706.431 565.176C706.431 563.958 705.444 562.97 704.225 562.97C703.007 562.97 702.02 563.958 702.02 565.176C702.02 566.394 703.007 567.382 704.225 567.382Z" fill="white"/>
</g>
<g clip-path="url(#clip20_105_3636)">
<path d="M626.796 650.922C628.014 650.922 629.002 649.934 629.002 648.716C629.002 647.498 628.014 646.51 626.796 646.51C625.577 646.51 624.59 647.498 624.59 648.716C624.59 649.934 625.577 650.922 626.796 650.922Z" fill="white"/>
</g>
<g clip-path="url(#clip21_105_3636)">
<path d="M801.235 480.442C802.453 480.442 803.441 479.454 803.441 478.236C803.441 477.018 802.453 476.03 801.235 476.03C800.017 476.03 799.029 477.018 799.029 478.236C799.029 479.454 800.017 480.442 801.235 480.442Z" fill="white"/>
</g>
<g clip-path="url(#clip22_105_3636)">
<path d="M755.645 360.282C756.864 360.282 757.851 359.294 757.851 358.076C757.851 356.858 756.864 355.87 755.645 355.87C754.427 355.87 753.439 356.858 753.439 358.076C753.439 359.294 754.427 360.282 755.645 360.282Z" fill="white"/>
</g>
<g clip-path="url(#clip23_105_3636)">
<path d="M856.575 316.192C857.793 316.192 858.781 315.204 858.781 313.986C858.781 312.768 857.793 311.78 856.575 311.78C855.357 311.78 854.369 312.768 854.369 313.986C854.369 315.204 855.357 316.192 856.575 316.192Z" fill="white"/>
</g>
<g clip-path="url(#clip24_105_3636)">
<path d="M619.546 122.152C620.764 122.152 621.752 121.164 621.752 119.946C621.752 118.728 620.764 117.74 619.546 117.74C618.327 117.74 617.34 118.728 617.34 119.946C617.34 121.164 618.327 122.152 619.546 122.152Z" fill="white"/>
</g>
<g clip-path="url(#clip25_105_3636)">
<path d="M785.206 190.672C786.424 190.672 787.412 189.684 787.412 188.466C787.412 187.248 786.424 186.26 785.206 186.26C783.988 186.26 783 187.248 783 188.466C783 189.684 783.988 190.672 785.206 190.672Z" fill="white"/>
</g>
<g clip-path="url(#clip26_105_3636)">
<path d="M728.575 257.102C729.793 257.102 730.781 256.114 730.781 254.896C730.781 253.678 729.793 252.69 728.575 252.69C727.357 252.69 726.369 253.678 726.369 254.896C726.369 256.114 727.357 257.102 728.575 257.102Z" fill="white"/>
</g>
<g clip-path="url(#clip27_105_3636)">
<path d="M170.716 319.662C171.934 319.662 172.922 318.674 172.922 317.456C172.922 316.238 171.934 315.25 170.716 315.25C169.497 315.25 168.51 316.238 168.51 317.456C168.51 318.674 169.497 319.662 170.716 319.662Z" fill="white"/>
</g>
<path d="M785.95 584.59C787.171 584.59 788.16 583.6 788.16 582.38C788.16 581.159 787.171 580.17 785.95 580.17C784.73 580.17 783.74 581.159 783.74 582.38C783.74 583.6 784.73 584.59 785.95 584.59Z" fill="white"/>
</g>
<defs>
<radialGradient id="paint0_radial_105_3636" cx="0" cy="0" r="1" gradientUnits="userSpaceOnUse" gradientTransform="translate(473.92 478.31) scale(429.84 429.84)">
<stop stop-color="#FFF795"/>
<stop offset="0.21" stop-color="#FAF793"/>
<stop offset="0.46" stop-color="#ECF78C"/>
<stop offset="0.72" stop-color="#D4F781"/>
<stop offset="1" stop-color="#B3F772"/>
</radialGradient>
<linearGradient id="paint1_linear_105_3636" x1="68.2993" y1="883.924" x2="116.921" y2="932.554" gradientUnits="userSpaceOnUse">
<stop stop-color="#8BECFF"/>
<stop offset="1" stop-color="#2AAEE5"/>
</linearGradient>
<linearGradient id="paint2_linear_105_3636" x1="752.841" y1="6.51998" x2="909.221" y2="162.9" gradientUnits="userSpaceOnUse">
<stop stop-color="#8BECFF"/>
<stop offset="1" stop-color="#2AAEE5"/>
</linearGradient>
<linearGradient id="paint3_linear_105_3636" x1="816.53" y1="429.27" x2="978.54" y2="591.28" gradientUnits="userSpaceOnUse">
<stop stop-color="#8BECFF"/>
<stop offset="1" stop-color="#2AAEE5"/>
</linearGradient>
<linearGradient id="paint4_linear_105_3636" x1="-17.5706" y1="407.49" x2="159.269" y2="584.33" gradientUnits="userSpaceOnUse">
<stop stop-color="#8BECFF"/>
<stop offset="1" stop-color="#2AAEE5"/>
</linearGradient>
<linearGradient id="paint5_linear_105_3636" x1="769.07" y1="818.41" x2="881.28" y2="930.63" gradientUnits="userSpaceOnUse">
<stop stop-color="#8BECFF"/>
<stop offset="1" stop-color="#2AAEE5"/>
</linearGradient>
<linearGradient id="paint6_linear_105_3636" x1="22.7898" y1="826.85" x2="122.54" y2="926.6" gradientUnits="userSpaceOnUse">
<stop stop-color="#8BECFF"/>
<stop offset="1" stop-color="#2AAEE5"/>
</linearGradient>
<linearGradient id="paint7_linear_105_3636" x1="38.2896" y1="54.25" x2="118.62" y2="134.58" gradientUnits="userSpaceOnUse">
<stop stop-color="#8BECFF"/>
<stop offset="1" stop-color="#2AAEE5"/>
</linearGradient>
<clipPath id="clip0_105_3636">
<rect width="951.84" height="1774.84" fill="white"/>
</clipPath>
<clipPath id="clip1_105_3636">
<rect width="4.4118" height="4.4118" fill="white" transform="translate(825.039 688.32)"/>
</clipPath>
<clipPath id="clip2_105_3636">
<rect width="4.4118" height="4.4118" fill="white" transform="translate(493.439 77.29)"/>
</clipPath>
<clipPath id="clip3_105_3636">
<rect width="4.4118" height="4.4118" fill="white" transform="translate(834.609 267.29)"/>
</clipPath>
<clipPath id="clip4_105_3636">
<rect width="4.4118" height="4.4118" fill="white" transform="translate(72.6602 263.74)"/>
</clipPath>
<clipPath id="clip5_105_3636">
<rect width="4.4118" height="4.4118" fill="white" transform="translate(285.09 174.17)"/>
</clipPath>
<clipPath id="clip6_105_3636">
<rect width="4.4118" height="4.4118" fill="white" transform="translate(175.84 402.41)"/>
</clipPath>
<clipPath id="clip7_105_3636">
<rect width="4.4118" height="4.4118" fill="white" transform="translate(159.89 182.69)"/>
</clipPath>
<clipPath id="clip8_105_3636">
<rect width="4.4118" height="4.4118" fill="white" transform="translate(185.64 594.97)"/>
</clipPath>
<clipPath id="clip9_105_3636">
<rect width="4.4118" height="4.4118" fill="white" transform="translate(217.62 532.27)"/>
</clipPath>
<clipPath id="clip10_105_3636">
<rect width="4.4118" height="4.4118" fill="white" transform="translate(395.43 661.13)"/>
</clipPath>
<clipPath id="clip11_105_3636">
<rect width="4.4118" height="4.4118" fill="white" transform="translate(277.65 772.87)"/>
</clipPath>
<clipPath id="clip12_105_3636">
<rect width="4.4118" height="4.4118" fill="white" transform="translate(418.67 858.86)"/>
</clipPath>
<clipPath id="clip13_105_3636">
<rect width="4.4118" height="4.4118" fill="white" transform="translate(472.789 812.1)"/>
</clipPath>
<clipPath id="clip14_105_3636">
<rect width="4.4118" height="4.4118" fill="white" transform="translate(726.6 792.62)"/>
</clipPath>
<clipPath id="clip15_105_3636">
<rect width="4.4118" height="4.4118" fill="white" transform="translate(156.22 863.69)"/>
</clipPath>
<clipPath id="clip16_105_3636">
<rect width="4.4118" height="4.4118" fill="white" transform="translate(121.7 642.83)"/>
</clipPath>
<clipPath id="clip17_105_3636">
<rect width="4.4118" height="4.4118" fill="white" transform="translate(64.1201 792.45)"/>
</clipPath>
<clipPath id="clip18_105_3636">
<rect width="4.4118" height="4.4118" fill="white" transform="translate(700.881 650.26)"/>
</clipPath>
<clipPath id="clip19_105_3636">
<rect width="4.4118" height="4.4118" fill="white" transform="translate(702.02 562.97)"/>
</clipPath>
<clipPath id="clip20_105_3636">
<rect width="4.4118" height="4.4118" fill="white" transform="translate(624.59 646.51)"/>
</clipPath>
<clipPath id="clip21_105_3636">
<rect width="4.4118" height="4.4118" fill="white" transform="translate(799.029 476.03)"/>
</clipPath>
<clipPath id="clip22_105_3636">
<rect width="4.4118" height="4.4118" fill="white" transform="translate(753.439 355.87)"/>
</clipPath>
<clipPath id="clip23_105_3636">
<rect width="4.4118" height="4.4118" fill="white" transform="translate(854.369 311.78)"/>
</clipPath>
<clipPath id="clip24_105_3636">
<rect width="4.4118" height="4.4118" fill="white" transform="translate(617.34 117.74)"/>
</clipPath>
<clipPath id="clip25_105_3636">
<rect width="4.4118" height="4.4118" fill="white" transform="translate(783 186.26)"/>
</clipPath>
<clipPath id="clip26_105_3636">
<rect width="4.4118" height="4.4118" fill="white" transform="translate(726.369 252.69)"/>
</clipPath>
<clipPath id="clip27_105_3636">
<rect width="4.4118" height="4.4118" fill="white" transform="translate(168.51 315.25)"/>
</clipPath>
</defs>
</svg>
