<svg viewBox="0 0 173 210" fill="none" xmlns="http://www.w3.org/2000/svg">
<g clip-path="url(#clip0_151_3702)">
<path d="M36.8403 123.4C27.4403 124.71 17.6903 134.94 19.7003 145.82C21.4603 155.37 28.2503 162.07 47.4203 161.44C58.1303 161.09 66.7703 160.21 72.2203 153.11C74.6603 149.94 75.9403 146.04 76.0503 142.04C76.1703 137.65 76.3903 122.96 76.6703 104.3H35.9703C36.2403 112.64 36.5303 119.37 36.8403 123.4Z" class="fill" stroke="#0713FF" stroke-width="3.9" stroke-miterlimit="10"/>
<path d="M95.8506 104.3C96.1206 122.96 96.3406 137.64 96.4706 142.04C96.5806 146.04 97.8706 149.94 100.301 153.11C105.751 160.21 114.391 161.09 125.101 161.44C144.271 162.07 151.061 155.37 152.821 145.82C154.821 134.93 145.081 124.71 135.681 123.4C135.991 119.38 136.291 112.65 136.551 104.3H95.8506Z" class="fill" stroke="#0713FF" stroke-width="3.9" stroke-miterlimit="10"/>
<path d="M35.5 87.1899C35.65 93.3399 35.8 99.1299 35.97 104.3H76.67C76.75 98.8799 76.83 93.1299 76.92 87.1899H35.5Z" fill="white" stroke="#0713FF" stroke-width="3.9" stroke-miterlimit="10"/>
<path d="M137.021 87.1899H95.6006C95.6906 93.1299 95.7706 98.8799 95.8506 104.3H136.551C136.721 99.1299 136.871 93.3499 137.021 87.1899Z" fill="white" stroke="#0713FF" stroke-width="3.9" stroke-miterlimit="10"/>
</g>
<defs>
<clipPath id="clip0_151_3702">
<rect width="100%" height="100%" fill="white"/>
</clipPath>
</defs>
</svg>
