<svg viewBox="0 0 173 210" fill="none" xmlns="http://www.w3.org/2000/svg">
<g clip-path="url(#clip0_151_3713)">
<path d="M19.7003 145.82C21.4603 155.37 28.2503 162.07 47.4203 161.44C58.1303 161.09 66.7703 160.21 72.2203 153.11C74.6603 149.94 75.9403 146.04 76.0503 142.04C76.2903 133.58 76.8903 86.97 77.5203 47.26H34.7203C35.2103 77.85 35.9403 111.81 36.8403 123.4C27.4403 124.71 17.6903 134.94 19.7003 145.82Z" class="fill" stroke="#0713FF" stroke-width="3.9" stroke-miterlimit="10"/>
<path d="M100.3 153.11C105.75 160.21 114.39 161.09 125.1 161.44C144.27 162.07 151.06 155.37 152.82 145.82C154.82 134.93 145.08 124.71 135.68 123.4C136.58 111.81 137.31 77.85 137.8 47.26H95C95.63 86.98 96.23 133.59 96.47 142.04C96.58 146.04 97.87 149.94 100.3 153.11Z" class="fill" stroke="#0713FF" stroke-width="3.9" stroke-miterlimit="10"/>
</g>
<defs>
<clipPath id="clip0_151_3713">
<rect width="100%" height="100%" fill="white"/>
</clipPath>
</defs>
</svg>
