<svg viewBox="0 0 173 210" fill="none" xmlns="http://www.w3.org/2000/svg">
<g clip-path="url(#clip0_151_3678)">
<path d="M36.8403 109.82C27.4403 111.13 17.6903 121.36 19.7003 132.24C21.4603 141.79 28.2503 148.49 47.4203 147.86C58.1303 147.51 66.7703 146.63 72.2203 139.53C74.6603 136.36 75.9403 132.46 76.0503 128.46C76.1203 125.93 76.2203 123.27 76.3503 115.12C53.3103 127.3 34.2403 119.45 36.8403 109.82Z" class="fill" stroke="#0713FF" stroke-width="3.9" stroke-linecap="round" stroke-linejoin="round"/>
<path d="M27.1699 114.28C27.1699 114.28 30.5099 131.44 30.5099 131.94L27.1699 114.28Z" fill="#FFE9CD"/>
<path d="M27.1699 114.28C27.1699 114.28 30.5099 131.44 30.5099 131.94" stroke="#0713FF" stroke-width="3.9" stroke-linecap="round" stroke-linejoin="round"/>
<path d="M20.6807 123.02L36.9507 124.73" stroke="#0713FF" stroke-width="3.9" stroke-linecap="round" stroke-linejoin="round"/>
<path d="M135.67 109.82C145.07 111.13 154.82 121.36 152.81 132.24C151.05 141.79 144.26 148.49 125.09 147.86C114.38 147.51 105.74 146.63 100.29 139.53C97.8502 136.36 96.5702 132.46 96.4602 128.46C96.3902 125.93 96.2902 123.27 96.1602 115.12C119.2 127.3 138.27 119.45 135.67 109.82Z" class="fill" stroke="#0713FF" stroke-width="3.9" stroke-linecap="round" stroke-linejoin="round"/>
<path d="M145.34 114.28C145.34 114.28 142 131.44 142 131.94L145.34 114.28Z" fill="#FFE9CD"/>
<path d="M145.34 114.28C145.34 114.28 142 131.44 142 131.94" stroke="#0713FF" stroke-width="3.9" stroke-linecap="round" stroke-linejoin="round"/>
<path d="M151.83 123.02L135.57 124.73" stroke="#0713FF" stroke-width="3.9" stroke-linecap="round" stroke-linejoin="round"/>
</g>
<defs>
<clipPath id="clip0_151_3678">
<rect width="100%" height="100%" fill="white"/>
</clipPath>
</defs>
</svg>
