<svg viewBox="0 0 173 210" fill="none" xmlns="http://www.w3.org/2000/svg">
<g clip-path="url(#clip0_151_3651)">
<path d="M77.8498 131.73H54.2898C53.2598 124.71 49.4598 114.9 36.8198 109.82C36.8198 109.82 27.8898 109.93 26.3898 114.93C26.3898 114.93 38.1998 117.32 41.5398 131.73H20.0898C17.0498 131.73 14.5898 134.19 14.5898 137.23V142.4C14.5898 145.44 17.0498 147.9 20.0898 147.9H77.8498C80.8898 147.9 83.3498 145.44 83.3498 142.4V137.23C83.3498 134.19 80.8898 131.73 77.8498 131.73Z" class="fill" stroke="#0713FF" stroke-width="3.9" stroke-miterlimit="10"/>
<path d="M152.43 131.73H130.98C134.31 117.32 146.13 114.93 146.13 114.93C144.63 109.94 135.7 109.82 135.7 109.82C123.06 114.9 119.25 124.71 118.23 131.73H94.6699C91.6299 131.73 89.1699 134.19 89.1699 137.23V142.4C89.1699 145.44 91.6299 147.9 94.6699 147.9H152.43C155.47 147.9 157.93 145.44 157.93 142.4V137.23C157.93 134.19 155.47 131.73 152.43 131.73Z" class="fill" stroke="#0713FF" stroke-width="3.9" stroke-miterlimit="10"/>
</g>
<defs>
<clipPath id="clip0_151_3651">
<rect width="100%" height="100%" fill="white"/>
</clipPath>
</defs>
</svg>
