<svg viewBox="0 0 173 210" fill="none" xmlns="http://www.w3.org/2000/svg">
<g clip-path="url(#clip0_151_3722)">
<path d="M19.7001 145.82C21.4601 155.37 28.2501 162.07 47.4201 161.44C58.1301 161.09 66.7701 160.21 72.2201 153.11C74.6601 149.94 75.9401 146.04 76.0501 142.04C76.2301 135.61 76.6201 107.12 77.0701 76.37H35.2601C35.6901 97.03 36.2301 115.46 36.8501 123.4C27.4501 124.71 17.7001 134.94 19.7101 145.82H19.7001Z" class="fill" stroke="#0713FF" stroke-width="4.26" stroke-linecap="round" stroke-linejoin="round"/>
<path d="M36.1904 87.9L58.7704 97.61" stroke="#0713FF" stroke-width="4.22" stroke-linecap="round" stroke-linejoin="round"/>
<path d="M36.1104 97.46L58.8404 88.05" stroke="#0713FF" stroke-width="4.22" stroke-linecap="round" stroke-linejoin="round"/>
<path d="M36.1904 105.81L58.7704 115.51" stroke="#0713FF" stroke-width="4.22" stroke-linecap="round" stroke-linejoin="round"/>
<path d="M36.8906 115.36L58.8406 105.95" stroke="#0713FF" stroke-width="4.22" stroke-linecap="round" stroke-linejoin="round"/>
<path d="M35.52 76.37H35.25C35.53 89.84 35.86 102.37 36.22 111.65C36.42 111.61 36.63 111.58 36.83 111.55C36.33 105.17 35.89 92.01 35.51 76.37H35.52Z" class="fill" stroke="#0713FF" stroke-width="4.26" stroke-linecap="round" stroke-linejoin="round"/>
<path d="M76.0501 130.19C75.9401 134.19 74.6501 138.09 72.2201 141.26C66.7701 148.36 58.1301 149.24 47.4201 149.59C30.4001 150.15 23.1401 144.93 20.5001 137.07C19.5001 139.82 19.1501 142.79 19.7001 145.82C21.4601 155.37 28.2501 162.07 47.4201 161.44C58.1301 161.09 66.7701 160.21 72.2201 153.11C74.6601 149.94 75.9401 146.04 76.0501 142.04C76.2301 135.61 76.6201 107.12 77.0701 76.37H76.9001C76.5201 102.31 76.2101 124.6 76.0501 130.19Z" class="fill" stroke="#0713FF" stroke-width="4.26" stroke-linecap="round" stroke-linejoin="round"/>
<path d="M152.82 145.82C151.06 155.37 144.27 162.07 125.1 161.44C114.39 161.09 105.75 160.21 100.3 153.11C97.8602 149.94 96.5802 146.04 96.4702 142.04C96.2902 135.61 95.9002 107.12 95.4502 76.37H137.27C136.84 97.03 136.3 115.46 135.68 123.4C145.08 124.71 154.83 134.94 152.82 145.82Z" class="fill" stroke="#0713FF" stroke-width="4.26" stroke-linecap="round" stroke-linejoin="round"/>
<path d="M136.33 87.9L113.75 97.61" stroke="#0713FF" stroke-width="4.22" stroke-linecap="round" stroke-linejoin="round"/>
<path d="M136.411 97.46L113.671 88.05" stroke="#0713FF" stroke-width="4.22" stroke-linecap="round" stroke-linejoin="round"/>
<path d="M136.33 105.81L113.75 115.51" stroke="#0713FF" stroke-width="4.22" stroke-linecap="round" stroke-linejoin="round"/>
<path d="M135.631 115.36L113.671 105.95" stroke="#0713FF" stroke-width="4.22" stroke-linecap="round" stroke-linejoin="round"/>
<path d="M136.991 76.37H137.261C136.981 89.84 136.651 102.37 136.291 111.65C136.091 111.61 135.881 111.58 135.681 111.55C136.181 105.17 136.621 92.01 137.001 76.37H136.991Z" class="fill" stroke="#0713FF" stroke-width="4.26" stroke-linecap="round" stroke-linejoin="round"/>
<path d="M96.4604 130.19C96.5704 134.19 97.8604 138.09 100.29 141.26C105.74 148.36 114.38 149.24 125.09 149.59C142.11 150.15 149.37 144.93 152.01 137.07C153.01 139.82 153.36 142.79 152.81 145.82C151.05 155.37 144.26 162.07 125.09 161.44C114.38 161.09 105.74 160.21 100.29 153.11C97.8504 149.94 96.5704 146.04 96.4604 142.04C96.2804 135.61 95.8904 107.12 95.4404 76.37H95.6104C95.9904 102.31 96.3004 124.6 96.4604 130.19Z" class="fill" stroke="#0713FF" stroke-width="4.26" stroke-linecap="round" stroke-linejoin="round"/>
</g>
<defs>
<clipPath id="clip0_151_3722">
<rect width="100%" height="100%" fill="white"/>
</clipPath>
</defs>
</svg>
