<svg viewBox="0 0 173 210" fill="none" xmlns="http://www.w3.org/2000/svg">
<g clip-path="url(#clip0_151_3660)">
<path d="M77.7502 131.73H54.1902C53.1602 124.71 49.3602 114.9 36.7202 109.82C36.7202 109.82 14.4902 112.62 14.4902 137.23V142.4C14.4902 145.44 16.9502 147.9 19.9902 147.9H77.7502C80.7902 147.9 83.2502 145.44 83.2502 142.4V137.23C83.2502 134.19 80.7902 131.73 77.7502 131.73Z" class="fill" stroke="#0713FF" stroke-width="3.9" stroke-miterlimit="10"/>
<path d="M94.7598 131.73H118.32C119.35 124.71 123.15 114.9 135.79 109.82C135.79 109.82 158.02 112.62 158.02 137.23V142.4C158.02 145.44 155.56 147.9 152.52 147.9H94.7598C91.7198 147.9 89.2598 145.44 89.2598 142.4V137.23C89.2598 134.19 91.7198 131.73 94.7598 131.73Z" class="fill" stroke="#0713FF" stroke-width="3.9" stroke-miterlimit="10"/>
</g>
<defs>
<clipPath id="clip0_151_3660">
<rect width="100%" height="100%" fill="white"/>
</clipPath>
</defs>
</svg>
