<svg viewBox="0 0 173 210" fill="none" xmlns="http://www.w3.org/2000/svg">
<g clip-path="url(#clip0_151_3669)">
<path d="M36.8405 109.82C33.8805 110.23 30.9005 111.52 28.2505 113.44C28.8005 118.78 37.1605 124.74 44.7905 125.79C42.8905 133.31 21.2505 133.49 22.2505 119.88C20.0105 123.53 18.8905 127.83 19.7005 132.24C21.4605 141.79 28.2505 148.49 47.4205 147.86C58.1305 147.51 66.7705 146.63 72.2205 139.53C74.6605 136.36 75.9405 132.46 76.0505 128.46C76.1205 125.93 76.2205 123.27 76.3505 115.12C54.9105 120.26 43.2305 117.69 36.8405 109.82Z" class="fill" stroke="#0713FF" stroke-width="3.9" stroke-linecap="round" stroke-linejoin="round"/>
<path d="M135.67 109.82C138.63 110.23 141.61 111.52 144.26 113.44C143.71 118.78 135.35 124.74 127.72 125.79C129.62 133.31 151.26 133.49 150.26 119.88C152.5 123.53 153.62 127.83 152.81 132.24C151.05 141.79 144.26 148.49 125.09 147.86C114.38 147.51 105.74 146.63 100.29 139.53C97.8502 136.36 96.5702 132.46 96.4602 128.46C96.3902 125.93 96.2902 123.27 96.1602 115.12C117.6 120.26 129.28 117.69 135.67 109.82Z" class="fill" stroke="#0713FF" stroke-width="3.9" stroke-linecap="round" stroke-linejoin="round"/>
</g>
<defs>
<clipPath id="clip0_151_3669">
<rect width="100%" height="100%" fill="white"/>
</clipPath>
</defs>
</svg>
