<svg viewBox="0 0 173 210" fill="none" xmlns="http://www.w3.org/2000/svg">
<g clip-path="url(#clip0_151_3693)">
<path d="M19.7001 145.82C21.4601 155.37 28.2501 162.07 47.4201 161.44C58.1301 161.09 66.7701 160.21 72.2201 153.11C74.6601 149.94 75.9401 146.04 76.0501 142.04C76.1501 138.43 76.3201 127.85 76.5301 113.83H36.3201C36.4901 117.79 36.6601 121.05 36.8501 123.4C27.4501 124.71 17.7001 134.94 19.7101 145.82H19.7001Z" class="fill" stroke="#0713FF" stroke-width="3.9" stroke-miterlimit="10"/>
<path d="M100.3 153.11C105.75 160.21 114.39 161.09 125.1 161.44C144.27 162.07 151.06 155.37 152.82 145.82C154.82 134.93 145.08 124.71 135.68 123.4C135.86 121.06 136.04 117.79 136.21 113.83H96C96.21 127.85 96.37 138.42 96.48 142.04C96.59 146.04 97.88 149.94 100.31 153.11H100.3Z" class="fill" stroke="#0713FF" stroke-width="3.9" stroke-miterlimit="10"/>
</g>
<defs>
<clipPath id="clip0_151_3693">
<rect width="100%" height="100%" fill="white"/>
</clipPath>
</defs>
</svg>
