<svg viewBox="0 0 173 210" fill="none" xmlns="http://www.w3.org/2000/svg">
<g clip-path="url(#clip0_119_4126)">
<path d="M156.229 98.0728C157.613 97.1565 158.717 95.8748 159.418 94.3696C160.119 92.8645 160.389 91.1947 160.199 89.5454C160.009 87.896 159.365 86.3315 158.341 85.0253C157.316 83.7191 155.949 82.7222 154.393 82.145C155.686 80.9425 156.596 79.3854 157.009 77.6684C157.422 75.9515 157.32 74.1509 156.715 72.4918C156.11 70.8326 155.03 69.3885 153.609 68.34C152.188 67.2914 150.49 66.685 148.726 66.5964C149.697 65.1686 150.235 63.4911 150.277 61.765C150.318 60.0388 149.861 58.3373 148.96 56.8645C148.059 55.3916 146.752 54.2099 145.196 53.461C143.641 52.712 141.902 52.4277 140.189 52.6421C140.347 51.3782 140.234 50.095 139.857 48.8783C139.479 47.6616 138.847 46.5394 138.002 45.5864C137.157 44.6334 136.118 43.8717 134.955 43.352C133.792 42.8323 132.532 42.5667 131.258 42.5728C130.227 42.5749 129.204 42.7548 128.234 43.1045C128.148 41.3923 127.574 39.7404 126.58 38.344C125.585 36.9476 124.212 35.8649 122.622 35.224C121.032 34.5831 119.292 34.4106 117.607 34.727C115.922 35.0434 114.363 35.8354 113.113 37.0095C112.833 35.4051 112.121 33.9072 111.055 32.6759C109.989 31.4447 108.608 30.5264 107.06 30.0193C105.512 29.5122 103.856 29.4354 102.268 29.797C100.679 30.1587 99.2195 30.9452 98.0439 32.0725C97.2555 30.7049 96.1208 29.5689 94.754 28.779C93.3872 27.9891 91.8365 27.5731 90.2579 27.5728C86.3172 27.5728 84.1985 28.6768 82.3717 31.4836C79.9658 28.5431 76.946 28.1322 73.1935 28.3203C69.0115 28.5299 65.5913 30.9561 64.5862 34.8289C63.0986 33.742 61.2413 32.5728 59.2579 32.5728C57.0487 32.5733 54.9169 33.3865 53.2687 34.8575C51.6204 36.3285 50.5709 38.3544 50.3201 40.5493C48.949 39.852 47.4218 39.5182 45.8848 39.58C44.3478 39.6418 42.8523 40.097 41.5415 40.9021C40.2308 41.7073 39.1486 42.8353 38.3986 44.1784C37.6486 45.5214 37.2558 47.0345 37.2579 48.5728C37.2579 48.5928 37.2608 48.6118 37.2608 48.6318C36.0017 48.4866 34.7261 48.6097 33.5179 48.9931C32.3098 49.3764 31.1966 50.0114 30.2516 50.8561C29.3066 51.7007 28.5512 52.736 28.0352 53.8937C27.5192 55.0514 27.2543 56.3053 27.2579 57.5728C27.2599 58.6037 27.4397 59.6266 27.7896 60.5964C26.2455 60.6732 24.7475 61.1473 23.4405 61.973C22.1335 62.7987 21.0618 63.9479 20.3294 65.3094C19.5969 66.6708 19.2285 68.1984 19.2597 69.744C19.2909 71.2897 19.7208 72.8011 20.5076 74.1318C20.4598 74.2451 20.4068 74.3567 20.3596 74.4702C19.2495 75.0017 18.2604 75.7558 17.4539 76.6856C16.6474 77.6154 16.0407 78.7011 15.6714 79.8752C15.3022 81.0494 15.1782 82.2869 15.3073 83.511C15.4364 84.735 15.8158 85.9194 16.4219 86.9907C15.2198 87.7554 14.2167 88.7949 13.4954 90.0234C12.774 91.2519 12.3549 92.6343 12.2728 94.0566C12.1906 95.4789 12.4477 96.9004 13.0229 98.2038C13.598 99.5072 14.4748 100.655 15.5808 101.553C14.5647 102.676 13.8489 104.038 13.4998 105.511C13.1507 106.985 13.1797 108.523 13.5841 109.982C13.9884 111.442 14.755 112.775 15.8127 113.859C16.8704 114.943 18.1848 115.742 19.6339 116.182C29.3916 133.847 55.353 138.573 85.8562 138.573C117.361 138.573 144.026 133.535 152.991 114.402C154.742 114.059 156.352 113.203 157.616 111.942C158.879 110.682 159.739 109.074 160.086 107.323C160.433 105.573 160.252 103.758 159.565 102.111C158.878 100.464 157.717 99.0582 156.229 98.0728Z" class="fill" stroke="#0A13FF" stroke-width="4" stroke-linecap="round" stroke-linejoin="round"/>
<path d="M30.3555 131.506C38.3636 131.506 44.8555 124.82 44.8555 116.573C44.8555 108.325 38.3636 101.639 30.3555 101.639C22.3473 101.639 15.8555 108.325 15.8555 116.573C15.8555 124.82 22.3473 131.506 30.3555 131.506Z" fill="#FFEBD1" stroke="#0A13FF" stroke-width="4" stroke-miterlimit="10"/>
<path d="M141.355 131.506C149.364 131.506 155.855 124.82 155.855 116.573C155.855 108.325 149.364 101.639 141.355 101.639C133.347 101.639 126.855 108.325 126.855 116.573C126.855 124.82 133.347 131.506 141.355 131.506Z" fill="#FFEBD1" stroke="#0A13FF" stroke-width="4" stroke-miterlimit="10"/>
<path d="M36.2578 189.604C36.2578 165.58 58.9386 154.573 85.7578 154.573C112.577 154.573 135.258 165.58 135.258 189.604H36.2578Z" fill="white" stroke="#0A13FF" stroke-width="4" stroke-miterlimit="10"/>
<path d="M85.7578 170.573C94.3182 170.573 101.258 163.633 101.258 155.073C101.258 146.512 94.3182 139.573 85.7578 139.573C77.1974 139.573 70.2578 146.512 70.2578 155.073C70.2578 163.633 77.1974 170.573 85.7578 170.573Z" fill="#FFEBD1" stroke="#0A13FF" stroke-width="4" stroke-miterlimit="10"/>
<path d="M22.8555 116.573H148.855" stroke="#0A13FF" stroke-width="4" stroke-miterlimit="10"/>
<path d="M143.257 114.394C143.257 140.766 117.558 156.852 85.8557 156.852C54.1537 156.852 28.4541 140.766 28.4541 114.394C28.4541 88.0223 38.021 61.3518 85.8557 61.3518C133.69 61.3518 143.257 88.0223 143.257 114.394Z" fill="#FFEBD1" stroke="#0A13FF" stroke-width="4" stroke-miterlimit="10"/>
</g>
<defs>
<clipPath id="clip0_119_4126">
<rect width="100%" height="100%" fill="white"/>
</clipPath>
</defs>
</svg>
