<svg viewBox="0 0 173 210" fill="none" xmlns="http://www.w3.org/2000/svg">
<g clip-path="url(#clip0_119_4137)">
<path d="M86.2575 183.573C86.2575 183.573 140.856 184.573 164.856 166.573C147.474 141.169 151.35 122.404 154.551 108.896C156.842 99.5702 156.633 89.805 153.946 80.5853C146.294 55.1541 122.494 33.5728 86.2575 33.5728C50.0214 33.5728 26.2206 55.1541 18.5693 80.5853C15.8821 89.805 15.6733 99.5702 17.9639 108.896C21.1653 122.404 25.041 141.169 7.65918 166.573C31.6592 184.573 86.2575 183.573 86.2575 183.573Z" class="fill" stroke="#0A13FF" stroke-width="4" stroke-miterlimit="10"/>
<path d="M30.7578 131.506C38.7659 131.506 45.2578 124.82 45.2578 116.573C45.2578 108.325 38.7659 101.639 30.7578 101.639C22.7497 101.639 16.2578 108.325 16.2578 116.573C16.2578 124.82 22.7497 131.506 30.7578 131.506Z" fill="#FFEBD1" stroke="#0A13FF" stroke-width="4" stroke-miterlimit="10"/>
<path d="M141.758 131.506C149.766 131.506 156.258 124.82 156.258 116.573C156.258 108.325 149.766 101.639 141.758 101.639C133.75 101.639 127.258 108.325 127.258 116.573C127.258 124.82 133.75 131.506 141.758 131.506Z" fill="#FFEBD1" stroke="#0A13FF" stroke-width="4" stroke-miterlimit="10"/>
<path d="M36.6592 189.604C36.6592 165.58 59.34 154.573 86.1592 154.573C112.978 154.573 135.659 165.58 135.659 189.604H36.6592Z" fill="white" stroke="#0A13FF" stroke-width="4" stroke-miterlimit="10"/>
<path d="M86.1592 170.573C94.7196 170.573 101.659 163.633 101.659 155.073C101.659 146.512 94.7196 139.573 86.1592 139.573C77.5988 139.573 70.6592 146.512 70.6592 155.073C70.6592 163.633 77.5988 170.573 86.1592 170.573Z" fill="#FFEBD1" stroke="#0A13FF" stroke-width="4" stroke-miterlimit="10"/>
<path d="M23.2578 116.573H149.258" stroke="#0A13FF" stroke-width="4" stroke-miterlimit="10"/>
<path d="M143.659 114.394C143.659 140.766 117.959 156.852 86.2571 156.852C54.5551 156.852 28.8555 140.766 28.8555 114.394C28.8555 88.0223 38.4224 61.3518 86.2571 61.3518C134.092 61.3518 143.659 88.0223 143.659 114.394Z" fill="#FFEBD1" stroke="#0A13FF" stroke-width="4" stroke-miterlimit="10"/>
<path d="M64.6024 53.5728H107.913C118.348 53.5728 128.356 57.718 135.734 65.0965C143.113 72.4751 147.258 82.4825 147.258 92.9173V96.5728H25.2578V92.9173C25.2578 82.4825 29.403 72.4751 36.7816 65.0965C44.1601 57.718 54.1676 53.5728 64.6024 53.5728Z" class="fill"/>
<path d="M23.2578 96.5728H149.258" stroke="#0A13FF" stroke-width="4" stroke-miterlimit="10"/>
</g>
<defs>
<clipPath id="clip0_119_4137">
<rect width="100%" height="100%" fill="white"/>
</clipPath>
</defs>
</svg>
