<svg viewBox="0 0 173 210" fill="none" xmlns="http://www.w3.org/2000/svg">
<g clip-path="url(#clip0_119_4062)">
<path d="M157.069 167.207C153.98 161.028 152.792 157.701 156.594 149.385C160.396 141.068 156.356 134.89 154.218 129.424C152.079 123.959 156.576 108.896 156.576 108.896C158.789 99.5608 158.219 89.9124 155.971 80.5855C148.039 47.6816 122.493 33.5728 86.2571 33.5728C50.021 33.5728 24.4749 47.6816 16.5435 80.5855C14.2951 89.9124 13.7254 99.5608 15.938 108.896C15.938 108.896 20.4353 123.959 18.2966 129.424C16.158 134.89 12.1184 141.068 15.9204 149.385C19.7224 157.701 18.5343 161.028 15.4452 167.207C12.3561 173.385 6.89076 185.564 15.6829 189.604H156.831C165.623 185.564 160.158 173.385 157.069 167.207Z" class="fill" stroke="#0A13FF" stroke-width="4" stroke-miterlimit="10"/>
<path d="M28.7324 131.506C36.7406 131.506 43.2324 124.82 43.2324 116.573C43.2324 108.325 36.7406 101.639 28.7324 101.639C20.7243 101.639 14.2324 108.325 14.2324 116.573C14.2324 124.82 20.7243 131.506 28.7324 131.506Z" fill="#FFEBD1" stroke="#0A13FF" stroke-width="4" stroke-miterlimit="10"/>
<path d="M139.732 131.506C147.741 131.506 154.232 124.82 154.232 116.573C154.232 108.325 147.741 101.639 139.732 101.639C131.724 101.639 125.232 108.325 125.232 116.573C125.232 124.82 131.724 131.506 139.732 131.506Z" fill="#FFEBD1" stroke="#0A13FF" stroke-width="4" stroke-miterlimit="10"/>
<path d="M34.6338 189.604C34.6338 165.58 57.3146 154.573 84.1338 154.573C110.953 154.573 133.634 165.58 133.634 189.604H34.6338Z" fill="white" stroke="#0A13FF" stroke-width="4" stroke-miterlimit="10"/>
<path d="M84.1338 170.573C92.6942 170.573 99.6338 163.633 99.6338 155.073C99.6338 146.512 92.6942 139.573 84.1338 139.573C75.5734 139.573 68.6338 146.512 68.6338 155.073C68.6338 163.633 75.5734 170.573 84.1338 170.573Z" fill="#FFEBD1" stroke="#0A13FF" stroke-width="4" stroke-miterlimit="10"/>
<path d="M21.2324 116.573H147.232" stroke="#0A13FF" stroke-width="4" stroke-miterlimit="10"/>
<path d="M141.633 114.394C141.633 140.766 115.934 156.852 84.2317 156.852C52.5297 156.852 26.8301 140.766 26.8301 114.394C26.8301 88.0223 36.397 61.3518 84.2317 61.3518C132.066 61.3518 141.633 88.0223 141.633 114.394Z" fill="#FFEBD1" stroke="#0A13FF" stroke-width="4" stroke-miterlimit="10"/>
<path d="M140.776 80.548C131.489 72.6803 123.591 63.3163 113.966 55.8317C110.959 53.4938 104.583 52.2308 101.644 55.1073C99.1992 57.4987 100.728 60.8081 102.713 64.0182C109.125 74.3882 121.782 86.4736 139.782 95.741C147.747 99.8418 147.663 86.3823 140.776 80.548Z" class="fill"/>
<path d="M97.5449 56.533C97.5449 56.533 106.734 83.0185 144.06 97.8795L97.5449 56.533Z" class="fill"/>
<path d="M97.5449 56.533C97.5449 56.533 106.734 83.0185 144.06 97.8795" stroke="#0A13FF" stroke-width="4" stroke-miterlimit="10"/>
</g>
<defs>
<clipPath id="clip0_119_4062">
<rect width="100%" height="100%" fill="white"/>
</clipPath>
</defs>
</svg>
