<svg viewBox="0 0 173 210" fill="none" xmlns="http://www.w3.org/2000/svg">
<g clip-path="url(#clip0_119_4089)">
<path class="fill" d="M15.8975 98.5888C15.8975 130.914 47.3985 138.573 86.2571 138.573C125.116 138.573 156.617 130.914 156.617 98.5888C156.617 66.264 130.855 33.5728 86.2571 33.5728C41.6588 33.5728 15.8975 66.264 15.8975 98.5888Z" stroke="#0A13FF" stroke-width="4" stroke-miterlimit="10"/>
<path d="M30.7578 131.506C38.7659 131.506 45.2578 124.82 45.2578 116.573C45.2578 108.325 38.7659 101.639 30.7578 101.639C22.7497 101.639 16.2578 108.325 16.2578 116.573C16.2578 124.82 22.7497 131.506 30.7578 131.506Z" fill="#FFEBD1" stroke="#0A13FF" stroke-width="4" stroke-miterlimit="10"/>
<path d="M141.758 131.506C149.766 131.506 156.258 124.82 156.258 116.573C156.258 108.325 149.766 101.639 141.758 101.639C133.75 101.639 127.258 108.325 127.258 116.573C127.258 124.82 133.75 131.506 141.758 131.506Z" fill="#FFEBD1" stroke="#0A13FF" stroke-width="4" stroke-miterlimit="10"/>
<path d="M36.6592 189.604C36.6592 165.58 59.34 154.573 86.1592 154.573C112.978 154.573 135.659 165.58 135.659 189.604H36.6592Z" fill="white" stroke="#0A13FF" stroke-width="4" stroke-miterlimit="10"/>
<path d="M86.1592 170.573C94.7196 170.573 101.659 163.633 101.659 155.073C101.659 146.512 94.7196 139.573 86.1592 139.573C77.5988 139.573 70.6592 146.512 70.6592 155.073C70.6592 163.633 77.5988 170.573 86.1592 170.573Z" fill="#FFEBD1" stroke="#0A13FF" stroke-width="4" stroke-miterlimit="10"/>
<path d="M23.2578 116.573H149.258" stroke="#0A13FF" stroke-width="4" stroke-miterlimit="10"/>
<path d="M143.659 114.394C143.659 140.766 117.959 156.852 86.2571 156.852C54.5551 156.852 28.8555 140.766 28.8555 114.394C28.8555 88.0223 38.4224 61.3518 86.2571 61.3518C134.092 61.3518 143.659 88.0223 143.659 114.394Z" fill="#FFEBD1" stroke="#0A13FF" stroke-width="4" stroke-miterlimit="10"/>
<path d="M68.1737 56.939H104.174C115.045 56.939 125.471 61.2576 133.158 68.9447C140.845 76.6318 145.164 87.0577 145.164 97.929H27.1836C27.1836 87.0577 31.5022 76.6318 39.1893 68.9447C46.8765 61.2575 57.3024 56.939 68.1737 56.939Z" class="fill"/>
<path d="M24.1836 97.929H148.164" stroke="#0A13FF" stroke-width="4" stroke-miterlimit="10"/>
</g>
<defs>
<clipPath id="clip0_119_4089">
<rect width="100%" height="100%" fill="white"/>
</clipPath>
</defs>
</svg>
