<svg viewBox="0 0 173 210" fill="none" xmlns="http://www.w3.org/2000/svg">
<g clip-path="url(#clip0_119_4047)">
<path d="M40.3287 163.169C38.337 167.117 35.4379 170.537 31.8692 173.148C28.3005 175.759 24.1637 177.487 19.798 178.191C18.1243 174.099 17.4627 169.663 17.8695 165.26C18.2763 160.857 19.7393 156.618 22.1346 152.902C24.1707 149.819 26.8637 147.224 30.0206 145.305C33.1774 143.385 36.7199 142.188 40.3941 141.798C40.3941 141.798 45.9335 152.095 40.3287 163.169Z" class="fill" stroke="#0A13FF" stroke-width="4" stroke-miterlimit="10"/>
<path d="M131.99 163.169C133.981 167.117 136.88 170.537 140.449 173.148C144.018 175.759 148.155 177.487 152.52 178.191C154.194 174.099 154.855 169.663 154.449 165.26C154.042 160.857 152.579 156.618 150.184 152.902C148.148 149.819 145.455 147.224 142.298 145.305C139.141 143.385 135.598 142.188 131.924 141.798C131.924 141.798 126.385 152.095 131.99 163.169Z" class="fill" stroke="#0A13FF" stroke-width="4" stroke-miterlimit="10"/>
<path d="M154.552 108.896C156.842 99.5701 156.633 89.805 153.946 80.5853C146.295 55.1541 122.494 33.5728 86.2578 33.5728C50.0216 33.5728 26.2209 55.1541 18.5695 80.5853C15.8824 89.805 15.6736 99.5701 17.9641 108.896C17.9641 181.118 154.552 181.118 154.552 108.896Z" class="fill" stroke="#0A13FF" stroke-width="4" stroke-miterlimit="10"/>
<path d="M30.7578 131.506C38.7659 131.506 45.2578 124.82 45.2578 116.573C45.2578 108.325 38.7659 101.639 30.7578 101.639C22.7497 101.639 16.2578 108.325 16.2578 116.573C16.2578 124.82 22.7497 131.506 30.7578 131.506Z" fill="#FFEBD1" stroke="#0A13FF" stroke-width="4" stroke-miterlimit="10"/>
<path d="M141.758 131.506C149.766 131.506 156.258 124.82 156.258 116.573C156.258 108.325 149.766 101.639 141.758 101.639C133.75 101.639 127.258 108.325 127.258 116.573C127.258 124.82 133.75 131.506 141.758 131.506Z" fill="#FFEBD1" stroke="#0A13FF" stroke-width="4" stroke-miterlimit="10"/>
<path d="M36.6592 189.604C36.6592 165.58 59.34 154.573 86.1592 154.573C112.978 154.573 135.659 165.58 135.659 189.604H36.6592Z" fill="white" stroke="#0A13FF" stroke-width="4" stroke-miterlimit="10"/>
<path d="M86.1592 170.573C94.7196 170.573 101.659 163.633 101.659 155.073C101.659 146.512 94.7196 139.573 86.1592 139.573C77.5988 139.573 70.6592 146.512 70.6592 155.073C70.6592 163.633 77.5988 170.573 86.1592 170.573Z" fill="#FFEBD1" stroke="#0A13FF" stroke-width="4" stroke-miterlimit="10"/>
<path d="M23.2578 116.573H149.258" stroke="#0A13FF" stroke-width="4" stroke-miterlimit="10"/>
<path d="M143.659 114.394C143.659 140.766 117.959 156.852 86.2571 156.852C54.5551 156.852 28.8555 140.766 28.8555 114.394C28.8555 88.0223 38.4224 61.3518 86.2571 61.3518C134.092 61.3518 143.659 88.0223 143.659 114.394Z" fill="#FFEBD1" stroke="#0A13FF" stroke-width="4" stroke-miterlimit="10"/>
<path d="M147.258 96.5728H123.343L118.669 85.7015L112.808 96.5728H25.2578V92.9173C25.2578 82.4825 29.403 72.4751 36.7816 65.0965C44.1601 57.718 54.1675 53.5728 64.6024 53.5728H107.913C113.08 53.5728 118.196 54.5904 122.97 56.5677C127.743 58.5449 132.081 61.443 135.734 65.0965C139.388 68.75 142.286 73.0873 144.263 77.8608C146.24 82.6343 147.258 87.7505 147.258 92.9173L147.258 96.5728Z" class="fill"/>
<path d="M23.2568 96.5731H112.808L118.55 85.2261L123.342 96.5731H149.257" stroke="#0A13FF" stroke-width="4" stroke-miterlimit="10"/>
</g>
<defs>
<clipPath id="clip0_119_4047">
<rect width="100%" height="100%" fill="white"/>
</clipPath>
</defs>
</svg>
