<svg viewBox="0 0 173 210" fill="none" xmlns="http://www.w3.org/2000/svg">
<g clip-path="url(#clip0_119_4075)">
<path d="M86.2576 67.4043C100.726 67.4043 112.456 55.6751 112.456 41.2063C112.456 26.7376 100.726 15.0083 86.2576 15.0083C71.7888 15.0083 60.0596 26.7376 60.0596 41.2063C60.0596 55.6751 71.7888 67.4043 86.2576 67.4043Z" class="fill" stroke="#0A13FF" stroke-width="4" stroke-miterlimit="10"/>
<path d="M154.551 110.896C156.763 101.561 156.709 89.7727 153.945 80.5853C146.294 55.1541 122.493 33.5728 86.2571 33.5728C50.0209 33.5728 26.2201 55.1541 18.5688 80.5853C15.8046 89.7727 15.7508 101.561 17.9634 110.896C17.9634 143.215 51.8371 156.501 85.8466 156.652C120.13 156.804 154.551 143.518 154.551 110.896Z" class="fill" stroke="#0A13FF" stroke-width="4" stroke-miterlimit="10"/>
<path d="M30.7578 131.506C38.7659 131.506 45.2578 124.82 45.2578 116.573C45.2578 108.325 38.7659 101.639 30.7578 101.639C22.7497 101.639 16.2578 108.325 16.2578 116.573C16.2578 124.82 22.7497 131.506 30.7578 131.506Z" fill="#FFEBD1" stroke="#0A13FF" stroke-width="4" stroke-miterlimit="10"/>
<path d="M141.758 131.506C149.766 131.506 156.258 124.82 156.258 116.573C156.258 108.325 149.766 101.639 141.758 101.639C133.75 101.639 127.258 108.325 127.258 116.573C127.258 124.82 133.75 131.506 141.758 131.506Z" fill="#FFEBD1" stroke="#0A13FF" stroke-width="4" stroke-miterlimit="10"/>
<path d="M36.6592 189.604C36.6592 165.58 59.34 154.573 86.1592 154.573C112.978 154.573 135.659 165.58 135.659 189.604H36.6592Z" fill="white" stroke="#0A13FF" stroke-width="4" stroke-miterlimit="10"/>
<path d="M86.1592 170.573C94.7196 170.573 101.659 163.633 101.659 155.073C101.659 146.512 94.7196 139.573 86.1592 139.573C77.5988 139.573 70.6592 146.512 70.6592 155.073C70.6592 163.633 77.5988 170.573 86.1592 170.573Z" fill="#FFEBD1" stroke="#0A13FF" stroke-width="4" stroke-miterlimit="10"/>
<path d="M23.2578 116.573H149.258" stroke="#0A13FF" stroke-width="4" stroke-miterlimit="10"/>
<path d="M143.659 114.394C143.659 140.766 117.959 156.852 86.2571 156.852C54.5551 156.852 28.8555 140.766 28.8555 114.394C28.8555 88.0223 38.4224 61.3518 86.2571 61.3518C134.092 61.3518 143.659 88.0223 143.659 114.394Z" fill="#FFEBD1" stroke="#0A13FF" stroke-width="4" stroke-miterlimit="10"/>
<path d="M147.258 96.5728C122.891 93.5066 102.48 83.9121 86.2578 67.4045C72.7676 83.1672 51.7101 92.251 25.2578 96.5728V92.9173C25.2578 82.4825 29.403 72.4751 36.7816 65.0965C44.1601 57.718 54.1675 53.5728 64.6023 53.5728H107.913C113.08 53.5728 118.196 54.5904 122.97 56.5677C127.743 58.5449 132.081 61.443 135.734 65.0965C139.387 68.75 142.286 73.0873 144.263 77.8608C146.24 82.6343 147.258 87.7505 147.258 92.9173L147.258 96.5728Z" class="fill"/>
<path d="M149.258 96.5727C122.828 93.7744 101.085 84.9109 86.2578 67.4045C71.4308 84.9109 49.6873 93.7744 23.2578 96.5727" stroke="#0A13FF" stroke-width="4" stroke-miterlimit="10"/>
</g>
<defs>
<clipPath id="clip0_119_4075">
<rect width="100%" height="100%" fill="white"/>
</clipPath>
</defs>
</svg>
