<svg class="tree-image-resource" viewBox="0 0 173 210" fill="none" xmlns="http://www.w3.org/2000/svg">
<g clip-path="url(#clip0_152_3772)">
<path d="M102.65 52.41H102.37C101.6 60.63 94.6897 67.07 86.2597 67.07C77.8297 67.07 70.9197 60.63 70.1497 52.41H69.8697C59.5697 52.41 45.2897 56.58 33.2197 70.36C39.8297 81.68 42.9297 87.72 42.9297 87.72L86.2497 77.7L87.8797 75.8L129.57 87.73C129.57 87.73 132.67 81.68 139.28 70.37C127.21 56.59 112.93 52.42 102.63 52.42L102.65 52.41Z" class="fill" stroke="#0713FF" stroke-width="4" stroke-miterlimit="10"/>
<path d="M126.76 75.4199C122.73 65.4999 117.26 73.3599 86.2501 73.3599C55.2401 73.3599 49.7801 65.5099 45.7401 75.4199C38.9901 92.0199 34.3301 153.83 34.3301 153.83C50.5801 156.19 70.1501 157.26 86.2501 157.18C102.35 157.26 121.92 156.19 138.17 153.83C138.17 153.83 133.51 92.0099 126.76 75.4199Z" class="fill"/>
<path d="M129 84.4299C132.48 103.29 138.17 153.58 138.17 153.58C121.92 155.94 96.0901 157.19 86.2501 157.19C76.4101 157.19 50.5801 155.94 34.3301 153.58C34.3301 153.58 40.0201 103.29 43.5001 84.4299" class="fill"/>
<path d="M129 84.4299C132.48 103.29 138.17 153.58 138.17 153.58C121.92 155.94 96.0901 157.19 86.2501 157.19C76.4101 157.19 50.5801 155.94 34.3301 153.58C34.3301 153.58 40.0201 103.29 43.5001 84.4299" stroke="#0713FF" stroke-width="4" stroke-miterlimit="10"/>
</g>
<defs>
<clipPath id="clip0_152_3772">
<rect width="100%" height="100%" fill="white"/>
</clipPath>
</defs>
</svg>
