<svg class="tree-image-resource" viewBox="0 0 173 210" fill="none" xmlns="http://www.w3.org/2000/svg">
<g clip-path="url(#clip0_152_3747)">
<path d="M25.71 91.87C28.7034 91.87 31.13 89.4434 31.13 86.45C31.13 83.4566 28.7034 81.03 25.71 81.03C22.7167 81.03 20.29 83.4566 20.29 86.45C20.29 89.4434 22.7167 91.87 25.71 91.87Z" class="fill" stroke="#0713FF" stroke-width="4" stroke-miterlimit="10"/>
<path d="M29.5098 100.83C32.5032 100.83 34.9298 98.4034 34.9298 95.41C34.9298 92.4166 32.5032 89.99 29.5098 89.99C26.5165 89.99 24.0898 92.4166 24.0898 95.41C24.0898 98.4034 26.5165 100.83 29.5098 100.83Z" class="fill" stroke="#0713FF" stroke-width="4" stroke-miterlimit="10"/>
<path d="M36.5597 106.99C39.553 106.99 41.9796 104.563 41.9796 101.57C41.9796 98.5766 39.553 96.15 36.5597 96.15C33.5663 96.15 31.1396 98.5766 31.1396 101.57C31.1396 104.563 33.5663 106.99 36.5597 106.99Z" class="fill" stroke="#0713FF" stroke-width="4" stroke-miterlimit="10"/>
<path d="M40.8298 156.96C44.4142 156.96 47.3198 154.26 47.3198 150.93C47.3198 147.6 44.4142 144.9 40.8298 144.9C37.2455 144.9 34.3398 147.6 34.3398 150.93C34.3398 154.26 37.2455 156.96 40.8298 156.96Z" class="fill" stroke="#0713FF" stroke-width="4" stroke-miterlimit="10"/>
<path d="M53.8103 158.79C57.3946 158.79 60.3003 156.09 60.3003 152.76C60.3003 149.43 57.3946 146.73 53.8103 146.73C50.226 146.73 47.3203 149.43 47.3203 152.76C47.3203 156.09 50.226 158.79 53.8103 158.79Z" class="fill" stroke="#0713FF" stroke-width="4" stroke-miterlimit="10"/>
<path d="M66.7898 160.37C70.3741 160.37 73.2798 157.67 73.2798 154.34C73.2798 151.01 70.3741 148.31 66.7898 148.31C63.2055 148.31 60.2998 151.01 60.2998 154.34C60.2998 157.67 63.2055 160.37 66.7898 160.37Z" class="fill" stroke="#0713FF" stroke-width="4" stroke-miterlimit="10"/>
<path d="M79.7703 160.82C83.3546 160.82 86.2603 158.12 86.2603 154.79C86.2603 151.46 83.3546 148.76 79.7703 148.76C76.1859 148.76 73.2803 151.46 73.2803 154.79C73.2803 158.12 76.1859 160.82 79.7703 160.82Z" class="fill" stroke="#0713FF" stroke-width="4" stroke-miterlimit="10"/>
<path d="M131.68 158.79C135.265 158.79 138.17 156.09 138.17 152.76C138.17 149.43 135.265 146.73 131.68 146.73C128.096 146.73 125.19 149.43 125.19 152.76C125.19 156.09 128.096 158.79 131.68 158.79Z" class="fill" stroke="#0713FF" stroke-width="4" stroke-miterlimit="10"/>
<path d="M118.7 160.37C122.284 160.37 125.19 157.67 125.19 154.34C125.19 151.01 122.284 148.31 118.7 148.31C115.116 148.31 112.21 151.01 112.21 154.34C112.21 157.67 115.116 160.37 118.7 160.37Z" class="fill" stroke="#0713FF" stroke-width="4" stroke-miterlimit="10"/>
<path d="M105.73 160.82C109.315 160.82 112.22 158.12 112.22 154.79C112.22 151.46 109.315 148.76 105.73 148.76C102.146 148.76 99.2402 151.46 99.2402 154.79C99.2402 158.12 102.146 160.82 105.73 160.82Z" class="fill" stroke="#0713FF" stroke-width="4" stroke-miterlimit="10"/>
<path d="M92.7498 161.62C96.3341 161.62 99.2398 158.92 99.2398 155.59C99.2398 152.26 96.3341 149.56 92.7498 149.56C89.1654 149.56 86.2598 152.26 86.2598 155.59C86.2598 158.92 89.1654 161.62 92.7498 161.62Z" class="fill" stroke="#0713FF" stroke-width="4" stroke-miterlimit="10"/>
<path d="M146.8 91.87C149.793 91.87 152.22 89.4434 152.22 86.45C152.22 83.4566 149.793 81.03 146.8 81.03C143.806 81.03 141.38 83.4566 141.38 86.45C141.38 89.4434 143.806 91.87 146.8 91.87Z" class="fill" stroke="#0713FF" stroke-width="4" stroke-miterlimit="10"/>
<path d="M143 100.83C145.993 100.83 148.42 98.4034 148.42 95.41C148.42 92.4166 145.993 89.99 143 89.99C140.007 89.99 137.58 92.4166 137.58 95.41C137.58 98.4034 140.007 100.83 143 100.83Z" class="fill" stroke="#0713FF" stroke-width="4" stroke-miterlimit="10"/>
<path d="M135.96 106.99C138.953 106.99 141.38 104.563 141.38 101.57C141.38 98.5766 138.953 96.15 135.96 96.15C132.967 96.15 130.54 98.5766 130.54 101.57C130.54 104.563 132.967 106.99 135.96 106.99Z" class="fill" stroke="#0713FF" stroke-width="4" stroke-miterlimit="10"/>
<path d="M126.76 70.99C122.73 61.07 117.26 69.66 86.2501 69.66C55.2401 69.66 49.7801 61.07 45.7401 70.99C38.9901 87.59 34.3301 149.4 34.3301 149.4C50.5801 151.76 70.1501 152.83 86.2501 152.75C102.35 152.83 121.92 151.76 138.17 149.4C138.17 149.4 133.51 87.58 126.76 70.99Z" fill="white"/>
<path d="M140.07 66.84C127.84 52.34 113.17 47.99 102.65 47.99H102.37C101.6 56.21 94.69 62.65 86.26 62.65C77.83 62.65 70.92 56.21 70.15 47.99H69.87C59.35 47.99 44.68 52.35 32.45 66.84C22.6 78.52 26.65 96.39 40.63 102.57H40.65L86.27 84.54L131.89 102.58H131.91C145.88 96.39 149.94 78.52 140.09 66.84H140.07Z" class="fill" stroke="#0713FF" stroke-width="4" stroke-miterlimit="10"/>
<path d="M129 80C132.48 98.86 138.17 149.15 138.17 149.15C121.92 151.51 96.0901 152.76 86.2501 152.76C76.4101 152.76 50.5801 151.51 34.3301 149.15C34.3301 149.15 40.0201 98.86 43.5001 80" class="fill"/>
<path d="M129 80C132.48 98.86 138.17 149.15 138.17 149.15C121.92 151.51 96.0901 152.76 86.2501 152.76C76.4101 152.76 50.5801 151.51 34.3301 149.15C34.3301 149.15 40.0201 98.86 43.5001 80" stroke="#0713FF" stroke-width="4" stroke-miterlimit="10"/>
</g>
<defs>
<clipPath id="clip0_152_3747">
<rect width="100%" height="100%" fill="white"/>
</clipPath>
</defs>
</svg>
