<svg class="tree-image-resource" viewBox="0 0 173 210" fill="none" xmlns="http://www.w3.org/2000/svg">
<g clip-path="url(#clip0_152_3783)">
<path d="M102.65 52.41H102.37C101.6 60.63 94.6905 67.07 86.2605 67.07C77.8305 67.07 70.9205 60.63 70.1505 52.41H69.8705C55.0005 52.41 31.8405 61.11 18.9805 94.86C27.5905 101.25 40.6405 106.99 40.6405 106.99L86.2605 83.77V86.49L131.88 106.99C131.88 106.99 144.93 101.25 153.54 94.86C140.69 61.11 117.53 52.41 102.65 52.41Z" class="fill" stroke="#0713FF" stroke-width="4" stroke-miterlimit="10"/>
<path d="M126.76 75.42C122.73 65.5 117.26 69.28 86.2501 69.28C55.2401 69.28 49.7801 65.51 45.7401 75.42C38.9901 92.02 34.3301 153.83 34.3301 153.83C50.5801 156.19 70.1501 157.26 86.2501 157.18C102.35 157.26 121.92 156.19 138.17 153.83C138.17 153.83 133.51 92.01 126.76 75.42Z" class="fill"/>
<path d="M129 84.43C132.48 103.29 138.17 153.58 138.17 153.58C121.92 155.94 96.0901 157.19 86.2501 157.19C76.4101 157.19 50.5801 155.94 34.3301 153.58C34.3301 153.58 40.0201 103.29 43.5001 84.43" class="fill"/>
<path d="M129 84.43C132.48 103.29 138.17 153.58 138.17 153.58C121.92 155.94 96.0901 157.19 86.2501 157.19C76.4101 157.19 50.5801 155.94 34.3301 153.58C34.3301 153.58 40.0201 103.29 43.5001 84.43" stroke="#0713FF" stroke-width="4" stroke-miterlimit="10"/>
</g>
<defs>
<clipPath id="clip0_152_3783">
<rect width="100%" height="100%" fill="white"/>
</clipPath>
</defs>
</svg>
