<svg class="tree-image-resource" viewBox="0 0 173 210" fill="none" xmlns="http://www.w3.org/2000/svg">
<g clip-path="url(#clip0_152_3794)">
<path d="M153.9 94.87C141.05 61.12 117.89 52.42 103.01 52.42H102.73C101.96 60.64 95.0505 67.08 86.6205 67.08C78.1905 67.08 71.2805 60.64 70.5105 52.42H70.2305C55.3605 52.42 32.2005 61.12 19.3405 94.87C12.9605 111.6 7.73047 125.03 7.73047 125.03L41.0005 107L78.4905 79.62L95.3605 82.42L132.23 107L164.77 123.03C164.77 123.03 161.51 114.51 153.88 94.86L153.9 94.87Z" class="fill" stroke="#0713FF" stroke-width="4" stroke-miterlimit="10"/>
<path d="M127.13 75.42C123.1 65.5 117.63 71.69 86.6202 71.69C55.6102 71.69 50.1502 65.5 46.1102 75.42C39.3602 92.02 34.7002 153.83 34.7002 153.83C50.9502 156.19 70.5202 157.26 86.6202 157.18C102.72 157.26 122.29 156.19 138.54 153.83C138.54 153.83 133.88 92.01 127.13 75.42Z" class="fill"/>
<path d="M129.37 84.43C132.85 103.29 138.54 153.58 138.54 153.58C122.29 155.94 96.4602 157.19 86.6202 157.19C76.7802 157.19 50.9502 155.94 34.7002 153.58C34.7002 153.58 40.3902 103.29 43.8702 84.43" class="fill"/>
<path d="M129.37 84.43C132.85 103.29 138.54 153.58 138.54 153.58C122.29 155.94 96.4602 157.19 86.6202 157.19C76.7802 157.19 50.9502 155.94 34.7002 153.58C34.7002 153.58 40.3902 103.29 43.8702 84.43" stroke="#0713FF" stroke-width="4" stroke-miterlimit="10"/>
</g>
<defs>
<clipPath id="clip0_152_3794">
<rect width="100%" height="100%" fill="white"/>
</clipPath>
</defs>
</svg>
