<svg class="tree-image-resource" viewBox="0 0 173 210" fill="none" xmlns="http://www.w3.org/2000/svg">
<g clip-path="url(#clip0_152_3825)">
<path d="M153.53 87.87C140.68 54.12 117.52 45.42 102.64 45.42H102.36C101.59 53.64 94.6798 60.08 86.2498 60.08C77.8198 60.08 70.9098 53.64 70.1398 45.42H69.8598C54.9898 45.42 31.8298 54.12 18.9698 87.87C12.8498 102.33 4.75977 123.47 4.75977 123.47L35.6898 134.89L86.2398 74.73L136.79 134.89L167.72 123.47C167.72 123.47 159.63 102.33 153.51 87.87H153.53Z" class="fill" stroke="#0713FF" stroke-width="4" stroke-miterlimit="10"/>
<path d="M126.76 68.43C122.73 58.51 119.33 66.76 88.3298 66.76C57.3298 66.76 49.7798 58.52 45.7498 68.43C38.9998 85.03 34.3398 146.84 34.3398 146.84C50.5898 149.2 70.1598 150.27 86.2598 150.19C102.36 150.27 121.93 149.2 138.18 146.84C138.18 146.84 133.52 85.02 126.77 68.43H126.76Z" class="fill"/>
<path d="M129 77.44C132.48 96.3 138.17 146.59 138.17 146.59C121.92 148.95 96.0901 150.2 86.2501 150.2C76.4101 150.2 50.5801 148.95 34.3301 146.59C34.3301 146.59 40.0201 96.3 43.5001 77.44" class="fill"/>
<path d="M129 77.44C132.48 96.3 138.17 146.59 138.17 146.59C121.92 148.95 96.0901 150.2 86.2501 150.2C76.4101 150.2 50.5801 148.95 34.3301 146.59C34.3301 146.59 40.0201 96.3 43.5001 77.44" stroke="#0713FF" stroke-width="4" stroke-miterlimit="10"/>
</g>
<defs>
<clipPath id="clip0_152_3825">
<rect width="100%" height="100%" fill="white"/>
</clipPath>
</defs>
</svg>
