<svg class="tree-image-resource" viewBox="0 0 173 210" fill="none" xmlns="http://www.w3.org/2000/svg">
<g clip-path="url(#clip0_152_3805)">
<path d="M102.65 47.77H102.37C101.6 55.99 94.6905 62.43 86.2605 62.43C77.8305 62.43 70.9205 55.99 70.1505 47.77H69.8705C55.0005 47.77 31.8405 56.47 18.9805 90.22C27.5905 96.61 40.6405 102.35 40.6405 102.35L86.2605 78.57L131.88 102.35C131.88 102.35 144.93 96.61 153.54 90.22C140.69 56.47 117.53 47.77 102.65 47.77Z" class="fill" stroke="#0713FF" stroke-width="4" stroke-miterlimit="10"/>
<path d="M126.761 70.77C122.731 60.85 117.261 66.67 86.2511 66.67C55.2411 66.67 49.7811 60.86 45.7411 70.77C38.9911 87.37 34.3311 149.18 34.3311 149.18C50.5811 151.54 70.1511 152.61 86.2511 152.53C102.351 152.61 121.921 151.54 138.171 149.18C138.171 149.18 133.511 87.36 126.761 70.77Z" class="fill"/>
<path d="M129.001 79.78C132.481 98.64 138.171 148.93 138.171 148.93C121.921 151.29 96.0911 152.54 86.2511 152.54C76.4111 152.54 50.5811 151.29 34.3311 148.93C34.3311 148.93 40.0211 98.64 43.5011 79.78" class="fill"/>
<path d="M129.001 79.78C132.481 98.64 138.171 148.93 138.171 148.93C121.921 151.29 96.0911 152.54 86.2511 152.54C76.4111 152.54 50.5811 151.29 34.3311 148.93C34.3311 148.93 40.0211 98.64 43.5011 79.78" stroke="#0713FF" stroke-width="4" stroke-miterlimit="10"/>
<path d="M33.4912 66.67L44.4812 74.47C72.5712 78.6 100.411 78.65 128.011 74.42L140.101 66.67" stroke="#0713FF" stroke-width="5" stroke-miterlimit="10"/>
<path d="M41.4609 90.8C71.5909 93.69 101.371 93.76 130.791 90.8" stroke="#0713FF" stroke-width="5" stroke-miterlimit="10"/>
<path d="M39.5312 106.55C70.9813 109.73 102.141 109.79 132.991 106.55" stroke="#0713FF" stroke-width="5" stroke-miterlimit="10"/>
<path d="M37.5107 122.29C70.1407 127.01 102.681 126.99 135.151 122.29" stroke="#0713FF" stroke-width="5" stroke-miterlimit="10"/>
<path d="M35.6113 138.03C68.8413 143.4 102.621 143.63 137.001 138.03" stroke="#0713FF" stroke-width="5" stroke-miterlimit="10"/>
<path d="M149.421 80.91L130.791 90.8" stroke="#0713FF" stroke-width="5" stroke-miterlimit="10"/>
<path d="M23.0908 80.91L41.7208 90.8" stroke="#0713FF" stroke-width="5" stroke-miterlimit="10"/>
</g>
<defs>
<clipPath id="clip0_152_3805">
<rect width="100%" height="100%" fill="white"/>
</clipPath>
</defs>
</svg>
