<svg class="tree-image-resource" viewBox="0 0 173 210" fill="none" xmlns="http://www.w3.org/2000/svg">
<g clip-path="url(#clip0_152_3859)">
<path d="M153.53 69.6C140.68 35.85 117.52 27.15 102.64 27.15H102.36C101.59 35.37 94.6798 41.81 86.2498 41.81C77.8198 41.81 70.9098 35.37 70.1398 27.15H69.8598C54.9898 27.15 31.8298 35.85 18.9698 69.6C12.8498 84.06 4.75977 105.2 4.75977 105.2L35.6898 116.62H136.8L167.73 105.2C167.73 105.2 159.64 84.06 153.52 69.6H153.53Z" class="fill" stroke="#0713FF" stroke-width="4" stroke-miterlimit="10"/>
<path d="M126.76 50.15C122.73 40.23 117.26 51.45 86.2501 51.45C55.2401 51.45 49.7801 40.23 45.7401 50.15C38.9901 66.75 34.3301 128.56 34.3301 128.56C50.5801 130.92 70.1501 131.99 86.2501 131.91C102.35 131.99 121.92 130.92 138.17 128.56C138.17 128.56 133.51 66.74 126.76 50.15Z" class="fill"/>
<path d="M43.5102 59.16C40.9002 73.3 31.3302 146.62 26.7002 182.45H145.12C140.72 146.62 131.61 73.3 129 59.16" class="fill"/>
<path d="M43.5102 59.16C40.9002 73.3 31.3302 146.62 26.7002 182.45H145.12C140.72 146.62 131.61 73.3 129 59.16" stroke="#0713FF" stroke-width="4" stroke-miterlimit="10"/>
<path d="M30.6911 84.4554L25.9238 86.5571L28.0819 91.4525L32.8492 89.3508L30.6911 84.4554Z" class="fill"/>
</g>
<defs>
<clipPath id="clip0_152_3859">
<rect width="100%" height="100%" fill="white"/>
</clipPath>
</defs>
</svg>
