<svg class="tree-image-resource" viewBox="0 0 173 210" fill="none" xmlns="http://www.w3.org/2000/svg">
<g clip-path="url(#clip0_152_3836)">
<path d="M153.53 87.87C140.68 54.12 117.52 45.42 102.64 45.42H102.36C101.6 53.64 94.6798 60.08 86.2498 60.08C77.8198 60.08 70.9098 53.64 70.1398 45.42H69.8598C54.9898 45.42 31.8298 54.12 18.9698 87.87C12.8498 102.33 4.75977 123.47 4.75977 123.47L35.6898 134.89L85.6498 65.01L90.6798 66.64L136.8 134.89L167.73 123.47C167.73 123.47 159.64 102.33 153.52 87.87H153.53Z" fill="white" stroke="#0713FF" stroke-width="4" stroke-miterlimit="10"/>
<path d="M159.939 105.92C151.809 105.92 151.799 118.55 159.939 118.55C162.239 118.55 163.879 117.54 164.879 116.1C166.019 114.44 163.619 111.21 163.619 111.21C163.619 111.21 163.139 105.92 159.929 105.92H159.939Z" fill="#0713FF"/>
<path d="M135.59 99.91C127.46 99.91 127.45 112.54 135.59 112.54C143.73 112.54 143.73 99.91 135.59 99.91Z" fill="#0713FF"/>
<path d="M147.789 75.09C139.659 75.09 139.649 87.72 147.789 87.72C150.029 87.72 151.649 86.76 152.649 85.38L147.789 75.09Z" fill="#0713FF"/>
<path d="M126.759 68.43C122.729 58.51 115.359 62.81 84.3589 62.81C53.3589 62.81 49.7789 58.52 45.7489 68.43C38.9989 85.03 34.3389 146.84 34.3389 146.84C50.5889 149.2 70.1589 150.27 86.2589 150.19C102.359 150.27 121.929 149.2 138.179 146.84C138.179 146.84 133.519 85.02 126.769 68.43H126.759Z" fill="white"/>
<path d="M128.999 77.44C132.479 96.3 138.169 146.59 138.169 146.59C121.919 148.95 96.0891 150.2 86.2491 150.2C76.4091 150.2 50.5791 148.95 34.3291 146.59C34.3291 146.59 40.0191 96.3 43.4991 77.44" fill="white"/>
<path d="M128.999 77.44C132.479 96.3 138.169 146.59 138.169 146.59C121.919 148.95 96.0891 150.2 86.2491 150.2C76.4091 150.2 50.5791 148.95 34.3291 146.59C34.3291 146.59 40.0191 96.3 43.4991 77.44" stroke="#0713FF" stroke-width="4" stroke-miterlimit="10"/>
<path d="M120.049 127.97C111.919 127.97 111.909 140.6 120.049 140.6C128.189 140.6 128.189 127.97 120.049 127.97Z" fill="#0713FF"/>
<path d="M53.5495 127.21C45.4195 127.21 45.4095 139.84 53.5495 139.84C61.6895 139.84 61.6895 127.21 53.5495 127.21Z" fill="#0713FF"/>
<path d="M88.8991 103.95C80.7691 103.95 80.7591 116.58 88.8991 116.58C97.0391 116.58 97.0391 103.95 88.8991 103.95Z" fill="#0713FF"/>
<path d="M64.7888 75.91C56.6588 75.91 56.6488 88.54 64.7888 88.54C72.9288 88.54 72.9288 75.91 64.7888 75.91Z" fill="#0713FF"/>
<path d="M30.6911 102.733L25.9238 104.835L28.0819 109.73L32.8492 107.628L30.6911 102.733Z" fill="white"/>
<path d="M109.53 75.09C101.4 75.09 101.39 87.72 109.53 87.72C117.67 87.72 117.67 75.09 109.53 75.09Z" fill="#0713FF"/>
<path d="M23.2795 121.86C19.5595 121.86 17.5395 124.5 17.2195 127.37C16.8395 130.77 27.9395 132.96 28.8095 130.97C30.4295 127.23 28.5895 121.85 23.2795 121.85V121.86Z" fill="#0713FF"/>
<path d="M24.2595 82.22C16.1295 82.22 16.1195 94.85 24.2595 94.85C32.3995 94.85 32.3995 82.22 24.2595 82.22Z" fill="#0713FF"/>
</g>
<defs>
<clipPath id="clip0_152_3836">
<rect width="100%" height="100%" fill="white"/>
</clipPath>
</defs>
</svg>
