<svg viewBox="0 0 173 210" fill="none" xmlns="http://www.w3.org/2000/svg">
<g clip-path="url(#clip0_151_3623)">
<path d="M26.3805 45.13L19.9805 152.54H152.54L146.14 45.13H26.3805Z" class="fill" stroke="#0713FF" stroke-width="4" stroke-miterlimit="10"/>
<path d="M25.6904 61.29H147.73" stroke="#0713FF" stroke-width="4" stroke-miterlimit="10"/>
<path d="M125.111 60.91C125.111 60.91 124.731 87.33 148.871 98.36L125.111 60.91Z" class="fill"/>
<path d="M125.111 60.91C125.111 60.91 124.731 87.33 148.871 98.36" stroke="#0713FF" stroke-width="4" stroke-miterlimit="10"/>
<path d="M47.55 60.91C47.55 60.91 47.93 87.33 23.79 98.36L47.55 60.91Z" class="fill"/>
<path d="M47.55 60.91C47.55 60.91 47.93 87.33 23.79 98.36" stroke="#0713FF" stroke-width="4" stroke-miterlimit="10"/>
<path d="M86.2608 67.3101C79.3308 67.3101 79.3208 78.0801 86.2608 78.0801C93.2008 78.0801 93.2008 67.3101 86.2608 67.3101Z" class="fill"/>
</g>
<defs>
<clipPath id="clip0_151_3623">
<rect width="100%" height="100%" fill="white"/>
</clipPath>
</defs>
</svg>
