<svg class="tree-image-resource" viewBox="0 0 860 860" fill="none" xmlns="http://www.w3.org/2000/svg">
<g clip-path="url(#clip0_137_3474)">
<path d="M366.649 695.83C354.599 697.51 342.099 710.62 344.669 724.58C346.919 736.82 355.629 745.42 380.209 744.61C393.939 744.16 405.009 743.03 412.009 733.93C415.129 729.86 416.779 724.86 416.929 719.74C417.089 714.11 417.369 695.28 417.719 671.36H365.539C365.879 682.06 366.259 690.68 366.659 695.84L366.649 695.83Z" class="fill" stroke="#0A13FF" stroke-width="5" stroke-miterlimit="10"/>
<path d="M442.299 671.35C442.649 695.27 442.929 714.1 443.089 719.73C443.229 724.86 444.879 729.86 448.009 733.92C454.999 743.03 466.079 744.15 479.809 744.6C504.379 745.41 513.089 736.81 515.349 724.57C517.919 710.61 505.419 697.5 493.369 695.82C493.769 690.66 494.149 682.03 494.489 671.34H442.309L442.299 671.35Z" class="fill" stroke="#0A13FF" stroke-width="5" stroke-miterlimit="10"/>
<path d="M364.92 649.42C365.11 657.31 365.31 664.73 365.52 671.35H417.7C417.8 664.4 417.91 657.03 418.02 649.42H364.92Z" fill="white" stroke="#0A13FF" stroke-width="5" stroke-miterlimit="10"/>
<path d="M495.078 649.42H441.979C442.089 657.03 442.198 664.4 442.298 671.35H494.479C494.689 664.72 494.888 657.31 495.078 649.42Z" fill="white" stroke="#0A13FF" stroke-width="5" stroke-miterlimit="10"/>
</g>
<defs>
<clipPath id="clip0_137_3474">
<rect width="100%" height="100%" fill="white"/>
</clipPath>
</defs>
</svg>
