<svg class="tree-image-resource" viewBox="0 0 860 860" fill="none" xmlns="http://www.w3.org/2000/svg">
<g clip-path="url(#clip0_137_3518)">
<path d="M344.671 724.58C346.921 736.82 355.631 745.42 380.211 744.61C393.941 744.16 405.011 743.03 412.011 733.93C415.131 729.86 416.781 724.86 416.931 719.74C417.231 708.89 418.001 649.14 418.811 598.22H363.941C364.571 637.44 365.501 680.98 366.661 695.84C354.611 697.52 342.111 710.63 344.681 724.59L344.671 724.58Z" class="fill" stroke="#0A13FF" stroke-width="5" stroke-miterlimit="10"/>
<path d="M448.001 733.92C454.991 743.03 466.071 744.15 479.801 744.6C504.371 745.41 513.081 736.81 515.341 724.57C517.911 710.61 505.411 697.5 493.361 695.82C494.521 680.96 495.441 637.42 496.081 598.2H441.211C442.021 649.12 442.791 708.87 443.091 719.72C443.231 724.85 444.881 729.85 448.011 733.91L448.001 733.92Z" class="fill" stroke="#0A13FF" stroke-width="5" stroke-miterlimit="10"/>
</g>
<defs>
<clipPath id="clip0_137_3518">
<rect width="100%" height="100%" fill="white"/>
</clipPath>
</defs>
</svg>
