<svg class="tree-image-resource" viewBox="0 0 860 860" fill="none" xmlns="http://www.w3.org/2000/svg">
<g clip-path="url(#clip0_137_3509)">
<path d="M344.671 724.58C346.921 736.82 355.631 745.42 380.211 744.61C393.941 744.16 405.011 743.03 412.011 733.93C415.131 729.86 416.781 724.86 416.931 719.74C417.061 715.11 417.271 701.55 417.541 683.58H365.991C366.201 688.65 366.431 692.84 366.661 695.84C354.611 697.52 342.111 710.63 344.681 724.59L344.671 724.58Z" class="fill" stroke="#0A13FF" stroke-width="5" stroke-miterlimit="10"/>
<path d="M448 733.92C454.99 743.03 466.07 744.15 479.8 744.6C504.37 745.41 513.08 736.81 515.34 724.57C517.91 710.61 505.41 697.5 493.36 695.82C493.59 692.82 493.82 688.63 494.03 683.56H442.48C442.75 701.53 442.96 715.09 443.09 719.72C443.23 724.85 444.88 729.85 448.01 733.91L448 733.92Z" class="fill" stroke="#0A13FF" stroke-width="5" stroke-miterlimit="10"/>
</g>
<defs>
<clipPath id="clip0_137_3509">
<rect width="100%" height="100%" fill="white"/>
</clipPath>
</defs>
</svg>
