<svg class="tree-image-resource" viewBox="0 0 860 860" fill="none" xmlns="http://www.w3.org/2000/svg">
<g clip-path="url(#clip0_137_3444)">
<path d="M419.26 723.92H389.05C387.73 714.92 382.86 702.34 366.65 695.83C366.65 695.83 338.15 699.42 338.15 730.97V737.6C338.15 741.5 341.31 744.65 345.2 744.65H419.26C423.16 744.65 426.31 741.49 426.31 737.6V730.97C426.31 727.07 423.15 723.92 419.26 723.92Z" class="fill" stroke="#0A13FF" stroke-width="5" stroke-miterlimit="10"/>
<path d="M441.06 723.92H471.27C472.59 714.92 477.46 702.34 493.67 695.83C493.67 695.83 522.17 699.42 522.17 730.97V737.6C522.17 741.5 519.01 744.65 515.12 744.65H441.06C437.16 744.65 434.01 741.49 434.01 737.6V730.97C434.01 727.07 437.17 723.92 441.06 723.92Z" class="fill" stroke="#0A13FF" stroke-width="5" stroke-miterlimit="10"/>
</g>
<defs>
<clipPath id="clip0_137_3444">
<rect width="100%" height="100%" fill="white"/>
</clipPath>
</defs>
</svg>
