<svg class="tree-image-resource" viewBox="0 0 860 860" fill="none" xmlns="http://www.w3.org/2000/svg">
<g clip-path="url(#clip0_137_3466)">
<path d="M366.651 695.83C362.861 696.36 359.031 698.02 355.631 700.47C356.331 707.32 367.051 714.96 376.831 716.3C374.391 725.95 346.651 726.17 347.931 708.72C345.051 713.39 343.621 718.91 344.661 724.57C346.911 736.81 355.621 745.41 380.201 744.6C393.931 744.15 405.001 743.02 412.001 733.92C415.121 729.85 416.771 724.85 416.921 719.73C417.011 716.49 417.141 713.08 417.301 702.63C389.811 709.22 374.841 705.92 366.651 695.83Z" class="fill" stroke="#0A13FF" stroke-width="5" stroke-linecap="round" stroke-linejoin="round"/>
<path d="M493.349 695.83C497.139 696.36 500.969 698.02 504.369 700.47C503.669 707.32 492.949 714.96 483.169 716.3C485.609 725.95 513.349 726.17 512.069 708.72C514.949 713.39 516.379 718.91 515.339 724.57C513.089 736.81 504.379 745.41 479.799 744.6C466.069 744.15 454.999 743.02 447.999 733.92C444.879 729.85 443.229 724.85 443.079 719.73C442.989 716.49 442.859 713.08 442.699 702.63C470.189 709.22 485.159 705.92 493.349 695.83Z" class="fill" stroke="#0A13FF" stroke-width="5" stroke-linecap="round" stroke-linejoin="round"/>
</g>
<defs>
<clipPath id="clip0_137_3466">
<rect width="100%" height="100%" fill="white"/>
</clipPath>
</defs>
</svg>
