<svg class="tree-image-resource" viewBox="0 0 860 860" fill="none" xmlns="http://www.w3.org/2000/svg">
<g clip-path="url(#clip0_137_3452)">
<path d="M366.649 695.83C354.599 697.51 342.099 710.62 344.669 724.58C346.919 736.82 355.629 745.42 380.209 744.61C393.939 744.16 405.009 743.03 412.009 733.93C415.129 729.86 416.779 724.86 416.929 719.74C417.019 716.5 417.149 713.09 417.309 702.64C387.769 718.26 363.329 708.19 366.659 695.84L366.649 695.83Z" class="fill" stroke="#0A13FF" stroke-width="5" stroke-linecap="round" stroke-linejoin="round"/>
<path d="M354.25 701.55C354.25 701.55 358.53 723.55 358.53 724.19L354.25 701.55Z" fill="#FFEBD1"/>
<path d="M354.25 701.55C354.25 701.55 358.53 723.55 358.53 724.19" stroke="#0A13FF" stroke-width="5" stroke-linecap="round" stroke-linejoin="round"/>
<path d="M345.93 712.74L366.78 714.94" stroke="#0A13FF" stroke-width="5" stroke-linecap="round" stroke-linejoin="round"/>
<path d="M493.349 695.83C505.399 697.51 517.899 710.62 515.329 724.58C513.079 736.82 504.369 745.42 479.789 744.61C466.059 744.16 454.989 743.03 447.989 733.93C444.869 729.86 443.219 724.86 443.069 719.74C442.979 716.5 442.849 713.09 442.689 702.64C472.229 718.26 496.669 708.19 493.339 695.84L493.349 695.83Z" class="fill" stroke="#0A13FF" stroke-width="5" stroke-linecap="round" stroke-linejoin="round"/>
<path d="M505.749 701.55C505.749 701.55 501.469 723.55 501.469 724.19L505.749 701.55Z" fill="#FFEBD1"/>
<path d="M505.749 701.55C505.749 701.55 501.469 723.55 501.469 724.19" stroke="#0A13FF" stroke-width="5" stroke-linecap="round" stroke-linejoin="round"/>
<path d="M514.069 712.74L493.219 714.94" stroke="#0A13FF" stroke-width="5" stroke-linecap="round" stroke-linejoin="round"/>
</g>
<defs>
<clipPath id="clip0_137_3452">
<rect width="100%" height="100%" fill="white"/>
</clipPath>
</defs>
</svg>
