<svg class="tree-image-resource" viewBox="0 0 860 860" fill="none" xmlns="http://www.w3.org/2000/svg">
<g clip-path="url(#clip0_137_3485)">
<path d="M344.671 724.58C346.921 736.82 355.631 745.42 380.211 744.61C393.941 744.16 405.011 743.03 412.011 733.93C415.131 729.86 416.781 724.86 416.931 719.74C417.161 711.49 417.661 674.97 418.241 635.55H364.631C365.191 662.03 365.871 685.67 366.661 695.84C354.611 697.52 342.111 710.63 344.681 724.59L344.671 724.58Z" class="fill" stroke="#0A13FF" stroke-width="5.46" stroke-linecap="round" stroke-linejoin="round"/>
<path d="M365.811 650.33L394.761 662.77" stroke="#0A13FF" stroke-width="5.41" stroke-linecap="round" stroke-linejoin="round"/>
<path d="M365.711 662.58L394.851 650.51" stroke="#0A13FF" stroke-width="5.41" stroke-linecap="round" stroke-linejoin="round"/>
<path d="M365.811 673.28L394.761 685.72" stroke="#0A13FF" stroke-width="5.41" stroke-linecap="round" stroke-linejoin="round"/>
<path d="M366.711 685.53L394.851 673.47" stroke="#0A13FF" stroke-width="5.41" stroke-linecap="round" stroke-linejoin="round"/>
<path d="M364.951 635.54H364.611C364.971 652.81 365.391 668.87 365.861 680.77C366.121 680.72 366.391 680.67 366.651 680.64C366.011 672.46 365.451 655.59 364.961 635.54H364.951Z" class="fill" stroke="#0A13FF" stroke-width="5.46" stroke-linecap="round" stroke-linejoin="round"/>
<path d="M416.921 704.54C416.781 709.67 415.131 714.67 412.001 718.73C405.011 727.84 393.931 728.96 380.201 729.41C358.381 730.13 349.081 723.43 345.691 713.35C344.411 716.87 343.951 720.69 344.671 724.57C346.921 736.81 355.631 745.41 380.211 744.6C393.941 744.15 405.011 743.02 412.011 733.92C415.131 729.85 416.781 724.85 416.931 719.73C417.161 711.48 417.661 674.96 418.241 635.54H418.021C417.541 668.8 417.131 697.37 416.931 704.54H416.921Z" class="fill" stroke="#0A13FF" stroke-width="5.46" stroke-linecap="round" stroke-linejoin="round"/>
<path d="M515.33 724.58C513.08 736.82 504.37 745.42 479.79 744.61C466.06 744.16 454.99 743.03 447.99 733.93C444.87 729.86 443.22 724.86 443.07 719.74C442.84 711.49 442.34 674.97 441.76 635.55H495.37C494.81 662.03 494.13 685.67 493.34 695.84C505.39 697.52 517.89 710.63 515.32 724.59L515.33 724.58Z" class="fill" stroke="#0A13FF" stroke-width="5.46" stroke-linecap="round" stroke-linejoin="round"/>
<path d="M494.19 650.33L465.24 662.77" stroke="#0A13FF" stroke-width="5.41" stroke-linecap="round" stroke-linejoin="round"/>
<path d="M494.29 662.58L465.15 650.51" stroke="#0A13FF" stroke-width="5.41" stroke-linecap="round" stroke-linejoin="round"/>
<path d="M494.19 673.28L465.24 685.72" stroke="#0A13FF" stroke-width="5.41" stroke-linecap="round" stroke-linejoin="round"/>
<path d="M493.29 685.53L465.15 673.47" stroke="#0A13FF" stroke-width="5.41" stroke-linecap="round" stroke-linejoin="round"/>
<path d="M495.05 635.54H495.39C495.03 652.81 494.61 668.87 494.14 680.77C493.88 680.72 493.61 680.67 493.35 680.64C493.99 672.46 494.55 655.59 495.04 635.54H495.05Z" class="fill" stroke="#0A13FF" stroke-width="5.46" stroke-linecap="round" stroke-linejoin="round"/>
<path d="M443.08 704.54C443.22 709.67 444.87 714.67 448 718.73C454.99 727.84 466.07 728.96 479.8 729.41C501.62 730.13 510.92 723.43 514.31 713.35C515.59 716.87 516.05 720.69 515.33 724.57C513.08 736.81 504.37 745.41 479.79 744.6C466.06 744.15 454.99 743.02 447.99 733.92C444.87 729.85 443.22 724.85 443.07 719.73C442.84 711.48 442.34 674.96 441.76 635.54H441.98C442.46 668.8 442.87 697.37 443.07 704.54H443.08Z" class="fill" stroke="#0A13FF" stroke-width="5.46" stroke-linecap="round" stroke-linejoin="round"/>
</g>
<defs>
<clipPath id="clip0_137_3485">
<rect width="100%" height="100%" fill="white"/>
</clipPath>
</defs>
</svg>
