<svg viewBox="0 0 614 50" fill="none" xmlns="http://www.w3.org/2000/svg">
<g clip-path="url(#clip0_105_3575)">
<path d="M24.5133 11.5H3.03229L0.518555 12.9V2.35L3.03229 3.75H8.74531V2.75L7.46559 0H20.08L18.8002 2.75V3.75H24.5133L27.027 2.35V12.9L24.5133 11.5ZM0.655667 22.05C0.655667 15.8 5.77454 12.25 13.7728 12.25C21.771 12.25 26.8899 15.8 26.8899 22.05C26.8899 28.3 21.771 31.85 13.7728 31.85C5.77454 31.85 0.655667 28.3 0.655667 22.05ZM12.9044 39.2H39.1386L41.6523 37.8V48.85L39.1386 47.45H11.8532L10.2536 49.05L1.79827 44.4L2.84947 42.5V35.3L1.56975 32.55H14.2298L12.9501 35.3L12.9044 39.2ZM10.025 22.05C10.025 23.55 11.5333 24.6 13.7728 24.6C16.0123 24.6 17.5205 23.55 17.5205 22.05C17.5205 20.55 16.058 19.5 13.7728 19.5C11.4876 19.5 10.025 20.55 10.025 22.05ZM41.1953 3.75V32.5L42.475 35.25H29.8607L31.1404 32.5V29.5H27.5754V21.25H31.1404V19.55H27.5754V11.3H31.1404V3.75L29.8607 1H42.475L41.1953 3.75Z" fill="white"/>
<path d="M87.5846 3.7501V44.7501L88.8644 47.5001H66.515L67.749 44.8501V42.6001L59.0652 46.8501L58.8367 43.7501C57.6344 40.3649 56.6568 36.8892 55.9116 33.3501C55.1664 36.8892 54.1888 40.3649 52.9866 43.7501L52.758 46.8501L43.6172 42.4001L45.3082 40.9001C47.8778 33.9466 49.9708 26.7935 51.5697 19.5001V11.0001H47.6849L45.1711 12.4001V0.350098L47.6849 1.7501H63.6813L66.1951 0.350098V12.4001L63.6813 11.0001H60.2535V19.5001C61.8734 26.7871 63.9659 33.9385 66.515 40.9001L67.749 42.0001V3.6501L66.515 1.0001H88.8644L87.5846 3.7501ZM76.4785 3.7501V18.0501H78.9465V3.7501L77.7582 1.1501L76.4785 3.7501ZM77.7125 47.3001L78.9008 44.7001V27.0501H76.4328V44.7001L77.7125 47.3001Z" fill="white"/>
<path d="M119.761 45.9999H107.603L108.883 43.2499V10.9999H106.141V43.1999L107.466 45.9999H95.3089L96.4972 43.2999V10.9999H93.0694L90.5557 12.3999V0.349902L93.0694 1.7499H109.523L111.123 0.149902L119.532 4.7999L118.481 6.6999V43.1999L119.761 45.9999ZM133.061 18.4999L135.574 17.0999V29.0999L133.061 27.7499H130.821V44.7499L132.101 47.4999H119.943L121.223 44.7499V3.7499L119.943 0.999902H132.146L130.867 3.7499V18.4999H133.061Z" fill="white"/>
<path d="M167.613 39.6501L158.473 46.8501L158.016 43.7501C155.273 39.2501 152.668 34.2501 151.434 30.3501C150.2 34.2501 147.549 39.2501 144.853 43.7501L144.396 46.8501L135.255 39.6501L137.174 38.9001C140.864 32.6286 143.958 25.9605 146.407 19.0001V11.0001H140.694L138.18 12.4001V0.350098L140.694 1.7501H162.175L164.688 0.350098V12.4001L162.175 11.0001H156.462V19.0001C158.929 25.9514 162.022 32.6175 165.694 38.9001L167.613 39.6501ZM178.308 3.7501V44.7501L179.588 47.5001H166.974L168.253 44.7501V3.7501L166.974 1.0001H179.588L178.308 3.7501Z" fill="white"/>
<path d="M218.756 11H197.275L194.762 12.4V2.4L197.275 3.8H202.988V2.8L201.709 0H214.323L213.043 2.75V3.75H218.756L221.27 2.35V12.4L218.756 11ZM194.899 20.3C194.899 14.8 200.018 11.75 208.016 11.75C216.014 11.75 221.133 14.8 221.133 20.3C221.133 25.8 216.014 28.85 208.016 28.85C200.018 28.85 194.899 25.8 194.899 20.3ZM233.656 43.3L234.707 45.2L226.298 49.05L224.698 47.45H205.274L203.674 49.05L195.219 45.15L196.27 43.25V34.25L195.219 32.3L198.464 29.75H231.508L234.753 32.3L233.702 34.2L233.656 43.3ZM204.268 20.3C204.268 21.35 205.776 22.1 208.016 22.1C210.255 22.1 211.764 21.35 211.764 20.3C211.764 19.25 210.255 18.5 208.016 18.5C205.776 18.5 204.268 19.25 204.268 20.3ZM206.279 40H223.647V37.3H206.279V40ZM235.896 9.6L238.409 8.2V19.75L235.896 18.35H233.656V26L234.936 28.75H222.321L223.601 26V3.75L222.321 1H234.936L233.656 3.75V9.6H235.896Z" fill="white"/>
<path d="M281.828 3.7499V44.7499L283.108 47.4999H263.227L264.506 44.7499V27.6499H261.535V43.1999L262.861 45.9999H241.471L242.751 43.1999V10.9999H241.151L238.638 12.3999V0.349902L241.151 1.7499H253.446L255.046 0.149902L262.587 4.7999L261.535 6.6999V18.6999H264.506V3.7499L263.227 0.999902H283.108L281.828 3.7499ZM252.166 45.7499L253.309 43.2499V10.9999H250.978V43.1999L252.166 45.7499ZM273.19 46.6499L274.058 44.7499V3.7499L273.19 1.8499L272.276 3.7499V44.7499L273.19 46.6499Z" fill="white"/>
<path d="M310.165 11.5H288.684L286.17 12.9V2.35L288.684 3.75H294.397V2.75L293.117 0H305.731L304.452 2.75V3.75H310.165L312.678 2.35V12.9L310.165 11.5ZM286.307 22.05C286.307 15.8 291.426 12.25 299.424 12.25C307.422 12.25 312.541 15.8 312.541 22.05C312.541 28.3 307.422 31.85 299.424 31.85C291.426 31.85 286.307 28.3 286.307 22.05ZM298.19 39.2H323.053L325.567 37.8V48.85L323.053 47.45H297.093L295.494 49.05L287.038 44.4L288.09 42.5V35.3L286.81 32.55H299.424L298.144 35.3L298.19 39.2ZM295.722 22.05C295.722 23.55 297.23 24.6 299.47 24.6C301.709 24.6 303.218 23.55 303.218 22.05C303.218 20.55 301.709 19.5 299.47 19.5C297.23 19.5 295.676 20.55 295.676 22.05H295.722ZM327.349 12.15L329.863 10.75V22.3L327.349 20.9H325.11V32.5L326.39 35.25H313.775L315.055 32.5V3.75L313.73 1H326.344L325.064 3.75V12.15H327.349Z" fill="white"/>
<path d="M373.282 39.6501L364.142 46.8501L363.685 43.7501C360.988 39.2501 358.337 34.2501 357.103 30.3501C355.869 34.2501 353.218 39.2501 350.522 43.7501L350.065 46.8501L340.924 39.6501L342.843 38.9001C346.533 32.6286 349.627 25.9605 352.076 19.0001V11.0001H346.363L343.849 12.4001V0.350098L346.363 1.7501H367.844L370.357 0.350098V12.4001L367.844 11.0001H362.131V19.0001C364.598 25.9514 367.691 32.6175 371.363 38.9001L373.282 39.6501ZM383.977 3.7501V44.7501L385.257 47.5001H372.643L373.922 44.7501V3.7501L372.643 1.0001H385.257L383.977 3.7501Z" fill="white"/>
<path d="M427.852 23.2999L430.366 21.8999V33.9999L427.852 32.5999H414.37V44.6999L415.649 47.4499H403.035L404.315 44.6999V32.5499H390.832L388.318 33.9999V21.8999L390.832 23.2999H427.852ZM418.712 10.7499H392.66L390.147 12.1499V0.349902L392.66 1.7499H419.763L421.362 0.149902L429.818 4.0499L428.767 5.9999V21.7999H418.712V10.7499Z" fill="white"/>
<path d="M433.657 23.9L434.708 22V4.5L433.429 1.75H446.043L444.763 4.5V6.1H450.019V4.5L448.74 1.75H461.354L460.074 4.5V22L461.125 23.9L457.88 26.45H436.857L433.657 23.9ZM474.7 38.25C474.7 46.8 465.102 48.6 455.092 48.6C445.083 48.6 435.485 46.8 435.485 38.25C435.485 29.7 445.083 27.9 455.092 27.9C465.102 27.9 474.7 29.7 474.7 38.25ZM450.019 14.1H444.763V18.45H450.019V14.1ZM464.645 38.25C464.645 35.7 460.486 35.4 455.092 35.4C449.699 35.4 445.54 35.7 445.54 38.25C445.54 40.8 449.699 41.1 455.092 41.1C460.486 41.1 464.645 40.8 464.645 38.25ZM475.842 9.1L478.356 7.7V19.25L475.842 17.85H473.603V24.5L474.882 27.25H462.268L463.548 24.5V3.75L462.268 1H474.928L473.648 3.75V9.1H475.842Z" fill="white"/>
<path d="M479.728 25.5999L482.104 26.8999L509.664 24.9999V33.7499L499.335 34.4499L498.009 44.6999L499.06 47.4499H486.446L487.954 44.6999L489.188 35.1499L482.241 35.6499L479.728 37.0499V25.5999ZM480.504 12.4999C480.504 4.4999 486.812 0.899902 494.901 0.899902C502.991 0.899902 509.298 4.4999 509.298 12.4999C509.298 20.4999 502.991 24.0999 494.901 24.0999C486.812 24.0999 480.504 20.4999 480.504 12.4999ZM489.645 12.4999C489.645 14.8499 492.068 15.8499 494.901 15.8499C497.735 15.8499 500.157 14.8499 500.157 12.4999C500.157 10.1499 497.781 9.1499 494.901 9.1499C492.022 9.1499 489.645 10.1499 489.645 12.4999ZM521.09 3.7499V44.7499L522.37 47.4999H509.755L511.035 44.7499V3.7499L509.755 0.999902H522.37L521.09 3.7499Z" fill="white"/>
<path d="M544.078 0.349902V12.3999L541.565 10.9999H535.486V36.6999H541.565L544.078 35.2999V47.3499L541.565 45.9999H534.892L533.292 47.5999L525.294 42.8999L526.345 40.9999V6.6999L525.294 4.7999L533.292 0.149902L534.892 1.7499H541.565L544.078 0.349902ZM567.479 3.7499V44.7499L568.759 47.4999H557.515L558.795 44.7499V27.0499H554.956V44.6999H555.002L556.281 47.4499H545.038L546.272 44.7999V3.6499L545.038 0.999902H556.281L555.002 3.7499H554.956V18.0499H558.795V3.7499L557.515 0.999902H568.759L567.479 3.7499Z" fill="white"/>
<path d="M580.368 28.6L573.649 29.05L571.136 30.45V20L573.649 21.3L601.072 19.55V27.3L590.377 28V33.3H580.322L580.368 28.6ZM572.37 10.05C572.37 4.05 578.22 0.5 586.172 0.5C594.125 0.5 599.975 4.1 599.975 10.05C599.975 16 594.125 19.6 586.172 19.6C578.22 19.6 572.37 16 572.37 10.05ZM584.253 39.2H610.487L613.001 37.8V48.85L610.487 47.45H583.202L581.602 49.05L573.147 45.15L574.198 43.25V37.05L572.918 34.3H585.533L584.253 37.05V39.2ZM581.511 10.05C581.511 11.45 583.567 12.35 586.172 12.35C588.778 12.35 590.834 11.45 590.834 10.05C590.834 8.65 588.778 7.75 586.172 7.75C583.567 7.75 581.511 8.65 581.511 10.05ZM602.443 28.5V3.75L601.163 1H613.778L612.498 3.75V37H602.443V35.8H592.251V28.5H602.443Z" fill="white"/>
</g>
<defs>
<clipPath id="clip0_105_3575">
<rect width="100%" height="100%" fill="white" transform="translate(0.518555)"/>
</clipPath>
</defs>
</svg>
