<svg width="157" height="50" viewBox="0 0 157 50" fill="none" xmlns="http://www.w3.org/2000/svg">
<path d="M61.1623 46.67H49.1625V42.67H57.6223C58.8223 29.53 56.3423 19.42 50.2424 12.59C47.7902 9.90392 44.8089 7.75417 41.4858 6.27588C38.1627 4.79759 34.5697 4.02273 30.9328 4C27.3044 4.0308 23.7214 4.80952 20.4076 6.28752C17.0938 7.76551 14.1204 9.91102 11.6731 12.59C5.58319 19.42 3.10324 29.53 4.29322 42.67H12.7631V46.67H0.703278L0.503282 44.89C-1.22669 29.71 1.50326 17.94 8.69314 9.89C11.5219 6.80213 14.9566 4.33029 18.7829 2.6287C22.6093 0.92711 26.7452 0.0322687 30.9328 0C35.1239 0.0365098 39.2625 0.936191 43.0906 2.64293C46.9187 4.34967 50.354 6.82686 53.1824 9.92C60.3423 17.92 63.0922 29.71 61.3722 44.92L61.1623 46.67Z" fill="#7F7F7F"/>
<path d="M30.9333 49.8299C25.5864 49.822 20.4608 47.6944 16.68 43.9135C12.8992 40.1326 10.7716 35.0069 10.7637 29.6599H14.7636C14.8685 33.8802 16.6187 37.8923 19.6406 40.84C22.6625 43.7878 26.7168 45.4377 30.9383 45.4377C35.1598 45.4377 39.2141 43.7878 42.236 40.84C45.2579 37.8923 47.0081 33.8802 47.113 29.6599H51.113C51.105 35.0086 48.9761 40.1358 45.1931 43.917C41.4101 47.6982 36.2819 49.8246 30.9333 49.8299Z" fill="#7F7F7F"/>
<path d="M50.6919 22.1201H10.3926V26.1201H50.6919V22.1201Z" fill="#7F7F7F"/>
<path d="M83.4113 16.0001C82.857 16.0001 82.3254 15.7799 81.9334 15.388C81.5415 14.996 81.3213 14.4644 81.3213 13.9101C81.3213 13.3558 81.5415 12.8242 81.9334 12.4323C82.3254 12.0403 82.857 11.8201 83.4113 11.8201H87.7712V8.37012C87.7712 7.04012 88.8412 6.37012 90.1711 6.37012C91.5011 6.37012 92.5611 7.05012 92.5611 8.37012V11.8301H97.001C97.287 11.8103 97.5739 11.8495 97.8441 11.9453C98.1142 12.0411 98.3618 12.1915 98.5713 12.387C98.7809 12.5826 98.948 12.8192 99.0623 13.082C99.1765 13.3449 99.2355 13.6285 99.2355 13.9151C99.2355 14.2018 99.1765 14.4853 99.0623 14.7482C98.948 15.0111 98.7809 15.2476 98.5713 15.4432C98.3618 15.6387 98.1142 15.7891 97.8441 15.8849C97.5739 15.9807 97.287 16.0199 97.001 16.0001H83.4113ZM82.1113 25.4601C82.1113 20.9801 85.6512 18.0501 90.1711 18.0501C94.6911 18.0501 98.171 20.9801 98.171 25.4601V33.7001C98.171 38.1901 94.6411 41.0701 90.1711 41.0701C85.7012 41.0701 82.1113 38.1901 82.1113 33.7001V25.4601ZM93.5911 33.6001V25.6001C93.5911 25.1536 93.5031 24.7115 93.3323 24.299C93.1614 23.8865 92.911 23.5117 92.5953 23.196C92.2795 22.8802 91.9047 22.6298 91.4922 22.4589C91.0797 22.2881 90.6376 22.2001 90.1911 22.2001C89.7447 22.2001 89.3025 22.2881 88.89 22.4589C88.4775 22.6298 88.1027 22.8802 87.787 23.196C87.4713 23.5117 87.2209 23.8865 87.05 24.299C86.8791 24.7115 86.7912 25.1536 86.7912 25.6001V33.6001C86.7912 34.0466 86.8791 34.4887 87.05 34.9012C87.2209 35.3137 87.4713 35.6886 87.787 36.0043C88.1027 36.32 88.4775 36.5704 88.89 36.7413C89.3025 36.9122 89.7447 37.0001 90.1911 37.0001C90.6376 37.0001 91.0797 36.9122 91.4922 36.7413C91.9047 36.5704 92.2795 36.32 92.5953 36.0043C92.911 35.6886 93.1614 35.3137 93.3323 34.9012C93.5031 34.4887 93.5911 34.0466 93.5911 33.6001ZM101.151 26.0001C100.871 26.0015 100.593 25.944 100.336 25.8312C100.08 25.7184 99.8497 25.5529 99.6611 25.3455C99.4725 25.138 99.3296 24.8933 99.2417 24.627C99.1539 24.3608 99.1229 24.0791 99.151 23.8001C99.1214 23.5204 99.1512 23.2376 99.2384 22.9701C99.3256 22.7027 99.4683 22.4566 99.657 22.2481C99.8457 22.0395 100.076 21.8731 100.334 21.7597C100.591 21.6464 100.87 21.5886 101.151 21.5901H103.051V8.90012C103.116 8.33155 103.388 7.80673 103.814 7.4257C104.241 7.04467 104.794 6.83408 105.366 6.83408C105.938 6.83408 106.49 7.04467 106.917 7.4257C107.344 7.80673 107.616 8.33155 107.681 8.90012V40.2101C107.616 40.7787 107.344 41.3035 106.917 41.6845C106.49 42.0656 105.938 42.2762 105.366 42.2762C104.794 42.2762 104.241 42.0656 103.814 41.6845C103.388 41.3035 103.116 40.7787 103.051 40.2101V26.0001H101.151ZM110.421 40.1701V8.90012C110.429 8.60475 110.498 8.31423 110.623 8.04652C110.748 7.77881 110.927 7.53961 111.148 7.34371C111.369 7.14781 111.628 6.99938 111.909 6.9076C112.19 6.81582 112.487 6.78264 112.781 6.81012C113.072 6.78688 113.364 6.82336 113.64 6.91731C113.916 7.01126 114.171 7.16069 114.387 7.35643C114.603 7.55217 114.777 7.79009 114.898 8.05555C115.019 8.32101 115.085 8.60842 115.091 8.90012V40.1701C115.086 40.4623 115.022 40.7504 114.901 41.0165C114.781 41.2827 114.607 41.5212 114.39 41.7172C114.173 41.9133 113.919 42.0626 113.642 42.156C113.365 42.2494 113.072 42.2848 112.781 42.2601C112.487 42.2876 112.19 42.2544 111.909 42.1626C111.628 42.0709 111.369 41.9224 111.148 41.7265C110.927 41.5306 110.748 41.2914 110.623 41.0237C110.498 40.756 110.429 40.4655 110.421 40.1701Z" fill="#7F7F7F"/>
<path d="M156.471 9.20993V39.8299C156.401 40.4854 156.091 41.0919 155.601 41.5327C155.111 41.9734 154.475 42.2173 153.816 42.2173C153.156 42.2173 152.521 41.9734 152.03 41.5327C151.54 41.0919 151.23 40.4854 151.161 39.8299V25.6599H143.521V31.9999C143.521 37.4399 139.261 41.0799 133.721 41.0799C128.181 41.0799 123.911 37.4399 123.911 31.9999V16.6199C123.911 11.1799 128.171 7.53993 133.721 7.53993C139.271 7.53993 143.521 11.1799 143.521 16.6199V21.2499H151.161V9.24993C151.23 8.59444 151.54 7.98793 152.03 7.54716C152.521 7.1064 153.156 6.86255 153.816 6.86255C154.475 6.86255 155.111 7.1064 155.601 7.54716C156.091 7.98793 156.401 8.59444 156.471 9.24993V9.20993ZM138.471 16.3099C138.393 15.1034 137.858 13.9719 136.976 13.1452C136.094 12.3184 134.93 11.8583 133.721 11.8583C132.512 11.8583 131.348 12.3184 130.466 13.1452C129.584 13.9719 129.049 15.1034 128.971 16.3099V32.3099C128.971 33.5697 129.471 34.7779 130.362 35.6687C131.253 36.5595 132.461 37.0599 133.721 37.0599C134.981 37.0599 136.189 36.5595 137.08 35.6687C137.97 34.7779 138.471 33.5697 138.471 32.3099V16.3099Z" fill="#7F7F7F"/>
</svg>
