<svg viewBox="0 0 157 50" fill="none" xmlns="http://www.w3.org/2000/svg">
<g clip-path="url(#clip0_104_4252)">
<path d="M61.1604 46.67H49.1604V42.67H57.6204C58.8204 29.53 56.3404 19.42 50.2404 12.59C47.7881 9.90392 44.8067 7.75417 41.4836 6.27588C38.1604 4.79759 34.5674 4.02273 30.9304 4C27.302 4.0308 23.7189 4.80952 20.405 6.28752C17.0911 7.76551 14.1177 9.91102 11.6704 12.59C5.58036 19.42 3.10036 29.53 4.29036 42.67H12.7604V46.67H0.700361L0.500361 44.89C-1.22964 29.71 1.50036 17.94 8.69036 9.89C11.5191 6.80213 14.9539 4.33029 18.7803 2.6287C22.6067 0.92711 26.7428 0.0322687 30.9304 0C35.1216 0.0365098 39.2603 0.936191 43.0884 2.64293C46.9165 4.34967 50.3519 6.82686 53.1804 9.92C60.3404 17.92 63.0904 29.71 61.3704 44.92L61.1604 46.67Z" fill="#0A13FF"/>
<path d="M30.9307 49.8299C25.5838 49.822 20.4581 47.6944 16.6772 43.9135C12.8963 40.1326 10.7687 35.0069 10.7607 29.6599H14.7607C14.8657 33.8802 16.6159 37.8923 19.6379 40.84C22.6598 43.7878 26.7142 45.4377 30.9357 45.4377C35.1573 45.4377 39.2117 43.7878 42.2336 40.84C45.2556 37.8923 47.0058 33.8802 47.1107 29.6599H51.1107C51.1028 35.0086 48.9738 40.1358 45.1908 43.917C41.4077 47.6982 36.2795 49.8246 30.9307 49.8299Z" fill="#0A13FF"/>
<path d="M50.6906 22.1201H10.3906V26.1201H50.6906V22.1201Z" fill="#0A13FF"/>
<path d="M83.4103 16.0001C82.856 16.0001 82.3244 15.7799 81.9325 15.388C81.5405 14.996 81.3203 14.4644 81.3203 13.9101C81.3203 13.3558 81.5405 12.8242 81.9325 12.4323C82.3244 12.0403 82.856 11.8201 83.4103 11.8201H87.7703V8.37012C87.7703 7.04012 88.8403 6.37012 90.1703 6.37012C91.5003 6.37012 92.5603 7.05012 92.5603 8.37012V11.8301H97.0003C97.2863 11.8103 97.5732 11.8495 97.8434 11.9453C98.1135 12.0411 98.3611 12.1915 98.5706 12.387C98.7802 12.5826 98.9473 12.8192 99.0616 13.082C99.1758 13.3449 99.2348 13.6285 99.2348 13.9151C99.2348 14.2018 99.1758 14.4853 99.0616 14.7482C98.9473 15.0111 98.7802 15.2476 98.5706 15.4432C98.3611 15.6387 98.1135 15.7891 97.8434 15.8849C97.5732 15.9807 97.2863 16.0199 97.0003 16.0001H83.4103ZM82.1103 25.4601C82.1103 20.9801 85.6503 18.0501 90.1703 18.0501C94.6903 18.0501 98.1703 20.9801 98.1703 25.4601V33.7001C98.1703 38.1901 94.6403 41.0701 90.1703 41.0701C85.7003 41.0701 82.1103 38.1901 82.1103 33.7001V25.4601ZM93.5903 33.6001V25.6001C93.5903 25.1536 93.5024 24.7115 93.3315 24.299C93.1606 23.8865 92.9102 23.5117 92.5945 23.196C92.2788 22.8802 91.9039 22.6298 91.4914 22.4589C91.0789 22.2881 90.6368 22.2001 90.1903 22.2001C89.7438 22.2001 89.3017 22.2881 88.8892 22.4589C88.4767 22.6298 88.1019 22.8802 87.7861 23.196C87.4704 23.5117 87.22 23.8865 87.0491 24.299C86.8783 24.7115 86.7903 25.1536 86.7903 25.6001V33.6001C86.7903 34.0466 86.8783 34.4887 87.0491 34.9012C87.22 35.3137 87.4704 35.6886 87.7861 36.0043C88.1019 36.32 88.4767 36.5704 88.8892 36.7413C89.3017 36.9122 89.7438 37.0001 90.1903 37.0001C90.6368 37.0001 91.0789 36.9122 91.4914 36.7413C91.9039 36.5704 92.2788 36.32 92.5945 36.0043C92.9102 35.6886 93.1606 35.3137 93.3315 34.9012C93.5024 34.4887 93.5903 34.0466 93.5903 33.6001ZM101.15 26.0001C100.87 26.0015 100.592 25.944 100.336 25.8312C100.079 25.7184 99.849 25.5529 99.6604 25.3455C99.4718 25.138 99.329 24.8933 99.2411 24.627C99.1532 24.3608 99.1223 24.0791 99.1503 23.8001C99.1208 23.5204 99.1506 23.2376 99.2378 22.9701C99.325 22.7027 99.4676 22.4566 99.6563 22.2481C99.8451 22.0395 100.076 21.8731 100.333 21.7597C100.591 21.6464 100.869 21.5886 101.15 21.5901H103.05V8.90012C103.115 8.33155 103.387 7.80673 103.814 7.4257C104.241 7.04467 104.793 6.83408 105.365 6.83408C105.938 6.83408 106.49 7.04467 106.917 7.4257C107.344 7.80673 107.615 8.33155 107.68 8.90012V40.2101C107.615 40.7787 107.344 41.3035 106.917 41.6845C106.49 42.0656 105.938 42.2762 105.365 42.2762C104.793 42.2762 104.241 42.0656 103.814 41.6845C103.387 41.3035 103.115 40.7787 103.05 40.2101V26.0001H101.15ZM110.42 40.1701V8.90012C110.429 8.60475 110.497 8.31423 110.622 8.04652C110.748 7.77881 110.926 7.53961 111.147 7.34371C111.369 7.14781 111.628 6.99938 111.909 6.9076C112.189 6.81582 112.486 6.78264 112.78 6.81012C113.071 6.78688 113.364 6.82336 113.64 6.91731C113.916 7.01126 114.17 7.16069 114.387 7.35643C114.603 7.55217 114.777 7.79009 114.898 8.05555C115.019 8.32101 115.084 8.60842 115.09 8.90012V40.1701C115.086 40.4623 115.021 40.7504 114.901 41.0165C114.78 41.2827 114.606 41.5212 114.39 41.7172C114.173 41.9133 113.918 42.0626 113.641 42.156C113.365 42.2494 113.071 42.2848 112.78 42.2601C112.486 42.2876 112.189 42.2544 111.909 42.1626C111.628 42.0709 111.369 41.9224 111.147 41.7265C110.926 41.5306 110.748 41.2914 110.622 41.0237C110.497 40.756 110.429 40.4655 110.42 40.1701Z" fill="#0A13FF"/>
<path d="M156.47 9.20993V39.8299C156.4 40.4854 156.091 41.0919 155.6 41.5327C155.11 41.9734 154.474 42.2173 153.815 42.2173C153.156 42.2173 152.52 41.9734 152.03 41.5327C151.54 41.0919 151.23 40.4854 151.16 39.8299V25.6599H143.52V31.9999C143.52 37.4399 139.26 41.0799 133.72 41.0799C128.18 41.0799 123.91 37.4399 123.91 31.9999V16.6199C123.91 11.1799 128.17 7.53993 133.72 7.53993C139.27 7.53993 143.52 11.1799 143.52 16.6199V21.2499H151.16V9.24993C151.23 8.59444 151.54 7.98793 152.03 7.54716C152.52 7.1064 153.156 6.86255 153.815 6.86255C154.474 6.86255 155.11 7.1064 155.6 7.54716C156.091 7.98793 156.4 8.59444 156.47 9.24993V9.20993ZM138.47 16.3099C138.392 15.1034 137.857 13.9719 136.975 13.1452C136.093 12.3184 134.929 11.8583 133.72 11.8583C132.511 11.8583 131.347 12.3184 130.465 13.1452C129.583 13.9719 129.048 15.1034 128.97 16.3099V32.3099C128.97 33.5697 129.471 34.7779 130.361 35.6687C131.252 36.5595 132.46 37.0599 133.72 37.0599C134.98 37.0599 136.188 36.5595 137.079 35.6687C137.97 34.7779 138.47 33.5697 138.47 32.3099V16.3099Z" fill="#0A13FF"/>
</g>
<defs>
<clipPath id="clip0_104_4252">
<rect width="100%" height="100%" fill="white"/>
</clipPath>
</defs>
</svg>
