<svg viewBox="0 0 177 32" fill="none" xmlns="http://www.w3.org/2000/svg">
<path d="M67.3983 31.4084L67.8404 28.6144C68.8403 22.2648 69.5652 16.7124 69.8401 10.4457H59.3877V0.895662H118.33V4.11978C120.258 1.85461 123.492 0.591797 127.523 0.591797C130.953 0.591797 133.829 1.51523 135.797 3.21608V0.895662H175.292V10.4417H170.735L176.029 21.7045V31.4084H67.3983Z" fill="#0A13FF"/>
<path d="M127.524 1.18389C131.508 1.18389 134.607 2.43486 136.395 4.69609V1.48775H174.695V9.84995H169.8L175.436 21.8348V30.8166H68.0962L68.4308 28.7053C69.4904 21.9809 70.2114 16.3653 70.4623 9.8539H59.986V1.48775H117.733V6.13649C119.207 3.01102 122.684 1.18389 127.524 1.18389ZM127.524 0C123.967 0 120.995 0.951057 118.928 2.69137V0.303865H58.791V11.0338H69.2155C68.9247 17.0243 68.2157 22.3992 67.2517 28.5199L66.9171 30.6311L66.702 31.9966H176.631V21.5704L176.52 21.3337L171.676 11.0338H175.89V0.303865H135.2V2.0205C133.205 0.702441 130.568 0 127.524 0Z" fill="white"/>
<path d="M0.597656 31.4073V21.8612H17.5429L17.7939 20.5786C18.5308 16.7942 18.9889 13.5542 19.2279 10.4446H0.597656V0.894531H59.3883V31.4073H0.597656Z" fill="#0A13FF"/>
<path d="M58.7907 1.48662V30.8155H1.19501V22.4533H18.0367L18.3793 20.6893C19.168 16.6325 19.642 13.2071 19.8691 9.84882H1.19501V1.48662H58.7907ZM59.9857 0.302734H0V11.0327H18.5785C18.3315 13.9253 17.8894 16.96 17.2042 20.4643L17.0489 21.2694H0V31.9994H59.9857V0.302734Z" fill="white"/>
<path d="M19.96 20.1222C20.7885 15.876 21.398 11.6574 21.5812 7.1073H2.81152V2.40332H28.2295C28.0462 8.68187 27.5244 14.7513 26.3931 20.1222H19.96ZM2.81152 23.37H28.2295V28.074H2.81152V23.37Z" fill="url(#paint0_linear_400_3600)"/>
<path d="M31.293 7.77423H42.2871V6.65348H31.293V2.40727H48.4135V11.1167C45.6889 11.6337 41.8609 11.9652 37.4194 11.9652V13.1491C41.8609 13.1491 45.6889 12.936 49.1783 12.2375V17.3953H31.293V7.77817V7.77423ZM37.4194 18.7568V23.5199L45.0755 23.4884C49.0548 23.4568 53.3449 23.1529 56.8663 22.6083V28.07H31.293V18.7568H37.4194ZM50.5885 2.40332H56.7149V20.6391H50.5885V2.40332Z" fill="url(#paint1_linear_400_3600)"/>
<path d="M70.0225 28.0984C71.1538 20.9082 71.9505 14.7204 72.1337 7.13172H61.5977V2.42773H78.5947C78.4115 11.741 77.8578 19.1758 76.4517 28.0944H70.0185L70.0225 28.0984ZM80.1283 2.43168H86.2548V11.5042H89.0113V16.662H86.2548V28.0984H80.1283V2.43168Z" fill="url(#paint2_linear_400_3600)"/>
<path d="M90.2344 2.43262H107.048V7.1366H96.3608V23.3993C100.802 23.3993 104.63 23.1862 108.12 22.4877V28.0993H90.2344V2.43262ZM109.53 2.43262H115.656V28.0993H109.53V2.43262Z" fill="url(#paint3_linear_400_3600)"/>
<path d="M138.012 11.8359H135.869C135.196 15.202 132.133 17.1752 127.293 17.1752C121.78 17.1752 118.565 14.5943 118.565 10.3481V8.95111C118.565 4.7049 121.78 2.12402 127.293 2.12402C131.734 2.12402 134.674 3.79331 135.654 6.6741H138.012V2.42789H144.139V20.2059H138.012V11.8319V11.8359ZM124.843 18.1775V23.3946L132.499 23.363C136.479 23.3314 140.769 23.0275 144.29 22.483V28.0946H118.717V18.1736H124.843V18.1775ZM120.892 9.68118C124.505 9.77194 127.293 11.5912 127.293 15.9005C127.293 11.5912 130.05 9.74037 133.694 9.64961C130.141 9.55884 127.416 7.83037 127.293 3.73411C127.142 7.83037 124.413 9.59041 120.892 9.68118Z" fill="url(#paint4_linear_400_3600)"/>
<path d="M147.197 2.43262H172.615V7.1366H166.58L172.615 19.1215H165.573L159.908 7.10503L154.244 19.1215H147.201L153.236 7.1366H147.201V2.43262H147.197ZM147.197 23.3953H172.615V28.0993H147.197V23.3953Z" fill="url(#paint5_linear_400_3600)"/>
<defs>
<linearGradient id="paint0_linear_400_3600" x1="15.5185" y1="28.07" x2="15.5185" y2="2.40332" gradientUnits="userSpaceOnUse">
<stop stop-color="#00FF7E"/>
<stop offset="1" stop-color="#00FFFF"/>
</linearGradient>
<linearGradient id="paint1_linear_400_3600" x1="44.0796" y1="-5.91152" x2="44.0796" y2="-5.91152" gradientUnits="userSpaceOnUse">
<stop stop-color="#00FF7E"/>
<stop offset="1" stop-color="#00FFFF"/>
</linearGradient>
<linearGradient id="paint2_linear_400_3600" x1="75.3045" y1="28.0984" x2="75.3045" y2="2.43168" gradientUnits="userSpaceOnUse">
<stop stop-color="#00FF7E"/>
<stop offset="1" stop-color="#00FFFF"/>
</linearGradient>
<linearGradient id="paint3_linear_400_3600" x1="102.945" y1="28.0993" x2="102.945" y2="2.43262" gradientUnits="userSpaceOnUse">
<stop stop-color="#00FF7E"/>
<stop offset="1" stop-color="#00FFFF"/>
</linearGradient>
<linearGradient id="paint4_linear_400_3600" x1="131.428" y1="28.0985" x2="131.428" y2="2.12797" gradientUnits="userSpaceOnUse">
<stop stop-color="#00FF7E"/>
<stop offset="1" stop-color="#00FFFF"/>
</linearGradient>
<linearGradient id="paint5_linear_400_3600" x1="159.908" y1="28.0993" x2="159.908" y2="2.43262" gradientUnits="userSpaceOnUse">
<stop stop-color="#00FF7E"/>
<stop offset="1" stop-color="#00FFFF"/>
</linearGradient>
</defs>
</svg>
