<svg width="197" height="52" viewBox="0 0 197 52" fill="none" xmlns="http://www.w3.org/2000/svg">
<g filter="url(#filter0_d_322_3673)">
<path d="M77.3983 36.4084L77.8404 33.6144C78.8403 27.2648 79.5652 21.7124 79.8401 15.4457H69.3877V5.89566H128.33V9.11978C130.258 6.85461 133.492 5.5918 137.523 5.5918C140.953 5.5918 143.829 6.51523 145.797 8.21608V5.89566H185.292V15.4417H180.735L186.029 26.7045V36.4084H77.3983Z" fill="#0A13FF"/>
<path d="M137.524 6.18389C141.508 6.18389 144.607 7.43486 146.395 9.69609V6.48775H184.695V14.85H179.8L185.436 26.8348V35.8166H78.0962L78.4308 33.7053C79.4904 26.9809 80.2114 21.3653 80.4623 14.8539H69.986V6.48775H127.733V11.1365C129.207 8.01102 132.684 6.18389 137.524 6.18389ZM137.524 5C133.967 5 130.995 5.95106 128.928 7.69137V5.30386H68.791V16.0338H79.2155C78.9247 22.0243 78.2157 27.3992 77.2517 33.5199L76.9171 35.6311L76.702 36.9966H186.631V26.5704L186.52 26.3337L181.676 16.0338H185.89V5.30386H145.2V7.0205C143.205 5.70244 140.567 5 137.524 5Z" fill="white"/>
<path d="M10.5977 36.4073V26.8612H27.5429L27.7939 25.5786C28.5308 21.7942 28.9889 18.5542 29.2279 15.4446H10.5977V5.89453H69.3883V36.4073H10.5977Z" fill="#0A13FF"/>
<path d="M68.7907 6.48662V35.8155H11.195V27.4533H28.0367L28.3793 25.6893C29.168 21.6325 29.642 18.2071 29.8691 14.8488H11.195V6.48662H68.7907ZM69.9857 5.30273H10V16.0327H28.5785C28.3315 18.9253 27.8894 21.96 27.2042 25.4643L27.0489 26.2694H10V36.9994H69.9857V5.30273Z" fill="white"/>
<path d="M29.96 25.1222C30.7885 20.876 31.398 16.6574 31.5812 12.1073H12.8115V7.40332H38.2295C38.0462 13.6819 37.5244 19.7513 36.3931 25.1222H29.96ZM12.8115 28.37H38.2295V33.074H12.8115V28.37Z" fill="url(#paint0_linear_322_3673)"/>
<path d="M41.293 12.7742H52.2871V11.6535H41.293V7.40727H58.4135V16.1167C55.6889 16.6337 51.8609 16.9652 47.4194 16.9652V18.1491C51.8609 18.1491 55.6889 17.936 59.1783 17.2375V22.3953H41.293V12.7782V12.7742ZM47.4194 23.7568V28.5199L55.0755 28.4884C59.0548 28.4568 63.3449 28.1529 66.8663 27.6083V33.07H41.293V23.7568H47.4194ZM60.5885 7.40332H66.7149V25.6391H60.5885V7.40332Z" fill="url(#paint1_linear_322_3673)"/>
<path d="M80.0225 33.0984C81.1538 25.9082 81.9505 19.7204 82.1337 12.1317H71.5977V7.42773H88.5947C88.4115 16.741 87.8578 24.1758 86.4517 33.0944H80.0185L80.0225 33.0984ZM90.1283 7.43168H96.2548V16.5042H99.0113V21.662H96.2548V33.0984H90.1283V7.43168Z" fill="url(#paint2_linear_322_3673)"/>
<path d="M100.234 7.43262H117.048V12.1366H106.361V28.3993C110.802 28.3993 114.63 28.1862 118.12 27.4877V33.0993H100.234V7.43262ZM119.53 7.43262H125.656V33.0993H119.53V7.43262Z" fill="url(#paint3_linear_322_3673)"/>
<path d="M148.012 16.8359H145.869C145.196 20.202 142.133 22.1752 137.293 22.1752C131.78 22.1752 128.565 19.5943 128.565 15.3481V13.9511C128.565 9.7049 131.78 7.12402 137.293 7.12402C141.734 7.12402 144.674 8.79331 145.654 11.6741H148.012V7.42789H154.139V25.2059H148.012V16.8319V16.8359ZM134.843 23.1775V28.3946L142.499 28.363C146.479 28.3314 150.769 28.0275 154.29 27.483V33.0946H128.717V23.1736H134.843V23.1775ZM130.892 14.6812C134.505 14.7719 137.293 16.5912 137.293 20.9005C137.293 16.5912 140.05 14.7404 143.694 14.6496C140.141 14.5588 137.416 12.8304 137.293 8.73411C137.142 12.8304 134.413 14.5904 130.892 14.6812Z" fill="url(#paint4_linear_322_3673)"/>
<path d="M157.197 7.43262H182.615V12.1366H176.58L182.615 24.1215H175.573L169.908 12.105L164.244 24.1215H157.201L163.236 12.1366H157.201V7.43262H157.197ZM157.197 28.3953H182.615V33.0993H157.197V28.3953Z" fill="url(#paint5_linear_322_3673)"/>
</g>
<defs>
<filter id="filter0_d_322_3673" x="0" y="0" width="196.631" height="51.999" filterUnits="userSpaceOnUse" color-interpolation-filters="sRGB">
<feFlood flood-opacity="0" result="BackgroundImageFix"/>
<feColorMatrix in="SourceAlpha" type="matrix" values="0 0 0 0 0 0 0 0 0 0 0 0 0 0 0 0 0 0 127 0" result="hardAlpha"/>
<feOffset dy="5"/>
<feGaussianBlur stdDeviation="5"/>
<feColorMatrix type="matrix" values="0 0 0 0 0 0 0 0 0 0 0 0 0 0 0 0 0 0 0.1 0"/>
<feBlend mode="normal" in2="BackgroundImageFix" result="effect1_dropShadow_322_3673"/>
<feBlend mode="normal" in="SourceGraphic" in2="effect1_dropShadow_322_3673" result="shape"/>
</filter>
<linearGradient id="paint0_linear_322_3673" x1="25.5185" y1="33.07" x2="25.5185" y2="7.40332" gradientUnits="userSpaceOnUse">
<stop stop-color="#00FF7E"/>
<stop offset="1" stop-color="#00FFFF"/>
</linearGradient>
<linearGradient id="paint1_linear_322_3673" x1="54.0796" y1="-0.911522" x2="54.0796" y2="-0.911522" gradientUnits="userSpaceOnUse">
<stop stop-color="#00FF7E"/>
<stop offset="1" stop-color="#00FFFF"/>
</linearGradient>
<linearGradient id="paint2_linear_322_3673" x1="85.3045" y1="33.0984" x2="85.3045" y2="7.43168" gradientUnits="userSpaceOnUse">
<stop stop-color="#00FF7E"/>
<stop offset="1" stop-color="#00FFFF"/>
</linearGradient>
<linearGradient id="paint3_linear_322_3673" x1="112.945" y1="33.0993" x2="112.945" y2="7.43262" gradientUnits="userSpaceOnUse">
<stop stop-color="#00FF7E"/>
<stop offset="1" stop-color="#00FFFF"/>
</linearGradient>
<linearGradient id="paint4_linear_322_3673" x1="141.428" y1="33.0985" x2="141.428" y2="7.12797" gradientUnits="userSpaceOnUse">
<stop stop-color="#00FF7E"/>
<stop offset="1" stop-color="#00FFFF"/>
</linearGradient>
<linearGradient id="paint5_linear_322_3673" x1="169.908" y1="33.0993" x2="169.908" y2="7.43262" gradientUnits="userSpaceOnUse">
<stop stop-color="#00FF7E"/>
<stop offset="1" stop-color="#00FFFF"/>
</linearGradient>
</defs>
</svg>
