<svg viewBox="0 0 281 65" fill="none" xmlns="http://www.w3.org/2000/svg">
<path d="M38.9034 47.49L27.9344 56.15L27.386 52.42C24.1227 47 20.9417 41 19.4517 36.31C17.9709 41 14.7807 47 11.5357 52.42L10.969 56.15L0 47.49L2.30349 46.59C6.74017 39.051 10.4615 31.0361 13.4096 22.67V13.05H6.5357L3.51922 14.73V0.23999L6.5357 1.91999H32.3677L35.3933 0.23999V14.73L32.3677 13.05H25.5029V22.67C28.4549 31.0252 32.16 39.038 36.5634 46.59L38.9034 47.49ZM51.7646 4.32999V53.57L53.3094 56.87H38.1356L39.6804 53.57V4.32999L38.1356 0.99999H53.3094L51.7646 4.32999Z" fill="white"/>
<path d="M104.517 27.83L107.542 26.15V40.64L104.517 39H88.31V53.57L89.8457 56.87H74.681L76.2167 53.57V39H60.0009L56.9844 40.68V26.15L60.0009 27.83H104.517ZM93.5477 12.75H62.2038L59.1782 14.43V0.24L62.2038 1.92H94.7909L96.7105 0L106.884 4.69L105.614 7V26H93.5295L93.5477 12.75Z" fill="white"/>
<path d="M111.518 28.56L112.789 26.27V5.27L111.244 1.96H126.409L124.873 5.27V7.15H131.199V5.23L129.654 1.92H144.828L143.283 5.23V26.23L144.544 28.52L140.65 31.58H115.422L111.518 28.56ZM160.879 45.81C160.879 56.09 149.334 58.26 137.305 58.26C125.275 58.26 113.73 56.09 113.73 45.81C113.73 35.53 125.23 33.37 137.268 33.37C149.307 33.37 160.879 35.53 160.879 45.81ZM131.208 16.81H124.882V22H131.208V16.81ZM148.786 45.81C148.786 42.74 143.786 42.38 137.305 42.38C130.824 42.38 125.815 42.74 125.815 45.81C125.815 48.88 130.815 49.24 137.305 49.24C143.795 49.24 148.749 48.88 148.749 45.81H148.786ZM162.25 10.76L165.276 9.08V23L162.25 21.31H159.563V29.31L161.098 32.61H145.897L147.433 29.31V4.31L145.897 1H161.062L159.526 4.31V10.74L162.25 10.76Z" fill="white"/>
<path d="M166.884 30.5999L169.736 32.1599L202.926 29.8799V40.3999L190.504 41.2399L188.914 53.5699L190.175 56.8699H174.965L176.793 53.5699L178.246 42.0799L169.891 42.6799L166.875 44.3699L166.884 30.5999ZM167.798 14.8499C167.798 5.2299 175.385 0.899902 185.111 0.899902C194.837 0.899902 202.415 5.2299 202.415 14.8999C202.415 24.5699 194.837 28.8999 185.111 28.8999C175.385 28.8999 167.817 24.4699 167.817 14.8499H167.798ZM178.767 14.8499C178.767 17.6699 181.683 18.8499 185.093 18.8499C188.502 18.8499 191.409 17.6399 191.409 14.8499C191.409 12.0599 188.493 10.8499 185.093 10.8499C181.692 10.8499 178.804 11.9999 178.804 14.8499H178.767ZM216.638 4.3299V53.5699L218.173 56.8699H202.99L204.526 53.5699V4.3299L202.99 0.999902H218.155L216.638 4.3299Z" fill="white"/>
<path d="M244.253 0.24V14.73L241.237 13.05H233.924V44H241.237L244.253 42.31V56.75L241.237 55.07H233.211L231.264 57L221.666 51.4L222.937 49.12V7.88L221.666 5.59L231.264 0L233.193 1.92H241.218L244.253 0.24ZM272.398 4.33V53.57L273.942 56.87H260.414L261.95 53.57V32.34H257.334V53.57H257.388L258.924 56.87H245.405L246.895 53.69V4.21L245.405 1H258.924L257.388 4.31H257.334V21.52H261.95V4.33L260.414 1H273.933L272.398 4.33Z" fill="white"/>
<path d="M44.6894 53.1899L33.7204 61.8499L33.1719 58.1199C29.9269 52.7099 26.7733 46.6999 25.256 42.0099C23.766 46.6999 20.5667 52.7099 17.3674 58.1199L16.8098 61.8499L5.84082 53.1899L8.14431 52.2899C12.5639 44.7461 16.2669 36.7278 19.1956 28.3599V18.7399H12.3217L9.3052 20.4299V5.93994L12.3217 7.61994H38.1537L41.1793 5.93994V20.4299L38.1537 18.7399H31.2889V28.3599C34.2506 36.7208 37.968 44.7373 42.3859 52.2899L44.6894 53.1899ZM57.5871 9.99994V59.2599L59.1319 62.5699H43.9216L45.4664 59.2599V9.99994L43.9216 6.69994H59.0954L57.5871 9.99994Z" stroke="white" stroke-width="0.63" stroke-miterlimit="10"/>
<path d="M110.303 33.5299L113.347 31.85V46.34L110.321 44.65H94.0961V59.2599L95.6318 62.57H80.4397L81.9753 59.2599V44.65H65.8143L62.7979 46.34V31.85L65.8143 33.5299H110.303ZM99.3338 18.44H67.9899L64.9642 20.12V5.93995L67.9899 7.61995H100.55L102.469 5.69995L112.643 10.39L111.372 12.67V31.7299H99.3155L99.3338 18.44Z" stroke="white" stroke-width="0.63" stroke-miterlimit="10"/>
<path d="M117.277 34.25L118.548 32V11L117.003 7.61995H132.168L130.632 10.93V12.85H136.957V10.93L135.413 7.61995H150.586L149.042 10.93V32L150.303 34.2799L146.409 37.3499H121.18L117.277 34.25ZM166.638 51.5099C166.629 61.7899 155.093 64 143.054 64C131.016 64 119.48 61.84 119.48 51.56C119.48 41.28 131.016 39.11 143.054 39.11C155.093 39.11 166.629 41.2299 166.629 51.5099H166.638ZM136.967 22.51H130.641V27.7H136.967V22.51ZM154.544 51.5099C154.544 48.4399 149.544 48.08 143.063 48.08C136.583 48.08 131.573 48.4399 131.573 51.5099C131.573 54.5799 136.573 54.93 143.063 54.93C149.553 54.93 154.535 54.5699 154.535 51.5099H154.544ZM168.009 16.51L171.034 14.82V28.66L168 27H165.312V35L166.848 38.31H151.683L153.219 35V9.99995L151.683 6.69995H166.848L165.312 9.99995V16.44L168.009 16.51Z" stroke="white" stroke-width="0.63" stroke-miterlimit="10"/>
<path d="M172.671 36.3001L175.505 37.8601L208.649 35.5801V46.1001L196.227 46.9401L194.7 59.2601L195.962 62.5701H180.751L182.58 59.2601L184.06 47.7801L175.706 48.3801L172.689 50.0601L172.671 36.3001ZM173.585 20.5501C173.585 10.9301 181.172 6.6001 190.898 6.6001C200.624 6.6001 208.201 10.9301 208.201 20.6001C208.201 30.2701 200.624 34.5401 190.898 34.5401C181.172 34.5401 173.603 30.1601 173.603 20.5501H173.585ZM184.554 20.5501C184.554 23.3701 187.47 24.5501 190.879 24.5501C194.289 24.5501 197.196 23.3501 197.196 20.5501C197.196 17.7501 194.28 16.5501 190.879 16.5501C187.479 16.5501 184.591 17.7201 184.591 20.5501H184.554ZM222.406 10.0001V59.2601L223.951 62.5701H208.777L210.313 59.2601V10.0001L208.777 6.7001H223.951L222.406 10.0001Z" stroke="white" stroke-width="0.63" stroke-miterlimit="10"/>
<path d="M250.039 5.93995V20.43L247.023 18.74H239.71V49.6399H247.023L250.039 47.9599V62.45L247.023 60.77H238.997L237.068 62.6899L227.452 57.0999L228.723 54.81V13.57L227.452 11.29L237.068 5.69995L238.997 7.61995H247.023L250.039 5.93995ZM278.175 9.99995V59.2599L279.71 62.57H266.2L267.736 59.2599V38H263.165V59.2599H263.22L264.756 62.57H251.191L252.681 59.38V9.89995L251.191 6.71995H264.71L263.175 9.99995H263.12V27.2H267.69V9.99995L266.154 6.69995H279.71L278.175 9.99995Z" stroke="white" stroke-width="0.63" stroke-miterlimit="10"/>
</svg>
