<svg viewBox="0 0 145 49" fill="none" xmlns="http://www.w3.org/2000/svg">
<path d="M51.1812 12.5H17.2504V8.5H46.364L45.2122 4H13.201L11.7202 10.95L8.15527 10.05L10.2942 0H47.9911L51.1812 12.5Z" fill="#0A13FF"/>
<path d="M25.0838 48.9101L0.120117 43.9401L6.10737 16.6301L9.66316 17.5701L4.58085 40.7601L22.57 44.3401L27.433 27.5401H30.8425L36.6104 44.3601L54.6178 40.7801L48.7677 17.6301L52.296 16.5701L59.2065 43.9301L34.2612 48.8901L29.2885 34.3801L25.0838 48.9101Z" fill="#0A13FF"/>
<path d="M77.6072 13.16C77.0858 13.1522 76.5877 12.9222 76.219 12.5188C75.8502 12.1154 75.6399 11.5705 75.6328 11C75.6328 10.4351 75.8379 9.89332 76.2031 9.49387C76.5682 9.09442 77.0634 8.87001 77.5798 8.87001H82.9912V5.63001C82.9912 4.34001 84.0698 3.51001 85.4227 3.51001C86.7755 3.51001 87.8724 4.34001 87.8724 5.63001V8.86001H93.2929C93.811 8.86264 94.3071 9.08895 94.6735 9.48971C95.0398 9.89047 95.2467 10.4333 95.2491 11C95.2443 11.5722 95.0351 12.1196 94.6661 12.5252C94.2971 12.9307 93.7976 13.1622 93.2746 13.17L77.6072 13.16ZM76.3641 29.57V24C76.3641 18.64 80.3221 15.33 85.4227 15.33C90.5232 15.33 94.4904 18.64 94.4904 24V29.62C94.4904 35.01 90.5689 38.28 85.4227 38.28C80.2764 38.28 76.3641 35 76.3641 29.57ZM89.9017 29.57V24C89.9107 23.3709 89.8001 22.7465 89.5769 22.1667C89.3536 21.5868 89.0227 21.064 88.605 20.6314C88.1872 20.1989 87.6919 19.8661 87.1504 19.6541C86.6088 19.4421 86.0329 19.3556 85.4592 19.4C83.0278 19.4 81.0168 21.08 81.0168 24V29.55C81.0168 32.44 83.0278 34.11 85.4592 34.11C87.8907 34.11 89.9017 32.46 89.9017 29.57ZM99.9566 36.98V6.36001C100.009 5.69435 100.288 5.07454 100.739 4.62297C101.189 4.1714 101.777 3.92088 102.388 3.92088C102.999 3.92088 103.587 4.1714 104.038 4.62297C104.488 5.07454 104.767 5.69435 104.82 6.36001V18.13H107.425C107.683 18.1438 107.936 18.2143 108.169 18.3373C108.402 18.4604 108.61 18.6334 108.78 18.8461C108.951 19.0588 109.081 19.3069 109.162 19.5755C109.243 19.8442 109.274 20.128 109.253 20.41C109.275 20.6923 109.245 20.9767 109.165 21.2459C109.084 21.5152 108.954 21.7638 108.784 21.9768C108.613 22.1899 108.404 22.3629 108.171 22.4854C107.937 22.608 107.683 22.6776 107.425 22.69H104.82V37C104.767 37.6657 104.488 38.2855 104.038 38.737C103.587 39.1886 102.999 39.4391 102.388 39.4391C101.777 39.4391 101.189 39.1886 100.739 38.737C100.288 38.2855 100.009 37.6657 99.9566 37V36.98Z" fill="#0A13FF"/>
<path d="M113.631 35.5399C113.642 34.9661 113.852 34.4185 114.219 34.008C114.586 33.5976 115.081 33.3552 115.605 33.3299C122.338 33.1835 129.055 32.5622 135.715 31.4699C136.235 31.3797 136.767 31.5192 137.193 31.8577C137.619 32.1962 137.904 32.706 137.987 33.2749C138.069 33.8438 137.942 34.4252 137.632 34.8912C137.323 35.3573 136.857 35.6697 136.337 35.7599C129.511 36.95 122.617 37.6183 115.706 37.7599C115.435 37.7679 115.166 37.7164 114.914 37.6083C114.662 37.5002 114.432 37.3378 114.239 37.1307C114.045 36.9236 113.891 36.6761 113.787 36.4028C113.683 36.1295 113.63 35.8361 113.631 35.5399ZM115.459 17.3399V13.3399C115.459 7.4199 119.801 4.4199 125.112 4.4199C130.423 4.4199 134.774 7.4199 134.774 13.3399V17.3399C134.774 23.2199 130.395 26.1499 125.112 26.1499C119.828 26.1499 115.505 23.2199 115.505 17.3399H115.459ZM130.084 17.4899V13.1899C130.084 10.3399 127.891 8.6299 125.112 8.6299C122.333 8.6299 120.185 10.3399 120.185 13.1899V17.4899C120.185 20.2599 122.37 21.9299 125.112 21.9299C127.854 21.9299 130.13 20.2599 130.13 17.4899H130.084ZM139.225 36.9399V6.4299C139.29 5.76417 139.577 5.14803 140.032 4.70022C140.487 4.25242 141.077 4.00464 141.689 4.00464C142.301 4.00464 142.891 4.25242 143.346 4.70022C143.801 5.14803 144.088 5.76417 144.152 6.4299V36.9399C144.088 37.6056 143.801 38.2218 143.346 38.6696C142.891 39.1174 142.301 39.3652 141.689 39.3652C141.077 39.3652 140.487 39.1174 140.032 38.6696C139.577 38.2218 139.29 37.6056 139.225 36.9399Z" fill="#0A13FF"/>
</svg>
