<svg viewBox="0 0 147 46" fill="none" xmlns="http://www.w3.org/2000/svg">
<path d="M56.2557 24.41L53.6688 21.59L58.7328 16.05L46.932 4H41.091C40.5528 6.13573 39.3995 8.0247 37.8023 9.38657C36.205 10.7484 34.249 11.5106 32.2244 11.56H31.9502C29.9347 11.4995 27.9904 10.7321 26.4038 9.37092C24.8173 8.00976 23.6726 6.12691 23.1384 4H17.2974L5.49657 16.05L10.5515 21.59L7.9646 24.41L0.231445 16L15.8531 0H26.3194L26.4748 1.81C26.623 3.32668 27.2786 4.72984 28.3156 5.74948C29.3526 6.76912 30.6976 7.33321 32.0919 7.33321C33.4861 7.33321 34.8311 6.76912 35.8681 5.74948C36.9051 4.72984 37.5607 3.32668 37.7089 1.81L37.9009 0H48.3763L63.998 16L56.2557 24.41Z" fill="#7F7F7F"/>
<path d="M53.3217 46H10.9082L13.166 20.08L13.8424 12.8L17.4805 13.2L16.804 20.47L14.9302 42H49.2997L47.4259 20.46L46.7494 13.2L50.3875 12.8L51.0639 20.07L53.3217 46Z" fill="#7F7F7F"/>
<path d="M78.3037 19.5601C78.3116 19.1295 78.4343 18.7108 78.6568 18.3555C78.8793 18.0002 79.1918 17.7237 79.556 17.5601C83.514 15.7301 86.3659 12.1201 86.3659 7.56008V5.08008C86.4532 4.4483 86.7448 3.87171 87.1875 3.45503C87.6303 3.03835 88.195 2.80921 88.7791 2.80921C89.3632 2.80921 89.9279 3.03835 90.3707 3.45503C90.8135 3.87171 91.105 4.4483 91.1923 5.08008V7.67008C91.1923 11.9201 94.0717 15.3001 97.9657 17.0101C98.3414 17.1763 98.6635 17.4608 98.8914 17.8276C99.1192 18.1943 99.2424 18.6267 99.2454 19.0701C99.2454 19.667 99.0306 20.2398 98.6474 20.6647C98.2641 21.0896 97.7434 21.3322 97.1978 21.3401C96.9394 21.3326 96.6836 21.282 96.4391 21.1901C92.9656 19.6701 90.0405 17.1901 88.7974 14.1901C87.5817 17.3801 84.6292 20.0401 81.1191 21.6001C80.8804 21.7184 80.6224 21.783 80.3604 21.7901C79.8202 21.7824 79.3039 21.5457 78.9202 21.1297C78.5365 20.7136 78.3155 20.1509 78.3037 19.5601ZM86.9235 37.8001C83.1301 37.8001 80.1502 35.0601 80.1502 31.1501C80.1502 27.2401 83.1301 24.5401 86.9235 24.5401H101.695C105.516 24.5401 108.505 27.2301 108.505 31.1501C108.505 35.0701 105.534 37.8001 101.695 37.8001H86.9235ZM100.744 33.8001C102.408 33.8001 103.66 32.8001 103.66 31.1801C103.66 29.5601 102.408 28.5901 100.744 28.5901H87.8925C86.2562 28.5901 85.0405 29.5901 85.0405 31.1801C85.0405 32.7701 86.2562 33.8001 87.8925 33.8001H100.744ZM102.792 21.2201V4.74008C102.801 4.4105 102.873 4.08664 103.003 3.7892C103.133 3.49176 103.319 3.22729 103.548 3.0127C103.776 2.79811 104.044 2.63813 104.332 2.54297C104.621 2.44781 104.924 2.41958 105.223 2.46008C106.613 2.46008 107.655 3.30008 107.655 4.74008V10.0001H110.123C110.627 10.0261 111.102 10.2684 111.444 10.6746C111.786 11.0807 111.969 11.618 111.951 12.1701C111.962 12.4441 111.924 12.7178 111.837 12.9754C111.751 13.233 111.62 13.4695 111.45 13.6712C111.28 13.8729 111.075 14.0358 110.847 14.1506C110.62 14.2654 110.374 14.3298 110.123 14.3401H107.655V21.2101C107.655 22.6601 106.613 23.4901 105.223 23.4901C104.923 23.5307 104.618 23.5019 104.328 23.4056C104.038 23.3092 103.77 23.1475 103.541 22.9307C103.312 22.714 103.127 22.4471 102.998 22.1473C102.869 21.8475 102.799 21.5214 102.792 21.1901V21.2201Z" fill="#7F7F7F"/>
<path d="M116.32 34C116.329 33.4255 116.539 32.8765 116.906 32.4656C117.273 32.0546 117.77 31.8129 118.295 31.79C125.028 31.644 131.745 31.0227 138.405 29.93C138.925 29.8385 139.457 29.9768 139.883 30.3143C140.31 30.6519 140.597 31.1612 140.681 31.73C140.764 32.2989 140.638 32.8809 140.329 33.3478C140.021 33.8148 139.555 34.1285 139.035 34.22C132.209 35.4097 125.316 36.078 118.404 36.22C118.133 36.2295 117.863 36.1789 117.61 36.0714C117.356 35.964 117.126 35.8018 116.931 35.5946C116.737 35.3873 116.582 35.1393 116.477 34.8654C116.372 34.5914 116.319 34.2971 116.32 34ZM118.149 15.8V11.8C118.149 6.00004 122.527 3.00004 127.838 3.00004C133.149 3.00004 137.491 6.00004 137.491 11.92V15.92C137.491 21.8 133.112 24.73 127.838 24.73C122.564 24.73 118.149 21.72 118.149 15.84V15.8ZM132.774 16V11.7C132.774 8.85004 130.589 7.14004 127.81 7.14004C125.032 7.14004 122.874 8.85004 122.874 11.7V16C122.874 18.77 125.068 20.44 127.81 20.44C130.553 20.44 132.774 18.76 132.774 16ZM141.915 35.45V4.93004C141.968 4.25407 142.251 3.62454 142.708 3.16584C143.165 2.70713 143.763 2.45264 144.383 2.45264C145.003 2.45264 145.601 2.70713 146.057 3.16584C146.514 3.62454 146.798 4.25407 146.851 4.93004V35.44C146.798 36.116 146.514 36.7455 146.057 37.2043C145.601 37.663 145.003 37.9174 144.383 37.9174C143.763 37.9174 143.165 37.663 142.708 37.2043C142.251 36.7455 141.968 36.116 141.915 35.44V35.45Z" fill="#7F7F7F"/>
</svg>
