<svg viewBox="0 0 149 40" fill="none" xmlns="http://www.w3.org/2000/svg">
<path d="M53.3164 39.0246H11.2685C5.25383 39.0246 0.35434 33.2046 0.35434 26.0246C0.316561 23.6261 0.87376 21.2613 1.96666 19.1818C3.05957 17.1022 4.6473 15.3856 6.56097 14.2146L30.0255 1.67456L31.6343 5.27456L8.20632 17.7846C6.89497 18.6192 5.81332 19.8248 5.07504 21.2748C4.33675 22.7247 3.96909 24.3655 4.01068 26.0246C4.01068 31.0246 7.26482 35.0246 11.2685 35.0246H53.3164C56.8722 35.0246 59.7698 31.4346 59.7698 27.0246V16.0246H63.4261V27.0246C63.4261 33.6446 58.8557 39.0246 53.3164 39.0246Z" fill="#0A13FF"/>
<path d="M53.7917 12.7246C50.6138 12.803 47.4628 12.0713 44.5881 10.5874C41.7133 9.10341 39.1937 6.90791 37.2285 4.17458L40.2633 1.94458C40.5375 2.38458 47.0823 12.5746 61.9362 7.16458L63.088 10.9646C60.0964 12.0963 56.957 12.6907 53.7917 12.7246Z" fill="#0A13FF"/>
<path d="M25.3657 5.51961L22.0732 7.25928L27.0585 18.5512L30.351 16.8115L25.3657 5.51961Z" fill="#0A13FF"/>
<path d="M19.0034 9.40047L15.7109 11.1401L20.6962 22.432L23.9886 20.6924L19.0034 9.40047Z" fill="#0A13FF"/>
<path d="M76.8629 18.4547C76.8532 18.0085 76.9678 17.5696 77.1914 17.1963C77.4151 16.823 77.7373 16.533 78.1152 16.3647C82.0732 14.5347 84.9891 11.1147 84.9891 6.6747V2.6747C84.9891 1.1947 86.0677 0.354702 87.4571 0.354702C87.7632 0.307792 88.075 0.332787 88.3716 0.428023C88.6682 0.523259 88.9428 0.686549 89.1772 0.907013C89.4116 1.12748 89.6004 1.40005 89.7309 1.70658C89.8614 2.01311 89.9308 2.34656 89.9343 2.6847V6.6847C89.9343 11.1247 92.8502 14.5447 96.8082 16.3747C97.1861 16.543 97.5083 16.833 97.7319 17.2063C97.9556 17.5796 98.0702 18.0185 98.0605 18.4647C98.0511 19.0556 97.8324 19.6194 97.4504 20.0373C97.0684 20.4551 96.553 20.6944 96.0129 20.7047C95.7401 20.6923 95.4698 20.6418 95.2085 20.5547C91.7076 18.9547 88.7186 16.2947 87.4663 13.0647C86.2505 16.2547 83.234 18.9147 79.7605 20.5147C79.5061 20.6342 79.2329 20.6987 78.9561 20.7047C78.4065 20.7074 77.8782 20.4725 77.4862 20.0511C77.0941 19.6297 76.8701 19.0559 76.8629 18.4547ZM81.7075 35.1647C81.4022 35.205 81.0924 35.1689 80.8017 35.059C80.511 34.9491 80.247 34.7684 80.0295 34.5305C79.812 34.2925 79.6468 34.0037 79.5464 33.6856C79.4459 33.3676 79.4129 33.0287 79.4497 32.6947V25.3247C79.4497 23.8447 80.5649 23.0147 81.9178 23.0147C83.2706 23.0147 84.4498 23.8447 84.4498 25.3247V31.0247H106.196C106.703 31.0247 107.188 31.2449 107.547 31.6368C107.905 32.0288 108.106 32.5604 108.106 33.1147C108.106 33.669 107.905 34.2006 107.547 34.5926C107.188 34.9845 106.703 35.2047 106.196 35.2047L81.7075 35.1647ZM102.302 23.8047V2.3447C102.39 1.69779 102.688 1.10709 103.141 0.680129C103.594 0.253164 104.172 0.0183105 104.77 0.0183105C105.368 0.0183105 105.946 0.253164 106.399 0.680129C106.852 1.10709 107.149 1.69779 107.238 2.3447V23.8047C107.149 24.4516 106.852 25.0423 106.399 25.4693C105.946 25.8962 105.368 26.1311 104.77 26.1311C104.172 26.1311 103.594 25.8962 103.141 25.4693C102.688 25.0423 102.39 24.4516 102.302 23.8047Z" fill="#0A13FF"/>
<path d="M117.988 17.6146C117.695 17.6561 117.398 17.6242 117.118 17.5213C116.838 17.4185 116.583 17.2474 116.373 17.021C116.162 16.7947 116.002 16.5189 115.903 16.2146C115.804 15.9104 115.77 15.5855 115.803 15.2646V2.76465C115.811 2.44466 115.88 2.13002 116.006 1.84105C116.132 1.55207 116.312 1.29517 116.534 1.08693C116.756 0.878687 117.016 0.723724 117.296 0.632042C117.576 0.540359 117.871 0.513993 118.162 0.554646C119.487 0.554646 120.529 1.35465 120.529 2.76465V4.96465H128.893V2.76465C128.972 2.15102 129.25 1.5892 129.678 1.18266C130.105 0.776126 130.653 0.552242 131.219 0.552242C131.786 0.552242 132.333 0.776126 132.76 1.18266C133.188 1.5892 133.467 2.15102 133.546 2.76465V15.2646C133.583 15.583 133.553 15.9064 133.458 16.2101C133.363 16.5138 133.206 16.7897 132.999 17.0166C132.791 17.2435 132.539 17.4154 132.262 17.5191C131.984 17.6228 131.688 17.6555 131.397 17.6146H117.988ZM143.728 31.6146C143.953 31.5962 144.179 31.6287 144.391 31.7101C144.604 31.7915 144.799 31.92 144.964 32.0875C145.129 32.2551 145.26 32.4581 145.35 32.6839C145.44 32.9096 145.487 33.1533 145.487 33.3996C145.487 33.646 145.44 33.8897 145.35 34.1154C145.26 34.3412 145.129 34.5442 144.964 34.7118C144.799 34.8793 144.604 35.0078 144.391 35.0892C144.179 35.1705 143.953 35.203 143.728 35.1846H119.185C118.925 35.2211 118.66 35.1925 118.411 35.101C118.163 35.0094 117.936 34.8573 117.748 34.6562C117.561 34.455 117.418 34.21 117.329 33.9395C117.241 33.6691 117.21 33.3802 117.238 33.0946V28.0246C117.223 27.7463 117.264 27.4676 117.358 27.2085C117.452 26.9493 117.597 26.716 117.783 26.5251C117.969 26.3343 118.191 26.1905 118.433 26.104C118.676 26.0175 118.932 25.9904 119.185 26.0246H139.542V23.8046H118.683C118.276 23.7711 117.895 23.5706 117.618 23.2433C117.34 22.916 117.186 22.4861 117.186 22.0396C117.186 21.5932 117.34 21.1633 117.618 20.836C117.895 20.5087 118.276 20.3082 118.683 20.2746H142.513C142.771 20.2428 143.032 20.275 143.277 20.3687C143.522 20.4625 143.744 20.6155 143.928 20.8163C144.112 21.0171 144.251 21.2606 144.337 21.5286C144.423 21.7967 144.452 22.0825 144.423 22.3646V27.1946C144.455 27.4788 144.428 27.7671 144.343 28.0381C144.259 28.3091 144.12 28.5557 143.936 28.7595C143.752 28.9634 143.529 29.1192 143.282 29.2153C143.036 29.3114 142.773 29.3454 142.513 29.3146H122.119V31.5946L143.728 31.6146ZM128.893 8.91465H120.529V13.6646H128.893V8.91465ZM146.882 6.78465C147.134 6.78586 147.384 6.84231 147.616 6.95066C147.848 7.05902 148.058 7.21709 148.234 7.41557C148.409 7.61405 148.547 7.84893 148.638 8.10638C148.729 8.36383 148.772 8.63864 148.765 8.91465C148.776 9.1936 148.736 9.47213 148.646 9.73364C148.557 9.99514 148.42 10.2343 148.244 10.4368C148.069 10.6393 147.858 10.801 147.623 10.9123C147.389 11.0236 147.137 11.0822 146.882 11.0846H144.423V16.6246C144.35 17.2739 144.063 17.8717 143.615 18.3051C143.167 18.7386 142.59 18.9778 141.992 18.9778C141.394 18.9778 140.816 18.7386 140.368 18.3051C139.921 17.8717 139.633 17.2739 139.56 16.6246V2.30465C139.569 1.97024 139.642 1.64157 139.775 1.34027C139.907 1.03896 140.097 0.771836 140.331 0.556467C140.565 0.341098 140.838 0.182362 141.132 0.0907C141.426 -0.000961952 141.735 -0.0234735 142.037 0.0246459C143.427 0.0246459 144.469 0.864646 144.469 2.30465V6.78465H146.882Z" fill="#0A13FF"/>
</svg>
