<svg viewBox="0 0 149 40" fill="none" xmlns="http://www.w3.org/2000/svg">
<path d="M53.2304 39.0246H11.1826C5.16789 39.0246 0.268403 33.2046 0.268403 26.0246C0.230624 23.6261 0.787822 21.2613 1.88073 19.1818C2.97363 17.1022 4.56136 15.3856 6.47503 14.2146L29.9396 1.67456L31.5484 5.27456L8.12039 17.7846C6.80904 18.6192 5.72739 19.8248 4.9891 21.2748C4.25082 22.7247 3.88315 24.3655 3.92474 26.0246C3.92474 31.0246 7.17888 35.0246 11.1826 35.0246H53.2304C56.7862 35.0246 59.6839 31.4346 59.6839 27.0246V16.0246H63.3402V27.0246C63.3402 33.6446 58.7698 39.0246 53.2304 39.0246Z" fill="#7F7F7F"/>
<path d="M53.7058 12.7246C50.5279 12.803 47.3769 12.0713 44.5021 10.5874C41.6274 9.10341 39.1077 6.90791 37.1426 4.17458L40.1773 1.94458C40.4516 2.38458 46.9964 12.5846 61.8503 7.16458L63.002 10.9646C60.0104 12.0963 56.871 12.6907 53.7058 12.7246Z" fill="#7F7F7F"/>
<path d="M25.2797 5.51961L21.9873 7.25928L26.9726 18.5512L30.265 16.8115L25.2797 5.51961Z" fill="#7F7F7F"/>
<path d="M18.9174 9.40047L15.625 11.1401L20.6103 22.432L23.9027 20.6924L18.9174 9.40047Z" fill="#7F7F7F"/>
<path d="M76.7769 18.4547C76.7672 18.0085 76.8818 17.5696 77.1055 17.1963C77.3292 16.823 77.6513 16.533 78.0292 16.3647C81.9872 14.5347 84.9031 11.1147 84.9031 6.6747V2.6747C84.9031 1.1947 85.9818 0.354702 87.3712 0.354702C87.6773 0.307792 87.989 0.332787 88.2856 0.428023C88.5822 0.523259 88.8569 0.686549 89.0913 0.907013C89.3257 1.12748 89.5144 1.40005 89.645 1.70658C89.7755 2.01311 89.8448 2.34656 89.8483 2.6847V6.6847C89.8483 11.1247 92.7643 14.5447 96.7223 16.3747C97.1001 16.543 97.4223 16.833 97.646 17.2063C97.8697 17.5796 97.9843 18.0185 97.9745 18.4647C97.9652 19.0556 97.7464 19.6194 97.3644 20.0373C96.9825 20.4551 96.4671 20.6944 95.927 20.7047C95.6541 20.6923 95.3838 20.6418 95.1226 20.5547C91.6217 18.9547 88.6326 16.2947 87.3803 13.0647C86.1646 16.2547 83.1481 18.9147 79.6746 20.5147C79.4202 20.6342 79.147 20.6987 78.8702 20.7047C78.3206 20.7074 77.7923 20.4725 77.4002 20.0511C77.0082 19.6297 76.7842 19.0559 76.7769 18.4547ZM81.6216 35.1647C81.3162 35.205 81.0065 35.1689 80.7158 35.059C80.4251 34.9491 80.161 34.7684 79.9435 34.5305C79.7261 34.2925 79.5609 34.0037 79.4604 33.6856C79.36 33.3676 79.3269 33.0287 79.3638 32.6947V25.3247C79.3638 23.8447 80.479 23.0147 81.8318 23.0147C83.1847 23.0147 84.3638 23.8447 84.3638 25.3247V31.0247H106.11C106.617 31.0247 107.103 31.2449 107.461 31.6368C107.819 32.0288 108.02 32.5604 108.02 33.1147C108.02 33.669 107.819 34.2006 107.461 34.5926C107.103 34.9845 106.617 35.2047 106.11 35.2047L81.6216 35.1647ZM102.216 23.8047V2.3447C102.304 1.69779 102.602 1.10709 103.055 0.680129C103.508 0.253164 104.086 0.0183105 104.684 0.0183105C105.282 0.0183105 105.86 0.253164 106.313 0.680129C106.766 1.10709 107.064 1.69779 107.152 2.3447V23.8047C107.064 24.4516 106.766 25.0423 106.313 25.4693C105.86 25.8962 105.282 26.1311 104.684 26.1311C104.086 26.1311 103.508 25.8962 103.055 25.4693C102.602 25.0423 102.304 24.4516 102.216 23.8047Z" fill="#7F7F7F"/>
<path d="M117.902 17.6146C117.609 17.6561 117.312 17.6242 117.032 17.5213C116.752 17.4185 116.497 17.2474 116.287 17.021C116.077 16.7947 115.916 16.5189 115.817 16.2146C115.718 15.9104 115.684 15.5855 115.717 15.2646V2.76465C115.725 2.44466 115.794 2.13002 115.92 1.84105C116.046 1.55207 116.226 1.29517 116.448 1.08693C116.67 0.878687 116.93 0.723724 117.21 0.632042C117.491 0.540359 117.785 0.513993 118.076 0.554646C119.401 0.554646 120.443 1.35465 120.443 2.76465V4.96465H128.807V2.76465C128.886 2.15102 129.165 1.5892 129.592 1.18266C130.019 0.776126 130.567 0.552242 131.133 0.552242C131.7 0.552242 132.247 0.776126 132.674 1.18266C133.102 1.5892 133.381 2.15102 133.46 2.76465V15.2646C133.497 15.583 133.467 15.9064 133.372 16.2101C133.278 16.5138 133.12 16.7897 132.913 17.0166C132.706 17.2435 132.453 17.4154 132.176 17.5191C131.898 17.6228 131.602 17.6555 131.312 17.6146H117.902ZM143.643 31.6146C143.867 31.5962 144.093 31.6287 144.305 31.7101C144.518 31.7915 144.713 31.92 144.878 32.0875C145.043 32.2551 145.174 32.4581 145.264 32.6839C145.354 32.9096 145.401 33.1533 145.401 33.3996C145.401 33.646 145.354 33.8897 145.264 34.1154C145.174 34.3412 145.043 34.5442 144.878 34.7118C144.713 34.8793 144.518 35.0078 144.305 35.0892C144.093 35.1705 143.867 35.203 143.643 35.1846H119.099C118.839 35.2211 118.574 35.1925 118.325 35.101C118.077 35.0094 117.85 34.8573 117.663 34.6562C117.475 34.455 117.332 34.21 117.243 33.9395C117.155 33.6691 117.124 33.3802 117.152 33.0946V28.0246C117.137 27.7463 117.178 27.4676 117.272 27.2085C117.366 26.9493 117.511 26.716 117.697 26.5251C117.883 26.3343 118.105 26.1905 118.347 26.104C118.59 26.0175 118.846 25.9904 119.099 26.0246H139.456V23.8046H118.597C118.19 23.7711 117.809 23.5706 117.532 23.2433C117.254 22.916 117.1 22.4861 117.1 22.0396C117.1 21.5932 117.254 21.1633 117.532 20.836C117.809 20.5087 118.19 20.3082 118.597 20.2746H142.427C142.685 20.2428 142.946 20.275 143.191 20.3687C143.436 20.4625 143.659 20.6155 143.842 20.8163C144.026 21.0171 144.165 21.2606 144.251 21.5286C144.337 21.7967 144.366 22.0825 144.337 22.3646V27.1946C144.369 27.4788 144.342 27.7671 144.257 28.0381C144.173 28.3091 144.034 28.5557 143.85 28.7595C143.666 28.9634 143.443 29.1192 143.197 29.2153C142.95 29.3114 142.687 29.3454 142.427 29.3146H122.034V31.5946L143.643 31.6146ZM128.807 8.91465H120.443V13.6646H128.807V8.91465ZM146.796 6.78465C147.048 6.78586 147.298 6.84231 147.53 6.95066C147.762 7.05902 147.972 7.21709 148.148 7.41557C148.323 7.61405 148.461 7.84893 148.552 8.10638C148.643 8.36383 148.686 8.63864 148.679 8.91465C148.69 9.1936 148.65 9.47213 148.56 9.73364C148.471 9.99514 148.334 10.2343 148.159 10.4368C147.983 10.6393 147.772 10.801 147.538 10.9123C147.303 11.0236 147.051 11.0822 146.796 11.0846H144.337V16.6246C144.264 17.2739 143.977 17.8717 143.529 18.3051C143.081 18.7386 142.504 18.9778 141.906 18.9778C141.308 18.9778 140.73 18.7386 140.283 18.3051C139.835 17.8717 139.547 17.2739 139.474 16.6246V2.30465C139.483 1.97024 139.556 1.64157 139.689 1.34027C139.821 1.03896 140.011 0.771836 140.245 0.556467C140.479 0.341098 140.752 0.182362 141.046 0.0907C141.34 -0.000961952 141.649 -0.0234735 141.951 0.0246459C143.341 0.0246459 144.383 0.864646 144.383 2.30465V6.78465H146.796Z" fill="#7F7F7F"/>
</svg>
