<svg viewBox="0 0 915 234" fill="none" xmlns="http://www.w3.org/2000/svg">
<g clip-path="url(#clip0_151_3435)">
<path d="M78.2698 161.48C78.2698 160.97 78.5498 160.51 78.9598 160.28C83.9698 157.43 91.5198 149.88 91.5198 140.27V128.86H80.8898C80.2498 128.86 79.6898 128.35 79.6898 127.66C79.6898 127.02 80.2398 126.46 80.8898 126.46H104.9C105.54 126.46 106.1 127.01 106.1 127.66C106.1 128.35 105.55 128.86 104.9 128.86H94.2698V140.27C94.2698 149.89 101.86 157.43 106.88 160.28C107.29 160.51 107.57 160.97 107.57 161.48C107.57 162.22 106.93 162.81 106.19 162.81C105.96 162.81 105.73 162.76 105.5 162.63C100.21 159.59 94.2298 153.06 92.8898 146.44C91.5598 153.06 85.6198 159.6 80.2798 162.63C80.0498 162.77 79.8198 162.81 79.5898 162.81C78.8498 162.81 78.2598 162.21 78.2598 161.48H78.2698ZM114.52 164.56V125.13C114.52 124.39 115.12 123.84 115.9 123.84C116.68 123.84 117.28 124.39 117.28 125.13V164.56C117.28 165.3 116.68 165.85 115.9 165.85C115.12 165.85 114.52 165.3 114.52 164.56Z" fill="white"/>
<path d="M143.41 165.03V149.25H125.1C124.46 149.25 123.9 148.7 123.9 148.05C123.9 147.36 124.45 146.85 125.1 146.85H164.57C165.21 146.85 165.77 147.36 165.77 148.05C165.77 148.69 165.22 149.25 164.57 149.25H146.17V165.03C146.17 165.77 145.57 166.32 144.79 166.32C144.01 166.32 143.41 165.77 143.41 165.03ZM157.26 142.07C158.41 137.24 159.15 132.41 159.56 127.62H128.14C127.5 127.62 126.94 127.11 126.94 126.42C126.94 125.78 127.49 125.22 128.14 125.22H161.08C162.05 125.22 162.51 125.77 162.46 126.78C162 131.93 161.22 137.18 159.98 142.33C159.8 143.02 159.24 143.43 158.51 143.43C157.73 143.43 157.04 142.83 157.27 142.05L157.26 142.07Z" fill="white"/>
<path d="M173.17 145.47C172.25 145.47 171.7 144.92 171.7 144V125.97C171.7 125.23 172.3 124.68 173.08 124.68C173.86 124.68 174.46 125.23 174.46 125.97V132.18H191.34V125.97C191.34 125.23 191.94 124.68 192.72 124.68C193.5 124.68 194.1 125.23 194.1 125.97V144C194.1 144.92 193.55 145.47 192.63 145.47H173.17ZM181.77 165.94C176.76 165.94 172.8 162.77 172.8 158.07C172.8 153.37 176.76 150.25 181.77 150.25H200.31C205.32 150.25 209.28 153.38 209.28 158.07C209.28 162.76 205.32 165.94 200.31 165.94H181.77ZM174.46 143.07H191.34V134.56H174.46V143.07ZM200.18 163.54C203.72 163.54 206.53 161.38 206.53 158.07C206.53 154.76 203.72 152.64 200.18 152.64H181.92C178.38 152.64 175.57 154.76 175.57 158.07C175.57 161.38 178.38 163.54 181.92 163.54H200.18ZM205.19 147.44V125.13C205.19 124.39 205.79 123.84 206.57 123.84C207.35 123.84 207.95 124.39 207.95 125.13V133.59H213.15C213.79 133.59 214.35 134.14 214.35 134.79C214.35 135.48 213.8 135.99 213.15 135.99H207.95V147.45C207.95 148.19 207.35 148.74 206.57 148.74C205.79 148.74 205.19 148.19 205.19 147.45V147.44Z" fill="white"/>
<path d="M226.99 164.24C228.69 159.69 229.75 155.18 230.3 150.62H216.73C216.09 150.62 215.53 150.11 215.53 149.42C215.53 148.78 216.08 148.22 216.73 148.22H247.14C247.78 148.22 248.34 148.77 248.34 149.42C248.34 150.11 247.79 150.62 247.14 150.62H233.15C232.55 155.31 231.45 160.05 229.7 164.74C229.47 165.34 228.96 165.84 228.32 165.84C227.45 165.84 226.66 165.1 226.99 164.23V164.24ZM227.54 143.4C222.34 143.4 218.66 139.17 218.66 133.97C218.66 128.77 222.34 124.58 227.54 124.58H236.1C241.3 124.58 244.98 128.77 244.98 133.97C244.98 139.17 241.3 143.4 236.1 143.4H227.54ZM235.87 141.01C239.5 141.01 242.22 137.74 242.22 133.97C242.22 130.2 239.51 126.98 235.87 126.98H227.82C224.14 126.98 221.42 130.2 221.42 133.97C221.42 137.74 224.13 141.01 227.82 141.01H235.87ZM252.89 164.56V125.13C252.89 124.39 253.49 123.84 254.27 123.84C255.05 123.84 255.65 124.39 255.65 125.13V164.56C255.65 165.3 255.05 165.85 254.27 165.85C253.49 165.85 252.89 165.3 252.89 164.56Z" fill="white"/>
<path d="M264.06 162.13V127.58C264.06 126.66 264.61 126.11 265.53 126.11H280.8C281.44 126.11 282 126.66 282 127.31C282 128 281.45 128.51 280.8 128.51H266.81V161.13C271.59 161.04 276.84 160.39 281.99 159.01C282.68 158.83 283.37 159.42 283.37 160.16C283.37 160.71 283 161.17 282.5 161.31C276.75 162.78 271.18 163.43 265.57 163.56C264.6 163.56 264.05 163.05 264.05 162.13H264.06ZM299.39 164.57V144.51H290.05V164.8C290.05 165.54 289.45 166.09 288.67 166.09C287.89 166.09 287.29 165.54 287.29 164.8V125.14C287.29 124.4 287.89 123.85 288.67 123.85C289.45 123.85 290.05 124.4 290.05 125.14V142.12H299.39V125.14C299.39 124.4 299.99 123.85 300.77 123.85C301.55 123.85 302.15 124.4 302.15 125.14V164.57C302.15 165.31 301.55 165.86 300.77 165.86C299.99 165.86 299.39 165.31 299.39 164.57Z" fill="white"/>
<path d="M321.98 144.42H308.73C308.09 144.42 307.53 143.87 307.53 143.22C307.53 142.53 308.08 142.02 308.73 142.02H339.6C340.24 142.02 340.8 142.53 340.8 143.22C340.8 143.86 340.25 144.42 339.6 144.42H324.74C324.23 147.55 323.64 150.68 322.62 153.8C322.44 154.4 321.98 154.95 321.29 154.95C320.42 154.95 319.59 154.21 319.86 153.43C320.83 150.39 321.47 147.4 321.98 144.41V144.42ZM317.93 138.16C313.88 138.16 310.66 135.26 310.66 131.35C310.66 127.44 313.88 124.59 317.93 124.59H329.48C333.53 124.59 336.75 127.49 336.75 131.35C336.75 135.21 333.53 138.16 329.48 138.16H317.93ZM347.47 163.32C348.11 163.32 348.67 163.83 348.67 164.52C348.67 165.16 348.12 165.72 347.47 165.72H314.21C313.29 165.72 312.74 165.17 312.74 164.25V154.13C312.74 153.39 313.34 152.89 314.12 152.89C314.9 152.89 315.5 153.4 315.5 154.13V163.33H347.47V163.32ZM318.35 126.98C315.68 126.98 313.43 128.87 313.43 131.4C313.43 133.93 315.68 135.77 318.35 135.77H329.12C331.79 135.77 334 133.88 334 131.4C334 128.92 331.79 126.98 329.12 126.98H318.35ZM344.89 149.61V125.14C344.89 124.4 345.49 123.85 346.27 123.85C347.05 123.85 347.65 124.4 347.65 125.14V156.52C347.65 157.26 347.05 157.76 346.27 157.76C345.49 157.76 344.89 157.25 344.89 156.52V152.01H330.67C330.03 152.01 329.47 151.46 329.47 150.81C329.47 150.12 330.02 149.61 330.67 149.61H344.89Z" fill="white"/>
<path d="M355.14 164.29C354.5 164.29 353.9 163.74 353.9 163.09C353.9 162.4 354.5 161.85 355.14 161.85H394.57C395.21 161.85 395.77 162.4 395.77 163.09C395.77 163.73 395.22 164.29 394.57 164.29H355.14ZM367.84 148.37C361.08 148.37 356.29 143.31 356.29 136.68C356.29 130.05 361.07 124.99 367.84 124.99H381.83C388.59 124.99 393.38 130.05 393.38 136.68C393.38 143.31 388.6 148.37 381.83 148.37H367.84ZM381.6 145.98C386.8 145.98 390.62 142.16 390.62 136.69C390.62 131.22 386.8 127.4 381.6 127.4H368.12C362.92 127.4 359.06 131.26 359.06 136.69C359.06 142.12 362.93 145.98 368.12 145.98H381.6Z" fill="white"/>
<path d="M401.1 164.29C400.46 164.29 399.9 163.74 399.9 163.09C399.9 162.4 400.45 161.89 401.1 161.89H419.46V152.69C419.46 151.95 420.06 151.45 420.84 151.45C421.62 151.45 422.22 151.96 422.22 152.69V161.89H440.58C441.22 161.89 441.78 162.4 441.78 163.09C441.78 163.73 441.23 164.29 440.58 164.29H401.11H401.1ZM404.78 148.74C403.86 148.74 403.31 148.19 403.31 147.27V137.15C403.31 136.23 403.86 135.68 404.78 135.68H435.6V127.63H404.36C403.72 127.63 403.16 127.12 403.16 126.43C403.16 125.79 403.71 125.23 404.36 125.23H436.89C437.81 125.23 438.36 125.78 438.36 126.7V136.59C438.36 137.51 437.81 138.06 436.89 138.06H406.07V146.34H437.77C438.41 146.34 438.97 146.85 438.97 147.54C438.97 148.18 438.42 148.74 437.77 148.74H404.78Z" fill="white"/>
<path d="M446.27 161.39C446.27 160.93 446.5 160.52 446.87 160.29C451.84 157.21 459.29 149.48 459.29 139.82V126.43C459.29 125.69 459.89 125.14 460.67 125.14C461.45 125.14 462.05 125.69 462.05 126.43V139.82C462.05 149.48 469.5 157.21 474.47 160.29C474.84 160.52 475.07 160.93 475.07 161.39C475.07 162.08 474.47 162.68 473.78 162.68C473.5 162.68 473.27 162.59 473.04 162.45C467.79 159.18 461.95 152.51 460.66 145.84C459.37 152.51 453.53 159.18 448.28 162.45C448.05 162.59 447.82 162.68 447.54 162.68C446.8 162.68 446.25 162.13 446.25 161.39H446.27ZM482.52 164.56V142.43H471.98C471.34 142.43 470.78 141.92 470.78 141.23C470.78 140.59 471.33 140.03 471.98 140.03H482.52V125.12C482.52 124.38 483.12 123.83 483.9 123.83C484.68 123.83 485.28 124.38 485.28 125.12V164.55C485.28 165.29 484.68 165.84 483.9 165.84C483.12 165.84 482.52 165.29 482.52 164.55V164.56Z" fill="white"/>
<path d="M506.9 164.29C506.26 164.29 505.7 163.74 505.7 163.09C505.7 162.4 506.25 161.89 506.9 161.89H525.26V151.4C525.26 150.66 525.86 150.16 526.64 150.16C527.42 150.16 528.02 150.67 528.02 151.4V161.89H546.38C547.02 161.89 547.58 162.4 547.58 163.09C547.58 163.73 547.03 164.29 546.38 164.29H506.91H506.9ZM510.58 147.45C509.66 147.45 509.11 146.9 509.11 145.98V126.7C509.11 125.78 509.66 125.23 510.58 125.23H542.69C543.61 125.23 544.16 125.78 544.16 126.7V145.98C544.16 146.9 543.61 147.45 542.69 147.45H510.58ZM511.87 145.06H541.41V127.62H511.87V145.06Z" fill="white"/>
<path d="M591.49 125.14V146.44C591.49 147.18 590.89 147.73 590.11 147.73C589.33 147.73 588.73 147.18 588.73 146.44V136H576.26V143.45C576.26 144.37 575.71 144.92 574.79 144.92H555.33C554.41 144.92 553.86 144.37 553.86 143.45V125.97C553.86 125.23 554.46 124.68 555.24 124.68C556.02 124.68 556.62 125.23 556.62 125.97V131.86H573.5V125.97C573.5 125.23 574.1 124.68 574.88 124.68C575.66 124.68 576.26 125.23 576.26 125.97V133.61H588.73V125.15C588.73 124.41 589.33 123.86 590.11 123.86C590.89 123.86 591.49 124.41 591.49 125.15V125.14ZM590.02 150.03C590.94 150.03 591.49 150.58 591.49 151.5V164.57C591.49 165.31 590.89 165.86 590.11 165.86C589.33 165.86 588.73 165.31 588.73 164.57V164.25L557.31 165.68C556.34 165.73 555.79 165.17 555.79 164.21V151.51C555.79 150.59 556.34 150.04 557.26 150.04H590.02V150.03ZM556.62 142.53H573.5V134.25H556.62V142.53ZM558.55 163.19L588.73 161.86V152.43H558.55V163.19Z" fill="white"/>
<path d="M599.49 153.62V134.94C599.49 128.64 604.69 124.31 611.41 124.31C618.13 124.31 623.33 128.63 623.33 134.94V153.62C623.33 159.97 618.13 164.29 611.41 164.29C604.69 164.29 599.49 159.97 599.49 153.62ZM620.56 153.76V134.85C620.56 130.06 616.56 126.71 611.41 126.71C606.26 126.71 602.25 130.07 602.25 134.85V153.76C602.25 158.59 606.25 161.9 611.41 161.9C616.57 161.9 620.56 158.59 620.56 153.76ZM634.68 164.57V125.14C634.68 124.4 635.28 123.85 636.06 123.85C636.84 123.85 637.44 124.4 637.44 125.14V164.57C637.44 165.31 636.84 165.86 636.06 165.86C635.28 165.86 634.68 165.31 634.68 164.57Z" fill="white"/>
<path d="M690.99 160.06C690.99 160.7 690.48 161.16 689.89 161.3C679.77 163.19 669.65 163.88 659.53 164.2C658.89 164.25 658.24 163.69 658.24 163.05C658.24 162.41 658.75 161.85 659.34 161.85C663.76 161.67 668.22 161.48 672.64 161.11V149.75C672.64 149.01 673.24 148.51 674.02 148.51C674.8 148.51 675.4 149.02 675.4 149.75V160.88C680.19 160.42 684.92 159.82 689.71 158.9C690.35 158.81 691 159.36 691 160.05L690.99 160.06ZM662.56 145.84C661.64 145.84 661.09 145.29 661.09 144.37V126.7C661.09 125.78 661.64 125.23 662.56 125.23H684.32C684.96 125.23 685.52 125.78 685.52 126.43C685.52 127.12 684.97 127.63 684.32 127.63H663.85V143.46H684.78C685.42 143.46 685.98 143.97 685.98 144.66C685.98 145.3 685.43 145.86 684.78 145.86H662.56V145.84ZM696.93 125.14V164.57C696.93 165.31 696.33 165.86 695.55 165.86C694.77 165.86 694.17 165.31 694.17 164.57V125.14C694.17 124.4 694.77 123.85 695.55 123.85C696.33 123.85 696.93 124.4 696.93 125.14Z" fill="white"/>
<path d="M704.7 162.5C704.7 161.95 705.11 161.44 705.62 161.3C718.87 157.9 726.41 147.45 726.32 128.5H706.12C705.48 128.5 704.92 127.99 704.92 127.3C704.92 126.66 705.47 126.1 706.12 126.1H727.37C728.47 126.1 729.07 126.74 729.07 127.85V128.22C729.07 148.83 720.56 160.15 706.25 163.69C705.51 163.87 704.69 163.32 704.69 162.49L704.7 162.5ZM740.12 164.57V125.14C740.12 124.4 740.72 123.85 741.5 123.85C742.28 123.85 742.88 124.4 742.88 125.14V164.57C742.88 165.31 742.28 165.86 741.5 165.86C740.72 165.86 740.12 165.31 740.12 164.57Z" fill="white"/>
<path d="M774.38 164.24C776.08 159.69 777.14 155.18 777.69 150.62H764.12C763.48 150.62 762.92 150.11 762.92 149.42C762.92 148.78 763.47 148.22 764.12 148.22H794.53C795.17 148.22 795.73 148.77 795.73 149.42C795.73 150.11 795.18 150.62 794.53 150.62H780.54C779.94 155.31 778.84 160.05 777.09 164.74C776.86 165.34 776.35 165.84 775.71 165.84C774.84 165.84 774.05 165.1 774.38 164.23V164.24ZM774.93 143.4C769.73 143.4 766.05 139.17 766.05 133.97C766.05 128.77 769.73 124.58 774.93 124.58H783.49C788.69 124.58 792.37 128.77 792.37 133.97C792.37 139.17 788.69 143.4 783.49 143.4H774.93ZM783.26 141.01C786.89 141.01 789.61 137.74 789.61 133.97C789.61 130.2 786.9 126.98 783.26 126.98H775.21C771.53 126.98 768.82 130.2 768.82 133.97C768.82 137.74 771.53 141.01 775.21 141.01H783.26ZM800.28 164.56V125.13C800.28 124.39 800.88 123.84 801.66 123.84C802.44 123.84 803.04 124.39 803.04 125.13V164.56C803.04 165.3 802.44 165.85 801.66 165.85C800.88 165.85 800.28 165.3 800.28 164.56Z" fill="white"/>
<path d="M811.32 133.1C810.68 133.1 810.12 132.59 810.12 131.9C810.12 131.26 810.67 130.7 811.32 130.7H819.19V124.4C819.19 123.66 819.79 123.16 820.57 123.16C821.35 123.16 821.95 123.67 821.95 124.4V130.7H829.77C830.41 130.7 830.97 131.25 830.97 131.9C830.97 132.59 830.42 133.1 829.77 133.1H811.32ZM811.09 146.3C811.09 141.01 815.28 137.51 820.57 137.51C825.86 137.51 830.05 141.01 830.05 146.3V155.46C830.05 160.75 825.86 164.29 820.57 164.29C815.28 164.29 811.09 160.75 811.09 155.46V146.3ZM827.28 155.32V146.44C827.28 142.58 824.38 139.91 820.56 139.91C816.74 139.91 813.84 142.58 813.84 146.44V155.32C813.84 159.19 816.78 161.9 820.56 161.9C824.34 161.9 827.28 159.19 827.28 155.32ZM836.11 164.57V125.14C836.11 124.4 836.71 123.85 837.49 123.85C838.27 123.85 838.87 124.4 838.87 125.14V142.12H846.78V125.14C846.78 124.4 847.38 123.85 848.16 123.85C848.94 123.85 849.54 124.4 849.54 125.14V164.57C849.54 165.31 848.94 165.86 848.16 165.86C847.38 165.86 846.78 165.31 846.78 164.57V144.51H838.87V164.57C838.87 165.31 838.27 165.86 837.49 165.86C836.71 165.86 836.11 165.31 836.11 164.57Z" fill="white"/>
<path d="M37.9502 192.14V231.57C37.9502 232.31 37.3502 232.86 36.5702 232.86C35.7902 232.86 35.1902 232.31 35.1902 231.57V211.7H22.8102V220.62C22.8102 226.97 17.8402 231.29 11.4002 231.29C4.96023 231.29 -0.00976562 226.97 -0.00976562 220.62V201.94C-0.00976562 195.64 5.00023 191.31 11.4002 191.31C17.8002 191.31 22.8102 195.63 22.8102 201.94V209.3H35.1902V192.14C35.1902 191.4 35.7902 190.85 36.5702 190.85C37.3502 190.85 37.9502 191.4 37.9502 192.14ZM20.0502 201.85C20.0502 197.06 16.2802 193.71 11.4002 193.71C6.52023 193.71 2.75023 197.07 2.75023 201.85V220.76C2.75023 225.59 6.52023 228.9 11.4002 228.9C16.2802 228.9 20.0502 225.59 20.0502 220.76V201.85Z" fill="white"/>
<path d="M46.0498 214.45V193.52C46.0498 192.6 46.5998 192.05 47.5198 192.05H56.3098C56.9498 192.05 57.5098 192.6 57.5098 193.25C57.5098 193.94 56.9598 194.45 56.3098 194.45H48.8098V213.31C51.2898 212.99 53.7298 212.53 56.2198 211.93C56.9998 211.7 57.5098 212.3 57.5098 213.03C57.5098 213.63 57.1398 214.09 56.4998 214.27C53.5098 215.01 50.5698 215.51 47.6198 215.83C46.6498 215.88 46.0598 215.42 46.0598 214.45H46.0498ZM50.1398 232.71C49.2198 232.71 48.6698 232.16 48.6698 231.24V221.21C48.6698 220.47 49.2698 219.97 50.0498 219.97C50.8298 219.97 51.4298 220.48 51.4298 221.21V230.32H83.9098C84.5498 230.32 85.1098 230.83 85.1098 231.52C85.1098 232.16 84.5598 232.72 83.9098 232.72H50.1398V232.71ZM59.1598 214.91V193.52C59.1598 192.6 59.7098 192.05 60.6298 192.05H71.7198C72.3598 192.05 72.9198 192.6 72.9198 193.25C72.9198 193.94 72.3698 194.45 71.7198 194.45H61.9198V213.77C65.9198 213.36 69.9198 212.71 73.9298 211.84C74.7098 211.66 75.2598 212.25 75.2598 212.99C75.2598 213.59 74.8898 214.05 74.1998 214.23C69.6898 215.2 65.1798 215.84 60.7198 216.3C59.7498 216.39 59.1598 215.89 59.1598 214.92V214.91ZM81.3298 220.57V204.42H72.3098C71.6698 204.42 71.1098 203.87 71.1098 203.22C71.1098 202.53 71.6598 202.02 72.3098 202.02H81.3298V192.13C81.3298 191.39 81.9298 190.84 82.7098 190.84C83.4898 190.84 84.0898 191.39 84.0898 192.13V220.56C84.0898 221.3 83.4898 221.85 82.7098 221.85C81.9298 221.85 81.3298 221.3 81.3298 220.56V220.57Z" fill="white"/>
<path d="M105.2 231.29C104.56 231.29 104 230.74 104 230.09C104 229.4 104.55 228.89 105.2 228.89H123.56V217.02C123.56 216.28 124.16 215.78 124.94 215.78C125.72 215.78 126.32 216.29 126.32 217.02V228.89H144.68C145.32 228.89 145.88 229.4 145.88 230.09C145.88 230.73 145.33 231.29 144.68 231.29H105.21H105.2ZM108.88 213.07C107.96 213.07 107.41 212.52 107.41 211.6V193.15C107.41 192.41 108.01 191.86 108.79 191.86C109.57 191.86 110.17 192.41 110.17 193.15V210.68H141.87C142.51 210.68 143.07 211.19 143.07 211.88C143.07 212.52 142.52 213.08 141.87 213.08H108.88V213.07Z" fill="white"/>
<path d="M176.92 213.16C169.19 213.9 161.42 214.13 153.64 214.26C152.72 214.26 152.17 213.71 152.17 212.79V202.99C152.17 202.07 152.72 201.52 153.64 201.52H169.1L169.93 194.44H153.23C152.59 194.44 152.03 193.93 152.03 193.24C152.03 192.6 152.58 192.04 153.23 192.04H171.49C172.46 192.04 172.96 192.59 172.82 193.6L171.76 202.43C171.62 203.3 171.07 203.81 170.2 203.81H154.93V211.86C162.29 211.72 169.61 211.49 176.92 210.8C177.56 210.71 178.12 211.21 178.12 211.9C178.12 212.54 177.57 213.1 176.92 213.14V213.16ZM188.33 218.96C189.25 218.96 189.8 219.51 189.8 220.43V231.89C189.8 232.63 189.2 233.13 188.42 233.13C187.64 233.13 187.04 232.62 187.04 231.89V221.35H155.07C154.43 221.35 153.87 220.84 153.87 220.15C153.87 219.51 154.42 218.95 155.07 218.95H188.33V218.96ZM189.8 192.14V215.42C189.8 216.16 189.2 216.66 188.42 216.66C187.64 216.66 187.04 216.15 187.04 215.42V206.86H177.15C176.51 206.86 175.95 206.35 175.95 205.66C175.95 205.02 176.5 204.46 177.15 204.46H187.04V198.99H177.15C176.51 198.99 175.95 198.44 175.95 197.79C175.95 197.1 176.5 196.59 177.15 196.59H187.04V192.13C187.04 191.39 187.64 190.84 188.42 190.84C189.2 190.84 189.8 191.39 189.8 192.13V192.14Z" fill="white"/>
<path d="M197.2 211.46C196.56 211.46 196 210.91 196 210.26C196 209.57 196.55 209.06 197.2 209.06H236.67C237.31 209.06 237.87 209.57 237.87 210.26C237.87 210.9 237.32 211.46 236.67 211.46H197.2ZM206.45 204.38C202.26 204.38 198.95 201.8 198.95 197.99C198.95 194.18 202.26 191.59 206.45 191.59H227.43C231.62 191.59 234.93 194.12 234.93 197.99C234.93 201.86 231.62 204.38 227.43 204.38H206.45ZM200.88 232.72C199.96 232.72 199.41 232.17 199.41 231.25V224.63C199.41 223.71 199.96 223.16 200.88 223.16H231.7V218.51H200.46C199.82 218.51 199.26 218 199.26 217.31C199.26 216.67 199.81 216.11 200.46 216.11H232.99C233.91 216.11 234.46 216.66 234.46 217.58V223.97C234.46 224.89 233.91 225.44 232.99 225.44H202.17V230.32H234.1C234.74 230.32 235.3 230.83 235.3 231.52C235.3 232.16 234.75 232.72 234.1 232.72H200.88ZM227.1 201.99C229.95 201.99 232.16 200.47 232.16 197.94C232.16 195.41 229.95 193.98 227.1 193.98H206.77C203.92 193.98 201.71 195.45 201.71 197.94C201.71 200.43 203.92 201.99 206.77 201.99H227.1Z" fill="white"/>
<path d="M257.46 197.57C256.82 197.57 256.26 197.02 256.26 196.37C256.26 195.68 256.81 195.17 257.46 195.17H268.59V190.94C268.59 190.2 269.19 189.7 269.97 189.7C270.75 189.7 271.35 190.21 271.35 190.94V195.17H282.48C283.12 195.17 283.68 195.68 283.68 196.37C283.68 197.01 283.13 197.57 282.48 197.57H257.45H257.46ZM264.27 212.61C260.5 212.61 257.6 210.22 257.6 206.58C257.6 202.94 260.5 200.51 264.27 200.51H275.68C279.5 200.51 282.35 202.95 282.35 206.58C282.35 210.21 279.5 212.61 275.68 212.61H264.27ZM261 232.71C260.08 232.71 259.53 232.16 259.53 231.24V224.71C259.53 223.79 260.08 223.24 261 223.24H291.09V218.64H260.59C259.95 218.64 259.39 218.13 259.39 217.44C259.39 216.8 259.94 216.24 260.59 216.24H292.38C293.3 216.24 293.85 216.79 293.85 217.71V224.06C293.85 224.98 293.3 225.58 292.38 225.58H262.29V230.32H293.71C294.35 230.32 294.91 230.83 294.91 231.52C294.91 232.16 294.36 232.72 293.71 232.72H261V232.71ZM275.26 210.21C277.97 210.21 279.58 208.6 279.58 206.58C279.58 204.56 277.97 202.9 275.26 202.9H264.68C261.97 202.9 260.36 204.51 260.36 206.58C260.36 208.65 261.97 210.21 264.68 210.21H275.26ZM291.09 212.69V192.13C291.09 191.39 291.69 190.84 292.47 190.84C293.25 190.84 293.85 191.39 293.85 192.13V200.64H299.05C299.69 200.64 300.25 201.19 300.25 201.84C300.25 202.53 299.7 203.04 299.05 203.04H293.85V212.7C293.85 213.44 293.25 213.94 292.47 213.94C291.69 213.94 291.09 213.43 291.09 212.7V212.69Z" fill="white"/>
<path d="M337.591 204.7C334.091 211.28 327.051 214.5 318.311 215.19C317.671 215.24 317.021 214.68 317.021 213.99C317.021 213.35 317.531 212.84 318.121 212.79C329.851 211.87 337.211 206.3 337.211 194.43H318.441C317.801 194.43 317.241 193.92 317.241 193.23C317.241 192.59 317.791 192.03 318.441 192.03H338.501C339.471 192.03 340.021 192.58 340.021 193.55V193.78C340.021 197 339.561 199.85 338.641 202.29H351.891V192.12C351.891 191.38 352.491 190.83 353.271 190.83C354.051 190.83 354.651 191.38 354.651 192.12V217.29C354.651 218.03 354.051 218.58 353.271 218.58C352.491 218.58 351.891 218.03 351.891 217.29V204.68H337.581L337.591 204.7ZM356.771 231.47C356.771 232.16 356.171 232.71 355.531 232.67C345.731 232.39 339.611 228.71 337.681 224.62C335.791 228.71 329.631 232.39 319.831 232.67C319.191 232.72 318.591 232.16 318.591 231.47C318.591 230.83 319.141 230.32 319.741 230.27C330.231 229.99 336.301 225.3 336.301 220.93V217.25C336.301 216.51 336.901 216.01 337.681 216.01C338.461 216.01 339.061 216.52 339.061 217.25V220.93C339.061 225.3 345.181 229.99 355.621 230.27C356.261 230.32 356.771 230.82 356.771 231.47Z" fill="white"/>
<path d="M363.4 205.48V200.79C363.4 194.3 368.83 190.95 375.45 190.95C382.07 190.95 387.5 194.31 387.5 200.79V205.48C387.5 212.01 382.12 215.37 375.45 215.37C368.78 215.37 363.4 212.01 363.4 205.48ZM367.54 232.72C366.62 232.72 366.07 232.17 366.07 231.25V219.98C366.07 219.24 366.67 218.74 367.45 218.74C368.23 218.74 368.83 219.25 368.83 219.98V230.33H401.22C401.86 230.33 402.42 230.84 402.42 231.53C402.42 232.17 401.87 232.73 401.22 232.73H367.54V232.72ZM384.75 205.39V200.93C384.75 196.01 380.79 193.34 375.5 193.34C370.21 193.34 366.16 196.01 366.16 200.93V205.39C366.16 210.31 370.16 212.98 375.5 212.98C380.84 212.98 384.75 210.31 384.75 205.39ZM398.64 219.93V192.14C398.64 191.4 399.24 190.85 400.02 190.85C400.8 190.85 401.4 191.4 401.4 192.14V219.93C401.4 220.67 400.8 221.22 400.02 221.22C399.24 221.22 398.64 220.67 398.64 219.93Z" fill="white"/>
<path d="M407.97 228.48C407.97 227.97 408.25 227.51 408.66 227.28C413.67 224.43 421.22 216.88 421.22 207.27V195.86H410.59C409.95 195.86 409.39 195.35 409.39 194.66C409.39 194.02 409.94 193.46 410.59 193.46H434.6C435.24 193.46 435.8 194.01 435.8 194.66C435.8 195.35 435.25 195.86 434.6 195.86H423.97V207.27C423.97 216.89 431.56 224.43 436.58 227.28C436.99 227.51 437.27 227.97 437.27 228.48C437.27 229.22 436.63 229.81 435.89 229.81C435.66 229.81 435.43 229.76 435.2 229.63C429.91 226.59 423.93 220.06 422.59 213.44C421.26 220.06 415.32 226.6 409.98 229.63C409.75 229.77 409.52 229.81 409.29 229.81C408.55 229.81 407.96 229.21 407.96 228.48H407.97ZM444.22 231.56V192.13C444.22 191.39 444.82 190.84 445.6 190.84C446.38 190.84 446.98 191.39 446.98 192.13V231.56C446.98 232.3 446.38 232.85 445.6 232.85C444.82 232.85 444.22 232.3 444.22 231.56Z" fill="white"/>
<path d="M469.06 197.57C468.42 197.57 467.86 197.02 467.86 196.37C467.86 195.68 468.41 195.17 469.06 195.17H480.19V190.94C480.19 190.2 480.79 189.7 481.57 189.7C482.35 189.7 482.95 190.21 482.95 190.94V195.17H494.08C494.72 195.17 495.28 195.68 495.28 196.37C495.28 197.01 494.73 197.57 494.08 197.57H469.05H469.06ZM476.47 201.02H486.73C490.78 201.02 493.95 204.1 493.95 208.7C493.95 213.3 490.78 216.43 486.73 216.43H476.47C472.42 216.43 469.2 213.3 469.2 208.7C469.2 204.1 472.42 201.02 476.47 201.02ZM472.97 232.72C472.05 232.72 471.5 232.17 471.5 231.25V220.81C471.5 220.07 472.1 219.57 472.88 219.57C473.66 219.57 474.26 220.08 474.26 220.81V230.33H505.31C505.95 230.33 506.51 230.84 506.51 231.53C506.51 232.17 505.96 232.73 505.31 232.73H472.97V232.72ZM485.94 214.04C489.25 214.04 491.18 211.65 491.18 208.7C491.18 205.75 489.25 203.41 485.94 203.41H477.2C473.89 203.41 471.96 205.8 471.96 208.7C471.96 211.6 473.89 214.04 477.2 214.04H485.94ZM502.69 220.8V192.14C502.69 191.4 503.29 190.85 504.07 190.85C504.85 190.85 505.45 191.4 505.45 192.14V203.78H510.65C511.29 203.78 511.85 204.29 511.85 204.98C511.85 205.62 511.3 206.18 510.65 206.18H505.45V220.81C505.45 221.55 504.85 222.1 504.07 222.1C503.29 222.1 502.69 221.55 502.69 220.81V220.8Z" fill="white"/>
<path d="M528.63 229.5C528.63 228.95 529.04 228.44 529.55 228.3C542.25 224.85 549.19 214.45 549.1 195.5H530.05C529.41 195.5 528.85 194.99 528.85 194.3C528.85 193.66 529.4 193.1 530.05 193.1H550.15C551.25 193.1 551.85 193.74 551.85 194.85V195.22C551.85 215.83 543.98 227.15 530.18 230.69C529.4 230.92 528.62 230.32 528.62 229.49L528.63 229.5ZM561.57 231.57V192.14C561.57 191.4 562.17 190.85 562.95 190.85C563.73 190.85 564.33 191.4 564.33 192.14V208.7H570.45C571.09 208.7 571.65 209.21 571.65 209.9C571.65 210.54 571.1 211.1 570.45 211.1H564.33V231.57C564.33 232.31 563.73 232.86 562.95 232.86C562.17 232.86 561.57 232.31 561.57 231.57Z" fill="white"/>
<path d="M573.571 228.48C573.571 227.97 573.851 227.51 574.261 227.28C579.271 224.43 586.821 216.88 586.821 207.27V195.86H576.191C575.551 195.86 574.991 195.35 574.991 194.66C574.991 194.02 575.541 193.46 576.191 193.46H600.201C600.841 193.46 601.401 194.01 601.401 194.66C601.401 195.35 600.851 195.86 600.201 195.86H589.571V207.27C589.571 216.89 597.161 224.43 602.181 227.28C602.591 227.51 602.871 227.97 602.871 228.48C602.871 229.22 602.231 229.81 601.491 229.81C601.261 229.81 601.031 229.76 600.801 229.63C595.511 226.59 589.531 220.06 588.191 213.44C586.861 220.06 580.921 226.6 575.581 229.63C575.351 229.77 575.121 229.81 574.891 229.81C574.151 229.81 573.561 229.21 573.561 228.48H573.571ZM609.821 231.56V192.13C609.821 191.39 610.421 190.84 611.201 190.84C611.981 190.84 612.581 191.39 612.581 192.13V231.56C612.581 232.3 611.981 232.85 611.201 232.85C610.421 232.85 609.821 232.3 609.821 231.56Z" fill="white"/>
<path d="M633.83 213.9C633.83 213.39 634.2 212.98 634.61 212.8C639.67 210.73 645.47 205.81 645.47 199.46V192.74C645.47 192 646.07 191.45 646.85 191.45C647.63 191.45 648.23 192 648.23 192.74V199.46C648.23 205.81 654.07 210.73 659.09 212.8C659.55 212.98 659.87 213.4 659.87 213.9C659.87 214.59 659.36 215.14 658.67 215.14C658.49 215.14 658.3 215.14 658.12 215.05C653.2 213.07 647.91 208.7 646.85 203.78C645.84 208.7 640.46 213.03 635.62 215.05C635.44 215.1 635.25 215.14 635.07 215.14C634.33 215.14 633.83 214.59 633.83 213.9ZM639.3 232.72C638.38 232.72 637.83 232.17 637.83 231.25V220.44C637.83 219.7 638.43 219.2 639.21 219.2C639.99 219.2 640.59 219.71 640.59 220.44V230.33H672.24C672.88 230.33 673.44 230.84 673.44 231.53C673.44 232.17 672.89 232.73 672.24 232.73H639.3V232.72ZM669.66 220.76V203.23H658.71C658.07 203.23 657.51 202.68 657.51 202.03C657.51 201.34 658.06 200.83 658.71 200.83H669.66V192.14C669.66 191.4 670.26 190.85 671.04 190.85C671.82 190.85 672.42 191.4 672.42 192.14V220.76C672.42 221.5 671.82 222.05 671.04 222.05C670.26 222.05 669.66 221.5 669.66 220.76Z" fill="white"/>
<path d="M681.86 194.44C681.22 194.44 680.66 193.93 680.66 193.24C680.66 192.6 681.21 192.04 681.86 192.04H699.2C699.84 192.04 700.4 192.59 700.4 193.24C700.4 193.93 699.85 194.44 699.2 194.44H681.86ZM680.8 213.58V201.3C680.8 200.38 681.35 199.83 682.27 199.83H698.97C699.61 199.83 700.17 200.34 700.17 201.03C700.17 201.67 699.62 202.23 698.97 202.23H683.56V212.53C689.22 212.21 694.88 211.61 700.49 210.55C701.18 210.41 701.78 211.01 701.78 211.7C701.78 212.3 701.27 212.8 700.68 212.94C694.56 214.04 688.44 214.64 682.32 214.96C681.35 215.01 680.8 214.55 680.8 213.58ZM683.33 221.77C682.69 221.77 682.13 221.26 682.13 220.57C682.13 219.93 682.68 219.37 683.33 219.37H717.79C718.71 219.37 719.26 219.92 719.26 220.84V231.88C719.26 232.62 718.66 233.12 717.88 233.12C717.1 233.12 716.5 232.61 716.5 231.88V221.76H683.33V221.77ZM705.69 215.84V192.15C705.69 191.41 706.29 190.86 707.07 190.86C707.85 190.86 708.45 191.41 708.45 192.15V201.72H716.5V192.15C716.5 191.41 717.1 190.86 717.88 190.86C718.66 190.86 719.26 191.41 719.26 192.15V215.84C719.26 216.58 718.66 217.08 717.88 217.08C717.1 217.08 716.5 216.57 716.5 215.84V204.11H708.45V215.84C708.45 216.58 707.85 217.08 707.07 217.08C706.29 217.08 705.69 216.57 705.69 215.84Z" fill="white"/>
<path d="M727.03 200.1C726.39 200.1 725.83 199.59 725.83 198.9C725.83 198.26 726.38 197.7 727.03 197.7H734.9V191.4C734.9 190.66 735.5 190.16 736.28 190.16C737.06 190.16 737.66 190.67 737.66 191.4V197.7H745.48C746.12 197.7 746.68 198.25 746.68 198.9C746.68 199.59 746.13 200.1 745.48 200.1H727.03ZM726.8 213.3C726.8 208.01 730.99 204.51 736.28 204.51C741.57 204.51 745.76 208.01 745.76 213.3V222.46C745.76 227.75 741.57 231.29 736.28 231.29C730.99 231.29 726.8 227.75 726.8 222.46V213.3ZM742.99 222.32V213.44C742.99 209.58 740.09 206.91 736.27 206.91C732.45 206.91 729.55 209.58 729.55 213.44V222.32C729.55 226.19 732.49 228.9 736.27 228.9C740.05 228.9 742.99 226.19 742.99 222.32ZM751.82 231.57V192.14C751.82 191.4 752.42 190.85 753.2 190.85C753.98 190.85 754.58 191.4 754.58 192.14V209.12H762.49V192.14C762.49 191.4 763.09 190.85 763.87 190.85C764.65 190.85 765.25 191.4 765.25 192.14V231.57C765.25 232.31 764.65 232.86 763.87 232.86C763.09 232.86 762.49 232.31 762.49 231.57V211.51H754.58V231.57C754.58 232.31 753.98 232.86 753.2 232.86C752.42 232.86 751.82 232.31 751.82 231.57Z" fill="white"/>
<path d="M790.55 232.03V218.6H772.19C771.55 218.6 770.99 218.05 770.99 217.4C770.99 216.71 771.54 216.2 772.19 216.2H811.66C812.3 216.2 812.86 216.71 812.86 217.4C812.86 218.04 812.31 218.6 811.66 218.6H793.3V232.03C793.3 232.77 792.7 233.32 791.92 233.32C791.14 233.32 790.54 232.77 790.54 232.03H790.55ZM773.02 209.58C773.02 208.94 773.48 208.43 774.08 208.38C782.5 207.55 790.27 201.16 790.41 195.31V194.99H774.68C774.04 194.99 773.48 194.48 773.48 193.79C773.48 193.15 774.03 192.59 774.68 192.59H809.18C809.82 192.59 810.38 193.14 810.38 193.79C810.38 194.48 809.83 194.99 809.18 194.99H793.45V195.31C793.63 201.15 801.36 207.55 809.78 208.38C810.38 208.43 810.84 208.93 810.84 209.58C810.84 210.27 810.24 210.82 809.55 210.78C801.18 210 793.68 204.66 791.93 198.68C790.23 204.66 782.73 210 774.36 210.78C773.67 210.83 773.03 210.27 773.03 209.58H773.02Z" fill="white"/>
<path d="M817 228.53C817 228.12 817.23 227.75 817.51 227.52C821.56 224.02 826.62 216.43 826.62 206.91V193.43C826.62 192.69 827.22 192.14 828 192.14C828.78 192.14 829.38 192.69 829.38 193.43V206.91C829.38 216.48 834.49 224.07 838.49 227.52C838.77 227.75 838.95 228.12 838.95 228.53C838.95 229.27 838.4 229.82 837.66 229.82C837.34 229.82 837.02 229.68 836.79 229.45C833.06 226.23 828.92 220.11 828 213.44C827.08 220.06 822.99 226.18 819.21 229.45C818.98 229.68 818.66 229.82 818.29 229.82C817.6 229.82 817 229.27 817 228.53ZM845.06 231.57V209.53H836.96C836.32 209.53 835.76 209.02 835.76 208.33C835.76 207.69 836.31 207.13 836.96 207.13H845.06V192.13C845.06 191.39 845.66 190.84 846.44 190.84C847.22 190.84 847.82 191.39 847.82 192.13V231.56C847.82 232.3 847.22 232.85 846.44 232.85C845.66 232.85 845.06 232.3 845.06 231.56V231.57ZM854.49 231.57V192.14C854.49 191.4 855.09 190.85 855.87 190.85C856.65 190.85 857.25 191.4 857.25 192.14V231.57C857.25 232.31 856.65 232.86 855.87 232.86C855.09 232.86 854.49 232.31 854.49 231.57Z" fill="white"/>
<path d="M864.2 231.29C863.56 231.29 863 230.74 863 230.09C863 229.4 863.55 228.89 864.2 228.89H874.6V218.4C874.6 217.66 875.2 217.16 875.98 217.16C876.76 217.16 877.36 217.67 877.36 218.4V228.89H891.02V218.4C891.02 217.66 891.62 217.16 892.4 217.16C893.18 217.16 893.78 217.67 893.78 218.4V228.89H903.67C904.31 228.89 904.87 229.4 904.87 230.09C904.87 230.73 904.32 231.29 903.67 231.29H864.2ZM876.94 215.05C870.18 215.05 865.39 210.08 865.39 203.55C865.39 197.02 870.17 192 876.94 192H890.93C897.69 192 902.48 196.97 902.48 203.55C902.48 210.13 897.69 215.05 890.93 215.05H876.94ZM890.7 212.66C895.9 212.66 899.72 208.89 899.72 203.55C899.72 198.21 895.9 194.39 890.7 194.39H877.22C872.02 194.39 868.16 198.16 868.16 203.55C868.16 208.94 872.02 212.66 877.22 212.66H890.7Z" fill="white"/>
<path d="M912.59 231.47C911.76 231.47 911.26 230.92 911.26 230.09V229.22C911.26 228.39 911.77 227.89 912.59 227.89H913.47C914.3 227.89 914.8 228.4 914.8 229.22V230.09C914.8 230.92 914.29 231.47 913.47 231.47H912.59ZM911.58 208.33V191.77C911.58 190.9 912.22 190.34 913.05 190.34C913.88 190.34 914.48 190.89 914.48 191.77V208.33L914.2 219.83C914.2 220.7 913.69 221.21 913.05 221.21C912.41 221.21 911.9 220.7 911.85 219.83L911.57 208.33H911.58Z" fill="white"/>
<path d="M404.81 10.0299C404.81 11.9199 406.25 12.6899 410.55 14.3999C418.36 17.5099 419.06 19.0199 419.06 23.9799V27.4199C419.06 32.5999 414.77 34.8199 409.29 34.8199C403.81 34.8199 399.67 32.5999 399.67 27.4199V25.6099C399.67 24.1699 400.56 23.2399 402.19 23.2399C403.82 23.2399 404.67 24.1599 404.67 25.6099V26.9399C404.67 29.2299 406.67 30.5999 409.37 30.5999C412.07 30.5999 414.07 29.2299 414.07 26.9399V24.9399C414.07 21.2799 413.37 20.6899 408.04 18.6099C400.86 15.7599 399.83 13.9099 399.83 10.2499V7.46995C399.83 2.28995 403.9 0.0699463 409.38 0.0699463C414.86 0.0699463 418.93 2.28995 418.93 7.46995V8.57995C418.93 10.0999 417.97 10.9499 416.45 10.9499C414.93 10.9499 413.93 10.0999 413.93 8.83995V7.91995C413.93 5.62995 412.08 4.28995 409.38 4.28995C406.68 4.28995 404.83 5.50995 404.83 7.79995V10.0199L404.81 10.0299Z" fill="white"/>
<path d="M423.53 0.810059H438.33C440.03 0.810059 440.99 1.55006 440.99 2.96006C440.99 4.37006 440.1 5.11006 438.51 5.11006H433.48V31.6001C433.48 33.3801 432.56 34.3401 430.89 34.3401C429.22 34.3401 428.34 33.3801 428.34 31.6001V5.11006H423.53C421.79 5.11006 420.87 4.37006 420.87 2.96006C420.87 1.55006 421.79 0.810059 423.53 0.810059Z" fill="white"/>
<path d="M446.4 34.0801C444.66 34.0801 443.66 33.1201 443.66 31.3401V3.55006C443.66 1.77006 444.66 0.810059 446.4 0.810059H458.28C459.87 0.810059 460.83 1.55006 460.83 2.96006C460.83 4.37006 459.87 5.11006 458.28 5.11006H448.7V14.9501H458.03C459.62 14.9501 460.47 15.7601 460.47 17.0601C460.47 18.3601 459.62 19.1301 458.03 19.1301H448.7V29.7901H458.65C460.24 29.7901 461.2 30.5301 461.2 31.9401C461.2 33.3501 460.24 34.0901 458.65 34.0901H446.4V34.0801Z" fill="white"/>
<path d="M483.18 15.4701C483.18 20.1701 480.77 22.4601 476.22 22.4601H469.19V31.7101C469.19 33.4101 468.3 34.3401 466.67 34.3401C465.04 34.3401 464.15 33.4101 464.15 31.7101V3.59006C464.15 1.81006 465.19 0.810059 466.96 0.810059H476.21C480.76 0.810059 483.17 3.03006 483.17 7.73006V15.4601L483.18 15.4701ZM469.19 18.2801H474.48C477.15 18.2801 478.25 17.1301 478.25 14.6201V8.66006C478.25 6.14006 477.14 5.00006 474.48 5.00006H469.19V18.2801Z" fill="white"/>
<path d="M497.38 7.62C497.38 2.74 501.34 0 506.33 0C511.32 0 515.29 2.74 515.29 7.62V27.31C515.29 32.19 511.33 34.93 506.33 34.93C501.33 34.93 497.38 32.19 497.38 27.31V7.62ZM502.26 27.31C502.26 29.42 503.96 30.9 506.33 30.9C508.7 30.9 510.4 29.42 510.4 27.31V7.62C510.4 5.47 508.7 3.99 506.33 3.99C503.96 3.99 502.26 5.47 502.26 7.62V27.31Z" fill="white"/>
<path d="M527.65 31.82C527.65 33.2999 526.65 34.45 525.13 34.45C523.61 34.45 522.61 33.2999 522.61 31.82V7.58995H520.06C519.02 7.58995 518.25 6.77995 518.25 5.66995C518.25 4.40995 519.1 3.85995 519.84 3.70995C521.17 3.48995 522.06 2.74995 522.54 2.03995C523.28 0.929951 523.95 0.449951 525.24 0.449951C526.79 0.449951 527.65 1.36995 527.65 2.85995V31.82Z" fill="white"/>
<path d="M49.5208 129.75H47.7908C47.7908 116.96 37.3808 106.55 24.5908 106.55V104.82C37.3808 104.82 47.7908 94.41 47.7908 81.62H49.5208C49.5208 94.41 59.9308 104.82 72.7208 104.82V106.55C59.9308 106.55 49.5208 116.96 49.5208 129.75ZM31.1108 105.68C39.6308 107.99 46.3508 114.71 48.6608 123.23C50.9708 114.71 57.6908 107.99 66.2108 105.68C57.6908 103.37 50.9708 96.65 48.6608 88.13C46.3508 96.65 39.6308 103.37 31.1108 105.68Z" fill="white"/>
<path d="M18.0105 74.75C18.0105 65.92 10.8505 58.76 2.02051 58.76C10.8505 58.76 18.0105 51.6 18.0105 42.77C18.0105 51.6 25.1705 58.76 34.0005 58.76C25.1705 58.76 18.0105 65.92 18.0105 74.75Z" fill="white"/>
<path d="M872.931 121.57H871.411C871.411 110.82 862.661 102.08 851.921 102.08V100.56C862.671 100.56 871.411 91.8101 871.411 81.0701H872.931C872.931 91.8201 881.681 100.56 892.421 100.56V102.08C881.671 102.08 872.931 110.83 872.931 121.57ZM857.521 101.32C864.611 103.28 870.201 108.88 872.171 115.97C874.131 108.88 879.731 103.29 886.821 101.32C879.731 99.3601 874.141 93.7601 872.171 86.6701C870.211 93.7601 864.611 99.3501 857.521 101.32Z" fill="white"/>
</g>
<defs>
<clipPath id="clip0_151_3435">
<rect width="100%" height="100%" fill="white"/>
</clipPath>
</defs>
</svg>
