<svg viewBox="0 0 852 205" fill="none" xmlns="http://www.w3.org/2000/svg">
<path d="M34.4905 161.48C34.4905 160.97 34.7705 160.51 35.1805 160.28C40.1905 157.43 47.7405 149.88 47.7405 140.27V128.86H37.1105C36.4705 128.86 35.9105 128.35 35.9105 127.66C35.9105 127.02 36.4605 126.46 37.1105 126.46H61.1205C61.7605 126.46 62.3205 127.01 62.3205 127.66C62.3205 128.35 61.7705 128.86 61.1205 128.86H50.4905V140.27C50.4905 149.89 58.0805 157.43 63.1005 160.28C63.5105 160.51 63.7905 160.97 63.7905 161.48C63.7905 162.22 63.1505 162.81 62.4105 162.81C62.1805 162.81 61.9505 162.76 61.7205 162.63C56.4305 159.59 50.4505 153.06 49.1105 146.44C47.7805 153.06 41.8405 159.6 36.5005 162.63C36.2705 162.77 36.0405 162.81 35.8105 162.81C35.0705 162.81 34.4805 162.21 34.4805 161.48H34.4905ZM70.7405 164.56V125.13C70.7405 124.39 71.3405 123.84 72.1205 123.84C72.9005 123.84 73.5005 124.39 73.5005 125.13V164.56C73.5005 165.3 72.9005 165.85 72.1205 165.85C71.3405 165.85 70.7405 165.3 70.7405 164.56Z" fill="white"/>
<path d="M99.6301 165.03V149.25H81.3201C80.6801 149.25 80.1201 148.7 80.1201 148.05C80.1201 147.36 80.6701 146.85 81.3201 146.85H120.79C121.43 146.85 121.99 147.36 121.99 148.05C121.99 148.69 121.44 149.25 120.79 149.25H102.39V165.03C102.39 165.77 101.79 166.32 101.01 166.32C100.23 166.32 99.6301 165.77 99.6301 165.03ZM113.48 142.07C114.63 137.24 115.37 132.41 115.78 127.62H84.3601C83.7201 127.62 83.1601 127.11 83.1601 126.42C83.1601 125.78 83.7101 125.22 84.3601 125.22H117.3C118.27 125.22 118.73 125.77 118.68 126.78C118.22 131.93 117.44 137.18 116.2 142.33C116.02 143.02 115.46 143.43 114.73 143.43C113.95 143.43 113.26 142.83 113.49 142.05L113.48 142.07Z" fill="white"/>
<path d="M129.391 145.47C128.471 145.47 127.921 144.92 127.921 144V125.97C127.921 125.23 128.521 124.68 129.301 124.68C130.081 124.68 130.681 125.23 130.681 125.97V132.18H147.561V125.97C147.561 125.23 148.161 124.68 148.941 124.68C149.721 124.68 150.321 125.23 150.321 125.97V144C150.321 144.92 149.771 145.47 148.851 145.47H129.391ZM137.991 165.94C132.981 165.94 129.021 162.77 129.021 158.07C129.021 153.37 132.981 150.25 137.991 150.25H156.531C161.541 150.25 165.501 153.38 165.501 158.07C165.501 162.76 161.541 165.94 156.531 165.94H137.991ZM130.681 143.07H147.561V134.56H130.681V143.07ZM156.401 163.54C159.941 163.54 162.751 161.38 162.751 158.07C162.751 154.76 159.941 152.64 156.401 152.64H138.141C134.601 152.64 131.791 154.76 131.791 158.07C131.791 161.38 134.601 163.54 138.141 163.54H156.401ZM161.411 147.44V125.13C161.411 124.39 162.011 123.84 162.791 123.84C163.571 123.84 164.171 124.39 164.171 125.13V133.59H169.371C170.011 133.59 170.571 134.14 170.571 134.79C170.571 135.48 170.021 135.99 169.371 135.99H164.171V147.45C164.171 148.19 163.571 148.74 162.791 148.74C162.011 148.74 161.411 148.19 161.411 147.45V147.44Z" fill="white"/>
<path d="M183.21 164.24C184.91 159.69 185.97 155.18 186.52 150.62H172.95C172.31 150.62 171.75 150.11 171.75 149.42C171.75 148.78 172.3 148.22 172.95 148.22H203.36C204 148.22 204.56 148.77 204.56 149.42C204.56 150.11 204.01 150.62 203.36 150.62H189.37C188.77 155.31 187.67 160.05 185.92 164.74C185.69 165.34 185.18 165.84 184.54 165.84C183.67 165.84 182.88 165.1 183.21 164.23V164.24ZM183.76 143.4C178.56 143.4 174.88 139.17 174.88 133.97C174.88 128.77 178.56 124.58 183.76 124.58H192.32C197.52 124.58 201.2 128.77 201.2 133.97C201.2 139.17 197.52 143.4 192.32 143.4H183.76ZM192.09 141.01C195.72 141.01 198.44 137.74 198.44 133.97C198.44 130.2 195.73 126.98 192.09 126.98H184.04C180.36 126.98 177.64 130.2 177.64 133.97C177.64 137.74 180.35 141.01 184.04 141.01H192.09ZM209.11 164.56V125.13C209.11 124.39 209.71 123.84 210.49 123.84C211.27 123.84 211.87 124.39 211.87 125.13V164.56C211.87 165.3 211.27 165.85 210.49 165.85C209.71 165.85 209.11 165.3 209.11 164.56Z" fill="white"/>
<path d="M220.281 162.13V127.58C220.281 126.66 220.831 126.11 221.751 126.11H237.021C237.661 126.11 238.221 126.66 238.221 127.31C238.221 128 237.671 128.51 237.021 128.51H223.031V161.13C227.811 161.04 233.061 160.39 238.211 159.01C238.901 158.83 239.59 159.42 239.59 160.16C239.59 160.71 239.221 161.17 238.721 161.31C232.971 162.78 227.4 163.43 221.79 163.56C220.82 163.56 220.271 163.05 220.271 162.13H220.281ZM255.611 164.57V144.51H246.271V164.8C246.271 165.54 245.671 166.09 244.891 166.09C244.111 166.09 243.51 165.54 243.51 164.8V125.14C243.51 124.4 244.111 123.85 244.891 123.85C245.671 123.85 246.271 124.4 246.271 125.14V142.12H255.611V125.14C255.611 124.4 256.21 123.85 256.99 123.85C257.77 123.85 258.37 124.4 258.37 125.14V164.57C258.37 165.31 257.77 165.86 256.99 165.86C256.21 165.86 255.611 165.31 255.611 164.57Z" fill="white"/>
<path d="M278.2 144.42H264.95C264.31 144.42 263.75 143.87 263.75 143.22C263.75 142.53 264.3 142.02 264.95 142.02H295.82C296.46 142.02 297.02 142.53 297.02 143.22C297.02 143.86 296.47 144.42 295.82 144.42H280.96C280.45 147.55 279.86 150.68 278.84 153.8C278.66 154.4 278.2 154.95 277.51 154.95C276.64 154.95 275.81 154.21 276.08 153.43C277.05 150.39 277.69 147.4 278.2 144.41V144.42ZM274.15 138.16C270.1 138.16 266.88 135.26 266.88 131.35C266.88 127.44 270.1 124.59 274.15 124.59H285.7C289.75 124.59 292.97 127.49 292.97 131.35C292.97 135.21 289.75 138.16 285.7 138.16H274.15ZM303.69 163.32C304.33 163.32 304.89 163.83 304.89 164.52C304.89 165.16 304.34 165.72 303.69 165.72H270.43C269.51 165.72 268.96 165.17 268.96 164.25V154.13C268.96 153.39 269.56 152.89 270.34 152.89C271.12 152.89 271.72 153.4 271.72 154.13V163.33H303.69V163.32ZM274.57 126.98C271.9 126.98 269.65 128.87 269.65 131.4C269.65 133.93 271.9 135.77 274.57 135.77H285.34C288.01 135.77 290.22 133.88 290.22 131.4C290.22 128.92 288.01 126.98 285.34 126.98H274.57ZM301.11 149.61V125.14C301.11 124.4 301.71 123.85 302.49 123.85C303.27 123.85 303.87 124.4 303.87 125.14V156.52C303.87 157.26 303.27 157.76 302.49 157.76C301.71 157.76 301.11 157.25 301.11 156.52V152.01H286.89C286.25 152.01 285.69 151.46 285.69 150.81C285.69 150.12 286.24 149.61 286.89 149.61H301.11Z" fill="white"/>
<path d="M310.86 161.8C310.86 161.16 311.41 160.65 312.01 160.6C322.13 160.23 332.11 159.4 342.24 157.7C342.93 157.56 343.62 158.11 343.62 158.85C343.62 159.45 343.16 159.91 342.65 160C332.44 161.79 322.32 162.62 312.1 162.99C311.46 163.04 310.86 162.48 310.86 161.79V161.8ZM313.53 139.44V134.93C313.53 128.12 319.19 124.49 326.04 124.49C332.89 124.49 338.55 128.12 338.55 134.93V139.44C338.55 146.25 332.89 149.88 326.04 149.88C319.19 149.88 313.53 146.25 313.53 139.44ZM335.8 139.44V134.93C335.8 129.87 331.61 126.88 326.05 126.88C320.49 126.88 316.3 129.87 316.3 134.93V139.44C316.3 144.45 320.53 147.49 326.05 147.49C331.57 147.49 335.8 144.45 335.8 139.44ZM346.8 164.56V125.13C346.8 124.39 347.4 123.84 348.18 123.84C348.96 123.84 349.56 124.39 349.56 125.13V164.56C349.56 165.3 348.96 165.85 348.18 165.85C347.4 165.85 346.8 165.3 346.8 164.56Z" fill="white"/>
<path d="M400.881 144.14C390.941 145.34 381.101 145.89 371.161 146.21C370.521 146.21 369.921 145.66 369.921 145.01C369.921 144.36 370.471 143.81 371.071 143.81C375.531 143.67 379.951 143.49 384.411 143.21V138.84H380.681C376.911 138.84 374.151 136.72 374.151 133.41C374.151 131.34 375.301 129.82 376.311 129.27H373.001C372.361 129.27 371.801 128.72 371.801 128.07C371.801 127.38 372.351 126.87 373.001 126.87H384.271V123.93C384.271 123.19 384.871 122.69 385.651 122.69C386.431 122.69 387.031 123.2 387.031 123.93V126.87H398.301C398.941 126.87 399.501 127.38 399.501 128.07C399.501 128.71 398.951 129.27 398.301 129.27H394.991C395.911 129.82 397.201 131.34 397.201 133.41C397.201 136.72 394.261 138.84 390.481 138.84H387.171V143.03C391.721 142.71 396.231 142.29 400.791 141.74C401.431 141.65 402.031 142.2 402.031 142.89C402.031 143.53 401.481 144.04 400.881 144.13V144.14ZM407.831 163.32C408.471 163.32 409.031 163.83 409.031 164.52C409.031 165.16 408.481 165.72 407.831 165.72H375.861C374.941 165.72 374.391 165.17 374.391 164.25V157.99C374.391 157.07 374.941 156.52 375.861 156.52H405.211V152.24H375.441C374.801 152.24 374.241 151.73 374.241 151.04C374.241 150.4 374.791 149.84 375.441 149.84H406.491C407.411 149.84 407.961 150.39 407.961 151.31V157.34C407.961 158.26 407.411 158.81 406.491 158.81H377.141V163.32H407.831ZM381.241 136.45H390.071C392.741 136.45 394.441 135.21 394.441 132.95C394.441 131.11 392.831 129.27 390.251 129.27H381.091C378.511 129.27 376.951 131.11 376.951 132.95C376.951 135.2 378.651 136.45 381.231 136.45H381.241ZM413.171 134.06C413.811 134.06 414.371 134.61 414.371 135.26C414.371 135.95 413.821 136.46 413.171 136.46H407.971V146.72C407.971 147.46 407.371 147.96 406.591 147.96C405.811 147.96 405.211 147.45 405.211 146.72V125.14C405.211 124.4 405.811 123.85 406.591 123.85C407.371 123.85 407.971 124.4 407.971 125.14V134.06H413.171Z" fill="white"/>
<path d="M456.591 144.37C457.231 144.37 457.791 144.88 457.791 145.57C457.791 146.21 457.241 146.77 456.591 146.77H417.121C416.481 146.77 415.921 146.22 415.921 145.57C415.921 144.88 416.471 144.37 417.121 144.37H435.481V138.07H420.811C419.891 138.07 419.341 137.52 419.341 136.6V126.25C419.341 125.33 419.891 124.78 420.811 124.78H453.341C453.981 124.78 454.541 125.33 454.541 125.98C454.541 126.67 453.991 127.18 453.341 127.18H422.101V135.69H453.571C454.211 135.69 454.771 136.24 454.771 136.89C454.771 137.58 454.221 138.09 453.571 138.09H438.251V144.39H456.611L456.591 144.37ZM447.661 151.59C452.491 151.59 455.071 154.99 455.071 158.67C455.071 162.35 452.491 165.75 447.661 165.75H426.041C421.211 165.75 418.631 162.35 418.631 158.67C418.631 154.99 421.211 151.59 426.041 151.59H447.661ZM447.291 163.37C450.231 163.37 452.301 161.39 452.301 158.63C452.301 155.87 450.231 153.98 447.291 153.98H426.361C423.461 153.98 421.391 155.91 421.391 158.63C421.391 161.35 423.461 163.37 426.361 163.37H447.291Z" fill="white"/>
<path d="M502.591 146.53C503.231 146.53 503.791 147.08 503.791 147.73C503.791 148.42 503.241 148.93 502.591 148.93H463.121C462.481 148.93 461.921 148.42 461.921 147.73C461.921 147.09 462.471 146.53 463.121 146.53H481.481V139.95H466.811C465.891 139.95 465.341 139.4 465.341 138.48V125.28C465.341 124.54 465.941 123.99 466.721 123.99C467.501 123.99 468.101 124.54 468.101 125.28V129.19H497.641V125.28C497.641 124.54 498.241 123.99 499.021 123.99C499.801 123.99 500.401 124.54 500.401 125.28V138.48C500.401 139.4 499.851 139.95 498.931 139.95H484.251V146.53H502.611H502.591ZM498.911 153.89C499.831 153.89 500.381 154.44 500.381 155.36V164.88C500.381 165.62 499.781 166.12 499.001 166.12C498.221 166.12 497.621 165.61 497.621 164.88V156.28H466.151C465.511 156.28 464.951 155.73 464.951 155.08C464.951 154.39 465.501 153.88 466.151 153.88H498.911V153.89ZM468.091 131.58V137.56H497.631V131.58H468.091Z" fill="white"/>
<path d="M509.121 144.46C508.481 144.46 507.921 143.91 507.921 143.26C507.921 142.57 508.471 142.06 509.121 142.06H548.591C549.231 142.06 549.791 142.57 549.791 143.26C549.791 143.9 549.241 144.46 548.591 144.46H509.121ZM518.371 137.38C514.181 137.38 510.871 134.8 510.871 130.99C510.871 127.18 514.181 124.59 518.371 124.59H539.351C543.541 124.59 546.851 127.12 546.851 130.99C546.851 134.86 543.541 137.38 539.351 137.38H518.371ZM512.801 165.72C511.881 165.72 511.331 165.17 511.331 164.25V157.63C511.331 156.71 511.881 156.16 512.801 156.16H543.621V151.51H512.381C511.741 151.51 511.181 151 511.181 150.31C511.181 149.67 511.731 149.11 512.381 149.11H544.911C545.831 149.11 546.381 149.66 546.381 150.58V156.97C546.381 157.89 545.831 158.44 544.911 158.44H514.091V163.32H546.021C546.661 163.32 547.221 163.83 547.221 164.52C547.221 165.16 546.671 165.72 546.021 165.72H512.811H512.801ZM539.021 134.99C541.871 134.99 544.081 133.47 544.081 130.94C544.081 128.41 541.871 126.98 539.021 126.98H518.691C515.841 126.98 513.631 128.45 513.631 130.94C513.631 133.43 515.841 134.99 518.691 134.99H539.021Z" fill="white"/>
<path d="M568.921 143.13C568.281 143.13 567.721 142.62 567.721 141.93C567.721 141.29 568.271 140.73 568.921 140.73H585.211V133.83C585.211 133.09 585.811 132.59 586.591 132.59C587.371 132.59 587.971 133.1 587.971 133.83V140.73H608.401C609.041 140.73 609.601 141.28 609.601 141.93C609.601 142.62 609.051 143.13 608.401 143.13H568.931H568.921ZM572.601 165.72C571.681 165.72 571.131 165.17 571.131 164.25V157.26C571.131 156.34 571.681 155.79 572.601 155.79H603.421V150.78H572.181C571.541 150.78 570.981 150.23 570.981 149.58C570.981 148.89 571.531 148.38 572.181 148.38H604.711C605.631 148.38 606.181 148.93 606.181 149.85V156.61C606.181 157.53 605.631 158.08 604.711 158.08H573.891V163.32H605.821C606.461 163.32 607.021 163.83 607.021 164.52C607.021 165.16 606.471 165.72 605.821 165.72H572.611H572.601ZM572.321 127.17C571.681 127.17 571.121 126.66 571.121 125.97C571.121 125.33 571.671 124.77 572.321 124.77H604.891C605.861 124.77 606.361 125.32 606.271 126.29C605.901 129.46 605.391 132.69 604.611 135.91C604.471 136.55 603.871 137.15 603.091 137.15C602.221 137.15 601.571 136.46 601.801 135.68C602.581 132.78 603.091 130.02 603.461 127.17H572.311H572.321Z" fill="white"/>
<path d="M615.52 162.08V144C615.52 143.08 616.07 142.53 616.99 142.53H635.16V128.5H616.57C615.93 128.5 615.37 127.99 615.37 127.3C615.37 126.66 615.92 126.1 616.57 126.1H636.44C637.36 126.1 637.91 126.65 637.91 127.57V143.44C637.91 144.36 637.36 144.91 636.44 144.91H618.27V160.92C625.68 160.55 632.99 159.68 640.4 157.98C641.18 157.8 641.69 158.44 641.69 159.22C641.69 159.86 641.32 160.32 640.63 160.46C632.76 162.21 624.9 163.08 617.03 163.45C616.06 163.5 615.51 163.04 615.51 162.07L615.52 162.08ZM648.64 164.56V125.13C648.64 124.39 649.24 123.84 650.02 123.84C650.8 123.84 651.4 124.39 651.4 125.13V142.06H656.97C657.61 142.06 658.17 142.57 658.17 143.26C658.17 143.9 657.62 144.46 656.97 144.46H651.4V164.56C651.4 165.3 650.8 165.85 650.02 165.85C649.24 165.85 648.64 165.3 648.64 164.56Z" fill="white"/>
<path d="M679.271 165.03V151.6H660.911C660.271 151.6 659.711 151.05 659.711 150.4C659.711 149.71 660.261 149.2 660.911 149.2H700.381C701.021 149.2 701.581 149.71 701.581 150.4C701.581 151.04 701.031 151.6 700.381 151.6H682.021V165.03C682.021 165.77 681.421 166.32 680.641 166.32C679.861 166.32 679.261 165.77 679.261 165.03H679.271ZM661.741 142.58C661.741 141.94 662.201 141.43 662.801 141.38C671.221 140.55 678.991 134.16 679.131 128.31V127.99H663.401C662.761 127.99 662.201 127.48 662.201 126.79C662.201 126.15 662.751 125.59 663.401 125.59H697.901C698.541 125.59 699.101 126.14 699.101 126.79C699.101 127.48 698.551 127.99 697.901 127.99H682.171V128.31C682.351 134.15 690.081 140.55 698.501 141.38C699.101 141.43 699.561 141.93 699.561 142.58C699.561 143.27 698.961 143.82 698.271 143.78C689.901 143 682.401 137.66 680.651 131.68C678.951 137.66 671.451 143 663.081 143.78C662.391 143.83 661.751 143.27 661.751 142.58H661.741Z" fill="white"/>
<path d="M705.721 161.53C705.721 161.12 705.951 160.75 706.231 160.52C710.281 157.02 715.341 149.43 715.341 139.91V126.43C715.341 125.69 715.941 125.14 716.721 125.14C717.501 125.14 718.101 125.69 718.101 126.43V139.91C718.101 149.48 723.211 157.07 727.211 160.52C727.491 160.75 727.671 161.12 727.671 161.53C727.671 162.27 727.121 162.82 726.381 162.82C726.061 162.82 725.741 162.68 725.511 162.45C721.781 159.23 717.641 153.11 716.721 146.44C715.801 153.06 711.711 159.18 707.931 162.45C707.701 162.68 707.381 162.82 707.011 162.82C706.321 162.82 705.721 162.27 705.721 161.53ZM733.781 164.57V142.53H725.681C725.041 142.53 724.481 142.02 724.481 141.33C724.481 140.69 725.031 140.13 725.681 140.13H733.781V125.13C733.781 124.39 734.381 123.84 735.161 123.84C735.941 123.84 736.541 124.39 736.541 125.13V164.56C736.541 165.3 735.941 165.85 735.161 165.85C734.381 165.85 733.781 165.3 733.781 164.56V164.57ZM743.211 164.57V125.14C743.211 124.4 743.811 123.85 744.591 123.85C745.371 123.85 745.971 124.4 745.971 125.14V164.57C745.971 165.31 745.371 165.86 744.591 165.86C743.811 165.86 743.211 165.31 743.211 164.57Z" fill="white"/>
<path d="M752.921 164.29C752.281 164.29 751.721 163.74 751.721 163.09C751.721 162.4 752.271 161.89 752.921 161.89H763.321V151.4C763.321 150.66 763.921 150.16 764.701 150.16C765.481 150.16 766.081 150.67 766.081 151.4V161.89H779.741V151.4C779.741 150.66 780.341 150.16 781.121 150.16C781.901 150.16 782.501 150.67 782.501 151.4V161.89H792.391C793.031 161.89 793.591 162.4 793.591 163.09C793.591 163.73 793.041 164.29 792.391 164.29H752.921ZM765.661 148.05C758.901 148.05 754.111 143.08 754.111 136.55C754.111 130.02 758.891 125 765.661 125H779.651C786.411 125 791.201 129.97 791.201 136.55C791.201 143.13 786.411 148.05 779.651 148.05H765.661ZM779.421 145.66C784.621 145.66 788.441 141.89 788.441 136.55C788.441 131.21 784.621 127.39 779.421 127.39H765.941C760.741 127.39 756.881 131.16 756.881 136.55C756.881 141.94 760.741 145.66 765.941 145.66H779.421Z" fill="white"/>
<path d="M801.31 164.47C800.48 164.47 799.98 163.92 799.98 163.09V162.22C799.98 161.39 800.49 160.89 801.31 160.89H802.19C803.02 160.89 803.521 161.4 803.521 162.22V163.09C803.521 163.92 803.01 164.47 802.19 164.47H801.31ZM800.3 141.33V124.77C800.3 123.9 800.941 123.34 801.771 123.34C802.601 123.34 803.201 123.89 803.201 124.77V141.33L802.92 152.83C802.92 153.7 802.411 154.21 801.771 154.21C801.131 154.21 800.62 153.7 800.57 152.83L800.29 141.33H800.3Z" fill="white"/>
<path d="M356.64 10.03C356.64 11.92 358.08 12.69 362.38 14.4C370.19 17.51 370.89 19.02 370.89 23.98V27.42C370.89 32.6 366.6 34.82 361.12 34.82C355.64 34.82 351.5 32.6 351.5 27.42V25.61C351.5 24.17 352.39 23.24 354.02 23.24C355.65 23.24 356.5 24.16 356.5 25.61V26.94C356.5 29.23 358.5 30.6 361.2 30.6C363.9 30.6 365.9 29.23 365.9 26.94V24.94C365.9 21.28 365.2 20.69 359.87 18.61C352.69 15.76 351.66 13.91 351.66 10.25V7.47001C351.66 2.29001 355.73 0.0700073 361.21 0.0700073C366.69 0.0700073 370.76 2.29001 370.76 7.47001V8.58001C370.76 10.1 369.8 10.95 368.28 10.95C366.69 10.95 365.76 10.1 365.76 8.84001V7.92001C365.76 5.63001 363.91 4.29001 361.21 4.29001C358.51 4.29001 356.66 5.51001 356.66 7.80001V10.02L356.64 10.03Z" fill="white"/>
<path d="M375.36 0.809998H390.16C391.86 0.809998 392.82 1.55 392.82 2.96C392.82 4.37 391.93 5.11 390.34 5.11H385.31V31.6C385.31 33.38 384.39 34.34 382.72 34.34C381.05 34.34 380.17 33.38 380.17 31.6V5.11H375.36C373.62 5.11 372.7 4.37 372.7 2.96C372.7 1.55 373.63 0.809998 375.36 0.809998Z" fill="white"/>
<path d="M398.23 34.08C396.49 34.08 395.49 33.12 395.49 31.34V3.55C395.49 1.77 396.49 0.809998 398.23 0.809998H410.11C411.7 0.809998 412.66 1.55 412.66 2.96C412.66 4.37 411.7 5.11 410.11 5.11H400.53V14.95H409.85C411.44 14.95 412.29 15.76 412.29 17.06C412.29 18.36 411.44 19.13 409.85 19.13H400.53V29.79H410.48C412.07 29.79 413.03 30.53 413.03 31.94C413.03 33.35 412.07 34.09 410.48 34.09H398.23V34.08Z" fill="white"/>
<path d="M435.01 15.47C435.01 20.17 432.6 22.46 428.05 22.46H421.02V31.71C421.02 33.41 420.13 34.34 418.5 34.34C416.87 34.34 415.98 33.41 415.98 31.71V3.59C415.98 1.81 417.02 0.809998 418.79 0.809998H428.04C432.59 0.809998 435 3.03 435 7.73V15.46L435.01 15.47ZM421.02 18.28H426.31C428.97 18.28 430.08 17.13 430.08 14.62V8.66C430.08 6.14 428.97 5 426.31 5H421.02V18.28Z" fill="white"/>
<path d="M449.21 7.62C449.21 2.74 453.17 0 458.16 0C463.15 0 467.12 2.74 467.12 7.62V27.31C467.12 32.19 463.16 34.93 458.16 34.93C453.16 34.93 449.21 32.19 449.21 27.31V7.62ZM454.09 27.31C454.09 29.42 455.79 30.9 458.16 30.9C460.53 30.9 462.23 29.42 462.23 27.31V7.62C462.23 5.47 460.53 3.99 458.16 3.99C455.79 3.99 454.09 5.47 454.09 7.62V27.31Z" fill="white"/>
<path d="M483.36 7.61999C483.36 5.46999 481.99 3.98999 479.55 3.98999C476.96 3.98999 475.74 5.39999 475.74 7.38999V8.05999C475.74 9.35999 474.81 10.35 473.26 10.35C471.71 10.35 470.82 9.34999 470.82 8.05999V7.42999C470.82 2.72999 474.19 -0.0100098 479.55 -0.0100098C484.91 -0.0100098 488.39 2.72999 488.39 7.60999V9.30999C488.39 13.56 486.35 15.67 481.8 20.11C477.4 24.48 475.69 25.81 475.69 28.14V30.06H486.46C487.9 30.06 488.83 30.76 488.83 32.06C488.83 33.36 487.91 34.06 486.46 34.06H473.29C471.55 34.06 470.59 33.1 470.59 31.32V28.21C470.59 25.21 471.66 23.07 477.66 17.59C482.14 13.56 483.36 11.97 483.36 9.29999V7.59999V7.61999Z" fill="white"/>
<path d="M15.99 119.49C15.99 110.66 8.83 103.5 0 103.5C8.83 103.5 15.99 96.34 15.99 87.51C15.99 96.34 23.15 103.5 31.98 103.5C23.15 103.5 15.99 110.66 15.99 119.49Z" fill="white"/>
<path d="M832.34 204.57H830.82C830.82 193.82 822.07 185.08 811.33 185.08V183.56C822.08 183.56 830.82 174.81 830.82 164.07H832.34C832.34 174.82 841.09 183.56 851.83 183.56V185.08C841.08 185.08 832.34 193.83 832.34 204.57ZM816.93 184.32C824.02 186.28 829.61 191.88 831.58 198.97C833.54 191.88 839.14 186.29 846.23 184.32C839.14 182.36 833.55 176.76 831.58 169.67C829.62 176.76 824.02 182.35 816.93 184.32Z" fill="white"/>
</svg>
