<svg width="952" height="1092" viewBox="0 0 952 1092" fill="none" xmlns="http://www.w3.org/2000/svg">
<g clip-path="url(#clip0_188_3435)">
<path d="M907.33 3.92H44.5099C22.0927 3.92 3.91992 22.0928 3.91992 44.51V1047.33C3.91992 1069.75 22.0927 1087.92 44.5099 1087.92H907.33C929.747 1087.92 947.92 1069.75 947.92 1047.33V44.51C947.92 22.0928 929.747 3.92 907.33 3.92Z" fill="white"/>
<path d="M907.33 1091.84H44.51C32.7093 1091.83 21.3956 1087.13 13.0513 1078.79C4.70689 1070.44 0.013234 1059.13 0 1047.33V44.51C0.013234 32.7093 4.70689 21.3957 13.0513 13.0513C21.3956 4.70691 32.7093 0.0132492 44.51 1.52588e-05H907.33C919.131 0.0132492 930.444 4.70691 938.789 13.0513C947.133 21.3957 951.827 32.7093 951.84 44.51V1047.33C951.827 1059.13 947.133 1070.44 938.789 1078.79C930.444 1087.13 919.131 1091.83 907.33 1091.84ZM44.51 7.83998C34.7878 7.85057 25.4667 11.7174 18.592 18.5921C11.7174 25.4667 7.85043 34.7878 7.83984 44.51V1047.33C7.85043 1057.05 11.7174 1066.37 18.592 1073.25C25.4667 1080.12 34.7878 1083.99 44.51 1084H907.33C917.052 1083.99 926.373 1080.12 933.248 1073.25C940.122 1066.37 943.989 1057.05 944 1047.33V44.51C943.989 34.7878 940.122 25.4667 933.248 18.5921C926.373 11.7174 917.052 7.85057 907.33 7.83998H44.51Z" fill="white"/>
<path d="M102.18 963.46C101.48 963.46 101.11 963.02 101.18 962.46C101.25 961.9 101.63 961.57 102.37 961.57H107.47L109.88 952.39C109.935 952.146 110.08 951.932 110.285 951.789C110.491 951.647 110.742 951.586 110.99 951.62C111.13 951.61 111.27 951.637 111.397 951.697C111.524 951.757 111.633 951.849 111.714 951.963C111.795 952.077 111.846 952.211 111.861 952.35C111.876 952.49 111.855 952.631 111.8 952.76L109.55 961.57H117.17L119.54 952.39C119.595 952.154 119.733 951.945 119.93 951.804C120.127 951.662 120.368 951.597 120.61 951.62C121.24 951.62 121.68 951.99 121.5 952.76L119.24 961.57H124.24C124.377 961.55 124.516 961.566 124.645 961.617C124.774 961.668 124.887 961.752 124.973 961.86C125.059 961.969 125.115 962.098 125.136 962.234C125.156 962.371 125.14 962.511 125.09 962.64C125.039 962.865 124.912 963.067 124.729 963.209C124.547 963.351 124.321 963.426 124.09 963.42H118.72L116.02 973.85H121.13C121.271 973.834 121.414 973.853 121.546 973.907C121.677 973.962 121.793 974.048 121.882 974.159C121.971 974.27 122.03 974.402 122.054 974.542C122.078 974.682 122.067 974.826 122.02 974.96C121.969 975.186 121.842 975.386 121.659 975.529C121.477 975.671 121.251 975.746 121.02 975.74H115.58L113.1 985.36C113.041 985.578 112.91 985.77 112.729 985.904C112.547 986.039 112.325 986.108 112.1 986.1C111.4 986.1 110.99 985.77 111.18 984.99L113.47 975.74H105.88L103.37 985.36C103.311 985.578 103.18 985.77 102.999 985.904C102.817 986.039 102.595 986.108 102.37 986.1C101.7 986.1 101.25 985.77 101.44 984.99L103.77 975.74H99.0699C98.3699 975.74 97.9999 975.3 98.0699 974.74C98.1399 974.18 98.4799 973.81 99.2599 973.81H104.26L106.99 963.38L102.18 963.46ZM109.07 963.46L106.37 973.89H113.96L116.66 963.46H109.07Z" fill="#182E6A"/>
<path d="M128.23 982.41C128.224 982.208 128.272 982.008 128.371 981.832C128.47 981.656 128.615 981.51 128.79 981.41C132.79 979.12 138.89 973.05 138.89 965.32V956.14H130.34C130.075 956.14 129.82 956.035 129.633 955.847C129.445 955.66 129.34 955.405 129.34 955.14C129.34 954.875 129.445 954.62 129.633 954.433C129.82 954.245 130.075 954.14 130.34 954.14H149.66C149.925 954.14 150.18 954.245 150.367 954.433C150.555 954.62 150.66 954.875 150.66 955.14C150.66 955.405 150.555 955.66 150.367 955.847C150.18 956.035 149.925 956.14 149.66 956.14H141.11V965.32C141.11 973.05 147.21 979.12 151.25 981.41C151.423 981.512 151.565 981.659 151.662 981.835C151.759 982.011 151.807 982.209 151.8 982.41C151.79 982.697 151.668 982.97 151.461 983.169C151.254 983.369 150.978 983.48 150.69 983.48C150.496 983.484 150.305 983.432 150.14 983.33C145.88 980.89 141.07 975.63 140 970.33C138.93 975.65 134.15 980.91 129.86 983.33C129.697 983.427 129.511 983.479 129.321 983.481C129.131 983.482 128.944 983.434 128.779 983.341C128.614 983.248 128.476 983.113 128.38 982.949C128.283 982.786 128.232 982.6 128.23 982.41ZM157.39 984.88V953.17C157.39 952.876 157.507 952.593 157.715 952.385C157.923 952.177 158.206 952.06 158.5 952.06C158.794 952.06 159.077 952.177 159.285 952.385C159.493 952.593 159.61 952.876 159.61 953.17V984.92C159.61 985.214 159.493 985.497 159.285 985.705C159.077 985.913 158.794 986.03 158.5 986.03C158.206 986.03 157.923 985.913 157.715 985.705C157.507 985.497 157.39 985.214 157.39 984.92V984.88Z" fill="#182E6A"/>
<path d="M180.63 985.25V972.56H165.9C165.635 972.56 165.381 972.455 165.193 972.267C165.006 972.079 164.9 971.825 164.9 971.56C164.9 971.295 165.006 971.04 165.193 970.853C165.381 970.665 165.635 970.56 165.9 970.56H197.64C197.906 970.56 198.16 970.665 198.348 970.853C198.535 971.04 198.64 971.295 198.64 971.56C198.64 971.825 198.535 972.079 198.348 972.267C198.16 972.455 197.906 972.56 197.64 972.56H182.84V985.25C182.814 985.525 182.687 985.78 182.482 985.966C182.278 986.152 182.012 986.255 181.735 986.255C181.459 986.255 181.193 986.152 180.989 985.966C180.784 985.78 180.657 985.525 180.63 985.25ZM191.76 966.79C192.667 962.968 193.285 959.084 193.61 955.17H168.34C168.075 955.17 167.821 955.065 167.633 954.877C167.446 954.69 167.34 954.435 167.34 954.17C167.34 953.905 167.446 953.65 167.633 953.463C167.821 953.275 168.075 953.17 168.34 953.17H194.831C195.611 953.17 195.98 953.61 195.94 954.42C195.578 958.633 194.909 962.814 193.94 966.93C193.876 967.193 193.722 967.426 193.505 967.588C193.288 967.751 193.021 967.832 192.75 967.82C192.13 967.92 191.58 967.42 191.76 966.79Z" fill="#182E6A"/>
<path d="M204.56 969.53C204.401 969.544 204.24 969.523 204.09 969.468C203.94 969.413 203.804 969.325 203.691 969.212C203.578 969.098 203.492 968.961 203.439 968.81C203.385 968.66 203.365 968.499 203.38 968.34V953.84C203.38 953.546 203.497 953.263 203.705 953.055C203.913 952.847 204.196 952.73 204.49 952.73C204.784 952.73 205.067 952.847 205.275 953.055C205.483 953.263 205.6 953.546 205.6 953.84V958.84H219.18V953.84C219.18 953.546 219.297 953.263 219.505 953.055C219.713 952.847 219.996 952.73 220.29 952.73C220.585 952.73 220.867 952.847 221.075 953.055C221.283 953.263 221.4 953.546 221.4 953.84V968.34C221.415 968.5 221.395 968.662 221.341 968.813C221.287 968.964 221.2 969.102 221.086 969.216C220.972 969.33 220.835 969.417 220.683 969.471C220.532 969.525 220.37 969.545 220.21 969.53H204.56ZM211.48 985.99C207.48 985.99 204.27 983.44 204.27 979.67C204.27 975.9 207.45 973.38 211.48 973.38H226.39C230.39 973.38 233.61 975.89 233.61 979.67C233.61 983.45 230.43 985.99 226.39 985.99H211.48ZM205.6 967.6H219.18V960.76H205.6V967.6ZM226.28 984.07C229.13 984.07 231.39 982.33 231.39 979.67C231.39 977.01 229.13 975.3 226.28 975.3H211.59C208.74 975.3 206.49 977 206.49 979.67C206.49 982.34 208.74 984.07 211.59 984.07H226.28ZM230.28 971.07V953.07C230.28 952.776 230.397 952.493 230.605 952.285C230.813 952.077 231.096 951.96 231.39 951.96C231.684 951.96 231.967 952.077 232.175 952.285C232.383 952.493 232.5 952.776 232.5 953.07V959.88H236.68C236.945 959.88 237.2 959.985 237.387 960.173C237.575 960.36 237.68 960.615 237.68 960.88C237.68 961.145 237.575 961.4 237.387 961.587C237.2 961.775 236.945 961.88 236.68 961.88H232.5V971.09C232.5 971.384 232.383 971.667 232.175 971.875C231.967 972.083 231.684 972.2 231.39 972.2C231.096 972.2 230.813 972.083 230.605 971.875C230.397 971.667 230.28 971.384 230.28 971.09V971.07Z" fill="#182E6A"/>
<path d="M247.85 984.63C249.174 981.083 250.07 977.39 250.52 973.63H239.6C239.334 973.63 239.08 973.525 238.893 973.337C238.705 973.15 238.6 972.895 238.6 972.63C238.6 972.365 238.705 972.11 238.893 971.923C239.08 971.735 239.334 971.63 239.6 971.63H264.06C264.325 971.63 264.579 971.735 264.767 971.923C264.954 972.11 265.06 972.365 265.06 972.63C265.06 972.895 264.954 973.15 264.767 973.337C264.579 973.525 264.325 973.63 264.06 973.63H252.81C252.325 977.51 251.396 981.322 250.04 984.99C249.964 985.231 249.817 985.445 249.62 985.603C249.422 985.762 249.182 985.858 248.93 985.88C248.768 985.898 248.604 985.877 248.453 985.818C248.301 985.759 248.166 985.663 248.06 985.54C247.953 985.417 247.878 985.27 247.842 985.111C247.805 984.953 247.808 984.787 247.85 984.63ZM248.3 967.86C244.12 967.86 241.16 964.46 241.16 960.28C241.16 956.1 244.16 952.73 248.3 952.73H255.18C259.36 952.73 262.32 956.1 262.32 960.28C262.32 964.46 259.32 967.86 255.18 967.86H248.3ZM254.96 965.92C257.89 965.92 260.07 963.29 260.07 960.26C260.106 959.554 260.002 958.848 259.765 958.183C259.527 957.517 259.161 956.905 258.686 956.382C258.211 955.859 257.637 955.435 256.998 955.134C256.358 954.833 255.666 954.662 254.96 954.63H248.49C247.084 954.762 245.779 955.414 244.828 956.458C243.878 957.502 243.352 958.863 243.352 960.275C243.352 961.687 243.878 963.048 244.828 964.092C245.779 965.136 247.084 965.788 248.49 965.92H254.96ZM268.66 984.86V953.15C268.659 953.01 268.688 952.871 268.744 952.743C268.801 952.614 268.883 952.499 268.987 952.405C269.091 952.311 269.213 952.239 269.346 952.195C269.479 952.151 269.62 952.136 269.76 952.15C269.899 952.142 270.038 952.161 270.17 952.207C270.302 952.253 270.423 952.325 270.527 952.418C270.631 952.51 270.716 952.623 270.777 952.749C270.837 952.874 270.872 953.011 270.88 953.15V984.92C270.872 985.059 270.837 985.196 270.777 985.321C270.716 985.447 270.631 985.56 270.527 985.653C270.423 985.745 270.302 985.817 270.17 985.863C270.038 985.909 269.899 985.928 269.76 985.92C269.623 985.93 269.485 985.911 269.355 985.865C269.226 985.819 269.107 985.747 269.007 985.653C268.906 985.559 268.827 985.446 268.772 985.32C268.717 985.193 268.689 985.057 268.69 984.92L268.66 984.86Z" fill="#182E6A"/>
<path d="M277.67 982.92V955.13C277.656 954.971 277.678 954.81 277.733 954.66C277.788 954.51 277.875 954.374 277.989 954.261C278.102 954.148 278.239 954.062 278.39 954.008C278.54 953.955 278.701 953.935 278.86 953.95H291.14C291.405 953.95 291.66 954.055 291.847 954.243C292.035 954.43 292.14 954.685 292.14 954.95C292.14 955.215 292.035 955.47 291.847 955.657C291.66 955.845 291.405 955.95 291.14 955.95H279.89V982.19C284.017 982.115 288.12 981.545 292.11 980.49C292.245 980.463 292.385 980.467 292.518 980.501C292.651 980.535 292.775 980.598 292.881 980.686C292.986 980.775 293.071 980.886 293.128 981.011C293.185 981.136 293.213 981.272 293.21 981.41C293.205 981.619 293.135 981.821 293.01 981.987C292.884 982.154 292.709 982.277 292.51 982.34C288.054 983.461 283.484 984.068 278.89 984.15C278.724 984.174 278.554 984.158 278.394 984.105C278.235 984.051 278.09 983.961 277.971 983.841C277.853 983.722 277.764 983.576 277.712 983.416C277.659 983.256 277.645 983.086 277.67 982.92ZM306.09 984.92V968.79H298.58V985.11C298.58 985.404 298.463 985.687 298.255 985.895C298.047 986.103 297.765 986.22 297.47 986.22C297.176 986.22 296.894 986.103 296.685 985.895C296.477 985.687 296.36 985.404 296.36 985.11V953.21C296.36 952.916 296.477 952.633 296.685 952.425C296.894 952.217 297.176 952.1 297.47 952.1C297.765 952.1 298.047 952.217 298.255 952.425C298.463 952.633 298.58 952.916 298.58 953.21V966.87H306.09V953.21C306.09 952.916 306.207 952.633 306.415 952.425C306.623 952.217 306.906 952.1 307.2 952.1C307.495 952.1 307.777 952.217 307.985 952.425C308.193 952.633 308.31 952.916 308.31 953.21V984.92C308.31 985.214 308.193 985.497 307.985 985.705C307.777 985.913 307.495 986.03 307.2 986.03C306.906 986.03 306.623 985.913 306.415 985.705C306.207 985.497 306.09 985.214 306.09 984.92Z" fill="#182E6A"/>
<path d="M312.46 986.55C311.79 986.55 311.271 986.22 311.271 985.74C311.271 985.26 311.79 984.92 312.46 984.92H332.321C332.991 984.92 333.47 985.29 333.47 985.74C333.47 986.19 332.991 986.55 332.321 986.55H312.46Z" fill="#182E6A"/>
<path d="M335.43 982.41C335.424 982.208 335.472 982.008 335.571 981.832C335.67 981.656 335.815 981.51 335.99 981.41C339.99 979.12 346.09 973.05 346.09 965.32V956.14H337.54C337.275 956.14 337.021 956.035 336.833 955.847C336.646 955.66 336.54 955.405 336.54 955.14C336.54 954.875 336.646 954.62 336.833 954.433C337.021 954.245 337.275 954.14 337.54 954.14H356.86C357.125 954.14 357.38 954.245 357.567 954.433C357.755 954.62 357.86 954.875 357.86 955.14C357.86 955.405 357.755 955.66 357.567 955.847C357.38 956.035 357.125 956.14 356.86 956.14H348.31V965.32C348.31 973.05 354.41 979.12 358.45 981.41C358.623 981.512 358.765 981.659 358.862 981.835C358.959 982.011 359.007 982.209 359 982.41C358.99 982.697 358.869 982.97 358.661 983.169C358.454 983.369 358.178 983.48 357.89 983.48C357.696 983.484 357.505 983.432 357.34 983.33C353.08 980.89 348.27 975.63 347.2 970.33C346.13 975.65 341.35 980.91 337.06 983.33C336.893 983.434 336.698 983.486 336.5 983.48C336.217 983.48 335.944 983.367 335.744 983.167C335.543 982.966 335.43 982.694 335.43 982.41ZM364.59 984.88V953.17C364.59 952.876 364.707 952.593 364.915 952.385C365.124 952.177 365.406 952.06 365.7 952.06C365.995 952.06 366.277 952.177 366.485 952.385C366.693 952.593 366.81 952.876 366.81 953.17V984.92C366.81 985.214 366.693 985.497 366.485 985.705C366.277 985.913 365.995 986.03 365.7 986.03C365.406 986.03 365.124 985.913 364.915 985.705C364.707 985.497 364.59 985.214 364.59 984.92V984.88Z" fill="#182E6A"/>
<path d="M387.82 985.25V972.56H373.1C372.834 972.56 372.58 972.455 372.393 972.267C372.205 972.079 372.1 971.825 372.1 971.56C372.1 971.295 372.205 971.04 372.393 970.853C372.58 970.665 372.834 970.56 373.1 970.56H404.85C405.115 970.56 405.369 970.665 405.557 970.853C405.744 971.04 405.85 971.295 405.85 971.56C405.85 971.825 405.744 972.079 405.557 972.267C405.369 972.455 405.115 972.56 404.85 972.56H390.04V985.25C390.04 985.544 389.923 985.827 389.715 986.035C389.506 986.243 389.224 986.36 388.93 986.36C388.635 986.36 388.353 986.243 388.145 986.035C387.937 985.827 387.82 985.544 387.82 985.25ZM398.96 966.79C399.866 962.968 400.484 959.084 400.81 955.17H375.54C375.275 955.17 375.02 955.065 374.833 954.877C374.645 954.69 374.54 954.435 374.54 954.17C374.54 953.905 374.645 953.65 374.833 953.463C375.02 953.275 375.275 953.17 375.54 953.17H402.03C402.81 953.17 403.18 953.61 403.14 954.42C402.782 958.634 402.113 962.815 401.14 966.93C401.079 967.193 400.927 967.427 400.712 967.59C400.496 967.752 400.23 967.834 399.96 967.82C399.33 967.92 398.78 967.42 398.96 966.79Z" fill="#182E6A"/>
<path d="M410.1 970.01C409.834 970.01 409.58 969.905 409.393 969.717C409.205 969.53 409.1 969.275 409.1 969.01C409.1 968.745 409.205 968.49 409.393 968.303C409.58 968.115 409.834 968.01 410.1 968.01H441.85C442.115 968.01 442.369 968.115 442.557 968.303C442.744 968.49 442.85 968.745 442.85 969.01C442.85 969.275 442.744 969.53 442.557 969.717C442.369 969.905 442.115 970.01 441.85 970.01H410.1ZM413.1 964.83C412.94 964.844 412.779 964.822 412.629 964.767C412.478 964.712 412.341 964.625 412.228 964.512C412.114 964.398 412.027 964.262 411.972 964.111C411.917 963.961 411.896 963.8 411.91 963.64V959.06C411.896 958.9 411.917 958.739 411.972 958.589C412.027 958.438 412.114 958.302 412.228 958.188C412.341 958.075 412.478 957.988 412.629 957.933C412.779 957.878 412.94 957.856 413.1 957.87H437.89V954.8H412.76C412.495 954.8 412.24 954.695 412.052 954.507C411.865 954.32 411.76 954.065 411.76 953.8C411.76 953.535 411.865 953.28 412.052 953.093C412.24 952.905 412.495 952.8 412.76 952.8H438.92C439.079 952.785 439.24 952.805 439.39 952.858C439.541 952.912 439.678 952.998 439.791 953.111C439.905 953.224 439.992 953.36 440.047 953.51C440.102 953.66 440.124 953.821 440.11 953.98V958.46C440.124 958.619 440.102 958.78 440.047 958.93C439.992 959.08 439.905 959.216 439.791 959.329C439.678 959.442 439.541 959.528 439.39 959.582C439.24 959.635 439.079 959.655 438.92 959.64H414.13V962.92H439.44C439.705 962.92 439.959 963.025 440.147 963.213C440.334 963.4 440.44 963.655 440.44 963.92C440.44 964.185 440.334 964.44 440.147 964.627C439.959 964.815 439.705 964.92 439.44 964.92L413.1 964.83ZM413.1 985.83C412.94 985.845 412.78 985.825 412.629 985.772C412.479 985.718 412.342 985.632 412.228 985.519C412.114 985.406 412.027 985.27 411.972 985.12C411.917 984.97 411.896 984.809 411.91 984.65V979.8C411.896 979.64 411.917 979.48 411.972 979.329C412.027 979.178 412.114 979.042 412.228 978.928C412.341 978.815 412.478 978.728 412.629 978.673C412.779 978.618 412.94 978.596 413.1 978.61H437.89V975.32H412.76C412.495 975.32 412.24 975.215 412.052 975.027C411.865 974.839 411.76 974.585 411.76 974.32C411.76 974.055 411.865 973.8 412.052 973.613C412.24 973.425 412.495 973.32 412.76 973.32H438.92C439.079 973.305 439.24 973.325 439.39 973.378C439.541 973.432 439.678 973.518 439.791 973.631C439.905 973.744 439.992 973.88 440.047 974.03C440.102 974.18 440.124 974.341 440.11 974.5V979.2C440.124 979.359 440.102 979.52 440.047 979.67C439.992 979.82 439.905 979.956 439.791 980.069C439.678 980.182 439.541 980.268 439.39 980.322C439.24 980.375 439.079 980.395 438.92 980.38H414.13V983.92H439.81C440.075 983.92 440.329 984.025 440.517 984.213C440.704 984.4 440.81 984.655 440.81 984.92C440.81 985.185 440.704 985.44 440.517 985.627C440.329 985.815 440.075 985.92 439.81 985.92L413.1 985.83Z" fill="#182E6A"/>
<path d="M446.43 982.41C446.424 982.208 446.472 982.008 446.571 981.832C446.67 981.656 446.815 981.51 446.99 981.41C450.99 979.12 457.09 973.05 457.09 965.32V956.14H448.54C448.275 956.14 448.021 956.035 447.833 955.847C447.646 955.66 447.54 955.405 447.54 955.14C447.54 954.875 447.646 954.62 447.833 954.433C448.021 954.245 448.275 954.14 448.54 954.14H467.86C468.125 954.14 468.38 954.245 468.567 954.433C468.755 954.62 468.86 954.875 468.86 955.14C468.86 955.405 468.755 955.66 468.567 955.847C468.38 956.035 468.125 956.14 467.86 956.14H459.31V965.32C459.31 973.05 465.41 979.12 469.45 981.41C469.623 981.512 469.765 981.659 469.862 981.835C469.959 982.011 470.007 982.209 470 982.41C469.99 982.697 469.869 982.97 469.661 983.169C469.454 983.369 469.178 983.48 468.89 983.48C468.696 983.484 468.505 983.432 468.34 983.33C464.08 980.89 459.27 975.63 458.2 970.33C457.13 975.65 452.35 980.91 448.06 983.33C447.893 983.434 447.698 983.486 447.5 983.48C447.217 983.48 446.944 983.367 446.744 983.167C446.543 982.966 446.43 982.694 446.43 982.41ZM475.59 984.88V953.17C475.59 952.876 475.707 952.593 475.915 952.385C476.124 952.177 476.406 952.06 476.7 952.06C476.995 952.06 477.277 952.177 477.485 952.385C477.693 952.593 477.81 952.876 477.81 953.17V984.92C477.81 985.214 477.693 985.497 477.485 985.705C477.277 985.913 476.995 986.03 476.7 986.03C476.406 986.03 476.124 985.913 475.915 985.705C475.707 985.497 475.59 985.214 475.59 984.92V984.88Z" fill="#182E6A"/>
<path d="M514.81 953.17V984.92C514.81 985.214 514.693 985.497 514.485 985.705C514.277 985.913 513.994 986.03 513.7 986.03C513.406 986.03 513.123 985.913 512.915 985.705C512.707 985.497 512.59 985.214 512.59 984.92V975.56H502.45C502.185 975.56 501.931 975.455 501.743 975.267C501.555 975.079 501.45 974.825 501.45 974.56C501.45 974.295 501.555 974.04 501.743 973.853C501.931 973.665 502.185 973.56 502.45 973.56H512.59V963.09H502.71C500.97 974.96 494.79 981.74 485.32 984.09C485.169 984.131 485.011 984.135 484.857 984.104C484.704 984.072 484.56 984.005 484.438 983.908C484.315 983.811 484.217 983.686 484.152 983.544C484.086 983.402 484.055 983.246 484.06 983.09C484.052 982.864 484.121 982.642 484.256 982.461C484.39 982.279 484.582 982.149 484.8 982.09C491.98 980.16 496.94 975.58 499.34 968.09H485.72C485.455 968.09 485.201 967.985 485.013 967.797C484.826 967.61 484.72 967.355 484.72 967.09C484.72 966.825 484.826 966.57 485.013 966.383C485.201 966.195 485.455 966.09 485.72 966.09H499.9C500.695 962.655 501.068 959.135 501.01 955.61H485.24C484.975 955.61 484.721 955.505 484.533 955.317C484.346 955.13 484.24 954.875 484.24 954.61C484.24 954.345 484.346 954.09 484.533 953.903C484.721 953.715 484.975 953.61 485.24 953.61H501.86C502.048 953.592 502.238 953.617 502.415 953.682C502.592 953.747 502.752 953.851 502.883 953.986C503.015 954.122 503.114 954.285 503.174 954.464C503.234 954.643 503.253 954.833 503.23 955.02V955.31C503.239 957.163 503.152 959.016 502.97 960.86H512.59V952.86C512.59 952.566 512.707 952.283 512.915 952.075C513.123 951.867 513.406 951.75 513.7 951.75C513.994 951.75 514.277 951.867 514.485 952.075C514.693 952.283 514.81 952.566 514.81 952.86V953.17Z" fill="#182E6A"/>
<path d="M521.58 982.92V968.37C521.565 968.211 521.584 968.051 521.638 967.901C521.692 967.75 521.778 967.614 521.891 967.501C522.004 967.388 522.14 967.302 522.291 967.248C522.441 967.194 522.601 967.174 522.76 967.19H537.38V955.92H522.38C522.115 955.92 521.86 955.815 521.673 955.627C521.485 955.44 521.38 955.185 521.38 954.92C521.38 954.655 521.485 954.4 521.673 954.213C521.86 954.025 522.115 953.92 522.38 953.92H538.38C538.539 953.905 538.7 953.925 538.85 953.978C539.001 954.032 539.138 954.118 539.252 954.231C539.365 954.344 539.453 954.48 539.508 954.63C539.563 954.78 539.584 954.941 539.57 955.1V967.92C539.584 968.079 539.563 968.24 539.508 968.39C539.453 968.54 539.365 968.676 539.252 968.789C539.138 968.902 539.001 968.988 538.85 969.042C538.7 969.095 538.539 969.115 538.38 969.1H523.77V981.92C529.762 981.662 535.719 980.869 541.57 979.55C542.2 979.41 542.57 979.92 542.57 980.55C542.573 980.791 542.488 981.025 542.332 981.209C542.176 981.393 541.958 981.514 541.72 981.55C535.468 982.9 529.111 983.706 522.72 983.96C522.02 984.03 521.58 983.66 521.58 982.92ZM548.22 984.92V953.21C548.22 952.916 548.337 952.633 548.545 952.425C548.753 952.217 549.036 952.1 549.33 952.1C549.624 952.1 549.907 952.217 550.115 952.425C550.323 952.633 550.44 952.916 550.44 953.21V966.83H554.96C555.225 966.83 555.479 966.935 555.667 967.123C555.855 967.31 555.96 967.565 555.96 967.83C555.96 968.095 555.855 968.35 555.667 968.537C555.479 968.725 555.225 968.83 554.96 968.83H550.48V984.92C550.48 985.214 550.363 985.497 550.155 985.705C549.947 985.913 549.664 986.03 549.37 986.03C549.075 986.03 548.793 985.913 548.585 985.705C548.377 985.497 548.26 985.214 548.26 984.92H548.22Z" fill="#182E6A"/>
<path d="M571.821 963.46C571.121 963.46 570.751 963.02 570.821 962.46C570.891 961.9 571.271 961.57 572.011 961.57H577.12L579.521 952.39C579.576 952.146 579.72 951.932 579.926 951.789C580.131 951.647 580.383 951.586 580.63 951.62C580.77 951.611 580.91 951.638 581.037 951.699C581.164 951.759 581.273 951.85 581.355 951.964C581.437 952.078 581.489 952.21 581.505 952.35C581.522 952.489 581.503 952.63 581.451 952.76L579.191 961.57H586.811L589.181 952.39C589.235 952.154 589.374 951.945 589.571 951.804C589.768 951.662 590.009 951.597 590.251 951.62C590.881 951.62 591.32 951.99 591.14 952.76L588.88 961.57H593.88C594.017 961.55 594.157 961.566 594.286 961.617C594.415 961.668 594.528 961.752 594.614 961.86C594.7 961.969 594.756 962.098 594.776 962.234C594.797 962.371 594.781 962.511 594.731 962.64C594.68 962.865 594.552 963.067 594.37 963.209C594.188 963.351 593.962 963.426 593.731 963.42H588.37L585.661 973.92H590.771C590.912 973.904 591.055 973.923 591.186 973.977C591.318 974.031 591.433 974.118 591.522 974.229C591.611 974.34 591.671 974.471 591.695 974.612C591.719 974.752 591.707 974.896 591.661 975.03C591.61 975.256 591.482 975.457 591.3 975.599C591.118 975.741 590.892 975.816 590.661 975.81H585.221L582.741 985.43C582.682 985.648 582.551 985.84 582.37 985.974C582.188 986.109 581.966 986.178 581.741 986.17C581.041 986.17 580.631 985.84 580.821 985.06L583.11 975.81H575.531L573.011 985.43C572.952 985.648 572.821 985.84 572.64 985.974C572.458 986.109 572.236 986.178 572.011 986.17C571.341 986.17 570.901 985.84 571.081 985.06L573.411 975.81H568.711C568.011 975.81 567.641 975.37 567.711 974.81C567.781 974.25 568.12 973.88 568.9 973.88H573.9L576.63 963.45L571.821 963.46ZM578.711 963.46L576.011 973.89H583.59L586.291 963.46H578.711Z" fill="#182E6A"/>
<path d="M622.48 971.45C614.555 972.549 606.57 973.166 598.57 973.3C598.305 973.3 598.051 973.195 597.863 973.007C597.676 972.82 597.57 972.565 597.57 972.3C597.57 972.048 597.664 971.805 597.834 971.62C598.005 971.434 598.239 971.32 598.49 971.3C602.08 971.19 605.63 971.04 609.22 970.82V966.01H606.59C603.34 966.01 600.97 964.01 600.97 960.68C600.933 959.876 601.08 959.074 601.401 958.335C601.721 957.597 602.207 956.942 602.82 956.42H600.04C599.775 956.42 599.521 956.315 599.333 956.127C599.145 955.94 599.04 955.685 599.04 955.42C599.04 955.155 599.145 954.9 599.333 954.713C599.521 954.525 599.775 954.42 600.04 954.42H609.11V952.05C609.146 951.781 609.279 951.535 609.483 951.356C609.687 951.178 609.949 951.079 610.22 951.079C610.491 951.079 610.753 951.178 610.958 951.356C611.162 951.535 611.294 951.781 611.33 952.05V954.42H620.4C620.665 954.42 620.92 954.525 621.107 954.713C621.295 954.9 621.4 955.155 621.4 955.42C621.4 955.685 621.295 955.94 621.107 956.127C620.92 956.315 620.665 956.42 620.4 956.42H617.66C618.254 956.957 618.727 957.615 619.046 958.35C619.365 959.085 619.523 959.879 619.51 960.68C619.51 963.97 616.99 966.01 613.74 966.01H611.44V970.67C615.11 970.37 618.73 970 622.44 969.45C622.569 969.434 622.699 969.446 622.822 969.485C622.945 969.525 623.058 969.59 623.154 969.678C623.249 969.766 623.324 969.873 623.373 969.992C623.423 970.112 623.446 970.241 623.44 970.37C623.44 970.636 623.342 970.893 623.165 971.092C622.988 971.291 622.745 971.418 622.48 971.45ZM628.07 983.89C628.336 983.89 628.59 983.995 628.777 984.183C628.965 984.37 629.07 984.625 629.07 984.89C629.07 985.155 628.965 985.41 628.777 985.597C628.59 985.785 628.336 985.89 628.07 985.89H602.64C602.481 985.905 602.321 985.886 602.171 985.832C602.021 985.778 601.884 985.692 601.771 985.579C601.659 985.466 601.572 985.329 601.518 985.179C601.465 985.029 601.445 984.869 601.46 984.71V977.23C601.496 976.961 601.629 976.715 601.833 976.536C602.037 976.358 602.299 976.259 602.57 976.259C602.841 976.259 603.103 976.358 603.307 976.536C603.512 976.715 603.644 976.961 603.68 977.23V983.92L628.07 983.89ZM607.07 964.16H613.43C615.8 964.16 617.32 962.79 617.32 960.43C617.336 959.925 617.252 959.423 617.072 958.951C616.892 958.48 616.62 958.048 616.272 957.683C615.924 957.317 615.507 957.024 615.045 956.821C614.583 956.618 614.085 956.509 613.58 956.5H606.96C606.458 956.51 605.962 956.621 605.503 956.825C605.044 957.029 604.629 957.322 604.285 957.688C603.94 958.054 603.672 958.485 603.496 958.956C603.32 959.427 603.24 959.928 603.26 960.43C603.223 960.934 603.297 961.441 603.475 961.914C603.653 962.387 603.932 962.816 604.293 963.171C604.653 963.526 605.087 963.798 605.563 963.969C606.039 964.14 606.547 964.205 607.05 964.16H607.07ZM632.38 963.31C632.645 963.31 632.9 963.415 633.087 963.603C633.275 963.79 633.38 964.045 633.38 964.31C633.38 964.575 633.275 964.829 633.087 965.017C632.9 965.205 632.645 965.31 632.38 965.31H628.2V977.52C628.2 977.814 628.083 978.097 627.875 978.305C627.667 978.513 627.384 978.63 627.09 978.63C626.796 978.63 626.514 978.513 626.305 978.305C626.097 978.097 625.98 977.814 625.98 977.52V953.24C625.98 952.946 626.097 952.663 626.305 952.455C626.514 952.247 626.796 952.13 627.09 952.13C627.384 952.13 627.667 952.247 627.875 952.455C628.083 952.663 628.2 952.946 628.2 953.24V963.38L632.38 963.31Z" fill="#182E6A"/>
<path d="M653.6 954.5C653.6 965.38 646.53 970.12 636.76 970.86C636.495 970.86 636.24 970.755 636.053 970.567C635.865 970.38 635.76 970.125 635.76 969.86C635.758 969.613 635.848 969.374 636.013 969.189C636.177 969.004 636.404 968.887 636.65 968.86C645.65 968.15 651.38 964.08 651.38 954.94H636.91C636.644 954.94 636.39 954.835 636.203 954.647C636.015 954.459 635.91 954.205 635.91 953.94C635.91 953.675 636.015 953.42 636.203 953.233C636.39 953.045 636.644 952.94 636.91 952.94H652.41C652.575 952.921 652.742 952.939 652.899 952.994C653.057 953.048 653.2 953.138 653.318 953.255C653.436 953.372 653.526 953.514 653.582 953.671C653.638 953.827 653.657 953.995 653.64 954.16L653.6 954.5ZM659.48 973.38C663.48 973.38 666.69 975.89 666.69 979.67C666.69 983.45 663.51 985.99 659.48 985.99H644.42C640.42 985.99 637.2 983.44 637.2 979.67C637.2 975.9 640.38 973.38 644.42 973.38H659.48ZM659.37 984.07C662.22 984.07 664.47 982.33 664.47 979.67C664.47 977.01 662.22 975.3 659.37 975.3H644.53C641.68 975.3 639.42 977 639.42 979.67C639.42 982.34 641.68 984.07 644.53 984.07H659.37ZM654.71 966.35C654.445 966.35 654.19 966.245 654.003 966.057C653.815 965.87 653.71 965.615 653.71 965.35C653.71 965.085 653.815 964.83 654.003 964.643C654.19 964.455 654.445 964.35 654.71 964.35H663.77V958.77H655.77C655.505 958.77 655.25 958.665 655.063 958.477C654.875 958.29 654.77 958.035 654.77 957.77C654.77 957.505 654.875 957.25 655.063 957.063C655.25 956.875 655.505 956.77 655.77 956.77H663.77V953.03C663.77 952.736 663.887 952.453 664.095 952.245C664.303 952.037 664.585 951.92 664.88 951.92C665.174 951.92 665.456 952.037 665.665 952.245C665.873 952.453 665.99 952.736 665.99 953.03V971.03C665.99 971.324 665.873 971.607 665.665 971.815C665.456 972.023 665.174 972.14 664.88 972.14C664.585 972.14 664.303 972.023 664.095 971.815C663.887 971.607 663.77 971.324 663.77 971.03V966.26L654.71 966.35Z" fill="#182E6A"/>
<path d="M672.54 984.66C672.275 984.66 672.02 984.555 671.833 984.367C671.645 984.18 671.54 983.925 671.54 983.66C671.54 983.395 671.645 983.14 671.833 982.953C672.02 982.765 672.275 982.66 672.54 982.66H687.3V974.59C687.336 974.321 687.468 974.075 687.673 973.896C687.877 973.718 688.139 973.619 688.41 973.619C688.681 973.619 688.943 973.718 689.147 973.896C689.351 974.075 689.484 974.321 689.52 974.59V982.66H704.29C704.555 982.66 704.81 982.765 704.997 982.953C705.185 983.14 705.29 983.395 705.29 983.66C705.29 983.925 705.185 984.18 704.997 984.367C704.81 984.555 704.555 984.66 704.29 984.66H672.54ZM675.54 971.49C675.381 971.503 675.221 971.482 675.072 971.428C674.922 971.374 674.785 971.287 674.672 971.175C674.559 971.063 674.472 970.927 674.416 970.778C674.36 970.629 674.338 970.469 674.35 970.31V953.99C674.35 953.696 674.467 953.413 674.675 953.205C674.883 952.997 675.166 952.88 675.46 952.88C675.754 952.88 676.037 952.997 676.245 953.205C676.453 953.413 676.57 953.696 676.57 953.99V959.54H700.33V953.99C700.33 953.696 700.447 953.413 700.655 953.205C700.863 952.997 701.146 952.88 701.44 952.88C701.734 952.88 702.017 952.997 702.225 953.205C702.433 953.413 702.55 953.696 702.55 953.99V970.31C702.564 970.468 702.542 970.628 702.488 970.777C702.434 970.927 702.347 971.062 702.235 971.175C702.122 971.287 701.987 971.374 701.837 971.428C701.688 971.483 701.528 971.504 701.37 971.49H675.54ZM676.54 969.57H700.3V961.46H676.54V969.57Z" fill="#182E6A"/>
<path d="M709.54 984.66C709.275 984.66 709.02 984.555 708.833 984.367C708.645 984.18 708.54 983.925 708.54 983.66C708.54 983.395 708.645 983.14 708.833 982.953C709.02 982.765 709.275 982.66 709.54 982.66H724.3V976.37C724.336 976.101 724.468 975.855 724.673 975.676C724.877 975.498 725.139 975.399 725.41 975.399C725.681 975.399 725.943 975.498 726.147 975.676C726.351 975.855 726.484 976.101 726.52 976.37V982.66H741.29C741.555 982.66 741.81 982.765 741.997 982.953C742.185 983.14 742.29 983.395 742.29 983.66C742.29 983.925 742.185 984.18 741.997 984.367C741.81 984.555 741.555 984.66 741.29 984.66H709.54ZM710.98 958.39C710.715 958.39 710.46 958.285 710.273 958.097C710.085 957.91 709.98 957.655 709.98 957.39C709.98 957.125 710.085 956.87 710.273 956.683C710.46 956.495 710.715 956.39 710.98 956.39H724.3V952.13C724.336 951.861 724.468 951.615 724.673 951.436C724.877 951.258 725.139 951.159 725.41 951.159C725.681 951.159 725.943 951.258 726.147 951.436C726.351 951.615 726.484 951.861 726.52 952.13V956.39H739.81C740.075 956.39 740.33 956.495 740.517 956.683C740.705 956.87 740.81 957.125 740.81 957.39C740.81 957.655 740.705 957.91 740.517 958.097C740.33 958.285 740.075 958.39 739.81 958.39H710.98ZM718.38 973.82C714.09 973.82 711.13 971.16 711.13 967.6C711.13 964.04 714.13 961.39 718.38 961.39H732.44C736.73 961.39 739.7 964.05 739.7 967.6C739.7 971.15 736.7 973.82 732.44 973.82H718.38ZM732.22 971.9C735.22 971.9 737.47 970.08 737.47 967.6C737.47 965.12 735.25 963.31 732.22 963.31H718.6C715.6 963.31 713.35 965.13 713.35 967.6C713.35 970.07 715.57 971.9 718.6 971.9H732.22Z" fill="#182E6A"/>
<path d="M762.3 954.36C762.3 964.68 756.12 969.2 747.8 970.08C747.662 970.091 747.523 970.073 747.392 970.028C747.262 969.983 747.142 969.911 747.04 969.817C746.939 969.723 746.858 969.609 746.803 969.482C746.748 969.355 746.719 969.218 746.72 969.08C746.717 968.839 746.802 968.605 746.958 968.421C747.114 968.237 747.331 968.116 747.57 968.08C752.42 967.56 756.34 965.64 758.42 961.97H748.24C747.975 961.97 747.72 961.865 747.533 961.677C747.345 961.49 747.24 961.235 747.24 960.97C747.24 960.705 747.345 960.45 747.533 960.263C747.72 960.075 747.975 959.97 748.24 959.97H759.3C759.846 958.323 760.11 956.595 760.08 954.86H747.87C747.604 954.86 747.35 954.755 747.163 954.567C746.975 954.38 746.87 954.125 746.87 953.86C746.87 953.595 746.975 953.34 747.163 953.153C747.35 952.965 747.604 952.86 747.87 952.86H761.3C761.434 952.848 761.57 952.865 761.697 952.911C761.824 952.957 761.939 953.03 762.034 953.126C762.13 953.221 762.203 953.336 762.249 953.463C762.295 953.59 762.312 953.726 762.3 953.86V954.36ZM776.77 973.27C776.929 973.254 777.089 973.274 777.239 973.328C777.389 973.382 777.526 973.468 777.638 973.581C777.751 973.694 777.838 973.83 777.892 973.981C777.945 974.131 777.965 974.291 777.95 974.45V984.92C777.95 985.214 777.833 985.497 777.625 985.705C777.416 985.913 777.134 986.03 776.84 986.03C776.545 986.03 776.263 985.913 776.055 985.705C775.847 985.497 775.73 985.214 775.73 984.92V984.7L749.79 985.81C749.628 985.832 749.463 985.817 749.308 985.766C749.152 985.715 749.011 985.63 748.893 985.516C748.776 985.403 748.686 985.264 748.63 985.11C748.574 984.957 748.553 984.793 748.57 984.63V974.49C748.556 974.331 748.577 974.17 748.632 974.02C748.687 973.87 748.775 973.734 748.888 973.621C749.002 973.508 749.139 973.422 749.289 973.368C749.44 973.315 749.601 973.295 749.76 973.31L776.77 973.27ZM750.77 983.77L775.71 982.77V975.22H750.77V983.77ZM777.93 953.17V970.38C777.93 970.674 777.813 970.957 777.605 971.165C777.396 971.373 777.114 971.49 776.82 971.49C776.525 971.49 776.243 971.373 776.035 971.165C775.827 970.957 775.71 970.674 775.71 970.38V961.98H769.13V970.38C769.13 970.674 769.013 970.957 768.805 971.165C768.597 971.373 768.314 971.49 768.02 971.49C767.725 971.49 767.443 971.373 767.235 971.165C767.027 970.957 766.91 970.674 766.91 970.38V953.17C766.91 952.876 767.027 952.593 767.235 952.385C767.443 952.177 767.725 952.06 768.02 952.06C768.314 952.06 768.597 952.177 768.805 952.385C769.013 952.593 769.13 952.876 769.13 953.17V960.06H775.71V953.17C775.71 952.876 775.827 952.593 776.035 952.385C776.243 952.177 776.525 952.06 776.82 952.06C777.114 952.06 777.396 952.177 777.605 952.385C777.813 952.593 777.93 952.876 777.93 953.17Z" fill="#182E6A"/>
<path d="M784.2 984.11C783.935 984.11 783.681 984.005 783.493 983.817C783.306 983.63 783.2 983.375 783.2 983.11C783.2 982.845 783.306 982.59 783.493 982.403C783.681 982.215 783.935 982.11 784.2 982.11H787.72L786.83 958.58C786.819 958.433 786.84 958.286 786.893 958.148C786.945 958.01 787.027 957.886 787.133 957.784C787.239 957.681 787.367 957.604 787.506 957.557C787.646 957.509 787.794 957.493 787.94 957.51C788.219 957.499 788.491 957.597 788.699 957.784C788.906 957.971 789.032 958.231 789.05 958.51L789.9 982.11H794.82L795.71 958.51C795.728 958.231 795.854 957.971 796.062 957.784C796.269 957.597 796.541 957.499 796.82 957.51C796.967 957.493 797.115 957.509 797.254 957.557C797.394 957.604 797.521 957.681 797.627 957.784C797.733 957.886 797.815 958.01 797.868 958.148C797.92 958.286 797.941 958.433 797.93 958.58L797.01 982.11H800.48C800.745 982.11 801 982.215 801.187 982.403C801.375 982.59 801.48 982.845 801.48 983.11C801.48 983.375 801.375 983.63 801.187 983.817C801 984.005 800.745 984.11 800.48 984.11H784.2ZM784.57 955.87C784.305 955.87 784.051 955.765 783.863 955.577C783.676 955.39 783.57 955.135 783.57 954.87C783.57 954.605 783.676 954.35 783.863 954.163C784.051 953.975 784.305 953.87 784.57 953.87H800.12C800.385 953.87 800.64 953.975 800.827 954.163C801.015 954.35 801.12 954.605 801.12 954.87C801.12 955.135 801.015 955.39 800.827 955.577C800.64 955.765 800.385 955.87 800.12 955.87H784.57ZM805.44 984.87V968.87H800.52C800.255 968.87 800.001 968.765 799.813 968.577C799.625 968.39 799.52 968.135 799.52 967.87C799.52 967.605 799.625 967.35 799.813 967.163C800.001 966.975 800.255 966.87 800.52 966.87H805.44V953.14C805.44 952.846 805.557 952.563 805.765 952.355C805.974 952.147 806.256 952.03 806.55 952.03C806.845 952.03 807.127 952.147 807.335 952.355C807.543 952.563 807.66 952.846 807.66 953.14V984.92C807.66 985.214 807.543 985.497 807.335 985.705C807.127 985.913 806.845 986.03 806.55 986.03C806.256 986.03 805.974 985.913 805.765 985.705C805.557 985.497 805.44 985.214 805.44 984.92V984.87ZM812.73 984.87V953.16C812.73 952.866 812.847 952.583 813.055 952.375C813.264 952.167 813.546 952.05 813.84 952.05C814.134 952.05 814.417 952.167 814.625 952.375C814.833 952.583 814.95 952.866 814.95 953.16V984.92C814.95 985.214 814.833 985.497 814.625 985.705C814.417 985.913 814.134 986.03 813.84 986.03C813.546 986.03 813.264 985.913 813.055 985.705C812.847 985.497 812.73 985.214 812.73 984.92V984.87Z" fill="#182E6A"/>
<path d="M821.021 963.92V960.15C821.021 954.93 825.38 952.23 830.71 952.23C836.04 952.23 840.41 954.93 840.41 960.15V963.92C840.41 969.18 836.08 971.92 830.71 971.92C825.34 971.92 821.021 969.16 821.021 963.92ZM824.35 985.83C824.191 985.845 824.031 985.825 823.88 985.772C823.729 985.718 823.592 985.632 823.479 985.519C823.365 985.406 823.278 985.27 823.223 985.12C823.168 984.97 823.146 984.809 823.16 984.65V975.58C823.159 975.438 823.189 975.297 823.246 975.167C823.304 975.038 823.388 974.921 823.494 974.827C823.6 974.732 823.725 974.661 823.861 974.619C823.996 974.576 824.139 974.563 824.281 974.58C824.42 974.566 824.561 974.581 824.694 974.625C824.827 974.669 824.949 974.741 825.053 974.835C825.157 974.929 825.24 975.044 825.296 975.173C825.352 975.301 825.381 975.44 825.38 975.58V983.92H851.44C851.706 983.92 851.96 984.025 852.147 984.213C852.335 984.4 852.44 984.655 852.44 984.92C852.44 985.185 852.335 985.44 852.147 985.627C851.96 985.815 851.706 985.92 851.44 985.92L824.35 985.83ZM838.19 963.83V960.24C838.19 956.24 835.01 954.13 830.75 954.13C826.49 954.13 823.24 956.28 823.24 960.24V963.83C823.24 967.83 826.46 969.94 830.75 969.94C835.04 969.94 838.19 967.79 838.19 963.83ZM849.36 975.52V953.17C849.36 952.876 849.477 952.593 849.686 952.385C849.894 952.177 850.176 952.06 850.47 952.06C850.765 952.06 851.047 952.177 851.255 952.385C851.464 952.593 851.581 952.876 851.581 953.17V975.52C851.581 975.814 851.464 976.097 851.255 976.305C851.047 976.513 850.765 976.63 850.47 976.63C850.176 976.63 849.894 976.513 849.686 976.305C849.477 976.097 849.36 975.814 849.36 975.52Z" fill="#182E6A"/>
<path d="M150.28 1018.46C149.58 1018.46 149.21 1018.02 149.28 1017.46C149.35 1016.9 149.73 1016.57 150.47 1016.57H155.57L157.98 1007.39C158.035 1007.15 158.18 1006.93 158.385 1006.79C158.591 1006.65 158.842 1006.59 159.09 1006.62C159.23 1006.61 159.37 1006.64 159.497 1006.7C159.624 1006.76 159.733 1006.85 159.814 1006.96C159.896 1007.08 159.946 1007.21 159.961 1007.35C159.976 1007.49 159.955 1007.63 159.9 1007.76L157.65 1016.57H165.27L167.64 1007.39C167.695 1007.15 167.833 1006.95 168.03 1006.8C168.227 1006.66 168.469 1006.6 168.71 1006.62C169.34 1006.62 169.78 1006.99 169.6 1007.76L167.34 1016.57H172.34C172.477 1016.55 172.617 1016.57 172.745 1016.62C172.874 1016.67 172.987 1016.75 173.073 1016.86C173.159 1016.97 173.215 1017.1 173.236 1017.23C173.256 1017.37 173.241 1017.51 173.19 1017.64C173.139 1017.87 173.012 1018.07 172.829 1018.21C172.647 1018.35 172.421 1018.43 172.19 1018.42H166.82L164.12 1028.85H169.23C169.371 1028.83 169.514 1028.85 169.646 1028.91C169.777 1028.96 169.893 1029.05 169.982 1029.16C170.071 1029.27 170.13 1029.4 170.154 1029.54C170.179 1029.68 170.167 1029.83 170.12 1029.96C170.069 1030.19 169.942 1030.39 169.76 1030.53C169.577 1030.67 169.351 1030.75 169.12 1030.74H163.68L161.2 1040.36C161.141 1040.58 161.011 1040.77 160.829 1040.9C160.648 1041.04 160.426 1041.11 160.2 1041.1C159.5 1041.1 159.09 1040.77 159.28 1039.99L161.57 1030.74H153.96L151.45 1040.36C151.391 1040.58 151.261 1040.77 151.079 1040.9C150.898 1041.04 150.676 1041.11 150.45 1041.1C149.78 1041.1 149.33 1040.77 149.52 1039.99L151.85 1030.74H147.15C146.45 1030.74 146.08 1030.3 146.15 1029.74C146.22 1029.18 146.56 1028.81 147.34 1028.81H152.34L155.07 1018.38L150.28 1018.46ZM157.17 1018.46L154.46 1028.92H162.05L164.75 1018.49L157.17 1018.46Z" fill="#182E6A"/>
<path d="M176.331 1037.41C176.324 1037.21 176.373 1037.01 176.472 1036.83C176.57 1036.66 176.715 1036.51 176.89 1036.41C180.89 1034.12 186.991 1028.05 186.991 1020.32V1011.14H178.441C178.175 1011.14 177.921 1011.03 177.733 1010.85C177.546 1010.66 177.441 1010.41 177.441 1010.14C177.441 1009.87 177.546 1009.62 177.733 1009.43C177.921 1009.25 178.175 1009.14 178.441 1009.14H197.761C198.026 1009.14 198.28 1009.25 198.468 1009.43C198.655 1009.62 198.761 1009.87 198.761 1010.14C198.761 1010.41 198.655 1010.66 198.468 1010.85C198.28 1011.03 198.026 1011.14 197.761 1011.14H189.211V1020.32C189.211 1028.05 195.31 1034.12 199.35 1036.41C199.523 1036.51 199.666 1036.66 199.763 1036.83C199.859 1037.01 199.907 1037.21 199.9 1037.41C199.89 1037.7 199.769 1037.97 199.562 1038.17C199.355 1038.37 199.078 1038.48 198.791 1038.48C198.597 1038.48 198.405 1038.43 198.241 1038.33C193.981 1035.89 189.17 1030.63 188.1 1025.33C187.03 1030.65 182.251 1035.91 177.961 1038.33C177.797 1038.43 177.611 1038.48 177.421 1038.48C177.232 1038.48 177.045 1038.43 176.88 1038.34C176.714 1038.25 176.577 1038.11 176.48 1037.95C176.384 1037.79 176.332 1037.6 176.331 1037.41ZM205.491 1039.88V1008.17C205.491 1007.88 205.608 1007.59 205.816 1007.39C206.024 1007.18 206.306 1007.06 206.6 1007.06C206.895 1007.06 207.177 1007.18 207.385 1007.39C207.594 1007.59 207.711 1007.88 207.711 1008.17V1039.92C207.711 1040.21 207.594 1040.5 207.385 1040.7C207.177 1040.91 206.895 1041.03 206.6 1041.03C206.306 1041.03 206.024 1040.91 205.816 1040.7C205.608 1040.5 205.491 1040.21 205.491 1039.92V1039.88Z" fill="#182E6A"/>
<path d="M228.72 1040.25V1027.56H213.96C213.695 1027.56 213.44 1027.45 213.253 1027.27C213.065 1027.08 212.96 1026.83 212.96 1026.56C212.96 1026.29 213.065 1026.04 213.253 1025.85C213.44 1025.67 213.695 1025.56 213.96 1025.56H245.7C245.965 1025.56 246.219 1025.67 246.407 1025.85C246.595 1026.04 246.7 1026.29 246.7 1026.56C246.7 1026.83 246.595 1027.08 246.407 1027.27C246.219 1027.45 245.965 1027.56 245.7 1027.56H230.96V1040.25C230.96 1040.54 230.843 1040.83 230.635 1041.03C230.427 1041.24 230.144 1041.36 229.85 1041.36C229.555 1041.36 229.273 1041.24 229.065 1041.03C228.857 1040.83 228.74 1040.54 228.74 1040.25H228.72ZM239.86 1021.79C240.766 1017.97 241.384 1014.08 241.71 1010.17H216.44C216.175 1010.17 215.92 1010.06 215.733 1009.88C215.545 1009.69 215.44 1009.44 215.44 1009.17C215.44 1008.9 215.545 1008.65 215.733 1008.46C215.92 1008.28 216.175 1008.17 216.44 1008.17H242.96C243.74 1008.17 244.11 1008.61 244.07 1009.42C243.712 1013.63 243.044 1017.81 242.07 1021.93C242.009 1022.19 241.858 1022.43 241.642 1022.59C241.426 1022.75 241.16 1022.83 240.89 1022.82C240.23 1022.92 239.68 1022.42 239.86 1021.79Z" fill="#182E6A"/>
<path d="M252.661 1024.53C252.501 1024.54 252.341 1024.52 252.191 1024.47C252.04 1024.41 251.904 1024.33 251.792 1024.21C251.679 1024.1 251.593 1023.96 251.539 1023.81C251.485 1023.66 251.465 1023.5 251.481 1023.34V1008.84C251.481 1008.55 251.598 1008.26 251.806 1008.06C252.014 1007.85 252.296 1007.73 252.59 1007.73C252.885 1007.73 253.167 1007.85 253.375 1008.06C253.584 1008.26 253.701 1008.55 253.701 1008.84V1013.84H267.281V1008.84C267.281 1008.55 267.397 1008.26 267.606 1008.06C267.814 1007.85 268.096 1007.73 268.39 1007.73C268.685 1007.73 268.967 1007.85 269.175 1008.06C269.384 1008.26 269.501 1008.55 269.501 1008.84V1023.34C269.514 1023.5 269.493 1023.66 269.438 1023.81C269.383 1023.96 269.296 1024.1 269.182 1024.21C269.069 1024.33 268.932 1024.41 268.782 1024.47C268.631 1024.52 268.47 1024.54 268.311 1024.53H252.661ZM259.581 1040.99C255.581 1040.99 252.37 1038.44 252.37 1034.67C252.37 1030.9 255.551 1028.38 259.581 1028.38H274.491C278.491 1028.38 281.711 1030.89 281.711 1034.67C281.711 1038.45 278.531 1040.99 274.491 1040.99H259.581ZM253.701 1022.6H267.281V1015.76H253.701V1022.6ZM274.38 1039.07C277.23 1039.07 279.491 1037.33 279.491 1034.67C279.491 1032.01 277.23 1030.3 274.38 1030.3H259.691C256.841 1030.3 254.59 1032 254.59 1034.67C254.59 1037.34 256.841 1039.07 259.691 1039.07H274.38ZM278.38 1026.07V1008.07C278.38 1007.78 278.498 1007.49 278.706 1007.29C278.914 1007.08 279.196 1006.96 279.491 1006.96C279.785 1006.96 280.067 1007.08 280.276 1007.29C280.484 1007.49 280.6 1007.78 280.6 1008.07V1014.88H284.781C285.046 1014.88 285.3 1014.99 285.488 1015.17C285.675 1015.36 285.781 1015.61 285.781 1015.88C285.781 1016.15 285.675 1016.4 285.488 1016.59C285.3 1016.77 285.046 1016.88 284.781 1016.88H280.6V1026.09C280.6 1026.38 280.484 1026.67 280.276 1026.87C280.067 1027.08 279.785 1027.2 279.491 1027.2C279.196 1027.2 278.914 1027.08 278.706 1026.87C278.498 1026.67 278.38 1026.38 278.38 1026.09V1026.07Z" fill="#182E6A"/>
<path d="M295.96 1039.63C297.284 1036.08 298.18 1032.39 298.63 1028.63H287.71C287.445 1028.63 287.19 1028.52 287.003 1028.34C286.815 1028.15 286.71 1027.9 286.71 1027.63C286.71 1027.36 286.815 1027.11 287.003 1026.92C287.19 1026.74 287.445 1026.63 287.71 1026.63H312.17C312.435 1026.63 312.689 1026.74 312.877 1026.92C313.064 1027.11 313.17 1027.36 313.17 1027.63C313.17 1027.9 313.064 1028.15 312.877 1028.34C312.689 1028.52 312.435 1028.63 312.17 1028.63H300.96C300.476 1032.51 299.543 1036.32 298.18 1039.99C298.107 1040.23 297.963 1040.45 297.767 1040.6C297.57 1040.76 297.331 1040.86 297.08 1040.88C296.915 1040.91 296.747 1040.89 296.589 1040.83C296.432 1040.78 296.292 1040.68 296.18 1040.56C296.069 1040.44 295.99 1040.28 295.952 1040.12C295.913 1039.96 295.916 1039.79 295.96 1039.63ZM296.41 1022.86C292.22 1022.86 289.27 1019.46 289.27 1015.28C289.27 1011.1 292.22 1007.73 296.41 1007.73H303.29C307.47 1007.73 310.43 1011.1 310.43 1015.28C310.43 1019.46 307.43 1022.86 303.29 1022.86H296.41ZM303.1 1020.94C306.03 1020.94 308.21 1018.31 308.21 1015.28C308.246 1014.57 308.143 1013.87 307.905 1013.2C307.668 1012.54 307.301 1011.93 306.826 1011.4C306.351 1010.88 305.777 1010.45 305.138 1010.15C304.498 1009.85 303.806 1009.68 303.1 1009.65H296.63C295.224 1009.78 293.919 1010.43 292.969 1011.48C292.018 1012.52 291.492 1013.88 291.492 1015.29C291.492 1016.71 292.018 1018.07 292.969 1019.11C293.919 1020.16 295.224 1020.81 296.63 1020.94H303.1ZM316.8 1039.88V1008.17C316.799 1008.03 316.828 1007.89 316.885 1007.76C316.941 1007.63 317.023 1007.52 317.127 1007.42C317.231 1007.33 317.353 1007.26 317.487 1007.22C317.62 1007.17 317.76 1007.16 317.9 1007.17C318.039 1007.16 318.179 1007.18 318.31 1007.23C318.442 1007.27 318.563 1007.34 318.667 1007.44C318.772 1007.53 318.856 1007.64 318.917 1007.77C318.977 1007.89 319.012 1008.03 319.02 1008.17V1039.92C319.012 1040.06 318.977 1040.2 318.917 1040.32C318.856 1040.45 318.772 1040.56 318.667 1040.65C318.563 1040.75 318.442 1040.82 318.31 1040.86C318.179 1040.91 318.039 1040.93 317.9 1040.92C317.76 1040.94 317.618 1040.92 317.483 1040.88C317.349 1040.83 317.225 1040.76 317.121 1040.67C317.016 1040.57 316.932 1040.46 316.875 1040.33C316.818 1040.2 316.789 1040.06 316.79 1039.92L316.8 1039.88Z" fill="#182E6A"/>
<path d="M325.77 1037.92V1010.13C325.751 1009.97 325.769 1009.8 325.822 1009.65C325.875 1009.5 325.962 1009.36 326.076 1009.24C326.19 1009.12 326.329 1009.04 326.482 1008.98C326.635 1008.92 326.798 1008.9 326.96 1008.92H339.24C339.505 1008.92 339.76 1009.03 339.947 1009.21C340.135 1009.4 340.24 1009.65 340.24 1009.92C340.24 1010.19 340.135 1010.44 339.947 1010.63C339.76 1010.81 339.505 1010.92 339.24 1010.92H327.96V1037.16C332.087 1037.09 336.19 1036.51 340.18 1035.46C340.315 1035.43 340.454 1035.44 340.588 1035.47C340.721 1035.5 340.845 1035.57 340.951 1035.66C341.056 1035.74 341.14 1035.86 341.197 1035.98C341.254 1036.11 341.283 1036.24 341.28 1036.38C341.275 1036.59 341.205 1036.79 341.079 1036.96C340.954 1037.12 340.779 1037.25 340.58 1037.31C336.124 1038.43 331.554 1039.04 326.96 1039.12C326.799 1039.14 326.635 1039.12 326.482 1039.06C326.329 1039.01 326.19 1038.92 326.076 1038.81C325.961 1038.69 325.875 1038.55 325.822 1038.4C325.769 1038.24 325.751 1038.08 325.77 1037.92ZM354.19 1039.92V1023.79H346.68V1040.11C346.68 1040.4 346.563 1040.69 346.355 1040.89C346.147 1041.1 345.865 1041.22 345.57 1041.22C345.276 1041.22 344.993 1041.1 344.785 1040.89C344.577 1040.69 344.46 1040.4 344.46 1040.11V1008.21C344.46 1007.92 344.577 1007.63 344.785 1007.43C344.993 1007.22 345.276 1007.1 345.57 1007.1C345.865 1007.1 346.147 1007.22 346.355 1007.43C346.563 1007.63 346.68 1007.92 346.68 1008.21V1021.87H354.19V1008.21C354.19 1007.92 354.307 1007.63 354.515 1007.43C354.723 1007.22 355.006 1007.1 355.3 1007.1C355.595 1007.1 355.877 1007.22 356.085 1007.43C356.293 1007.63 356.41 1007.92 356.41 1008.21V1039.92C356.41 1040.21 356.293 1040.5 356.085 1040.7C355.877 1040.91 355.595 1041.03 355.3 1041.03C355.006 1041.03 354.723 1040.91 354.515 1040.7C354.307 1040.5 354.19 1040.21 354.19 1039.92Z" fill="#182E6A"/>
<path d="M377.76 1009.36C377.76 1019.68 371.58 1024.2 363.26 1025.08C363.122 1025.09 362.983 1025.07 362.853 1025.03C362.722 1024.98 362.602 1024.91 362.5 1024.82C362.399 1024.72 362.318 1024.61 362.263 1024.48C362.208 1024.36 362.179 1024.22 362.18 1024.08C362.177 1023.84 362.262 1023.6 362.418 1023.42C362.574 1023.24 362.791 1023.12 363.03 1023.08C367.88 1022.56 371.8 1020.64 373.88 1016.97H363.7C363.435 1016.97 363.18 1016.86 362.993 1016.68C362.805 1016.49 362.7 1016.24 362.7 1015.97C362.7 1015.7 362.805 1015.45 362.993 1015.26C363.18 1015.08 363.435 1014.97 363.7 1014.97H374.76C375.306 1013.32 375.57 1011.6 375.54 1009.86H363.33C363.065 1009.86 362.81 1009.75 362.623 1009.57C362.435 1009.38 362.33 1009.13 362.33 1008.86C362.33 1008.59 362.435 1008.34 362.623 1008.15C362.81 1007.97 363.065 1007.86 363.33 1007.86H376.76C376.894 1007.85 377.03 1007.87 377.157 1007.91C377.283 1007.96 377.399 1008.03 377.494 1008.13C377.59 1008.22 377.663 1008.34 377.709 1008.46C377.755 1008.59 377.772 1008.73 377.76 1008.86V1009.36ZM392.23 1028.27C392.389 1028.25 392.549 1028.27 392.699 1028.33C392.849 1028.38 392.986 1028.47 393.099 1028.58C393.212 1028.69 393.298 1028.83 393.352 1028.98C393.405 1029.13 393.425 1029.29 393.41 1029.45V1039.92C393.41 1040.21 393.293 1040.5 393.085 1040.7C392.877 1040.91 392.594 1041.03 392.3 1041.03C392.005 1041.03 391.723 1040.91 391.515 1040.7C391.307 1040.5 391.19 1040.21 391.19 1039.92V1039.7L365.25 1040.81C365.088 1040.83 364.923 1040.82 364.768 1040.77C364.613 1040.72 364.471 1040.63 364.353 1040.52C364.236 1040.4 364.146 1040.26 364.09 1040.11C364.034 1039.96 364.013 1039.79 364.03 1039.63V1029.49C364.016 1029.33 364.037 1029.17 364.092 1029.02C364.147 1028.87 364.235 1028.73 364.348 1028.62C364.462 1028.51 364.599 1028.42 364.749 1028.37C364.9 1028.31 365.061 1028.29 365.22 1028.31L392.23 1028.27ZM366.23 1038.77L391.17 1037.77V1030.22H366.23V1038.77ZM393.39 1008.17V1025.38C393.39 1025.67 393.273 1025.96 393.065 1026.16C392.857 1026.37 392.574 1026.49 392.28 1026.49C391.985 1026.49 391.703 1026.37 391.495 1026.16C391.287 1025.96 391.17 1025.67 391.17 1025.38V1016.98H384.59V1025.38C384.563 1025.66 384.435 1025.92 384.228 1026.1C384.022 1026.29 383.753 1026.39 383.475 1026.39C383.196 1026.39 382.927 1026.29 382.721 1026.1C382.515 1025.92 382.386 1025.66 382.36 1025.38V1008.17C382.386 1007.89 382.515 1007.63 382.721 1007.45C382.927 1007.26 383.196 1007.16 383.475 1007.16C383.753 1007.16 384.022 1007.26 384.228 1007.45C384.435 1007.63 384.563 1007.89 384.59 1008.17V1015.06H391.17V1008.17C391.17 1007.88 391.287 1007.59 391.495 1007.39C391.703 1007.18 391.985 1007.06 392.28 1007.06C392.574 1007.06 392.857 1007.18 393.065 1007.39C393.273 1007.59 393.39 1007.88 393.39 1008.17Z" fill="#182E6A"/>
<path d="M399.66 1039.11C399.395 1039.11 399.141 1039 398.953 1038.82C398.766 1038.63 398.66 1038.38 398.66 1038.11C398.66 1037.84 398.766 1037.59 398.953 1037.4C399.141 1037.22 399.395 1037.11 399.66 1037.11H403.18L402.29 1013.58C402.279 1013.43 402.3 1013.29 402.353 1013.15C402.405 1013.01 402.487 1012.89 402.593 1012.78C402.699 1012.68 402.827 1012.6 402.966 1012.56C403.106 1012.51 403.254 1012.49 403.4 1012.51C403.679 1012.5 403.951 1012.6 404.159 1012.78C404.366 1012.97 404.492 1013.23 404.51 1013.51L405.36 1037.11H410.28L411.17 1013.51C411.188 1013.23 411.314 1012.97 411.522 1012.78C411.729 1012.6 412.001 1012.5 412.28 1012.51C412.427 1012.49 412.575 1012.51 412.714 1012.56C412.854 1012.6 412.981 1012.68 413.087 1012.78C413.193 1012.89 413.275 1013.01 413.328 1013.15C413.38 1013.29 413.401 1013.43 413.39 1013.58L412.46 1037.11H415.96C416.225 1037.11 416.48 1037.22 416.667 1037.4C416.855 1037.59 416.96 1037.84 416.96 1038.11C416.96 1038.38 416.855 1038.63 416.667 1038.82C416.48 1039 416.225 1039.11 415.96 1039.11H399.66ZM400.03 1010.87C399.765 1010.87 399.511 1010.76 399.323 1010.58C399.135 1010.39 399.03 1010.14 399.03 1009.87C399.03 1009.6 399.135 1009.35 399.323 1009.16C399.511 1008.98 399.765 1008.87 400.03 1008.87H415.57C415.836 1008.87 416.09 1008.98 416.277 1009.16C416.465 1009.35 416.57 1009.6 416.57 1009.87C416.57 1010.14 416.465 1010.39 416.277 1010.58C416.09 1010.76 415.836 1010.87 415.57 1010.87H400.03ZM420.9 1039.87V1023.87H415.96C415.695 1023.87 415.441 1023.76 415.253 1023.58C415.066 1023.39 414.96 1023.14 414.96 1022.87C414.96 1022.6 415.066 1022.35 415.253 1022.16C415.441 1021.98 415.695 1021.87 415.96 1021.87H420.88V1008.14C420.88 1007.85 420.997 1007.56 421.205 1007.36C421.413 1007.15 421.696 1007.03 421.99 1007.03C422.285 1007.03 422.567 1007.15 422.775 1007.36C422.983 1007.56 423.1 1007.85 423.1 1008.14V1039.92C423.1 1040.21 422.983 1040.5 422.775 1040.7C422.567 1040.91 422.285 1041.03 421.99 1041.03C421.696 1041.03 421.413 1040.91 421.205 1040.7C420.997 1040.5 420.88 1040.21 420.88 1039.92L420.9 1039.87ZM428.19 1039.87V1008.16C428.19 1007.87 428.307 1007.58 428.515 1007.38C428.724 1007.17 429.006 1007.05 429.3 1007.05C429.595 1007.05 429.877 1007.17 430.085 1007.38C430.293 1007.58 430.41 1007.87 430.41 1008.16V1039.92C430.41 1040.21 430.293 1040.5 430.085 1040.7C429.877 1040.91 429.595 1041.03 429.3 1041.03C429.006 1041.03 428.724 1040.91 428.515 1040.7C428.307 1040.5 428.19 1040.21 428.19 1039.92V1039.87Z" fill="#182E6A"/>
<path d="M436.48 1018.92V1015.15C436.48 1009.93 440.84 1007.23 446.17 1007.23C451.5 1007.23 455.87 1009.93 455.87 1015.15V1018.92C455.87 1024.18 451.54 1026.92 446.17 1026.92C440.8 1026.92 436.48 1024.16 436.48 1018.92ZM439.811 1040.83C439.651 1040.85 439.491 1040.83 439.34 1040.77C439.189 1040.72 439.052 1040.63 438.939 1040.52C438.825 1040.41 438.738 1040.27 438.683 1040.12C438.628 1039.97 438.606 1039.81 438.62 1039.65V1030.58C438.657 1030.31 438.789 1030.06 438.993 1029.89C439.197 1029.71 439.459 1029.61 439.73 1029.61C440.002 1029.61 440.264 1029.71 440.468 1029.89C440.672 1030.06 440.804 1030.31 440.84 1030.58V1038.92H466.84C467.106 1038.92 467.36 1039.03 467.548 1039.21C467.735 1039.4 467.84 1039.65 467.84 1039.92C467.84 1040.19 467.735 1040.44 467.548 1040.63C467.36 1040.81 467.106 1040.92 466.84 1040.92L439.811 1040.83ZM453.65 1018.83V1015.24C453.65 1011.24 450.46 1009.13 446.21 1009.13C441.96 1009.13 438.7 1011.28 438.7 1015.24V1018.83C438.7 1022.83 441.92 1024.94 446.21 1024.94C450.5 1024.94 453.65 1022.79 453.65 1018.83ZM464.821 1030.52V1008.17C464.821 1007.88 464.937 1007.59 465.146 1007.39C465.354 1007.18 465.636 1007.06 465.93 1007.06C466.225 1007.06 466.507 1007.18 466.715 1007.39C466.923 1007.59 467.041 1007.88 467.041 1008.17V1030.52C467.041 1030.81 466.923 1031.1 466.715 1031.3C466.507 1031.51 466.225 1031.63 465.93 1031.63C465.636 1031.63 465.354 1031.51 465.146 1031.3C464.937 1031.1 464.821 1030.81 464.821 1030.52Z" fill="#182E6A"/>
<path d="M486.72 1018.46C486.02 1018.46 485.65 1018.02 485.72 1017.46C485.79 1016.9 486.17 1016.57 486.91 1016.57H492.02L494.42 1007.39C494.475 1007.15 494.62 1006.93 494.825 1006.79C495.031 1006.65 495.282 1006.59 495.53 1006.62C495.67 1006.61 495.81 1006.64 495.937 1006.7C496.064 1006.76 496.173 1006.85 496.254 1006.96C496.336 1007.08 496.386 1007.21 496.401 1007.35C496.416 1007.49 496.395 1007.63 496.34 1007.76L494.09 1016.57H501.71L504.08 1007.39C504.135 1007.15 504.273 1006.95 504.47 1006.8C504.667 1006.66 504.909 1006.6 505.15 1006.62C505.78 1006.62 506.22 1006.99 506.04 1007.76L503.78 1016.57H508.78C508.917 1016.55 509.057 1016.57 509.185 1016.62C509.314 1016.67 509.427 1016.75 509.513 1016.86C509.599 1016.97 509.655 1017.1 509.676 1017.23C509.696 1017.37 509.68 1017.51 509.63 1017.64C509.579 1017.87 509.452 1018.07 509.27 1018.21C509.087 1018.35 508.861 1018.43 508.63 1018.42H503.26L500.56 1028.85H505.67C505.811 1028.83 505.954 1028.85 506.086 1028.91C506.217 1028.96 506.333 1029.05 506.422 1029.16C506.511 1029.27 506.57 1029.4 506.594 1029.54C506.619 1029.68 506.607 1029.83 506.56 1029.96C506.509 1030.19 506.382 1030.39 506.2 1030.53C506.017 1030.67 505.791 1030.75 505.56 1030.74H500.12L497.64 1040.36C497.581 1040.58 497.451 1040.77 497.269 1040.9C497.088 1041.04 496.866 1041.11 496.64 1041.1C495.94 1041.1 495.53 1040.77 495.71 1039.99L498.01 1030.74H490.42L487.91 1040.36C487.851 1040.58 487.721 1040.77 487.539 1040.9C487.358 1041.04 487.136 1041.11 486.91 1041.1C486.24 1041.1 485.8 1040.77 485.98 1039.99L488.31 1030.74H483.61C482.91 1030.74 482.54 1030.3 482.61 1029.74C482.68 1029.18 483.02 1028.81 483.8 1028.81H488.75L491.49 1018.38L486.72 1018.46ZM493.61 1018.46L490.9 1028.89H498.49L501.19 1018.46H493.61Z" fill="#182E6A"/>
<path d="M512.96 1036.63C512.96 1036.47 512.996 1036.31 513.065 1036.16C513.134 1036.01 513.235 1035.88 513.36 1035.78C518.43 1031.56 518.95 1024.23 518.95 1010.87H514.29C514.025 1010.87 513.77 1010.76 513.583 1010.58C513.395 1010.39 513.29 1010.14 513.29 1009.87C513.29 1009.6 513.395 1009.35 513.583 1009.16C513.77 1008.98 514.025 1008.87 514.29 1008.87H519.8C519.988 1008.85 520.177 1008.88 520.354 1008.94C520.532 1009.01 520.692 1009.11 520.823 1009.25C520.955 1009.38 521.054 1009.54 521.114 1009.72C521.174 1009.9 521.193 1010.09 521.17 1010.28V1010.61C521.17 1024.23 520.54 1032.03 514.84 1037.33C514.625 1037.51 514.353 1037.62 514.07 1037.62C513.795 1037.62 513.528 1037.52 513.322 1037.34C513.117 1037.16 512.987 1036.9 512.96 1036.63ZM521.43 1038.37C521.444 1038.06 521.577 1037.77 521.8 1037.55C526.57 1033.08 528.02 1026.34 528.02 1010.87H523.35C523.085 1010.87 522.83 1010.76 522.643 1010.58C522.455 1010.39 522.35 1010.14 522.35 1009.87C522.35 1009.6 522.455 1009.35 522.643 1009.16C522.83 1008.98 523.085 1008.87 523.35 1008.87H528.87C529.058 1008.85 529.247 1008.88 529.424 1008.94C529.601 1009.01 529.762 1009.11 529.893 1009.25C530.025 1009.38 530.124 1009.54 530.184 1009.72C530.244 1009.9 530.263 1010.09 530.24 1010.28V1010.61C530.24 1026.61 528.68 1033.74 523.32 1039.06C523.113 1039.27 522.834 1039.39 522.54 1039.4C522.258 1039.41 521.984 1039.3 521.777 1039.11C521.57 1038.92 521.445 1038.65 521.43 1038.37ZM534.49 1039.88V1008.17C534.49 1007.88 534.607 1007.59 534.815 1007.39C535.023 1007.18 535.305 1007.06 535.6 1007.06C535.894 1007.06 536.177 1007.18 536.385 1007.39C536.593 1007.59 536.71 1007.88 536.71 1008.17V1021.83H542.63V1008.17C542.63 1007.88 542.747 1007.59 542.955 1007.39C543.163 1007.18 543.446 1007.06 543.74 1007.06C544.034 1007.06 544.317 1007.18 544.525 1007.39C544.733 1007.59 544.85 1007.88 544.85 1008.17V1039.92C544.85 1040.21 544.733 1040.5 544.525 1040.7C544.317 1040.91 544.034 1041.03 543.74 1041.03C543.446 1041.03 543.163 1040.91 542.955 1040.7C542.747 1040.5 542.63 1040.21 542.63 1039.92V1023.79H536.71V1039.92C536.71 1040.21 536.593 1040.5 536.385 1040.7C536.177 1040.91 535.894 1041.03 535.6 1041.03C535.305 1041.03 535.023 1040.91 534.815 1040.7C534.607 1040.5 534.49 1040.21 534.49 1039.92V1039.88Z" fill="#182E6A"/>
<path d="M582.19 1021.97C582.456 1021.97 582.71 1022.08 582.897 1022.26C583.085 1022.45 583.19 1022.7 583.19 1022.97C583.19 1023.24 583.085 1023.49 582.897 1023.68C582.71 1023.86 582.456 1023.97 582.19 1023.97H550.44C550.175 1023.97 549.921 1023.86 549.733 1023.68C549.546 1023.49 549.44 1023.24 549.44 1022.97C549.44 1022.7 549.546 1022.45 549.733 1022.26C549.921 1022.08 550.175 1021.97 550.44 1021.97H559.21C560.716 1018.04 561.818 1013.96 562.5 1009.8H552.551C552.285 1009.8 552.031 1009.69 551.843 1009.51C551.656 1009.32 551.551 1009.07 551.551 1008.8C551.551 1008.53 551.656 1008.28 551.843 1008.09C552.031 1007.91 552.285 1007.8 552.551 1007.8H563.87C564.68 1007.8 564.98 1008.28 564.87 1009.13C564.147 1013.48 563.019 1017.75 561.5 1021.89H575.15C576.526 1017.94 577.481 1013.87 578 1009.72H567.61C567.345 1009.72 567.091 1009.61 566.903 1009.43C566.716 1009.24 566.61 1008.99 566.61 1008.72C566.61 1008.45 566.716 1008.2 566.903 1008.01C567.091 1007.83 567.345 1007.72 567.61 1007.72H579.34C580.15 1007.72 580.56 1008.16 580.41 1008.97C579.837 1013.34 578.832 1017.64 577.41 1021.81L582.19 1021.97ZM581.561 1039.81C581.561 1040.08 581.455 1040.33 581.268 1040.52C581.08 1040.7 580.826 1040.81 580.561 1040.81C572.381 1040.59 567.501 1037.26 566.311 1033.81C565.131 1037.25 560.241 1040.58 552.061 1040.81C551.795 1040.81 551.541 1040.7 551.353 1040.52C551.166 1040.33 551.061 1040.08 551.061 1039.81C551.06 1039.56 551.154 1039.32 551.324 1039.13C551.495 1038.94 551.729 1038.83 551.98 1038.81C559.86 1038.59 565.19 1035.18 565.19 1030.63V1029.41C565.227 1029.14 565.359 1028.89 565.563 1028.72C565.767 1028.54 566.029 1028.44 566.301 1028.44C566.572 1028.44 566.834 1028.54 567.038 1028.72C567.242 1028.89 567.374 1029.14 567.41 1029.41V1030.63C567.41 1035.18 572.74 1038.63 580.62 1038.81C580.875 1038.83 581.114 1038.94 581.289 1039.12C581.464 1039.31 581.561 1039.55 581.561 1039.81Z" fill="#182E6A"/>
<path d="M587.811 1012.54C587.545 1012.54 587.291 1012.43 587.103 1012.25C586.916 1012.06 586.811 1011.81 586.811 1011.54C586.811 1011.27 586.916 1011.02 587.103 1010.83C587.291 1010.65 587.545 1010.54 587.811 1010.54H596.811V1007.13C596.847 1006.86 596.979 1006.61 597.183 1006.44C597.387 1006.26 597.649 1006.16 597.92 1006.16C598.192 1006.16 598.454 1006.26 598.658 1006.44C598.862 1006.61 598.994 1006.86 599.031 1007.13V1010.54H608.031C608.296 1010.54 608.55 1010.65 608.738 1010.83C608.925 1011.02 609.031 1011.27 609.031 1011.54C609.031 1011.81 608.925 1012.06 608.738 1012.25C608.55 1012.43 608.296 1012.54 608.031 1012.54H587.811ZM593.811 1015.31H602.061C605.311 1015.31 607.87 1017.79 607.87 1021.49C607.87 1025.19 605.311 1027.71 602.061 1027.71H593.811C592.227 1027.62 590.738 1026.93 589.649 1025.77C588.559 1024.62 587.953 1023.1 587.953 1021.51C587.953 1019.92 588.559 1018.4 589.649 1017.25C590.738 1016.09 592.227 1015.4 593.811 1015.31ZM590.99 1040.81C590.832 1040.83 590.671 1040.81 590.521 1040.75C590.371 1040.7 590.234 1040.61 590.122 1040.5C590.009 1040.39 589.922 1040.25 589.869 1040.1C589.815 1039.95 589.795 1039.79 589.811 1039.63V1031.23C589.847 1030.96 589.979 1030.71 590.183 1030.54C590.387 1030.36 590.649 1030.26 590.92 1030.26C591.192 1030.26 591.454 1030.36 591.658 1030.54C591.862 1030.71 591.994 1030.96 592.031 1031.23V1038.92H617.031C617.296 1038.92 617.55 1039.03 617.738 1039.21C617.925 1039.4 618.031 1039.65 618.031 1039.92C618.031 1040.19 617.925 1040.44 617.738 1040.63C617.55 1040.81 617.296 1040.92 617.031 1040.92L590.99 1040.81ZM601.43 1025.81C602.528 1025.76 603.564 1025.28 604.322 1024.49C605.081 1023.69 605.504 1022.63 605.504 1021.53C605.504 1020.44 605.081 1019.38 604.322 1018.58C603.564 1017.79 602.528 1017.31 601.43 1017.26H594.43C593.332 1017.31 592.297 1017.79 591.539 1018.58C590.78 1019.38 590.357 1020.44 590.357 1021.53C590.357 1022.63 590.78 1023.69 591.539 1024.49C592.297 1025.28 593.332 1025.76 594.43 1025.81H601.43ZM614.9 1031.25V1008.19C614.9 1007.9 615.017 1007.61 615.226 1007.41C615.434 1007.2 615.716 1007.08 616.01 1007.08C616.305 1007.08 616.587 1007.2 616.795 1007.41C617.004 1007.61 617.12 1007.9 617.12 1008.19V1017.56H621.301C621.566 1017.56 621.82 1017.67 622.008 1017.85C622.195 1018.04 622.301 1018.29 622.301 1018.56C622.301 1018.83 622.195 1019.08 622.008 1019.27C621.82 1019.45 621.566 1019.56 621.301 1019.56H617.12V1031.33C617.12 1031.62 617.004 1031.91 616.795 1032.11C616.587 1032.32 616.305 1032.44 616.01 1032.44C615.716 1032.44 615.434 1032.32 615.226 1032.11C615.017 1031.91 614.9 1031.62 614.9 1031.33V1031.25Z" fill="#182E6A"/>
<path d="M623.77 1037.41C623.764 1037.21 623.812 1037.01 623.911 1036.83C624.01 1036.66 624.155 1036.51 624.33 1036.41C628.33 1034.12 634.43 1028.05 634.43 1020.32V1011.14H625.88C625.615 1011.14 625.36 1011.03 625.173 1010.85C624.985 1010.66 624.88 1010.41 624.88 1010.14C624.88 1009.87 624.985 1009.62 625.173 1009.43C625.36 1009.25 625.615 1009.14 625.88 1009.14H645.2C645.465 1009.14 645.72 1009.25 645.907 1009.43C646.095 1009.62 646.2 1009.87 646.2 1010.14C646.2 1010.41 646.095 1010.66 645.907 1010.85C645.72 1011.03 645.465 1011.14 645.2 1011.14H636.65V1020.32C636.65 1028.05 642.75 1034.12 646.79 1036.41C646.963 1036.51 647.105 1036.66 647.202 1036.83C647.299 1037.01 647.346 1037.21 647.34 1037.41C647.33 1037.7 647.208 1037.97 647.001 1038.17C646.794 1038.37 646.518 1038.48 646.23 1038.48C646.036 1038.48 645.845 1038.43 645.68 1038.33C641.42 1035.89 636.61 1030.63 635.54 1025.33C634.46 1030.65 629.69 1035.91 625.4 1038.33C625.237 1038.43 625.051 1038.48 624.861 1038.48C624.671 1038.48 624.484 1038.43 624.319 1038.34C624.154 1038.25 624.016 1038.11 623.92 1037.95C623.823 1037.79 623.772 1037.6 623.77 1037.41ZM652.96 1039.92V1008.21C652.96 1007.92 653.077 1007.63 653.285 1007.43C653.493 1007.22 653.776 1007.1 654.07 1007.1C654.365 1007.1 654.647 1007.22 654.855 1007.43C655.063 1007.63 655.18 1007.92 655.18 1008.21V1039.92C655.18 1040.21 655.063 1040.5 654.855 1040.7C654.647 1040.91 654.365 1041.03 654.07 1041.03C653.776 1041.03 653.493 1040.91 653.285 1040.7C653.077 1040.5 652.96 1040.21 652.96 1039.92Z" fill="#182E6A"/>
<path d="M676.16 1040.25V1027.56H661.44C661.175 1027.56 660.921 1027.45 660.733 1027.27C660.546 1027.08 660.44 1026.83 660.44 1026.56C660.44 1026.29 660.546 1026.04 660.733 1025.85C660.921 1025.67 661.175 1025.56 661.44 1025.56H693.19C693.456 1025.56 693.71 1025.67 693.897 1025.85C694.085 1026.04 694.19 1026.29 694.19 1026.56C694.19 1026.83 694.085 1027.08 693.897 1027.27C693.71 1027.45 693.456 1027.56 693.19 1027.56H678.38V1040.25C678.38 1040.54 678.264 1040.83 678.055 1041.03C677.847 1041.24 677.565 1041.36 677.271 1041.36C676.976 1041.36 676.694 1041.24 676.486 1041.03C676.277 1040.83 676.16 1040.54 676.16 1040.25ZM687.301 1021.79C688.207 1017.97 688.825 1014.08 689.15 1010.17H663.88C663.615 1010.17 663.361 1010.06 663.173 1009.88C662.986 1009.69 662.88 1009.44 662.88 1009.17C662.88 1008.9 662.986 1008.65 663.173 1008.46C663.361 1008.28 663.615 1008.17 663.88 1008.17H690.37C691.15 1008.17 691.52 1008.61 691.48 1009.42C691.123 1013.63 690.454 1017.81 689.48 1021.93C689.42 1022.19 689.268 1022.43 689.052 1022.59C688.836 1022.75 688.57 1022.83 688.301 1022.82C687.671 1022.92 687.121 1022.42 687.301 1021.79Z" fill="#182E6A"/>
<path d="M700.1 1024.79C699.941 1024.8 699.781 1024.78 699.63 1024.73C699.48 1024.67 699.344 1024.59 699.231 1024.47C699.119 1024.36 699.032 1024.22 698.979 1024.07C698.925 1023.92 698.905 1023.76 698.92 1023.6V1009.28C698.905 1009.12 698.924 1008.96 698.978 1008.81C699.032 1008.66 699.119 1008.52 699.231 1008.41C699.344 1008.3 699.481 1008.21 699.631 1008.16C699.781 1008.1 699.941 1008.08 700.1 1008.1H715.75C715.909 1008.08 716.07 1008.1 716.221 1008.16C716.371 1008.21 716.508 1008.3 716.622 1008.41C716.735 1008.52 716.823 1008.66 716.878 1008.81C716.933 1008.96 716.954 1009.12 716.94 1009.28V1023.6C716.954 1023.76 716.933 1023.92 716.878 1024.07C716.823 1024.22 716.735 1024.36 716.622 1024.47C716.509 1024.59 716.372 1024.67 716.221 1024.73C716.071 1024.78 715.91 1024.8 715.75 1024.79H700.1ZM701.95 1040.79C701.791 1040.81 701.631 1040.79 701.481 1040.73C701.331 1040.68 701.194 1040.59 701.081 1040.48C700.968 1040.37 700.882 1040.23 700.828 1040.08C700.775 1039.93 700.755 1039.77 700.77 1039.61V1030.1C700.806 1029.83 700.939 1029.58 701.143 1029.41C701.347 1029.23 701.609 1029.13 701.88 1029.13C702.151 1029.13 702.413 1029.23 702.617 1029.41C702.822 1029.58 702.954 1029.83 702.99 1030.1V1038.92H727.99C728.255 1038.92 728.51 1039.03 728.697 1039.21C728.885 1039.4 728.99 1039.65 728.99 1039.92C728.99 1040.19 728.885 1040.44 728.697 1040.63C728.51 1040.81 728.255 1040.92 727.99 1040.92L701.95 1040.79ZM701.14 1022.79H714.72V1010.02H701.14V1022.79ZM725.86 1030.79V1008.07C725.86 1007.78 725.977 1007.49 726.185 1007.29C726.393 1007.08 726.676 1006.96 726.97 1006.96C727.265 1006.96 727.547 1007.08 727.755 1007.29C727.963 1007.49 728.08 1007.78 728.08 1008.07V1017.14H732.26C732.525 1017.14 732.78 1017.25 732.967 1017.43C733.155 1017.62 733.26 1017.87 733.26 1018.14C733.26 1018.41 733.155 1018.66 732.967 1018.85C732.78 1019.03 732.525 1019.14 732.26 1019.14H728.08V1030.92C728.08 1031.21 727.963 1031.5 727.755 1031.7C727.547 1031.91 727.265 1032.03 726.97 1032.03C726.676 1032.03 726.393 1031.91 726.185 1031.7C725.977 1031.5 725.86 1031.21 725.86 1030.92V1030.79Z" fill="#182E6A"/>
<path d="M735.44 1023.57C735.175 1023.57 734.921 1023.46 734.733 1023.28C734.546 1023.09 734.44 1022.84 734.44 1022.57C734.44 1022.3 734.546 1022.05 734.733 1021.86C734.921 1021.68 735.175 1021.57 735.44 1021.57H767.19C767.456 1021.57 767.71 1021.68 767.897 1021.86C768.085 1022.05 768.19 1022.3 768.19 1022.57C768.19 1022.84 768.085 1023.09 767.897 1023.28C767.71 1023.46 767.456 1023.57 767.19 1023.57H735.44ZM738.44 1040.81C738.281 1040.83 738.121 1040.81 737.97 1040.75C737.819 1040.7 737.682 1040.61 737.569 1040.5C737.455 1040.39 737.368 1040.25 737.313 1040.1C737.258 1039.95 737.237 1039.79 737.25 1039.63V1034.3C737.237 1034.14 737.258 1033.98 737.313 1033.83C737.368 1033.68 737.455 1033.54 737.569 1033.43C737.682 1033.31 737.819 1033.23 737.969 1033.17C738.12 1033.12 738.281 1033.1 738.44 1033.11H763.23V1029.38H738.061C737.795 1029.38 737.541 1029.27 737.353 1029.09C737.166 1028.9 737.061 1028.65 737.061 1028.38C737.061 1028.11 737.166 1027.86 737.353 1027.67C737.541 1027.49 737.795 1027.38 738.061 1027.38H764.22C764.38 1027.37 764.541 1027.39 764.692 1027.44C764.842 1027.5 764.979 1027.58 765.092 1027.7C765.206 1027.81 765.293 1027.95 765.348 1028.1C765.403 1028.25 765.424 1028.41 765.41 1028.57V1033.71C765.424 1033.87 765.403 1034.03 765.348 1034.18C765.293 1034.33 765.206 1034.47 765.092 1034.58C764.978 1034.69 764.842 1034.78 764.691 1034.83C764.54 1034.89 764.38 1034.91 764.22 1034.89H739.43V1038.92H765.11C765.376 1038.92 765.63 1039.03 765.818 1039.21C766.005 1039.4 766.11 1039.65 766.11 1039.92C766.11 1040.19 766.005 1040.44 765.818 1040.63C765.63 1040.81 765.376 1040.92 765.11 1040.92L738.44 1040.81ZM738.44 1017.5C738.281 1017.51 738.12 1017.49 737.969 1017.44C737.819 1017.38 737.682 1017.3 737.569 1017.18C737.455 1017.07 737.368 1016.93 737.313 1016.78C737.258 1016.63 737.237 1016.47 737.25 1016.31V1009.06C737.237 1008.9 737.258 1008.74 737.313 1008.59C737.368 1008.44 737.455 1008.3 737.569 1008.19C737.682 1008.08 737.819 1007.99 737.97 1007.94C738.121 1007.88 738.281 1007.86 738.44 1007.88H764.6C764.866 1007.88 765.12 1007.99 765.308 1008.17C765.495 1008.36 765.6 1008.61 765.6 1008.88C765.6 1009.15 765.495 1009.4 765.308 1009.59C765.12 1009.77 764.866 1009.88 764.6 1009.88H739.47V1015.65H764.781C765.046 1015.65 765.3 1015.76 765.488 1015.94C765.675 1016.13 765.781 1016.38 765.781 1016.65C765.781 1016.92 765.675 1017.17 765.488 1017.36C765.3 1017.54 765.046 1017.65 764.781 1017.65L738.44 1017.5Z" fill="#182E6A"/>
<path d="M772.44 1038.22C772.432 1037.99 772.501 1037.77 772.636 1037.59C772.77 1037.41 772.962 1037.28 773.18 1037.22C783.83 1034.48 789.9 1026.08 789.83 1010.83H773.58C773.315 1010.83 773.06 1010.72 772.873 1010.54C772.685 1010.35 772.58 1010.1 772.58 1009.83C772.58 1009.56 772.685 1009.31 772.873 1009.12C773.06 1008.94 773.315 1008.83 773.58 1008.83H790.68C790.868 1008.81 791.057 1008.84 791.234 1008.9C791.412 1008.97 791.572 1009.07 791.703 1009.21C791.835 1009.34 791.934 1009.5 791.994 1009.68C792.054 1009.86 792.073 1010.05 792.05 1010.24V1010.53C792.05 1027.11 785.2 1036.21 773.7 1039.06C773.562 1039.1 773.416 1039.11 773.275 1039.08C773.133 1039.06 772.997 1039.01 772.878 1038.93C772.758 1038.85 772.657 1038.74 772.582 1038.62C772.506 1038.5 772.458 1038.36 772.44 1038.22ZM800.96 1039.92V1008.21C800.96 1007.92 801.077 1007.63 801.285 1007.43C801.493 1007.22 801.776 1007.1 802.07 1007.1C802.365 1007.1 802.647 1007.22 802.855 1007.43C803.063 1007.63 803.18 1007.92 803.18 1008.21V1039.92C803.18 1040.21 803.063 1040.5 802.855 1040.7C802.647 1040.91 802.365 1041.03 802.07 1041.03C801.776 1041.03 801.493 1040.91 801.285 1040.7C801.077 1040.5 800.96 1040.21 800.96 1039.92Z" fill="#182E6A"/>
</g>
<defs>
<clipPath id="clip0_188_3435">
<rect width="951.84" height="1091.84" fill="white"/>
</clipPath>
</defs>
</svg>
