<svg width="952" height="1092" viewBox="0 0 952 1092" fill="none" xmlns="http://www.w3.org/2000/svg">
<g clip-path="url(#clip0_104_4303)">
<path d="M907.33 3.91992H44.5099C22.0927 3.91992 3.91992 22.0927 3.91992 44.5099V1047.33C3.91992 1069.75 22.0927 1087.92 44.5099 1087.92H907.33C929.747 1087.92 947.92 1069.75 947.92 1047.33V44.5099C947.92 22.0927 929.747 3.91992 907.33 3.91992Z" fill="white"/>
<path d="M907.33 1091.84H44.51C32.7093 1091.83 21.3957 1087.13 13.0513 1078.79C4.70692 1070.44 0.013234 1059.13 0 1047.33L0 44.52C0.0132288 32.7184 4.70659 21.4037 13.0507 13.0578C21.3948 4.71178 32.7084 0.0158799 44.51 0L907.33 0C919.132 0.0158799 930.445 4.71178 938.789 13.0578C947.133 21.4037 951.827 32.7184 951.84 44.52V1047.33C951.827 1059.13 947.133 1070.44 938.789 1078.79C930.444 1087.13 919.131 1091.83 907.33 1091.84ZM44.51 7.84C34.786 7.85059 25.4635 11.7188 18.5886 18.5956C11.7136 25.4725 7.84794 34.796 7.84 44.52V1047.33C7.85059 1057.05 11.7174 1066.37 18.5921 1073.25C25.4668 1080.12 34.7878 1083.99 44.51 1084H907.33C917.052 1083.99 926.373 1080.12 933.248 1073.25C940.123 1066.37 943.989 1057.05 944 1047.33V44.52C943.992 34.796 940.126 25.4725 933.251 18.5956C926.377 11.7188 917.054 7.85059 907.33 7.84H44.51Z" fill="white"/>
<path d="M901.35 42.6299H41.6699V902.31H901.35V42.6299Z" fill="#89F772"/>
<path d="M901.35 42.6299H41.6699V902.31H901.35V42.6299Z" fill="url(#paint0_radial_104_4303)"/>
<path d="M41.6699 902.31L138.61 902.63V902.31H41.6699Z" fill="#00C8FF"/>
<path d="M737.65 96.7599C748.65 106.94 761.86 113.38 776.27 117.24C796.57 122.68 816.12 119.67 834.41 131.83C850.25 142.36 865.01 155.3 883.85 159.94C889.59 161.349 895.449 162.216 901.35 162.53V42.6299H708.49C712.043 63.3719 722.284 82.3822 737.65 96.7599Z" fill="#00C8FF"/>
<path d="M888.999 348.75C873.589 362.25 865.199 381.75 862.369 401.75C859.639 421.06 867.279 441.18 863.519 459.97C862.519 464.801 861.128 469.544 859.359 474.15C853.429 487.05 845.919 499.15 840.299 512.23C828.539 539.53 821.709 572.62 833.769 600.7C844.119 624.84 864.109 654.87 901.329 660.2V339.91C896.945 342.453 892.816 345.414 888.999 348.75Z" fill="#00C8FF"/>
<path d="M113.221 600.73C120.911 577.2 142.061 571.14 146.821 534.04C150.121 508.35 140.381 482.17 132.601 459.43C124.821 436.69 133.601 422.26 137.601 402.61C142.851 376.86 132.231 349.23 108.971 337.01C87.4309 325.69 62.0909 328.13 41.7109 340.01V660.21C44.9423 660.672 48.1978 660.946 51.4609 661.03C94.8709 662.15 108.001 616.69 113.221 600.73Z" fill="#00C8FF"/>
<path d="M881.42 795.23C877.809 794.809 874.161 794.809 870.55 795.23C864.73 795.91 858.91 796.59 853.34 798.46C847.835 800.263 842.514 802.587 837.45 805.4C829.07 810.14 822.33 816.92 815.02 823.03C812.931 824.456 810.746 825.736 808.48 826.86C803.497 828.587 798.37 829.866 793.16 830.68C788.41 831.2 783.64 831.53 778.87 831.81C770.79 832.3 762.47 832.86 754.66 835.05C746.395 837.379 738.75 841.514 732.277 847.157C725.804 852.8 720.664 859.809 717.23 867.68C713.914 875.201 711.283 883.006 709.37 891C708.496 894.709 708.326 898.549 708.87 902.32H901.35V799.72C900.26 799.29 899.17 798.87 898.07 798.47C892.7 796.54 887.06 795.88 881.42 795.23Z" fill="#00C8FF"/>
<path d="M94.6604 847.34C91.866 845.82 89.1554 844.151 86.5404 842.34C84.7132 840.766 82.9896 839.076 81.3804 837.28C79.8304 834.96 78.3804 832.56 76.9604 830.17C73.9689 825.191 70.5171 820.504 66.6504 816.17C59.8104 808.63 51.0104 803.42 41.6504 799.69V902.31H138.56C137.48 888.31 132.74 873.93 122.93 863.58C115.17 855.37 104.29 852.57 94.6604 847.34Z" fill="#00C8FF"/>
<path d="M110 134.9C138.67 104.04 138.62 49.0499 138.62 42.8099L41.6797 42.6299V162.52C65.8197 163.85 93.3497 152.82 110 134.9Z" fill="#00C8FF"/>
<path d="M41.6699 902.31L138.61 902.63V902.31H41.6699Z" fill="url(#paint1_linear_104_4303)"/>
<path d="M737.65 96.7599C748.65 106.94 761.86 113.38 776.27 117.24C796.57 122.68 816.12 119.67 834.41 131.83C850.25 142.36 865.01 155.3 883.85 159.94C889.59 161.349 895.449 162.216 901.35 162.53V42.6299H708.49C712.043 63.3719 722.284 82.3822 737.65 96.7599Z" fill="url(#paint2_linear_104_4303)"/>
<path d="M889.001 348.75C873.591 362.25 865.201 381.75 862.371 401.75C859.641 421.06 867.281 441.18 863.521 459.97C862.521 464.801 861.13 469.544 859.361 474.15C853.431 487.05 845.921 499.15 840.301 512.23C828.541 539.53 821.711 572.62 833.771 600.7C844.121 624.84 864.111 654.87 901.331 660.2V339.91C896.947 342.453 892.817 345.414 889.001 348.75Z" fill="url(#paint3_linear_104_4303)"/>
<path d="M113.221 600.73C120.911 577.2 142.061 571.14 146.821 534.04C150.121 508.35 140.381 482.17 132.601 459.43C124.821 436.69 133.601 422.26 137.601 402.61C142.851 376.86 132.231 349.23 108.971 337.01C87.4309 325.69 62.0909 328.13 41.7109 340.01V660.21C44.9423 660.672 48.1978 660.946 51.4609 661.03C94.8709 662.15 108.001 616.69 113.221 600.73Z" fill="url(#paint4_linear_104_4303)"/>
<path d="M754.66 835.05C746.395 837.379 738.75 841.514 732.277 847.157C725.804 852.8 720.664 859.809 717.23 867.68C713.914 875.201 711.283 883.006 709.37 891C708.496 894.709 708.326 898.549 708.87 902.32H901.35V799.72C900.26 799.29 899.17 798.87 898.07 798.47C892.7 796.54 887.07 795.88 881.42 795.23C877.809 794.809 874.161 794.809 870.55 795.23C864.73 795.91 858.91 796.59 853.34 798.46C847.835 800.263 842.514 802.587 837.45 805.4C829.07 810.14 822.33 816.92 815.02 823.03C812.931 824.456 810.746 825.736 808.48 826.86C803.497 828.587 798.37 829.866 793.16 830.68C788.41 831.2 783.64 831.53 778.87 831.81" fill="url(#paint5_linear_104_4303)"/>
<path d="M94.6604 847.34C91.866 845.82 89.1554 844.151 86.5404 842.34C84.7132 840.766 82.9896 839.076 81.3804 837.28C79.8304 834.96 78.3804 832.56 76.9604 830.17C73.9689 825.191 70.5171 820.504 66.6504 816.17C59.8104 808.63 51.0104 803.42 41.6504 799.69V902.31H138.56C137.48 888.31 132.74 873.93 122.93 863.58C115.17 855.37 104.29 852.57 94.6604 847.34Z" fill="url(#paint6_linear_104_4303)"/>
<path d="M110 134.9C138.67 104.04 138.62 49.0499 138.62 42.8099L41.6797 42.6299V162.52C65.8197 163.85 93.3497 152.82 110 134.9Z" fill="url(#paint7_linear_104_4303)"/>
<path d="M137.49 255.75C137.487 251.109 135.645 246.659 132.366 243.375C129.088 240.091 124.641 238.241 120 238.23C124.649 238.23 129.108 236.383 132.396 233.096C135.683 229.808 137.53 225.349 137.53 220.7C137.527 225.34 139.365 229.791 142.64 233.077C145.915 236.364 150.36 238.217 155 238.23C150.355 238.233 145.901 240.08 142.618 243.365C139.334 246.65 137.49 251.105 137.49 255.75Z" fill="white"/>
<path d="M656 858.79C656 854.143 654.155 849.687 650.869 846.401C647.583 843.116 643.127 841.27 638.48 841.27C643.128 841.267 647.584 839.419 650.87 836.132C654.155 832.845 656 828.388 656 823.74C656 828.389 657.847 832.848 661.135 836.136C664.422 839.423 668.881 841.27 673.531 841.27C671.229 841.269 668.95 841.721 666.823 842.601C664.696 843.481 662.763 844.771 661.135 846.398C659.508 848.025 658.216 849.957 657.335 852.083C656.454 854.209 656 856.488 656 858.79Z" fill="white"/>
<path d="M758.911 679.84C758.911 677.538 758.457 675.259 757.576 673.133C756.695 671.007 755.404 669.075 753.776 667.448C752.148 665.821 750.215 664.531 748.089 663.651C745.962 662.771 743.682 662.319 741.381 662.32C746.03 662.32 750.489 660.473 753.776 657.186C757.064 653.898 758.911 649.439 758.911 644.79C758.911 649.438 760.756 653.895 764.042 657.182C767.327 660.469 771.783 662.317 776.431 662.32C771.784 662.32 767.328 664.166 764.042 667.452C760.757 670.737 758.911 675.193 758.911 679.84Z" fill="white"/>
<path d="M195.09 166C195.09 158.357 192.053 151.026 186.648 145.621C181.244 140.216 173.913 137.18 166.27 137.18C173.913 137.18 181.244 134.144 186.648 128.739C192.053 123.334 195.09 116.004 195.09 108.36C195.09 116.004 198.126 123.334 203.531 128.739C208.936 134.144 216.266 137.18 223.91 137.18C216.266 137.18 208.936 140.216 203.531 145.621C198.126 151.026 195.09 158.357 195.09 166Z" fill="white"/>
<path d="M790.31 766.14C790.308 758.497 787.27 751.168 781.866 745.764C776.462 740.36 769.133 737.323 761.49 737.32C765.275 737.32 769.023 736.575 772.519 735.126C776.016 733.678 779.193 731.555 781.869 728.879C784.545 726.203 786.668 723.026 788.116 719.529C789.565 716.032 790.31 712.285 790.31 708.5C790.309 712.284 791.053 716.032 792.5 719.528C793.948 723.025 796.07 726.202 798.745 728.878C801.42 731.555 804.597 733.678 808.093 735.126C811.589 736.575 815.336 737.32 819.12 737.32C811.478 737.323 804.15 740.36 798.748 745.765C793.345 751.169 790.31 758.498 790.31 766.14Z" fill="white"/>
<path d="M175.199 801.2C182.247 801.2 187.959 795.487 187.959 788.44C187.959 781.393 182.247 775.68 175.199 775.68C168.152 775.68 162.439 781.393 162.439 788.44C162.439 795.487 168.152 801.2 175.199 801.2Z" fill="white"/>
<path d="M713.92 164.42C717.824 164.42 720.99 161.255 720.99 157.35C720.99 153.445 717.824 150.28 713.92 150.28C710.015 150.28 706.85 153.445 706.85 157.35C706.85 161.255 710.015 164.42 713.92 164.42Z" fill="white"/>
<path d="M792.371 318.58C796.275 318.58 799.441 315.415 799.441 311.51C799.441 307.605 796.275 304.44 792.371 304.44C788.466 304.44 785.301 307.605 785.301 311.51C785.301 315.415 788.466 318.58 792.371 318.58Z" fill="white"/>
<path d="M755.31 470.85C759.215 470.85 762.38 467.685 762.38 463.78C762.38 459.875 759.215 456.71 755.31 456.71C751.406 456.71 748.24 459.875 748.24 463.78C748.24 467.685 751.406 470.85 755.31 470.85Z" fill="white"/>
<path d="M238.359 668.18C242.264 668.18 245.429 665.015 245.429 661.11C245.429 657.205 242.264 654.04 238.359 654.04C234.454 654.04 231.289 657.205 231.289 661.11C231.289 665.015 234.454 668.18 238.359 668.18Z" fill="white"/>
<path d="M588.291 791.65C592.195 791.65 595.361 788.485 595.361 784.58C595.361 780.675 592.195 777.51 588.291 777.51C584.386 777.51 581.221 780.675 581.221 784.58C581.221 788.485 584.386 791.65 588.291 791.65Z" fill="white"/>
<path d="M305.769 869.19C309.674 869.19 312.839 866.025 312.839 862.12C312.839 858.215 309.674 855.05 305.769 855.05C301.865 855.05 298.699 858.215 298.699 862.12C298.699 866.025 301.865 869.19 305.769 869.19Z" fill="white"/>
<g clip-path="url(#clip1_104_4303)">
<path d="M824.847 686.892C826.065 686.892 827.052 685.904 827.052 684.686C827.052 683.468 826.065 682.48 824.847 682.48C823.628 682.48 822.641 683.468 822.641 684.686C822.641 685.904 823.628 686.892 824.847 686.892Z" fill="white"/>
</g>
<g clip-path="url(#clip2_104_4303)">
<path d="M493.245 75.8618C494.463 75.8618 495.451 74.8741 495.451 73.6559C495.451 72.4376 494.463 71.45 493.245 71.45C492.027 71.45 491.039 72.4376 491.039 73.6559C491.039 74.8741 492.027 75.8618 493.245 75.8618Z" fill="white"/>
</g>
<g clip-path="url(#clip3_104_4303)">
<path d="M834.405 265.862C835.623 265.862 836.611 264.874 836.611 263.656C836.611 262.438 835.623 261.45 834.405 261.45C833.187 261.45 832.199 262.438 832.199 263.656C832.199 264.874 833.187 265.862 834.405 265.862Z" fill="white"/>
</g>
<g clip-path="url(#clip4_104_4303)">
<path d="M72.4559 262.312C73.6742 262.312 74.6618 261.324 74.6618 260.106C74.6618 258.888 73.6742 257.9 72.4559 257.9C71.2376 257.9 70.25 258.888 70.25 260.106C70.25 261.324 71.2376 262.312 72.4559 262.312Z" fill="white"/>
</g>
<g clip-path="url(#clip5_104_4303)">
<path d="M284.895 172.732C286.114 172.732 287.101 171.744 287.101 170.526C287.101 169.308 286.114 168.32 284.895 168.32C283.677 168.32 282.689 169.308 282.689 170.526C282.689 171.744 283.677 172.732 284.895 172.732Z" fill="white"/>
</g>
<g clip-path="url(#clip6_104_4303)">
<path d="M175.636 400.982C176.854 400.982 177.841 399.994 177.841 398.776C177.841 397.558 176.854 396.57 175.636 396.57C174.417 396.57 173.43 397.558 173.43 398.776C173.43 399.994 174.417 400.982 175.636 400.982Z" fill="white"/>
</g>
<g clip-path="url(#clip7_104_4303)">
<path d="M159.686 181.262C160.905 181.262 161.892 180.274 161.892 179.056C161.892 177.838 160.905 176.85 159.686 176.85C158.468 176.85 157.48 177.838 157.48 179.056C157.48 180.274 158.468 181.262 159.686 181.262Z" fill="white"/>
</g>
<g clip-path="url(#clip8_104_4303)">
<path d="M185.436 593.542C186.655 593.542 187.642 592.554 187.642 591.336C187.642 590.117 186.655 589.13 185.436 589.13C184.218 589.13 183.23 590.117 183.23 591.336C183.23 592.554 184.218 593.542 185.436 593.542Z" fill="white"/>
</g>
<g clip-path="url(#clip9_104_4303)">
<path d="M217.427 530.842C218.645 530.842 219.633 529.854 219.633 528.636C219.633 527.418 218.645 526.43 217.427 526.43C216.208 526.43 215.221 527.418 215.221 528.636C215.221 529.854 216.208 530.842 217.427 530.842Z" fill="white"/>
</g>
<g clip-path="url(#clip10_104_4303)">
<path d="M395.235 659.702C396.453 659.702 397.441 658.714 397.441 657.496C397.441 656.278 396.453 655.29 395.235 655.29C394.017 655.29 393.029 656.278 393.029 657.496C393.029 658.714 394.017 659.702 395.235 659.702Z" fill="white"/>
</g>
<g clip-path="url(#clip11_104_4303)">
<path d="M277.456 771.442C278.674 771.442 279.662 770.454 279.662 769.236C279.662 768.018 278.674 767.03 277.456 767.03C276.238 767.03 275.25 768.018 275.25 769.236C275.25 770.454 276.238 771.442 277.456 771.442Z" fill="white"/>
</g>
<g clip-path="url(#clip12_104_4303)">
<path d="M418.466 857.432C419.684 857.432 420.672 856.444 420.672 855.226C420.672 854.008 419.684 853.02 418.466 853.02C417.247 853.02 416.26 854.008 416.26 855.226C416.26 856.444 417.247 857.432 418.466 857.432Z" fill="white"/>
</g>
<g clip-path="url(#clip13_104_4303)">
<path d="M472.597 810.672C473.815 810.672 474.802 809.684 474.802 808.466C474.802 807.248 473.815 806.26 472.597 806.26C471.378 806.26 470.391 807.248 470.391 808.466C470.391 809.684 471.378 810.672 472.597 810.672Z" fill="white"/>
</g>
<g clip-path="url(#clip14_104_4303)">
<path d="M726.405 791.192C727.623 791.192 728.611 790.204 728.611 788.986C728.611 787.768 727.623 786.78 726.405 786.78C725.187 786.78 724.199 787.768 724.199 788.986C724.199 790.204 725.187 791.192 726.405 791.192Z" fill="white"/>
</g>
<g clip-path="url(#clip15_104_4303)">
<path d="M156.026 862.262C157.244 862.262 158.232 861.274 158.232 860.056C158.232 858.838 157.244 857.85 156.026 857.85C154.808 857.85 153.82 858.838 153.82 860.056C153.82 861.274 154.808 862.262 156.026 862.262Z" fill="white"/>
</g>
<g clip-path="url(#clip16_104_4303)">
<path d="M121.507 641.402C122.725 641.402 123.713 640.414 123.713 639.196C123.713 637.978 122.725 636.99 121.507 636.99C120.288 636.99 119.301 637.978 119.301 639.196C119.301 640.414 120.288 641.402 121.507 641.402Z" fill="white"/>
</g>
<g clip-path="url(#clip17_104_4303)">
<path d="M63.9168 791.022C65.1351 791.022 66.1227 790.034 66.1227 788.816C66.1227 787.597 65.1351 786.61 63.9168 786.61C62.6986 786.61 61.7109 787.597 61.7109 788.816C61.7109 790.034 62.6986 791.022 63.9168 791.022Z" fill="white"/>
</g>
<g clip-path="url(#clip18_104_4303)">
<path d="M700.686 648.832C701.905 648.832 702.892 647.844 702.892 646.626C702.892 645.408 701.905 644.42 700.686 644.42C699.468 644.42 698.48 645.408 698.48 646.626C698.48 647.844 699.468 648.832 700.686 648.832Z" fill="white"/>
</g>
<g clip-path="url(#clip19_104_4303)">
<path d="M701.825 561.542C703.043 561.542 704.031 560.554 704.031 559.336C704.031 558.117 703.043 557.13 701.825 557.13C700.607 557.13 699.619 558.117 699.619 559.336C699.619 560.554 700.607 561.542 701.825 561.542Z" fill="white"/>
</g>
<g clip-path="url(#clip20_104_4303)">
<path d="M624.395 645.082C625.614 645.082 626.601 644.094 626.601 642.876C626.601 641.658 625.614 640.67 624.395 640.67C623.177 640.67 622.189 641.658 622.189 642.876C622.189 644.094 623.177 645.082 624.395 645.082Z" fill="white"/>
</g>
<g clip-path="url(#clip21_104_4303)">
<path d="M798.837 474.602C800.055 474.602 801.043 473.614 801.043 472.396C801.043 471.178 800.055 470.19 798.837 470.19C797.618 470.19 796.631 471.178 796.631 472.396C796.631 473.614 797.618 474.602 798.837 474.602Z" fill="white"/>
</g>
<g clip-path="url(#clip22_104_4303)">
<path d="M753.245 354.442C754.463 354.442 755.451 353.454 755.451 352.236C755.451 351.018 754.463 350.03 753.245 350.03C752.027 350.03 751.039 351.018 751.039 352.236C751.039 353.454 752.027 354.442 753.245 354.442Z" fill="white"/>
</g>
<g clip-path="url(#clip23_104_4303)">
<path d="M854.177 310.352C855.395 310.352 856.383 309.364 856.383 308.146C856.383 306.928 855.395 305.94 854.177 305.94C852.958 305.94 851.971 306.928 851.971 308.146C851.971 309.364 852.958 310.352 854.177 310.352Z" fill="white"/>
</g>
<g clip-path="url(#clip24_104_4303)">
<path d="M617.145 116.312C618.364 116.312 619.351 115.324 619.351 114.106C619.351 112.888 618.364 111.9 617.145 111.9C615.927 111.9 614.939 112.888 614.939 114.106C614.939 115.324 615.927 116.312 617.145 116.312Z" fill="white"/>
</g>
<g clip-path="url(#clip25_104_4303)">
<path d="M782.806 184.832C784.024 184.832 785.011 183.844 785.011 182.626C785.011 181.408 784.024 180.42 782.806 180.42C781.587 180.42 780.6 181.408 780.6 182.626C780.6 183.844 781.587 184.832 782.806 184.832Z" fill="white"/>
</g>
<g clip-path="url(#clip26_104_4303)">
<path d="M726.167 251.262C727.385 251.262 728.373 250.274 728.373 249.056C728.373 247.838 727.385 246.85 726.167 246.85C724.949 246.85 723.961 247.838 723.961 249.056C723.961 250.274 724.949 251.262 726.167 251.262Z" fill="white"/>
</g>
<g clip-path="url(#clip27_104_4303)">
<path d="M168.306 313.822C169.524 313.822 170.511 312.834 170.511 311.616C170.511 310.398 169.524 309.41 168.306 309.41C167.087 309.41 166.1 310.398 166.1 311.616C166.1 312.834 167.087 313.822 168.306 313.822Z" fill="white"/>
</g>
<path d="M783.54 578.75C784.761 578.75 785.75 577.761 785.75 576.54C785.75 575.319 784.761 574.33 783.54 574.33C782.319 574.33 781.33 575.319 781.33 576.54C781.33 577.761 782.319 578.75 783.54 578.75Z" fill="white"/>
<path d="M102.179 963.46C101.479 963.46 101.109 963.02 101.179 962.46C101.249 961.9 101.629 961.57 102.369 961.57H107.479L109.879 952.39C109.935 952.146 110.079 951.932 110.285 951.789C110.49 951.647 110.742 951.586 110.989 951.62C111.129 951.61 111.27 951.637 111.396 951.697C111.523 951.757 111.632 951.849 111.714 951.963C111.795 952.077 111.846 952.211 111.861 952.35C111.876 952.49 111.855 952.631 111.799 952.76L109.549 961.57H117.169L119.539 952.39C119.594 952.154 119.733 951.945 119.93 951.804C120.126 951.662 120.368 951.597 120.609 951.62C121.239 951.62 121.679 951.99 121.499 952.76L119.239 961.57H124.239C124.376 961.55 124.516 961.566 124.645 961.617C124.773 961.668 124.886 961.752 124.972 961.86C125.059 961.969 125.115 962.098 125.135 962.234C125.156 962.371 125.14 962.511 125.089 962.64C125.039 962.866 124.911 963.067 124.729 963.209C124.547 963.351 124.321 963.426 124.089 963.42H118.719L115.999 973.9H121.109C121.249 973.884 121.391 973.904 121.522 973.958C121.652 974.011 121.767 974.097 121.855 974.206C121.944 974.316 122.004 974.446 122.029 974.585C122.054 974.723 122.044 974.866 121.999 975C121.947 975.224 121.818 975.422 121.636 975.563C121.454 975.703 121.229 975.776 120.999 975.77H115.559L113.079 985.39C113.021 985.608 112.89 985.8 112.708 985.934C112.527 986.069 112.305 986.138 112.079 986.13C111.379 986.13 110.969 985.8 111.159 985.02L113.449 975.77H105.859L103.349 985.39C103.291 985.608 103.16 985.8 102.979 985.934C102.797 986.069 102.575 986.138 102.349 986.13C101.679 986.13 101.239 985.8 101.419 985.02L103.749 975.77H99.0494C98.3494 975.77 97.9794 975.33 98.0494 974.77C98.1194 974.21 98.4594 973.85 99.2394 973.85H104.239L106.999 963.46H102.179ZM109.069 963.46L106.369 973.9H113.999L116.699 963.46H109.069Z" fill="#182E6A"/>
<path d="M128.229 982.41C128.223 982.208 128.271 982.008 128.37 981.832C128.469 981.656 128.614 981.51 128.789 981.41C132.789 979.12 138.889 973.05 138.889 965.32V956.14H130.339C130.074 956.14 129.82 956.035 129.632 955.847C129.444 955.66 129.339 955.405 129.339 955.14C129.339 954.875 129.444 954.621 129.632 954.433C129.82 954.245 130.074 954.14 130.339 954.14H149.659C149.924 954.14 150.179 954.245 150.366 954.433C150.554 954.621 150.659 954.875 150.659 955.14C150.659 955.405 150.554 955.66 150.366 955.847C150.179 956.035 149.924 956.14 149.659 956.14H141.109V965.32C141.109 973.05 147.209 979.12 151.249 981.41C151.422 981.512 151.564 981.659 151.661 981.835C151.758 982.011 151.805 982.209 151.799 982.41C151.789 982.697 151.667 982.97 151.46 983.169C151.253 983.369 150.977 983.48 150.689 983.48C150.495 983.484 150.304 983.432 150.139 983.33C145.879 980.89 141.069 975.64 139.999 970.33C138.929 975.66 134.149 980.91 129.859 983.33C129.696 983.427 129.51 983.479 129.32 983.481C129.13 983.483 128.943 983.434 128.778 983.341C128.613 983.248 128.475 983.113 128.379 982.949C128.282 982.786 128.231 982.6 128.229 982.41ZM157.389 984.89V953.17C157.389 952.876 157.506 952.593 157.714 952.385C157.922 952.177 158.205 952.06 158.499 952.06C158.793 952.06 159.076 952.177 159.284 952.385C159.492 952.593 159.609 952.876 159.609 953.17V984.89C159.609 985.184 159.492 985.467 159.284 985.675C159.076 985.883 158.793 986 158.499 986C158.205 986 157.922 985.883 157.714 985.675C157.506 985.467 157.389 985.184 157.389 984.89Z" fill="#182E6A"/>
<path d="M180.62 985.26V972.56H165.9C165.635 972.56 165.381 972.455 165.193 972.267C165.006 972.079 164.9 971.825 164.9 971.56C164.9 971.295 165.006 971.04 165.193 970.853C165.381 970.665 165.635 970.56 165.9 970.56H197.65C197.916 970.56 198.17 970.665 198.357 970.853C198.545 971.04 198.65 971.295 198.65 971.56C198.65 971.825 198.545 972.079 198.357 972.267C198.17 972.455 197.916 972.56 197.65 972.56H182.84V985.26C182.84 985.554 182.723 985.837 182.515 986.045C182.307 986.253 182.025 986.37 181.73 986.37C181.436 986.37 181.154 986.253 180.946 986.045C180.737 985.837 180.62 985.554 180.62 985.26ZM191.76 966.79C192.666 962.968 193.285 959.084 193.61 955.17H168.34C168.075 955.17 167.821 955.065 167.633 954.877C167.446 954.69 167.34 954.435 167.34 954.17C167.34 953.905 167.446 953.65 167.633 953.463C167.821 953.275 168.075 953.17 168.34 953.17H194.83C195.61 953.17 195.98 953.61 195.94 954.43C195.577 958.639 194.909 962.817 193.94 966.93C193.876 967.193 193.722 967.426 193.505 967.588C193.288 967.75 193.021 967.832 192.75 967.82C192.13 967.9 191.58 967.42 191.76 966.79Z" fill="#182E6A"/>
<path d="M204.56 969.53C204.401 969.546 204.241 969.526 204.091 969.472C203.941 969.418 203.804 969.332 203.691 969.219C203.578 969.106 203.492 968.969 203.438 968.819C203.384 968.669 203.365 968.509 203.38 968.35V953.84C203.38 953.546 203.497 953.263 203.705 953.055C203.913 952.847 204.196 952.73 204.49 952.73C204.785 952.73 205.067 952.847 205.275 953.055C205.483 953.263 205.6 953.546 205.6 953.84V958.84H219.18V953.84C219.18 953.546 219.297 953.263 219.505 953.055C219.713 952.847 219.996 952.73 220.29 952.73C220.585 952.73 220.867 952.847 221.075 953.055C221.283 953.263 221.4 953.546 221.4 953.84V968.35C221.414 968.509 221.393 968.67 221.338 968.82C221.283 968.97 221.195 969.106 221.082 969.219C220.968 969.332 220.831 969.418 220.681 969.472C220.53 969.525 220.369 969.545 220.21 969.53H204.56ZM211.48 986C207.48 986 204.27 983.44 204.27 979.67C204.27 975.9 207.45 973.38 211.48 973.38H226.39C230.39 973.38 233.61 975.89 233.61 979.67C233.61 983.45 230.43 986 226.39 986H211.48ZM205.6 967.61H219.18V960.76H205.6V967.61ZM226.28 984.07C229.13 984.07 231.39 982.33 231.39 979.67C231.39 977.01 229.13 975.3 226.28 975.3H211.59C208.74 975.3 206.49 977 206.49 979.67C206.49 982.34 208.74 984.07 211.59 984.07H226.28ZM230.28 971.07V953.07C230.28 952.776 230.397 952.493 230.605 952.285C230.813 952.077 231.096 951.96 231.39 951.96C231.685 951.96 231.967 952.077 232.175 952.285C232.383 952.493 232.5 952.776 232.5 953.07V960H236.68C236.945 960 237.2 960.105 237.387 960.293C237.575 960.48 237.68 960.735 237.68 961C237.68 961.265 237.575 961.519 237.387 961.707C237.2 961.895 236.945 962 236.68 962H232.5V971.21C232.5 971.504 232.383 971.787 232.175 971.995C231.967 972.203 231.685 972.32 231.39 972.32C231.096 972.32 230.813 972.203 230.605 971.995C230.397 971.787 230.28 971.504 230.28 971.21V971.07Z" fill="#182E6A"/>
<path d="M247.85 984.63C249.174 981.083 250.07 977.39 250.52 973.63H239.6C239.334 973.63 239.08 973.525 238.893 973.337C238.705 973.15 238.6 972.895 238.6 972.63C238.6 972.365 238.705 972.111 238.893 971.923C239.08 971.735 239.334 971.63 239.6 971.63H264.06C264.325 971.63 264.579 971.735 264.767 971.923C264.954 972.111 265.06 972.365 265.06 972.63C265.06 972.895 264.954 973.15 264.767 973.337C264.579 973.525 264.325 973.63 264.06 973.63H252.81C252.313 977.515 251.37 981.331 250 985C249.925 985.242 249.779 985.456 249.581 985.615C249.383 985.774 249.142 985.869 248.89 985.89C248.73 985.902 248.57 985.876 248.422 985.813C248.275 985.75 248.145 985.653 248.043 985.529C247.941 985.406 247.871 985.26 247.837 985.103C247.803 984.947 247.808 984.785 247.85 984.63ZM248.3 967.86C244.12 967.86 241.16 964.46 241.16 960.28C241.16 956.1 244.16 952.73 248.3 952.73H255.18C259.36 952.73 262.32 956.1 262.32 960.28C262.32 964.46 259.32 967.86 255.18 967.86H248.3ZM255 965.94C257.92 965.94 260.1 963.31 260.1 960.28C260.136 959.575 260.033 958.87 259.796 958.205C259.559 957.54 259.193 956.929 258.719 956.406C258.245 955.882 257.673 955.458 257.034 955.157C256.396 954.856 255.705 954.683 255 954.65H248.52C247.114 954.783 245.809 955.434 244.858 956.478C243.908 957.522 243.381 958.883 243.381 960.295C243.381 961.707 243.908 963.068 244.858 964.112C245.809 965.156 247.114 965.808 248.52 965.94H255ZM268.69 984.89V953.17C268.69 952.876 268.807 952.593 269.015 952.385C269.223 952.177 269.505 952.06 269.8 952.06C270.094 952.06 270.376 952.177 270.585 952.385C270.793 952.593 270.91 952.876 270.91 953.17V984.89C270.91 985.184 270.793 985.467 270.585 985.675C270.376 985.883 270.094 986 269.8 986C269.505 986 269.223 985.883 269.015 985.675C268.807 985.467 268.69 985.184 268.69 984.89Z" fill="#182E6A"/>
<path d="M277.671 982.92V955.14C277.657 954.98 277.679 954.82 277.734 954.669C277.788 954.518 277.876 954.382 277.989 954.268C278.102 954.155 278.239 954.068 278.39 954.013C278.54 953.958 278.701 953.936 278.861 953.95H291.141C291.406 953.95 291.66 954.055 291.848 954.243C292.036 954.431 292.141 954.685 292.141 954.95C292.141 955.215 292.036 955.47 291.848 955.657C291.66 955.845 291.406 955.95 291.141 955.95H279.891V982.18C284.018 982.105 288.12 981.535 292.111 980.48C292.247 980.451 292.387 980.454 292.521 980.487C292.656 980.52 292.781 980.583 292.888 980.672C292.995 980.76 293.08 980.872 293.138 980.998C293.196 981.124 293.224 981.261 293.221 981.4C293.215 981.61 293.144 981.813 293.016 981.98C292.889 982.147 292.712 982.269 292.511 982.33C288.058 983.45 283.492 984.057 278.901 984.14C278.734 984.165 278.565 984.151 278.405 984.099C278.245 984.046 278.099 983.957 277.98 983.839C277.86 983.72 277.77 983.576 277.716 983.416C277.663 983.256 277.647 983.087 277.671 982.92ZM306.091 984.92V968.75H298.581V985.07C298.581 985.364 298.464 985.647 298.256 985.855C298.048 986.063 297.765 986.18 297.471 986.18C297.177 986.18 296.894 986.063 296.686 985.855C296.478 985.647 296.361 985.364 296.361 985.07V953.17C296.361 952.876 296.478 952.593 296.686 952.385C296.894 952.177 297.177 952.06 297.471 952.06C297.765 952.06 298.048 952.177 298.256 952.385C298.464 952.593 298.581 952.876 298.581 953.17V966.83H306.091V953.17C306.091 952.876 306.208 952.593 306.416 952.385C306.624 952.177 306.907 952.06 307.201 952.06C307.495 952.06 307.778 952.177 307.986 952.385C308.194 952.593 308.311 952.876 308.311 953.17V984.89C308.311 985.184 308.194 985.467 307.986 985.675C307.778 985.883 307.495 986 307.201 986C306.907 986 306.624 985.883 306.416 985.675C306.208 985.467 306.091 985.184 306.091 984.89V984.92Z" fill="#182E6A"/>
<path d="M312.46 986.55C311.79 986.55 311.27 986.22 311.27 985.74C311.27 985.26 311.79 984.92 312.46 984.92H332.33C332.99 984.92 333.47 985.29 333.47 985.74C333.47 986.19 332.99 986.55 332.33 986.55H312.46Z" fill="#182E6A"/>
<path d="M335.43 982.41C335.424 982.208 335.473 982.008 335.571 981.832C335.67 981.656 335.815 981.51 335.99 981.41C339.99 979.12 346.09 973.05 346.09 965.32V956.14H337.54C337.275 956.14 337.021 956.035 336.833 955.847C336.646 955.66 336.54 955.405 336.54 955.14C336.54 954.875 336.646 954.621 336.833 954.433C337.021 954.245 337.275 954.14 337.54 954.14H356.86C357.125 954.14 357.38 954.245 357.567 954.433C357.755 954.621 357.86 954.875 357.86 955.14C357.86 955.405 357.755 955.66 357.567 955.847C357.38 956.035 357.125 956.14 356.86 956.14H348.31V965.32C348.31 973.05 354.41 979.12 358.45 981.41C358.623 981.512 358.765 981.659 358.862 981.835C358.959 982.011 359.007 982.209 359 982.41C358.99 982.697 358.868 982.97 358.661 983.169C358.454 983.369 358.178 983.48 357.89 983.48C357.696 983.484 357.505 983.432 357.34 983.33C353.08 980.89 348.27 975.64 347.2 970.33C346.13 975.66 341.35 980.91 337.06 983.33C336.893 983.434 336.698 983.486 336.5 983.48C336.216 983.48 335.944 983.367 335.744 983.167C335.543 982.966 335.43 982.694 335.43 982.41ZM364.59 984.89V953.17C364.59 952.876 364.707 952.593 364.915 952.385C365.124 952.177 365.406 952.06 365.7 952.06C365.995 952.06 366.277 952.177 366.485 952.385C366.693 952.593 366.81 952.876 366.81 953.17V984.89C366.81 985.184 366.693 985.467 366.485 985.675C366.277 985.883 365.995 986 365.7 986C365.406 986 365.124 985.883 364.915 985.675C364.707 985.467 364.59 985.184 364.59 984.89Z" fill="#182E6A"/>
<path d="M387.83 985.26V972.56H373.1C372.834 972.56 372.58 972.455 372.392 972.267C372.205 972.079 372.1 971.825 372.1 971.56C372.1 971.295 372.205 971.04 372.392 970.853C372.58 970.665 372.834 970.56 373.1 970.56H404.85C405.115 970.56 405.369 970.665 405.557 970.853C405.744 971.04 405.85 971.295 405.85 971.56C405.85 971.825 405.744 972.079 405.557 972.267C405.369 972.455 405.115 972.56 404.85 972.56H390V985.26C389.973 985.535 389.846 985.79 389.641 985.976C389.437 986.162 389.171 986.265 388.895 986.265C388.618 986.265 388.352 986.162 388.148 985.976C387.944 985.79 387.816 985.535 387.79 985.26H387.83ZM399 966.79C399.906 962.968 400.524 959.084 400.85 955.17H375.54C375.274 955.17 375.02 955.065 374.832 954.877C374.645 954.69 374.54 954.435 374.54 954.17C374.54 953.905 374.645 953.65 374.832 953.463C375.02 953.275 375.274 953.17 375.54 953.17H402C402.78 953.17 403.15 953.61 403.11 954.43C402.746 958.639 402.078 962.817 401.11 966.93C401.045 967.193 400.891 967.426 400.674 967.588C400.457 967.75 400.19 967.832 399.92 967.82C399.33 967.9 398.78 967.42 399 966.79Z" fill="#182E6A"/>
<path d="M410.1 970C409.834 970 409.58 969.895 409.392 969.707C409.205 969.52 409.1 969.265 409.1 969C409.1 968.735 409.205 968.481 409.392 968.293C409.58 968.105 409.834 968 410.1 968H441.85C442.115 968 442.369 968.105 442.557 968.293C442.744 968.481 442.85 968.735 442.85 969C442.85 969.265 442.744 969.52 442.557 969.707C442.369 969.895 442.115 970 441.85 970H410.1ZM413.1 964.82C412.94 964.835 412.78 964.815 412.629 964.762C412.479 964.708 412.342 964.622 412.228 964.509C412.114 964.396 412.027 964.26 411.972 964.11C411.917 963.96 411.896 963.799 411.91 963.64V959.05C411.896 958.89 411.917 958.73 411.972 958.579C412.027 958.428 412.114 958.292 412.228 958.178C412.341 958.065 412.478 957.978 412.628 957.923C412.779 957.868 412.94 957.846 413.1 957.86H437.89V954.8H412.72C412.454 954.8 412.2 954.695 412.012 954.507C411.825 954.32 411.72 954.065 411.72 953.8C411.72 953.535 411.825 953.28 412.012 953.093C412.2 952.905 412.454 952.8 412.72 952.8H438.89C439.048 952.785 439.209 952.804 439.359 952.858C439.509 952.912 439.646 952.998 439.758 953.111C439.871 953.224 439.958 953.361 440.011 953.511C440.065 953.661 440.085 953.821 440.07 953.98V958.46C440.085 958.619 440.065 958.779 440.011 958.929C439.958 959.08 439.871 959.216 439.758 959.329C439.646 959.442 439.509 959.528 439.359 959.582C439.209 959.636 439.048 959.656 438.89 959.64H414.09V962.83H439.4C439.665 962.83 439.919 962.935 440.107 963.123C440.294 963.31 440.4 963.565 440.4 963.83C440.4 964.095 440.294 964.35 440.107 964.537C439.919 964.725 439.665 964.83 439.4 964.83L413.1 964.82ZM413.1 985.82C412.94 985.835 412.78 985.815 412.629 985.762C412.479 985.708 412.342 985.622 412.228 985.509C412.114 985.396 412.027 985.26 411.972 985.11C411.917 984.96 411.896 984.799 411.91 984.64V979.79C411.896 979.631 411.917 979.47 411.972 979.32C412.027 979.17 412.114 979.034 412.228 978.921C412.342 978.808 412.479 978.722 412.629 978.668C412.78 978.615 412.94 978.595 413.1 978.61H437.89V975.31H412.72C412.454 975.31 412.2 975.205 412.012 975.017C411.825 974.83 411.72 974.575 411.72 974.31C411.72 974.045 411.825 973.791 412.012 973.603C412.2 973.415 412.454 973.31 412.72 973.31H438.89C439.048 973.295 439.209 973.314 439.359 973.368C439.509 973.422 439.646 973.508 439.758 973.621C439.871 973.734 439.958 973.871 440.011 974.021C440.065 974.171 440.085 974.331 440.07 974.49V979.19C440.085 979.349 440.065 979.51 440.011 979.661C439.957 979.811 439.871 979.948 439.759 980.062C439.646 980.175 439.51 980.263 439.36 980.318C439.209 980.373 439.049 980.394 438.89 980.38H414.09V983.82H439.77C440.035 983.82 440.289 983.925 440.477 984.113C440.664 984.301 440.77 984.555 440.77 984.82C440.77 985.085 440.664 985.34 440.477 985.527C440.289 985.715 440.035 985.82 439.77 985.82H413.1Z" fill="#182E6A"/>
<path d="M446.43 982.41C446.424 982.208 446.473 982.008 446.571 981.832C446.67 981.656 446.815 981.51 446.99 981.41C450.99 979.12 457.09 973.05 457.09 965.32V956.14H448.54C448.275 956.14 448.021 956.035 447.833 955.847C447.646 955.66 447.54 955.405 447.54 955.14C447.54 954.875 447.646 954.621 447.833 954.433C448.021 954.245 448.275 954.14 448.54 954.14H467.86C468.125 954.14 468.38 954.245 468.567 954.433C468.755 954.621 468.86 954.875 468.86 955.14C468.86 955.405 468.755 955.66 468.567 955.847C468.38 956.035 468.125 956.14 467.86 956.14H459.31V965.32C459.31 973.05 465.41 979.12 469.45 981.41C469.623 981.512 469.765 981.659 469.862 981.835C469.959 982.011 470.007 982.209 470 982.41C469.99 982.697 469.868 982.97 469.661 983.169C469.454 983.369 469.178 983.48 468.89 983.48C468.696 983.484 468.505 983.432 468.34 983.33C464.08 980.89 459.27 975.64 458.2 970.33C457.13 975.66 452.35 980.91 448.06 983.33C447.893 983.434 447.698 983.486 447.5 983.48C447.216 983.48 446.944 983.367 446.744 983.167C446.543 982.966 446.43 982.694 446.43 982.41ZM475.59 984.89V953.17C475.59 952.876 475.707 952.593 475.915 952.385C476.124 952.177 476.406 952.06 476.7 952.06C476.995 952.06 477.277 952.177 477.485 952.385C477.693 952.593 477.81 952.876 477.81 953.17V984.89C477.81 985.184 477.693 985.467 477.485 985.675C477.277 985.883 476.995 986 476.7 986C476.406 986 476.124 985.883 475.915 985.675C475.707 985.467 475.59 985.184 475.59 984.89Z" fill="#182E6A"/>
<path d="M514.809 953.17V984.89C514.809 985.184 514.692 985.467 514.484 985.675C514.276 985.883 513.994 986 513.699 986C513.405 986 513.122 985.883 512.914 985.675C512.706 985.467 512.589 985.184 512.589 984.89V975.52H502.449C502.184 975.52 501.93 975.415 501.742 975.227C501.555 975.04 501.449 974.785 501.449 974.52C501.449 974.255 501.555 974 501.742 973.813C501.93 973.625 502.184 973.52 502.449 973.52H512.589V963.13H502.709C500.969 975.01 494.789 981.78 485.319 984.13C485.168 984.171 485.01 984.176 484.856 984.144C484.703 984.112 484.559 984.045 484.437 983.948C484.314 983.851 484.216 983.726 484.151 983.584C484.085 983.442 484.054 983.286 484.059 983.13C484.051 982.904 484.12 982.682 484.255 982.501C484.389 982.319 484.581 982.189 484.799 982.13C491.979 980.2 496.939 975.62 499.339 968.13H485.729C485.464 968.13 485.21 968.025 485.022 967.837C484.835 967.65 484.729 967.395 484.729 967.13C484.729 966.865 484.835 966.61 485.022 966.423C485.21 966.235 485.464 966.13 485.729 966.13H499.899C500.673 962.769 501.043 959.328 500.999 955.88H485.249C484.984 955.88 484.73 955.775 484.542 955.587C484.355 955.4 484.249 955.145 484.249 954.88C484.249 954.615 484.355 954.36 484.542 954.173C484.73 953.985 484.984 953.88 485.249 953.88H501.859C502.047 953.862 502.237 953.887 502.414 953.952C502.591 954.017 502.751 954.121 502.883 954.256C503.014 954.392 503.113 954.555 503.173 954.734C503.233 954.913 503.253 955.103 503.229 955.29V955.58C503.238 957.433 503.151 959.286 502.969 961.13H512.589V953.13C512.589 952.836 512.706 952.553 512.914 952.345C513.122 952.137 513.405 952.02 513.699 952.02C513.994 952.02 514.276 952.137 514.484 952.345C514.692 952.553 514.809 952.836 514.809 953.13V953.17Z" fill="#182E6A"/>
<path d="M521.581 982.89V968.35C521.566 968.191 521.586 968.03 521.639 967.88C521.693 967.729 521.779 967.592 521.892 967.478C522.004 967.365 522.141 967.277 522.291 967.222C522.441 967.167 522.602 967.146 522.761 967.16H537.381V955.88H522.381C522.116 955.88 521.861 955.775 521.674 955.587C521.486 955.4 521.381 955.145 521.381 954.88C521.381 954.615 521.486 954.361 521.674 954.173C521.861 953.985 522.116 953.88 522.381 953.88H538.381C538.54 953.866 538.701 953.887 538.851 953.942C539.001 953.997 539.137 954.085 539.25 954.198C539.362 954.312 539.449 954.449 539.502 954.6C539.556 954.75 539.576 954.911 539.561 955.07V967.9C539.576 968.059 539.556 968.22 539.502 968.371C539.449 968.521 539.362 968.658 539.25 968.772C539.137 968.885 539.001 968.973 538.851 969.028C538.701 969.083 538.54 969.104 538.381 969.09H523.801V982C529.793 981.742 535.75 980.949 541.601 979.63C542.231 979.49 542.601 980 542.601 980.63C542.604 980.871 542.519 981.105 542.363 981.289C542.207 981.473 541.989 981.594 541.751 981.63C535.499 982.98 529.142 983.786 522.751 984.04C522.001 984 521.581 983.66 521.581 982.89ZM548.221 984.89V953.17C548.221 952.876 548.338 952.593 548.546 952.385C548.754 952.177 549.036 952.06 549.331 952.06C549.625 952.06 549.908 952.177 550.116 952.385C550.324 952.593 550.441 952.876 550.441 953.17V966.79H554.921C555.186 966.79 555.44 966.895 555.628 967.083C555.816 967.27 555.921 967.525 555.921 967.79C555.921 968.055 555.816 968.31 555.628 968.497C555.44 968.685 555.186 968.79 554.921 968.79H550.441V984.96C550.441 985.254 550.324 985.537 550.116 985.745C549.908 985.953 549.625 986.07 549.331 986.07C549.036 986.07 548.754 985.953 548.546 985.745C548.338 985.537 548.221 985.254 548.221 984.96V984.89Z" fill="#182E6A"/>
<path d="M571.82 963.46C571.12 963.46 570.75 963.02 570.82 962.46C570.89 961.9 571.26 961.57 572 961.57H577.11L579.51 952.39C579.565 952.146 579.71 951.932 579.915 951.789C580.121 951.647 580.372 951.586 580.62 951.62C580.76 951.611 580.9 951.638 581.026 951.699C581.153 951.759 581.262 951.85 581.344 951.964C581.426 952.078 581.478 952.21 581.495 952.35C581.511 952.489 581.492 952.63 581.44 952.76L579.18 961.57H586.8L589.17 952.39C589.224 952.154 589.363 951.945 589.56 951.804C589.757 951.662 589.998 951.597 590.24 951.62C590.87 951.62 591.32 951.99 591.13 952.76L588.87 961.57H593.87C594.007 961.55 594.146 961.566 594.275 961.617C594.404 961.668 594.517 961.752 594.603 961.86C594.689 961.969 594.745 962.098 594.766 962.234C594.786 962.371 594.77 962.511 594.72 962.64C594.669 962.866 594.542 963.067 594.359 963.209C594.177 963.351 593.951 963.426 593.72 963.42H588.36L585.65 973.86H590.76C590.901 973.844 591.044 973.863 591.176 973.917C591.307 973.971 591.423 974.058 591.512 974.169C591.601 974.28 591.66 974.411 591.684 974.552C591.708 974.692 591.696 974.836 591.65 974.97C591.597 975.194 591.469 975.392 591.287 975.533C591.104 975.673 590.88 975.746 590.65 975.74H585.21L582.73 985.36C582.671 985.578 582.54 985.77 582.359 985.904C582.177 986.039 581.956 986.108 581.73 986.1C581.03 986.1 580.62 985.77 580.81 984.99L583.1 975.74H575.52L573 985.4C572.941 985.618 572.81 985.81 572.629 985.944C572.447 986.079 572.226 986.148 572 986.14C571.33 986.14 570.89 985.81 571.07 985.03L573.4 975.78H568.7C568 975.78 567.63 975.34 567.7 974.78C567.77 974.22 568.11 973.86 568.89 973.86H573.89L576.62 963.42L571.82 963.46ZM578.71 963.46L576 973.9H583.58L586.28 963.46H578.71Z" fill="#182E6A"/>
<path d="M622.48 971.45C614.558 972.548 606.577 973.166 598.58 973.3C598.315 973.3 598.06 973.195 597.873 973.007C597.685 972.82 597.58 972.565 597.58 972.3C597.579 972.048 597.674 971.805 597.844 971.62C598.015 971.434 598.249 971.32 598.5 971.3C602.09 971.19 605.64 971.04 609.23 970.82V966.01H606.6C603.35 966.01 600.98 964.01 600.98 960.68C600.943 959.876 601.09 959.074 601.41 958.335C601.731 957.597 602.217 956.942 602.83 956.42H600.06C599.795 956.42 599.541 956.315 599.353 956.127C599.165 955.94 599.06 955.685 599.06 955.42C599.06 955.155 599.165 954.9 599.353 954.713C599.541 954.525 599.795 954.42 600.06 954.42H609.12V952.05C609.156 951.781 609.289 951.535 609.493 951.356C609.697 951.178 609.959 951.079 610.23 951.079C610.501 951.079 610.763 951.178 610.967 951.356C611.171 951.535 611.304 951.781 611.34 952.05V954.42H620.41C620.675 954.42 620.93 954.525 621.117 954.713C621.305 954.9 621.41 955.155 621.41 955.42C621.41 955.685 621.305 955.94 621.117 956.127C620.93 956.315 620.675 956.42 620.41 956.42H617.67C618.264 956.957 618.737 957.615 619.056 958.35C619.375 959.085 619.533 959.879 619.52 960.68C619.52 963.97 617 966.01 613.75 966.01H611.45V970.67C615.12 970.37 618.74 970 622.45 969.45C622.578 969.434 622.709 969.446 622.832 969.485C622.955 969.525 623.068 969.591 623.163 969.678C623.259 969.766 623.334 969.873 623.383 969.992C623.433 970.112 623.455 970.241 623.45 970.37C623.449 970.638 623.35 970.896 623.171 971.095C622.992 971.294 622.746 971.421 622.48 971.45ZM628.07 983.89C628.335 983.89 628.59 983.995 628.777 984.183C628.965 984.37 629.07 984.625 629.07 984.89C629.07 985.155 628.965 985.41 628.777 985.597C628.59 985.785 628.335 985.89 628.07 985.89H602.65C602.491 985.905 602.33 985.885 602.18 985.832C602.029 985.778 601.892 985.692 601.778 985.579C601.665 985.466 601.577 985.33 601.522 985.18C601.467 985.03 601.446 984.869 601.46 984.71V977.23C601.496 976.961 601.629 976.715 601.833 976.536C602.037 976.358 602.299 976.259 602.57 976.259C602.841 976.259 603.103 976.358 603.307 976.536C603.511 976.715 603.644 976.961 603.68 977.23V983.97L628.07 983.89ZM607.07 964.16H613.43C615.8 964.16 617.32 962.8 617.32 960.43C617.335 959.926 617.249 959.424 617.069 958.953C616.888 958.482 616.617 958.051 616.269 957.686C615.921 957.32 615.505 957.027 615.043 956.824C614.582 956.62 614.084 956.51 613.58 956.5H606.96C606.458 956.51 605.962 956.621 605.503 956.825C605.043 957.029 604.629 957.322 604.285 957.688C603.94 958.054 603.672 958.485 603.496 958.956C603.32 959.427 603.24 959.928 603.26 960.43C603.223 960.934 603.297 961.441 603.475 961.914C603.653 962.387 603.932 962.816 604.293 963.171C604.653 963.526 605.087 963.798 605.563 963.969C606.039 964.14 606.546 964.205 607.05 964.16H607.07ZM632.38 963.31C632.645 963.31 632.9 963.415 633.087 963.603C633.275 963.79 633.38 964.045 633.38 964.31C633.38 964.575 633.275 964.83 633.087 965.017C632.9 965.205 632.645 965.31 632.38 965.31H628.2V977.52C628.2 977.814 628.083 978.097 627.875 978.305C627.667 978.513 627.384 978.63 627.09 978.63C626.796 978.63 626.513 978.513 626.305 978.305C626.097 978.097 625.98 977.814 625.98 977.52V953.17C625.98 952.876 626.097 952.593 626.305 952.385C626.513 952.177 626.796 952.06 627.09 952.06C627.384 952.06 627.667 952.177 627.875 952.385C628.083 952.593 628.2 952.876 628.2 953.17V963.31H632.38Z" fill="#182E6A"/>
<path d="M653.6 954.51C653.6 965.39 646.53 970.12 636.76 970.86C636.495 970.86 636.24 970.755 636.053 970.567C635.865 970.379 635.76 970.125 635.76 969.86C635.758 969.613 635.848 969.374 636.013 969.189C636.177 969.004 636.404 968.887 636.65 968.86C645.65 968.15 651.38 964.08 651.38 954.94H636.87C636.605 954.94 636.35 954.835 636.163 954.647C635.975 954.459 635.87 954.205 635.87 953.94C635.87 953.675 635.975 953.42 636.163 953.233C636.35 953.045 636.605 952.94 636.87 952.94H652.37C652.535 952.921 652.702 952.939 652.86 952.994C653.017 953.048 653.16 953.138 653.278 953.255C653.396 953.372 653.486 953.514 653.542 953.671C653.598 953.827 653.617 953.995 653.6 954.16V954.51ZM659.48 973.38C663.48 973.38 666.69 975.89 666.69 979.67C666.69 983.45 663.51 986 659.48 986H644.42C640.42 986 637.2 983.44 637.2 979.67C637.2 975.9 640.39 973.38 644.42 973.38H659.48ZM659.37 984.07C662.22 984.07 664.47 982.33 664.47 979.67C664.47 977.01 662.22 975.3 659.37 975.3H644.53C641.68 975.3 639.42 977 639.42 979.67C639.42 982.34 641.68 984.07 644.53 984.07H659.37ZM654.71 966.35C654.445 966.35 654.19 966.245 654.003 966.057C653.815 965.87 653.71 965.615 653.71 965.35C653.71 965.085 653.815 964.83 654.003 964.643C654.19 964.455 654.445 964.35 654.71 964.35H663.77V958.77H655.82C655.555 958.77 655.3 958.665 655.113 958.477C654.925 958.29 654.82 958.035 654.82 957.77C654.82 957.505 654.925 957.25 655.113 957.063C655.3 956.875 655.555 956.77 655.82 956.77H663.77V953.03C663.77 952.736 663.887 952.453 664.095 952.245C664.303 952.037 664.585 951.92 664.88 951.92C665.174 951.92 665.457 952.037 665.665 952.245C665.873 952.453 665.99 952.736 665.99 953.03V971.03C665.99 971.324 665.873 971.607 665.665 971.815C665.457 972.023 665.174 972.14 664.88 972.14C664.585 972.14 664.303 972.023 664.095 971.815C663.887 971.607 663.77 971.324 663.77 971.03V966.26L654.71 966.35Z" fill="#182E6A"/>
<path d="M672.539 984.66C672.274 984.66 672.02 984.555 671.832 984.367C671.644 984.18 671.539 983.925 671.539 983.66C671.539 983.395 671.644 983.141 671.832 982.953C672.02 982.765 672.274 982.66 672.539 982.66H687.299V974.59C687.335 974.321 687.468 974.075 687.672 973.896C687.876 973.718 688.138 973.619 688.409 973.619C688.68 973.619 688.942 973.718 689.146 973.896C689.35 974.075 689.483 974.321 689.519 974.59V982.66H704.289C704.554 982.66 704.809 982.765 704.996 982.953C705.184 983.141 705.289 983.395 705.289 983.66C705.289 983.925 705.184 984.18 704.996 984.367C704.809 984.555 704.554 984.66 704.289 984.66H672.539ZM675.539 971.49C675.38 971.505 675.219 971.485 675.069 971.432C674.918 971.378 674.781 971.292 674.667 971.179C674.554 971.066 674.466 970.93 674.411 970.78C674.356 970.63 674.335 970.469 674.349 970.31V954C674.349 953.706 674.466 953.423 674.674 953.215C674.882 953.007 675.165 952.89 675.459 952.89C675.753 952.89 676.036 953.007 676.244 953.215C676.452 953.423 676.569 953.706 676.569 954V959.55H700.329V954C700.329 953.706 700.446 953.423 700.654 953.215C700.862 953.007 701.145 952.89 701.439 952.89C701.733 952.89 702.016 953.007 702.224 953.215C702.432 953.423 702.549 953.706 702.549 954V970.32C702.565 970.479 702.545 970.639 702.491 970.789C702.437 970.94 702.351 971.076 702.238 971.189C702.125 971.302 701.989 971.388 701.838 971.442C701.688 971.496 701.528 971.516 701.369 971.5L675.539 971.49ZM676.539 969.57H700.299V961.46H676.529L676.539 969.57Z" fill="#182E6A"/>
<path d="M709.539 984.66C709.274 984.66 709.02 984.555 708.832 984.367C708.644 984.179 708.539 983.925 708.539 983.66C708.539 983.395 708.644 983.14 708.832 982.953C709.02 982.765 709.274 982.66 709.539 982.66H724.299V976.37C724.335 976.101 724.468 975.855 724.672 975.676C724.876 975.498 725.138 975.399 725.409 975.399C725.68 975.399 725.942 975.498 726.146 975.676C726.35 975.855 726.483 976.101 726.519 976.37V982.66H741.289C741.554 982.66 741.809 982.765 741.996 982.953C742.184 983.14 742.289 983.395 742.289 983.66C742.289 983.925 742.184 984.179 741.996 984.367C741.809 984.555 741.554 984.66 741.289 984.66H709.539ZM710.999 958.39C710.734 958.39 710.48 958.285 710.292 958.097C710.104 957.909 709.999 957.655 709.999 957.39C709.999 957.125 710.104 956.87 710.292 956.683C710.48 956.495 710.734 956.39 710.999 956.39H724.299V952.13C724.335 951.861 724.468 951.615 724.672 951.436C724.876 951.258 725.138 951.159 725.409 951.159C725.68 951.159 725.942 951.258 726.146 951.436C726.35 951.615 726.483 951.861 726.519 952.13V956.39H739.809C740.074 956.39 740.329 956.495 740.516 956.683C740.704 956.87 740.809 957.125 740.809 957.39C740.809 957.655 740.704 957.909 740.516 958.097C740.329 958.285 740.074 958.39 739.809 958.39H710.999ZM718.399 973.82C714.109 973.82 711.149 971.16 711.149 967.61C711.149 964.06 714.149 961.39 718.399 961.39H732.459C736.759 961.39 739.719 964.05 739.719 967.61C739.719 971.17 736.719 973.82 732.459 973.82H718.399ZM732.239 971.9C735.239 971.9 737.499 970.08 737.499 967.61C737.499 965.14 735.269 963.31 732.239 963.31H718.599C715.599 963.31 713.349 965.13 713.349 967.61C713.349 970.09 715.569 971.9 718.599 971.9H732.239Z" fill="#182E6A"/>
<path d="M762.301 954.36C762.301 964.68 756.121 969.2 747.801 970.08C747.663 970.091 747.524 970.073 747.393 970.028C747.263 969.983 747.143 969.911 747.041 969.817C746.94 969.723 746.859 969.609 746.804 969.482C746.749 969.355 746.72 969.218 746.721 969.08C746.718 968.839 746.803 968.605 746.959 968.421C747.115 968.237 747.332 968.116 747.571 968.08C752.421 967.56 756.341 965.64 758.421 961.98H748.241C747.976 961.98 747.721 961.875 747.534 961.687C747.346 961.5 747.241 961.245 747.241 960.98C747.241 960.715 747.346 960.46 747.534 960.273C747.721 960.085 747.976 959.98 748.241 959.98H759.301C759.847 958.333 760.111 956.605 760.081 954.87H747.871C747.606 954.87 747.351 954.765 747.164 954.577C746.976 954.39 746.871 954.135 746.871 953.87C746.871 953.605 746.976 953.351 747.164 953.163C747.351 952.975 747.606 952.87 747.871 952.87H761.301C761.435 952.86 761.57 952.878 761.696 952.925C761.822 952.971 761.936 953.045 762.031 953.14C762.126 953.235 762.2 953.349 762.246 953.475C762.293 953.601 762.311 953.736 762.301 953.87V954.36ZM776.771 973.27C776.93 973.255 777.09 973.274 777.24 973.328C777.39 973.382 777.527 973.468 777.64 973.581C777.752 973.694 777.839 973.831 777.893 973.981C777.946 974.131 777.966 974.291 777.951 974.45V984.89C777.951 985.184 777.834 985.467 777.626 985.675C777.418 985.883 777.135 986 776.841 986C776.546 986 776.264 985.883 776.056 985.675C775.848 985.467 775.731 985.184 775.731 984.89V984.66L749.791 985.77C749.629 985.792 749.464 985.777 749.309 985.726C749.153 985.675 749.012 985.59 748.894 985.476C748.777 985.363 748.687 985.224 748.631 985.07C748.575 984.917 748.554 984.753 748.571 984.59V974.45C748.557 974.291 748.578 974.13 748.633 973.98C748.688 973.83 748.776 973.694 748.889 973.581C749.003 973.468 749.14 973.382 749.29 973.328C749.441 973.275 749.602 973.255 749.761 973.27H776.771ZM750.771 983.78L775.711 982.78V975.23H750.791L750.771 983.78ZM778.001 953.17V970.38C778.001 970.674 777.884 970.957 777.676 971.165C777.467 971.373 777.185 971.49 776.891 971.49C776.596 971.49 776.314 971.373 776.106 971.165C775.898 970.957 775.781 970.674 775.781 970.38V962H769.201V970.4C769.201 970.694 769.084 970.977 768.876 971.185C768.668 971.393 768.385 971.51 768.091 971.51C767.796 971.51 767.514 971.393 767.306 971.185C767.098 970.977 766.981 970.694 766.981 970.4V953.17C766.981 952.876 767.098 952.593 767.306 952.385C767.514 952.177 767.796 952.06 768.091 952.06C768.385 952.06 768.668 952.177 768.876 952.385C769.084 952.593 769.201 952.876 769.201 953.17V960.06H775.781V953.17C775.781 952.876 775.898 952.593 776.106 952.385C776.314 952.177 776.596 952.06 776.891 952.06C777.185 952.06 777.467 952.177 777.676 952.385C777.884 952.593 778.001 952.876 778.001 953.17Z" fill="#182E6A"/>
<path d="M784.199 984.11C783.934 984.11 783.68 984.005 783.492 983.817C783.305 983.63 783.199 983.375 783.199 983.11C783.199 982.845 783.305 982.59 783.492 982.403C783.68 982.215 783.934 982.11 784.199 982.11H787.719L786.829 958.57C786.818 958.423 786.839 958.276 786.892 958.138C786.944 958 787.026 957.876 787.132 957.774C787.238 957.671 787.366 957.594 787.505 957.547C787.645 957.499 787.793 957.483 787.939 957.5C788.218 957.489 788.49 957.587 788.698 957.774C788.905 957.961 789.031 958.222 789.049 958.5L789.899 982.11H794.819L795.709 958.5C795.727 958.222 795.853 957.961 796.061 957.774C796.268 957.587 796.54 957.489 796.819 957.5C796.966 957.483 797.114 957.499 797.253 957.547C797.393 957.594 797.52 957.671 797.626 957.774C797.732 957.876 797.814 958 797.867 958.138C797.919 958.276 797.94 958.423 797.929 958.57L796.999 982.19H800.479C800.744 982.19 800.999 982.295 801.186 982.483C801.374 982.671 801.479 982.925 801.479 983.19C801.479 983.455 801.374 983.71 801.186 983.897C800.999 984.085 800.744 984.19 800.479 984.19L784.199 984.11ZM784.569 955.88C784.304 955.88 784.05 955.775 783.862 955.587C783.675 955.4 783.569 955.145 783.569 954.88C783.569 954.615 783.675 954.361 783.862 954.173C784.05 953.985 784.304 953.88 784.569 953.88H800.119C800.384 953.88 800.639 953.985 800.826 954.173C801.014 954.361 801.119 954.615 801.119 954.88C801.119 955.145 801.014 955.4 800.826 955.587C800.639 955.775 800.384 955.88 800.119 955.88H784.569ZM805.439 984.88V968.83H800.519C800.254 968.83 800 968.725 799.812 968.537C799.625 968.35 799.519 968.095 799.519 967.83C799.519 967.565 799.625 967.31 799.812 967.123C800 966.935 800.254 966.83 800.519 966.83H805.439V953.17C805.439 952.876 805.556 952.593 805.764 952.385C805.973 952.177 806.255 952.06 806.549 952.06C806.844 952.06 807.126 952.177 807.334 952.385C807.542 952.593 807.659 952.876 807.659 953.17V984.89C807.659 985.184 807.542 985.467 807.334 985.675C807.126 985.883 806.844 986 806.549 986C806.255 986 805.973 985.883 805.764 985.675C805.556 985.467 805.439 985.184 805.439 984.89V984.88ZM812.729 984.88V953.17C812.729 952.876 812.846 952.593 813.054 952.385C813.262 952.177 813.545 952.06 813.839 952.06C814.134 952.06 814.416 952.177 814.624 952.385C814.832 952.593 814.949 952.876 814.949 953.17V984.89C814.949 985.184 814.832 985.467 814.624 985.675C814.416 985.883 814.134 986 813.839 986C813.545 986 813.262 985.883 813.054 985.675C812.846 985.467 812.729 985.184 812.729 984.89V984.88Z" fill="#182E6A"/>
<path d="M821 963.91V960.13C821 954.91 825.37 952.21 830.69 952.21C836.01 952.21 840.39 954.91 840.39 960.13V963.91C840.39 969.16 836.06 971.91 830.69 971.91C825.32 971.91 821 969.16 821 963.91ZM824.33 985.81C824.171 985.826 824.011 985.806 823.861 985.752C823.71 985.698 823.574 985.612 823.461 985.499C823.348 985.386 823.262 985.25 823.208 985.099C823.154 984.949 823.134 984.789 823.15 984.63V975.56C823.186 975.291 823.319 975.045 823.523 974.866C823.727 974.688 823.989 974.589 824.26 974.589C824.531 974.589 824.793 974.688 824.997 974.866C825.201 975.045 825.334 975.291 825.37 975.56V983.89H851.42C851.685 983.89 851.94 983.995 852.127 984.183C852.315 984.371 852.42 984.625 852.42 984.89C852.42 985.155 852.315 985.41 852.127 985.597C851.94 985.785 851.685 985.89 851.42 985.89L824.33 985.81ZM838.17 963.81V960.22C838.17 956.22 834.99 954.12 830.73 954.12C826.47 954.12 823.22 956.26 823.22 960.22V963.81C823.22 967.81 826.44 969.92 830.73 969.92C835.02 969.92 838.19 967.79 838.19 963.83L838.17 963.81ZM849.34 975.5V953.17C849.34 952.876 849.457 952.593 849.665 952.385C849.873 952.177 850.156 952.06 850.45 952.06C850.744 952.06 851.027 952.177 851.235 952.385C851.443 952.593 851.56 952.876 851.56 953.17V975.52C851.56 975.814 851.443 976.097 851.235 976.305C851.027 976.513 850.744 976.63 850.45 976.63C850.156 976.63 849.873 976.513 849.665 976.305C849.457 976.097 849.34 975.814 849.34 975.52V975.5Z" fill="#182E6A"/>
<path d="M150.28 1018.46C149.58 1018.46 149.21 1018.02 149.28 1017.46C149.35 1016.9 149.73 1016.57 150.47 1016.57H155.58L157.98 1007.39C158.035 1007.15 158.18 1006.93 158.385 1006.79C158.591 1006.65 158.842 1006.59 159.09 1006.62C159.23 1006.61 159.37 1006.64 159.497 1006.7C159.624 1006.76 159.733 1006.85 159.814 1006.96C159.896 1007.08 159.946 1007.21 159.961 1007.35C159.976 1007.49 159.955 1007.63 159.9 1007.76L157.65 1016.57H165.27L167.64 1007.39C167.695 1007.15 167.833 1006.95 168.03 1006.8C168.227 1006.66 168.469 1006.6 168.71 1006.62C169.34 1006.62 169.78 1006.99 169.6 1007.76L167.34 1016.57H172.34C172.477 1016.55 172.617 1016.57 172.745 1016.62C172.874 1016.67 172.987 1016.75 173.073 1016.86C173.159 1016.97 173.215 1017.1 173.236 1017.23C173.256 1017.37 173.241 1017.51 173.19 1017.64C173.139 1017.87 173.012 1018.07 172.83 1018.21C172.647 1018.35 172.421 1018.43 172.19 1018.42H166.82L164.12 1028.86H169.23C169.371 1028.84 169.514 1028.86 169.646 1028.92C169.777 1028.97 169.893 1029.06 169.982 1029.17C170.071 1029.28 170.13 1029.41 170.154 1029.55C170.178 1029.69 170.167 1029.84 170.12 1029.97C170.067 1030.19 169.939 1030.39 169.757 1030.53C169.575 1030.67 169.35 1030.75 169.12 1030.74H163.68L161.2 1040.36C161.141 1040.58 161.011 1040.77 160.829 1040.9C160.648 1041.04 160.426 1041.11 160.2 1041.1C159.5 1041.1 159.09 1040.77 159.28 1039.99L161.57 1030.74H154L151.49 1040.36C151.431 1040.58 151.301 1040.77 151.119 1040.9C150.938 1041.04 150.716 1041.11 150.49 1041.1C149.82 1041.1 149.38 1040.77 149.56 1039.99L151.89 1030.74H147.19C146.49 1030.74 146.12 1030.3 146.19 1029.74C146.26 1029.18 146.6 1028.82 147.38 1028.82H152.38L155.11 1018.38L150.28 1018.46ZM157.17 1018.46L154.46 1028.9H162.05L164.75 1018.46H157.17Z" fill="#182E6A"/>
<path d="M176.331 1037.41C176.324 1037.21 176.373 1037.01 176.472 1036.83C176.57 1036.66 176.715 1036.51 176.891 1036.41C180.891 1034.12 186.991 1028.05 186.991 1020.32V1011.14H178.441C178.175 1011.14 177.921 1011.03 177.734 1010.85C177.546 1010.66 177.441 1010.41 177.441 1010.14C177.441 1009.87 177.546 1009.62 177.734 1009.43C177.921 1009.25 178.175 1009.14 178.441 1009.14H197.761C198.026 1009.14 198.28 1009.25 198.468 1009.43C198.655 1009.62 198.761 1009.87 198.761 1010.14C198.761 1010.41 198.655 1010.66 198.468 1010.85C198.28 1011.03 198.026 1011.14 197.761 1011.14H189.211V1020.32C189.211 1028.05 195.311 1034.12 199.351 1036.41C199.524 1036.51 199.666 1036.66 199.763 1036.83C199.859 1037.01 199.907 1037.21 199.901 1037.41C199.89 1037.7 199.769 1037.97 199.562 1038.17C199.355 1038.37 199.078 1038.48 198.791 1038.48C198.597 1038.48 198.406 1038.43 198.241 1038.33C193.981 1035.89 189.171 1030.64 188.101 1025.33C187.031 1030.66 182.251 1035.91 177.961 1038.33C177.797 1038.43 177.611 1038.48 177.422 1038.48C177.232 1038.48 177.045 1038.43 176.88 1038.34C176.714 1038.25 176.577 1038.11 176.48 1037.95C176.384 1037.79 176.332 1037.6 176.331 1037.41ZM205.491 1039.89V1008.17C205.491 1007.88 205.608 1007.59 205.816 1007.39C206.024 1007.18 206.306 1007.06 206.601 1007.06C206.895 1007.06 207.177 1007.18 207.386 1007.39C207.594 1007.59 207.711 1007.88 207.711 1008.17V1039.89C207.711 1040.18 207.594 1040.47 207.386 1040.67C207.177 1040.88 206.895 1041 206.601 1041C206.306 1041 206.024 1040.88 205.816 1040.67C205.608 1040.47 205.491 1040.18 205.491 1039.89Z" fill="#182E6A"/>
<path d="M228.72 1040.26V1027.56H214C213.735 1027.56 213.48 1027.45 213.293 1027.27C213.105 1027.08 213 1026.83 213 1026.56C213 1026.29 213.105 1026.04 213.293 1025.85C213.48 1025.67 213.735 1025.56 214 1025.56H245.75C246.015 1025.56 246.27 1025.67 246.457 1025.85C246.645 1026.04 246.75 1026.29 246.75 1026.56C246.75 1026.83 246.645 1027.08 246.457 1027.27C246.27 1027.45 246.015 1027.56 245.75 1027.56H230.94V1040.26C230.94 1040.55 230.823 1040.84 230.615 1041.04C230.407 1041.25 230.124 1041.37 229.83 1041.37C229.536 1041.37 229.253 1041.25 229.045 1041.04C228.837 1040.84 228.72 1040.55 228.72 1040.26ZM239.86 1021.79C240.766 1017.97 241.384 1014.08 241.71 1010.17H216.44C216.175 1010.17 215.92 1010.06 215.733 1009.88C215.545 1009.69 215.44 1009.44 215.44 1009.17C215.44 1008.9 215.545 1008.65 215.733 1008.46C215.92 1008.28 216.175 1008.17 216.44 1008.17H242.93C243.71 1008.17 244.08 1008.61 244.04 1009.43C243.681 1013.64 243.013 1017.82 242.04 1021.93C241.979 1022.19 241.828 1022.43 241.612 1022.59C241.396 1022.75 241.13 1022.83 240.86 1022.82C240.23 1022.9 239.68 1022.42 239.86 1021.79Z" fill="#182E6A"/>
<path d="M252.66 1024.53C252.501 1024.55 252.341 1024.53 252.19 1024.47C252.04 1024.42 251.904 1024.33 251.791 1024.22C251.678 1024.11 251.592 1023.97 251.538 1023.82C251.484 1023.67 251.464 1023.51 251.48 1023.35V1008.84C251.48 1008.55 251.597 1008.26 251.805 1008.06C252.013 1007.85 252.295 1007.73 252.59 1007.73C252.884 1007.73 253.166 1007.85 253.375 1008.06C253.583 1008.26 253.7 1008.55 253.7 1008.84V1013.84H267.28V1008.84C267.28 1008.55 267.397 1008.26 267.605 1008.06C267.813 1007.85 268.095 1007.73 268.39 1007.73C268.684 1007.73 268.966 1007.85 269.175 1008.06C269.383 1008.26 269.5 1008.55 269.5 1008.84V1023.35C269.514 1023.51 269.492 1023.67 269.437 1023.82C269.382 1023.97 269.295 1024.11 269.181 1024.22C269.068 1024.33 268.931 1024.42 268.78 1024.47C268.63 1024.53 268.469 1024.55 268.31 1024.53H252.66ZM259.58 1041C255.58 1041 252.37 1038.44 252.37 1034.67C252.37 1030.9 255.55 1028.38 259.58 1028.38H274.49C278.49 1028.38 281.71 1030.89 281.71 1034.67C281.71 1038.45 278.53 1041 274.49 1041H259.58ZM253.7 1022.61H267.28V1015.76H253.7V1022.61ZM274.38 1039.07C277.23 1039.07 279.49 1037.33 279.49 1034.67C279.49 1032.01 277.23 1030.3 274.38 1030.3H259.69C256.84 1030.3 254.59 1032 254.59 1034.67C254.59 1037.34 256.84 1039.07 259.69 1039.07H274.38ZM278.38 1026.07V1008.12C278.38 1007.83 278.497 1007.54 278.705 1007.34C278.913 1007.13 279.195 1007.01 279.49 1007.01C279.784 1007.01 280.066 1007.13 280.275 1007.34C280.483 1007.54 280.6 1007.83 280.6 1008.12V1015H284.78C285.045 1015 285.299 1015.11 285.487 1015.29C285.674 1015.48 285.78 1015.73 285.78 1016C285.78 1016.27 285.674 1016.52 285.487 1016.71C285.299 1016.89 285.045 1017 284.78 1017H280.6V1026.21C280.6 1026.5 280.483 1026.79 280.275 1026.99C280.066 1027.2 279.784 1027.32 279.49 1027.32C279.195 1027.32 278.913 1027.2 278.705 1026.99C278.497 1026.79 278.38 1026.5 278.38 1026.21V1026.07Z" fill="#182E6A"/>
<path d="M295.999 1039.63C297.323 1036.08 298.22 1032.39 298.669 1028.63H287.699C287.434 1028.63 287.18 1028.52 286.992 1028.34C286.805 1028.15 286.699 1027.9 286.699 1027.63C286.699 1027.36 286.805 1027.11 286.992 1026.92C287.18 1026.74 287.434 1026.63 287.699 1026.63H312.159C312.424 1026.63 312.679 1026.74 312.866 1026.92C313.054 1027.11 313.159 1027.36 313.159 1027.63C313.159 1027.9 313.054 1028.15 312.866 1028.34C312.679 1028.52 312.424 1028.63 312.159 1028.63H300.909C300.424 1032.51 299.495 1036.32 298.139 1039.99C298.064 1040.23 297.918 1040.45 297.721 1040.6C297.523 1040.76 297.282 1040.86 297.029 1040.88C296.871 1040.89 296.714 1040.86 296.569 1040.8C296.424 1040.74 296.296 1040.64 296.195 1040.52C296.095 1040.4 296.025 1040.25 295.99 1040.1C295.956 1039.94 295.959 1039.78 295.999 1039.63ZM296.449 1022.86C292.269 1022.86 289.309 1019.46 289.309 1015.28C289.309 1011.1 292.309 1007.73 296.449 1007.73H303.329C307.509 1007.73 310.469 1011.1 310.469 1015.28C310.469 1019.46 307.469 1022.86 303.329 1022.86H296.449ZM303.139 1020.94C306.069 1020.94 308.249 1018.31 308.249 1015.28C308.286 1014.57 308.182 1013.87 307.944 1013.2C307.707 1012.54 307.34 1011.93 306.865 1011.4C306.39 1010.88 305.817 1010.45 305.177 1010.15C304.538 1009.85 303.845 1009.68 303.139 1009.65H296.669C295.264 1009.78 293.958 1010.43 293.008 1011.48C292.058 1012.52 291.531 1013.88 291.531 1015.29C291.531 1016.71 292.058 1018.07 293.008 1019.11C293.958 1020.16 295.264 1020.81 296.669 1020.94H303.139ZM316.839 1039.94V1008.22C316.839 1007.93 316.956 1007.64 317.164 1007.43C317.372 1007.23 317.655 1007.11 317.949 1007.11C318.244 1007.11 318.526 1007.23 318.734 1007.43C318.942 1007.64 319.059 1007.93 319.059 1008.22V1039.94C319.059 1040.23 318.942 1040.52 318.734 1040.72C318.526 1040.93 318.244 1041.05 317.949 1041.05C317.655 1041.05 317.372 1040.93 317.164 1040.72C316.956 1040.52 316.839 1040.23 316.839 1039.94Z" fill="#182E6A"/>
<path d="M325.77 1037.92V1010.14C325.763 1009.98 325.791 1009.82 325.851 1009.67C325.912 1009.53 326.004 1009.39 326.121 1009.29C326.238 1009.18 326.377 1009.1 326.529 1009.05C326.681 1009 326.841 1008.98 327 1009H339.28C339.545 1009 339.799 1009.11 339.987 1009.29C340.174 1009.48 340.28 1009.73 340.28 1010C340.28 1010.27 340.174 1010.52 339.987 1010.71C339.799 1010.89 339.545 1011 339.28 1011H328V1037.23C332.126 1037.16 336.229 1036.58 340.22 1035.53C340.355 1035.5 340.496 1035.5 340.63 1035.54C340.765 1035.57 340.89 1035.63 340.997 1035.72C341.104 1035.81 341.189 1035.92 341.247 1036.05C341.304 1036.17 341.333 1036.31 341.33 1036.45C341.324 1036.66 341.252 1036.86 341.125 1037.03C340.997 1037.2 340.821 1037.32 340.62 1037.38C336.167 1038.5 331.6 1039.11 327.01 1039.19C326.838 1039.22 326.661 1039.21 326.495 1039.15C326.329 1039.1 326.179 1039 326.057 1038.88C325.935 1038.75 325.846 1038.6 325.795 1038.44C325.745 1038.27 325.737 1038.09 325.77 1037.92ZM354.19 1039.92V1023.78H346.68V1040.1C346.68 1040.39 346.563 1040.68 346.355 1040.88C346.146 1041.09 345.864 1041.21 345.57 1041.21C345.275 1041.21 344.993 1041.09 344.785 1040.88C344.577 1040.68 344.46 1040.39 344.46 1040.1V1008.2C344.46 1007.91 344.577 1007.62 344.785 1007.42C344.993 1007.21 345.275 1007.09 345.57 1007.09C345.864 1007.09 346.146 1007.21 346.355 1007.42C346.563 1007.62 346.68 1007.91 346.68 1008.2V1021.86H354.19V1008.2C354.19 1007.91 354.307 1007.62 354.515 1007.42C354.723 1007.21 355.005 1007.09 355.3 1007.09C355.594 1007.09 355.876 1007.21 356.085 1007.42C356.293 1007.62 356.41 1007.91 356.41 1008.2V1039.92C356.41 1040.21 356.293 1040.5 356.085 1040.7C355.876 1040.91 355.594 1041.03 355.3 1041.03C355.005 1041.03 354.723 1040.91 354.515 1040.7C354.307 1040.5 354.19 1040.21 354.19 1039.92Z" fill="#182E6A"/>
<path d="M377.76 1009.36C377.76 1019.68 371.58 1024.2 363.26 1025.08C363.122 1025.09 362.983 1025.07 362.852 1025.03C362.722 1024.98 362.602 1024.91 362.5 1024.82C362.399 1024.72 362.318 1024.61 362.263 1024.48C362.208 1024.36 362.179 1024.22 362.18 1024.08C362.177 1023.84 362.262 1023.6 362.418 1023.42C362.574 1023.24 362.791 1023.12 363.03 1023.08C367.88 1022.56 371.8 1020.64 373.88 1016.98H363.7C363.435 1016.98 363.18 1016.87 362.993 1016.69C362.805 1016.5 362.7 1016.25 362.7 1015.98C362.7 1015.71 362.805 1015.46 362.993 1015.27C363.18 1015.09 363.435 1014.98 363.7 1014.98H374.76C375.306 1013.33 375.57 1011.61 375.54 1009.87H363.33C363.065 1009.87 362.81 1009.76 362.623 1009.58C362.435 1009.39 362.33 1009.14 362.33 1008.87C362.33 1008.6 362.435 1008.35 362.623 1008.16C362.81 1007.98 363.065 1007.87 363.33 1007.87H376.76C376.894 1007.86 377.028 1007.88 377.155 1007.92C377.281 1007.97 377.395 1008.04 377.49 1008.14C377.585 1008.23 377.659 1008.35 377.705 1008.48C377.752 1008.6 377.77 1008.74 377.76 1008.87V1009.36ZM392.23 1028.27C392.389 1028.25 392.549 1028.27 392.699 1028.33C392.849 1028.38 392.986 1028.47 393.099 1028.58C393.211 1028.69 393.298 1028.83 393.352 1028.98C393.405 1029.13 393.425 1029.29 393.41 1029.45V1039.89C393.41 1040.18 393.293 1040.47 393.085 1040.67C392.876 1040.88 392.594 1041 392.3 1041C392.005 1041 391.723 1040.88 391.515 1040.67C391.307 1040.47 391.19 1040.18 391.19 1039.89V1039.66L365.25 1040.77C365.088 1040.79 364.923 1040.78 364.768 1040.73C364.612 1040.68 364.471 1040.59 364.353 1040.48C364.236 1040.36 364.146 1040.22 364.09 1040.07C364.034 1039.92 364.013 1039.75 364.03 1039.59V1029.45C364.016 1029.29 364.037 1029.13 364.092 1028.98C364.147 1028.83 364.235 1028.69 364.348 1028.58C364.462 1028.47 364.599 1028.38 364.749 1028.33C364.9 1028.27 365.061 1028.25 365.22 1028.27H392.23ZM366.23 1038.78L391.17 1037.78V1030.23H366.25L366.23 1038.78ZM393.39 1008.17V1025.38C393.39 1025.67 393.273 1025.96 393.065 1026.16C392.856 1026.37 392.574 1026.49 392.28 1026.49C391.985 1026.49 391.703 1026.37 391.495 1026.16C391.287 1025.96 391.17 1025.67 391.17 1025.38V1017H384.59V1025.4C384.59 1025.69 384.473 1025.98 384.265 1026.18C384.056 1026.39 383.774 1026.51 383.48 1026.51C383.185 1026.51 382.903 1026.39 382.695 1026.18C382.487 1025.98 382.37 1025.69 382.37 1025.4V1008.19C382.37 1007.9 382.487 1007.61 382.695 1007.41C382.903 1007.2 383.185 1007.08 383.48 1007.08C383.774 1007.08 384.056 1007.2 384.265 1007.41C384.473 1007.61 384.59 1007.9 384.59 1008.19V1015.08H391.17V1008.19C391.17 1007.9 391.287 1007.61 391.495 1007.41C391.703 1007.2 391.985 1007.08 392.28 1007.08C392.574 1007.08 392.856 1007.2 393.065 1007.41C393.273 1007.61 393.39 1007.9 393.39 1008.19V1008.17Z" fill="#182E6A"/>
<path d="M399.66 1039.11C399.395 1039.11 399.141 1039 398.953 1038.82C398.765 1038.63 398.66 1038.38 398.66 1038.11C398.66 1037.84 398.765 1037.59 398.953 1037.4C399.141 1037.22 399.395 1037.11 399.66 1037.11H403.18L402.29 1013.57C402.279 1013.42 402.3 1013.28 402.353 1013.14C402.405 1013 402.487 1012.88 402.593 1012.77C402.699 1012.67 402.827 1012.59 402.966 1012.55C403.106 1012.5 403.254 1012.48 403.4 1012.5C403.679 1012.49 403.951 1012.59 404.159 1012.77C404.366 1012.96 404.492 1013.22 404.51 1013.5L405.36 1037.11H410.28L411.17 1013.5C411.188 1013.22 411.314 1012.96 411.522 1012.77C411.729 1012.59 412.001 1012.49 412.28 1012.5C412.427 1012.48 412.575 1012.5 412.714 1012.55C412.854 1012.59 412.981 1012.67 413.087 1012.77C413.193 1012.88 413.275 1013 413.328 1013.14C413.38 1013.28 413.401 1013.42 413.39 1013.57L412.47 1037.11H415.94C416.205 1037.11 416.46 1037.22 416.647 1037.4C416.835 1037.59 416.94 1037.84 416.94 1038.11C416.94 1038.38 416.835 1038.63 416.647 1038.82C416.46 1039 416.205 1039.11 415.94 1039.11H399.66ZM400.03 1010.88C399.765 1010.88 399.511 1010.77 399.323 1010.59C399.136 1010.4 399.03 1010.15 399.03 1009.88C399.03 1009.61 399.136 1009.36 399.323 1009.17C399.511 1008.99 399.765 1008.88 400.03 1008.88H415.57C415.835 1008.88 416.09 1008.99 416.277 1009.17C416.465 1009.36 416.57 1009.61 416.57 1009.88C416.57 1010.15 416.465 1010.4 416.277 1010.59C416.09 1010.77 415.835 1010.88 415.57 1010.88H400.03ZM420.9 1039.88V1023.82H416C415.735 1023.82 415.481 1023.71 415.293 1023.53C415.106 1023.34 415 1023.09 415 1022.82C415 1022.55 415.106 1022.3 415.293 1022.11C415.481 1021.93 415.735 1021.82 416 1021.82H420.92V1008.09C420.92 1007.8 421.037 1007.51 421.245 1007.31C421.453 1007.1 421.736 1006.98 422.03 1006.98C422.325 1006.98 422.607 1007.1 422.815 1007.31C423.023 1007.51 423.14 1007.8 423.14 1008.09V1039.81C423.14 1040.1 423.023 1040.39 422.815 1040.59C422.607 1040.8 422.325 1040.92 422.03 1040.92C421.736 1040.92 421.453 1040.8 421.245 1040.59C421.037 1040.39 420.92 1040.1 420.92 1039.81L420.9 1039.88ZM428.19 1039.88V1008.16C428.19 1007.87 428.307 1007.58 428.515 1007.38C428.723 1007.17 429.006 1007.05 429.3 1007.05C429.595 1007.05 429.877 1007.17 430.085 1007.38C430.293 1007.58 430.41 1007.87 430.41 1008.16V1039.88C430.41 1040.17 430.293 1040.46 430.085 1040.66C429.877 1040.87 429.595 1040.99 429.3 1040.99C429.006 1040.99 428.723 1040.87 428.515 1040.66C428.307 1040.46 428.19 1040.17 428.19 1039.88Z" fill="#182E6A"/>
<path d="M436.48 1018.91V1015.13C436.48 1009.91 440.84 1007.21 446.17 1007.21C451.5 1007.21 455.87 1009.91 455.87 1015.13V1018.91C455.87 1024.16 451.54 1026.86 446.17 1026.86C440.8 1026.86 436.48 1024.16 436.48 1018.91ZM439.81 1040.81C439.651 1040.83 439.491 1040.81 439.34 1040.75C439.189 1040.7 439.052 1040.61 438.939 1040.5C438.825 1040.39 438.738 1040.25 438.683 1040.1C438.628 1039.95 438.607 1039.79 438.62 1039.63V1030.56C438.657 1030.29 438.789 1030.04 438.993 1029.87C439.197 1029.69 439.459 1029.59 439.73 1029.59C440.002 1029.59 440.264 1029.69 440.468 1029.87C440.672 1030.04 440.804 1030.29 440.84 1030.56V1038.89H466.89C467.156 1038.89 467.41 1039 467.598 1039.18C467.785 1039.37 467.89 1039.62 467.89 1039.89C467.89 1040.16 467.785 1040.41 467.598 1040.6C467.41 1040.78 467.156 1040.89 466.89 1040.89L439.81 1040.81ZM453.65 1018.81V1015.22C453.65 1011.22 450.46 1009.12 446.21 1009.12C441.96 1009.12 438.7 1011.26 438.7 1015.22V1018.81C438.7 1022.81 441.92 1024.92 446.21 1024.92C450.5 1024.92 453.65 1022.79 453.65 1018.83V1018.81ZM464.82 1030.5V1008.15C464.82 1007.86 464.937 1007.57 465.146 1007.37C465.354 1007.16 465.636 1007.04 465.93 1007.04C466.225 1007.04 466.507 1007.16 466.715 1007.37C466.923 1007.57 467.04 1007.86 467.04 1008.15V1030.5C467.04 1030.79 466.923 1031.08 466.715 1031.28C466.507 1031.49 466.225 1031.61 465.93 1031.61C465.636 1031.61 465.354 1031.49 465.146 1031.28C464.937 1031.08 464.82 1030.79 464.82 1030.5Z" fill="#182E6A"/>
<path d="M486.72 1018.46C486.02 1018.46 485.65 1018.02 485.72 1017.46C485.79 1016.9 486.17 1016.57 486.91 1016.57H492L494.4 1007.39C494.456 1007.15 494.6 1006.93 494.806 1006.79C495.011 1006.65 495.263 1006.59 495.51 1006.62C495.65 1006.61 495.791 1006.64 495.917 1006.7C496.044 1006.76 496.153 1006.85 496.235 1006.96C496.316 1007.08 496.367 1007.21 496.382 1007.35C496.397 1007.49 496.376 1007.63 496.32 1007.76L494.07 1016.57H501.69L504.06 1007.39C504.115 1007.15 504.254 1006.95 504.451 1006.8C504.647 1006.66 504.889 1006.6 505.13 1006.62C505.76 1006.62 506.2 1006.99 506.02 1007.76L503.76 1016.57H508.76C508.897 1016.55 509.037 1016.57 509.166 1016.62C509.294 1016.67 509.407 1016.75 509.494 1016.86C509.58 1016.97 509.636 1017.1 509.656 1017.23C509.677 1017.37 509.661 1017.51 509.61 1017.64C509.56 1017.87 509.432 1018.07 509.25 1018.21C509.068 1018.35 508.842 1018.43 508.61 1018.42H503.24L500.54 1028.86H505.65C505.792 1028.84 505.935 1028.86 506.066 1028.92C506.198 1028.97 506.313 1029.06 506.402 1029.17C506.491 1029.28 506.551 1029.41 506.575 1029.55C506.599 1029.69 506.587 1029.84 506.54 1029.97C506.488 1030.19 506.359 1030.39 506.177 1030.53C505.995 1030.67 505.77 1030.75 505.54 1030.74H500.1L497.62 1040.36C497.562 1040.58 497.431 1040.77 497.25 1040.9C497.068 1041.04 496.846 1041.11 496.62 1041.1C495.92 1041.1 495.51 1040.77 495.7 1039.99L497.99 1030.74H490.4L487.89 1040.36C487.832 1040.58 487.701 1040.77 487.52 1040.9C487.338 1041.04 487.116 1041.11 486.89 1041.1C486.22 1041.1 485.78 1040.77 485.96 1039.99L488.29 1030.74H483.59C482.89 1030.74 482.52 1030.3 482.59 1029.74C482.66 1029.18 483 1028.82 483.78 1028.82H488.78L491.51 1018.38L486.72 1018.46ZM493.61 1018.46L490.91 1028.9H498.49L501.19 1018.46H493.61Z" fill="#182E6A"/>
<path d="M513 1036.63C513 1036.47 513.036 1036.31 513.105 1036.16C513.174 1036.01 513.275 1035.88 513.4 1035.78C518.47 1031.56 518.99 1024.23 518.99 1010.88H514.33C514.065 1010.88 513.81 1010.77 513.623 1010.59C513.435 1010.4 513.33 1010.15 513.33 1009.88C513.33 1009.61 513.435 1009.36 513.623 1009.17C513.81 1008.99 514.065 1008.88 514.33 1008.88H519.84C520.028 1008.86 520.217 1008.89 520.394 1008.95C520.572 1009.02 520.732 1009.12 520.863 1009.26C520.995 1009.39 521.094 1009.55 521.154 1009.73C521.214 1009.91 521.233 1010.1 521.21 1010.29V1010.62C521.21 1024.24 520.58 1032.05 514.88 1037.34C514.666 1037.52 514.393 1037.63 514.11 1037.63C513.833 1037.63 513.565 1037.53 513.359 1037.35C513.153 1037.16 513.025 1036.91 513 1036.63ZM521.47 1038.37C521.484 1038.06 521.617 1037.77 521.84 1037.55C526.61 1033.08 528.06 1026.34 528.06 1010.88H523.39C523.125 1010.88 522.87 1010.77 522.683 1010.59C522.495 1010.4 522.39 1010.15 522.39 1009.88C522.39 1009.61 522.495 1009.36 522.683 1009.17C522.87 1008.99 523.125 1008.88 523.39 1008.88H528.91C529.098 1008.86 529.287 1008.89 529.464 1008.95C529.642 1009.02 529.802 1009.12 529.933 1009.26C530.065 1009.39 530.164 1009.55 530.224 1009.73C530.284 1009.91 530.303 1010.1 530.28 1010.29V1010.62C530.28 1026.62 528.72 1033.75 523.36 1039.08C523.15 1039.28 522.872 1039.4 522.58 1039.41C522.436 1039.42 522.292 1039.4 522.156 1039.35C522.02 1039.3 521.895 1039.23 521.788 1039.13C521.681 1039.03 521.594 1038.92 521.533 1038.79C521.471 1038.66 521.436 1038.51 521.43 1038.37H521.47ZM534.53 1039.89V1008.17C534.53 1007.88 534.647 1007.59 534.855 1007.39C535.063 1007.18 535.346 1007.06 535.64 1007.06C535.934 1007.06 536.217 1007.18 536.425 1007.39C536.633 1007.59 536.75 1007.88 536.75 1008.17V1021.83H542.67V1008.17C542.67 1007.88 542.787 1007.59 542.995 1007.39C543.203 1007.18 543.486 1007.06 543.78 1007.06C544.074 1007.06 544.357 1007.18 544.565 1007.39C544.773 1007.59 544.89 1007.88 544.89 1008.17V1039.89C544.89 1040.18 544.773 1040.47 544.565 1040.67C544.357 1040.88 544.074 1041 543.78 1041C543.486 1041 543.203 1040.88 542.995 1040.67C542.787 1040.47 542.67 1040.18 542.67 1039.89V1023.75H536.75V1039.89C536.75 1040.18 536.633 1040.47 536.425 1040.67C536.217 1040.88 535.934 1041 535.64 1041C535.346 1041 535.063 1040.88 534.855 1040.67C534.647 1040.47 534.53 1040.18 534.53 1039.89Z" fill="#182E6A"/>
<path d="M582.189 1022C582.455 1022 582.709 1022.11 582.897 1022.29C583.084 1022.48 583.189 1022.73 583.189 1023C583.189 1023.27 583.084 1023.52 582.897 1023.71C582.709 1023.89 582.455 1024 582.189 1024H550.439C550.174 1024 549.92 1023.89 549.732 1023.71C549.545 1023.52 549.439 1023.27 549.439 1023C549.439 1022.73 549.545 1022.48 549.732 1022.29C549.92 1022.11 550.174 1022 550.439 1022H559.209C560.714 1018.06 561.816 1013.98 562.499 1009.82H552.499C552.234 1009.82 551.98 1009.71 551.792 1009.53C551.605 1009.34 551.499 1009.09 551.499 1008.82C551.499 1008.55 551.605 1008.3 551.792 1008.11C551.98 1007.93 552.234 1007.82 552.499 1007.82H563.819C564.629 1007.82 564.929 1008.3 564.819 1009.15C564.117 1013.53 563.006 1017.83 561.499 1022H575.159C576.527 1018.04 577.479 1013.95 577.999 1009.8H567.609C567.344 1009.8 567.09 1009.69 566.902 1009.51C566.715 1009.32 566.609 1009.07 566.609 1008.8C566.609 1008.53 566.715 1008.28 566.902 1008.09C567.09 1007.91 567.344 1007.8 567.609 1007.8H579.339C580.149 1007.8 580.559 1008.24 580.409 1009.06C579.834 1013.43 578.829 1017.73 577.409 1021.9L582.189 1022ZM581.559 1039.83C581.559 1040.1 581.454 1040.35 581.267 1040.54C581.079 1040.72 580.825 1040.83 580.559 1040.83C572.379 1040.61 567.499 1037.28 566.309 1033.83C565.129 1037.27 560.239 1040.6 552.069 1040.83C551.804 1040.83 551.55 1040.72 551.362 1040.54C551.175 1040.35 551.069 1040.1 551.069 1039.83C551.069 1039.58 551.163 1039.34 551.333 1039.15C551.504 1038.96 551.738 1038.85 551.989 1038.83C559.869 1038.61 565.199 1035.2 565.199 1030.65V1029.43C565.236 1029.16 565.368 1028.91 565.572 1028.74C565.776 1028.56 566.038 1028.46 566.309 1028.46C566.581 1028.46 566.843 1028.56 567.047 1028.74C567.251 1028.91 567.383 1029.16 567.419 1029.43V1030.65C567.419 1035.2 572.749 1038.65 580.629 1038.83C580.879 1038.85 581.113 1038.96 581.285 1039.14C581.457 1039.32 581.555 1039.56 581.559 1039.81V1039.83Z" fill="#182E6A"/>
<path d="M587.811 1012.54C587.545 1012.54 587.291 1012.43 587.103 1012.25C586.916 1012.06 586.811 1011.81 586.811 1011.54C586.811 1011.27 586.916 1011.02 587.103 1010.83C587.291 1010.65 587.545 1010.54 587.811 1010.54H596.811V1007.13C596.847 1006.86 596.979 1006.61 597.183 1006.44C597.387 1006.26 597.649 1006.16 597.921 1006.16C598.192 1006.16 598.454 1006.26 598.658 1006.44C598.862 1006.61 598.994 1006.86 599.031 1007.13V1010.54H608.031C608.296 1010.54 608.55 1010.65 608.738 1010.83C608.925 1011.02 609.031 1011.27 609.031 1011.54C609.031 1011.81 608.925 1012.06 608.738 1012.25C608.55 1012.43 608.296 1012.54 608.031 1012.54H587.811ZM593.811 1015.32H602.001C605.251 1015.32 607.811 1017.8 607.811 1021.5C607.811 1025.2 605.251 1027.71 602.001 1027.71H593.751C592.182 1027.6 590.713 1026.9 589.641 1025.75C588.568 1024.6 587.972 1023.09 587.972 1021.51C587.972 1019.94 588.568 1018.43 589.641 1017.28C590.713 1016.13 592.182 1015.43 593.751 1015.32H593.811ZM591.001 1040.81C590.842 1040.83 590.681 1040.81 590.531 1040.75C590.381 1040.7 590.245 1040.61 590.132 1040.5C590.019 1040.39 589.932 1040.25 589.879 1040.1C589.825 1039.95 589.805 1039.79 589.821 1039.63V1031.23C589.857 1030.96 589.989 1030.71 590.193 1030.54C590.397 1030.36 590.659 1030.26 590.931 1030.26C591.202 1030.26 591.464 1030.36 591.668 1030.54C591.872 1030.71 592.004 1030.96 592.041 1031.23V1038.89H617.041C617.306 1038.89 617.56 1039 617.748 1039.18C617.935 1039.37 618.041 1039.62 618.041 1039.89C618.041 1040.16 617.935 1040.41 617.748 1040.6C617.56 1040.78 617.306 1040.89 617.041 1040.89L591.001 1040.81ZM601.441 1025.81C602.539 1025.76 603.574 1025.28 604.332 1024.49C605.091 1023.69 605.514 1022.63 605.514 1021.53C605.514 1020.44 605.091 1019.38 604.332 1018.58C603.574 1017.79 602.539 1017.31 601.441 1017.26H594.441C593.343 1017.31 592.307 1017.79 591.549 1018.58C590.79 1019.38 590.367 1020.44 590.367 1021.53C590.367 1022.63 590.79 1023.69 591.549 1024.49C592.307 1025.28 593.343 1025.76 594.441 1025.81H601.441ZM614.911 1031.25V1008.19C614.911 1007.9 615.027 1007.61 615.236 1007.4C615.444 1007.2 615.726 1007.08 616.021 1007.08C616.315 1007.08 616.597 1007.2 616.805 1007.4C617.014 1007.61 617.131 1007.9 617.131 1008.19V1017.56H621.311C621.576 1017.56 621.83 1017.67 622.018 1017.85C622.205 1018.04 622.311 1018.29 622.311 1018.56C622.311 1018.83 622.205 1019.08 622.018 1019.27C621.83 1019.45 621.576 1019.56 621.311 1019.56H617.131V1031.33C617.131 1031.62 617.014 1031.91 616.805 1032.11C616.597 1032.32 616.315 1032.44 616.021 1032.44C615.726 1032.44 615.444 1032.32 615.236 1032.11C615.027 1031.91 614.911 1031.62 614.911 1031.33V1031.25Z" fill="#182E6A"/>
<path d="M623.77 1037.41C623.764 1037.21 623.812 1037.01 623.911 1036.83C624.01 1036.66 624.155 1036.51 624.33 1036.41C628.33 1034.12 634.43 1028.05 634.43 1020.32V1011.14H625.88C625.615 1011.14 625.361 1011.03 625.173 1010.85C624.985 1010.66 624.88 1010.41 624.88 1010.14C624.88 1009.87 624.985 1009.62 625.173 1009.43C625.361 1009.25 625.615 1009.14 625.88 1009.14H645.2C645.465 1009.14 645.72 1009.25 645.907 1009.43C646.095 1009.62 646.2 1009.87 646.2 1010.14C646.2 1010.41 646.095 1010.66 645.907 1010.85C645.72 1011.03 645.465 1011.14 645.2 1011.14H636.65V1020.32C636.65 1028.05 642.75 1034.12 646.79 1036.41C646.963 1036.51 647.105 1036.66 647.202 1036.83C647.299 1037.01 647.346 1037.21 647.34 1037.41C647.33 1037.7 647.208 1037.97 647.001 1038.17C646.794 1038.37 646.518 1038.48 646.23 1038.48C646.036 1038.48 645.845 1038.43 645.68 1038.33C641.42 1035.89 636.61 1030.64 635.54 1025.33C634.47 1030.66 629.69 1035.91 625.4 1038.33C625.237 1038.43 625.051 1038.48 624.861 1038.48C624.671 1038.48 624.484 1038.43 624.319 1038.34C624.154 1038.25 624.016 1038.11 623.92 1037.95C623.823 1037.79 623.772 1037.6 623.77 1037.41ZM652.93 1039.89V1008.17C652.93 1007.88 653.047 1007.59 653.255 1007.39C653.463 1007.18 653.746 1007.06 654.04 1007.06C654.334 1007.06 654.617 1007.18 654.825 1007.39C655.033 1007.59 655.15 1007.88 655.15 1008.17V1039.89C655.15 1040.18 655.033 1040.47 654.825 1040.67C654.617 1040.88 654.334 1041 654.04 1041C653.746 1041 653.463 1040.88 653.255 1040.67C653.047 1040.47 652.93 1040.18 652.93 1039.89Z" fill="#182E6A"/>
<path d="M676.169 1040.26V1027.56H661.439C661.174 1027.56 660.92 1027.45 660.732 1027.27C660.545 1027.08 660.439 1026.83 660.439 1026.56C660.439 1026.29 660.545 1026.04 660.732 1025.85C660.92 1025.67 661.174 1025.56 661.439 1025.56H693.189C693.455 1025.56 693.709 1025.67 693.897 1025.85C694.084 1026.04 694.189 1026.29 694.189 1026.56C694.189 1026.83 694.084 1027.08 693.897 1027.27C693.709 1027.45 693.455 1027.56 693.189 1027.56H678.379V1040.26C678.353 1040.53 678.226 1040.79 678.021 1040.98C677.817 1041.16 677.551 1041.26 677.274 1041.26C676.998 1041.26 676.732 1041.16 676.528 1040.98C676.323 1040.79 676.196 1040.53 676.169 1040.26ZM687.299 1021.79C688.206 1017.97 688.824 1014.08 689.149 1010.17H663.879C663.614 1010.17 663.36 1010.06 663.172 1009.88C662.985 1009.69 662.879 1009.44 662.879 1009.17C662.879 1008.9 662.985 1008.65 663.172 1008.46C663.36 1008.28 663.614 1008.17 663.879 1008.17H690.369C691.149 1008.17 691.519 1008.61 691.479 1009.43C691.116 1013.64 690.448 1017.82 689.479 1021.93C689.415 1022.19 689.261 1022.43 689.044 1022.59C688.827 1022.75 688.56 1022.83 688.289 1022.82C687.669 1022.9 687.119 1022.42 687.299 1021.79Z" fill="#182E6A"/>
<path d="M700.099 1024.79C699.94 1024.8 699.779 1024.78 699.629 1024.73C699.479 1024.67 699.343 1024.59 699.23 1024.47C699.118 1024.36 699.031 1024.22 698.978 1024.07C698.924 1023.92 698.904 1023.76 698.919 1023.6V1009.28C698.904 1009.12 698.924 1008.96 698.977 1008.81C699.031 1008.66 699.118 1008.52 699.23 1008.41C699.343 1008.3 699.48 1008.21 699.63 1008.16C699.78 1008.1 699.94 1008.08 700.099 1008.1H715.749C715.908 1008.08 716.069 1008.1 716.22 1008.16C716.37 1008.21 716.507 1008.3 716.621 1008.41C716.734 1008.52 716.822 1008.66 716.877 1008.81C716.932 1008.96 716.953 1009.12 716.939 1009.28V1023.6C716.955 1023.76 716.935 1023.92 716.88 1024.07C716.826 1024.22 716.739 1024.36 716.625 1024.48C716.511 1024.59 716.374 1024.68 716.222 1024.73C716.071 1024.79 715.909 1024.81 715.749 1024.79H700.099ZM701.949 1040.79C701.79 1040.81 701.63 1040.79 701.48 1040.73C701.33 1040.68 701.193 1040.59 701.08 1040.48C700.968 1040.37 700.881 1040.23 700.827 1040.08C700.774 1039.93 700.754 1039.77 700.769 1039.61V1030.1C700.805 1029.83 700.938 1029.58 701.142 1029.41C701.346 1029.23 701.608 1029.13 701.879 1029.13C702.15 1029.13 702.412 1029.23 702.616 1029.41C702.821 1029.58 702.953 1029.83 702.989 1030.1V1038.87H727.989C728.254 1038.87 728.509 1038.98 728.696 1039.16C728.884 1039.35 728.989 1039.6 728.989 1039.87C728.989 1040.14 728.884 1040.39 728.696 1040.58C728.509 1040.76 728.254 1040.87 727.989 1040.87L701.949 1040.79ZM701.139 1022.84H714.719V1010H701.139V1022.84ZM725.859 1030.84V1008.12C725.859 1007.83 725.976 1007.54 726.184 1007.34C726.392 1007.13 726.675 1007.01 726.969 1007.01C727.264 1007.01 727.546 1007.13 727.754 1007.34C727.962 1007.54 728.079 1007.83 728.079 1008.12V1017.19H732.259C732.524 1017.19 732.779 1017.3 732.966 1017.48C733.154 1017.67 733.259 1017.92 733.259 1018.19C733.259 1018.46 733.154 1018.71 732.966 1018.9C732.779 1019.08 732.524 1019.19 732.259 1019.19H728.079V1030.92C728.079 1031.21 727.962 1031.5 727.754 1031.7C727.546 1031.91 727.264 1032.03 726.969 1032.03C726.675 1032.03 726.392 1031.91 726.184 1031.7C725.976 1031.5 725.859 1031.21 725.859 1030.92V1030.84Z" fill="#182E6A"/>
<path d="M735.439 1023.57C735.174 1023.57 734.92 1023.46 734.732 1023.28C734.545 1023.09 734.439 1022.84 734.439 1022.57C734.439 1022.3 734.545 1022.05 734.732 1021.86C734.92 1021.68 735.174 1021.57 735.439 1021.57H767.189C767.455 1021.57 767.709 1021.68 767.897 1021.86C768.084 1022.05 768.189 1022.3 768.189 1022.57C768.189 1022.84 768.084 1023.09 767.897 1023.28C767.709 1023.46 767.455 1023.57 767.189 1023.57H735.439ZM738.439 1040.81C738.28 1040.83 738.12 1040.81 737.969 1040.75C737.818 1040.7 737.681 1040.61 737.568 1040.5C737.454 1040.39 737.367 1040.25 737.312 1040.1C737.257 1039.95 737.236 1039.79 737.249 1039.63V1034.3C737.236 1034.14 737.257 1033.98 737.312 1033.83C737.367 1033.68 737.454 1033.54 737.568 1033.43C737.681 1033.31 737.818 1033.23 737.968 1033.17C738.119 1033.12 738.28 1033.1 738.439 1033.11H763.229V1029.38H738.059C737.794 1029.38 737.54 1029.27 737.352 1029.09C737.165 1028.9 737.059 1028.65 737.059 1028.38C737.059 1028.11 737.165 1027.86 737.352 1027.67C737.54 1027.49 737.794 1027.38 738.059 1027.38H764.229C764.389 1027.37 764.549 1027.39 764.699 1027.44C764.85 1027.5 764.986 1027.58 765.098 1027.7C765.211 1027.81 765.297 1027.95 765.351 1028.1C765.405 1028.25 765.425 1028.41 765.409 1028.57V1033.71C765.425 1033.87 765.405 1034.03 765.351 1034.18C765.298 1034.33 765.211 1034.47 765.098 1034.58C764.985 1034.69 764.849 1034.78 764.699 1034.83C764.549 1034.89 764.388 1034.91 764.229 1034.89H739.429V1038.82H765.109C765.375 1038.82 765.629 1038.93 765.817 1039.11C766.004 1039.3 766.109 1039.55 766.109 1039.82C766.109 1040.09 766.004 1040.34 765.817 1040.53C765.629 1040.71 765.375 1040.82 765.109 1040.82L738.439 1040.81ZM738.439 1017.5C738.279 1017.52 738.118 1017.5 737.966 1017.44C737.815 1017.39 737.677 1017.3 737.564 1017.19C737.45 1017.07 737.363 1016.93 737.308 1016.78C737.254 1016.63 737.234 1016.47 737.249 1016.31V1009.06C737.236 1008.9 737.257 1008.74 737.312 1008.59C737.367 1008.44 737.454 1008.3 737.568 1008.19C737.681 1008.08 737.818 1007.99 737.969 1007.94C738.12 1007.88 738.28 1007.86 738.439 1007.88H764.599C764.865 1007.88 765.119 1007.99 765.307 1008.17C765.494 1008.36 765.599 1008.61 765.599 1008.88C765.599 1009.15 765.494 1009.4 765.307 1009.59C765.119 1009.77 764.865 1009.88 764.599 1009.88H739.429V1015.65H764.739C765.005 1015.65 765.259 1015.76 765.447 1015.94C765.634 1016.13 765.739 1016.38 765.739 1016.65C765.739 1016.92 765.634 1017.17 765.447 1017.36C765.259 1017.54 765.005 1017.65 764.739 1017.65L738.439 1017.5Z" fill="#182E6A"/>
<path d="M772.44 1038.22C772.432 1037.99 772.501 1037.77 772.636 1037.59C772.77 1037.41 772.962 1037.28 773.18 1037.22C783.83 1034.48 789.9 1026.08 789.83 1010.84H773.58C773.315 1010.84 773.06 1010.73 772.873 1010.55C772.685 1010.36 772.58 1010.11 772.58 1009.84C772.58 1009.57 772.685 1009.32 772.873 1009.13C773.06 1008.95 773.315 1008.84 773.58 1008.84H790.68C790.868 1008.82 791.057 1008.85 791.235 1008.91C791.412 1008.98 791.572 1009.08 791.703 1009.22C791.835 1009.35 791.934 1009.51 791.994 1009.69C792.054 1009.87 792.073 1010.06 792.05 1010.25V1010.54C792.05 1027.12 785.2 1036.22 773.7 1039.07C773.561 1039.11 773.415 1039.12 773.272 1039.09C773.13 1039.07 772.994 1039.02 772.874 1038.94C772.755 1038.85 772.654 1038.75 772.579 1038.63C772.504 1038.5 772.456 1038.36 772.44 1038.22ZM800.93 1039.89V1008.17C800.93 1007.88 801.047 1007.59 801.255 1007.39C801.463 1007.18 801.746 1007.06 802.04 1007.06C802.334 1007.06 802.617 1007.18 802.825 1007.39C803.033 1007.59 803.15 1007.88 803.15 1008.17V1039.89C803.15 1040.18 803.033 1040.47 802.825 1040.67C802.617 1040.88 802.334 1041 802.04 1041C801.746 1041 801.463 1040.88 801.255 1040.67C801.047 1040.47 800.93 1040.18 800.93 1039.89Z" fill="#182E6A"/>
</g>
<defs>
<radialGradient id="paint0_radial_104_4303" cx="0" cy="0" r="1" gradientUnits="userSpaceOnUse" gradientTransform="translate(471.51 472.47) scale(429.84)">
<stop stop-color="#FFF795"/>
<stop offset="0.21" stop-color="#FAF793"/>
<stop offset="0.46" stop-color="#ECF78C"/>
<stop offset="0.72" stop-color="#D4F781"/>
<stop offset="1" stop-color="#B3F772"/>
</radialGradient>
<linearGradient id="paint1_linear_104_4303" x1="65.8999" y1="878.079" x2="114.521" y2="926.709" gradientUnits="userSpaceOnUse">
<stop stop-color="#8BECFF"/>
<stop offset="1" stop-color="#2AAEE5"/>
</linearGradient>
<linearGradient id="paint2_linear_104_4303" x1="750.44" y1="0.679889" x2="906.82" y2="157.06" gradientUnits="userSpaceOnUse">
<stop stop-color="#8BECFF"/>
<stop offset="1" stop-color="#2AAEE5"/>
</linearGradient>
<linearGradient id="paint3_linear_104_4303" x1="814.131" y1="423.43" x2="976.141" y2="585.44" gradientUnits="userSpaceOnUse">
<stop stop-color="#8BECFF"/>
<stop offset="1" stop-color="#2AAEE5"/>
</linearGradient>
<linearGradient id="paint4_linear_104_4303" x1="-19.9691" y1="401.65" x2="156.871" y2="578.49" gradientUnits="userSpaceOnUse">
<stop stop-color="#8BECFF"/>
<stop offset="1" stop-color="#2AAEE5"/>
</linearGradient>
<linearGradient id="paint5_linear_104_4303" x1="766.66" y1="812.57" x2="878.88" y2="924.78" gradientUnits="userSpaceOnUse">
<stop stop-color="#8BECFF"/>
<stop offset="1" stop-color="#2AAEE5"/>
</linearGradient>
<linearGradient id="paint6_linear_104_4303" x1="20.3804" y1="821.01" x2="120.13" y2="920.76" gradientUnits="userSpaceOnUse">
<stop stop-color="#8BECFF"/>
<stop offset="1" stop-color="#2AAEE5"/>
</linearGradient>
<linearGradient id="paint7_linear_104_4303" x1="35.8797" y1="48.4099" x2="116.22" y2="128.74" gradientUnits="userSpaceOnUse">
<stop stop-color="#8BECFF"/>
<stop offset="1" stop-color="#2AAEE5"/>
</linearGradient>
<clipPath id="clip0_104_4303">
<rect width="951.84" height="1091.84" fill="white"/>
</clipPath>
<clipPath id="clip1_104_4303">
<rect width="4.4118" height="4.4118" fill="white" transform="translate(822.641 682.48)"/>
</clipPath>
<clipPath id="clip2_104_4303">
<rect width="4.4118" height="4.4118" fill="white" transform="translate(491.039 71.45)"/>
</clipPath>
<clipPath id="clip3_104_4303">
<rect width="4.4118" height="4.4118" fill="white" transform="translate(832.199 261.45)"/>
</clipPath>
<clipPath id="clip4_104_4303">
<rect width="4.4118" height="4.4118" fill="white" transform="translate(70.25 257.9)"/>
</clipPath>
<clipPath id="clip5_104_4303">
<rect width="4.4118" height="4.4118" fill="white" transform="translate(282.689 168.32)"/>
</clipPath>
<clipPath id="clip6_104_4303">
<rect width="4.4118" height="4.4118" fill="white" transform="translate(173.43 396.57)"/>
</clipPath>
<clipPath id="clip7_104_4303">
<rect width="4.4118" height="4.4118" fill="white" transform="translate(157.48 176.85)"/>
</clipPath>
<clipPath id="clip8_104_4303">
<rect width="4.4118" height="4.4118" fill="white" transform="translate(183.23 589.13)"/>
</clipPath>
<clipPath id="clip9_104_4303">
<rect width="4.4118" height="4.4118" fill="white" transform="translate(215.221 526.43)"/>
</clipPath>
<clipPath id="clip10_104_4303">
<rect width="4.4118" height="4.4118" fill="white" transform="translate(393.029 655.29)"/>
</clipPath>
<clipPath id="clip11_104_4303">
<rect width="4.4118" height="4.4118" fill="white" transform="translate(275.25 767.03)"/>
</clipPath>
<clipPath id="clip12_104_4303">
<rect width="4.4118" height="4.4118" fill="white" transform="translate(416.26 853.02)"/>
</clipPath>
<clipPath id="clip13_104_4303">
<rect width="4.4118" height="4.4118" fill="white" transform="translate(470.391 806.26)"/>
</clipPath>
<clipPath id="clip14_104_4303">
<rect width="4.4118" height="4.4118" fill="white" transform="translate(724.199 786.78)"/>
</clipPath>
<clipPath id="clip15_104_4303">
<rect width="4.4118" height="4.4118" fill="white" transform="translate(153.82 857.85)"/>
</clipPath>
<clipPath id="clip16_104_4303">
<rect width="4.4118" height="4.4118" fill="white" transform="translate(119.301 636.99)"/>
</clipPath>
<clipPath id="clip17_104_4303">
<rect width="4.4118" height="4.4118" fill="white" transform="translate(61.7109 786.61)"/>
</clipPath>
<clipPath id="clip18_104_4303">
<rect width="4.4118" height="4.4118" fill="white" transform="translate(698.48 644.42)"/>
</clipPath>
<clipPath id="clip19_104_4303">
<rect width="4.4118" height="4.4118" fill="white" transform="translate(699.619 557.13)"/>
</clipPath>
<clipPath id="clip20_104_4303">
<rect width="4.4118" height="4.4118" fill="white" transform="translate(622.189 640.67)"/>
</clipPath>
<clipPath id="clip21_104_4303">
<rect width="4.4118" height="4.4118" fill="white" transform="translate(796.631 470.19)"/>
</clipPath>
<clipPath id="clip22_104_4303">
<rect width="4.4118" height="4.4118" fill="white" transform="translate(751.039 350.03)"/>
</clipPath>
<clipPath id="clip23_104_4303">
<rect width="4.4118" height="4.4118" fill="white" transform="translate(851.971 305.94)"/>
</clipPath>
<clipPath id="clip24_104_4303">
<rect width="4.4118" height="4.4118" fill="white" transform="translate(614.939 111.9)"/>
</clipPath>
<clipPath id="clip25_104_4303">
<rect width="4.4118" height="4.4118" fill="white" transform="translate(780.6 180.42)"/>
</clipPath>
<clipPath id="clip26_104_4303">
<rect width="4.4118" height="4.4118" fill="white" transform="translate(723.961 246.85)"/>
</clipPath>
<clipPath id="clip27_104_4303">
<rect width="4.4118" height="4.4118" fill="white" transform="translate(166.1 309.41)"/>
</clipPath>
</defs>
</svg>
