<svg viewBox="0 0 779 36" fill="none" xmlns="http://www.w3.org/2000/svg">
<g clip-path="url(#clip0_175_3551)">
<path d="M9.12024 32.86C10.2396 29.6875 11.0042 26.4007 11.4002 23.0599H1.59021C1.16759 23.0599 0.762114 22.8927 0.462341 22.5949C0.162569 22.297 -0.00712425 21.8925 -0.00976562 21.4699C-0.00976562 21.0455 0.158804 20.6386 0.458862 20.3385C0.758921 20.0384 1.16586 19.8698 1.59021 19.8698H26.4702C26.8946 19.8698 27.3015 20.0384 27.6016 20.3385C27.9016 20.6386 28.0702 21.0455 28.0702 21.4699C28.0675 21.8925 27.8979 22.297 27.5981 22.5949C27.2983 22.8927 26.8928 23.0599 26.4702 23.0599H15.2702C14.8196 26.6312 14.0019 30.1464 12.8302 33.5499C12.7192 33.9631 12.4787 34.3297 12.1439 34.5961C11.8091 34.8625 11.3978 35.0146 10.9702 35.0299C10.691 35.059 10.409 35.0196 10.1484 34.9154C9.88777 34.8112 9.6564 34.6451 9.4743 34.4315C9.29221 34.2179 9.16484 33.9632 9.10315 33.6893C9.04145 33.4155 9.04734 33.131 9.12024 32.86ZM9.96021 16.6C5.55021 16.6 2.47021 12.99 2.47021 8.59998C2.47021 4.20998 5.55021 0.599977 9.96021 0.599977H17.4002C21.7702 0.599977 24.8902 4.17998 24.8902 8.59998C24.8902 13.02 21.7702 16.6 17.4002 16.6H9.96021ZM16.8702 13.4098C19.2602 13.4098 21.0902 11.1698 21.0902 8.61975C21.0902 6.06975 19.2602 3.83997 16.8702 3.83997H10.4902C8.06023 3.83997 6.2702 6.03975 6.2702 8.61975C6.2702 11.1998 8.06023 13.4098 10.4902 13.4098H16.8702ZM29.7902 33.3199V1.73987C29.7948 1.50025 29.8486 1.26425 29.9482 1.04627C30.0478 0.828281 30.1911 0.63286 30.3692 0.472536C30.5473 0.312212 30.7565 0.1903 30.9838 0.114137C31.211 0.0379739 31.4514 0.00932241 31.6902 0.0299087C31.929 0.00932241 32.1694 0.0379739 32.3967 0.114137C32.6239 0.1903 32.8331 0.312212 33.0112 0.472536C33.1894 0.63286 33.3327 0.828281 33.4323 1.04627C33.5318 1.26425 33.5856 1.50025 33.5902 1.73987V33.35C33.5856 33.5896 33.5318 33.8256 33.4323 34.0436C33.3327 34.2616 33.1894 34.4567 33.0112 34.6171C32.8331 34.7774 32.6239 34.8995 32.3967 34.9757C32.1694 35.0519 31.929 35.0805 31.6902 35.0599C31.4489 35.0807 31.206 35.051 30.9767 34.973C30.7475 34.8951 30.5369 34.7704 30.3583 34.6068C30.1797 34.4433 30.037 34.2446 29.9392 34.0231C29.8414 33.8015 29.7907 33.5621 29.7902 33.3199Z" fill="white"/>
<path d="M38.6895 31.4198C38.6966 31.0062 38.8607 30.6109 39.1485 30.3138C39.4363 30.0167 39.8263 29.8402 40.2395 29.8199C48.2097 29.5895 56.1564 28.8413 64.0295 27.58C64.2541 27.5394 64.4849 27.5481 64.7059 27.6053C64.9269 27.6626 65.1329 27.7668 65.3097 27.9113C65.4865 28.0557 65.6298 28.2368 65.7299 28.442C65.83 28.6472 65.8844 28.8717 65.8895 29.1C65.8893 29.4589 65.7646 29.8064 65.5366 30.0836C65.3087 30.3608 64.9916 30.5503 64.6395 30.6198C56.601 32.003 48.4733 32.8053 40.3195 33.0199C39.8915 33.0226 39.4799 32.8558 39.1745 32.556C38.8691 32.2563 38.6947 31.8477 38.6895 31.4198ZM40.9695 13.1798V9.07996C40.9695 3.37996 45.7095 0.48987 51.4495 0.48987C57.1895 0.48987 61.9395 3.37996 61.9395 9.07996V13.1798C61.9395 18.8798 57.1495 21.6998 51.4495 21.6998C45.7495 21.6998 40.9695 18.8798 40.9695 13.1798ZM58.1395 13.1798V8.99988C58.1395 5.61988 55.2095 3.64978 51.4495 3.64978C47.6895 3.64978 44.7595 5.64988 44.7595 8.99988V13.1798C44.7595 16.4898 47.7595 18.4598 51.4495 18.4598C55.1395 18.4598 58.1395 16.5299 58.1395 13.2199V13.1798ZM67.5995 33.2799V1.73987C67.6041 1.50025 67.6579 1.26425 67.7574 1.04627C67.857 0.828281 68.0003 0.63286 68.1785 0.472536C68.3566 0.312212 68.5658 0.1903 68.793 0.114137C69.0203 0.0379739 69.2607 0.00932241 69.4995 0.0299087C69.7382 0.00932241 69.9787 0.0379739 70.2059 0.114137C70.4332 0.1903 70.6424 0.312212 70.8205 0.472536C70.9986 0.63286 71.1419 0.828281 71.2415 1.04627C71.3411 1.26425 71.3949 1.50025 71.3995 1.73987V33.35C71.3949 33.5896 71.3411 33.8256 71.2415 34.0436C71.1419 34.2616 70.9986 34.4567 70.8205 34.6171C70.6424 34.7774 70.4332 34.8995 70.2059 34.9757C69.9787 35.0519 69.7382 35.0805 69.4995 35.0599C69.2574 35.0822 69.0134 35.0537 68.7829 34.9764C68.5524 34.8991 68.3406 34.7747 68.1609 34.611C67.9813 34.4473 67.8377 34.2478 67.7393 34.0255C67.6409 33.8032 67.5898 33.563 67.5895 33.3199L67.5995 33.2799Z" fill="white"/>
<path d="M89.0293 24.8898V9.45984C89.0293 4.13984 93.3293 0.529909 99.0993 0.529909C104.869 0.529909 109.169 4.13984 109.169 9.45984V24.8898C109.169 30.1998 104.879 33.8099 99.0993 33.8099C93.3193 33.8099 89.0293 30.1998 89.0293 24.8898ZM105.369 25.08V9.2699C105.369 5.9599 102.789 3.71985 99.0993 3.71985C95.4093 3.71985 92.8293 5.9599 92.8293 9.2699V25.08C92.8293 28.46 95.4193 30.6198 99.0993 30.6198C102.779 30.6198 105.369 28.46 105.369 25.08ZM117.189 33.3199V1.73987C117.194 1.50025 117.248 1.26425 117.347 1.04627C117.447 0.828281 117.59 0.63286 117.768 0.472536C117.946 0.312212 118.156 0.1903 118.383 0.114137C118.61 0.0379739 118.851 0.00932241 119.089 0.0299087C119.328 0.00932241 119.569 0.0379739 119.796 0.114137C120.023 0.1903 120.232 0.312212 120.41 0.472536C120.588 0.63286 120.732 0.828281 120.831 1.04627C120.931 1.26425 120.985 1.50025 120.989 1.73987V33.35C120.985 33.5896 120.931 33.8256 120.831 34.0436C120.732 34.2616 120.588 34.4567 120.41 34.6171C120.232 34.7774 120.023 34.8995 119.796 34.9757C119.569 35.0519 119.328 35.0805 119.089 35.0599C118.848 35.0807 118.605 35.051 118.376 34.973C118.147 34.8951 117.936 34.7704 117.757 34.6068C117.579 34.4433 117.436 34.2446 117.338 34.0231C117.241 33.8015 117.19 33.5621 117.189 33.3199Z" fill="white"/>
<path d="M144.891 1.73987C145.16 1.71345 145.432 1.74709 145.686 1.83826C145.941 1.92943 146.172 2.07595 146.364 2.26721C146.555 2.45848 146.701 2.68956 146.793 2.94422C146.884 3.19887 146.917 3.47068 146.891 3.73987V31.7399C146.886 31.9799 146.832 32.2165 146.733 32.4349C146.634 32.6534 146.49 32.849 146.312 33.0101C146.134 33.1712 145.925 33.2944 145.698 33.3717C145.471 33.449 145.23 33.479 144.991 33.4598C144.751 33.4805 144.51 33.4516 144.282 33.3749C144.054 33.2981 143.845 33.1752 143.666 33.0138C143.488 32.8524 143.345 32.6558 143.246 32.4366C143.147 32.2175 143.094 31.9803 143.091 31.7399V31.4398L129.371 33.0399C129.098 33.1047 128.814 33.1027 128.542 33.0341C128.271 32.9654 128.019 32.8319 127.81 32.6454C127.601 32.4588 127.44 32.2247 127.341 31.9625C127.242 31.7004 127.208 31.418 127.241 31.1398V3.81995C127.214 3.55076 127.248 3.27895 127.339 3.02429C127.43 2.76963 127.577 2.53831 127.768 2.34705C127.959 2.15579 128.191 2.00926 128.445 1.91809C128.7 1.82693 128.972 1.79353 129.241 1.81995L144.891 1.73987ZM131.061 29.5599L143.061 28.1498V4.93982H131.061V29.5599ZM158.761 1.6698V33.2799C158.756 33.5195 158.703 33.7555 158.603 33.9735C158.503 34.1915 158.36 34.3867 158.182 34.547C158.004 34.7073 157.795 34.8295 157.567 34.9056C157.34 34.9818 157.1 35.0105 156.861 34.9899C156.622 35.0105 156.382 34.9818 156.154 34.9056C155.927 34.8295 155.718 34.7073 155.54 34.547C155.362 34.3867 155.218 34.1915 155.119 33.9735C155.019 33.7555 154.965 33.5195 154.961 33.2799V1.73987C154.965 1.50025 155.019 1.26425 155.119 1.04627C155.218 0.828281 155.362 0.63286 155.54 0.472536C155.718 0.312212 155.927 0.1903 156.154 0.114137C156.382 0.0379739 156.622 0.00932241 156.861 0.0299087C157.1 0.00932241 157.34 0.0379739 157.567 0.114137C157.795 0.1903 158.004 0.312212 158.182 0.472536C158.36 0.63286 158.503 0.828281 158.603 1.04627C158.703 1.26425 158.756 1.50025 158.761 1.73987V1.6698Z" fill="white"/>
<path d="M163.93 30.5499C163.939 30.2131 164.036 29.8843 164.211 29.5966C164.387 29.3088 164.634 29.0721 164.93 28.9098C167.756 27.3062 170.105 24.9789 171.734 22.1669C173.363 19.3549 174.214 16.1596 174.2 12.9098V5.22986H166.57C166.147 5.22987 165.742 5.06267 165.442 4.76477C165.142 4.46687 164.972 4.06238 164.97 3.63977C164.97 3.21543 165.138 2.80848 165.438 2.50842C165.738 2.20837 166.145 2.03992 166.57 2.03992H185.59C186.013 2.04254 186.419 2.21186 186.718 2.51135C187.018 2.81085 187.187 3.21623 187.19 3.63977C187.184 4.06157 187.014 4.4645 186.715 4.76184C186.415 5.05918 186.012 5.22727 185.59 5.22986H177.95V12.9098C177.937 16.1592 178.789 19.3535 180.418 22.1652C182.047 24.9768 184.394 27.3046 187.22 28.9098C187.506 29.0784 187.743 29.3178 187.91 29.6051C188.076 29.8924 188.166 30.2179 188.17 30.5499C188.17 31.0432 187.974 31.5163 187.625 31.8651C187.276 32.2139 186.803 32.4098 186.31 32.4098C185.957 32.4234 185.608 32.3292 185.31 32.1398C181.25 29.7498 177.37 25.5299 176 20.8199C174.64 25.5299 170.76 29.7498 166.69 32.1398C166.41 32.321 166.083 32.415 165.75 32.4098C165.264 32.3968 164.803 32.1954 164.463 31.8483C164.123 31.5011 163.932 31.0356 163.93 30.5499ZM192.93 33.3199V1.73987C192.934 1.50025 192.988 1.26425 193.088 1.04627C193.187 0.828281 193.331 0.63286 193.509 0.472536C193.687 0.312212 193.896 0.1903 194.123 0.114137C194.35 0.0379739 194.591 0.00932241 194.83 0.0299087C195.068 0.00932241 195.309 0.0379739 195.536 0.114137C195.763 0.1903 195.973 0.312212 196.151 0.472536C196.329 0.63286 196.472 0.828281 196.572 1.04627C196.671 1.26425 196.725 1.50025 196.73 1.73987V33.35C196.725 33.5896 196.671 33.8256 196.572 34.0436C196.472 34.2616 196.329 34.4567 196.151 34.6171C195.973 34.7774 195.763 34.8995 195.536 34.9757C195.309 35.0519 195.068 35.0805 194.83 35.0599C194.591 35.0764 194.351 35.0434 194.125 34.9635C193.9 34.8836 193.693 34.7582 193.518 34.5951C193.342 34.432 193.202 34.2346 193.106 34.0153C193.01 33.7959 192.96 33.5594 192.96 33.3199H192.93Z" fill="white"/>
<path d="M203.231 19.1101C202.808 19.1101 202.403 18.9429 202.103 18.645C201.803 18.3471 201.634 17.9426 201.631 17.52C201.631 17.0956 201.799 16.6887 202.099 16.3886C202.4 16.0886 202.807 15.9199 203.231 15.9199H234.911C235.335 15.9199 235.742 16.0886 236.042 16.3886C236.342 16.6887 236.511 17.0956 236.511 17.52C236.508 17.9426 236.338 18.3471 236.039 18.645C235.739 18.9429 235.333 19.1101 234.911 19.1101H203.231ZM206.231 13.7099C205.961 13.7382 205.689 13.7059 205.433 13.6154C205.178 13.5249 204.946 13.3784 204.754 13.1867C204.562 12.995 204.416 12.763 204.325 12.5075C204.235 12.252 204.203 11.9795 204.231 11.7099V7.61006C204.204 7.34087 204.238 7.06907 204.329 6.81441C204.42 6.55975 204.567 6.32842 204.758 6.13716C204.949 5.9459 205.181 5.79937 205.435 5.70821C205.69 5.61704 205.962 5.58364 206.231 5.61006H230.231V3.89986H205.591C205.169 3.89727 204.765 3.72943 204.466 3.43208C204.167 3.13474 203.996 2.73181 203.991 2.31001C203.996 1.88728 204.166 1.48322 204.465 1.18428C204.764 0.88534 205.168 0.715103 205.591 0.709916H231.961C232.23 0.683495 232.502 0.717137 232.756 0.808304C233.011 0.899471 233.242 1.046 233.434 1.23726C233.625 1.42852 233.771 1.65985 233.863 1.91451C233.954 2.16916 233.987 2.44072 233.961 2.70992V6.61983C233.989 6.88942 233.957 7.16192 233.866 7.41744C233.776 7.67295 233.629 7.9052 233.438 8.09688C233.246 8.28855 233.014 8.43484 232.758 8.52535C232.503 8.61585 232.23 8.64812 231.961 8.61983H207.961V10.52H232.741C233.163 10.5252 233.566 10.6959 233.863 10.9951C234.16 11.2943 234.328 11.698 234.331 12.1198C234.328 12.5407 234.16 12.9438 233.862 13.2414C233.565 13.539 233.162 13.7073 232.741 13.7099H206.231ZM206.231 34.84C205.961 34.8683 205.689 34.8361 205.433 34.7456C205.178 34.6551 204.946 34.5085 204.754 34.3168C204.562 34.1252 204.416 33.8932 204.325 33.6376C204.235 33.3821 204.203 33.1096 204.231 32.84V28.51C204.203 28.2404 204.235 27.9679 204.325 27.7124C204.416 27.4568 204.562 27.2248 204.754 27.0332C204.946 26.8415 205.178 26.695 205.433 26.6044C205.689 26.5139 205.961 26.4817 206.231 26.51H230.231V24.51H205.591C205.168 24.5048 204.764 24.3345 204.465 24.0356C204.166 23.7367 203.996 23.3326 203.991 22.9099C203.996 22.4871 204.166 22.0833 204.465 21.7844C204.764 21.4854 205.168 21.3152 205.591 21.31H231.961C232.23 21.2836 232.502 21.317 232.756 21.4082C233.011 21.4993 233.242 21.6458 233.434 21.8371C233.625 22.0284 233.771 22.2597 233.863 22.5144C233.954 22.769 233.987 23.0408 233.961 23.31V27.4899C233.989 27.7595 233.957 28.032 233.866 28.2876C233.776 28.5431 233.629 28.7751 233.438 28.9668C233.246 29.1584 233.014 29.305 232.758 29.3955C232.503 29.486 232.23 29.5182 231.961 29.4899H207.961V31.6198H233.121C233.542 31.6224 233.945 31.791 234.242 32.0886C234.54 32.3862 234.708 32.789 234.711 33.2099C234.711 33.6325 234.544 34.0381 234.246 34.3378C233.948 34.6376 233.543 34.8074 233.121 34.81L206.231 34.84Z" fill="white"/>
<path d="M284.31 13.1799C284.734 13.1825 285.139 13.3521 285.438 13.6516C285.738 13.9511 285.907 14.3565 285.91 14.78C285.907 15.2026 285.738 15.6069 285.438 15.9048C285.138 16.2027 284.733 16.3698 284.31 16.3698H270.31V23.1399H281.37C281.64 23.1116 281.912 23.1438 282.168 23.2343C282.423 23.3248 282.655 23.4714 282.847 23.6631C283.039 23.8547 283.185 24.0867 283.275 24.3423C283.366 24.5978 283.398 24.8703 283.37 25.1399V33.4299C283.364 33.6687 283.309 33.9038 283.209 34.1206C283.109 34.3374 282.965 34.5314 282.787 34.6906C282.609 34.8499 282.401 34.971 282.174 35.0466C281.948 35.1222 281.708 35.1504 281.47 35.1298C281.232 35.1504 280.992 35.1222 280.766 35.0466C280.539 34.971 280.331 34.8499 280.153 34.6906C279.975 34.5314 279.831 34.3374 279.731 34.1206C279.631 33.9038 279.576 33.6687 279.57 33.4299V26.32H254.79C254.366 26.3174 253.961 26.1478 253.662 25.8484C253.362 25.5489 253.193 25.1435 253.19 24.7199C253.195 24.2981 253.366 23.8952 253.665 23.5979C253.964 23.3005 254.368 23.1324 254.79 23.1298H266.49V16.3601H252.59C252.169 16.3575 251.766 16.1889 251.469 15.8913C251.171 15.5937 251.003 15.1909 251 14.77C251.003 14.3482 251.171 13.9442 251.468 13.645C251.765 13.3458 252.168 13.1751 252.59 13.1699H260.23C261.424 10.156 262.341 7.04002 262.97 3.86007H254.46C254.037 3.86008 253.632 3.69288 253.332 3.39499C253.032 3.09709 252.863 2.6926 252.86 2.26999C252.863 1.84645 253.032 1.44106 253.332 1.14157C253.631 0.842076 254.036 0.67251 254.46 0.669888H265.25C266.65 0.669888 267.18 1.46989 266.96 2.91989C266.332 6.41793 265.377 9.84954 264.11 13.1699H276.27C277.495 10.1584 278.446 7.04257 279.11 3.86007H270.11C269.687 3.86008 269.282 3.69288 268.982 3.39499C268.682 3.09709 268.513 2.6926 268.51 2.26999C268.513 1.84645 268.682 1.44106 268.982 1.14157C269.281 0.842076 269.686 0.67251 270.11 0.669888H281.35C281.63 0.627677 281.916 0.658907 282.181 0.76022C282.445 0.861533 282.679 1.02949 282.859 1.24801C283.04 1.46654 283.16 1.72807 283.21 2.00705C283.259 2.28602 283.235 2.57308 283.14 2.84005C282.448 6.36546 281.444 9.82222 280.14 13.1699L284.31 13.1799Z" fill="white"/>
<path d="M315.97 33.7399V23.5199H302.02C301.597 23.5173 301.193 23.3475 300.895 23.0477C300.597 22.748 300.43 22.3424 300.43 21.9198C300.432 21.4989 300.601 21.0961 300.898 20.7985C301.196 20.5008 301.599 20.3326 302.02 20.33H333.71C334.132 20.33 334.538 20.4971 334.838 20.795C335.137 21.0929 335.307 21.4972 335.31 21.9198C335.31 22.3441 335.141 22.7511 334.841 23.0511C334.541 23.3512 334.134 23.5199 333.71 23.5199H319.77V33.7399C319.765 33.9795 319.711 34.2155 319.612 34.4335C319.512 34.6515 319.369 34.8469 319.191 35.0072C319.013 35.1675 318.803 35.2894 318.576 35.3656C318.349 35.4418 318.108 35.4704 317.87 35.4498C317.631 35.4704 317.39 35.4418 317.163 35.3656C316.936 35.2894 316.727 35.1675 316.549 35.0072C316.371 34.8469 316.227 34.6515 316.128 34.4335C316.028 34.2155 315.974 33.9795 315.97 33.7399ZM304.97 15.2399C304.701 15.2663 304.429 15.2326 304.174 15.1415C303.919 15.0503 303.688 14.9038 303.497 14.7125C303.306 14.5213 303.159 14.2902 303.068 14.0355C302.977 13.7809 302.943 13.5091 302.97 13.2399V2.48987C302.976 2.25071 303.03 2.01527 303.131 1.79798C303.231 1.58068 303.374 1.38599 303.552 1.22595C303.73 1.06591 303.938 0.944026 304.165 0.867311C304.391 0.790597 304.631 0.760803 304.87 0.779909C305.108 0.759322 305.349 0.787974 305.576 0.864137C305.803 0.9403 306.013 1.06221 306.191 1.22254C306.369 1.38286 306.512 1.57828 306.612 1.79627C306.711 2.01425 306.765 2.25025 306.77 2.48987V12.0699H331.77C332.191 12.0726 332.593 12.2408 332.891 12.5385C333.189 12.8361 333.357 13.2389 333.36 13.6598C333.357 14.0816 333.189 14.4856 332.892 14.7848C332.594 15.084 332.191 15.2547 331.77 15.2599L304.97 15.2399Z" fill="white"/>
<path d="M340.02 33.81C339.599 33.8073 339.196 33.6388 338.898 33.3412C338.601 33.0436 338.432 32.6408 338.43 32.2199C338.432 31.798 338.6 31.3941 338.898 31.0949C339.195 30.7957 339.598 30.625 340.02 30.6198H371.71C372.133 30.6224 372.539 30.792 372.838 31.0915C373.138 31.3909 373.307 31.7963 373.31 32.2199C373.307 32.6425 373.137 33.047 372.838 33.3449C372.538 33.6428 372.132 33.81 371.71 33.81H340.02ZM343.02 21.4999C342.75 21.5263 342.479 21.4927 342.224 21.4015C341.969 21.3103 341.738 21.1638 341.547 20.9726C341.356 20.7813 341.209 20.5502 341.118 20.2956C341.027 20.0409 340.993 19.7691 341.02 19.4999V11.6298C340.993 11.3606 341.027 11.089 341.118 10.8344C341.209 10.5797 341.356 10.3484 341.547 10.1571C341.738 9.96586 341.969 9.81934 342.224 9.72817C342.479 9.637 342.75 9.60336 343.02 9.62978H367.02V4.30996H342.44C342.018 4.30737 341.614 4.13928 341.315 3.84194C341.015 3.5446 340.845 3.14167 340.84 2.71987C340.842 2.29633 341.012 1.89094 341.311 1.59145C341.611 1.29196 342.016 1.12239 342.44 1.11977H368.81C369.079 1.09148 369.352 1.12399 369.607 1.2145C369.863 1.305 370.095 1.45129 370.287 1.64296C370.478 1.83464 370.625 2.06665 370.715 2.32216C370.806 2.57768 370.838 2.85018 370.81 3.11977V10.7899C370.838 11.0595 370.806 11.332 370.715 11.5875C370.625 11.8431 370.478 12.0751 370.287 12.2667C370.095 12.4584 369.863 12.6049 369.607 12.6955C369.352 12.786 369.079 12.8182 368.81 12.7899H344.81V18.2999H369.81C370.232 18.3026 370.637 18.4723 370.935 18.7721C371.232 19.0719 371.4 19.4772 371.4 19.8998C371.397 20.3207 371.229 20.7238 370.931 21.0214C370.633 21.319 370.231 21.4873 369.81 21.4899L343.02 21.4999Z" fill="white"/>
<path d="M380.08 19.6798C379.811 19.7081 379.538 19.6758 379.283 19.5853C379.027 19.4948 378.795 19.3485 378.603 19.1569C378.412 18.9652 378.265 18.7329 378.175 18.4774C378.084 18.2219 378.052 17.9494 378.08 17.6798V3.00989C378.052 2.7403 378.084 2.4678 378.175 2.21228C378.265 1.95677 378.412 1.72476 378.603 1.53308C378.795 1.34141 379.027 1.19488 379.283 1.10437C379.538 1.01386 379.811 0.9816 380.08 1.00989H395.01C395.28 0.9816 395.552 1.01386 395.808 1.10437C396.063 1.19488 396.295 1.34141 396.487 1.53308C396.679 1.72476 396.825 1.95677 396.916 2.21228C397.006 2.4678 397.039 2.7403 397.01 3.00989V4.73987H406.01V1.73987C406.015 1.50025 406.069 1.26425 406.168 1.04627C406.268 0.828281 406.411 0.63286 406.589 0.472536C406.767 0.312212 406.977 0.1903 407.204 0.114137C407.431 0.0379739 407.671 0.00932241 407.91 0.0299087C408.149 0.00932241 408.389 0.0379739 408.617 0.114137C408.844 0.1903 409.053 0.312212 409.231 0.472536C409.409 0.63286 409.553 0.828281 409.652 1.04627C409.752 1.26425 409.806 1.50025 409.81 1.73987V24.1198C409.804 24.3589 409.749 24.5944 409.649 24.8116C409.549 25.0289 409.406 25.2236 409.228 25.3837C409.05 25.5437 408.842 25.6658 408.615 25.7426C408.389 25.8193 408.149 25.8491 407.91 25.83C407.671 25.8505 407.431 25.8219 407.204 25.7457C406.977 25.6696 406.767 25.5474 406.589 25.3871C406.411 25.2268 406.268 25.0316 406.168 24.8136C406.069 24.5956 406.015 24.3594 406.01 24.1198V15.8698H397.01V17.6998C397.039 17.9694 397.006 18.2419 396.916 18.4974C396.825 18.753 396.679 18.985 396.487 19.1766C396.295 19.3683 396.063 19.5148 395.808 19.6053C395.552 19.6959 395.28 19.7281 395.01 19.6998L380.08 19.6798ZM409.08 31.61C409.293 31.6113 409.502 31.6544 409.698 31.7372C409.893 31.8199 410.071 31.9404 410.219 32.0919C410.368 32.2434 410.485 32.423 410.564 32.62C410.644 32.817 410.683 33.0276 410.68 33.2399C410.68 33.6642 410.512 34.0712 410.212 34.3712C409.912 34.6713 409.505 34.84 409.08 34.84H381.88C381.611 34.8683 381.338 34.836 381.083 34.7455C380.827 34.655 380.595 34.5084 380.403 34.3168C380.212 34.1251 380.065 33.8931 379.975 33.6376C379.884 33.3821 379.852 33.1096 379.88 32.84V24.7399C379.885 24.5003 379.939 24.2643 380.038 24.0463C380.138 23.8283 380.281 23.6329 380.459 23.4725C380.637 23.3122 380.847 23.1903 381.074 23.1141C381.301 23.038 381.541 23.0093 381.78 23.0299C382.018 23.0108 382.258 23.0405 382.484 23.1173C382.71 23.1941 382.918 23.3163 383.095 23.4764C383.272 23.6366 383.414 23.8314 383.513 24.0487C383.612 24.266 383.666 24.5012 383.67 24.7399V31.58L409.08 31.61ZM381.84 4.17981V16.4899H393.2V4.17981H381.84ZM406.01 7.89978H397.01V12.6498H406.01V7.89978Z" fill="white"/>
<path d="M426.85 15.7399C426.853 15.3353 427.008 14.9466 427.284 14.6505C427.56 14.3544 427.936 14.1722 428.34 14.1398C435.21 13.6798 439.28 11.1398 439.28 4.13977H428.64C428.216 4.13715 427.811 3.96783 427.511 3.66834C427.212 3.36884 427.042 2.96346 427.04 2.53992C427.045 2.11812 427.215 1.71519 427.515 1.41785C427.814 1.12051 428.218 0.952418 428.64 0.949831H441.22C441.476 0.921235 441.736 0.950639 441.979 1.03601C442.223 1.12139 442.444 1.26052 442.626 1.44299C442.809 1.62547 442.948 1.84668 443.033 2.09021C443.119 2.33374 443.148 2.59351 443.12 2.84998V3.07996C443.12 13.64 436.54 16.7899 428.56 17.3199C428.342 17.3349 428.124 17.3052 427.918 17.2328C427.713 17.1604 427.524 17.0468 427.364 16.8988C427.204 16.7508 427.075 16.5717 426.987 16.3724C426.899 16.1731 426.852 15.9579 426.85 15.7399ZM430.85 34.8099C430.58 34.8382 430.308 34.806 430.052 34.7155C429.796 34.6249 429.564 34.4784 429.373 34.2867C429.181 34.0951 429.035 33.8631 428.944 33.6075C428.854 33.352 428.821 33.0795 428.85 32.8099V27.8099C428.821 27.5403 428.854 27.2678 428.944 27.0123C429.035 26.7568 429.181 26.5246 429.373 26.3329C429.564 26.1412 429.796 25.9949 430.052 25.9044C430.308 25.8139 430.58 25.7816 430.85 25.8099H455.85V23.2599H430.27C429.849 23.2573 429.446 23.089 429.148 22.7914C428.851 22.4938 428.682 22.0907 428.68 21.6698C428.68 21.2472 428.847 20.8419 429.145 20.5421C429.443 20.2423 429.847 20.0726 430.27 20.0699H457.59C457.859 20.0417 458.132 20.0739 458.387 20.1644C458.643 20.2549 458.875 20.4012 459.066 20.5929C459.258 20.7846 459.405 21.0168 459.495 21.2723C459.586 21.5279 459.618 21.8004 459.59 22.0699V26.8199C459.618 27.0895 459.586 27.362 459.495 27.6176C459.405 27.8731 459.258 28.1051 459.066 28.2968C458.875 28.4884 458.643 28.635 458.387 28.7255C458.132 28.816 457.859 28.8482 457.59 28.8199H432.59V31.6298H458.73C459.15 31.6324 459.553 31.8009 459.851 32.0985C460.149 32.3961 460.317 32.799 460.32 33.2198C460.32 33.6425 460.152 34.048 459.855 34.3478C459.557 34.6476 459.152 34.8173 458.73 34.8199L430.85 34.8099ZM446.54 16.8099V1.73987C446.544 1.50025 446.598 1.26425 446.698 1.04627C446.797 0.828281 446.94 0.63286 447.119 0.472536C447.297 0.312212 447.506 0.1903 447.733 0.114137C447.96 0.0379739 448.201 0.00932241 448.44 0.0299087C448.678 0.00932241 448.919 0.0379739 449.146 0.114137C449.373 0.1903 449.582 0.312212 449.761 0.472536C449.939 0.63286 450.082 0.828281 450.182 1.04627C450.281 1.26425 450.335 1.50025 450.34 1.73987V7.50989H455.82V1.73987C455.824 1.50025 455.878 1.26425 455.978 1.04627C456.077 0.828281 456.22 0.63286 456.399 0.472536C456.577 0.312212 456.786 0.1903 457.013 0.114137C457.24 0.0379739 457.481 0.00932241 457.72 0.0299087C457.956 0.0121506 458.194 0.0429159 458.418 0.120485C458.643 0.198054 458.849 0.320663 459.024 0.480836C459.199 0.64101 459.34 0.835375 459.437 1.05188C459.534 1.26839 459.586 1.50254 459.59 1.73987V16.8199C459.586 17.0591 459.534 17.2949 459.435 17.5128C459.337 17.7308 459.195 17.9261 459.017 18.0865C458.84 18.247 458.631 18.3692 458.405 18.4454C458.178 18.5217 457.938 18.5506 457.7 18.5299C457.461 18.5505 457.22 18.5218 456.993 18.4457C456.766 18.3695 456.557 18.2474 456.379 18.087C456.2 17.9267 456.057 17.7315 455.958 17.5136C455.858 17.2956 455.804 17.0596 455.8 16.8199V10.7098H450.32V16.8199C450.315 17.0596 450.261 17.2956 450.162 17.5136C450.062 17.7315 449.919 17.9267 449.741 18.087C449.562 18.2474 449.353 18.3695 449.126 18.4457C448.899 18.5218 448.658 18.5505 448.42 18.5299C448.179 18.5492 447.937 18.5185 447.709 18.4398C447.481 18.3612 447.272 18.2363 447.094 18.0729C446.917 17.9095 446.775 17.7112 446.678 17.4904C446.581 17.2696 446.53 17.0312 446.53 16.7899L446.54 16.8099Z" fill="white"/>
<path d="M465.46 31.1498V17.0599C465.434 16.7907 465.467 16.5189 465.558 16.2643C465.649 16.0096 465.796 15.7783 465.987 15.587C466.179 15.3958 466.41 15.2493 466.664 15.1581C466.919 15.0669 467.191 15.0335 467.46 15.0599H478.4L479.5 4.99988H466.85C466.426 4.99988 466.019 4.83119 465.719 4.53113C465.419 4.23107 465.25 3.82413 465.25 3.39978C465.253 2.97624 465.422 2.57086 465.722 2.27136C466.021 1.97187 466.426 1.80255 466.85 1.79993H481.51C481.786 1.7589 482.068 1.78642 482.331 1.88025C482.594 1.97408 482.83 2.13118 483.018 2.33777C483.206 2.54436 483.34 2.79414 483.408 3.06482C483.476 3.3355 483.477 3.61876 483.41 3.88977L482.08 16.36C482.081 16.6263 482.027 16.8898 481.92 17.1337C481.812 17.3775 481.655 17.5961 481.458 17.7753C481.261 17.9544 481.028 18.0902 480.776 18.1737C480.523 18.2572 480.255 18.2865 479.99 18.2599H469.24V29.7399C474.837 29.5966 480.408 28.9269 485.88 27.7399C486.98 27.4699 487.63 28.35 487.59 29.34C487.618 29.7549 487.483 30.1642 487.214 30.4816C486.946 30.7989 486.564 30.9993 486.15 31.0399C480.019 32.2981 473.787 32.9974 467.53 33.1298C467.254 33.1868 466.968 33.1761 466.698 33.0983C466.427 33.0205 466.179 32.878 465.975 32.6832C465.772 32.4885 465.618 32.2472 465.529 31.9801C465.439 31.713 465.415 31.428 465.46 31.1498ZM493.39 33.3199V16.1898H486.51C486.087 16.1846 485.683 16.0144 485.384 15.7155C485.085 15.4165 484.915 15.0127 484.91 14.59C484.913 14.1664 485.082 13.7608 485.382 13.4613C485.681 13.1618 486.086 12.9925 486.51 12.9899H493.39V1.73987C493.395 1.50025 493.448 1.26425 493.548 1.04627C493.648 0.828281 493.791 0.63286 493.969 0.472536C494.147 0.312212 494.356 0.1903 494.584 0.114137C494.811 0.0379739 495.051 0.00932241 495.29 0.0299087C495.529 0.00932241 495.769 0.0379739 495.996 0.114137C496.224 0.1903 496.433 0.312212 496.611 0.472536C496.789 0.63286 496.932 0.828281 497.032 1.04627C497.132 1.26425 497.185 1.50025 497.19 1.73987V33.35C497.185 33.5896 497.132 33.8256 497.032 34.0436C496.932 34.2616 496.789 34.4567 496.611 34.6171C496.433 34.7774 496.224 34.8995 495.996 34.9757C495.769 35.0519 495.529 35.0805 495.29 35.0599C495.049 35.0807 494.806 35.051 494.577 34.973C494.347 34.8951 494.137 34.7704 493.958 34.6068C493.779 34.4433 493.637 34.2446 493.539 34.0231C493.441 33.8015 493.39 33.5621 493.39 33.3199Z" fill="white"/>
<path d="M503.46 31.1498V17.0599C503.434 16.7907 503.467 16.5189 503.558 16.2643C503.649 16.0096 503.796 15.7783 503.987 15.587C504.179 15.3958 504.41 15.2493 504.664 15.1581C504.919 15.0669 505.191 15.0335 505.46 15.0599H519.06V4.99988H504.85C504.426 4.99988 504.019 4.83119 503.719 4.53113C503.419 4.23107 503.25 3.82413 503.25 3.39978C503.253 2.97624 503.422 2.57086 503.722 2.27136C504.021 1.97187 504.426 1.80255 504.85 1.79993H520.85C521.119 1.77351 521.391 1.80715 521.646 1.89832C521.9 1.98948 522.131 2.13577 522.323 2.32703C522.514 2.51829 522.661 2.74962 522.752 3.00427C522.843 3.25893 522.876 3.53074 522.85 3.79993V16.2199C522.876 16.489 522.843 16.7608 522.752 17.0155C522.661 17.2702 522.514 17.5012 522.323 17.6925C522.131 17.8838 521.9 18.0303 521.646 18.1215C521.391 18.2126 521.119 18.2463 520.85 18.2199H507.25V29.6498C512.996 29.4839 518.71 28.747 524.31 27.4498C525.41 27.1798 526.06 28.0599 526.06 29.0399C526.08 29.4578 525.938 29.8673 525.665 30.1837C525.391 30.5002 525.006 30.6993 524.59 30.7399C518.316 32.0775 511.933 32.8374 505.52 33.0099C505.256 33.0604 504.984 33.0489 504.725 32.9764C504.466 32.904 504.227 32.7724 504.027 32.5922C503.828 32.4119 503.673 32.1879 503.574 31.9376C503.476 31.6874 503.437 31.4177 503.46 31.1498ZM531.39 33.3199V1.73987C531.395 1.50025 531.448 1.26425 531.548 1.04627C531.648 0.828281 531.791 0.63286 531.969 0.472536C532.147 0.312212 532.356 0.1903 532.584 0.114137C532.811 0.0379739 533.051 0.00932241 533.29 0.0299087C533.529 0.00932241 533.769 0.0379739 533.996 0.114137C534.224 0.1903 534.433 0.312212 534.611 0.472536C534.789 0.63286 534.932 0.828281 535.032 1.04627C535.132 1.26425 535.185 1.50025 535.19 1.73987V33.35C535.185 33.5896 535.132 33.8256 535.032 34.0436C534.932 34.2616 534.789 34.4567 534.611 34.6171C534.433 34.7774 534.224 34.8995 533.996 34.9757C533.769 35.0519 533.529 35.0805 533.29 35.0599C533.049 35.0807 532.806 35.051 532.577 34.973C532.347 34.8951 532.137 34.7704 531.958 34.6068C531.78 34.4433 531.637 34.2446 531.539 34.0231C531.441 33.8015 531.39 33.5621 531.39 33.3199Z" fill="white"/>
<path d="M566.159 1.7399V33.35C566.155 33.5896 566.101 33.8256 566.001 34.0436C565.902 34.2616 565.758 34.4568 565.58 34.6171C565.402 34.7774 565.193 34.8996 564.966 34.9757C564.738 35.0519 564.498 35.0806 564.259 35.06C564.02 35.0806 563.78 35.0519 563.553 34.9757C563.326 34.8996 563.116 34.7774 562.938 34.6171C562.76 34.4568 562.617 34.2616 562.517 34.0436C562.418 33.8256 562.364 33.5896 562.359 33.35V17.9999H556.809V26.2399C556.837 27.2617 556.653 28.2781 556.268 29.2253C555.884 30.1724 555.308 31.03 554.577 31.7438C553.845 32.4576 552.973 33.0122 552.017 33.373C551.061 33.7337 550.04 33.8928 549.019 33.84C547.998 33.8928 546.978 33.7337 546.021 33.373C545.065 33.0122 544.194 32.4576 543.462 31.7438C542.73 31.03 542.154 30.1724 541.77 29.2253C541.386 28.2781 541.202 27.2617 541.229 26.2399V8.15982C541.203 7.13844 541.388 6.12268 541.773 5.17618C542.158 4.22968 542.734 3.37282 543.465 2.65933C544.197 1.94585 545.067 1.39122 546.023 1.02994C546.979 0.668659 547.999 0.508689 549.019 0.55997C550.04 0.507179 551.061 0.666026 552.017 1.02677C552.973 1.38751 553.845 1.94237 554.577 2.65616C555.308 3.36996 555.884 4.22729 556.268 5.17447C556.653 6.12166 556.837 7.13804 556.809 8.15982V14.7399H562.359V1.7399C562.364 1.50029 562.418 1.26428 562.517 1.0463C562.617 0.828313 562.76 0.632891 562.938 0.472567C563.116 0.312243 563.326 0.190332 563.553 0.114169C563.78 0.0380056 564.02 0.00935408 564.259 0.0299403C564.498 0.00935408 564.738 0.0380056 564.966 0.114169C565.193 0.190332 565.402 0.312243 565.58 0.472567C565.758 0.632891 565.902 0.828313 566.001 1.0463C566.101 1.26428 566.155 1.50029 566.159 1.7399ZM553.009 8.15982C553.009 5.53982 551.339 3.74991 549.009 3.74991C546.679 3.74991 545.009 5.53982 545.009 8.15982V26.2399C545.009 28.9399 546.679 30.6498 549.009 30.6498C551.339 30.6498 553.009 28.9399 553.009 26.2399V8.15982ZM573.589 1.7399V33.35C573.586 33.5892 573.534 33.8249 573.435 34.0429C573.337 34.2608 573.194 34.4561 573.017 34.6166C572.839 34.7771 572.631 34.8992 572.404 34.9755C572.178 35.0518 571.938 35.0806 571.699 35.06C571.46 35.0806 571.22 35.0519 570.993 34.9757C570.766 34.8996 570.556 34.7774 570.378 34.6171C570.2 34.4568 570.057 34.2616 569.957 34.0436C569.858 33.8256 569.804 33.5896 569.799 33.35V1.7399C569.804 1.50029 569.858 1.26428 569.957 1.0463C570.057 0.828313 570.2 0.632891 570.378 0.472567C570.556 0.312243 570.766 0.190332 570.993 0.114169C571.22 0.0380056 571.46 0.00935408 571.699 0.0299403C571.938 0.00929979 572.178 0.037907 572.404 0.114169C572.631 0.190431 572.839 0.312588 573.017 0.473056C573.194 0.633523 573.337 0.828831 573.435 1.04679C573.534 1.26474 573.586 1.50075 573.589 1.7399Z" fill="white"/>
<path d="M589.529 30.5099C589.526 30.1866 589.609 29.8681 589.769 29.587C589.928 29.306 590.16 29.0723 590.439 28.9098C593.208 27.2634 595.497 24.9194 597.076 22.1117C598.655 19.304 599.47 16.131 599.439 12.9098V5.22986H592.059C591.639 5.22724 591.236 5.05897 590.938 4.76135C590.64 4.46374 590.472 4.06066 590.469 3.63977C590.469 3.21715 590.637 2.81186 590.934 2.51209C591.232 2.21231 591.637 2.04256 592.059 2.03992H610.609C611.032 2.04256 611.436 2.21231 611.734 2.51209C612.032 2.81186 612.199 3.21715 612.199 3.63977C612.197 4.06066 612.028 4.46374 611.731 4.76135C611.433 5.05897 611.03 5.22724 610.609 5.22986H603.229V12.9098C603.199 16.131 604.014 19.304 605.593 22.1117C607.172 24.9194 609.461 27.2634 612.229 28.9098C612.509 29.0723 612.74 29.306 612.9 29.587C613.06 29.8681 613.143 30.1866 613.139 30.5099C613.137 31.0024 612.94 31.4739 612.592 31.8221C612.243 32.1704 611.772 32.3671 611.279 32.3698C610.944 32.3787 610.613 32.2885 610.329 32.11C606.379 29.67 602.619 25.5299 601.329 20.8199C599.999 25.5299 596.229 29.67 592.329 32.11C592.031 32.2983 591.682 32.3889 591.329 32.3698C590.847 32.3517 590.391 32.1482 590.056 31.8016C589.72 31.455 589.532 30.9922 589.529 30.5099ZM618.529 33.3199V16.9498H611.009C610.586 16.9472 610.18 16.7779 609.881 16.4784C609.581 16.1789 609.412 15.7735 609.409 15.35C609.409 14.9256 609.578 14.5184 609.878 14.2184C610.178 13.9183 610.585 13.7499 611.009 13.7499H618.589V1.74988C618.594 1.51026 618.648 1.27402 618.747 1.05603C618.847 0.838047 618.99 0.642869 619.168 0.482545C619.347 0.322222 619.556 0.20031 619.783 0.124147C620.01 0.0479837 620.251 0.0193322 620.489 0.0399184C620.728 0.0193322 620.969 0.0479837 621.196 0.124147C621.423 0.20031 621.632 0.322222 621.81 0.482545C621.989 0.642869 622.132 0.838047 622.231 1.05603C622.331 1.27402 622.385 1.51026 622.389 1.74988V33.36C622.385 33.5996 622.331 33.8356 622.231 34.0536C622.132 34.2716 621.989 34.4668 621.81 34.6271C621.632 34.7874 621.423 34.9096 621.196 34.9857C620.969 35.0619 620.728 35.0905 620.489 35.0699C620.247 35.0908 620.003 35.0609 619.774 34.9823C619.544 34.9037 619.333 34.778 619.154 34.6134C618.975 34.4488 618.833 34.2487 618.735 34.026C618.638 33.8033 618.588 33.5629 618.589 33.3199H618.529Z" fill="white"/>
<path d="M627.84 17.1C627.843 16.7282 627.966 16.3676 628.192 16.0719C628.417 15.7762 628.732 15.5614 629.09 15.4598C633.42 14.3598 637.22 11.0599 637.22 5.31995V4.40979H629.81C629.387 4.40715 628.983 4.2374 628.685 3.93762C628.387 3.63785 628.22 3.23256 628.22 2.80994C628.222 2.38812 628.39 1.98415 628.688 1.68494C628.985 1.38573 629.388 1.21507 629.81 1.20984H648.43C648.854 1.20984 649.261 1.37853 649.561 1.67859C649.861 1.97865 650.03 2.38559 650.03 2.80994C650.03 3.23428 649.861 3.64123 649.561 3.94129C649.261 4.24134 648.854 4.40979 648.43 4.40979H641.02V5.31995C641.02 10.8599 644.82 14.02 649.11 15.08C649.478 15.182 649.803 15.4009 650.036 15.704C650.269 16.0071 650.396 16.3778 650.4 16.7599C650.395 17.0168 650.333 17.2694 650.217 17.4989C650.102 17.7284 649.936 17.9287 649.732 18.0853C649.529 18.2419 649.292 18.3507 649.041 18.4034C648.789 18.4561 648.529 18.4514 648.28 18.3898C643.94 17.2898 640.22 14.8899 639.12 11.0199C637.98 15.0799 634.26 17.5899 630 18.7699C629.745 18.8354 629.478 18.8417 629.22 18.7885C628.962 18.7352 628.72 18.6238 628.512 18.4628C628.303 18.3017 628.135 18.0952 628.018 17.859C627.902 17.6228 627.841 17.3633 627.84 17.1ZM637.03 21.6998H652.84C657.02 21.6998 660.28 24.39 660.28 28.34C660.28 32.29 657.02 35.0299 652.84 35.0299H637.03C632.89 35.0299 629.62 32.29 629.62 28.34C629.62 24.39 632.89 21.7399 637.03 21.7399V21.6998ZM652.59 31.84C654.79 31.84 656.46 30.47 656.46 28.34C656.46 26.21 654.79 24.8898 652.59 24.8898H637.26C635.09 24.8898 633.42 26.25 633.42 28.34C633.422 28.8283 633.526 29.3107 633.724 29.757C633.922 30.2032 634.211 30.6035 634.572 30.9325C634.933 31.2614 635.358 31.5119 635.821 31.6681C636.283 31.8243 636.773 31.8829 637.26 31.84H652.59ZM655.44 18.9598V1.73987C655.444 1.50025 655.498 1.26425 655.598 1.04627C655.697 0.828281 655.841 0.63286 656.019 0.472536C656.197 0.312212 656.406 0.1903 656.633 0.114137C656.861 0.0379739 657.101 0.00932241 657.34 0.0299087C657.579 0.00932241 657.819 0.0379739 658.046 0.114137C658.274 0.1903 658.483 0.312212 658.661 0.472536C658.839 0.63286 658.982 0.828281 659.082 1.04627C659.181 1.26425 659.235 1.50025 659.24 1.73987V7.85999H662.69C662.91 7.84255 663.131 7.87075 663.34 7.94299C663.548 8.01524 663.74 8.12985 663.902 8.27966C664.064 8.42948 664.194 8.6111 664.282 8.81336C664.371 9.01561 664.416 9.23419 664.416 9.45496C664.416 9.67572 664.371 9.89406 664.282 10.0963C664.194 10.2986 664.064 10.4802 663.902 10.63C663.74 10.7798 663.548 10.8944 663.34 10.9667C663.131 11.0389 662.91 11.0674 662.69 11.0499H659.26V18.9899C659.254 19.229 659.199 19.4645 659.099 19.6818C658.999 19.8991 658.856 20.0937 658.678 20.2538C658.5 20.4138 658.291 20.5357 658.065 20.6124C657.838 20.6891 657.598 20.7189 657.36 20.6998C657.119 20.7206 656.876 20.6911 656.646 20.6132C656.417 20.5352 656.207 20.4105 656.028 20.247C655.849 20.0834 655.707 19.8845 655.609 19.663C655.511 19.4414 655.46 19.202 655.46 18.9598H655.44Z" fill="white"/>
<path d="M691.371 18.01C683.121 18.96 674.921 19.3801 666.671 19.6101C666.247 19.63 665.832 19.4803 665.518 19.1943C665.203 18.9083 665.016 18.5093 664.996 18.085C664.976 17.6606 665.126 17.2458 665.411 16.9316C665.697 16.6175 666.097 16.4298 666.521 16.4099C670.011 16.2999 673.521 16.19 677.041 16V11.8501H670.041C669.771 11.8784 669.499 11.8459 669.243 11.7554C668.988 11.6649 668.756 11.5186 668.564 11.3269C668.372 11.1352 668.226 10.9032 668.135 10.6477C668.045 10.3922 668.013 10.1197 668.041 9.8501V2.93994C668.013 2.67035 668.045 2.39785 668.135 2.14233C668.226 1.88682 668.372 1.65481 668.564 1.46313C668.756 1.27146 668.988 1.12493 669.243 1.03442C669.499 0.943917 669.771 0.911652 670.041 0.939941H687.721C687.941 0.922502 688.162 0.950948 688.371 1.02319C688.58 1.09544 688.771 1.21005 688.933 1.35986C689.095 1.50968 689.225 1.6913 689.313 1.89355C689.402 2.09581 689.447 2.31415 689.447 2.53491C689.447 2.75568 689.402 2.97402 689.313 3.17627C689.225 3.37852 689.095 3.56039 688.933 3.71021C688.771 3.86002 688.58 3.97463 688.371 4.04688C688.162 4.11912 687.941 4.14732 687.721 4.12988H671.881V8.68994H688.101C688.321 8.6725 688.542 8.70095 688.751 8.77319C688.96 8.84544 689.151 8.96005 689.313 9.10986C689.475 9.25968 689.605 9.4413 689.693 9.64355C689.782 9.84581 689.827 10.0641 689.827 10.2849C689.827 10.5057 689.782 10.724 689.693 10.9263C689.605 11.1285 689.475 11.3104 689.313 11.4602C689.151 11.61 688.96 11.7246 688.751 11.7969C688.542 11.8691 688.321 11.8973 688.101 11.8799H680.841V15.74C684.301 15.51 687.761 15.17 691.221 14.74C691.435 14.7219 691.65 14.7485 691.853 14.8184C692.055 14.8882 692.241 14.9998 692.399 15.1458C692.556 15.2917 692.681 15.4687 692.766 15.6658C692.85 15.8628 692.893 16.0755 692.891 16.29C692.894 16.7136 692.74 17.1233 692.46 17.4407C692.179 17.7581 691.792 17.9608 691.371 18.01ZM698.371 23.3999V33.3201C698.366 33.5597 698.313 33.7957 698.213 34.0137C698.113 34.2317 697.97 34.4268 697.792 34.5872C697.614 34.7475 697.405 34.8696 697.177 34.9458C696.95 35.022 696.71 35.0506 696.471 35.03C696.059 35.0641 695.649 34.9541 695.309 34.7188C694.97 34.4834 694.723 34.1374 694.611 33.74L670.711 34.74C670.435 34.7866 670.152 34.7676 669.885 34.6846C669.618 34.6015 669.375 34.4567 669.174 34.262C668.973 34.0672 668.822 33.8279 668.731 33.5635C668.64 33.299 668.612 33.017 668.651 32.74V23.3501C668.699 22.8798 668.92 22.444 669.271 22.1272C669.622 21.8104 670.078 21.6353 670.551 21.6353C671.024 21.6353 671.48 21.8104 671.831 22.1272C672.182 22.444 672.403 22.8798 672.451 23.3501V24.95H694.591V23.3501C694.639 22.8798 694.86 22.444 695.211 22.1272C695.562 21.8104 696.018 21.6353 696.491 21.6353C696.964 21.6353 697.42 21.8104 697.771 22.1272C698.122 22.444 698.343 22.8798 698.391 23.3501L698.371 23.3999ZM672.451 28.1899V31.5L694.571 30.5V28.1399L672.451 28.1899ZM698.401 1.73999V19.0601C698.353 19.5304 698.132 19.966 697.781 20.2827C697.43 20.5995 696.974 20.7749 696.501 20.7749C696.028 20.7749 695.572 20.5995 695.221 20.2827C694.87 19.966 694.649 19.5304 694.601 19.0601V1.73999C694.649 1.2697 694.87 0.83409 695.221 0.517334C695.572 0.200578 696.028 0.0251465 696.501 0.0251465C696.974 0.0251465 697.43 0.200578 697.781 0.517334C698.132 0.83409 698.353 1.2697 698.401 1.73999Z" fill="white"/>
<path d="M705.77 31.1499V3.1499C705.818 2.67961 706.039 2.244 706.39 1.92725C706.741 1.61049 707.197 1.4353 707.67 1.4353C708.142 1.4353 708.598 1.61049 708.949 1.92725C709.3 2.244 709.521 2.67961 709.57 3.1499V29.7C714.876 29.5149 720.155 28.8454 725.34 27.7C725.571 27.6543 725.811 27.6619 726.039 27.7222C726.267 27.7824 726.479 27.8938 726.658 28.0479C726.838 28.2019 726.979 28.3947 727.073 28.6116C727.167 28.8285 727.21 29.064 727.2 29.3C727.181 29.7195 727.021 30.1203 726.745 30.4365C726.468 30.7527 726.093 30.9655 725.68 31.04C719.811 32.2333 713.847 32.9026 707.86 33.04C706.53 33.09 705.77 32.4799 705.77 31.1499ZM732.33 33.3201V1.73999C732.378 1.2697 732.599 0.83409 732.95 0.517334C733.301 0.200578 733.757 0.0251465 734.23 0.0251465C734.702 0.0251465 735.158 0.200578 735.509 0.517334C735.86 0.83409 736.081 1.2697 736.13 1.73999V33.3501C736.081 33.8204 735.86 34.256 735.509 34.5728C735.158 34.8895 734.702 35.0647 734.23 35.0647C733.757 35.0647 733.301 34.8895 732.95 34.5728C732.599 34.256 732.378 33.8204 732.33 33.3501V33.3201Z" fill="white"/>
<path d="M743.319 31.1499V3.80005C743.293 3.53086 743.326 3.25905 743.418 3.00439C743.509 2.74974 743.655 2.51841 743.847 2.32715C744.038 2.13589 744.269 1.9896 744.524 1.89844C744.778 1.80727 745.05 1.77363 745.319 1.80005H760.629C761.054 1.80005 761.461 1.9685 761.761 2.26855C762.061 2.56861 762.229 2.97556 762.229 3.3999C762.229 3.82425 762.061 4.23119 761.761 4.53125C761.461 4.83131 761.054 5 760.629 5H747.119V29.6899C752.204 29.5136 757.258 28.8134 762.199 27.6001C762.421 27.5622 762.649 27.5748 762.865 27.637C763.082 27.6991 763.282 27.8091 763.45 27.959C763.618 28.1088 763.75 28.2945 763.836 28.5024C763.923 28.7104 763.962 28.935 763.949 29.1599C763.935 29.5709 763.785 29.9656 763.523 30.2822C763.26 30.5989 762.9 30.8195 762.499 30.9099C756.897 32.2436 751.167 32.968 745.409 33.0701C744.079 33.0901 743.319 32.4799 743.319 31.1499ZM768.239 33.3201V1.73999C768.288 1.2697 768.509 0.83409 768.86 0.517334C769.211 0.200578 769.667 0.0251465 770.139 0.0251465C770.612 0.0251465 771.068 0.200578 771.419 0.517334C771.77 0.83409 771.991 1.2697 772.039 1.73999V14.4299H776.709C776.929 14.4125 777.151 14.4409 777.359 14.5132C777.568 14.5854 777.759 14.7 777.921 14.8499C778.084 14.9997 778.213 15.1813 778.301 15.3835C778.39 15.5858 778.436 15.8041 778.436 16.0249C778.436 16.2457 778.39 16.4643 778.301 16.6665C778.213 16.8688 778.084 17.0504 777.921 17.2002C777.759 17.35 777.568 17.4646 777.359 17.5369C777.151 17.6091 776.929 17.6373 776.709 17.6199H772.039V33.3501C771.991 33.8204 771.77 34.256 771.419 34.5728C771.068 34.8895 770.612 35.0647 770.139 35.0647C769.667 35.0647 769.211 34.8895 768.86 34.5728C768.509 34.256 768.288 33.8204 768.239 33.3501V33.3201Z" fill="white"/>
</g>
<defs>
<clipPath id="clip0_175_3551">
<rect width="778.31" height="35.41" fill="white"/>
</clipPath>
</defs>
</svg>
