<svg width="454" height="134" viewBox="0 0 454 134" fill="none" xmlns="http://www.w3.org/2000/svg">
<g clip-path="url(#clip0_107_3446)">
<path d="M453.56 134H0V0H453.56V134ZM4 130H449.56V4H4V130Z" fill="white"/>
<path d="M100.729 86.88H86.9293L88.3293 84.12V69.12L75.4793 69.82L72.7793 71.22V59.22L75.5293 60.62L88.3293 59.92V51.92H75.5293L72.7793 53.32V41.32L75.5293 42.72H89.5293L91.2793 41.12L100.529 45.77L99.3793 47.67V84.17L100.729 86.88ZM118.279 59.42L120.999 58V70L118.249 68.6H114.799V85.6L116.199 88.35H102.399L103.799 85.6V44.6L102.399 41.85H116.199L114.799 44.6V59.42H118.279Z" fill="white"/>
<path d="M150.729 86.88H136.929L138.329 84.12V69.12L125.479 69.82L122.779 71.22V59.22L125.529 60.62L138.329 59.92V51.92H125.529L122.779 53.32V41.32L125.529 42.72H139.479L141.229 41.12L150.479 45.77L149.329 47.67V84.17L150.729 86.88ZM168.279 59.42L170.999 58V70L168.249 68.6H164.799V85.6L166.199 88.35H152.399L153.799 85.6V44.6L152.399 41.85H166.199L164.799 44.6V59.42H168.279Z" fill="white"/>
<path d="M215.779 77.62L218.529 76.22V88.28L215.779 86.88H175.279L172.529 88.28V76.22L175.279 77.62H189.999V71.47C180.349 70.22 173.749 65.37 173.749 56.77C173.749 46.62 182.949 41.72 195.499 41.72C208.049 41.72 217.249 46.62 217.249 56.77C217.249 65.37 210.649 70.22 200.999 71.47V77.62H215.779ZM195.529 62.82C201.579 62.82 206.529 60.82 206.529 56.82C206.529 52.82 201.579 50.77 195.529 50.77C189.479 50.77 184.529 52.82 184.529 56.82C184.529 60.82 189.479 62.82 195.529 62.82Z" fill="white"/>
<path d="M265.779 66.5199L268.539 65.1199V75.4199L265.779 73.9999H225.279L224.829 74.2499L227.279 75.5099H264.379L267.929 78.0599L266.779 79.9999V85.6499L268.179 88.3999H254.379L255.779 85.6499V82.9999H227.279L224.529 84.3999V74.3999L222.529 75.3999V65.1199L225.279 66.5199H239.999V64.3699H226.679L223.129 61.8199L224.279 59.9199V46.1199L223.129 44.2199L232.379 40.3199L234.129 41.9199H263.999L266.749 40.5199V48.6699H235.249V49.9999H266.749V56.2499H235.249V57.5999H266.749V65.7499L263.999 64.3699H250.999V66.5199H265.779Z" fill="white"/>
<path d="M328.28 59.7699L331.03 58.3699V69.1699L328.28 67.7699H287.78L285 69.1699V58.3699L287.75 59.7699H299.5V54.7699L298.1 52.0199H311.9L310.5 54.7699V59.7699H328.28ZM330 79.2799C330 88.1799 318.1 89.5299 308 89.5299C297.9 89.5299 286 88.1799 286 79.2799C286 70.3799 297.93 68.9999 308 68.9999C318.07 68.9999 330 70.3799 330 79.2799ZM318.28 49.9199H289.78L287 51.3199V40.5199L289.75 41.9199H319.4L321.15 40.3199L330.4 44.2199L329.25 46.1199V58.2699H318.25L318.28 49.9199ZM319 79.2799C319 76.9199 313.15 76.7799 308 76.7799C302.85 76.7799 297 76.9199 297 79.2799C297 81.6399 302.85 81.7799 308 81.7799C313.15 81.7799 319 81.6199 319 79.2799Z" fill="white"/>
<path d="M378.28 68.22L381.03 66.82V78.88L378.28 77.47H372.63V85.63L374.03 88.38H360.23L361.63 85.63V77.47H354.43V85.63L355.83 88.38H342L343.4 85.63V77.47H337.75L335 78.88V66.82L337.75 68.22H378.28ZM336.28 54.02C336.28 45.72 345.48 41.72 358.03 41.72C370.58 41.72 379.78 45.72 379.78 54.02C379.78 62.32 370.58 66.32 358.03 66.32C345.48 66.32 336.28 62.32 336.28 54V54.02ZM347 54C347 56.2 352 57.3 358 57.3C364 57.3 369 56.2 369 54C369 51.8 364.05 50.7 358 50.7C351.95 50.7 347 51.82 347 54Z" fill="white"/>
</g>
<defs>
<clipPath id="clip0_107_3446">
<rect width="453.56" height="134" fill="white"/>
</clipPath>
</defs>
</svg>
