<svg viewBox="0 0 877 112" fill="none" xmlns="http://www.w3.org/2000/svg">
<g clip-path="url(#clip0_191_3435)">
<path d="M74.6895 37.21C74.6869 36.8343 74.763 36.4624 74.9128 36.1179C75.0626 35.7735 75.2829 35.4641 75.5595 35.21C79.7895 31.21 80.3396 22.8301 80.3396 8.39014H77.3996C77.0715 8.39036 76.7466 8.32426 76.4445 8.19604C76.1425 8.06783 75.8695 7.87999 75.6417 7.6438C75.4139 7.4076 75.236 7.12803 75.1188 6.82153C75.0017 6.51503 74.9474 6.18803 74.9595 5.86011C74.9475 5.52979 75.0015 5.20039 75.1181 4.89111C75.2347 4.58183 75.4118 4.29874 75.6389 4.05859C75.866 3.81844 76.1386 3.62586 76.4409 3.49219C76.7432 3.35851 77.0691 3.28645 77.3996 3.28003H82.6396C83.0557 3.23432 83.4767 3.28243 83.8717 3.4209C84.2667 3.55937 84.6256 3.78459 84.9221 4.08008C85.2185 4.37557 85.4449 4.73387 85.5847 5.12842C85.7244 5.52297 85.7739 5.9439 85.7296 6.36011V7.92993C85.7296 22.3699 85.0396 32.7701 79.3796 39.0701C79.1289 39.3484 78.8192 39.5671 78.4732 39.7107C78.1272 39.8543 77.7537 39.9191 77.3796 39.9001C77.0256 39.9028 76.6746 39.8349 76.347 39.7007C76.0194 39.5664 75.7218 39.3685 75.4715 39.1182C75.2212 38.8678 75.0231 38.5702 74.8889 38.2427C74.7546 37.9151 74.6869 37.564 74.6895 37.21ZM85.3095 39.28C85.3276 38.5333 85.6236 37.8201 86.1396 37.28C90.5996 32.96 91.4295 23.0601 91.4295 8.39014H89.0795C88.7556 8.38372 88.4363 8.3128 88.1401 8.18164C87.8439 8.05048 87.5767 7.86148 87.3542 7.62598C87.1317 7.39047 86.9583 7.11303 86.8442 6.80981C86.7301 6.5066 86.6775 6.18386 86.6895 5.86011C86.6761 5.53356 86.7275 5.20754 86.8405 4.90088C86.9536 4.59422 87.1261 4.313 87.3482 4.07324C87.5703 3.83348 87.8376 3.63977 88.1347 3.50366C88.4319 3.36756 88.7529 3.29162 89.0795 3.28003H93.8696C94.2802 3.24116 94.6943 3.29477 95.0815 3.43701C95.4687 3.57925 95.819 3.80659 96.1068 4.10205C96.3946 4.39752 96.6125 4.75377 96.7445 5.14453C96.8765 5.5353 96.9192 5.95065 96.8696 6.36011V7.92993C96.8696 24.4399 95.9896 34.93 89.8696 41.28C89.6266 41.546 89.3271 41.7542 88.9931 41.8892C88.6591 42.0241 88.2991 42.0826 87.9395 42.0601C87.5841 42.051 87.2339 41.9719 86.9091 41.8271C86.5843 41.6824 86.2913 41.4749 86.047 41.2166C85.8026 40.9582 85.6117 40.6541 85.4852 40.3218C85.3586 39.9895 85.2989 39.6355 85.3095 39.28ZM100.31 41.5801V3.71997C100.381 3.02606 100.708 2.38346 101.226 1.91626C101.744 1.44906 102.417 1.19043 103.115 1.19043C103.812 1.19043 104.485 1.44906 105.003 1.91626C105.521 2.38346 105.848 3.02606 105.92 3.71997V18.54H110.06V3.77002C110.142 3.07232 110.478 2.42927 111.003 1.96265C111.529 1.49603 112.207 1.23828 112.91 1.23828C113.612 1.23828 114.29 1.49603 114.816 1.96265C115.341 2.42927 115.677 3.07232 115.76 3.77002V41.54C115.677 42.2377 115.341 42.8808 114.816 43.3474C114.29 43.814 113.612 44.0718 112.91 44.0718C112.207 44.0718 111.529 43.814 111.003 43.3474C110.478 42.8808 110.142 42.2377 110.06 41.54V23.8301H105.99V41.54C105.918 42.2339 105.591 42.8766 105.073 43.3438C104.555 43.8109 103.882 44.0696 103.185 44.0696C102.487 44.0696 101.814 43.8109 101.296 43.3438C100.778 42.8766 100.451 42.2339 100.38 41.54L100.31 41.5801Z" fill="white"/>
<path d="M160.301 18.9001C160.981 18.908 161.632 19.1826 162.113 19.665C162.593 20.1475 162.865 20.7991 162.871 21.48C162.872 21.8183 162.806 22.1536 162.678 22.4666C162.549 22.7795 162.36 23.064 162.121 23.3037C161.883 23.5434 161.599 23.7337 161.286 23.8635C160.974 23.9933 160.639 24.0601 160.301 24.0601H122.85C122.511 24.0614 122.175 23.9956 121.862 23.8665C121.548 23.7373 121.263 23.5472 121.023 23.3074C120.783 23.0675 120.593 22.7826 120.464 22.469C120.335 22.1554 120.269 21.8192 120.271 21.48C120.278 20.7981 120.553 20.1465 121.035 19.6643C121.517 19.1821 122.169 18.9079 122.85 18.9001H130.251C131.69 15.0551 132.755 11.0799 133.43 7.03003H124.641C123.964 7.03003 123.316 6.76142 122.837 6.2832C122.359 5.80499 122.09 5.15628 122.09 4.47998C122.09 3.80368 122.359 3.15522 122.837 2.677C123.316 2.19878 123.964 1.92993 124.641 1.92993H137.34C139.41 1.92993 140.241 3.17004 139.871 5.29004C139.181 9.93617 138.008 14.4977 136.371 18.9001H150.08C151.597 15.0773 152.677 11.0953 153.301 7.03003H144.06C143.384 7.03003 142.736 6.76142 142.257 6.2832C141.779 5.80499 141.511 5.15628 141.511 4.47998C141.511 3.80368 141.779 3.15522 142.257 2.677C142.736 2.19878 143.384 1.92993 144.06 1.92993H157.21C159.28 1.92993 160.211 3.07994 159.881 5.18994C159.221 9.86465 158.082 14.4591 156.48 18.9001H160.301ZM161.58 41.1201C161.573 41.4721 161.495 41.8188 161.351 42.1401C161.208 42.4615 161.001 42.7511 160.744 42.9915C160.487 43.2318 160.184 43.4183 159.854 43.54C159.523 43.6617 159.172 43.716 158.82 43.7C149.25 43.19 143.73 40.11 141.57 36.7C139.36 40.1 133.8 43.18 124.32 43.7C123.64 43.7388 122.971 43.5064 122.461 43.0537C121.951 42.601 121.641 41.9648 121.599 41.2842C121.556 40.6035 121.785 39.9337 122.235 39.4214C122.685 38.909 123.32 38.5958 124.001 38.55C133.001 38.09 138.35 35.1402 138.35 30.9102V30.3601C138.491 29.6018 138.892 28.9166 139.485 28.4233C140.078 27.9301 140.824 27.6599 141.595 27.6599C142.367 27.6599 143.113 27.9301 143.706 28.4233C144.299 28.9166 144.7 29.6018 144.84 30.3601V30.9102C144.84 35.1402 150.221 38.09 159.151 38.55C159.803 38.5996 160.413 38.8903 160.862 39.3655C161.311 39.8406 161.567 40.4663 161.58 41.1201Z" fill="white"/>
<path d="M169.12 9.61011C168.487 9.61011 167.879 9.35812 167.431 8.90991C166.982 8.4617 166.73 7.85384 166.73 7.21997C166.73 6.5861 166.982 5.97824 167.431 5.53003C167.879 5.08182 168.487 4.83008 169.12 4.83008H177.411V2.39014C177.411 0.870137 178.88 0 180.72 0C182.56 0 184.031 0.870137 184.031 2.39014V4.83008H192.31C192.944 4.83008 193.552 5.08182 194 5.53003C194.449 5.97824 194.7 6.5861 194.7 7.21997C194.7 7.85384 194.449 8.4617 194 8.90991C193.552 9.35812 192.944 9.61011 192.31 9.61011H169.12ZM175.24 11.77H186.24C190.24 11.77 193.551 14.9899 193.551 19.6899C193.551 24.3899 190.19 27.6401 186.24 27.6401H175.24C171.24 27.6401 167.88 24.3799 167.88 19.6899C167.88 14.9999 171.29 11.77 175.24 11.77ZM173.031 43.77C172.626 43.8144 172.216 43.7672 171.832 43.6321C171.448 43.497 171.099 43.2774 170.811 42.9895C170.523 42.7016 170.303 42.3527 170.168 41.9685C170.033 41.5844 169.986 41.1748 170.031 40.77V32.77C170.031 31.02 171.501 30.01 173.291 30.01C175.081 30.01 176.521 31.01 176.521 32.77V38.71H204.521C205.192 38.71 205.835 38.9767 206.309 39.4512C206.784 39.9256 207.051 40.569 207.051 41.24C207.051 41.911 206.784 42.5546 206.309 43.0291C205.835 43.5035 205.192 43.77 204.521 43.77H173.031ZM184.31 22.9299C184.753 22.9662 185.199 22.9096 185.618 22.7637C186.038 22.6178 186.423 22.3859 186.747 22.0828C187.072 21.7796 187.33 21.412 187.505 21.0034C187.679 20.5948 187.766 20.1542 187.76 19.71C187.771 19.2644 187.687 18.8217 187.514 18.4109C187.341 18.0001 187.083 17.6305 186.757 17.3264C186.432 17.0223 186.045 16.7906 185.623 16.6465C185.202 16.5023 184.754 16.449 184.31 16.49H177.22C176.776 16.455 176.33 16.5123 175.909 16.6582C175.488 16.8041 175.101 17.0355 174.774 17.3379C174.447 17.6403 174.186 18.0073 174.007 18.4155C173.829 18.8237 173.736 19.2644 173.736 19.71C173.736 20.1555 173.829 20.5964 174.007 21.0046C174.186 21.4129 174.447 21.7796 174.774 22.082C175.101 22.3845 175.488 22.616 175.909 22.762C176.33 22.9079 176.776 22.965 177.22 22.9299H184.31ZM199.31 30.3801V3.96997C199.31 2.21997 200.741 1.20996 202.531 1.20996C204.321 1.20996 205.75 2.20997 205.75 3.96997V13.1699H208.99C209.699 13.1699 210.378 13.4514 210.878 13.9521C211.379 14.4529 211.661 15.132 211.661 15.8401C211.661 16.5482 211.379 17.2273 210.878 17.728C210.378 18.2288 209.699 18.51 208.99 18.51H205.82V30.3801C205.82 32.1301 204.44 33.1401 202.6 33.1401C200.76 33.1401 199.35 32.1101 199.35 30.3601L199.31 30.3801Z" fill="white"/>
<path d="M226.44 38.2699C226.458 37.735 226.606 37.2124 226.871 36.7472C227.136 36.2821 227.51 35.8884 227.96 35.6C232.65 32.6 238.031 26.45 238.031 15.6V8.88004H230.12C229.409 8.86953 228.73 8.57926 228.23 8.07217C227.73 7.56508 227.45 6.88169 227.45 6.16983C227.453 5.46251 227.735 4.78497 228.235 4.28482C228.736 3.78467 229.413 3.50254 230.12 3.49991H252.2C252.913 3.49979 253.598 3.77963 254.106 4.27896C254.615 4.7783 254.907 5.45714 254.921 6.16983C254.91 6.88706 254.62 7.572 254.112 8.07828C253.604 8.58455 252.918 8.87229 252.2 8.88004H244.291V15.6C244.291 26.46 249.67 32.6 254.36 35.6C254.804 35.8962 255.172 36.2918 255.436 36.7553C255.7 37.2188 255.852 37.7373 255.88 38.2699C255.88 39.0656 255.564 39.8287 255.002 40.3913C254.439 40.9539 253.676 41.2699 252.88 41.2699C252.293 41.2935 251.712 41.1327 251.22 40.81C246.9 38.14 242.75 33.5399 241.22 28.4799C239.66 33.5399 235.47 38.1399 231.22 40.7699C230.739 41.1098 230.16 41.2851 229.57 41.2699C229.167 41.2806 228.766 41.2112 228.39 41.0658C228.014 40.9204 227.671 40.702 227.38 40.423C227.089 40.144 226.856 39.8101 226.694 39.4406C226.533 39.071 226.447 38.6731 226.44 38.2699ZM260.44 41.12V4.17984C260.449 3.76159 260.542 3.34966 260.716 2.9689C260.889 2.58815 261.138 2.24666 261.448 1.96573C261.758 1.68479 262.122 1.47025 262.518 1.33511C262.914 1.19998 263.333 1.14706 263.75 1.17984C264.163 1.14954 264.576 1.20481 264.966 1.34195C265.356 1.47909 265.713 1.6953 266.016 1.97696C266.318 2.25861 266.559 2.59957 266.723 2.97867C266.887 3.35777 266.972 3.76666 266.97 4.17984V41.12C266.972 41.5332 266.887 41.9421 266.723 42.3212C266.559 42.7003 266.318 43.0413 266.016 43.3229C265.713 43.6046 265.356 43.8208 264.966 43.9579C264.576 44.0951 264.163 44.1503 263.75 44.12C263.329 44.1616 262.904 44.1151 262.501 43.9838C262.099 43.8525 261.728 43.6393 261.412 43.3573C261.096 43.0754 260.842 42.731 260.667 42.3459C260.491 41.9607 260.397 41.5433 260.391 41.12H260.44Z" fill="white"/>
<path d="M289.99 41.5402V28.9901H274.76C274.052 28.9901 273.373 28.7088 272.872 28.2081C272.371 27.7074 272.09 27.0283 272.09 26.3202C272.09 25.6121 272.371 24.933 272.872 24.4322C273.373 23.9315 274.052 23.6503 274.76 23.6503H311.99C312.698 23.6503 313.377 23.9315 313.878 24.4322C314.379 24.933 314.66 25.6121 314.66 26.3202C314.66 27.0283 314.379 27.7074 313.878 28.2081C313.377 28.7088 312.698 28.9901 311.99 28.9901H296.49V41.5402C296.412 42.3521 296.034 43.1059 295.431 43.6544C294.827 44.2029 294.041 44.5067 293.225 44.5067C292.409 44.5067 291.623 44.2029 291.019 43.6544C290.415 43.1059 290.038 42.3521 289.96 41.5402H289.99ZM303.51 18.2701C304.435 14.7935 305.005 11.232 305.21 7.64025H276.88C276.528 7.66218 276.176 7.61179 275.844 7.4923C275.513 7.37281 275.209 7.18669 274.953 6.94543C274.696 6.70417 274.491 6.41284 274.351 6.08947C274.211 5.76609 274.139 5.41739 274.139 5.06506C274.139 4.71272 274.211 4.36426 274.351 4.04089C274.491 3.71751 274.696 3.42619 274.953 3.18493C275.209 2.94367 275.513 2.75754 275.844 2.63805C276.176 2.51856 276.528 2.46818 276.88 2.4901H308.99C310.99 2.4901 311.89 3.59027 311.84 5.66027C311.626 10.1631 310.955 14.6324 309.84 19.0001C309.665 19.7319 309.236 20.3781 308.63 20.8246C308.025 21.2711 307.281 21.4891 306.53 21.4401C304.6 21.4801 303.08 20.1502 303.49 18.3102L303.51 18.2701Z" fill="white"/>
<path d="M318.439 39.4199C318.454 38.725 318.733 38.0618 319.22 37.5657C319.707 37.0695 320.365 36.7779 321.059 36.75C329.962 36.5771 338.844 35.8255 347.65 34.5C348.339 34.3899 349.044 34.5583 349.609 34.968C350.175 35.3778 350.554 35.9955 350.665 36.6851C350.775 37.3746 350.606 38.0796 350.196 38.645C349.787 39.2104 349.169 39.5899 348.479 39.7C339.436 41.1286 330.304 41.9274 321.15 42.0901C320.796 42.094 320.445 42.028 320.117 41.8958C319.789 41.7635 319.49 41.5675 319.239 41.3193C318.987 41.0711 318.786 40.7754 318.649 40.4495C318.512 40.1235 318.441 39.7736 318.439 39.4199ZM320.92 17.4199V12.6301C320.92 5.45013 326.669 1.82007 333.709 1.82007C340.749 1.82007 346.5 5.45013 346.5 12.6301V17.4199C346.5 24.5499 340.709 28.0901 333.709 28.0901C326.709 28.0901 320.92 24.5401 320.92 17.3901V17.4199ZM340.29 17.6001V12.4001C340.29 8.95015 337.389 6.88013 333.709 6.88013C330.029 6.88013 327.179 8.95015 327.179 12.4001V17.6001C327.179 20.9601 330.079 22.98 333.709 22.98C337.339 22.98 340.29 20.93 340.29 17.54V17.6001ZM352.439 41.1501V4.20996C352.517 3.39803 352.895 2.64423 353.499 2.0957C354.102 1.54718 354.889 1.24341 355.704 1.24341C356.52 1.24341 357.307 1.54718 357.91 2.0957C358.514 2.64423 358.892 3.39803 358.969 4.20996V41.1501C358.892 41.9621 358.514 42.7156 357.91 43.2642C357.307 43.8127 356.52 44.1167 355.704 44.1167C354.889 44.1167 354.102 43.8127 353.499 43.2642C352.895 42.7156 352.517 41.9621 352.439 41.1501Z" fill="white"/>
<path d="M380.54 42.6899C380.19 42.6899 379.842 42.6209 379.518 42.4867C379.194 42.3526 378.9 42.1558 378.652 41.9079C378.404 41.6599 378.208 41.3656 378.073 41.0417C377.939 40.7177 377.87 40.3706 377.87 40.0199C377.878 39.3142 378.162 38.6396 378.661 38.1405C379.16 37.6415 379.834 37.3578 380.54 37.35H395.91V30.59C395.91 28.79 397.33 27.78 399.12 27.78C400.91 27.78 402.39 28.78 402.39 30.59V37.35H417.8C418.508 37.35 419.187 37.6313 419.688 38.132C420.189 38.6327 420.47 39.3118 420.47 40.0199C420.474 40.3717 420.408 40.7208 420.275 41.0466C420.142 41.3723 419.946 41.6682 419.697 41.9169C419.448 42.1656 419.152 42.362 418.827 42.4948C418.501 42.6275 418.152 42.6939 417.8 42.6899H380.54ZM383.48 25.85C383.095 25.8949 382.705 25.8519 382.339 25.7245C381.972 25.5972 381.64 25.3886 381.366 25.1144C381.091 24.8403 380.883 24.5077 380.755 24.1415C380.628 23.7753 380.585 23.385 380.63 22.9999V5.38005C380.581 4.99414 380.621 4.60208 380.747 4.23405C380.873 3.86603 381.082 3.53181 381.357 3.25676C381.632 2.9817 381.966 2.77309 382.334 2.64714C382.702 2.52118 383.094 2.48111 383.48 2.52995H414.86C415.246 2.48111 415.638 2.52118 416.006 2.64714C416.374 2.77309 416.708 2.9817 416.983 3.25676C417.258 3.53181 417.467 3.86603 417.593 4.23405C417.719 4.60208 417.759 4.99414 417.71 5.38005V22.9999C417.755 23.385 417.712 23.7753 417.585 24.1415C417.457 24.5077 417.249 24.8403 416.975 25.1144C416.7 25.3886 416.368 25.5972 416.002 25.7245C415.636 25.8519 415.245 25.8949 414.86 25.85H383.48ZM387.03 20.6501H411.36V7.65007H386.99L387.03 20.6501Z" fill="white"/>
<path d="M463.99 18.9001C464.648 18.9054 465.277 19.1696 465.741 19.6357C466.206 20.1019 466.468 20.7323 466.47 21.3901C466.471 21.7162 466.408 22.0391 466.284 22.3406C466.16 22.6421 465.977 22.9162 465.747 23.1467C465.516 23.3773 465.242 23.5597 464.941 23.6838C464.639 23.808 464.316 23.8714 463.99 23.8701H426.35C426.024 23.8714 425.701 23.808 425.4 23.6838C425.098 23.5597 424.824 23.3773 424.594 23.1467C424.363 22.9162 424.18 22.6421 424.056 22.3406C423.932 22.0391 423.869 21.7162 423.87 21.3901C423.873 20.7323 424.135 20.1019 424.599 19.6357C425.063 19.1696 425.692 18.9054 426.35 18.9001H463.99ZM425.66 13.29C425.654 12.6848 425.879 12.0999 426.29 11.6555C426.701 11.2111 427.266 10.941 427.87 10.9001C435.97 10.3501 441.95 7.77015 441.95 3.90015V3.54004C441.95 1.93004 443.38 0.919922 445.17 0.919922C446.96 0.919922 448.44 1.92004 448.44 3.54004V3.91016C448.44 7.73016 454.44 10.3102 462.44 10.9102C463.048 10.9506 463.618 11.2195 464.035 11.6628C464.452 12.1062 464.686 12.6911 464.69 13.3C464.683 13.6315 464.608 13.9582 464.471 14.26C464.334 14.5618 464.137 14.8325 463.892 15.0559C463.647 15.2794 463.359 15.4508 463.046 15.5598C462.733 15.6688 462.401 15.713 462.07 15.6899C453.24 15.1899 447.3 12.6901 445.14 9.34009C442.89 12.7001 436.95 15.1899 428.21 15.6899C427.883 15.7075 427.556 15.6586 427.249 15.5461C426.941 15.4337 426.66 15.2603 426.422 15.0359C426.183 14.8115 425.993 14.541 425.862 14.241C425.731 13.9409 425.662 13.6174 425.66 13.29ZM463.66 28.8901V41.54C463.66 43.29 462.23 44.1101 460.49 44.1101C459.891 44.1818 459.285 44.0713 458.749 43.793C458.214 43.5147 457.775 43.0815 457.49 42.55L429.49 43.6501C429.105 43.7058 428.712 43.6727 428.342 43.5532C427.972 43.4338 427.634 43.2309 427.354 42.9607C427.074 42.6904 426.86 42.3597 426.727 41.9939C426.595 41.628 426.548 41.2369 426.59 40.8501V28.8501C426.59 27.1401 428.02 26.1301 429.77 26.1301C431.52 26.1301 432.94 27.1301 432.94 28.8501V30.0901H457.32V28.8501C457.32 27.1001 458.75 26.1301 460.5 26.1301C462.25 26.1301 463.71 27.1801 463.71 28.8901H463.66ZM432.93 34.8201V38.8201L457.31 37.9399V34.8601L432.93 34.8201Z" fill="white"/>
<path d="M472.26 22.9499C471.646 22.9103 471.07 22.6389 470.65 22.1903C470.229 21.7418 469.995 21.15 469.995 20.5351C469.995 19.9201 470.229 19.3281 470.65 18.8795C471.07 18.431 471.646 18.1595 472.26 18.12H510.08C510.693 18.1595 511.269 18.431 511.689 18.8795C512.11 19.3281 512.344 19.9201 512.344 20.5351C512.344 21.15 512.11 21.7418 511.689 22.1903C511.269 22.6389 510.693 22.9103 510.08 22.9499H472.26ZM475.26 43.7499C474.915 43.7943 474.564 43.76 474.234 43.6493C473.904 43.5386 473.604 43.3545 473.356 43.111C473.107 42.8674 472.918 42.5706 472.8 42.2431C472.683 41.9155 472.642 41.5657 472.68 41.2199V35.33C472.646 34.985 472.69 34.6369 472.808 34.3112C472.927 33.9854 473.117 33.6903 473.364 33.4477C473.612 33.205 473.91 33.0207 474.238 32.9086C474.566 32.7965 474.915 32.7595 475.26 32.7999H503.37V30.36H474.47C473.918 30.355 473.391 30.1364 472.997 29.7504C472.604 29.3644 472.375 28.8409 472.36 28.2899C472.358 28.012 472.412 27.7365 472.517 27.4794C472.623 27.2222 472.778 26.9884 472.974 26.7914C473.17 26.5944 473.403 26.4381 473.66 26.3314C473.916 26.2248 474.192 26.1698 474.47 26.1698H507.23C507.571 26.1336 507.916 26.1744 508.239 26.2887C508.563 26.4031 508.856 26.5881 509.099 26.8307C509.341 27.0733 509.527 27.3671 509.641 27.6906C509.755 28.014 509.796 28.3587 509.76 28.6999V34.2699C509.796 34.611 509.755 34.956 509.641 35.2794C509.527 35.6029 509.341 35.8965 509.099 36.1391C508.856 36.3816 508.563 36.567 508.239 36.6813C507.916 36.7956 507.571 36.8362 507.23 36.7999H478.99V39.4198H508.57C509.118 39.4571 509.633 39.7015 510.008 40.1034C510.384 40.5053 510.592 41.0348 510.592 41.5849C510.592 42.1349 510.384 42.6644 510.008 43.0663C509.633 43.4682 509.118 43.7126 508.57 43.7499H475.26ZM475.53 14.9C475.145 14.9449 474.754 14.9019 474.388 14.7746C474.022 14.6472 473.689 14.4386 473.415 14.1644C473.141 13.8903 472.932 13.5577 472.805 13.1915C472.678 12.8254 472.635 12.4351 472.68 12.0499V4.77993C472.635 4.39482 472.678 4.00451 472.805 3.63833C472.932 3.27214 473.141 2.93958 473.415 2.66543C473.689 2.39128 474.022 2.18269 474.388 2.05532C474.754 1.92795 475.145 1.88499 475.53 1.92983H507.87C508.461 1.92983 509.028 2.16495 509.446 2.58315C509.865 3.00136 510.1 3.56862 510.1 4.16006C510.1 4.75149 509.865 5.31851 509.446 5.73672C509.028 6.15492 508.461 6.39004 507.87 6.39004H479.12V10.39H507.99C508.567 10.4283 509.108 10.6846 509.503 11.1071C509.899 11.5295 510.119 12.0864 510.119 12.6649C510.119 13.2435 509.899 13.8004 509.503 14.2228C509.108 14.6452 508.567 14.9015 507.99 14.9398L475.53 14.9Z" fill="white"/>
<path d="M518.54 42.6899C518.192 42.6952 517.847 42.6315 517.524 42.5024C517.201 42.3732 516.906 42.1811 516.658 41.9374C516.41 41.6937 516.212 41.4032 516.077 41.0827C515.942 40.7621 515.871 40.4179 515.87 40.07C515.87 39.3619 516.151 38.6828 516.652 38.182C517.153 37.6813 517.832 37.4001 518.54 37.4001H533.91V31.6899C533.91 29.8999 535.38 28.8901 537.17 28.8901C538.96 28.8901 540.44 29.8899 540.44 31.6899V37.4001H555.85C556.55 37.4106 557.218 37.6968 557.709 38.1967C558.199 38.6966 558.473 39.3697 558.47 40.07C558.47 40.7649 558.194 41.4312 557.703 41.9225C557.211 42.4139 556.545 42.6899 555.85 42.6899H518.54ZM521.48 26.9599C521.094 27.0031 520.704 26.9589 520.338 26.8302C519.972 26.7016 519.64 26.4921 519.366 26.2172C519.092 25.9423 518.883 25.6092 518.756 25.2426C518.629 24.876 518.586 24.4855 518.63 24.1V14.9899C518.59 14.6079 518.636 14.2217 518.765 13.86C518.895 13.4984 519.105 13.1708 519.379 12.9015C519.653 12.6323 519.984 12.4286 520.348 12.3053C520.712 12.1821 521.099 12.1425 521.48 12.1899H549.32V7.40007H520.75C520.417 7.42141 520.083 7.37411 519.77 7.2614C519.456 7.14868 519.168 6.97275 518.925 6.74455C518.682 6.51635 518.488 6.24084 518.355 5.93474C518.222 5.62863 518.154 5.29859 518.154 4.96501C518.154 4.63143 518.222 4.30138 518.355 3.99528C518.488 3.68918 518.682 3.41343 518.925 3.18522C519.168 2.95702 519.456 2.78109 519.77 2.66838C520.083 2.55567 520.417 2.50861 520.75 2.52995H552.86C553.246 2.48111 553.638 2.52118 554.006 2.64714C554.374 2.77309 554.708 2.9817 554.983 3.25676C555.258 3.53181 555.467 3.86603 555.593 4.23405C555.719 4.60208 555.759 4.99414 555.71 5.38005V14.12C555.755 14.5051 555.712 14.8952 555.585 15.2614C555.457 15.6276 555.249 15.9604 554.975 16.2345C554.7 16.5087 554.368 16.7173 554.002 16.8446C553.636 16.972 553.245 17.0147 552.86 16.9699H525.07V21.9699H553.99C554.615 22.0258 555.195 22.3134 555.619 22.776C556.042 23.2387 556.276 23.8429 556.276 24.4699C556.276 25.0968 556.042 25.7011 555.619 26.1637C555.195 26.6264 554.615 26.914 553.99 26.9699L521.48 26.9599Z" fill="white"/>
<path d="M576.73 38.96C576.742 38.3566 576.94 37.7719 577.299 37.2864C577.657 36.8009 578.157 36.4386 578.73 36.25C589.54 32.84 595.06 24.1001 595.01 8.6001H579.651C579.3 8.6001 578.953 8.53091 578.629 8.39673C578.305 8.26255 578.01 8.06605 577.762 7.81812C577.515 7.57018 577.318 7.27584 577.184 6.9519C577.05 6.62796 576.98 6.28056 576.98 5.92993C576.996 5.2266 577.282 4.55653 577.779 4.05908C578.277 3.56164 578.947 3.2753 579.651 3.26001H598.23C598.641 3.22114 599.055 3.27475 599.442 3.41699C599.83 3.55923 600.18 3.78657 600.468 4.08203C600.755 4.3775 600.973 4.73375 601.105 5.12451C601.237 5.51528 601.28 5.93063 601.23 6.34009V7.82007C601.23 26.9101 593.68 37.8201 580.34 41.6301C579.923 41.7563 579.482 41.783 579.052 41.7085C578.622 41.634 578.216 41.4603 577.865 41.2009C577.515 40.9416 577.23 40.6039 577.033 40.2148C576.836 39.8258 576.732 39.3961 576.73 38.96ZM607.83 41.1699V4.09009C607.919 3.29794 608.296 2.56609 608.89 2.03467C609.484 1.50324 610.253 1.20947 611.051 1.20947C611.848 1.20947 612.617 1.50324 613.211 2.03467C613.805 2.56609 614.182 3.29794 614.271 4.09009V18.1699H618.45C619.142 18.2288 619.786 18.5453 620.255 19.0564C620.725 19.5675 620.985 20.236 620.985 20.9299C620.985 21.6239 620.725 22.2926 620.255 22.8037C619.786 23.3148 619.142 23.631 618.45 23.6899H614.271V41.1699C614.207 41.9801 613.84 42.7365 613.243 43.2881C612.646 43.8397 611.863 44.146 611.051 44.146C610.238 44.146 609.455 43.8397 608.858 43.2881C608.261 42.7365 607.894 41.9801 607.83 41.1699Z" fill="white"/>
<path d="M624.2 26.31C623.536 26.3153 622.897 26.0572 622.423 25.5924C621.948 25.1276 621.678 24.4939 621.67 23.83C621.675 23.1606 621.943 22.5201 622.417 22.0468C622.89 21.5734 623.53 21.3052 624.2 21.2999H661.79C662.454 21.3079 663.088 21.5784 663.552 22.0526C664.017 22.5268 664.275 23.166 664.27 23.83C664.271 24.156 664.208 24.4792 664.084 24.7807C663.96 25.0821 663.777 25.356 663.546 25.5866C663.316 25.8171 663.042 25.9998 662.74 26.1239C662.439 26.2481 662.116 26.3113 661.79 26.31H624.2ZM655.12 41.63V34.87H626.41C626.099 34.87 625.79 34.8087 625.503 34.6896C625.215 34.5705 624.954 34.3958 624.734 34.1757C624.514 33.9556 624.339 33.6944 624.22 33.4069C624.101 33.1193 624.04 32.8111 624.04 32.4999C624.04 32.1887 624.101 31.8805 624.22 31.5929C624.339 31.3054 624.514 31.0442 624.734 30.8241C624.954 30.604 625.215 30.4296 625.503 30.3104C625.79 30.1913 626.099 30.13 626.41 30.13H658.52C658.925 30.0818 659.337 30.1262 659.723 30.2599C660.109 30.3936 660.459 30.6129 660.748 30.9018C661.037 31.1906 661.256 31.5412 661.39 31.9271C661.524 32.3131 661.568 32.7244 661.52 33.13V41.64C661.52 43.39 660.09 44.35 658.34 44.35C656.59 44.35 655.12 43.38 655.12 41.63ZM627.28 17.06C626.895 17.1048 626.504 17.0618 626.138 16.9345C625.772 16.8071 625.44 16.5985 625.165 16.3244C624.891 16.0502 624.683 15.7176 624.555 15.3515C624.428 14.9853 624.385 14.595 624.43 14.2099V4.77993C624.385 4.39482 624.428 4.00451 624.555 3.63833C624.683 3.27214 624.891 2.93958 625.165 2.66543C625.44 2.39128 625.772 2.18269 626.138 2.05532C626.504 1.92795 626.895 1.88499 627.28 1.92983H659.58C660.157 1.96813 660.698 2.22468 661.094 2.64712C661.489 3.06955 661.709 3.62641 661.709 4.20498C661.709 4.78355 661.489 5.34041 661.094 5.76284C660.698 6.18527 660.157 6.44158 659.58 6.47988H630.92V12.4799H659.81C660.411 12.493 660.983 12.7411 661.404 13.171C661.825 13.601 662.06 14.1785 662.06 14.7799C662.065 15.0792 662.011 15.3765 661.9 15.6547C661.79 15.9329 661.625 16.1863 661.416 16.4003C661.206 16.6143 660.957 16.7846 660.681 16.9013C660.405 17.0179 660.109 17.0787 659.81 17.08L627.28 17.06Z" fill="white"/>
<path d="M667.49 38.8701C667.522 38.0617 667.849 37.2928 668.41 36.71C672.13 33.12 676.09 26.71 676.09 16.24V11.96H671.16C670.822 11.96 670.487 11.8932 670.174 11.7634C669.862 11.6336 669.578 11.4436 669.339 11.2039C669.101 10.9642 668.912 10.6797 668.783 10.3667C668.654 10.0537 668.589 9.71846 668.59 9.38013C668.587 8.69306 668.856 8.03249 669.337 7.54199C669.818 7.0515 670.473 6.77053 671.16 6.76001H676.09V3.26001C676.223 2.57636 676.589 1.96012 677.127 1.51709C677.664 1.07406 678.339 0.831787 679.035 0.831787C679.732 0.831787 680.406 1.07406 680.944 1.51709C681.481 1.96012 681.847 2.57636 681.98 3.26001V6.76001H686.81C687.497 6.77053 688.152 7.0515 688.634 7.54199C689.115 8.03249 689.383 8.69306 689.38 9.38013C689.382 9.71846 689.316 10.0537 689.188 10.3667C689.059 10.6797 688.87 10.9642 688.631 11.2039C688.392 11.4436 688.108 11.6336 687.796 11.7634C687.484 11.8932 687.149 11.96 686.81 11.96H681.93V16.24C681.93 26.72 685.93 33.12 689.66 36.71C690.221 37.2928 690.549 38.0617 690.58 38.8701C690.58 39.2346 690.507 39.5952 690.365 39.9307C690.222 40.2661 690.014 40.5695 689.751 40.8225C689.489 41.0755 689.178 41.2729 688.838 41.4031C688.498 41.5332 688.134 41.5935 687.77 41.5801C687.441 41.5891 687.113 41.5327 686.806 41.4143C686.499 41.2959 686.218 41.1178 685.98 40.8901C682.505 37.7324 680.065 33.5984 678.98 29.03C677.876 33.5768 675.463 37.7003 672.04 40.8901C671.555 41.3496 670.908 41.5977 670.24 41.5801C669.881 41.5854 669.524 41.5191 669.191 41.3853C668.857 41.2514 668.554 41.0527 668.298 40.8005C668.042 40.5484 667.839 40.2479 667.7 39.9165C667.562 39.5851 667.49 39.2294 667.49 38.8701ZM692.83 41.54V3.77002C692.914 3.05957 693.255 2.40456 693.79 1.9292C694.324 1.45384 695.015 1.19116 695.73 1.19116C696.446 1.19116 697.136 1.45384 697.671 1.9292C698.205 2.40456 698.547 3.05957 698.63 3.77002V18.4399H703.41V3.81006C703.471 3.08251 703.802 2.4043 704.34 1.90991C704.877 1.41553 705.58 1.14111 706.31 1.14111C707.04 1.14111 707.744 1.41553 708.281 1.90991C708.818 2.4043 709.15 3.08251 709.21 3.81006V41.54C709.15 42.2676 708.818 42.9458 708.281 43.4402C707.744 43.9346 707.04 44.209 706.31 44.209C705.58 44.209 704.877 43.9346 704.34 43.4402C703.802 42.9458 703.471 42.2676 703.41 41.54V23.8801H698.63V41.54C698.547 42.2505 698.205 42.9055 697.671 43.3809C697.136 43.8562 696.446 44.1189 695.73 44.1189C695.015 44.1189 694.324 43.8562 693.79 43.3809C693.255 42.9055 692.914 42.2505 692.83 41.54Z" fill="white"/>
<path d="M722.69 40.48C723.934 36.8361 724.795 33.0724 725.26 29.25H716.06C715.725 29.25 715.393 29.1841 715.084 29.0559C714.774 28.9278 714.493 28.74 714.257 28.5032C714.02 28.2664 713.832 27.9852 713.704 27.6758C713.576 27.3664 713.51 27.0348 713.51 26.7C713.51 26.3651 713.576 26.0335 713.704 25.7241C713.832 25.4147 714.02 25.1338 714.257 24.897C714.493 24.6602 714.774 24.4724 715.084 24.3442C715.393 24.2161 715.725 24.1501 716.06 24.1501H743.99C744.666 24.1501 745.315 24.4188 745.793 24.897C746.271 25.3752 746.54 26.0236 746.54 26.7C746.54 27.3763 746.271 28.025 745.793 28.5032C745.315 28.9814 744.666 29.25 743.99 29.25H731.66C731.126 33.5072 730.171 37.7011 728.81 41.77C728.626 42.4469 728.223 43.0438 727.664 43.4673C727.105 43.8907 726.421 44.1169 725.72 44.1101C723.65 44.1101 721.99 42.46 722.69 40.48ZM725.22 20.74C722.797 20.6607 720.5 19.6424 718.814 17.9004C717.128 16.1584 716.185 13.8292 716.185 11.405C716.185 8.98082 717.128 6.65166 718.814 4.90967C720.5 3.16768 722.797 2.14938 725.22 2.07007H733.91C736.333 2.14938 738.63 3.16768 740.316 4.90967C742.002 6.65166 742.944 8.98082 742.944 11.405C742.944 13.8292 742.002 16.1584 740.316 17.9004C738.63 19.6424 736.333 20.6607 733.91 20.74H725.22ZM732.9 15.74C734.03 15.7009 735.1 15.2224 735.883 14.4062C736.665 13.5901 737.098 12.5008 737.09 11.3701C737.107 10.8042 737.012 10.2405 736.811 9.71143C736.609 9.18237 736.305 8.69848 735.915 8.2876C735.526 7.87672 735.059 7.54693 734.541 7.31738C734.024 7.08783 733.466 6.96288 732.9 6.94995H726.27C725.14 7.00384 724.075 7.49052 723.295 8.30884C722.515 9.12716 722.079 10.2143 722.079 11.345C722.079 12.4756 722.515 13.563 723.295 14.3813C724.075 15.1997 725.14 15.6861 726.27 15.74H732.9ZM748.26 41.1301V37.6301H737.18C736.555 37.5742 735.974 37.2866 735.551 36.824C735.128 36.3613 734.894 35.7571 734.894 35.1301C734.894 34.5032 735.128 33.8989 735.551 33.4363C735.974 32.9736 736.555 32.686 737.18 32.6301H748.26V4.06006C748.337 3.2584 748.71 2.51434 749.307 1.9729C749.903 1.43146 750.679 1.13135 751.485 1.13135C752.29 1.13135 753.067 1.43146 753.663 1.9729C754.259 2.51434 754.632 3.2584 754.71 4.06006V41.1401C754.632 41.9418 754.259 42.6859 753.663 43.2273C753.067 43.7687 752.29 44.0686 751.485 44.0686C750.679 44.0686 749.903 43.7687 749.307 43.2273C748.71 42.6859 748.337 41.9418 748.26 41.1401V41.1301Z" fill="white"/>
<path d="M760.311 23.46C760.314 22.8548 760.519 22.2683 760.894 21.7935C761.269 21.3186 761.792 20.983 762.38 20.8401C767.26 19.5901 771.26 16.05 771.26 10.02V7.77002H763.351C763.011 7.77134 762.675 7.7056 762.362 7.57642C762.048 7.44723 761.763 7.25717 761.523 7.01733C761.283 6.77749 761.093 6.49257 760.964 6.17896C760.835 5.86534 760.769 5.52912 760.771 5.18994C760.768 4.50116 761.037 3.83941 761.521 3.34863C762.004 2.85786 762.662 2.57798 763.351 2.57007H785.291C785.979 2.57798 786.637 2.85786 787.12 3.34863C787.603 3.83941 787.873 4.50116 787.87 5.18994C787.872 5.52912 787.806 5.86534 787.677 6.17896C787.548 6.49257 787.358 6.77749 787.118 7.01733C786.878 7.25717 786.593 7.44723 786.279 7.57642C785.966 7.7056 785.63 7.77134 785.291 7.77002H777.38V10.02C777.38 16.1 781.43 19.5901 786.26 20.8401C786.849 20.9814 787.374 21.3166 787.749 21.7917C788.124 22.2669 788.329 22.8544 788.331 23.46C788.331 23.8679 788.24 24.2708 788.064 24.6389C787.888 25.007 787.632 25.331 787.314 25.5872C786.997 25.8433 786.626 26.025 786.229 26.1189C785.832 26.2128 785.419 26.2168 785.021 26.1301C780.101 24.9301 776.021 22.2601 774.301 18.0801C772.641 22.2601 768.55 24.9301 763.63 26.1301C763.231 26.2166 762.818 26.2126 762.42 26.1187C762.023 26.0247 761.652 25.8433 761.333 25.5874C761.015 25.3315 760.758 25.0075 760.581 24.6394C760.404 24.2713 760.312 23.8684 760.311 23.46ZM766.75 43.75C766.345 43.7982 765.934 43.7538 765.548 43.6201C765.162 43.4864 764.811 43.2668 764.522 42.978C764.234 42.6892 764.014 42.3388 763.88 41.9529C763.747 41.5669 763.702 41.1556 763.75 40.75V31.8701C763.75 30.0701 765.231 29.02 767.021 29.02C768.811 29.02 770.331 30.0701 770.331 31.8701V38.6799H799.13C799.801 38.6799 800.445 38.9467 800.919 39.4211C801.394 39.8956 801.66 40.539 801.66 41.21C801.66 41.881 801.394 42.5246 800.919 42.999C800.445 43.4735 799.801 43.74 799.13 43.74L766.75 43.75ZM794.041 30.45V4C794.041 2.25 795.511 1.18994 797.301 1.18994C799.091 1.18994 800.571 2.25 800.571 4V30.45C800.571 32.2 799.101 33.21 797.301 33.21C795.501 33.21 794.041 32.2 794.041 30.45Z" fill="white"/>
<path d="M-0.00976562 83.54V78.6602C-0.00976562 72.0402 5.61029 68.54 12.5503 68.54C19.4903 68.54 25.0203 72.0402 25.0203 78.6602V83.54C25.0203 90.12 19.4103 93.6201 12.5503 93.6201C5.69029 93.6201 -0.00976562 90.09 -0.00976562 83.54ZM5.29028 110.78C4.8843 110.83 4.47218 110.787 4.08533 110.654C3.69847 110.521 3.347 110.302 3.05774 110.012C2.76848 109.723 2.54902 109.372 2.41602 108.985C2.28302 108.598 2.24004 108.186 2.29028 107.78V98.8501C2.29028 97.0601 3.76029 96.05 5.55029 96.05C7.34029 96.05 8.77026 97.0501 8.77026 98.8501V105.71H38.0303C38.3625 105.71 38.6915 105.775 38.9984 105.903C39.3054 106.03 39.5843 106.216 39.8192 106.451C40.0541 106.686 40.2405 106.965 40.3677 107.272C40.4948 107.579 40.5602 107.908 40.5602 108.24C40.5602 108.572 40.4948 108.901 40.3677 109.208C40.2405 109.515 40.0541 109.794 39.8192 110.029C39.5843 110.264 39.3054 110.45 38.9984 110.577C38.6915 110.705 38.3625 110.77 38.0303 110.77L5.29028 110.78ZM18.6703 83.5901V78.5901C18.6703 75.3201 16.0003 73.4399 12.5503 73.4399C9.10029 73.4399 6.39026 75.3201 6.39026 78.5901V83.5901C6.39026 86.9001 9.01029 88.6899 12.5503 88.6899C16.0903 88.6899 18.6802 86.87 18.6802 83.54L18.6703 83.5901ZM32.9302 96.6501V71.03C32.9302 69.28 34.3602 68.22 36.2002 68.22C38.0402 68.22 39.4702 69.28 39.4702 71.03V96.6501C39.4702 98.4501 37.9902 99.46 36.2002 99.46C34.4102 99.46 32.9902 98.4201 32.9902 96.6201L32.9302 96.6501Z" fill="white"/>
<path d="M47.1096 109.69C46.3968 109.69 45.7124 109.41 45.2037 108.911C44.695 108.412 44.4028 107.733 44.3896 107.02C44.3896 106.295 44.6749 105.599 45.1838 105.083C45.6928 104.566 46.3846 104.271 47.1096 104.26H84.3296C84.6855 104.267 85.0366 104.343 85.3629 104.485C85.6892 104.628 85.9843 104.833 86.2313 105.089C86.4783 105.345 86.6725 105.648 86.8026 105.979C86.9327 106.31 86.9963 106.664 86.9896 107.02C86.9896 107.726 86.7097 108.404 86.2112 108.905C85.7126 109.405 85.036 109.687 84.3296 109.69H47.1096ZM45.7697 90.46C45.7776 89.8294 46.0011 89.2206 46.4032 88.7349C46.8053 88.2491 47.3616 87.9157 47.9796 87.79C56.3596 86.36 62.4696 80.3801 62.4696 74.5901V71.54C62.4696 69.8 63.8996 68.74 65.6896 68.74C67.4796 68.74 68.9596 69.8 68.9596 71.54V74.6301C68.9596 80.4201 75.0796 86.4001 83.4496 87.8301C84.0642 87.9624 84.6166 88.2976 85.0175 88.782C85.4184 89.2663 85.6446 89.8715 85.6597 90.5C85.6592 90.8864 85.5758 91.2682 85.4152 91.6196C85.2545 91.971 85.0201 92.284 84.7281 92.5371C84.4362 92.7902 84.0933 92.9777 83.7227 93.0869C83.352 93.1961 82.9622 93.2243 82.5796 93.1699C74.4796 92.1099 68.2696 87.6901 65.6896 82.5901C63.1196 87.6901 56.9096 92.1099 48.8596 93.1699C48.4732 93.2247 48.0796 93.1954 47.7056 93.084C47.3316 92.9725 46.986 92.7815 46.6926 92.5242C46.3992 92.2668 46.1648 91.9493 46.0055 91.593C45.8462 91.2367 45.7658 90.8502 45.7697 90.46Z" fill="white"/>
<path d="M94.3097 75.46C93.62 75.4627 92.9571 75.1935 92.4647 74.7104C91.9724 74.2274 91.6902 73.5698 91.6797 72.8801C91.6901 72.1868 91.9709 71.5248 92.4622 71.0354C92.9534 70.546 93.6163 70.2678 94.3097 70.26H114.82C115.513 70.2678 116.176 70.546 116.667 71.0354C117.159 71.5248 117.439 72.1868 117.45 72.8801C117.439 73.5698 117.157 74.2274 116.665 74.7104C116.172 75.1935 115.509 75.4627 114.82 75.46H94.3097ZM91.9998 106.05V83.74C91.9574 83.351 92.0037 82.9576 92.1353 82.5891C92.2668 82.2206 92.4801 81.8866 92.7592 81.6123C93.0382 81.338 93.3758 81.1305 93.7466 81.0054C94.1173 80.8803 94.5116 80.841 94.8998 80.8901H114.64C114.989 80.8683 115.338 80.9181 115.667 81.0366C115.996 81.1551 116.298 81.3397 116.552 81.5791C116.807 81.8185 117.01 82.1076 117.149 82.4285C117.288 82.7494 117.36 83.0954 117.36 83.4451C117.36 83.7947 117.288 84.1408 117.149 84.4617C117.01 84.7826 116.807 85.0716 116.552 85.311C116.298 85.5504 115.996 85.735 115.667 85.8535C115.338 85.972 114.989 86.0218 114.64 86H98.4497V103.29C104.405 103.215 110.338 102.545 116.16 101.29C116.535 101.224 116.921 101.245 117.287 101.352C117.653 101.459 117.989 101.65 118.27 101.908C118.551 102.166 118.768 102.486 118.905 102.842C119.042 103.197 119.095 103.58 119.06 103.96C119.056 104.646 118.801 105.306 118.341 105.815C117.882 106.324 117.251 106.646 116.57 106.72C109.465 108.137 102.235 108.83 94.9897 108.79C93.1097 108.81 91.9897 107.94 91.9897 106.05H91.9998ZM123.29 108.17V71.0901C123.378 70.2979 123.755 69.5661 124.349 69.0347C124.944 68.5032 125.713 68.2095 126.51 68.2095C127.307 68.2095 128.076 68.5032 128.67 69.0347C129.264 69.5661 129.641 70.2979 129.73 71.0901V85.3501H133.18C133.854 85.4315 134.476 85.7571 134.927 86.2656C135.378 86.7742 135.627 87.4304 135.627 88.1101C135.627 88.7898 135.378 89.4458 134.927 89.9543C134.476 90.4629 133.854 90.7887 133.18 90.8701H129.73V108.17C129.666 108.98 129.299 109.736 128.702 110.288C128.105 110.84 127.322 111.146 126.51 111.146C125.697 111.146 124.914 110.84 124.317 110.288C123.721 109.736 123.354 108.98 123.29 108.17Z" fill="white"/>
<path d="M139.16 109.69C138.433 109.69 137.736 109.401 137.222 108.887C136.709 108.374 136.42 107.677 136.42 106.95C136.42 106.223 136.709 105.526 137.222 105.012C137.736 104.499 138.433 104.21 139.16 104.21H176.28C177.007 104.21 177.703 104.499 178.217 105.012C178.731 105.526 179.02 106.223 179.02 106.95C179.02 107.677 178.731 108.374 178.217 108.887C177.703 109.401 177.007 109.69 176.28 109.69H139.16ZM167.36 96.6201C168.651 89.4516 169.373 82.1924 169.52 74.9102H141.32C140.606 74.9102 139.922 74.6265 139.418 74.1221C138.913 73.6176 138.63 72.9334 138.63 72.22C138.63 71.5065 138.913 70.8223 139.418 70.3179C139.922 69.8134 140.606 69.53 141.32 69.53H173.32C175.32 69.53 176.26 70.5801 176.17 72.6101C175.991 80.8319 175.192 89.0285 173.78 97.1301C173.672 97.9296 173.274 98.6616 172.662 99.187C172.05 99.7125 171.266 99.9946 170.46 99.98C170.025 99.9977 169.592 99.9207 169.19 99.7544C168.789 99.5881 168.428 99.3364 168.133 99.0168C167.838 98.6972 167.616 98.3174 167.483 97.9036C167.349 97.4897 167.307 97.0518 167.36 96.6201Z" fill="white"/>
<path d="M183.99 89.54V80.98C183.946 80.5943 183.991 80.204 184.119 79.8379C184.248 79.4718 184.458 79.1394 184.732 78.8655C185.007 78.5916 185.34 78.3832 185.707 78.2559C186.074 78.1285 186.464 78.0856 186.85 78.1301H197.99V74.1301H185.99C185.363 74.1196 184.765 73.8631 184.325 73.416C183.886 72.9689 183.64 72.367 183.64 71.74C183.642 71.1175 183.891 70.5214 184.331 70.0813C184.771 69.6412 185.367 69.3928 185.99 69.3901H200.89C201.276 69.3453 201.668 69.3885 202.035 69.5164C202.402 69.6442 202.736 69.8533 203.011 70.1284C203.286 70.4035 203.496 70.7374 203.623 71.1047C203.751 71.4721 203.794 71.8636 203.75 72.25V79.75C203.793 80.1356 203.748 80.526 203.62 80.8921C203.491 81.2582 203.282 81.5906 203.007 81.8645C202.732 82.1384 202.399 82.3468 202.032 82.4741C201.666 82.6015 201.275 82.6446 200.89 82.6001H189.89V87.3801C194.296 87.3011 198.685 86.809 203 85.9102C203.335 85.8494 203.681 85.8675 204.008 85.9631C204.335 86.0588 204.636 86.2291 204.886 86.4609C205.136 86.6927 205.329 86.9797 205.45 87.2988C205.57 87.618 205.614 87.9607 205.58 88.3C205.572 88.9129 205.338 89.5013 204.923 89.9519C204.507 90.4025 203.94 90.6832 203.33 90.74C197.925 91.7244 192.444 92.233 186.95 92.26C185.06 92.34 183.99 91.42 183.99 89.54ZM221.07 94.97C221.455 94.9254 221.846 94.9686 222.212 95.0959C222.579 95.2233 222.912 95.4317 223.187 95.7056C223.462 95.9795 223.671 96.3119 223.8 96.678C223.928 97.0441 223.973 97.4344 223.93 97.8201V108.54C223.93 110.29 222.55 111.11 220.8 111.11C220.191 111.174 219.577 111.05 219.041 110.755C218.505 110.46 218.072 110.008 217.8 109.46L188.91 110.65C188.522 110.711 188.125 110.681 187.751 110.564C187.376 110.447 187.034 110.245 186.75 109.974C186.466 109.704 186.247 109.372 186.112 109.003C185.977 108.635 185.928 108.24 185.97 107.85V97.8501C185.925 97.465 185.968 97.0747 186.095 96.7085C186.222 96.3423 186.431 96.0097 186.705 95.7356C186.979 95.4614 187.312 95.2529 187.678 95.1255C188.044 94.9981 188.434 94.9552 188.82 95L221.07 94.97ZM192.28 99.75V105.69L217.62 104.69V99.77L192.28 99.75ZM223.93 70.6799V90.8701C223.93 92.4801 222.64 93.3101 221.03 93.3101C219.42 93.3101 218.13 92.4801 218.13 90.8701V82.96H213.35V90.96C213.35 92.52 212.1 93.3501 210.49 93.3501C208.88 93.3501 207.6 92.52 207.6 90.96V70.6699C207.6 69.1099 208.88 68.23 210.49 68.23C212.1 68.23 213.35 69.1099 213.35 70.6699V77.8H218.13V70.72C218.13 69.11 219.42 68.23 221.03 68.23C222.64 68.23 223.99 69.0699 223.99 70.6799H223.93Z" fill="white"/>
<path d="M245.37 109C244.705 109.003 244.066 108.742 243.592 108.276C243.118 107.81 242.848 107.175 242.84 106.51C242.845 105.841 243.113 105.2 243.587 104.727C244.06 104.253 244.7 103.985 245.37 103.98H248.91L247.91 79.55C247.91 77.76 249.25 76.7899 250.91 76.7899C251.292 76.7601 251.676 76.8073 252.04 76.9289C252.403 77.0504 252.739 77.2437 253.026 77.4975C253.313 77.7512 253.547 78.0602 253.712 78.4059C253.878 78.7516 253.972 79.127 253.99 79.5099L254.87 103.98H260.07L260.99 79.4599C261.011 79.0823 261.108 78.713 261.276 78.3742C261.444 78.0354 261.68 77.7342 261.968 77.4892C262.256 77.2441 262.591 77.0603 262.952 76.9486C263.313 76.837 263.694 76.8001 264.07 76.84C265.77 76.84 267.2 77.84 267.07 79.6L266.07 103.98H269.61C270.275 103.988 270.91 104.258 271.376 104.732C271.842 105.206 272.103 105.845 272.1 106.51C272.101 106.837 272.038 107.162 271.913 107.465C271.788 107.767 271.605 108.042 271.374 108.274C271.142 108.505 270.867 108.688 270.564 108.813C270.262 108.938 269.937 109.001 269.61 109H245.37ZM245.78 75.32C245.109 75.32 244.465 75.0535 243.991 74.579C243.516 74.1045 243.25 73.4609 243.25 72.7899C243.25 72.1189 243.516 71.4754 243.991 71.0009C244.465 70.5264 245.109 70.2599 245.78 70.2599H269.24C269.911 70.2599 270.554 70.5264 271.029 71.0009C271.503 71.4754 271.77 72.1189 271.77 72.7899C271.77 73.4609 271.503 74.1045 271.029 74.579C270.554 75.0535 269.911 75.32 269.24 75.32H245.78ZM276.51 108.12V71.1798C276.519 70.7611 276.614 70.349 276.789 69.9682C276.963 69.5874 277.213 69.246 277.524 68.9652C277.835 68.6844 278.2 68.4699 278.596 68.3349C278.993 68.1998 279.412 68.1471 279.83 68.1798C280.242 68.1495 280.656 68.2048 281.046 68.3419C281.435 68.4791 281.793 68.6953 282.095 68.977C282.397 69.2586 282.638 69.5996 282.802 69.9787C282.967 70.3578 283.051 70.7667 283.05 71.1798V108.12C283.051 108.533 282.967 108.942 282.802 109.321C282.638 109.7 282.397 110.041 282.095 110.323C281.793 110.605 281.435 110.821 281.046 110.958C280.656 111.095 280.242 111.15 279.83 111.12C279.412 111.154 278.992 111.102 278.594 110.968C278.197 110.833 277.832 110.619 277.521 110.338C277.21 110.057 276.96 109.715 276.786 109.334C276.612 108.952 276.518 108.539 276.51 108.12Z" fill="white"/>
<path d="M290.99 109.69C290.263 109.69 289.566 109.401 289.052 108.887C288.539 108.374 288.25 107.677 288.25 106.95C288.25 106.223 288.539 105.526 289.052 105.012C289.566 104.499 290.263 104.21 290.99 104.21H328.12C328.847 104.21 329.544 104.499 330.057 105.012C330.571 105.526 330.86 106.223 330.86 106.95C330.86 107.677 330.571 108.374 330.057 108.887C329.544 109.401 328.847 109.69 328.12 109.69H290.99ZM293.85 93.3101C293.464 93.3546 293.074 93.3117 292.707 93.1843C292.341 93.057 292.008 92.8486 291.733 92.5747C291.458 92.3008 291.248 91.9684 291.12 91.6023C290.991 91.2362 290.947 90.8456 290.99 90.46V72.3801C290.941 71.9933 290.981 71.6003 291.108 71.2314C291.234 70.8626 291.444 70.5275 291.72 70.2522C291.996 69.9769 292.332 69.7688 292.701 69.6436C293.07 69.5184 293.463 69.4795 293.85 69.53H325.73C326.094 69.5077 326.458 69.5602 326.801 69.6841C327.143 69.8079 327.457 70.0006 327.723 70.2502C327.988 70.4999 328.2 70.8013 328.344 71.1357C328.489 71.4702 328.563 71.8307 328.563 72.1951C328.563 72.5595 328.489 72.9199 328.344 73.2544C328.2 73.5889 327.988 73.8902 327.723 74.1399C327.457 74.3896 327.143 74.5822 326.801 74.7061C326.458 74.8299 326.094 74.8824 325.73 74.8601H297.48V87.8601H326.14C326.51 87.8376 326.881 87.8911 327.23 88.0173C327.579 88.1436 327.899 88.3399 328.169 88.5942C328.439 88.8486 328.655 89.1555 328.802 89.4961C328.949 89.8367 329.025 90.2039 329.025 90.575C329.025 90.946 328.949 91.3132 328.802 91.6538C328.655 91.9945 328.439 92.3016 328.169 92.5559C327.899 92.8102 327.579 93.0065 327.23 93.1328C326.881 93.2591 326.51 93.3125 326.14 93.29L293.85 93.3101Z" fill="white"/>
<path d="M336.49 91.8401C335.9 91.8014 335.346 91.5394 334.942 91.1077C334.538 90.6759 334.312 90.1067 334.312 89.5151C334.312 88.9236 334.538 88.3541 334.942 87.9224C335.346 87.4906 335.9 87.2287 336.49 87.1899H374.49C375.08 87.2287 375.634 87.4906 376.038 87.9224C376.442 88.3541 376.667 88.9236 376.667 89.5151C376.667 90.1067 376.442 90.6759 376.038 91.1077C375.634 91.5394 375.08 91.8014 374.49 91.8401H336.49ZM339.49 84.8401C339.145 84.8845 338.794 84.8499 338.465 84.7393C338.135 84.6286 337.835 84.4445 337.586 84.2009C337.338 83.9574 337.148 83.6608 337.031 83.3333C336.914 83.0057 336.872 82.6559 336.91 82.3101V77.54C336.87 77.1916 336.909 76.8385 337.025 76.5073C337.14 76.1761 337.329 75.8755 337.577 75.6274C337.825 75.3794 338.126 75.1905 338.457 75.0749C338.788 74.9594 339.142 74.92 339.49 74.96H367.6V73.1201H338.8C338.256 73.105 337.738 72.882 337.353 72.4971C336.968 72.1121 336.745 71.5943 336.73 71.05C336.735 70.5027 336.955 69.9791 337.342 69.592C337.729 69.205 338.253 68.9852 338.8 68.98H371.46C371.803 68.9449 372.15 68.9873 372.475 69.104C372.8 69.2207 373.095 69.4087 373.338 69.6543C373.581 69.8999 373.765 70.1969 373.878 70.5232C373.991 70.8495 374.029 71.197 373.99 71.54V76.1899C374.03 76.5342 373.993 76.8832 373.881 77.2112C373.769 77.5392 373.585 77.838 373.342 78.0854C373.1 78.3329 372.805 78.5229 372.479 78.6414C372.153 78.7598 371.805 78.8038 371.46 78.77H343.31V80.77H372.52C373.064 80.77 373.585 80.9859 373.97 81.3704C374.354 81.7548 374.57 82.2764 374.57 82.8201C374.57 83.3638 374.354 83.8851 373.97 84.2695C373.585 84.654 373.064 84.8701 372.52 84.8701L339.49 84.8401ZM339.49 110.74C339.145 110.784 338.794 110.75 338.465 110.639C338.135 110.529 337.835 110.345 337.586 110.101C337.338 109.858 337.148 109.561 337.031 109.233C336.914 108.906 336.872 108.556 336.91 108.21V102.96C336.876 102.615 336.92 102.267 337.039 101.941C337.157 101.615 337.347 101.32 337.595 101.078C337.842 100.835 338.141 100.651 338.469 100.539C338.797 100.427 339.146 100.389 339.49 100.43H367.6V98.3201H338.8C338.262 98.3229 337.745 98.1152 337.358 97.7415C336.971 97.3677 336.746 96.8577 336.73 96.3201C336.735 95.7727 336.955 95.2491 337.342 94.8621C337.729 94.475 338.253 94.2552 338.8 94.25H371.46C371.805 94.2162 372.153 94.2602 372.479 94.3787C372.805 94.4971 373.1 94.6871 373.342 94.9346C373.585 95.1821 373.769 95.4808 373.881 95.8088C373.993 96.1368 374.03 96.4858 373.99 96.8301V101.83C374.031 102.174 373.994 102.522 373.882 102.85C373.769 103.178 373.585 103.476 373.342 103.723C373.099 103.969 372.804 104.158 372.478 104.276C372.152 104.393 371.804 104.436 371.46 104.4H343.31V106.66H372.99C373.262 106.66 373.531 106.714 373.782 106.818C374.033 106.922 374.262 107.074 374.454 107.266C374.646 107.459 374.798 107.687 374.902 107.938C375.006 108.189 375.06 108.458 375.06 108.73C375.06 109.002 375.006 109.271 374.902 109.522C374.798 109.773 374.646 110.002 374.454 110.194C374.262 110.386 374.033 110.539 373.782 110.643C373.531 110.747 373.262 110.8 372.99 110.8L339.49 110.74Z" fill="white"/>
<path d="M398.5 91.3801C398.112 91.4293 397.718 91.3897 397.347 91.2646C396.976 91.1396 396.639 90.932 396.36 90.6577C396.081 90.3834 395.867 90.0497 395.736 89.6812C395.604 89.3126 395.558 88.919 395.6 88.53V72.29C395.558 71.9007 395.605 71.5068 395.736 71.1379C395.868 70.7691 396.081 70.4347 396.359 70.1597C396.638 69.8847 396.976 69.6761 397.346 69.5498C397.717 69.4235 398.111 69.3825 398.5 69.4299H416.26C416.646 69.3868 417.036 69.4312 417.402 69.5598C417.768 69.6884 418.101 69.898 418.375 70.1729C418.649 70.4477 418.857 70.7809 418.984 71.1475C419.112 71.514 419.155 71.9046 419.11 72.29V88.54C419.155 88.9251 419.112 89.3155 418.985 89.6816C418.857 90.0478 418.649 90.3804 418.375 90.6545C418.101 90.9287 417.768 91.1373 417.402 91.2646C417.036 91.392 416.645 91.435 416.26 91.3901L398.5 91.3801ZM400.76 110.75C400.356 110.792 399.947 110.744 399.564 110.608C399.181 110.473 398.832 110.253 398.545 109.965C398.257 109.678 398.038 109.33 397.902 108.947C397.766 108.563 397.718 108.154 397.76 107.75V98.22C397.76 96.48 399.23 95.46 401.03 95.46C402.83 95.46 404.25 96.46 404.25 98.22V105.68H432.25C432.921 105.68 433.565 105.947 434.039 106.421C434.514 106.896 434.78 107.539 434.78 108.21C434.78 108.881 434.514 109.525 434.039 109.999C433.565 110.473 432.921 110.74 432.25 110.74L400.76 110.75ZM401.95 86.3601H412.86V74.45H401.99L401.95 86.3601ZM427.07 97.1301V70.95C427.07 69.2 428.5 68.1899 430.29 68.1899C432.08 68.1899 433.51 69.19 433.51 70.95V79.95H436.69C437.398 79.95 438.077 80.2315 438.578 80.7322C439.079 81.2329 439.36 81.912 439.36 82.6201C439.36 83.3282 439.079 84.0073 438.578 84.5081C438.077 85.0088 437.398 85.29 436.69 85.29H433.51V97.1101C433.51 98.8601 432.13 99.8701 430.29 99.8701C428.45 99.8701 427.07 98.8801 427.07 97.1301Z" fill="white"/>
<path d="M442.75 109.69C442.023 109.69 441.326 109.401 440.812 108.887C440.298 108.374 440.01 107.677 440.01 106.95C440.01 106.223 440.298 105.526 440.812 105.012C441.326 104.499 442.023 104.21 442.75 104.21H479.88C480.606 104.21 481.303 104.499 481.817 105.012C482.331 105.526 482.62 106.223 482.62 106.95C482.62 107.677 482.331 108.374 481.817 108.887C481.303 109.401 480.606 109.69 479.88 109.69H442.75ZM445.61 93.3101C445.224 93.3546 444.834 93.3117 444.467 93.1843C444.101 93.057 443.767 92.8486 443.493 92.5747C443.218 92.3008 443.008 91.9684 442.88 91.6023C442.751 91.2362 442.707 90.8456 442.75 90.46V72.3801C442.701 71.9933 442.741 71.6003 442.867 71.2314C442.994 70.8626 443.203 70.5275 443.479 70.2522C443.756 69.9769 444.091 69.7688 444.461 69.6436C444.83 69.5184 445.223 69.4795 445.61 69.53H477.49C477.853 69.5077 478.218 69.5602 478.561 69.6841C478.903 69.8079 479.217 70.0006 479.482 70.2502C479.748 70.4999 479.959 70.8013 480.104 71.1357C480.248 71.4702 480.323 71.8307 480.323 72.1951C480.323 72.5595 480.248 72.9199 480.104 73.2544C479.959 73.5889 479.748 73.8902 479.482 74.1399C479.217 74.3896 478.903 74.5822 478.561 74.7061C478.218 74.8299 477.853 74.8824 477.49 74.8601H449.24V87.8601H477.9C478.27 87.8376 478.641 87.8911 478.99 88.0173C479.339 88.1436 479.658 88.3399 479.929 88.5942C480.199 88.8486 480.414 89.1555 480.562 89.4961C480.709 89.8367 480.785 90.2039 480.785 90.575C480.785 90.946 480.709 91.3132 480.562 91.6538C480.414 91.9945 480.199 92.3016 479.929 92.5559C479.658 92.8102 479.339 93.0065 478.99 93.1328C478.641 93.2591 478.27 93.3125 477.9 93.29L445.61 93.3101Z" fill="white"/>
<path d="M488.52 93.54C487.87 93.4994 487.26 93.2125 486.814 92.7378C486.368 92.2631 486.12 91.6364 486.12 90.9851C486.12 90.3338 486.368 89.7069 486.814 89.2322C487.26 88.7575 487.87 88.4706 488.52 88.4299H526.06C526.71 88.4706 527.32 88.7575 527.766 89.2322C528.212 89.7069 528.46 90.3338 528.46 90.9851C528.46 91.6364 528.212 92.2631 527.766 92.7378C527.32 93.2125 526.71 93.4994 526.06 93.54H488.52ZM491.74 83.8301C491.334 83.8803 490.922 83.8373 490.535 83.7043C490.148 83.5713 489.797 83.3518 489.508 83.0625C489.219 82.7732 488.999 82.4218 488.866 82.0349C488.733 81.6481 488.69 81.2361 488.74 80.8301V70.9001C488.74 69.1901 490.17 68.1799 491.92 68.1799C493.67 68.1799 495.14 69.1801 495.14 70.9001V78.95H523.99C524.323 78.9286 524.657 78.9759 524.971 79.0886C525.285 79.2013 525.572 79.3773 525.816 79.6055C526.059 79.8337 526.253 80.1092 526.385 80.4153C526.518 80.7214 526.586 81.0514 526.586 81.385C526.586 81.7186 526.518 82.0486 526.385 82.3547C526.253 82.6608 526.059 82.9366 525.816 83.1648C525.572 83.393 525.285 83.5689 524.971 83.6816C524.657 83.7944 524.323 83.8414 523.99 83.8201L491.74 83.8301ZM491.74 110.75C491.335 110.798 490.923 110.754 490.537 110.62C490.152 110.486 489.801 110.267 489.512 109.978C489.223 109.689 489.004 109.339 488.87 108.953C488.736 108.567 488.692 108.156 488.74 107.75V99.05C488.74 97.3 490.17 96.29 491.96 96.29C493.75 96.29 495.18 97.29 495.18 99.05V105.72H524.35C525.015 105.728 525.65 105.998 526.116 106.472C526.583 106.946 526.843 107.585 526.84 108.25C526.842 108.577 526.778 108.902 526.653 109.205C526.529 109.507 526.345 109.782 526.114 110.014C525.882 110.245 525.607 110.429 525.305 110.553C525.002 110.678 524.678 110.741 524.35 110.74L491.74 110.75Z" fill="white"/>
<path d="M533.79 106.05V73.1602C533.745 72.7727 533.787 72.38 533.913 72.011C534.04 71.642 534.248 71.306 534.521 71.0278C534.794 70.7496 535.127 70.5362 535.493 70.4033C535.86 70.2704 536.252 70.2215 536.64 70.26H550.4C551.092 70.2703 551.752 70.5497 552.241 71.0388C552.73 71.5279 553.01 72.1885 553.02 72.8801C553.012 73.5689 552.732 74.2264 552.242 74.7097C551.751 75.193 551.089 75.4626 550.4 75.46H539.77V103.46C543.712 103.374 547.631 102.834 551.45 101.85C551.828 101.768 552.221 101.775 552.596 101.871C552.97 101.968 553.318 102.151 553.609 102.405C553.901 102.66 554.129 102.979 554.275 103.338C554.421 103.696 554.481 104.084 554.45 104.47C554.465 105.095 554.25 105.705 553.844 106.181C553.438 106.657 552.87 106.966 552.25 107.05C547.164 108.227 541.961 108.827 536.74 108.84C534.85 108.86 533.79 107.94 533.79 106.05ZM557.79 108.54V90.8301H550.57C549.88 90.8196 549.223 90.5375 548.74 90.0452C548.257 89.5528 547.987 88.8897 547.99 88.2C547.99 87.8616 548.057 87.5266 548.187 87.2141C548.316 86.9017 548.507 86.6179 548.746 86.3792C548.986 86.1404 549.27 85.9513 549.583 85.8228C549.896 85.6942 550.232 85.6288 550.57 85.6301H557.79V70.77C557.794 70.4082 557.873 70.051 558.022 69.7212C558.171 69.3914 558.386 69.0959 558.655 68.8535C558.924 68.6111 559.24 68.4272 559.583 68.313C559.926 68.1988 560.29 68.1568 560.65 68.1899C561.012 68.1569 561.377 68.1988 561.722 68.3127C562.067 68.4267 562.384 68.6103 562.655 68.8523C562.926 69.0943 563.145 69.3893 563.297 69.7192C563.449 70.0492 563.532 70.4068 563.54 70.77V108.54C563.531 108.902 563.447 109.259 563.294 109.588C563.141 109.916 562.923 110.21 562.652 110.451C562.381 110.692 562.064 110.875 561.719 110.988C561.375 111.102 561.011 111.143 560.65 111.11C560.291 111.142 559.93 111.099 559.588 110.985C559.247 110.871 558.933 110.687 558.665 110.446C558.398 110.205 558.183 109.911 558.034 109.583C557.885 109.255 557.806 108.9 557.8 108.54H557.79ZM567.73 108.49V70.8101C567.791 70.0825 568.122 69.4043 568.659 68.9099C569.197 68.4155 569.9 68.1411 570.63 68.1411C571.36 68.1411 572.063 68.4155 572.601 68.9099C573.138 69.4043 573.47 70.0825 573.53 70.8101V108.54C573.47 109.268 573.138 109.946 572.601 110.44C572.063 110.935 571.36 111.209 570.63 111.209C569.9 111.209 569.197 110.935 568.659 110.44C568.122 109.946 567.791 109.268 567.73 108.54V108.49Z" fill="white"/>
<path d="M631.99 87.9699C632.637 87.9699 633.258 88.2271 633.716 88.6847C634.173 89.1423 634.43 89.7629 634.43 90.4101C634.43 91.0572 634.173 91.6778 633.716 92.1354C633.258 92.593 632.637 92.85 631.99 92.85H594.26C593.613 92.85 592.993 92.593 592.535 92.1354C592.077 91.6778 591.82 91.0572 591.82 90.4101C591.82 89.7629 592.077 89.1423 592.535 88.6847C592.993 88.2271 593.613 87.9699 594.26 87.9699H609.95V83.54H597.44C597.055 83.5845 596.664 83.5416 596.298 83.4142C595.931 83.2869 595.598 83.0785 595.323 82.8046C595.048 82.5307 594.839 82.1983 594.71 81.8322C594.582 81.4661 594.537 81.0755 594.58 80.6899V71.81C594.537 71.4243 594.582 71.034 594.71 70.6679C594.839 70.3018 595.048 69.9694 595.323 69.6955C595.598 69.4216 595.931 69.2132 596.298 69.0859C596.664 68.9585 597.055 68.9154 597.44 68.9599H629.64C629.961 68.9389 630.283 68.9841 630.586 69.0925C630.888 69.2008 631.166 69.3702 631.4 69.59C631.635 69.8098 631.822 70.0753 631.95 70.3703C632.078 70.6653 632.144 70.9833 632.144 71.3049C632.144 71.6264 632.078 71.9447 631.95 72.2397C631.822 72.5347 631.635 72.8001 631.4 73.0199C631.166 73.2397 630.888 73.4091 630.586 73.5175C630.283 73.6259 629.961 73.671 629.64 73.6501H601.07V78.8H629.87C630.499 78.8 631.102 79.0496 631.546 79.4941C631.991 79.9385 632.24 80.5413 632.24 81.1698C632.24 81.7984 631.991 82.4014 631.546 82.8459C631.102 83.2903 630.499 83.54 629.87 83.54H616.25V87.9999L631.99 87.9699ZM624.76 95.9699C626.75 95.9699 628.657 96.7601 630.064 98.1667C631.47 99.5732 632.26 101.481 632.26 103.47C632.26 105.459 631.47 107.367 630.064 108.773C628.657 110.18 626.75 110.97 624.76 110.97H601.48C599.491 110.97 597.584 110.18 596.177 108.773C594.77 107.367 593.98 105.459 593.98 103.47C593.98 101.481 594.77 99.5732 596.177 98.1667C597.584 96.7601 599.491 95.9699 601.48 95.9699H624.76ZM623.2 106.19C623.579 106.205 623.958 106.143 624.312 106.009C624.667 105.874 624.991 105.67 625.266 105.408C625.54 105.146 625.759 104.831 625.909 104.483C626.059 104.134 626.138 103.759 626.14 103.38C626.132 103.009 626.048 102.643 625.894 102.305C625.739 101.967 625.518 101.664 625.243 101.414C624.968 101.165 624.645 100.973 624.294 100.852C623.943 100.731 623.571 100.683 623.2 100.71H602.91C602.545 100.687 602.179 100.739 601.835 100.862C601.49 100.986 601.175 101.179 600.908 101.429C600.641 101.679 600.428 101.981 600.282 102.317C600.137 102.652 600.061 103.014 600.06 103.38C600.055 103.754 600.125 104.125 600.267 104.471C600.409 104.817 600.619 105.131 600.885 105.394C601.152 105.656 601.468 105.862 601.816 105.999C602.164 106.136 602.537 106.201 602.91 106.19H623.2Z" fill="white"/>
<path d="M641.61 90.73C640.922 90.8758 640.204 90.7424 639.614 90.3589C639.024 89.9754 638.611 89.3733 638.465 88.6851C638.319 87.9968 638.453 87.2788 638.836 86.689C639.22 86.0992 639.822 85.6859 640.51 85.54C645.24 84.48 649.16 81.5402 649.16 76.6602V76.4299H641.43C640.765 76.4326 640.126 76.1725 639.652 75.7061C639.178 75.2396 638.908 74.6048 638.9 73.9399C638.905 73.2706 639.173 72.6301 639.647 72.1567C640.12 71.6834 640.76 71.4154 641.43 71.4102H649.16V69.54C649.16 67.98 650.54 66.97 652.33 66.97C654.12 66.97 655.5 67.97 655.5 69.54V71.3801H663.19C663.859 71.3854 664.5 71.6536 664.973 72.127C665.446 72.6003 665.715 73.2408 665.72 73.9102C665.712 74.575 665.442 75.2096 664.968 75.676C664.494 76.1424 663.855 76.4028 663.19 76.4001H655.46V76.6301C655.46 81.5501 659.32 84.45 664.06 85.51C664.654 85.6312 665.188 85.9525 665.574 86.4202C665.96 86.8879 666.174 87.4738 666.18 88.0801C666.18 88.4758 666.094 88.8668 665.926 89.2256C665.759 89.5843 665.516 89.902 665.212 90.1565C664.909 90.411 664.554 90.596 664.172 90.6985C663.79 90.801 663.39 90.8186 663 90.75C658.08 89.69 653.94 87.4401 652.28 83.5701C650.63 87.4701 646.49 89.72 641.61 90.73ZM674.5 93.9102C674.882 93.8699 675.269 93.9161 675.631 94.0457C675.993 94.1752 676.321 94.3849 676.591 94.6587C676.861 94.9325 677.066 95.2634 677.19 95.6272C677.315 95.991 677.356 96.3782 677.31 96.76V108.54C677.31 110.29 675.93 111.16 674.09 111.16C673.481 111.224 672.868 111.1 672.331 110.805C671.795 110.51 671.362 110.058 671.09 109.51L644.32 110.7C643.928 110.771 643.524 110.749 643.142 110.637C642.76 110.525 642.409 110.324 642.118 110.052C641.826 109.781 641.603 109.444 641.464 109.071C641.326 108.697 641.276 108.296 641.32 107.9V96.8101C641.277 96.4211 641.324 96.0275 641.455 95.6589C641.587 95.2904 641.8 94.9566 642.079 94.6824C642.358 94.4081 642.696 94.2005 643.067 94.0754C643.437 93.9503 643.832 93.9108 644.22 93.96L674.5 93.9102ZM647.82 98.79V105.64L670.87 104.64V98.8L647.82 98.79ZM680.58 76.9299C680.913 76.9324 681.243 77.0017 681.549 77.1335C681.856 77.2653 682.132 77.4571 682.364 77.6975C682.595 77.9379 682.775 78.2222 682.895 78.5334C683.015 78.8447 683.071 79.1767 683.06 79.51C683.076 79.849 683.024 80.1878 682.908 80.5066C682.791 80.8253 682.612 81.1178 682.381 81.3665C682.15 81.6151 681.872 81.8151 681.563 81.9548C681.253 82.0946 680.919 82.171 680.58 82.1799H677.31V89.54C677.31 91.34 675.93 92.3501 674.09 92.3501C672.25 92.3501 670.87 91.35 670.87 89.54V71C670.87 69.25 672.3 68.24 674.09 68.24C675.88 68.24 677.31 69.24 677.31 71V77L680.58 76.9299Z" fill="white"/>
<path d="M686.99 79.3301C686.345 79.2896 685.74 79.0049 685.298 78.5339C684.856 78.063 684.609 77.441 684.609 76.7949C684.609 76.1488 684.856 75.5271 685.298 75.0562C685.74 74.5852 686.345 74.3005 686.99 74.26H692.28V70.1699C692.28 68.5099 693.61 67.6401 695.28 67.6401C696.95 67.6401 698.28 68.5099 698.28 70.1699V74.26H703.57C704.215 74.3005 704.82 74.5852 705.262 75.0562C705.705 75.5271 705.951 76.1488 705.951 76.7949C705.951 77.441 705.705 78.063 705.262 78.5339C704.82 79.0049 704.215 79.2896 703.57 79.3301H686.99ZM685.42 90.73C685.42 85.31 689.84 81.73 695.27 81.73C700.7 81.73 705.11 85.28 705.11 90.73V100.73C705.11 106.2 700.7 109.73 695.27 109.73C689.84 109.73 685.42 106.19 685.42 100.73V90.73ZM699.42 100.4V91.0601C699.448 90.4933 699.36 89.9267 699.162 89.3948C698.965 88.8629 698.661 88.3768 698.269 87.9658C697.878 87.5549 697.407 87.2277 696.886 87.0042C696.364 86.7806 695.803 86.6653 695.235 86.6653C694.668 86.6653 694.106 86.7806 693.584 87.0042C693.063 87.2277 692.592 87.5549 692.201 87.9658C691.809 88.3768 691.506 88.8629 691.308 89.3948C691.11 89.9267 691.022 90.4933 691.05 91.0601V100.4C691.022 100.967 691.11 101.533 691.308 102.065C691.506 102.597 691.809 103.083 692.201 103.494C692.592 103.905 693.063 104.232 693.584 104.456C694.106 104.679 694.668 104.795 695.235 104.795C695.803 104.795 696.364 104.679 696.886 104.456C697.407 104.232 697.878 103.905 698.269 103.494C698.661 103.083 698.965 102.597 699.162 102.065C699.36 101.533 699.448 100.967 699.42 100.4ZM709.13 108.54V70.77C709.14 70.4063 709.224 70.0485 709.377 69.7185C709.53 69.3886 709.749 69.0936 710.021 68.8518C710.293 68.61 710.611 68.4266 710.957 68.3127C711.303 68.1989 711.668 68.157 712.03 68.1899C712.39 68.1567 712.753 68.1987 713.096 68.313C713.439 68.4273 713.754 68.6115 714.022 68.854C714.29 69.0965 714.504 69.3921 714.652 69.7219C714.8 70.0517 714.878 70.4086 714.88 70.77V85.4399H719.53V70.8101C719.603 70.0931 719.94 69.4286 720.474 68.9456C721.009 68.4625 721.704 68.1951 722.425 68.1951C723.146 68.1951 723.841 68.4625 724.376 68.9456C724.911 69.4286 725.247 70.0931 725.32 70.8101V108.54C725.247 109.257 724.911 109.921 724.376 110.405C723.841 110.888 723.146 111.155 722.425 111.155C721.704 111.155 721.009 110.888 720.474 110.405C719.94 109.921 719.603 109.257 719.53 108.54V90.8801H714.88V108.54C714.876 108.901 714.797 109.256 714.649 109.585C714.501 109.914 714.286 110.208 714.018 110.449C713.75 110.691 713.435 110.874 713.093 110.988C712.751 111.102 712.389 111.143 712.03 111.11C711.669 111.142 711.306 111.099 710.962 110.985C710.619 110.871 710.302 110.688 710.031 110.448C709.761 110.207 709.542 109.914 709.389 109.586C709.236 109.258 709.151 108.902 709.14 108.54H709.13Z" fill="white"/>
<path d="M747.83 108.54V98.3302H732.37C732.018 98.3521 731.665 98.3017 731.334 98.1822C731.003 98.0628 730.699 97.8766 730.442 97.6354C730.185 97.3941 729.981 97.1028 729.841 96.7794C729.701 96.456 729.629 96.1076 729.629 95.7552C729.629 95.4029 729.701 95.0542 729.841 94.7308C729.981 94.4075 730.185 94.1161 730.442 93.8749C730.699 93.6336 731.003 93.4475 731.334 93.328C731.665 93.2085 732.018 93.1581 732.37 93.18H769.82C770.475 93.2209 771.09 93.51 771.539 93.9884C771.989 94.4668 772.239 95.0988 772.239 95.7552C772.239 96.4117 771.989 97.0434 771.539 97.5218C771.09 98.0003 770.475 98.2893 769.82 98.3302H754.36V108.54C754.282 109.352 753.904 110.106 753.3 110.654C752.697 111.203 751.91 111.507 751.094 111.507C750.279 111.507 749.492 111.203 748.889 110.654C748.285 110.106 747.908 109.352 747.83 108.54ZM731.359 87.1503C731.352 86.516 731.585 85.9023 732.012 85.433C732.439 84.9636 733.027 84.6733 733.659 84.6202C742.029 83.7502 747.27 78.6202 747.6 74.8202H734.389C733.734 74.7793 733.119 74.4902 732.67 74.0118C732.22 73.5334 731.97 72.9017 731.97 72.2452C731.97 71.5888 732.22 70.9568 732.67 70.4784C733.119 70 733.734 69.7109 734.389 69.67H767.79C768.141 69.6481 768.493 69.6985 768.825 69.818C769.156 69.9375 769.46 70.1236 769.717 70.3649C769.974 70.6061 770.178 70.8974 770.318 71.2208C770.458 71.5442 770.53 71.8929 770.53 72.2452C770.53 72.5976 770.458 72.946 770.318 73.2694C770.178 73.5928 769.974 73.8841 769.717 74.1254C769.46 74.3666 769.156 74.5527 768.825 74.6722C768.493 74.7917 768.141 74.8421 767.79 74.8202H754.54C754.96 78.5902 760.16 83.7502 768.54 84.6202C768.872 84.6537 769.194 84.7522 769.488 84.9103C769.782 85.0684 770.043 85.2828 770.254 85.5414C770.465 85.8 770.623 86.0978 770.719 86.4176C770.816 86.7374 770.848 87.0729 770.814 87.4051C770.781 87.7374 770.682 88.0597 770.524 88.3539C770.366 88.648 770.152 88.9082 769.893 89.1195C769.634 89.3308 769.337 89.4889 769.017 89.5851C768.697 89.6813 768.362 89.7135 768.03 89.68C759.71 88.85 753.4 84.8501 751.1 79.9801C748.8 84.8501 742.499 88.85 734.169 89.68C733.818 89.7192 733.462 89.6842 733.125 89.5773C732.787 89.4703 732.476 89.2939 732.211 89.0592C731.947 88.8245 731.734 88.5369 731.587 88.215C731.441 87.893 731.363 87.5439 731.359 87.1901V87.1503Z" fill="white"/>
<path d="M775.61 105.41C775.616 105.006 775.708 104.607 775.88 104.242C776.053 103.876 776.302 103.551 776.61 103.29C781.16 99.2901 784.2 93.04 784.2 82.22V71.96C784.333 71.2763 784.7 70.6603 785.237 70.2173C785.774 69.7743 786.449 69.5318 787.145 69.5318C787.842 69.5318 788.516 69.7743 789.054 70.2173C789.591 70.6603 789.958 71.2763 790.09 71.96V82.22C790.09 93.04 793.09 99.2901 797.68 103.29C797.989 103.551 798.238 103.876 798.41 104.242C798.583 104.607 798.675 105.006 798.68 105.41C798.686 106.172 798.389 106.905 797.855 107.449C797.32 107.993 796.592 108.302 795.83 108.31C795.468 108.315 795.109 108.243 794.777 108.1C794.444 107.957 794.146 107.746 793.9 107.48C790.628 104.51 788.281 100.659 787.14 96.3902C785.984 100.655 783.635 104.502 780.37 107.48C780.117 107.733 779.816 107.932 779.484 108.066C779.153 108.2 778.798 108.266 778.44 108.26C778.067 108.259 777.698 108.184 777.354 108.04C777.01 107.896 776.698 107.686 776.435 107.421C776.172 107.157 775.964 106.843 775.823 106.498C775.681 106.153 775.609 105.783 775.61 105.41ZM801.99 108.54V89.22H796.8C796.095 89.2122 795.42 88.9285 794.921 88.4295C794.422 87.9304 794.138 87.2558 794.13 86.5501C794.13 85.8419 794.412 85.1629 794.912 84.6621C795.413 84.1614 796.092 83.8801 796.8 83.8801H801.99V70.77C802 70.4064 802.084 70.0485 802.237 69.7185C802.39 69.3886 802.61 69.0936 802.881 68.8518C803.153 68.61 803.472 68.4266 803.817 68.3128C804.163 68.1989 804.528 68.157 804.89 68.19C805.251 68.1568 805.614 68.1988 805.957 68.313C806.301 68.4272 806.617 68.6111 806.885 68.8535C807.154 69.0959 807.37 69.3914 807.519 69.7212C807.667 70.051 807.746 70.4082 807.75 70.77V108.54C807.745 108.901 807.665 109.257 807.515 109.586C807.366 109.914 807.15 110.209 806.882 110.45C806.613 110.691 806.298 110.874 805.955 110.988C805.612 111.102 805.25 111.143 804.89 111.11C804.529 111.143 804.164 111.102 803.819 110.988C803.474 110.875 803.156 110.692 802.885 110.452C802.613 110.211 802.394 109.917 802.24 109.588C802.086 109.26 802.001 108.903 801.99 108.54ZM811.52 108.49V70.8101C811.593 70.0931 811.93 69.4287 812.465 68.9456C812.999 68.4625 813.695 68.1951 814.415 68.1951C815.136 68.1951 815.831 68.4625 816.366 68.9456C816.901 69.4287 817.237 70.0931 817.31 70.8101V108.54C817.237 109.257 816.901 109.921 816.366 110.405C815.831 110.888 815.136 111.155 814.415 111.155C813.695 111.155 812.999 110.888 812.465 110.405C811.93 109.921 811.593 109.257 811.52 108.54V108.49Z" fill="white"/>
<path d="M824.46 109.69C823.752 109.69 823.073 109.409 822.572 108.908C822.071 108.407 821.79 107.728 821.79 107.02C821.798 106.314 822.082 105.64 822.581 105.141C823.08 104.642 823.754 104.358 824.46 104.35H831.64V97.4102C831.64 95.7502 832.97 94.78 834.72 94.78C836.47 94.78 837.8 95.7802 837.8 97.4102V104.35H848.52V97.4102C848.52 95.7502 849.86 94.78 851.6 94.78C853.34 94.78 854.69 95.7802 854.69 97.4102V104.35H861.69C862.396 104.353 863.073 104.635 863.572 105.135C864.07 105.636 864.35 106.314 864.35 107.02C864.354 107.371 864.288 107.719 864.156 108.044C864.024 108.369 863.828 108.665 863.58 108.913C863.333 109.162 863.038 109.359 862.713 109.492C862.389 109.625 862.041 109.693 861.69 109.69H824.46ZM835.36 93.0801C828.6 93.0801 823.82 87.84 823.82 81.21C823.82 74.58 828.6 69.3 835.36 69.3H850.82C857.58 69.3 862.37 74.49 862.37 81.21C862.37 87.93 857.58 93.0801 850.82 93.0801H835.36ZM849.49 87.8801C853.21 87.8801 855.88 85.12 855.88 81.21C855.88 77.3 853.21 74.49 849.49 74.49H836.7C833.02 74.49 830.35 77.25 830.35 81.21C830.35 85.17 833.02 87.8801 836.7 87.8801H849.49Z" fill="white"/>
<path d="M869.77 86.1799V71.1799C869.815 70.3635 870.172 69.5955 870.766 69.0337C871.36 68.4719 872.147 68.1589 872.965 68.1589C873.782 68.1589 874.569 68.4719 875.163 69.0337C875.757 69.5955 876.114 70.3635 876.159 71.1799V86.1799L875.84 96.1799C875.863 96.5673 875.806 96.9555 875.673 97.3201C875.54 97.6846 875.334 98.018 875.066 98.2993C874.799 98.5807 874.477 98.8041 874.119 98.9556C873.762 99.1071 873.378 99.1834 872.99 99.1799C872.6 99.1816 872.214 99.1043 871.854 98.9529C871.495 98.8014 871.17 98.5788 870.899 98.2986C870.628 98.0183 870.417 97.6864 870.278 97.3223C870.139 96.9582 870.075 96.5695 870.09 96.1799L869.77 86.1799ZM872.209 110.18C871.897 110.194 871.585 110.143 871.294 110.03C871.002 109.917 870.737 109.745 870.516 109.523C870.295 109.302 870.122 109.037 870.009 108.746C869.896 108.454 869.845 108.142 869.86 107.83V106.36C869.844 106.046 869.894 105.731 870.006 105.437C870.118 105.143 870.29 104.875 870.511 104.65C870.732 104.426 870.997 104.249 871.289 104.132C871.581 104.015 871.895 103.96 872.209 103.97H873.679C873.996 103.96 874.311 104.015 874.605 104.132C874.9 104.249 875.167 104.425 875.391 104.648C875.615 104.872 875.791 105.14 875.907 105.434C876.024 105.728 876.079 106.044 876.07 106.36V107.83C876.08 108.145 876.024 108.458 875.907 108.75C875.79 109.043 875.614 109.308 875.389 109.529C875.165 109.749 874.897 109.921 874.603 110.033C874.308 110.145 873.994 110.195 873.679 110.18H872.209Z" fill="white"/>
</g>
<defs>
<clipPath id="clip0_191_3435">
<rect width="876.16" height="111.58" fill="white"/>
</clipPath>
</defs>
</svg>
