<svg width="454" height="134" viewBox="0 0 454 134" fill="none" xmlns="http://www.w3.org/2000/svg">
<g clip-path="url(#clip0_107_3435)">
<path d="M453.56 134H0V0H453.56V134ZM4 130H449.56V4H4V130Z" fill="white"/>
<path d="M78.1309 64.87C78.1309 78.08 74.5809 87.87 62.8809 87.87C51.1809 87.87 47.6309 78.07 47.6309 64.87C47.6309 51.67 51.1809 41.87 62.8809 41.87C74.5809 41.87 78.1309 51.67 78.1309 64.87ZM67.6309 64.87C67.6309 58.37 66.9309 51.62 62.8809 51.62C58.8309 51.62 58.1309 58.37 58.1309 64.87C58.1309 71.37 58.8309 78.12 62.8809 78.12C66.9309 78.12 67.6309 71.38 67.6309 64.87ZM92.7809 44.67V85.67L94.1809 88.42H80.3809L81.7809 85.67V44.67L80.3809 41.92H94.1809L92.7809 44.67Z" fill="white"/>
<path d="M127.481 83.8299L118.231 88.4799L116.481 86.8799H108.131L106.381 88.4799L97.1309 83.8299L98.2809 81.9299V47.6199L97.1309 45.7199L106.131 41.0699L107.881 42.6699H126.331V81.9299L127.481 83.8299ZM109.001 77.6199H115.551V51.9199H109.001V77.6199ZM142.751 44.6699V85.6699L144.151 88.4199H130.351L131.751 85.6699V44.6699L130.351 41.9199H144.151L142.751 44.6699Z" fill="white"/>
<path d="M181.08 80.5799L171.08 87.7799L170.58 84.6799C167.58 80.1699 164.73 75.1699 163.38 71.2699C162.03 75.1699 159.13 80.1699 156.18 84.6799L155.68 87.7799L145.68 80.5799L147.78 79.8299C151.814 73.5538 155.198 66.8826 157.88 59.9199V51.9199H151.63L148.88 53.3199V41.3199L151.63 42.7199H175.13L177.88 41.3199V53.3199L175.13 51.9199H168.88V59.9199C171.588 66.8743 174.978 73.5435 179 79.8299L181.08 80.5799ZM192.78 44.6699V85.6699L194.18 88.4199H180.38L181.78 85.6699V44.6699L180.38 41.9199H194.18L192.78 44.6699Z" fill="white"/>
<path d="M230.379 59.9199C232.937 66.8508 236.159 73.5184 239.999 79.8299L242.099 80.5799L232.099 87.7799L231.599 84.6799C228.849 80.1699 226.149 75.1699 224.899 71.2699C223.649 75.1699 220.949 80.1699 218.199 84.6799L217.699 87.7799L207.699 80.5799L209.799 79.8299C213.632 73.5177 216.847 66.8501 219.399 59.9199V51.9199H213.649L210.899 53.3199V41.3199L213.649 42.7199H236.149L238.899 41.3199V53.3199L236.149 51.9199H230.399L230.379 59.9199ZM255.279 44.6699V85.6699L256.679 88.4199H242.879L244.279 85.6699V67.6699H238.829L236.079 69.0699V56.9999L238.829 58.3999H244.279V44.6699L242.879 41.9199H256.679L255.279 44.6699Z" fill="white"/>
<path d="M261.331 59.87C264.851 57.7477 267.762 54.7505 269.781 51.17H263.531L260.781 52.57V41.27L263.531 42.67H287.001L289.751 41.27V52.57L287.001 51.17H280.751C282.906 54.2529 285.815 56.7318 289.201 58.37L291.951 58.62L284.201 67.77L282.901 65.27C279.351 63.02 276.501 60.27 275.251 58.02C273.378 61.4655 270.765 64.4537 267.601 66.77L266.301 69.27L258.551 60.12L261.331 59.87ZM305.001 78.67C305.001 87.67 294.501 89.53 283.551 89.53C272.601 89.53 262.101 87.63 262.101 78.67C262.101 69.71 272.601 67.82 283.551 67.82C294.501 67.82 305.001 69.72 305.001 78.67ZM294.001 78.67C294.001 76.12 289.451 75.83 283.551 75.83C277.651 75.83 273.101 76.12 273.101 78.67C273.101 81.22 277.651 81.53 283.551 81.53C289.451 81.53 294.001 81.23 294.001 78.67ZM305.781 50L308.531 48.6V60.17L305.781 58.77H303.331V64.42L304.731 67.17H290.931L292.331 64.42V44.67L290.931 41.92H304.731L303.331 44.67V50H305.781Z" fill="white"/>
<path d="M329.68 46.42H336.58L339.33 45.02V56.57L336.58 55.17H311.78L309 56.57V45L311.75 46.4H318.65V44.17L317.25 41.42H331.05L329.65 44.17L329.68 46.42ZM338.48 72.27C338.48 81.78 333.48 88.13 324.18 88.13C314.88 88.13 309.88 81.78 309.88 72.27C309.88 62.76 314.83 56.42 324.18 56.42C333.53 56.42 338.48 62.77 338.48 72.27ZM328.23 72.27C328.23 68.52 326.98 65.67 324.18 65.67C321.38 65.67 320.13 68.52 320.13 72.27C320.13 76.02 321.38 78.88 324.18 78.88C326.98 78.88 328.23 76 328.23 72.27ZM355.78 60.42L358.53 59.02V71.02L355.78 69.62H352.33V85.62L353.73 88.37H339.93L341.33 85.62V44.62L339.93 41.87H353.73L352.33 44.62V60.42H355.78Z" fill="white"/>
<path d="M389.23 86.88H375.43L376.83 84.12V51.92H363L360.25 53.32V41.32L363 42.72H378L379.75 41.12L389 45.72L387.85 47.62V84.12L389.23 86.88ZM405.23 44.67V85.67L406.63 88.42H392.83L394.23 85.67V44.67L392.83 41.92H406.63L405.23 44.67Z" fill="white"/>
</g>
<defs>
<clipPath id="clip0_107_3435">
<rect width="453.56" height="134" fill="white"/>
</clipPath>
</defs>
</svg>
