<svg viewBox="0 0 1128 175" fill="none" xmlns="http://www.w3.org/2000/svg">
<g clip-path="url(#clip0_252_3504)">
<path d="M1126.1 1.1001H1.09961V173.83H1126.1V1.1001Z" fill="#183372"/>
<path d="M1127.21 174.93H0V0H1127.21V174.93ZM2.20996 172.72H1125V2.19995H2.20996V172.72Z" fill="#0B3260"/>
<path d="M76.8601 80.76V72.25C76.8153 71.8649 76.8581 71.4746 76.9855 71.1084C77.1128 70.7422 77.3214 70.4096 77.5956 70.1355C77.8697 69.8613 78.2024 69.6528 78.5685 69.5254C78.9347 69.398 79.325 69.3551 79.7101 69.3999H94.7101V65.3H78.9201C78.3003 65.2974 77.7066 65.0498 77.2684 64.6116C76.8301 64.1733 76.5827 63.5798 76.5801 62.96C76.5931 62.3471 76.8451 61.7637 77.2823 61.334C77.7194 60.9043 78.3071 60.6624 78.9201 60.6599H98.2001C98.5852 60.6151 98.9755 60.658 99.3417 60.7854C99.7079 60.9128 100.04 61.1214 100.315 61.3955C100.589 61.6697 100.797 62.0022 100.925 62.3684C101.052 62.7346 101.095 63.1249 101.05 63.51V71.05C101.095 71.4355 101.052 71.8261 100.924 72.1926C100.797 72.5592 100.589 72.8921 100.315 73.167C100.041 73.4419 99.7084 73.6514 99.3423 73.78C98.9762 73.9086 98.5858 73.9531 98.2001 73.9099H83.2001V78.6499C89.5907 78.5397 95.9674 78.0152 102.29 77.0798C102.612 77.0329 102.94 77.0586 103.25 77.1548C103.56 77.2509 103.845 77.4153 104.084 77.6357C104.323 77.8562 104.509 78.1272 104.63 78.429C104.75 78.7307 104.801 79.0556 104.78 79.3799C104.789 79.9858 104.564 80.5719 104.153 81.0168C103.742 81.4618 103.175 81.7316 102.57 81.77C95.0174 82.7655 87.4162 83.3497 79.8001 83.52C77.9201 83.52 76.8601 82.65 76.8601 80.76ZM86.7101 102.2C81.8301 102.2 78.0101 98.8398 78.0101 94.0598C78.0101 89.2798 81.8301 85.96 86.7101 85.96H108.05C112.97 85.96 116.84 89.2698 116.84 94.0598C116.84 98.8498 112.97 102.2 108.05 102.2H86.7101ZM106.76 97.3198C108.88 97.3198 110.4 96.0798 110.4 94.0598C110.4 92.0398 108.88 90.8398 106.76 90.8398H87.9901C87.5424 90.8012 87.0915 90.8556 86.6658 90.9995C86.2401 91.1434 85.8488 91.3739 85.5164 91.6763C85.184 91.9786 84.9176 92.3464 84.7341 92.7566C84.5506 93.1668 84.454 93.6105 84.4501 94.0598C84.4454 94.5134 84.5359 94.9632 84.7159 95.3796C84.896 95.796 85.1614 96.17 85.4951 96.4773C85.8288 96.7846 86.2233 97.0184 86.6531 97.1636C87.0829 97.3087 87.5384 97.3619 87.9901 97.3198H106.76ZM109.62 82.05V62.22C109.62 60.47 111.04 59.4199 112.88 59.4199C114.72 59.4199 116.15 60.47 116.15 62.22V82.05C116.15 83.85 114.68 84.8599 112.88 84.8599C111.08 84.8599 109.62 83.85 109.62 82.05Z" fill="white"/>
<path d="M161 95.48C161.719 95.4957 162.403 95.7943 162.903 96.311C163.402 96.8278 163.678 97.521 163.67 98.24C163.67 98.9481 163.389 99.6272 162.888 100.128C162.388 100.629 161.708 100.91 161 100.91H123.78C123.068 100.913 122.383 100.633 121.875 100.133C121.368 99.6331 121.078 98.9526 121.07 98.24C121.07 97.5166 121.354 96.8218 121.861 96.3057C122.368 95.7895 123.057 95.4931 123.78 95.48H161ZM125.92 66.0898C125.213 66.0872 124.535 65.8051 124.035 65.3049C123.535 64.8048 123.253 64.1272 123.25 63.4199C123.253 62.7126 123.535 62.0351 124.035 61.5349C124.535 61.0348 125.213 60.7526 125.92 60.75H158.17C160.06 60.75 160.93 61.7499 160.89 63.6499C160.926 72.0104 160.186 80.356 158.68 88.5798C158.566 89.3845 158.161 90.1194 157.542 90.6462C156.923 91.173 156.133 91.4554 155.32 91.4399C153.48 91.4399 151.78 90.19 152.19 88.26C152.7 85.73 153.11 83.26 153.43 80.72H126.29C125.951 80.7213 125.615 80.6553 125.301 80.5261C124.988 80.3969 124.703 80.2071 124.463 79.9673C124.223 79.7274 124.033 79.4425 123.904 79.1289C123.775 78.8153 123.709 78.4791 123.71 78.1399C123.709 77.8007 123.775 77.4647 123.904 77.1511C124.033 76.8375 124.223 76.5526 124.463 76.3127C124.703 76.0729 124.988 75.8829 125.301 75.7537C125.615 75.6245 125.951 75.5585 126.29 75.5598H153.92C154.2 72.3898 154.33 69.2598 154.38 66.0898H125.92Z" fill="white"/>
<path d="M168.12 97.1901C168.132 96.5858 168.331 96.0001 168.689 95.5131C169.047 95.0262 169.547 94.6619 170.12 94.4701C180.93 91.0701 186.45 82.33 186.41 66.82H171.02C170.313 66.8174 169.635 66.5352 169.135 66.0351C168.635 65.5349 168.353 64.8574 168.35 64.1501C168.368 63.4485 168.655 62.7806 169.152 62.2853C169.65 61.79 170.318 61.5054 171.02 61.4902H189.61C190.021 61.4494 190.436 61.5017 190.824 61.6432C191.212 61.7848 191.563 62.0119 191.852 62.3078C192.14 62.6037 192.358 62.9608 192.489 63.3525C192.62 63.7441 192.662 64.1602 192.61 64.57V66.0402C192.61 85.1302 185.06 96.04 171.72 99.85C171.304 99.9741 170.865 99.9998 170.437 99.925C170.01 99.8501 169.605 99.6769 169.256 99.4189C168.907 99.1609 168.623 98.8252 168.425 98.4384C168.228 98.0516 168.124 97.6242 168.12 97.1901ZM199.22 99.3901V62.31C199.234 61.9061 199.329 61.5094 199.5 61.1432C199.671 60.7771 199.914 60.4493 200.215 60.1794C200.515 59.9095 200.867 59.7029 201.25 59.5724C201.632 59.442 202.037 59.3902 202.44 59.4201C202.844 59.3888 203.25 59.4397 203.633 59.5695C204.017 59.6993 204.37 59.9054 204.672 60.1755C204.974 60.4455 205.218 60.7739 205.39 61.1408C205.561 61.5077 205.656 61.9052 205.67 62.31V76.3901H209.85C210.198 76.3971 210.541 76.4753 210.858 76.62C211.175 76.7647 211.459 76.9728 211.692 77.2314C211.925 77.49 212.103 77.7937 212.215 78.1237C212.326 78.4537 212.369 78.803 212.34 79.1501C212.369 79.4972 212.326 79.8464 212.215 80.1764C212.103 80.5064 211.925 80.8102 211.692 81.0688C211.459 81.3274 211.175 81.5354 210.858 81.6801C210.541 81.8248 210.198 81.9031 209.85 81.9101H205.67V99.3901C205.664 99.7999 205.575 100.204 205.407 100.578C205.239 100.952 204.996 101.288 204.694 101.564C204.391 101.841 204.035 102.052 203.647 102.185C203.26 102.319 202.849 102.371 202.44 102.34C202.032 102.37 201.622 102.316 201.236 102.182C200.85 102.048 200.495 101.837 200.193 101.56C199.892 101.284 199.65 100.949 199.482 100.576C199.315 100.202 199.226 99.799 199.22 99.3901Z" fill="white"/>
<path d="M266.98 81.3601C267.639 81.3653 268.269 81.6294 268.735 82.0952C269.201 82.5611 269.465 83.1913 269.47 83.8501C269.47 84.1766 269.406 84.5 269.28 84.8015C269.155 85.1031 268.972 85.377 268.74 85.6074C268.509 85.8378 268.234 86.0202 267.932 86.1443C267.63 86.2683 267.307 86.3314 266.98 86.3301H229.35C229.024 86.3314 228.701 86.2682 228.399 86.144C228.098 86.0199 227.824 85.8372 227.594 85.6067C227.363 85.3761 227.18 85.1023 227.056 84.8008C226.932 84.4993 226.869 84.1761 226.87 83.8501C226.873 83.1922 227.135 82.5621 227.599 82.0959C228.063 81.6298 228.692 81.3654 229.35 81.3601H244.99V76.8101H232.48C232.094 76.8532 231.704 76.809 231.338 76.6804C230.972 76.5518 230.639 76.3423 230.366 76.0674C230.092 75.7925 229.883 75.4593 229.756 75.0928C229.629 74.7262 229.586 74.3357 229.63 73.9502V62.1301C229.63 60.3801 231.05 59.3701 232.85 59.3701C234.65 59.3701 236.02 60.3701 236.02 62.1301V63.5601H260.31V62.1301C260.31 60.3801 261.74 59.3701 263.53 59.3701C265.32 59.3701 266.71 60.3701 266.71 62.1301V73.9302C266.755 74.3166 266.712 74.7081 266.584 75.0754C266.456 75.4428 266.247 75.7767 265.972 76.0518C265.697 76.3268 265.363 76.5362 264.995 76.6641C264.628 76.7919 264.237 76.8351 263.85 76.7903H251.29V81.3401L266.98 81.3601ZM263.72 89.5002C264.124 89.4578 264.533 89.5061 264.917 89.6418C265.3 89.7776 265.648 89.9974 265.935 90.2849C266.223 90.5724 266.443 90.9204 266.578 91.3037C266.714 91.687 266.763 92.0959 266.72 92.5002V99.8101C266.72 101.56 265.29 102.53 263.54 102.53C261.79 102.53 260.32 101.53 260.32 99.8101V94.1602H231.42C230.798 94.1575 230.201 93.9091 229.761 93.469C229.321 93.0289 229.073 92.4325 229.07 91.8101C229.073 91.1876 229.321 90.5915 229.761 90.1514C230.201 89.7112 230.798 89.4628 231.42 89.4602L263.72 89.5002ZM236.02 68.2002V72.2002H260.31V68.2002H236.02Z" fill="white"/>
<path d="M273.28 96.2199C273.284 95.7396 273.403 95.2673 273.627 94.8427C273.852 94.4181 274.175 94.0537 274.57 93.7799C279.4 90.4199 284.46 84.31 284.46 73.54V63.4198C284.472 63.0151 284.566 62.6172 284.736 62.2499C284.907 61.8826 285.15 61.5533 285.451 61.2824C285.751 61.0114 286.104 60.8043 286.487 60.6733C286.87 60.5422 287.276 60.4901 287.68 60.5199C288.079 60.497 288.48 60.5544 288.857 60.6886C289.234 60.8229 289.581 61.0312 289.876 61.3014C290.172 61.5717 290.41 61.8983 290.577 62.2621C290.744 62.6259 290.837 63.0196 290.85 63.4198V73.54C290.85 84.31 295.85 90.4199 300.75 93.7799C301.142 94.0548 301.464 94.4196 301.686 94.8442C301.909 95.2687 302.027 95.7405 302.03 96.2199C302.032 97.0238 301.72 97.7968 301.159 98.3727C300.598 98.9486 299.833 99.2816 299.03 99.3C298.358 99.3211 297.703 99.093 297.19 98.6598C292.812 95.588 289.499 91.2298 287.71 86.1899C286.1 91.1899 282.28 95.6198 278.19 98.6598C277.655 99.0486 277.011 99.2586 276.35 99.2599C275.946 99.2694 275.545 99.1973 275.171 99.0483C274.796 98.8992 274.455 98.6763 274.168 98.3925C273.882 98.1087 273.655 97.7699 273.503 97.3966C273.35 97.0234 273.274 96.6232 273.28 96.2199ZM305.76 99.3898V62.3097C305.773 61.9059 305.868 61.5091 306.039 61.143C306.21 60.7768 306.453 60.449 306.754 60.1791C307.055 59.9092 307.407 59.7026 307.789 59.5722C308.172 59.4417 308.577 59.39 308.98 59.4198C309.383 59.39 309.787 59.4417 310.17 59.5722C310.552 59.7026 310.904 59.9092 311.205 60.1791C311.506 60.449 311.749 60.7768 311.92 61.143C312.091 61.5091 312.186 61.9059 312.2 62.3097V76.3898H315.65C315.997 76.3967 316.34 76.475 316.656 76.6198C316.973 76.7646 317.256 76.9728 317.488 77.2316C317.721 77.4904 317.898 77.7942 318.008 78.1242C318.118 78.4541 318.16 78.8032 318.13 79.1498C318.16 79.4964 318.118 79.8455 318.008 80.1754C317.898 80.5054 317.721 80.8092 317.488 81.068C317.256 81.3268 316.973 81.535 316.656 81.6798C316.34 81.8247 315.997 81.9029 315.65 81.9098H312.2V99.3898C312.194 99.7988 312.105 100.202 311.937 100.575C311.77 100.949 311.528 101.284 311.226 101.56C310.925 101.836 310.57 102.048 310.184 102.182C309.797 102.316 309.387 102.37 308.98 102.34C308.572 102.37 308.162 102.316 307.776 102.182C307.389 102.048 307.034 101.836 306.733 101.56C306.431 101.284 306.189 100.949 306.022 100.575C305.855 100.202 305.765 99.7988 305.76 99.3898Z" fill="white"/>
<path d="M351.48 96.0798C351.487 96.7628 351.235 97.4232 350.775 97.9279C350.315 98.4327 349.68 98.7444 349 98.8C340.087 100.132 331.099 100.9 322.09 101.1C321.728 101.119 321.367 101.065 321.026 100.943C320.686 100.82 320.374 100.631 320.107 100.386C319.841 100.141 319.626 99.8453 319.475 99.5163C319.325 99.1874 319.241 98.8316 319.23 98.4699C319.221 97.7908 319.475 97.1347 319.939 96.6389C320.404 96.1431 321.042 95.8459 321.72 95.8098C325.17 95.7098 328.62 95.53 332.07 95.3V87.4799C332.07 85.7299 333.5 84.7199 335.24 84.7199C336.98 84.7199 338.46 85.7199 338.46 87.4799V94.79C341.87 94.47 345.23 94.06 348.63 93.51C348.993 93.4529 349.364 93.4774 349.717 93.5822C350.069 93.687 350.394 93.8694 350.667 94.1157C350.94 94.362 351.155 94.666 351.296 95.0058C351.436 95.3457 351.499 95.7126 351.48 96.0798ZM324.66 82.9299C324.275 82.9747 323.884 82.9318 323.518 82.8044C323.152 82.677 322.819 82.4684 322.545 82.1943C322.271 81.9202 322.062 81.5876 321.935 81.2214C321.808 80.8552 321.765 80.4649 321.81 80.0798V63.6098C321.761 63.2239 321.801 62.8321 321.927 62.4641C322.053 62.096 322.261 61.7616 322.536 61.4865C322.811 61.2115 323.146 61.0031 323.514 60.8772C323.882 60.7512 324.274 60.7111 324.66 60.76H345.27C345.609 60.7587 345.945 60.8244 346.259 60.9536C346.572 61.0828 346.857 61.2728 347.097 61.5127C347.337 61.7525 347.527 62.0374 347.656 62.351C347.785 62.6647 347.851 63.0006 347.85 63.3398C347.852 64.0286 347.583 64.6906 347.099 65.1814C346.616 65.6721 345.958 65.952 345.27 65.9599H328.27V77.6899H345.66C346.355 77.6899 347.021 77.9659 347.512 78.4572C348.004 78.9486 348.28 79.6149 348.28 80.3098C348.28 81.0046 348.004 81.6712 347.512 82.1626C347.021 82.6539 346.355 82.9299 345.66 82.9299H324.66ZM359.76 62.4199V99.3598C359.754 99.7744 359.664 100.184 359.494 100.562C359.325 100.941 359.08 101.281 358.775 101.561C358.47 101.842 358.111 102.058 357.72 102.195C357.329 102.332 356.913 102.388 356.5 102.36C356.086 102.388 355.67 102.332 355.278 102.195C354.886 102.058 354.527 101.843 354.221 101.562C353.915 101.281 353.669 100.941 353.499 100.563C353.328 100.184 353.237 99.7749 353.23 99.3598V62.4199C353.228 62.0021 353.314 61.5885 353.481 61.2058C353.648 60.823 353.894 60.4794 354.202 60.197C354.509 59.9146 354.873 59.6997 355.269 59.5659C355.664 59.432 356.084 59.3823 356.5 59.4199C356.914 59.3838 357.332 59.4344 357.725 59.5683C358.119 59.7022 358.481 59.9165 358.788 60.1977C359.094 60.4789 359.339 60.8208 359.506 61.2016C359.674 61.5825 359.76 61.9939 359.76 62.4099V62.4199Z" fill="white"/>
<path d="M366.48 73.3999V69.6299C366.48 63.1399 371.86 59.74 378.39 59.74C384.69 59.74 389.94 62.9099 390.31 68.9399H399.51V62.22C399.51 60.43 400.93 59.4199 402.73 59.4199C404.53 59.4199 405.95 60.42 405.95 62.22V81.6399C405.95 83.3799 404.52 84.3999 402.73 84.3999C400.94 84.3999 399.51 83.3999 399.51 81.6399V74.1399H390.26C389.89 80.1399 384.69 83.25 378.39 83.25C371.86 83.25 366.48 79.9299 366.48 73.3999ZM408.43 99.49C408.427 99.8903 408.332 100.284 408.151 100.642C407.97 100.999 407.71 101.31 407.39 101.55C407.069 101.79 406.698 101.952 406.304 102.025C405.911 102.098 405.506 102.079 405.12 101.97C403.415 101.606 401.818 100.846 400.46 99.752C399.101 98.6576 398.019 97.2594 397.3 95.6699C396.1 98.3799 393.3 100.73 389.71 102.06C388.31 102.63 386.741 102.63 385.34 102.06C381.8 100.72 379.08 98.3801 377.93 95.8C376.74 98.7001 373.79 101.04 369.74 102.06C369.357 102.154 368.958 102.16 368.572 102.076C368.186 101.993 367.824 101.823 367.514 101.579C367.204 101.336 366.953 101.024 366.781 100.669C366.609 100.314 366.52 99.9246 366.52 99.53C366.508 98.9698 366.682 98.4214 367.015 97.9707C367.348 97.5201 367.821 97.1927 368.36 97.04C372.73 95.8 374.85 92.58 374.85 89.04V88.04C374.85 86.57 376.23 85.5999 377.85 85.5999C379.47 85.5999 380.85 86.6 380.85 88.04V89.04C380.85 92.95 383.98 96.1699 387.43 97.4199C390.93 96.1699 394.05 92.82 394.05 88.77V87.5698C394.05 86.0998 395.39 85.1299 397.05 85.1299C398.71 85.1299 400.05 86.1298 400.05 87.5698V88.77C400.035 90.668 400.663 92.5152 401.833 94.01C403.002 95.5048 404.644 96.5589 406.49 97C407.039 97.1507 407.524 97.4744 407.874 97.9231C408.223 98.3718 408.418 98.9213 408.43 99.49ZM372.64 73.49C372.64 76.76 375.12 78.49 378.44 78.49C381.76 78.49 384.23 76.79 384.23 73.49V69.54C384.23 66.27 381.7 64.54 378.44 64.54C375.18 64.54 372.64 66.29 372.64 69.54V73.49Z" fill="white"/>
<path d="M450.98 77.1299C451.637 77.1351 452.266 77.3976 452.732 77.8613C453.197 78.325 453.462 78.9528 453.47 79.6099C453.471 79.9372 453.408 80.2618 453.283 80.5645C453.159 80.8672 452.975 81.1421 452.744 81.3735C452.512 81.605 452.237 81.7884 451.935 81.9131C451.632 82.0378 451.307 82.1012 450.98 82.0999H413.35C413.024 82.0999 412.7 82.0354 412.399 81.9102C412.097 81.7849 411.823 81.6015 411.593 81.3701C411.363 81.1388 411.18 80.8641 411.056 80.562C410.932 80.26 410.869 79.9364 410.87 79.6099C410.875 78.9537 411.138 78.326 411.602 77.8621C412.066 77.3981 412.694 77.1351 413.35 77.1299H450.98ZM412.66 71.51C412.656 70.9055 412.882 70.3218 413.293 69.8779C413.703 69.434 414.267 69.163 414.87 69.1199C422.96 68.5699 428.95 65.9899 428.95 62.1799V61.8098C428.95 60.1998 430.37 59.1899 432.17 59.1899C433.97 59.1899 435.43 60.1898 435.43 61.8098V62.1799C435.43 65.9899 441.43 68.5699 449.43 69.1199C450.039 69.1602 450.61 69.4287 451.029 69.8718C451.448 70.315 451.684 70.9002 451.69 71.51C451.681 71.8415 451.606 72.1676 451.468 72.4692C451.331 72.7709 451.134 73.0419 450.889 73.2659C450.645 73.4898 450.358 73.6623 450.045 73.7729C449.733 73.8836 449.401 73.9302 449.07 73.9099C440.23 73.3999 434.3 70.9098 432.14 67.5598C429.88 70.9198 423.95 73.3999 415.21 73.9099C414.884 73.9261 414.557 73.8762 414.25 73.7632C413.943 73.6502 413.663 73.4765 413.425 73.2524C413.186 73.0284 412.996 72.7586 412.865 72.4592C412.733 72.1598 412.664 71.8369 412.66 71.51ZM450.71 87.1099V99.76C450.71 101.51 449.28 102.34 447.53 102.34C446.93 102.411 446.323 102.299 445.787 102.019C445.252 101.738 444.814 101.303 444.53 100.77L416.53 101.88C416.145 101.934 415.752 101.9 415.383 101.779C415.013 101.658 414.675 101.454 414.397 101.183C414.118 100.912 413.904 100.581 413.773 100.214C413.642 99.8481 413.597 99.4564 413.64 99.0698V87.0698C413.64 85.3698 415.06 84.3599 416.81 84.3599C418.56 84.3599 419.98 85.3598 419.98 87.0698V88.3098H444.37V87.0698C444.37 85.3198 445.79 84.3599 447.54 84.3599C449.29 84.3599 450.71 85.4099 450.71 87.1099ZM419.97 93.05V97.05L444.36 96.1799V93.0999L419.97 93.05Z" fill="white"/>
<path d="M459.4 96.6301V63.9301C459.409 63.5119 459.502 63.0997 459.676 62.719C459.849 62.3382 460.098 61.997 460.408 61.716C460.718 61.4351 461.082 61.2203 461.478 61.0852C461.874 60.95 462.293 60.8974 462.71 60.9301C463.127 60.8974 463.547 60.95 463.943 61.0852C464.339 61.2203 464.703 61.4351 465.013 61.716C465.323 61.997 465.572 62.3382 465.745 62.719C465.918 63.0997 466.012 63.5119 466.02 63.9301V94.34C471.896 94.1257 477.743 93.42 483.5 92.2302C483.882 92.1756 484.272 92.2057 484.641 92.3183C485.01 92.431 485.349 92.6234 485.635 92.882C485.922 93.1407 486.148 93.459 486.297 93.8147C486.447 94.1703 486.516 94.5547 486.5 94.9401C486.484 95.6337 486.221 96.2986 485.756 96.8142C485.292 97.3297 484.658 97.6619 483.97 97.7502C477.062 99.0304 470.064 99.7693 463.04 99.9602C460.68 100.04 459.4 98.9301 459.4 96.6301ZM491 99.3501V62.4101C490.999 61.9924 491.084 61.5788 491.252 61.196C491.419 60.8132 491.664 60.4699 491.972 60.1875C492.28 59.905 492.644 59.69 493.039 59.5561C493.435 59.4223 493.854 59.3725 494.27 59.4101C494.686 59.374 495.104 59.4248 495.498 59.5593C495.893 59.6938 496.255 59.9091 496.562 60.1914C496.869 60.4736 497.113 60.8167 497.28 61.1987C497.447 61.5807 497.532 61.9933 497.53 62.4101V99.3501C497.532 99.7669 497.447 100.179 497.28 100.561C497.113 100.944 496.869 101.287 496.562 101.569C496.255 101.851 495.893 102.066 495.498 102.201C495.104 102.335 494.686 102.386 494.27 102.35C493.856 102.379 493.441 102.323 493.049 102.186C492.657 102.048 492.297 101.833 491.991 101.552C491.685 101.272 491.44 100.932 491.269 100.553C491.099 100.174 491.008 99.7651 491 99.3501Z" fill="white"/>
<path d="M505.03 96.6298V64.9799C504.976 64.5084 505.029 64.0308 505.185 63.5827C505.341 63.1345 505.597 62.7273 505.932 62.3918C506.268 62.0562 506.675 61.8006 507.123 61.6444C507.571 61.4883 508.049 61.4356 508.521 61.4899H526.37C527.059 61.4978 527.717 61.7777 528.2 62.2685C528.683 62.7592 528.953 63.421 528.951 64.1098C528.951 64.4481 528.884 64.7832 528.754 65.0956C528.624 65.4081 528.434 65.6918 528.194 65.9306C527.955 66.1694 527.67 66.3584 527.357 66.487C527.044 66.6155 526.709 66.6812 526.37 66.6798H511.47V94.4298C517.02 94.2047 522.535 93.4479 527.941 92.1698C528.31 92.0936 528.692 92.1047 529.056 92.2023C529.42 92.2999 529.756 92.4812 530.038 92.7318C530.32 92.9825 530.539 93.2955 530.678 93.6459C530.818 93.9963 530.873 94.3743 530.84 94.7499C530.83 95.4403 530.581 96.1056 530.136 96.6339C529.692 97.1622 529.079 97.521 528.4 97.6498C521.916 99.0875 515.302 99.8582 508.66 99.9499C506.36 100.04 505.03 98.9298 505.03 96.6298ZM534.661 99.3898V62.3097C534.674 61.9059 534.769 61.5091 534.94 61.143C535.111 60.7768 535.354 60.449 535.655 60.1791C535.956 59.9092 536.308 59.7026 536.69 59.5722C537.073 59.4417 537.478 59.39 537.881 59.4198C538.283 59.39 538.688 59.4417 539.071 59.5722C539.453 59.7026 539.805 59.9092 540.106 60.1791C540.407 60.449 540.65 60.7768 540.821 61.143C540.992 61.5091 541.087 61.9059 541.1 62.3097V76.3898H545.65C545.998 76.3967 546.341 76.475 546.657 76.6198C546.974 76.7646 547.257 76.9728 547.489 77.2316C547.722 77.4904 547.899 77.7942 548.009 78.1242C548.119 78.4541 548.161 78.8032 548.131 79.1498C548.161 79.4964 548.119 79.8455 548.009 80.1754C547.899 80.5054 547.722 80.8092 547.489 81.068C547.257 81.3268 546.974 81.535 546.657 81.6798C546.341 81.8247 545.998 81.9029 545.65 81.9098H541.1V99.3898C541.095 99.7988 541.006 100.202 540.838 100.575C540.671 100.949 540.429 101.284 540.127 101.56C539.826 101.836 539.471 102.048 539.085 102.182C538.698 102.316 538.288 102.37 537.881 102.34C537.473 102.37 537.063 102.316 536.676 102.182C536.29 102.048 535.935 101.836 535.634 101.56C535.332 101.284 535.09 100.949 534.923 100.575C534.755 100.202 534.666 99.7988 534.661 99.3898Z" fill="white"/>
<path d="M552.04 100.54C551.726 100.556 551.412 100.506 551.119 100.394C550.825 100.283 550.558 100.112 550.334 99.8922C550.109 99.6725 549.933 99.4087 549.815 99.1175C549.697 98.8264 549.641 98.5142 549.65 98.2003V96.6302C549.64 96.3138 549.695 95.9986 549.812 95.7042C549.928 95.4099 550.104 95.1427 550.328 94.9188C550.552 94.6949 550.819 94.5191 551.114 94.4025C551.408 94.2858 551.723 94.2306 552.04 94.2403H553.51C553.826 94.2306 554.141 94.2858 554.435 94.4025C554.73 94.5191 554.997 94.6949 555.221 94.9188C555.445 95.1427 555.621 95.4099 555.737 95.7042C555.854 95.9986 555.909 96.3138 555.9 96.6302V98.2003C555.908 98.5142 555.852 98.8264 555.734 99.1175C555.616 99.4087 555.44 99.6725 555.215 99.8922C554.991 100.112 554.724 100.283 554.43 100.394C554.137 100.506 553.823 100.556 553.51 100.54H552.04Z" fill="white"/>
<path d="M579.18 82.6501C579.185 82.056 579.383 81.4796 579.744 81.0073C580.104 80.535 580.608 80.1923 581.18 80.0303C585.83 78.7803 590.02 75.3801 590.02 69.5801V67.9302H582.19C581.503 67.9197 580.848 67.6387 580.366 67.1482C579.885 66.6577 579.617 65.9971 579.62 65.3101C579.617 64.623 579.885 63.9627 580.366 63.4722C580.848 62.9817 581.503 62.7007 582.19 62.6902H589.92V60.9302C589.92 59.2702 591.35 58.2603 593.19 58.2603C595.03 58.2603 596.46 59.2602 596.46 60.9302V62.6802H604.14C604.833 62.6854 605.496 62.9632 605.987 63.4534C606.477 63.9436 606.754 64.607 606.76 65.3003C606.752 65.9927 606.473 66.6546 605.984 67.1443C605.494 67.634 604.832 67.9124 604.14 67.9202H596.36V69.6201C596.36 75.4201 600.55 78.8201 605.2 80.0701C605.771 80.2321 606.275 80.5751 606.636 81.0474C606.996 81.5197 607.194 82.096 607.2 82.6902C607.194 83.1028 607.095 83.5089 606.91 83.8779C606.725 84.2469 606.459 84.5694 606.132 84.8213C605.806 85.0732 605.426 85.2481 605.022 85.3328C604.618 85.4174 604.2 85.4095 603.8 85.3101C598.92 84.0201 594.8 81.4002 593.17 77.1702C591.51 81.3502 587.37 84.0201 582.54 85.3101C582.139 85.4013 581.723 85.4015 581.322 85.3105C580.921 85.2196 580.545 85.0401 580.223 84.7849C579.9 84.5297 579.639 84.2054 579.459 83.8359C579.278 83.4665 579.183 83.0613 579.18 82.6501ZM585.62 101.97C585.214 102.018 584.803 101.974 584.417 101.84C584.031 101.707 583.68 101.487 583.392 101.198C583.103 100.909 582.883 100.559 582.75 100.173C582.616 99.7869 582.571 99.3758 582.62 98.9702V90.5002C582.62 88.7102 584.09 87.7002 585.89 87.7002C587.69 87.7002 589.2 88.7002 589.2 90.5002V96.9001H618C618.669 96.9054 619.31 97.1736 619.783 97.647C620.256 98.1203 620.524 98.7608 620.53 99.4302C620.524 100.1 620.256 100.74 619.783 101.213C619.31 101.687 618.669 101.955 618 101.96L585.62 101.97ZM612.9 89.3201V62.2202C612.9 60.4702 614.37 59.4202 616.17 59.4202C617.97 59.4202 619.43 60.4702 619.43 62.2202V89.3201C619.43 91.1101 617.96 92.1301 616.17 92.1301C614.38 92.1301 612.92 91.1101 612.92 89.3201H612.9Z" fill="white"/>
<path d="M642.43 99.8098V87.25H627.2C626.495 87.2397 625.822 86.9551 625.324 86.4566C624.825 85.9581 624.541 85.2848 624.53 84.5799C624.541 83.8749 624.825 83.2019 625.324 82.7034C625.822 82.2049 626.495 81.9203 627.2 81.9099H664.47C665.177 81.9126 665.853 82.1951 666.352 82.6956C666.85 83.196 667.13 83.8735 667.13 84.5799C667.13 85.2863 666.85 85.9639 666.352 86.4644C665.853 86.9648 665.177 87.2474 664.47 87.25H648.92V99.8098C648.914 100.224 648.824 100.634 648.655 101.012C648.486 101.391 648.241 101.731 647.936 102.011C647.631 102.292 647.272 102.508 646.88 102.645C646.489 102.783 646.074 102.838 645.66 102.81C645.249 102.833 644.838 102.773 644.451 102.633C644.064 102.493 643.709 102.277 643.407 101.997C643.106 101.717 642.864 101.379 642.696 101.003C642.528 100.627 642.438 100.221 642.43 99.8098ZM655.92 76.53C656.841 73.0526 657.411 69.4912 657.62 65.8999H629.32C628.982 65.9012 628.647 65.8359 628.334 65.7073C628.021 65.5787 627.736 65.3894 627.497 65.1507C627.257 64.9119 627.067 64.6282 626.937 64.3157C626.807 64.0032 626.74 63.6682 626.74 63.3299C626.739 62.9907 626.805 62.6547 626.934 62.3411C627.063 62.0275 627.253 61.7425 627.493 61.5027C627.733 61.2629 628.018 61.0728 628.331 60.9436C628.645 60.8144 628.981 60.7487 629.32 60.75H661.43C663.43 60.75 664.33 61.8499 664.28 63.9199C664.062 68.4257 663.392 72.8982 662.28 77.27C662.101 77.999 661.672 78.6418 661.066 79.086C660.461 79.5302 659.719 79.7475 658.97 79.7C657.06 79.7 655.54 78.37 655.92 76.53Z" fill="white"/>
<path d="M702.74 61.9902V99.7602C702.73 100.124 702.646 100.482 702.493 100.812C702.34 101.142 702.12 101.437 701.849 101.678C701.577 101.92 701.258 102.104 700.913 102.217C700.567 102.331 700.202 102.373 699.84 102.34C699.481 102.369 699.12 102.324 698.779 102.208C698.438 102.092 698.124 101.907 697.857 101.666C697.59 101.424 697.376 101.13 697.227 100.803C697.077 100.475 696.997 100.12 696.99 99.7602V82.1901H691.33V91.7602C691.33 97.1902 687.1 100.91 681.76 100.91C676.42 100.91 672.14 97.1902 672.14 91.7602V69.4401C672.14 64.0201 676.38 60.2902 681.76 60.2902C687.14 60.2902 691.33 64.0201 691.33 69.4401V76.8501H696.99V61.9902C696.998 61.631 697.08 61.2774 697.229 60.9509C697.379 60.6244 697.594 60.3316 697.861 60.091C698.128 59.8504 698.441 59.6668 698.781 59.5515C699.121 59.4361 699.482 59.3914 699.84 59.4201C700.201 59.3872 700.566 59.4287 700.91 59.5419C701.255 59.6552 701.573 59.8376 701.845 60.0783C702.117 60.3191 702.336 60.6131 702.49 60.9419C702.644 61.2706 702.729 61.6274 702.74 61.9902ZM685.67 69.5402C685.702 69.0116 685.627 68.4816 685.448 67.9831C685.269 67.4846 684.991 67.0277 684.63 66.6403C684.268 66.253 683.832 65.9432 683.347 65.7299C682.862 65.5167 682.339 65.4045 681.81 65.4001C681.279 65.4032 680.755 65.5144 680.269 65.727C679.783 65.9396 679.345 66.2494 678.983 66.6369C678.621 67.0244 678.342 67.4817 678.162 67.9809C677.983 68.4801 677.907 69.0108 677.94 69.5402V91.6701C677.904 92.2003 677.978 92.7321 678.156 93.2326C678.334 93.7331 678.614 94.1916 678.976 94.5798C679.339 94.9679 679.778 95.2773 680.265 95.489C680.753 95.7006 681.278 95.8098 681.81 95.81C682.341 95.8099 682.866 95.7007 683.353 95.489C683.839 95.2772 684.278 94.9676 684.64 94.5793C685.002 94.191 685.28 93.7324 685.457 93.2319C685.634 92.7314 685.707 92.1997 685.67 91.6701V69.5402ZM712.08 62.0402V99.7202C712.071 100.086 711.988 100.446 711.836 100.779C711.684 101.111 711.465 101.409 711.194 101.654C710.922 101.9 710.604 102.087 710.257 102.205C709.911 102.323 709.544 102.369 709.18 102.34C708.815 102.369 708.448 102.323 708.102 102.205C707.756 102.087 707.437 101.9 707.166 101.654C706.894 101.409 706.676 101.111 706.523 100.779C706.371 100.446 706.288 100.086 706.28 99.7202V62.0402C706.288 61.6745 706.371 61.3142 706.523 60.9816C706.676 60.6491 706.894 60.3511 707.166 60.1059C707.437 59.8607 707.756 59.6733 708.102 59.5554C708.448 59.4375 708.815 59.3915 709.18 59.4201C709.544 59.3915 709.911 59.4375 710.257 59.5554C710.604 59.6733 710.922 59.8607 711.194 60.1059C711.465 60.3511 711.684 60.6491 711.836 60.9816C711.988 61.3142 712.071 61.6745 712.08 62.0402Z" fill="white"/>
<path d="M748.46 61.9902V99.7602C748.451 100.124 748.367 100.482 748.213 100.812C748.06 101.142 747.841 101.437 747.569 101.678C747.297 101.92 746.979 102.104 746.633 102.217C746.288 102.331 745.922 102.373 745.56 102.34C745.2 102.373 744.837 102.332 744.495 102.217C744.152 102.103 743.836 101.919 743.568 101.676C743.301 101.434 743.086 101.138 742.938 100.808C742.79 100.478 742.713 100.122 742.71 99.7602V82.1901H735.44C732.82 91.5301 727.81 96.8602 721.09 99.5302C720.775 99.6662 720.433 99.731 720.09 99.7202C719.369 99.7202 718.677 99.4336 718.167 98.9235C717.657 98.4134 717.37 97.7216 717.37 97.0002C717.386 96.4663 717.549 95.947 717.843 95.5004C718.136 95.0538 718.547 94.6973 719.03 94.4702C728.69 90.4202 731.5 79.8 731.5 66.82H720.26C719.553 66.8174 718.875 66.5353 718.375 66.0351C717.875 65.5349 717.593 64.8574 717.59 64.1501C717.608 63.4485 717.895 62.7807 718.392 62.2853C718.89 61.79 719.558 61.5054 720.26 61.4902H734.26C734.677 61.4386 735.101 61.4827 735.499 61.6191C735.896 61.7555 736.258 61.9805 736.555 62.2773C736.853 62.5741 737.08 62.9347 737.217 63.332C737.355 63.7292 737.4 64.1526 737.35 64.57V65.4902C737.372 69.2913 737.108 73.0885 736.56 76.85H742.68V61.9902C742.684 61.6296 742.763 61.2739 742.911 60.9453C743.059 60.6166 743.274 60.3222 743.542 60.0808C743.81 59.8393 744.125 59.6559 744.467 59.5422C744.809 59.4285 745.171 59.3869 745.53 59.4201C745.894 59.3828 746.262 59.4209 746.61 59.5322C746.959 59.6434 747.28 59.8254 747.555 60.0666C747.83 60.3078 748.052 60.603 748.208 60.934C748.364 61.265 748.45 61.6246 748.46 61.9902ZM758.08 62.0402V99.7202C758.072 100.086 757.989 100.446 757.836 100.779C757.684 101.111 757.466 101.409 757.194 101.654C756.923 101.9 756.604 102.087 756.258 102.205C755.912 102.323 755.545 102.369 755.18 102.34C754.815 102.369 754.449 102.323 754.102 102.205C753.756 102.087 753.438 101.9 753.166 101.654C752.895 101.409 752.676 101.111 752.524 100.779C752.371 100.446 752.289 100.086 752.28 99.7202V62.0402C752.289 61.6745 752.371 61.3142 752.524 60.9816C752.676 60.649 752.895 60.3511 753.166 60.1059C753.438 59.8607 753.756 59.6733 754.102 59.5554C754.449 59.4375 754.815 59.3915 755.18 59.4201C755.545 59.3915 755.912 59.4375 756.258 59.5554C756.604 59.6733 756.923 59.8607 757.194 60.1059C757.466 60.3511 757.684 60.649 757.836 60.9816C757.989 61.3142 758.072 61.6745 758.08 62.0402Z" fill="white"/>
<path d="M778.82 82.7403C778.196 82.6844 777.615 82.3968 777.192 81.9342C776.769 81.4715 776.534 80.8673 776.534 80.2403C776.534 79.6134 776.769 79.0092 777.192 78.5465C777.615 78.0838 778.196 77.7962 778.82 77.7403H791.92V72.2203C791.933 71.8156 792.027 71.4175 792.197 71.0502C792.368 70.6828 792.61 70.3538 792.911 70.0829C793.212 69.8119 793.565 69.6048 793.948 69.4737C794.331 69.3427 794.737 69.2903 795.14 69.3202C795.544 69.2903 795.95 69.3427 796.333 69.4737C796.716 69.6048 797.069 69.8119 797.369 70.0829C797.67 70.3538 797.913 70.6828 798.083 71.0502C798.254 71.4175 798.348 71.8156 798.36 72.2203V77.7403H816.45C817.075 77.7962 817.656 78.0838 818.079 78.5465C818.502 79.0092 818.737 79.6134 818.737 80.2403C818.737 80.8673 818.502 81.4715 818.079 81.9342C817.656 82.3968 817.075 82.6844 816.45 82.7403H778.82ZM786.04 102.15C781.44 102.15 778.4 98.4703 778.4 94.1503C778.361 93.1238 778.53 92.1001 778.897 91.1405C779.263 90.1809 779.82 89.3054 780.534 88.5665C781.248 87.8276 782.103 87.2407 783.05 86.8409C783.996 86.4412 785.013 86.2369 786.04 86.2403H809.23C810.256 86.2424 811.27 86.4506 812.213 86.8524C813.156 87.2542 814.009 87.8413 814.721 88.5792C815.432 89.3171 815.989 90.1905 816.356 91.1476C816.724 92.1046 816.895 93.1257 816.86 94.1503C816.86 98.5203 813.78 102.15 809.23 102.15H786.04ZM808.54 72.2503C809.24 69.9154 809.657 67.5046 809.78 65.0702H781.17C780.518 65.0702 779.892 64.8111 779.431 64.3497C778.97 63.8884 778.71 63.2626 778.71 62.6102C778.71 61.9578 778.97 61.3321 779.431 60.8707C779.892 60.4094 780.518 60.1503 781.17 60.1503H813.28C813.694 60.0964 814.115 60.1425 814.507 60.2848C814.899 60.427 815.252 60.6613 815.535 60.9679C815.818 61.2744 816.023 61.6444 816.134 62.0467C816.244 62.4491 816.257 62.8722 816.17 63.2804C816.033 66.4407 815.618 69.5826 814.93 72.6703C814.783 73.459 814.361 74.1698 813.738 74.6754C813.115 75.181 812.332 75.4486 811.53 75.4303C809.64 75.4303 808.08 74.0003 808.54 72.2503ZM807.71 97.1903C808.11 97.1827 808.505 97.0951 808.871 96.9327C809.236 96.7703 809.566 96.5364 809.84 96.2447C810.114 95.9531 810.327 95.6096 810.466 95.2345C810.605 94.8593 810.668 94.4599 810.65 94.0602C810.664 93.6676 810.598 93.2764 810.455 92.9103C810.313 92.5441 810.098 92.2108 809.823 91.9303C809.548 91.6497 809.219 91.428 808.856 91.2784C808.493 91.1289 808.103 91.0545 807.71 91.0602H787.47C787.083 91.0596 786.7 91.1381 786.344 91.2906C785.988 91.4431 785.667 91.6666 785.4 91.9474C785.133 92.2281 784.927 92.5602 784.793 92.9234C784.659 93.2867 784.6 93.6735 784.62 94.0602C784.59 94.4554 784.641 94.8528 784.77 95.2276C784.899 95.6025 785.103 95.9468 785.37 96.2399C785.637 96.5329 785.961 96.7686 786.322 96.932C786.683 97.0954 787.074 97.1833 787.47 97.1903H807.71Z" fill="white"/>
<path d="M829.97 98.7502C831.338 95.8046 832.268 92.6748 832.73 89.4602H825C824.292 89.4602 823.613 89.1789 823.112 88.6782C822.611 88.1775 822.33 87.4984 822.33 86.7903C822.33 86.0822 822.611 85.4028 823.112 84.9021C823.613 84.4014 824.292 84.1201 825 84.1201H862.27C862.978 84.1201 863.657 84.4014 864.158 84.9021C864.659 85.4028 864.94 86.0822 864.94 86.7903C864.94 87.4984 864.659 88.1775 864.158 88.6782C863.657 89.1789 862.978 89.4602 862.27 89.4602H855.73V99.6702C855.653 100.464 855.283 101.201 854.693 101.737C854.102 102.273 853.333 102.57 852.535 102.57C851.737 102.57 850.968 102.273 850.378 101.737C849.787 101.201 849.417 100.464 849.34 99.6702V89.4602H839.17C838.741 93.227 837.729 96.9042 836.17 100.36C835.924 101.01 835.481 101.566 834.904 101.953C834.327 102.34 833.645 102.539 832.95 102.52C830.62 102.52 828.92 100.77 829.97 98.7502ZM834.57 79.6101C828.77 79.6101 824.36 75.3803 824.36 70.0403C824.36 64.7003 828.77 60.4702 834.57 60.4702H852.7C858.49 60.4702 862.91 64.6603 862.91 70.0403C862.91 75.4203 858.49 79.6101 852.7 79.6101H834.57ZM851.46 74.4602C854.4 74.4602 856.56 72.6703 856.56 70.0403C856.56 67.4103 854.4 65.6702 851.46 65.6702H835.81C832.87 65.6702 830.71 67.5103 830.71 70.0403C830.71 72.5703 832.87 74.4602 835.81 74.4602H851.46Z" fill="white"/>
<path d="M871.51 70.55C870.839 70.55 870.196 70.2833 869.721 69.8088C869.247 69.3344 868.98 68.691 868.98 68.02C868.98 67.349 869.247 66.7054 869.721 66.231C870.196 65.7565 870.839 65.49 871.51 65.49H876.8V61.3899C876.8 59.7399 878.13 58.8599 879.8 58.8599C881.47 58.8599 882.8 59.7399 882.8 61.3899V65.49H888.09C888.761 65.49 889.405 65.7565 889.879 66.231C890.354 66.7054 890.62 67.349 890.62 68.02C890.62 68.691 890.354 69.3344 889.879 69.8088C889.405 70.2833 888.761 70.55 888.09 70.55H871.51ZM869.92 81.9299C869.92 76.4999 874.34 72.9299 879.77 72.9299C885.2 72.9299 889.61 76.4699 889.61 81.9299V91.9299C889.61 97.4099 885.2 100.93 879.77 100.93C874.34 100.93 869.92 97.3899 869.92 91.9299V81.9299ZM883.92 91.5898V82.25C883.92 81.1387 883.479 80.0729 882.693 79.2871C881.907 78.5013 880.842 78.0598 879.73 78.0598C878.619 78.0598 877.553 78.5013 876.768 79.2871C875.982 80.0729 875.54 81.1387 875.54 82.25V91.5898C875.54 92.7011 875.982 93.767 876.768 94.5527C877.553 95.3385 878.619 95.78 879.73 95.78C880.842 95.78 881.907 95.3385 882.693 94.5527C883.479 93.767 883.92 92.7011 883.92 91.5898ZM893.62 99.73V61.96C893.631 61.5971 893.716 61.2404 893.87 60.9116C894.024 60.5828 894.243 60.2891 894.515 60.0483C894.787 59.8076 895.105 59.6249 895.45 59.5117C895.795 59.3985 896.159 59.357 896.52 59.3899C896.88 59.3567 897.242 59.3983 897.584 59.512C897.926 59.6257 898.241 59.8091 898.509 60.0505C898.776 60.292 898.991 60.5864 899.139 60.915C899.288 61.2437 899.366 61.5994 899.37 61.96V76.6399H904.02V62.01C904.081 61.2825 904.413 60.6042 904.95 60.1099C905.487 59.6155 906.19 59.3411 906.92 59.3411C907.651 59.3411 908.354 59.6155 908.891 60.1099C909.428 60.6042 909.76 61.2825 909.82 62.01V99.6899C909.76 100.417 909.428 101.096 908.891 101.59C908.354 102.084 907.651 102.359 906.92 102.359C906.19 102.359 905.487 102.084 904.95 101.59C904.413 101.096 904.081 100.417 904.02 99.6899V82.02H899.37V99.73C899.368 100.091 899.29 100.448 899.142 100.778C898.995 101.108 898.78 101.403 898.512 101.646C898.244 101.889 897.929 102.073 897.586 102.187C897.243 102.301 896.88 102.343 896.52 102.31C896.165 102.334 895.809 102.287 895.473 102.171C895.136 102.056 894.826 101.873 894.561 101.635C894.296 101.398 894.082 101.109 893.931 100.787C893.779 100.465 893.694 100.116 893.68 99.76L893.62 99.73Z" fill="white"/>
<path d="M917 100.93C916.637 100.952 916.272 100.9 915.93 100.776C915.587 100.652 915.273 100.46 915.008 100.21C914.742 99.9603 914.531 99.6589 914.386 99.3245C914.242 98.99 914.167 98.6295 914.167 98.2651C914.167 97.9007 914.242 97.5403 914.386 97.2058C914.531 96.8713 914.742 96.57 915.008 96.3203C915.273 96.0707 915.587 95.878 915.93 95.7542C916.272 95.6303 916.637 95.5778 917 95.6001H932.41V89.2903C932.41 87.5403 933.84 86.4902 935.63 86.4902C937.42 86.4902 938.85 87.4903 938.85 89.2903V95.6001H954.27C954.949 95.6417 955.586 95.9406 956.052 96.4358C956.518 96.931 956.777 97.5853 956.777 98.2651C956.777 98.945 956.518 99.5993 956.052 100.094C955.586 100.59 954.949 100.889 954.27 100.93H917ZM919.92 84.5303C919.535 84.5748 919.144 84.5316 918.778 84.4043C918.411 84.277 918.078 84.0686 917.803 83.7947C917.528 83.5208 917.319 83.1884 917.19 82.8223C917.062 82.4562 917.017 82.0658 917.06 81.6802V62.9302C917.06 61.1302 918.49 60.1201 920.28 60.1201C922.07 60.1201 923.51 61.1202 923.51 62.9302V66.9302H947.7V62.9302C947.7 61.1802 949.13 60.1702 950.92 60.1702C952.71 60.1702 954.14 61.1702 954.14 62.9302V81.7002C954.185 82.0853 954.142 82.4756 954.015 82.8418C953.888 83.208 953.679 83.5405 953.405 83.8147C953.131 84.0888 952.798 84.2974 952.432 84.4248C952.066 84.5522 951.675 84.5951 951.29 84.5503L919.92 84.5303ZM923.51 79.4302H947.7V71.9302H923.54L923.51 79.4302Z" fill="white"/>
<path d="M960.15 96.6301C960.156 96.2272 960.248 95.8303 960.421 95.4662C960.593 95.1022 960.842 94.7797 961.15 94.5202C965.71 90.5202 968.74 84.2601 968.74 73.4501V63.1901C968.873 62.5065 969.24 61.8902 969.777 61.4472C970.314 61.0042 970.989 60.7619 971.685 60.7619C972.382 60.7619 973.057 61.0042 973.594 61.4472C974.131 61.8902 974.498 62.5065 974.63 63.1901V73.4501C974.63 84.2601 977.63 90.5102 982.22 94.5202C982.528 94.7801 982.777 95.1028 982.949 95.4667C983.122 95.8307 983.214 96.2273 983.22 96.6301C983.223 97.0083 983.151 97.3834 983.009 97.7338C982.867 98.0842 982.657 98.4033 982.391 98.6725C982.126 98.9418 981.81 99.156 981.461 99.3032C981.113 99.4503 980.739 99.5276 980.36 99.5302C979.999 99.535 979.64 99.4635 979.307 99.3205C978.975 99.1775 978.676 98.9661 978.43 98.7001C975.155 95.7368 972.807 91.8885 971.67 87.6201C970.518 91.884 968.169 95.729 964.9 98.7001C964.648 98.9541 964.347 99.1548 964.015 99.2905C963.684 99.4262 963.329 99.4941 962.97 99.4902C962.598 99.4876 962.229 99.4114 961.885 99.2663C961.542 99.1211 961.23 98.9098 960.968 98.6442C960.706 98.3786 960.499 98.064 960.359 97.7184C960.219 97.3729 960.148 97.003 960.15 96.6301ZM986.56 99.7602V80.4401H981.36C980.652 80.4401 979.973 80.1589 979.472 79.6581C978.972 79.1574 978.69 78.4783 978.69 77.7702C978.69 77.0621 978.972 76.3827 979.472 75.882C979.973 75.3813 980.652 75.1 981.36 75.1H986.56V61.9902C986.57 61.6269 986.654 61.2693 986.807 60.9399C986.961 60.6104 987.18 60.3159 987.452 60.0749C987.724 59.8339 988.043 59.6514 988.388 59.5388C988.734 59.4261 989.099 59.3857 989.46 59.4201C989.819 59.3869 990.182 59.4285 990.524 59.5422C990.866 59.6559 991.181 59.8393 991.448 60.0807C991.716 60.3222 991.931 60.6166 992.079 60.9452C992.228 61.2739 992.306 61.6296 992.31 61.9902V99.7602C992.308 100.122 992.23 100.478 992.082 100.808C991.935 101.138 991.72 101.434 991.452 101.676C991.184 101.919 990.869 102.103 990.526 102.217C990.183 102.332 989.82 102.373 989.46 102.34C989.098 102.374 988.732 102.334 988.386 102.221C988.04 102.107 987.721 101.924 987.448 101.682C987.176 101.44 986.957 101.144 986.804 100.813C986.651 100.483 986.568 100.124 986.56 99.7602ZM996.08 99.7602V62.08C996.141 61.3525 996.473 60.6743 997.01 60.1799C997.547 59.6855 998.25 59.4111 998.98 59.4111C999.711 59.4111 1000.41 59.6855 1000.95 60.1799C1001.49 60.6743 1001.82 61.3525 1001.88 62.08V99.7602C1001.82 100.488 1001.49 101.166 1000.95 101.66C1000.41 102.155 999.711 102.429 998.98 102.429C998.25 102.429 997.547 102.155 997.01 101.66C996.473 101.166 996.141 100.488 996.08 99.7602Z" fill="white"/>
<path d="M1009 100.93C1008.64 100.952 1008.27 100.9 1007.93 100.776C1007.59 100.652 1007.27 100.459 1007.01 100.21C1006.74 99.9601 1006.53 99.6587 1006.39 99.3242C1006.24 98.9897 1006.17 98.6293 1006.17 98.2649C1006.17 97.9005 1006.24 97.54 1006.39 97.2056C1006.53 96.8711 1006.74 96.5697 1007.01 96.3201C1007.27 96.0704 1007.59 95.8778 1007.93 95.7539C1008.27 95.6301 1008.64 95.5776 1009 95.5999H1016.18V88.5999C1016.18 86.9399 1017.51 85.98 1019.26 85.98C1021.01 85.98 1022.34 86.9799 1022.34 88.5999V95.5999H1033.06V88.5999C1033.06 86.9399 1034.4 85.98 1036.15 85.98C1037.9 85.98 1039.23 86.9799 1039.23 88.5999V95.5999H1046.23C1046.91 95.6414 1047.55 95.9403 1048.01 96.4355C1048.48 96.9308 1048.74 97.585 1048.74 98.2649C1048.74 98.9447 1048.48 99.599 1048.01 100.094C1047.55 100.589 1046.91 100.888 1046.23 100.93H1009ZM1019.91 84.3298C1013.14 84.3298 1008.36 79.08 1008.36 72.45C1008.36 65.82 1013.14 60.54 1019.91 60.54H1035.36C1042.13 60.54 1046.91 65.74 1046.91 72.45C1046.91 79.16 1042.13 84.3298 1035.36 84.3298H1019.91ZM1034.03 79.1299C1037.76 79.1299 1040.42 76.37 1040.42 72.45C1040.42 68.53 1037.76 65.74 1034.03 65.74H1021.24C1017.56 65.74 1014.89 68.5 1014.89 72.45C1014.89 76.4 1017.56 79.1299 1021.24 79.1299H1034.03Z" fill="white"/>
<path d="M1054.31 77.4001V62.4001C1054.31 61.5515 1054.65 60.7376 1055.25 60.1375C1055.85 59.5373 1056.66 59.2002 1057.51 59.2002C1058.36 59.2002 1059.17 59.5373 1059.77 60.1375C1060.37 60.7376 1060.71 61.5515 1060.71 62.4001V77.4001L1060.38 87.4001C1060.4 87.7875 1060.35 88.1757 1060.21 88.5403C1060.08 88.9049 1059.87 89.2382 1059.61 89.5195C1059.34 89.8009 1059.02 90.0243 1058.66 90.1758C1058.3 90.3273 1057.92 90.4036 1057.53 90.4001C1057.14 90.4004 1056.76 90.3221 1056.4 90.1702C1056.04 90.0182 1055.71 89.7956 1055.44 89.5156C1055.17 89.2357 1054.96 88.9042 1054.82 88.5408C1054.68 88.1773 1054.62 87.7893 1054.63 87.4001L1054.31 77.4001ZM1056.75 101.4C1056.44 101.416 1056.13 101.366 1055.84 101.254C1055.54 101.142 1055.28 100.971 1055.06 100.75C1054.84 100.53 1054.66 100.266 1054.55 99.9746C1054.44 99.6835 1054.39 99.372 1054.4 99.0601V97.5801C1054.39 97.2656 1054.44 96.9512 1054.55 96.657C1054.66 96.3627 1054.83 96.0949 1055.05 95.8704C1055.27 95.6458 1055.54 95.4696 1055.83 95.3525C1056.12 95.2355 1056.44 95.1801 1056.75 95.1902H1058.22C1058.54 95.1805 1058.85 95.2357 1059.15 95.3523C1059.44 95.4689 1059.71 95.6444 1059.94 95.8682C1060.16 96.0919 1060.34 96.3592 1060.45 96.6536C1060.57 96.948 1060.63 97.2631 1060.62 97.5801V99.0601C1060.63 99.3745 1060.57 99.6871 1060.45 99.9783C1060.33 100.269 1060.15 100.533 1059.93 100.752C1059.7 100.972 1059.44 101.143 1059.14 101.254C1058.85 101.366 1058.53 101.415 1058.22 101.4H1056.75Z" fill="white"/>
</g>
<defs>
<clipPath id="clip0_252_3504">
<rect width="1127.21" height="174.93" fill="white"/>
</clipPath>
</defs>
</svg>
