<svg viewBox="0 0 834 275" fill="none" xmlns="http://www.w3.org/2000/svg">
<g clip-path="url(#clip0_151_3520)">
<path d="M784.89 211.39H783.62C783.62 201.98 775.97 194.33 766.56 194.33V193.06C775.97 193.06 783.62 185.41 783.62 176H784.89C784.89 185.41 792.54 193.06 801.95 193.06V194.33C792.54 194.33 784.89 201.98 784.89 211.39ZM771.35 193.69C777.61 195.39 782.56 200.33 784.26 206.6C785.96 200.34 790.9 195.39 797.17 193.69C790.91 191.99 785.96 187.05 784.26 180.78C782.56 187.04 777.62 191.99 771.35 193.69Z" fill="white"/>
<path d="M169.98 28.28C169.98 20.47 163.65 14.14 155.84 14.14C163.65 14.14 169.98 7.81 169.98 0C169.98 7.81 176.31 14.14 184.12 14.14C176.31 14.14 169.98 20.47 169.98 28.28Z" fill="white"/>
<path d="M664.61 96.28H663.34C663.34 88.83 657.28 82.78 649.84 82.78V81.51C657.29 81.51 663.34 75.45 663.34 68.01H664.61C664.61 75.46 670.67 81.51 678.11 81.51V82.78C670.66 82.78 664.61 88.84 664.61 96.28ZM654.13 82.14C658.83 83.57 662.55 87.29 663.98 91.99C665.41 87.29 669.13 83.57 673.83 82.14C669.13 80.71 665.41 76.99 663.98 72.29C662.55 76.99 658.83 80.71 654.13 82.14Z" fill="white"/>
<path d="M818.98 244.28C818.98 236.47 812.65 230.14 804.84 230.14C812.65 230.14 818.98 223.81 818.98 216C818.98 223.81 825.31 230.14 833.12 230.14C825.31 230.14 818.98 236.47 818.98 244.28Z" fill="white"/>
<path d="M20.84 236.11H19.11C19.11 225.57 10.54 217 0 217V215.27C10.54 215.27 19.11 206.7 19.11 196.16H20.84C20.84 206.7 29.41 215.27 39.95 215.27V217C29.41 217 20.84 225.57 20.84 236.11ZM5.95 216.13C12.67 218.13 17.98 223.44 19.98 230.16C21.98 223.44 27.29 218.13 34.01 216.13C27.29 214.13 21.98 208.82 19.98 202.1C17.98 208.82 12.67 214.13 5.95 216.13Z" fill="white"/>
<path d="M187.881 67.81C187.881 66.66 188.521 65.79 189.401 65.14C194.091 62.15 199.481 55.98 199.481 45.13V38.41H191.571C190.101 38.41 188.901 37.17 188.901 35.7C188.901 34.23 190.101 33.03 191.571 33.03H213.651C215.121 33.03 216.361 34.23 216.361 35.7C216.361 37.17 215.121 38.41 213.651 38.41H205.741V45.13C205.741 55.99 211.121 62.15 215.821 65.14C216.651 65.78 217.341 66.66 217.341 67.81C217.341 69.47 215.961 70.8 214.301 70.8C213.661 70.8 213.101 70.66 212.641 70.34C208.311 67.67 204.171 63.07 202.611 58.01C201.051 63.07 196.861 67.67 192.581 70.29C192.071 70.66 191.521 70.8 190.921 70.8C189.261 70.8 187.881 69.42 187.881 67.81ZM221.831 70.66V33.72C221.831 31.93 223.301 30.73 225.141 30.73C226.981 30.73 228.361 31.93 228.361 33.72V70.66C228.361 72.45 226.931 73.65 225.141 73.65C223.351 73.65 221.831 72.45 221.831 70.66Z" fill="white"/>
<path d="M251.411 71.12V58.56H236.181C234.751 58.56 233.511 57.36 233.511 55.89C233.511 54.42 234.751 53.22 236.181 53.22H273.441C274.911 53.22 276.111 54.42 276.111 55.89C276.111 57.36 274.911 58.56 273.441 58.56H257.941V71.12C257.941 72.91 256.471 74.11 254.671 74.11C252.871 74.11 251.401 72.91 251.401 71.12H251.411ZM264.941 47.84C265.861 44.34 266.461 40.71 266.641 37.21H238.301C236.871 37.21 235.721 36.06 235.721 34.63C235.721 33.2 236.871 32.05 238.301 32.05H270.411C272.391 32.05 273.311 33.15 273.261 35.22C273.031 39.59 272.391 44.14 271.241 48.56C270.831 50.12 269.581 51 267.931 51C266.041 51 264.531 49.67 264.941 47.83V47.84Z" fill="white"/>
<path d="M284.02 53.78C282.13 53.78 281.12 52.77 281.12 50.88V34.09C281.12 32.39 282.55 31.38 284.29 31.38C286.03 31.38 287.46 32.39 287.46 34.09V37.68H298.36V34.05C298.36 32.35 299.74 31.38 301.49 31.38C303.24 31.38 304.62 32.35 304.62 34.05V50.89C304.62 52.78 303.61 53.79 301.77 53.79H284.01L284.02 53.78ZM291.38 73.52C286.37 73.52 282.41 70.16 282.41 65.38C282.41 60.6 286.37 57.28 291.38 57.28H311.16C316.22 57.28 320.18 60.59 320.18 65.38C320.18 70.17 316.22 73.52 311.16 73.52H291.38ZM287.47 48.91H298.37V42.51H287.47V48.91ZM309.97 68.65C312.18 68.65 313.74 67.41 313.74 65.38C313.74 63.35 312.18 62.16 309.97 62.16H292.58C290.46 62.16 288.9 63.45 288.9 65.38C288.9 67.31 290.46 68.65 292.58 68.65H309.97ZM312.59 53.42V33.5C312.59 31.75 314.02 30.74 315.81 30.74C317.6 30.74 319.03 31.75 319.03 33.5V39.67H322.3C323.73 39.67 324.78 40.82 324.78 42.25C324.78 43.68 323.72 44.92 322.3 44.92H319.03V53.43C319.03 55.18 317.65 56.19 315.81 56.19C313.97 56.19 312.59 55.18 312.59 53.43V53.42Z" fill="white"/>
<path d="M335.41 69.88C336.61 66.47 337.48 63.07 337.8 59.67H327.86C326.48 59.67 325.33 58.52 325.33 57.14C325.33 55.76 326.48 54.66 327.86 54.66H355.79C357.17 54.66 358.32 55.76 358.32 57.14C358.32 58.52 357.17 59.67 355.79 59.67H344.33C343.92 63.67 342.95 67.58 341.62 71.31C341.07 72.69 340.01 73.61 338.49 73.61C336.33 73.61 334.72 71.82 335.41 69.88ZM337.02 51.39C331.64 51.39 327.82 46.93 327.82 41.5C327.82 36.07 331.64 31.61 337.02 31.61H345.81C351.19 31.61 355.06 36.03 355.06 41.5C355.06 46.97 351.2 51.39 345.81 51.39H337.02ZM344.84 46.33C347.19 46.33 349.03 44.08 349.03 41.5C349.03 38.92 347.19 36.67 344.84 36.67H338.03C335.64 36.67 333.84 38.88 333.84 41.5C333.84 44.12 335.63 46.33 338.03 46.33H344.84ZM360.02 70.67V33.72C360.02 31.93 361.49 30.73 363.29 30.73C365.09 30.73 366.56 31.93 366.56 33.72V70.66C366.56 72.45 365.13 73.65 363.29 73.65C361.45 73.65 360.02 72.45 360.02 70.66V70.67Z" fill="white"/>
<path d="M373.311 68.64V35.7C373.311 33.86 374.321 32.8 376.161 32.8H389.781C391.211 32.8 392.361 34 392.361 35.42C392.361 36.84 391.211 38 389.781 38H379.291V66.16C382.691 66.11 386.701 65.52 390.521 64.55C392.081 64.23 393.601 65.52 393.601 67.13C393.601 68.42 392.681 69.48 391.481 69.71C386.241 70.81 381.221 71.37 376.211 71.46C374.371 71.51 373.311 70.54 373.311 68.65V68.64ZM407.121 70.99V53.37H401.781V71.04C401.781 72.65 400.491 73.66 398.931 73.66C397.271 73.66 395.991 72.65 395.991 71.04V33.35C395.991 31.74 397.281 30.73 398.931 30.73C400.491 30.73 401.781 31.74 401.781 33.35V47.98H407.121V33.4C407.121 31.79 408.451 30.73 410.111 30.73C411.771 30.73 413.051 31.79 413.051 33.4V70.99C413.051 72.6 411.761 73.66 410.111 73.66C408.461 73.66 407.121 72.6 407.121 70.99Z" fill="white"/>
<path d="M434.121 39.01C432.831 39.01 431.771 37.95 431.771 36.66C431.771 35.37 432.831 34.36 434.121 34.36H442.451V31.92C442.451 30.45 443.921 29.53 445.761 29.53C447.601 29.53 449.071 30.45 449.071 31.92V34.36H457.401C458.691 34.36 459.751 35.42 459.751 36.66C459.751 37.9 458.691 39.01 457.401 39.01H434.121ZM439.591 54.61C435.961 54.61 432.921 51.85 432.921 47.76C432.921 43.67 435.961 40.91 439.591 40.91H451.971C455.561 40.91 458.591 43.72 458.591 47.76C458.591 51.8 455.551 54.61 451.971 54.61H439.591ZM470.831 59.3V71.03C470.831 72.78 469.451 73.65 467.611 73.65C466.181 73.65 464.991 73.1 464.571 71.99L437.791 73.19C435.951 73.28 434.851 72.22 434.851 70.38V59.29C434.851 57.54 436.321 56.53 438.071 56.53C439.821 56.53 441.291 57.54 441.291 59.29V60.26H464.381V59.29C464.381 57.54 465.811 56.53 467.601 56.53C469.391 56.53 470.821 57.54 470.821 59.29L470.831 59.3ZM441.621 45.45C439.831 45.45 438.811 46.51 438.811 47.75C438.811 48.99 439.821 50.05 441.621 50.05H449.951C451.791 50.05 452.761 48.99 452.761 47.75C452.761 46.51 451.791 45.45 449.951 45.45H441.621ZM441.301 64.82V68.36L464.391 67.39V64.81H441.301V64.82ZM474.101 39.75C475.531 39.75 476.581 40.9 476.581 42.37C476.581 43.84 475.521 44.99 474.101 44.99H470.831V52.49C470.831 54.24 469.451 55.25 467.611 55.25C465.771 55.25 464.391 54.24 464.391 52.49V33.49C464.391 31.74 465.821 30.73 467.611 30.73C469.401 30.73 470.831 31.74 470.831 33.49V39.75H474.101Z" fill="white"/>
<path d="M485.51 70.11C486.61 67.35 487.44 64.5 487.86 61.6H479.9C478.47 61.6 477.32 60.4 477.32 58.98C477.32 57.56 478.47 56.4 479.9 56.4H517.35C518.78 56.4 519.93 57.55 519.93 58.98C519.93 60.41 518.78 61.6 517.35 61.6H510.73V70.98C510.73 72.73 509.3 73.88 507.56 73.88C505.82 73.88 504.34 72.73 504.34 70.98V61.6H494.22C493.76 64.96 492.98 68.36 491.64 71.77C491.09 73.1 490.08 73.89 488.56 73.89C486.35 73.89 484.7 72.05 485.52 70.12L485.51 70.11ZM482.93 53.09C481.09 53.09 480.08 52.08 480.08 50.24V43.06C480.08 41.17 481.09 40.21 482.93 40.21H510.76V36.62H482.05C480.81 36.62 479.75 35.61 479.75 34.32C479.75 33.03 480.81 32.07 482.05 32.07H514.3C516.14 32.07 517.15 33.04 517.15 34.92V41.82C517.15 43.66 516.14 44.67 514.3 44.67H486.51V48.44H515.63C516.87 48.44 517.93 49.45 517.93 50.74C517.93 52.03 516.87 53.09 515.63 53.09H482.92H482.93Z" fill="white"/>
<path d="M566.1 56.9C557.27 57.91 548.57 58.33 539.74 58.51C538.36 58.56 537.12 57.41 537.12 55.98C537.12 54.65 538.22 53.54 539.51 53.5C542.82 53.41 546.13 53.32 549.45 53.13V48.48H546.87C542.64 48.48 539.14 44.8 539.14 40.06C539.14 35.32 542.64 31.6 546.87 31.6H558.05C562.28 31.6 565.78 35.28 565.78 40.06C565.78 44.84 562.28 48.48 558.05 48.48H555.7V52.76C559.06 52.53 562.46 52.25 565.82 51.89C567.38 51.71 568.49 52.9 568.49 54.37C568.49 55.7 567.52 56.72 566.1 56.9ZM575.39 68.26C576.77 68.26 577.92 69.41 577.92 70.79C577.92 72.17 576.77 73.27 575.39 73.27H544.24C542.31 73.27 541.2 72.21 541.2 70.28V63.29C541.2 61.54 542.67 60.53 544.47 60.53C546.27 60.53 547.69 61.54 547.69 63.29V68.26H575.39ZM548.15 43.65H556.85C558.41 43.65 559.79 42.04 559.79 40.06C559.79 38.08 558.41 36.47 556.85 36.47H548.15C546.54 36.47 545.16 38.08 545.16 40.06C545.16 42.04 546.54 43.65 548.15 43.65ZM579.8 43.74C581.32 43.74 582.38 44.94 582.38 46.41C582.38 47.88 581.32 49.08 579.8 49.08H576.63V61.41C576.63 63.16 575.25 64.17 573.41 64.17C571.57 64.17 570.19 63.16 570.19 61.41V33.49C570.19 31.74 571.62 30.73 573.41 30.73C575.2 30.73 576.63 31.74 576.63 33.49V43.75H579.8V43.74Z" fill="white"/>
<path d="M585.78 72.22C584.35 72.22 583.11 71.07 583.11 69.55C583.11 68.03 584.35 66.88 585.78 66.88H592.91V60.72C592.91 59.06 594.29 58.1 595.99 58.1C597.69 58.1 599.07 59.07 599.07 60.72V66.88H609.93V60.72C609.93 59.06 611.26 58.1 612.97 58.1C614.68 58.1 616.05 59.07 616.05 60.72V66.88H623.04C624.51 66.88 625.71 68.08 625.71 69.55C625.71 71.02 624.51 72.22 623.04 72.22H585.78ZM588.72 56.16C586.88 56.16 585.87 55.15 585.87 53.31V44.43C585.87 42.54 586.88 41.58 588.72 41.58H616.55V36.93H587.98C586.65 36.93 585.54 35.83 585.54 34.45C585.54 33.16 586.64 32.06 587.98 32.06H620.09C621.93 32.06 622.94 33.03 622.94 34.91V43.47C622.94 45.36 621.93 46.37 620.09 46.37H592.3V51.2H621.24C622.62 51.2 623.72 52.3 623.72 53.68C623.72 55.06 622.62 56.16 621.24 56.16H588.71H588.72Z" fill="white"/>
<path d="M631.091 48.71V33.67C631.091 31.78 632.471 30.59 634.311 30.59C636.151 30.59 637.481 31.79 637.481 33.67V48.71L637.161 58.74C637.111 60.63 635.921 61.78 634.311 61.78C632.701 61.78 631.501 60.63 631.411 58.74L631.091 48.71ZM633.531 72.68C632.151 72.68 631.181 71.71 631.181 70.33V68.86C631.181 67.48 632.151 66.47 633.531 66.47H635.001C636.381 66.47 637.391 67.48 637.391 68.86V70.33C637.391 71.71 636.381 72.68 635.001 72.68H633.531Z" fill="white"/>
<path d="M78.9607 174.48C78.3207 174.48 77.7607 173.97 77.7607 173.28C77.7607 172.64 78.3107 172.08 78.9607 172.08H86.8307V165.78C86.8307 165.04 87.4307 164.54 88.2107 164.54C88.9907 164.54 89.5907 165.05 89.5907 165.78V172.08H97.4107C98.0507 172.08 98.6107 172.63 98.6107 173.28C98.6107 173.97 98.0607 174.48 97.4107 174.48H78.9607ZM78.7307 187.68C78.7307 182.39 82.9207 178.89 88.2107 178.89C93.5007 178.89 97.6907 182.39 97.6907 187.68V196.84C97.6907 202.13 93.5007 205.67 88.2107 205.67C82.9207 205.67 78.7307 202.13 78.7307 196.84V187.68ZM94.9207 196.7V187.82C94.9207 183.96 92.0207 181.29 88.2007 181.29C84.3807 181.29 81.4807 183.96 81.4807 187.82V196.7C81.4807 200.57 84.4207 203.28 88.2007 203.28C91.9807 203.28 94.9207 200.57 94.9207 196.7ZM103.751 205.95V166.52C103.751 165.78 104.351 165.23 105.131 165.23C105.911 165.23 106.511 165.78 106.511 166.52V183.5H114.421V166.52C114.421 165.78 115.021 165.23 115.801 165.23C116.581 165.23 117.181 165.78 117.181 166.52V205.95C117.181 206.69 116.581 207.24 115.801 207.24C115.021 207.24 114.421 206.69 114.421 205.95V185.89H106.511V205.95C106.511 206.69 105.911 207.24 105.131 207.24C104.351 207.24 103.751 206.69 103.751 205.95Z" fill="white"/>
<path d="M123.3 202.77C123.3 202.31 123.53 201.9 123.9 201.67C128.96 198.54 136.55 190.86 136.55 181.2V167.81C136.55 167.07 137.15 166.52 137.93 166.52C138.71 166.52 139.31 167.07 139.31 167.81V181.2C139.31 190.86 146.9 198.54 151.96 201.67C152.33 201.9 152.56 202.31 152.56 202.77C152.56 203.46 151.96 204.06 151.27 204.06C150.99 204.06 150.76 203.97 150.53 203.83C145.19 200.56 139.21 193.89 137.92 187.22C136.63 193.89 130.65 200.56 125.31 203.83C125.08 203.97 124.85 204.06 124.57 204.06C123.83 204.06 123.28 203.51 123.28 202.77H123.3ZM159.55 205.94V166.51C159.55 165.77 160.15 165.22 160.93 165.22C161.71 165.22 162.31 165.77 162.31 166.51V205.94C162.31 206.68 161.71 207.23 160.93 207.23C160.15 207.23 159.55 206.68 159.55 205.94Z" fill="white"/>
<path d="M171.78 169.88C171.14 169.88 170.58 169.37 170.58 168.68C170.58 168.04 171.13 167.48 171.78 167.48H188.34C188.98 167.48 189.54 168.03 189.54 168.68C189.54 169.37 188.99 169.88 188.34 169.88H171.78ZM170.72 203.42V180.19C170.72 179.27 171.27 178.72 172.19 178.72H188.11C188.75 178.72 189.31 179.27 189.31 179.92C189.31 180.61 188.76 181.12 188.11 181.12H173.48V202.37C179 202.14 184.48 201.45 189.95 200.02C190.73 199.79 191.28 200.48 191.28 201.17C191.28 201.77 190.91 202.23 190.22 202.41C184.24 203.88 178.21 204.57 172.23 204.8C171.26 204.85 170.71 204.39 170.71 203.42H170.72ZM195.7 205.95V166.52C195.7 165.78 196.3 165.23 197.08 165.23C197.86 165.23 198.46 165.78 198.46 166.52V183.5H206.42V166.52C206.42 165.78 207.02 165.23 207.8 165.23C208.58 165.23 209.18 165.78 209.18 166.52V205.95C209.18 206.69 208.58 207.24 207.8 207.24C207.02 207.24 206.42 206.69 206.42 205.95V185.89H198.46V205.95C198.46 206.69 197.86 207.24 197.08 207.24C196.3 207.24 195.7 206.69 195.7 205.95Z" fill="white"/>
<path d="M216.131 205.67C215.491 205.67 214.931 205.12 214.931 204.47C214.931 203.78 215.481 203.27 216.131 203.27H255.601C256.241 203.27 256.801 203.78 256.801 204.47C256.801 205.11 256.251 205.67 255.601 205.67H216.131ZM247.641 194.58C249.251 186.07 250.401 177.51 250.681 169H219.171C218.531 169 217.971 168.49 217.971 167.8C217.971 167.16 218.521 166.6 219.171 166.6H252.111C253.081 166.6 253.541 167.15 253.541 168.12C253.221 177 252.021 185.88 250.411 194.76C250.271 195.5 249.671 196.05 248.981 196.05C248.201 196.05 247.511 195.36 247.651 194.58H247.641Z" fill="white"/>
<path d="M292.911 201.49C292.911 202.13 292.401 202.59 291.811 202.73C282.061 204.62 272.351 205.26 262.601 205.58C261.961 205.63 261.311 205.07 261.311 204.38C261.311 203.78 261.821 203.23 262.411 203.23C266.691 203.09 270.921 202.86 275.201 202.54V193.66C275.201 192.92 275.801 192.42 276.581 192.42C277.361 192.42 277.961 192.93 277.961 193.66V202.26C282.511 201.85 287.071 201.2 291.621 200.33C292.261 200.24 292.911 200.79 292.911 201.48V201.49ZM263.881 180.1V176.01C263.881 169.39 269.541 165.89 276.391 165.89C283.241 165.89 288.901 169.39 288.901 176.01V180.1C288.901 186.68 283.241 190.18 276.391 190.18C269.541 190.18 263.881 186.68 263.881 180.1ZM266.641 180.1C266.641 184.88 270.871 187.78 276.391 187.78C281.911 187.78 286.141 184.88 286.141 180.1V176.01C286.141 171.13 281.951 168.28 276.391 168.28C270.831 168.28 266.641 171.13 266.641 176.01V180.1ZM304.181 183.09C304.821 183.09 305.381 183.6 305.381 184.29C305.381 184.93 304.831 185.49 304.181 185.49H298.611V205.96C298.611 206.7 298.011 207.25 297.231 207.25C296.451 207.25 295.851 206.7 295.851 205.96V166.53C295.851 165.79 296.451 165.24 297.231 165.24C298.011 165.24 298.611 165.79 298.611 166.53V183.09H304.181Z" fill="white"/>
<path d="M347.42 171.95H322.39C321.75 171.95 321.19 171.4 321.19 170.75C321.19 170.06 321.74 169.55 322.39 169.55H333.52V165.32C333.52 164.58 334.12 164.08 334.9 164.08C335.68 164.08 336.28 164.59 336.28 165.32V169.55H347.41C348.05 169.55 348.61 170.06 348.61 170.75C348.61 171.39 348.06 171.95 347.41 171.95H347.42ZM329.34 188.51C325.52 188.51 322.53 185.84 322.53 181.89C322.53 177.94 325.52 175.27 329.34 175.27H340.52C344.29 175.27 347.28 177.89 347.28 181.89C347.28 185.89 344.29 188.51 340.52 188.51H329.34ZM357.31 192.37C358.23 192.37 358.78 192.92 358.78 193.84V205.94C358.78 206.68 358.18 207.23 357.4 207.23C356.62 207.23 356.02 206.68 356.02 205.94V205.66L325.98 207.04C325.01 207.09 324.46 206.53 324.46 205.57V193.84C324.46 192.92 325.01 192.37 325.93 192.37H357.31ZM330.07 186.11H339.73C342.77 186.11 344.52 184.22 344.52 181.88C344.52 179.54 342.77 177.65 339.73 177.65H330.07C327.08 177.65 325.29 179.54 325.29 181.88C325.29 184.22 327.08 186.11 330.07 186.11ZM327.22 204.56L356.02 203.27V194.76H327.22V204.56ZM363.98 175.25C364.62 175.25 365.18 175.8 365.18 176.45C365.18 177.14 364.63 177.65 363.98 177.65H358.78V188.78C358.78 189.52 358.18 190.07 357.4 190.07C356.62 190.07 356.02 189.52 356.02 188.78V166.51C356.02 165.77 356.62 165.22 357.4 165.22C358.18 165.22 358.78 165.77 358.78 166.51V175.25H363.98Z" fill="white"/>
<path d="M375.84 167.49C376.94 167.49 377.54 168.13 377.54 169.24V169.65C377.54 186.58 376.76 196.29 369.67 202.87C369.39 203.1 369.07 203.24 368.7 203.24C367.96 203.24 367.32 202.64 367.32 201.91C367.32 201.45 367.55 201.08 367.83 200.85C374.13 195.61 374.78 186.5 374.78 169.89H368.98C368.34 169.89 367.78 169.38 367.78 168.69C367.78 168.05 368.33 167.49 368.98 167.49H375.83H375.84ZM398.52 166.52V205.95C398.52 206.69 397.92 207.24 397.14 207.24C396.36 207.24 395.76 206.69 395.76 205.95V185.98H388.08C387.02 195.09 384.68 200.56 380.21 205.03C379.98 205.26 379.61 205.44 379.24 205.44C378.46 205.44 377.86 204.84 377.86 204.06C377.86 203.69 378.04 203.32 378.32 203.05C384.25 197.48 386.05 189.11 386.05 169.88H380.25C379.61 169.88 379.05 169.37 379.05 168.68C379.05 168.04 379.6 167.48 380.25 167.48H387.11C388.21 167.48 388.81 168.12 388.81 169.23V169.64C388.81 175.02 388.67 179.62 388.3 183.58H395.75V166.51C395.75 165.77 396.35 165.22 397.13 165.22C397.91 165.22 398.51 165.77 398.51 166.51L398.52 166.52ZM406.98 166.52V205.95C406.98 206.69 406.38 207.24 405.6 207.24C404.82 207.24 404.22 206.69 404.22 205.95V166.52C404.22 165.78 404.82 165.23 405.6 165.23C406.38 165.23 406.98 165.78 406.98 166.52Z" fill="white"/>
<path d="M429.75 176.78C429.75 180 432.37 181.15 438.67 183.86C447.69 187.72 449.3 189.57 449.3 194.72V198.91C449.3 204.71 444.52 207.74 437.94 207.74C431.36 207.74 426.67 204.7 426.67 198.91V196.33C426.67 195.41 427.18 194.86 428.05 194.86C428.97 194.86 429.48 195.41 429.48 196.33V198.81C429.48 202.81 432.84 205.3 437.99 205.3C443.14 205.3 446.5 202.82 446.5 198.81V195.18C446.5 190.76 444.66 189.52 437.53 186.44C429.34 182.94 426.95 181.15 426.95 176.82V173.32C426.95 167.57 431.46 164.53 437.99 164.53C444.52 164.53 449.03 167.57 449.03 173.32V175.67C449.03 176.59 448.52 177.14 447.6 177.14C446.68 177.14 446.22 176.59 446.22 175.67V173.46C446.22 169.46 443.05 166.97 437.98 166.97C432.91 166.97 429.75 169.41 429.75 173.41V176.77V176.78Z" fill="white"/>
<path d="M477.411 166.8V205.49C477.411 206.41 476.901 206.96 475.941 206.96H475.571C474.741 206.96 474.141 206.59 473.781 205.72L458.141 171.08V205.49C458.141 206.41 457.631 206.96 456.761 206.96C455.931 206.96 455.381 206.41 455.381 205.49V166.8C455.381 165.88 455.931 165.33 456.851 165.33H457.261C458.041 165.33 458.641 165.7 459.011 166.57L474.651 201.26V166.8C474.651 165.88 475.201 165.33 476.031 165.33C476.901 165.33 477.411 165.88 477.411 166.8Z" fill="white"/>
<path d="M486.61 176.78C486.61 180 489.23 181.15 495.53 183.86C504.55 187.72 506.16 189.57 506.16 194.72V198.91C506.16 204.71 501.38 207.74 494.8 207.74C488.22 207.74 483.53 204.7 483.53 198.91V196.33C483.53 195.41 484.04 194.86 484.91 194.86C485.83 194.86 486.34 195.41 486.34 196.33V198.81C486.34 202.81 489.7 205.3 494.85 205.3C500 205.3 503.36 202.82 503.36 198.81V195.18C503.36 190.76 501.52 189.52 494.39 186.44C486.2 182.94 483.81 181.15 483.81 176.82V173.32C483.81 167.57 488.32 164.53 494.85 164.53C501.38 164.53 505.89 167.57 505.89 173.32V175.67C505.89 176.59 505.38 177.14 504.46 177.14C503.54 177.14 503.08 176.59 503.08 175.67V173.46C503.08 169.46 499.91 166.97 494.84 166.97C489.77 166.97 486.61 169.41 486.61 173.41V176.77V176.78Z" fill="white"/>
<path d="M541.581 166.52V205.95C541.581 206.69 540.981 207.24 540.201 207.24C539.421 207.24 538.821 206.69 538.821 205.95V185.98H530.721V196.52C530.721 201.95 526.671 205.68 521.471 205.68C516.271 205.68 512.181 201.95 512.181 196.52V174.85C512.181 169.42 516.271 165.7 521.471 165.7C526.671 165.7 530.721 169.43 530.721 174.85V183.59H538.821V166.52C538.821 165.78 539.421 165.23 540.201 165.23C540.981 165.23 541.581 165.78 541.581 166.52ZM527.961 174.85C527.961 170.89 525.111 168.09 521.471 168.09C517.831 168.09 514.941 170.9 514.941 174.85V196.52C514.941 200.52 517.791 203.28 521.471 203.28C525.151 203.28 527.961 200.52 527.961 196.52V174.85ZM550.641 166.52V205.95C550.641 206.69 550.041 207.24 549.261 207.24C548.481 207.24 547.881 206.69 547.881 205.95V166.52C547.881 165.78 548.481 165.23 549.261 165.23C550.041 165.23 550.641 165.78 550.641 166.52Z" fill="white"/>
<path d="M571.381 186.58C570.741 186.58 570.181 186.07 570.181 185.38C570.181 184.74 570.731 184.18 571.381 184.18H587.671V176.22C587.671 175.48 588.271 174.98 589.051 174.98C589.831 174.98 590.431 175.49 590.431 176.22V184.18H610.861C611.501 184.18 612.061 184.73 612.061 185.38C612.061 186.07 611.511 186.58 610.861 186.58H571.391H571.381ZM580.301 207.14C575.471 207.14 572.891 203.55 572.891 199.55C572.891 195.55 575.471 192.05 580.301 192.05H601.921C606.751 192.05 609.331 195.64 609.331 199.55C609.331 203.46 606.751 207.14 601.921 207.14H580.301ZM604.131 179.03C605.051 175.49 605.511 172.08 605.921 168.54H574.771C574.131 168.54 573.571 168.03 573.571 167.34C573.571 166.7 574.121 166.14 574.771 166.14H607.341C608.311 166.14 608.861 166.69 608.771 167.66C608.311 171.53 607.851 175.39 606.931 179.25C606.751 179.94 606.191 180.49 605.411 180.49C604.581 180.49 603.941 179.75 604.121 179.02L604.131 179.03ZM601.551 204.75C604.491 204.75 606.561 202.59 606.561 199.55C606.561 196.51 604.491 194.44 601.551 194.44H580.621C577.721 194.44 575.651 196.56 575.651 199.55C575.651 202.54 577.721 204.75 580.621 204.75H601.551Z" fill="white"/>
<path d="M624.931 205.72C626.681 201.81 627.831 197.58 628.381 193.21H617.381C616.741 193.21 616.181 192.66 616.181 192.01C616.181 191.32 616.731 190.81 617.381 190.81H656.851C657.491 190.81 658.051 191.32 658.051 192.01C658.051 192.65 657.501 193.21 656.851 193.21H647.461V206.18C647.461 206.92 646.861 207.47 646.081 207.47C645.301 207.47 644.701 206.92 644.701 206.18V193.21H631.171C630.531 197.81 629.471 202.18 627.581 206.46C627.301 207.06 626.841 207.47 626.151 207.47C625.181 207.47 624.451 206.73 624.911 205.72H624.931ZM629.071 184.74C623.001 184.74 618.581 180.74 618.581 175.54C618.581 170.34 623.001 166.34 629.071 166.34H645.171C651.241 166.34 655.661 170.3 655.661 175.54C655.661 180.78 651.241 184.74 645.171 184.74H629.071ZM644.761 182.35C649.451 182.35 652.901 179.54 652.901 175.54C652.901 171.54 649.451 168.73 644.761 168.73H629.491C624.841 168.73 621.351 171.54 621.351 175.54C621.351 179.54 624.851 182.35 629.491 182.35H644.761Z" fill="white"/>
<path d="M664.211 174.48C663.571 174.48 663.011 173.97 663.011 173.28C663.011 172.64 663.561 172.08 664.211 172.08H672.081V165.78C672.081 165.04 672.681 164.54 673.461 164.54C674.241 164.54 674.841 165.05 674.841 165.78V172.08H682.661C683.301 172.08 683.861 172.63 683.861 173.28C683.861 173.97 683.311 174.48 682.661 174.48H664.211ZM663.981 187.68C663.981 182.39 668.171 178.89 673.461 178.89C678.751 178.89 682.941 182.39 682.941 187.68V196.84C682.941 202.13 678.751 205.67 673.461 205.67C668.171 205.67 663.981 202.13 663.981 196.84V187.68ZM680.171 196.7V187.82C680.171 183.96 677.271 181.29 673.451 181.29C669.631 181.29 666.731 183.96 666.731 187.82V196.7C666.731 200.57 669.671 203.28 673.451 203.28C677.231 203.28 680.171 200.57 680.171 196.7ZM689.001 205.95V166.52C689.001 165.78 689.601 165.23 690.381 165.23C691.161 165.23 691.761 165.78 691.761 166.52V183.5H699.671V166.52C699.671 165.78 700.271 165.23 701.051 165.23C701.831 165.23 702.431 165.78 702.431 166.52V205.95C702.431 206.69 701.831 207.24 701.051 207.24C700.271 207.24 699.671 206.69 699.671 205.95V185.89H691.761V205.95C691.761 206.69 691.161 207.24 690.381 207.24C689.601 207.24 689.001 206.69 689.001 205.95Z" fill="white"/>
<path d="M708.56 202.77C708.56 202.31 708.79 201.9 709.16 201.67C714.13 198.59 721.58 190.86 721.58 181.2V167.81C721.58 167.07 722.18 166.52 722.96 166.52C723.74 166.52 724.34 167.07 724.34 167.81V181.2C724.34 190.86 731.79 198.59 736.76 201.67C737.13 201.9 737.36 202.31 737.36 202.77C737.36 203.46 736.76 204.06 736.07 204.06C735.79 204.06 735.56 203.97 735.33 203.83C730.09 200.56 724.24 193.89 722.95 187.22C721.66 193.89 715.82 200.56 710.57 203.83C710.34 203.97 710.11 204.06 709.83 204.06C709.09 204.06 708.54 203.51 708.54 202.77H708.56ZM744.81 205.94V183.81H734.27C733.63 183.81 733.07 183.3 733.07 182.61C733.07 181.97 733.62 181.41 734.27 181.41H744.81V166.5C744.81 165.76 745.41 165.21 746.19 165.21C746.97 165.21 747.57 165.76 747.57 166.5V205.93C747.57 206.67 746.97 207.22 746.19 207.22C745.41 207.22 744.81 206.67 744.81 205.93V205.94Z" fill="white"/>
<path d="M47.4004 270.46V235.96C47.4004 235.04 47.9504 234.49 48.8704 234.49H68.1504C68.7904 234.49 69.3504 235.04 69.3504 235.69C69.3504 236.38 68.8004 236.89 68.1504 236.89H50.1604V269.32C56.3704 269.04 63.0004 268.26 70.1304 266.51C70.7704 266.33 71.4204 266.97 71.4204 267.71C71.4204 268.31 70.9604 268.86 70.3604 269C63.2304 270.75 56.0504 271.53 48.9204 271.85C47.9504 271.85 47.4004 271.44 47.4004 270.47V270.46ZM80.0204 272.94V252.93H67.1404C66.5004 252.93 65.9404 252.38 65.9404 251.73C65.9404 251.04 66.4904 250.53 67.1404 250.53H80.0204V233.51C80.0204 232.77 80.6204 232.22 81.4004 232.22C82.1804 232.22 82.7804 232.77 82.7804 233.51V272.94C82.7804 273.68 82.1804 274.23 81.4004 274.23C80.6204 274.23 80.0204 273.68 80.0204 272.94Z" fill="white"/>
<path d="M106.83 252.11C105.91 252.11 105.36 251.56 105.36 250.64V234.91C105.36 233.99 105.91 233.44 106.83 233.44H126.29C127.21 233.44 127.76 233.99 127.76 234.91V250.64C127.76 251.56 127.21 252.11 126.29 252.11H106.83ZM108.67 274.1C107.75 274.1 107.2 273.55 107.2 272.63V258.28C107.2 257.54 107.8 257.04 108.58 257.04C109.36 257.04 109.96 257.55 109.96 258.28V271.71H121C121.64 271.71 122.2 272.22 122.2 272.91C122.2 273.55 121.65 274.11 121 274.11H108.67V274.1ZM108.12 249.72H125V235.83H108.12V249.72ZM123.49 261.82C122.85 261.82 122.29 261.31 122.29 260.62C122.29 259.98 122.84 259.42 123.49 259.42H131.63V256.11C131.63 255.37 132.23 254.87 133.01 254.87C133.79 254.87 134.39 255.38 134.39 256.11V259.42H142.72C143.36 259.42 143.92 259.97 143.92 260.62C143.92 261.31 143.37 261.82 142.72 261.82H123.49ZM128.09 274.33C125.33 274.33 122.98 272.12 122.98 269.18C122.98 266.24 125.33 263.98 128.09 263.98H138.17C140.93 263.98 143.28 266.19 143.28 269.18C143.28 272.17 140.93 274.33 138.17 274.33H128.09ZM137.61 271.94C139.17 271.94 140.51 270.88 140.51 269.18C140.51 267.48 139.18 266.37 137.61 266.37H128.64C127.12 266.37 125.74 267.47 125.74 269.18C125.74 270.89 127.12 271.94 128.64 271.94H137.61ZM138.85 253.17V233.53C138.85 232.79 139.45 232.24 140.23 232.24C141.01 232.24 141.61 232.79 141.61 233.53V240.94H146.81C147.45 240.94 148.01 241.49 148.01 242.14C148.01 242.83 147.46 243.34 146.81 243.34H141.61V253.18C141.61 253.92 141.01 254.47 140.23 254.47C139.45 254.47 138.85 253.92 138.85 253.18V253.17Z" fill="white"/>
<path d="M150.761 257.03C150.121 257.03 149.561 256.48 149.561 255.83C149.561 255.14 150.111 254.63 150.761 254.63H190.231C190.871 254.63 191.431 255.14 191.431 255.83C191.431 256.47 190.881 257.03 190.231 257.03H150.761ZM160.241 248.52C155.921 248.52 152.511 245.39 152.511 240.75C152.511 236.11 155.911 232.97 160.241 232.97H180.761C185.081 232.97 188.491 236.05 188.491 240.75C188.491 245.45 185.091 248.52 180.761 248.52H160.241ZM154.441 274.1C153.521 274.1 152.971 273.55 152.971 272.63V262.28C152.971 261.54 153.571 261.04 154.351 261.04C155.131 261.04 155.731 261.55 155.731 262.28V271.71H187.661C188.301 271.71 188.861 272.22 188.861 272.91C188.861 273.55 188.311 274.11 187.661 274.11H154.441V274.1ZM180.431 246.13C183.421 246.13 185.721 244.11 185.721 240.7C185.721 237.29 183.421 235.36 180.431 235.36H160.561C157.571 235.36 155.271 237.34 155.271 240.7C155.271 244.06 157.571 246.13 160.561 246.13H180.431Z" fill="white"/>
<path d="M209.731 269.87C209.731 269.36 210.011 268.9 210.421 268.67C215.431 265.82 222.981 258.27 222.981 248.66V237.25H212.351C211.711 237.25 211.151 236.74 211.151 236.05C211.151 235.41 211.701 234.85 212.351 234.85H236.361C237.001 234.85 237.561 235.4 237.561 236.05C237.561 236.74 237.011 237.25 236.361 237.25H225.731V248.66C225.731 258.28 233.321 265.82 238.341 268.67C238.751 268.9 239.031 269.36 239.031 269.87C239.031 270.61 238.391 271.2 237.651 271.2C237.421 271.2 237.191 271.15 236.961 271.02C231.671 267.98 225.691 261.45 224.351 254.83C223.021 261.45 217.081 267.99 211.741 271.02C211.511 271.16 211.281 271.2 211.051 271.2C210.311 271.2 209.721 270.6 209.721 269.87H209.731ZM245.981 272.95V233.52C245.981 232.78 246.581 232.23 247.361 232.23C248.141 232.23 248.741 232.78 248.741 233.52V272.95C248.741 273.69 248.141 274.24 247.361 274.24C246.581 274.24 245.981 273.69 245.981 272.95Z" fill="white"/>
<path d="M274.87 273.41V257.63H256.56C255.92 257.63 255.36 257.08 255.36 256.43C255.36 255.74 255.91 255.23 256.56 255.23H296.03C296.67 255.23 297.23 255.74 297.23 256.43C297.23 257.07 296.68 257.63 296.03 257.63H277.63V273.41C277.63 274.15 277.03 274.7 276.25 274.7C275.47 274.7 274.87 274.15 274.87 273.41ZM288.72 250.45C289.87 245.62 290.61 240.79 291.02 236H259.6C258.96 236 258.4 235.49 258.4 234.8C258.4 234.16 258.95 233.6 259.6 233.6H292.54C293.51 233.6 293.97 234.15 293.92 235.16C293.46 240.31 292.68 245.56 291.44 250.71C291.26 251.4 290.7 251.81 289.97 251.81C289.19 251.81 288.5 251.21 288.73 250.43L288.72 250.45Z" fill="white"/>
<path d="M304.63 253.86C303.71 253.86 303.16 253.31 303.16 252.39V234.36C303.16 233.62 303.76 233.07 304.54 233.07C305.32 233.07 305.92 233.62 305.92 234.36V240.57H322.8V234.36C322.8 233.62 323.4 233.07 324.18 233.07C324.96 233.07 325.56 233.62 325.56 234.36V252.39C325.56 253.31 325.01 253.86 324.09 253.86H304.63ZM313.23 274.33C308.22 274.33 304.26 271.16 304.26 266.46C304.26 261.76 308.22 258.64 313.23 258.64H331.77C336.78 258.64 340.74 261.77 340.74 266.46C340.74 271.15 336.78 274.33 331.77 274.33H313.23ZM305.92 251.46H322.8V242.95H305.92V251.46ZM331.64 271.93C335.18 271.93 337.99 269.77 337.99 266.46C337.99 263.15 335.18 261.03 331.64 261.03H313.38C309.84 261.03 307.03 263.15 307.03 266.46C307.03 269.77 309.84 271.93 313.38 271.93H331.64ZM336.65 255.83V233.52C336.65 232.78 337.25 232.23 338.03 232.23C338.81 232.23 339.41 232.78 339.41 233.52V241.98H344.61C345.25 241.98 345.81 242.53 345.81 243.18C345.81 243.87 345.26 244.38 344.61 244.38H339.41V255.84C339.41 256.58 338.81 257.13 338.03 257.13C337.25 257.13 336.65 256.58 336.65 255.84V255.83Z" fill="white"/>
<path d="M387.16 233.52V254.82C387.16 255.56 386.56 256.11 385.78 256.11C385 256.11 384.4 255.56 384.4 254.82V244.38H371.93V251.83C371.93 252.75 371.38 253.3 370.46 253.3H351C350.08 253.3 349.53 252.75 349.53 251.83V234.35C349.53 233.61 350.13 233.06 350.91 233.06C351.69 233.06 352.29 233.61 352.29 234.35V240.24H369.17V234.35C369.17 233.61 369.77 233.06 370.55 233.06C371.33 233.06 371.93 233.61 371.93 234.35V241.99H384.4V233.53C384.4 232.79 385 232.24 385.78 232.24C386.56 232.24 387.16 232.79 387.16 233.53V233.52ZM385.69 258.41C386.61 258.41 387.16 258.96 387.16 259.88V272.95C387.16 273.69 386.56 274.24 385.78 274.24C385 274.24 384.4 273.69 384.4 272.95V272.63L352.98 274.06C352.01 274.11 351.46 273.55 351.46 272.59V259.89C351.46 258.97 352.01 258.42 352.93 258.42H385.69V258.41ZM352.29 250.91H369.17V242.63H352.29V250.91ZM354.22 271.57L384.4 270.24V260.81H354.22V271.57Z" fill="white"/>
<path d="M395.531 270.51V235.96C395.531 235.04 396.081 234.49 397.001 234.49H412.271C412.911 234.49 413.471 235.04 413.471 235.69C413.471 236.38 412.921 236.89 412.271 236.89H398.281V269.51C403.071 269.42 408.311 268.77 413.461 267.39C414.151 267.21 414.841 267.8 414.841 268.54C414.841 269.09 414.471 269.55 413.971 269.69C408.221 271.16 402.651 271.81 397.041 271.94C396.071 271.94 395.521 271.43 395.521 270.51H395.531ZM430.861 272.95V252.89H421.521V273.18C421.521 273.92 420.921 274.47 420.141 274.47C419.361 274.47 418.761 273.92 418.761 273.18V233.52C418.761 232.78 419.361 232.23 420.141 232.23C420.921 232.23 421.521 232.78 421.521 233.52V250.5H430.861V233.52C430.861 232.78 431.461 232.23 432.241 232.23C433.021 232.23 433.621 232.78 433.621 233.52V272.95C433.621 273.69 433.021 274.24 432.241 274.24C431.461 274.24 430.861 273.69 430.861 272.95Z" fill="white"/>
<path d="M453.44 252.8H440.19C439.55 252.8 438.99 252.25 438.99 251.6C438.99 250.91 439.54 250.4 440.19 250.4H471.06C471.7 250.4 472.26 250.91 472.26 251.6C472.26 252.24 471.71 252.8 471.06 252.8H456.2C455.69 255.93 455.1 259.06 454.08 262.18C453.9 262.78 453.44 263.33 452.75 263.33C451.88 263.33 451.05 262.59 451.32 261.81C452.29 258.77 452.93 255.78 453.44 252.79V252.8ZM449.39 246.54C445.34 246.54 442.12 243.64 442.12 239.73C442.12 235.82 445.34 232.97 449.39 232.97H460.94C464.99 232.97 468.21 235.87 468.21 239.73C468.21 243.59 464.99 246.54 460.94 246.54H449.39ZM478.93 271.7C479.57 271.7 480.13 272.21 480.13 272.9C480.13 273.54 479.58 274.1 478.93 274.1H445.67C444.75 274.1 444.2 273.55 444.2 272.63V262.51C444.2 261.77 444.8 261.27 445.58 261.27C446.36 261.27 446.96 261.78 446.96 262.51V271.71H478.93V271.7ZM449.81 235.36C447.14 235.36 444.89 237.25 444.89 239.78C444.89 242.31 447.14 244.15 449.81 244.15H460.57C463.24 244.15 465.45 242.26 465.45 239.78C465.45 237.3 463.24 235.36 460.57 235.36H449.81ZM476.35 257.99V233.52C476.35 232.78 476.95 232.23 477.73 232.23C478.51 232.23 479.11 232.78 479.11 233.52V264.9C479.11 265.64 478.51 266.14 477.73 266.14C476.95 266.14 476.35 265.63 476.35 264.9V260.39H462.13C461.49 260.39 460.93 259.84 460.93 259.19C460.93 258.5 461.48 257.99 462.13 257.99H476.35Z" fill="white"/>
<path d="M486.56 252.84C485.92 252.84 485.36 252.29 485.36 251.64C485.36 250.95 485.91 250.44 486.56 250.44H526.03C526.67 250.44 527.23 250.95 527.23 251.64C527.23 252.28 526.68 252.84 526.03 252.84H486.56ZM495.81 245.76C491.62 245.76 488.31 243.18 488.31 239.37C488.31 235.56 491.62 232.97 495.81 232.97H516.79C520.98 232.97 524.29 235.5 524.29 239.37C524.29 243.24 520.98 245.76 516.79 245.76H495.81ZM490.24 274.1C489.32 274.1 488.77 273.55 488.77 272.63V266.01C488.77 265.09 489.32 264.54 490.24 264.54H521.06V259.89H489.82C489.18 259.89 488.62 259.38 488.62 258.69C488.62 258.05 489.17 257.49 489.82 257.49H522.35C523.27 257.49 523.82 258.04 523.82 258.96V265.35C523.82 266.27 523.27 266.82 522.35 266.82H491.53V271.7H523.46C524.1 271.7 524.66 272.21 524.66 272.9C524.66 273.54 524.11 274.1 523.46 274.1H490.25H490.24ZM516.46 243.37C519.31 243.37 521.52 241.85 521.52 239.32C521.52 236.79 519.31 235.36 516.46 235.36H496.13C493.28 235.36 491.07 236.83 491.07 239.32C491.07 241.81 493.28 243.37 496.13 243.37H516.46Z" fill="white"/>
<path d="M546.36 272.67C545.72 272.67 545.16 272.12 545.16 271.47C545.16 270.78 545.71 270.27 546.36 270.27H564.72V259.78C564.72 259.04 565.32 258.54 566.1 258.54C566.88 258.54 567.48 259.05 567.48 259.78V270.27H585.84C586.48 270.27 587.04 270.78 587.04 271.47C587.04 272.11 586.49 272.67 585.84 272.67H546.37H546.36ZM550.04 255.83C549.12 255.83 548.57 255.28 548.57 254.36V235.08C548.57 234.16 549.12 233.61 550.04 233.61H582.15C583.07 233.61 583.62 234.16 583.62 235.08V254.36C583.62 255.28 583.07 255.83 582.15 255.83H550.04ZM551.33 253.44H580.87V236H551.33V253.44Z" fill="white"/>
<path d="M592.96 262V243.32C592.96 237.02 597.97 232.69 604.37 232.69C610.77 232.69 615.78 237.01 615.78 243.32V262C615.78 268.35 610.81 272.67 604.37 272.67C597.93 272.67 592.96 268.35 592.96 262ZM613.02 262.14V243.23C613.02 238.44 609.25 235.09 604.37 235.09C599.49 235.09 595.72 238.45 595.72 243.23V262.14C595.72 266.97 599.49 270.28 604.37 270.28C609.25 270.28 613.02 266.97 613.02 262.14ZM626.09 272.95V233.52C626.09 232.78 626.69 232.23 627.47 232.23C628.25 232.23 628.85 232.78 628.85 233.52V250.08H634.42C635.06 250.08 635.62 250.59 635.62 251.28C635.62 251.92 635.07 252.48 634.42 252.48H628.85V272.95C628.85 273.69 628.25 274.24 627.47 274.24C626.69 274.24 626.09 273.69 626.09 272.95Z" fill="white"/>
<path d="M656.72 273.41V259.98H638.36C637.72 259.98 637.16 259.43 637.16 258.78C637.16 258.09 637.71 257.58 638.36 257.58H677.83C678.47 257.58 679.03 258.09 679.03 258.78C679.03 259.42 678.48 259.98 677.83 259.98H659.47V273.41C659.47 274.15 658.87 274.7 658.09 274.7C657.31 274.7 656.71 274.15 656.71 273.41H656.72ZM639.19 250.96C639.19 250.32 639.65 249.81 640.25 249.76C648.67 248.93 656.44 242.54 656.58 236.69V236.37H640.85C640.21 236.37 639.65 235.86 639.65 235.17C639.65 234.53 640.2 233.97 640.85 233.97H675.35C675.99 233.97 676.55 234.52 676.55 235.17C676.55 235.86 676 236.37 675.35 236.37H659.62V236.69C659.8 242.53 667.53 248.93 675.95 249.76C676.55 249.81 677.01 250.31 677.01 250.96C677.01 251.65 676.41 252.2 675.72 252.16C667.35 251.38 659.85 246.04 658.1 240.06C656.4 246.04 648.9 251.38 640.53 252.16C639.84 252.21 639.2 251.65 639.2 250.96H639.19Z" fill="white"/>
<path d="M683.16 269.91C683.16 269.5 683.39 269.13 683.67 268.9C687.72 265.4 692.78 257.81 692.78 248.29V234.81C692.78 234.07 693.38 233.52 694.16 233.52C694.94 233.52 695.54 234.07 695.54 234.81V248.29C695.54 257.86 700.65 265.45 704.65 268.9C704.93 269.13 705.11 269.5 705.11 269.91C705.11 270.65 704.56 271.2 703.82 271.2C703.5 271.2 703.18 271.06 702.95 270.83C699.22 267.61 695.08 261.49 694.16 254.82C693.24 261.44 689.15 267.56 685.37 270.83C685.14 271.06 684.82 271.2 684.45 271.2C683.76 271.2 683.16 270.65 683.16 269.91ZM711.22 272.95V250.91H703.12C702.48 250.91 701.92 250.4 701.92 249.71C701.92 249.07 702.47 248.51 703.12 248.51H711.22V233.51C711.22 232.77 711.82 232.22 712.6 232.22C713.38 232.22 713.98 232.77 713.98 233.51V272.94C713.98 273.68 713.38 274.23 712.6 274.23C711.82 274.23 711.22 273.68 711.22 272.94V272.95ZM720.65 272.95V233.52C720.65 232.78 721.25 232.23 722.03 232.23C722.81 232.23 723.41 232.78 723.41 233.52V272.95C723.41 273.69 722.81 274.24 722.03 274.24C721.25 274.24 720.65 273.69 720.65 272.95Z" fill="white"/>
<path d="M730.36 272.67C729.72 272.67 729.16 272.12 729.16 271.47C729.16 270.78 729.71 270.27 730.36 270.27H740.76V259.78C740.76 259.04 741.36 258.54 742.14 258.54C742.92 258.54 743.52 259.05 743.52 259.78V270.27H757.18V259.78C757.18 259.04 757.78 258.54 758.56 258.54C759.34 258.54 759.94 259.05 759.94 259.78V270.27H769.83C770.47 270.27 771.03 270.78 771.03 271.47C771.03 272.11 770.48 272.67 769.83 272.67H730.36ZM743.1 256.43C736.34 256.43 731.55 251.46 731.55 244.93C731.55 238.4 736.33 233.38 743.1 233.38H757.09C763.85 233.38 768.64 238.35 768.64 244.93C768.64 251.51 763.85 256.43 757.09 256.43H743.1ZM756.86 254.04C762.06 254.04 765.88 250.27 765.88 244.93C765.88 239.59 762.06 235.77 756.86 235.77H743.38C738.18 235.77 734.32 239.54 734.32 244.93C734.32 250.32 738.18 254.04 743.38 254.04H756.86Z" fill="white"/>
<path d="M778.75 272.86C777.92 272.86 777.42 272.31 777.42 271.48V270.61C777.42 269.78 777.93 269.28 778.75 269.28H779.63C780.46 269.28 780.96 269.79 780.96 270.61V271.48C780.96 272.31 780.45 272.86 779.63 272.86H778.75ZM777.74 249.72V233.16C777.74 232.29 778.38 231.73 779.21 231.73C780.04 231.73 780.64 232.28 780.64 233.16V249.72L780.36 261.22C780.36 262.09 779.85 262.6 779.21 262.6C778.57 262.6 778.06 262.09 778.01 261.22L777.73 249.72H777.74Z" fill="white"/>
</g>
<defs>
<clipPath id="clip0_151_3520">
<rect width="833.11" height="274.7" fill="white"/>
</clipPath>
</defs>
</svg>
