<svg class="tree-image-resource" viewBox="0 0 755 91" fill="none" xmlns="http://www.w3.org/2000/svg">
<g clip-path="url(#clip0_252_3454)">
<path d="M4.0797 12.2501C3.3797 12.2501 3.0097 11.8101 3.0797 11.2501C3.1497 10.6901 3.52964 10.3602 4.26964 10.3602H9.36974L11.7796 1.18C11.8349 0.936105 11.9795 0.721946 12.1849 0.579411C12.3904 0.436877 12.642 0.376293 12.8898 0.409978C13.0298 0.400424 13.1697 0.427045 13.2965 0.487126C13.4233 0.547207 13.5326 0.638851 13.6139 0.753239C13.6952 0.867628 13.7458 1.00093 13.7608 1.14045C13.7759 1.27996 13.7547 1.42106 13.6996 1.55011L11.4396 10.3602H19.0697L21.4296 1.18C21.4844 0.941856 21.6246 0.732019 21.8236 0.590153C22.0226 0.448288 22.2666 0.384194 22.5096 0.409978C23.1396 0.409978 23.5795 0.780114 23.3995 1.55011L21.1398 10.3602H26.1398C26.2767 10.3412 26.4163 10.358 26.5448 10.409C26.6733 10.46 26.7863 10.5437 26.8729 10.6514C26.9595 10.7592 27.0167 10.8875 27.0389 11.024C27.0611 11.1605 27.0476 11.3003 26.9996 11.43C26.9488 11.6556 26.8213 11.8566 26.639 11.9988C26.4567 12.1411 26.2308 12.2157 25.9996 12.21H20.6297L17.9296 22.6402H23.0397C23.1801 22.6257 23.3219 22.6469 23.452 22.7017C23.5821 22.7566 23.6963 22.8433 23.784 22.9539C23.8717 23.0646 23.93 23.1954 23.9537 23.3345C23.9774 23.4737 23.9657 23.6166 23.9195 23.7501C23.8687 23.9756 23.7415 24.1767 23.5592 24.3189C23.3769 24.4611 23.1507 24.5357 22.9195 24.5301H17.4796L14.9996 34.1502C14.941 34.3684 14.8104 34.56 14.6288 34.6944C14.4472 34.8288 14.2254 34.8979 13.9996 34.8902C13.2896 34.8902 12.8897 34.5601 13.0697 33.7801L15.3697 24.5301H7.76964L5.24962 34.1502C5.19102 34.3684 5.06035 34.56 4.87877 34.6944C4.69719 34.8288 4.47538 34.8979 4.24962 34.8902C3.58962 34.8902 3.1397 34.5601 3.3297 33.7801L5.65953 24.5301H0.95958C0.25958 24.5301 -0.11042 24.0901 -0.0404196 23.5301C0.0295804 22.9701 0.369756 22.6002 1.13976 22.6002H6.13976L8.87975 12.17L4.0797 12.2501ZM10.9596 12.2501L8.25963 22.68H15.8497L18.5497 12.2501H10.9596Z" fill="#182E6A"/>
<path d="M30.1304 31.1899C30.1241 30.9893 30.1716 30.7907 30.2684 30.6147C30.3651 30.4388 30.5074 30.292 30.6803 30.1899C34.6803 27.8999 40.7904 21.8301 40.7904 14.1001V4.91992H32.2403C31.9751 4.91992 31.7208 4.81473 31.5333 4.6272C31.3457 4.43966 31.2403 4.18514 31.2403 3.91992C31.2403 3.65471 31.3457 3.40043 31.5333 3.21289C31.7208 3.02535 31.9751 2.91992 32.2403 2.91992H51.5504C51.8156 2.91992 52.0699 3.02535 52.2574 3.21289C52.4449 3.40043 52.5504 3.65471 52.5504 3.91992C52.5504 4.18514 52.4449 4.43966 52.2574 4.6272C52.0699 4.81473 51.8156 4.91992 51.5504 4.91992H43.0003V14.1001C43.0003 21.8301 49.1105 27.8999 53.1405 30.1899C53.3331 30.3164 53.4805 30.5009 53.5618 30.7166C53.6432 30.9322 53.654 31.1679 53.5929 31.3901C53.5317 31.6123 53.4019 31.8094 53.2218 31.9531C53.0416 32.0968 52.8206 32.1797 52.5904 32.1899C52.3935 32.1924 52.1997 32.1406 52.0304 32.04C47.7804 29.6 42.9702 24.34 41.9002 19.04C40.8202 24.36 36.0503 29.62 31.7603 32.04C31.5963 32.1371 31.4094 32.1889 31.2188 32.1904C31.0282 32.1919 30.8407 32.143 30.6751 32.0486C30.5096 31.9541 30.3719 31.8177 30.2762 31.6528C30.1805 31.488 30.1304 31.3007 30.1304 31.1101V31.1899ZM59.2904 33.6699V1.95996C59.2904 1.66557 59.4074 1.38321 59.6156 1.17505C59.8237 0.966884 60.1058 0.850098 60.4002 0.850098C60.6946 0.850098 60.977 0.966884 61.1851 1.17505C61.3933 1.38321 61.5103 1.66557 61.5103 1.95996V33.6699C61.5103 33.9643 61.3933 34.2467 61.1851 34.4548C60.977 34.663 60.6946 34.78 60.4002 34.78C60.1058 34.78 59.8237 34.663 59.6156 34.4548C59.4074 34.2467 59.2904 33.9643 59.2904 33.6699Z" fill="#182E6A"/>
<path d="M82.5195 34.03V21.3401H67.7695C67.5043 21.3401 67.25 21.2347 67.0625 21.0471C66.875 20.8596 66.7695 20.6053 66.7695 20.3401C66.7695 20.0749 66.875 19.8203 67.0625 19.6328C67.25 19.4453 67.5043 19.3401 67.7695 19.3401H99.5195C99.7847 19.3401 100.039 19.4453 100.227 19.6328C100.414 19.8203 100.52 20.0749 100.52 20.3401C100.52 20.6053 100.414 20.8596 100.227 21.0471C100.039 21.2347 99.7847 21.3401 99.5195 21.3401H84.7695V34.03C84.7695 34.3244 84.6525 34.6068 84.4443 34.8149C84.2362 35.0231 83.9538 35.1401 83.6594 35.1401C83.365 35.1401 83.0829 35.0231 82.8748 34.8149C82.6666 34.6068 82.5496 34.3244 82.5496 34.03H82.5195ZM93.6594 15.5701C94.5599 11.7473 95.1783 7.86337 95.5095 3.94995H70.2395C69.9743 3.94995 69.72 3.84476 69.5325 3.65723C69.3449 3.46969 69.2395 3.21517 69.2395 2.94995C69.2395 2.68473 69.3449 2.43046 69.5325 2.24292C69.72 2.05538 69.9743 1.94995 70.2395 1.94995H96.7695C97.5495 1.94995 97.9196 2.38995 97.8796 3.19995C97.5218 7.4135 96.8533 11.5949 95.8796 15.71C95.8171 15.9724 95.6651 16.2048 95.4497 16.3672C95.2343 16.5296 94.969 16.6121 94.6995 16.6001C94.0295 16.6901 93.4694 16.2101 93.6594 15.5801V15.5701Z" fill="#182E6A"/>
<path d="M106.46 18.3201C106.301 18.334 106.141 18.3126 105.99 18.2576C105.84 18.2025 105.704 18.1153 105.591 18.0017C105.479 17.8881 105.392 17.7512 105.339 17.6006C105.285 17.4499 105.265 17.2893 105.28 17.1301V2.63013C105.28 2.33574 105.397 2.05338 105.606 1.84521C105.814 1.63705 106.096 1.52002 106.39 1.52002C106.685 1.52002 106.967 1.63705 107.175 1.84521C107.383 2.05338 107.5 2.33574 107.5 2.63013V7.63013H121.08V2.63013C121.08 2.33574 121.197 2.05338 121.405 1.84521C121.614 1.63705 121.896 1.52002 122.19 1.52002C122.485 1.52002 122.767 1.63705 122.975 1.84521C123.183 2.05338 123.3 2.33574 123.3 2.63013V17.1301C123.314 17.2899 123.293 17.4505 123.238 17.6011C123.183 17.7517 123.096 17.8886 122.982 18.002C122.869 18.1153 122.732 18.2024 122.581 18.2573C122.431 18.3123 122.27 18.3338 122.11 18.3201H106.46ZM113.38 34.78C109.38 34.78 106.16 32.23 106.16 28.46C106.16 24.69 109.35 22.1699 113.38 22.1699H128.29C132.29 22.1699 135.51 24.68 135.51 28.46C135.51 32.24 132.33 34.78 128.29 34.78H113.38ZM107.5 16.3901H121.08V9.55005H107.5V16.3901ZM128.18 32.8601C131.03 32.8601 133.29 31.12 133.29 28.46C133.29 25.8 131.03 24.0901 128.18 24.0901H113.49C110.64 24.0901 108.38 25.79 108.38 28.46C108.38 31.13 110.64 32.8601 113.49 32.8601H128.18ZM132.18 19.9099V1.90991C132.18 1.61552 132.297 1.33341 132.505 1.12524C132.714 0.917079 132.996 0.800049 133.29 0.800049C133.585 0.800049 133.867 0.917079 134.075 1.12524C134.283 1.33341 134.4 1.61552 134.4 1.90991V8.71997H138.58C138.846 8.71997 139.1 8.8254 139.287 9.01294C139.475 9.20048 139.58 9.45475 139.58 9.71997C139.58 9.98519 139.475 10.2397 139.287 10.4272C139.1 10.6148 138.846 10.72 138.58 10.72H134.4V19.9399C134.4 20.2343 134.283 20.5167 134.075 20.7249C133.867 20.933 133.585 21.05 133.29 21.05C132.996 21.05 132.714 20.933 132.505 20.7249C132.297 20.5167 132.18 20.2343 132.18 19.9399V19.9099Z" fill="#182E6A"/>
<path d="M149.77 33.4099C151.097 29.8641 151.99 26.1706 152.429 22.4099H141.52C141.254 22.4099 141 22.3047 140.812 22.1172C140.625 21.9297 140.52 21.6751 140.52 21.4099C140.52 21.1447 140.625 20.8904 140.812 20.7029C141 20.5153 141.254 20.4099 141.52 20.4099H165.979C166.245 20.4099 166.499 20.5153 166.687 20.7029C166.874 20.8904 166.979 21.1447 166.979 21.4099C166.979 21.6751 166.874 21.9297 166.687 22.1172C166.499 22.3047 166.245 22.4099 165.979 22.4099H154.729C154.246 26.2915 153.313 30.1038 151.949 33.77C151.876 34.0129 151.73 34.2279 151.532 34.3867C151.334 34.5455 151.093 34.6407 150.84 34.6599C150.679 34.6766 150.516 34.6542 150.366 34.5942C150.215 34.5343 150.082 34.4386 149.977 34.3157C149.872 34.1927 149.798 34.0462 149.761 33.8884C149.725 33.7307 149.728 33.5664 149.77 33.4099ZM150.209 16.6501C146.029 16.6501 143.07 13.2501 143.07 9.07007C143.07 4.89007 146.069 1.52002 150.209 1.52002H157.1C161.28 1.52002 164.24 4.89007 164.24 9.07007C164.24 13.2501 161.24 16.6501 157.1 16.6501H150.209ZM156.909 14.73C159.839 14.73 162.02 12.1001 162.02 9.07007C162.056 8.36437 161.952 7.65844 161.715 6.99292C161.477 6.3274 161.11 5.71538 160.635 5.19214C160.161 4.6689 159.587 4.24479 158.948 3.94409C158.308 3.64339 157.615 3.47197 156.909 3.43994H150.439C149.034 3.57236 147.729 4.22432 146.778 5.26831C145.828 6.3123 145.301 7.67326 145.301 9.08496C145.301 10.4967 145.828 11.8576 146.778 12.9016C147.729 13.9456 149.034 14.5976 150.439 14.73H156.909ZM170.6 33.6699V1.95996C170.6 1.66557 170.716 1.38321 170.925 1.17505C171.133 0.966884 171.415 0.850098 171.709 0.850098C172.004 0.850098 172.286 0.966884 172.494 1.17505C172.703 1.38321 172.82 1.66557 172.82 1.95996V33.6699C172.82 33.9643 172.703 34.2467 172.494 34.4548C172.286 34.663 172.004 34.78 171.709 34.78C171.415 34.78 171.133 34.663 170.925 34.4548C170.716 34.2467 170.6 33.9643 170.6 33.6699Z" fill="#182E6A"/>
<path d="M179.57 31.71V3.91992C179.557 3.76151 179.578 3.60203 179.632 3.45264C179.686 3.30324 179.773 3.16761 179.885 3.05518C179.998 2.94274 180.133 2.85621 180.283 2.80176C180.432 2.74731 180.592 2.72627 180.75 2.73999H193.04C193.305 2.73999 193.56 2.84542 193.747 3.03296C193.935 3.2205 194.04 3.47477 194.04 3.73999C194.04 4.00521 193.935 4.25949 193.747 4.44702C193.56 4.63456 193.305 4.73999 193.04 4.73999H181.77V30.98C185.893 30.9011 189.992 30.3304 193.98 29.28C194.116 29.2514 194.256 29.2537 194.391 29.2869C194.525 29.3201 194.651 29.3835 194.758 29.4719C194.864 29.5604 194.95 29.6718 195.007 29.7979C195.065 29.924 195.093 30.0613 195.09 30.2C195.085 30.4086 195.015 30.6106 194.889 30.7773C194.764 30.9441 194.589 31.0676 194.39 31.1301C189.934 32.2502 185.364 32.8572 180.77 32.9399C180.605 32.9602 180.438 32.9421 180.281 32.887C180.124 32.8318 179.982 32.7414 179.865 32.6223C179.749 32.5033 179.662 32.3589 179.611 32.2007C179.56 32.0424 179.546 31.8745 179.57 31.71ZM207.99 33.71V17.5801H200.48V33.9001C200.48 34.1945 200.363 34.4767 200.155 34.6848C199.947 34.893 199.665 35.01 199.37 35.01C199.076 35.01 198.794 34.893 198.585 34.6848C198.377 34.4767 198.26 34.1945 198.26 33.9001V2C198.26 1.70561 198.377 1.42325 198.585 1.21509C198.794 1.00692 199.076 0.890137 199.37 0.890137C199.665 0.890137 199.947 1.00692 200.155 1.21509C200.363 1.42325 200.48 1.70561 200.48 2V15.6599H207.99V2C207.99 1.70561 208.107 1.42325 208.315 1.21509C208.524 1.00692 208.806 0.890137 209.1 0.890137C209.395 0.890137 209.677 1.00692 209.885 1.21509C210.093 1.42325 210.21 1.70561 210.21 2V33.71C210.21 34.0044 210.093 34.2867 209.885 34.4949C209.677 34.703 209.395 34.8201 209.1 34.8201C208.806 34.8201 208.524 34.703 208.315 34.4949C208.107 34.2867 207.99 34.0044 207.99 33.71Z" fill="#182E6A"/>
<path d="M214.35 35.3401C213.68 35.3401 213.17 35.01 213.17 34.52C213.17 34.03 213.68 33.71 214.35 33.71H234.22C234.89 33.71 235.37 34.08 235.37 34.52C235.37 34.96 234.89 35.3401 234.22 35.3401H214.35Z" fill="#182E6A"/>
<path d="M237.33 31.1899C237.323 30.9893 237.371 30.7907 237.468 30.6147C237.564 30.4388 237.707 30.292 237.88 30.1899C241.88 27.8999 247.99 21.8301 247.99 14.1001V4.91992H239.44C239.174 4.91992 238.92 4.81473 238.732 4.6272C238.545 4.43966 238.44 4.18514 238.44 3.91992C238.44 3.65471 238.545 3.40043 238.732 3.21289C238.92 3.02535 239.174 2.91992 239.44 2.91992H258.77C259.035 2.91992 259.289 3.02535 259.477 3.21289C259.664 3.40043 259.77 3.65471 259.77 3.91992C259.77 4.18514 259.664 4.43966 259.477 4.6272C259.289 4.81473 259.035 4.91992 258.77 4.91992H250.23V14.1001C250.23 21.8301 256.33 27.8999 260.36 30.1899C260.552 30.3164 260.7 30.5009 260.781 30.7166C260.862 30.9322 260.873 31.1679 260.812 31.3901C260.751 31.6123 260.621 31.8094 260.441 31.9531C260.261 32.0968 260.04 32.1797 259.81 32.1899C259.613 32.1924 259.419 32.1406 259.25 32.04C255 29.6 250.19 24.34 249.11 19.04C248.04 24.36 243.27 29.62 238.98 32.04C238.816 32.1371 238.629 32.1889 238.438 32.1904C238.247 32.1919 238.06 32.143 237.894 32.0486C237.729 31.9541 237.591 31.8177 237.495 31.6528C237.4 31.488 237.35 31.3007 237.35 31.1101L237.33 31.1899ZM266.49 33.6699V1.95996C266.49 1.66557 266.607 1.38321 266.815 1.17505C267.023 0.966884 267.305 0.850098 267.6 0.850098C267.894 0.850098 268.176 0.966884 268.385 1.17505C268.593 1.38321 268.71 1.66557 268.71 1.95996V33.6699C268.71 33.9643 268.593 34.2467 268.385 34.4548C268.176 34.663 267.894 34.78 267.6 34.78C267.305 34.78 267.023 34.663 266.815 34.4548C266.607 34.2467 266.49 33.9643 266.49 33.6699Z" fill="#182E6A"/>
<path d="M289.77 34.03V21.3401H275.05C274.785 21.3401 274.53 21.2347 274.343 21.0471C274.155 20.8596 274.05 20.6053 274.05 20.3401C274.05 20.0749 274.155 19.8203 274.343 19.6328C274.53 19.4453 274.785 19.3401 275.05 19.3401H306.77C307.035 19.3401 307.289 19.4453 307.477 19.6328C307.664 19.8203 307.77 20.0749 307.77 20.3401C307.77 20.6053 307.664 20.8596 307.477 21.0471C307.289 21.2347 307.035 21.3401 306.77 21.3401H291.97V34.03C291.97 34.3244 291.853 34.6068 291.645 34.8149C291.437 35.0231 291.154 35.1401 290.86 35.1401C290.565 35.1401 290.283 35.0231 290.075 34.8149C289.867 34.6068 289.75 34.3244 289.75 34.03H289.77ZM300.91 15.5701C301.81 11.7473 302.429 7.86337 302.76 3.94995H277.49C277.225 3.94995 276.97 3.84476 276.783 3.65723C276.595 3.46969 276.49 3.21517 276.49 2.94995C276.49 2.68473 276.595 2.43046 276.783 2.24292C276.97 2.05538 277.225 1.94995 277.49 1.94995H303.98C304.76 1.94995 305.13 2.38995 305.09 3.19995C304.732 7.4135 304.064 11.5949 303.09 15.71C303.029 15.9733 302.877 16.2069 302.662 16.3696C302.446 16.5324 302.18 16.6141 301.91 16.6001C301.23 16.6901 300.67 16.2101 300.86 15.5801L300.91 15.5701Z" fill="#182E6A"/>
<path d="M312 18.8002C311.735 18.8002 311.481 18.6947 311.293 18.5072C311.105 18.3197 311 18.0654 311 17.8002C311 17.5349 311.105 17.2807 311.293 17.0931C311.481 16.9056 311.735 16.8002 312 16.8002H343.77C344.035 16.8002 344.29 16.9056 344.477 17.0931C344.665 17.2807 344.77 17.5349 344.77 17.8002C344.77 18.0654 344.665 18.3197 344.477 18.5072C344.29 18.6947 344.035 18.8002 343.77 18.8002H312ZM314.95 13.6202C314.791 13.6324 314.631 13.6097 314.482 13.5541C314.333 13.4984 314.197 13.4111 314.085 13.298C313.973 13.1848 313.886 13.0484 313.832 12.8985C313.778 12.7487 313.757 12.5889 313.77 12.43V7.85021C313.757 7.69139 313.778 7.53153 313.832 7.3817C313.886 7.23187 313.973 7.09547 314.085 6.98229C314.197 6.86911 314.333 6.78183 314.482 6.72619C314.631 6.67054 314.791 6.64786 314.95 6.66002H339.77V3.5902H314.64C314.375 3.5902 314.12 3.48477 313.933 3.29723C313.745 3.10969 313.64 2.85542 313.64 2.5902C313.64 2.32498 313.745 2.07046 313.933 1.88292C314.12 1.69539 314.375 1.5902 314.64 1.5902H340.77C340.929 1.57492 341.09 1.5948 341.24 1.64855C341.391 1.7023 341.528 1.78862 341.642 1.90123C341.755 2.01385 341.843 2.14998 341.898 2.30016C341.953 2.45034 341.974 2.6108 341.96 2.77013V7.25011C341.974 7.40944 341.953 7.5699 341.898 7.72008C341.843 7.87026 341.755 8.00639 341.642 8.11901C341.528 8.23162 341.391 8.31794 341.24 8.37169C341.09 8.42544 340.929 8.44532 340.77 8.43004H315.98V11.6102H341.29C341.555 11.6102 341.81 11.7154 341.997 11.9029C342.185 12.0905 342.29 12.345 342.29 12.6102C342.29 12.8754 342.185 13.1297 341.997 13.3173C341.81 13.5048 341.555 13.6102 341.29 13.6102L314.95 13.6202ZM314.95 34.6202C314.791 34.6324 314.631 34.6097 314.482 34.5541C314.333 34.4984 314.197 34.4111 314.085 34.298C313.973 34.1848 313.886 34.0484 313.832 33.8985C313.778 33.7487 313.757 33.5889 313.77 33.43V28.5902C313.757 28.4314 313.778 28.2715 313.832 28.1217C313.886 27.9719 313.973 27.8357 314.085 27.7225C314.197 27.6093 314.333 27.5218 314.482 27.4662C314.631 27.4105 314.791 27.3881 314.95 27.4003H339.77V24.1102H314.64C314.375 24.1102 314.12 24.0048 313.933 23.8173C313.745 23.6297 313.64 23.3754 313.64 23.1102C313.64 22.845 313.745 22.5905 313.933 22.4029C314.12 22.2154 314.375 22.1102 314.64 22.1102H340.77C340.929 22.0949 341.09 22.1148 341.24 22.1686C341.391 22.2223 341.528 22.3086 341.642 22.4213C341.755 22.5339 341.843 22.67 341.898 22.8202C341.953 22.9704 341.974 23.1308 341.96 23.2902V27.9901C341.974 28.1494 341.953 28.3099 341.898 28.4601C341.843 28.6103 341.755 28.7464 341.642 28.859C341.528 28.9716 341.391 29.0579 341.24 29.1117C341.09 29.1654 340.929 29.1853 340.77 29.17H315.98V32.6202H341.66C341.925 32.6202 342.18 32.7254 342.367 32.913C342.555 33.1005 342.66 33.355 342.66 33.6202C342.66 33.8854 342.555 34.1397 342.367 34.3273C342.18 34.5148 341.925 34.6202 341.66 34.6202H314.95Z" fill="#182E6A"/>
<path d="M348.331 31.1899C348.324 30.9893 348.372 30.7907 348.469 30.6147C348.565 30.4388 348.708 30.292 348.881 30.1899C352.881 27.8999 358.991 21.8301 358.991 14.1001V4.91992H350.441C350.175 4.91992 349.921 4.81473 349.733 4.6272C349.546 4.43966 349.441 4.18514 349.441 3.91992C349.441 3.65471 349.546 3.40043 349.733 3.21289C349.921 3.02535 350.175 2.91992 350.441 2.91992H369.771C370.036 2.91992 370.29 3.02535 370.478 3.21289C370.665 3.40043 370.771 3.65471 370.771 3.91992C370.771 4.18514 370.665 4.43966 370.478 4.6272C370.29 4.81473 370.036 4.91992 369.771 4.91992H361.231V14.1001C361.231 21.8301 367.331 27.8999 371.361 30.1899C371.553 30.3164 371.701 30.5009 371.782 30.7166C371.863 30.9322 371.874 31.1679 371.813 31.3901C371.752 31.6123 371.622 31.8094 371.442 31.9531C371.262 32.0968 371.041 32.1797 370.811 32.1899C370.614 32.1924 370.42 32.1406 370.251 32.04C366.001 29.6 361.191 24.34 360.111 19.04C359.041 24.36 354.271 29.62 349.981 32.04C349.817 32.1371 349.63 32.1889 349.439 32.1904C349.248 32.1919 349.061 32.143 348.895 32.0486C348.73 31.9541 348.592 31.8177 348.496 31.6528C348.401 31.488 348.351 31.3007 348.351 31.1101L348.331 31.1899ZM377.491 33.6699V1.95996C377.491 1.66557 377.608 1.38321 377.816 1.17505C378.024 0.966884 378.306 0.850098 378.601 0.850098C378.895 0.850098 379.177 0.966884 379.386 1.17505C379.594 1.38321 379.711 1.66557 379.711 1.95996V33.6699C379.711 33.9643 379.594 34.2467 379.386 34.4548C379.177 34.663 378.895 34.78 378.601 34.78C378.306 34.78 378.024 34.663 377.816 34.4548C377.608 34.2467 377.491 33.9643 377.491 33.6699Z" fill="#182E6A"/>
<path d="M416.71 1.95996V33.6699C416.71 33.9643 416.593 34.2467 416.385 34.4548C416.176 34.663 415.894 34.78 415.6 34.78C415.305 34.78 415.023 34.663 414.815 34.4548C414.607 34.2467 414.49 33.9643 414.49 33.6699V24.3101H404.35C404.085 24.3101 403.83 24.2046 403.642 24.0171C403.455 23.8296 403.35 23.5753 403.35 23.3101C403.35 23.0448 403.455 22.7906 403.642 22.603C403.83 22.4155 404.085 22.3101 404.35 22.3101H414.49V11.8401H404.61C402.87 23.7101 396.69 30.4901 387.22 32.8901C387.089 32.9406 386.949 32.9631 386.809 32.9561C386.669 32.949 386.533 32.9127 386.408 32.8494C386.283 32.7861 386.172 32.697 386.084 32.5884C385.995 32.4797 385.931 32.3537 385.894 32.2185C385.858 32.0833 385.85 31.9419 385.871 31.8035C385.893 31.665 385.943 31.5328 386.019 31.415C386.095 31.2973 386.195 31.197 386.312 31.1204C386.429 31.0437 386.561 30.9923 386.7 30.97C393.88 29.04 398.83 24.45 401.24 16.97H387.62C387.355 16.97 387.1 16.8648 386.912 16.6772C386.725 16.4897 386.62 16.2352 386.62 15.97C386.62 15.7048 386.725 15.4505 386.912 15.2629C387.1 15.0754 387.355 14.97 387.62 14.97H401.77C402.56 11.534 402.933 8.01525 402.88 4.48999H387.11C386.845 4.48999 386.59 4.38456 386.402 4.19702C386.215 4.00949 386.11 3.75521 386.11 3.48999C386.11 3.22477 386.215 2.9705 386.402 2.78296C386.59 2.59542 386.845 2.48999 387.11 2.48999H403.77C403.958 2.47207 404.147 2.49664 404.324 2.56177C404.501 2.62689 404.662 2.73086 404.793 2.86621C404.925 3.00156 405.024 3.16483 405.084 3.34375C405.144 3.52267 405.163 3.71288 405.14 3.90015V4.18994C405.148 6.04317 405.061 7.89566 404.88 9.73999H414.5V1.73999C414.5 1.4456 414.617 1.16324 414.825 0.955078C415.033 0.746913 415.315 0.630127 415.61 0.630127C415.904 0.630127 416.187 0.746913 416.395 0.955078C416.603 1.16324 416.72 1.4456 416.72 1.73999L416.71 1.95996Z" fill="#182E6A"/>
<path d="M423.479 31.6799V17.1301C423.464 16.9713 423.484 16.8109 423.537 16.6606C423.591 16.5104 423.678 16.3741 423.791 16.2612C423.903 16.1484 424.04 16.0619 424.19 16.0081C424.34 15.9542 424.5 15.9344 424.659 15.95H439.279V4.65991H424.279C424.014 4.65991 423.76 4.55472 423.572 4.36719C423.385 4.17965 423.279 3.92513 423.279 3.65991C423.279 3.3947 423.385 3.14042 423.572 2.95288C423.76 2.76534 424.014 2.65991 424.279 2.65991H440.279C440.439 2.64463 440.599 2.66475 440.75 2.71851C440.9 2.77226 441.037 2.85833 441.151 2.97095C441.264 3.08356 441.352 3.21994 441.407 3.37012C441.462 3.5203 441.483 3.68076 441.469 3.84009V16.6101C441.483 16.7694 441.462 16.9299 441.407 17.0801C441.352 17.2303 441.264 17.3664 441.151 17.479C441.037 17.5916 440.9 17.6779 440.75 17.7317C440.599 17.7854 440.439 17.8053 440.279 17.79H425.669V30.6699C431.661 30.4065 437.617 29.6136 443.469 28.3C444.089 28.15 444.469 28.67 444.469 29.3C444.472 29.5412 444.387 29.7752 444.231 29.959C444.075 30.1427 443.858 30.2639 443.619 30.3C437.367 31.6486 431.01 32.4548 424.619 32.71C423.919 32.82 423.479 32.4499 423.479 31.6799ZM450.119 33.6799V1.96997C450.119 1.67558 450.236 1.39322 450.444 1.18506C450.653 0.976893 450.935 0.860107 451.229 0.860107C451.524 0.860107 451.806 0.976893 452.014 1.18506C452.222 1.39322 452.339 1.67558 452.339 1.96997V15.5901H456.819C457.085 15.5901 457.339 15.6953 457.526 15.8828C457.714 16.0703 457.819 16.3249 457.819 16.5901C457.819 16.8553 457.714 17.1096 457.526 17.2971C457.339 17.4847 457.085 17.5901 456.819 17.5901H452.339V33.76C452.339 34.0544 452.222 34.3368 452.014 34.5449C451.806 34.7531 451.524 34.8701 451.229 34.8701C450.935 34.8701 450.653 34.7531 450.444 34.5449C450.236 34.3368 450.119 34.0544 450.119 33.76V33.6799Z" fill="#182E6A"/>
<path d="M473.77 12.2501C473.07 12.2501 472.7 11.8101 472.77 11.2501C472.84 10.6901 473.22 10.3602 473.96 10.3602H479.06L481.47 1.18C481.526 0.936105 481.67 0.721946 481.876 0.579411C482.081 0.436877 482.333 0.376293 482.58 0.409978C482.72 0.400424 482.86 0.427045 482.987 0.487126C483.114 0.547207 483.223 0.638851 483.305 0.753239C483.386 0.867628 483.437 1.00093 483.452 1.14045C483.467 1.27996 483.446 1.42106 483.39 1.55011L481.13 10.3602H488.76L491.13 1.18C491.185 0.94373 491.324 0.735466 491.521 0.593816C491.717 0.452165 491.959 0.386761 492.2 0.409978C492.83 0.409978 493.27 0.780114 493.09 1.55011L490.83 10.3602H495.83C495.967 10.3412 496.107 10.358 496.235 10.409C496.364 10.46 496.477 10.5437 496.564 10.6514C496.65 10.7592 496.707 10.8875 496.73 11.024C496.752 11.1605 496.738 11.3003 496.69 11.43C496.639 11.6556 496.512 11.8566 496.33 11.9988C496.148 12.1411 495.921 12.2157 495.69 12.21H490.32L487.62 22.6402H492.73C492.872 22.6239 493.015 22.6435 493.146 22.6976C493.278 22.7516 493.393 22.8381 493.482 22.949C493.571 23.06 493.63 23.1918 493.655 23.3319C493.679 23.472 493.667 23.6158 493.62 23.7501C493.57 23.9756 493.442 24.1767 493.26 24.3189C493.078 24.4611 492.852 24.5357 492.62 24.5301H487.18L484.7 34.1502C484.642 34.3684 484.511 34.56 484.329 34.6944C484.148 34.8288 483.926 34.8979 483.7 34.8902C482.99 34.8902 482.59 34.5601 482.77 33.7801L485.07 24.5301H477.48L474.97 34.1502C474.912 34.3684 474.781 34.56 474.599 34.6944C474.418 34.8288 474.196 34.8979 473.97 34.8902C473.31 34.8902 472.86 34.5601 473.05 33.7801L475.38 24.5301H470.68C469.98 24.5301 469.61 24.0901 469.68 23.5301C469.688 23.3881 469.726 23.2493 469.791 23.1231C469.857 22.9969 469.948 22.8862 470.06 22.7982C470.172 22.7101 470.301 22.647 470.439 22.6129C470.577 22.5787 470.721 22.5744 470.86 22.6002H475.86L478.6 12.17L473.77 12.2501ZM480.65 12.2501L477.95 22.68H485.54L488.24 12.2501H480.65Z" fill="#182E6A"/>
<path d="M524.381 20.24C516.455 21.3382 508.471 21.9561 500.471 22.0901C500.205 22.0901 499.951 21.9847 499.764 21.7971C499.576 21.6096 499.471 21.3553 499.471 21.0901C499.47 20.8366 499.566 20.5921 499.739 20.4065C499.911 20.2208 500.148 20.1078 500.401 20.0901C503.991 19.9801 507.541 19.8301 511.131 19.6101V14.8H508.501C505.251 14.8 502.881 12.8 502.881 9.46997C502.843 8.66576 502.991 7.8637 503.311 7.12524C503.632 6.38679 504.117 5.73155 504.731 5.20996H501.951C501.685 5.20996 501.431 5.10477 501.244 4.91724C501.056 4.7297 500.951 4.47518 500.951 4.20996C500.951 3.94474 501.056 3.69047 501.244 3.50293C501.431 3.31539 501.685 3.20996 501.951 3.20996H511.021V1.03003C511.057 0.761275 511.189 0.514691 511.394 0.336182C511.598 0.157672 511.86 0.0593262 512.131 0.0593262C512.402 0.0593262 512.664 0.157672 512.868 0.336182C513.072 0.514691 513.205 0.761275 513.241 1.03003V3.40015H522.301C522.566 3.40015 522.82 3.50533 523.008 3.69287C523.195 3.88041 523.301 4.13493 523.301 4.40015C523.301 4.66536 523.195 4.91964 523.008 5.10718C522.82 5.29471 522.566 5.40015 522.301 5.40015H519.571C520.163 5.93828 520.634 6.59663 520.951 7.3313C521.268 8.06597 521.425 8.85977 521.411 9.65991C521.411 12.9499 518.901 14.99 515.641 14.99H513.351V19.6501C517.011 19.3501 520.641 18.9799 524.351 18.4299C524.479 18.4138 524.609 18.4259 524.733 18.4653C524.856 18.5047 524.969 18.5706 525.064 18.6582C525.159 18.7458 525.234 18.8529 525.284 18.9724C525.333 19.0919 525.356 19.2209 525.351 19.3501C525.308 19.5839 525.19 19.7973 525.015 19.958C524.84 20.1187 524.617 20.2177 524.381 20.24ZM529.961 32.6799C530.226 32.6799 530.48 32.7854 530.668 32.9729C530.856 33.1604 530.961 33.4147 530.961 33.6799C530.961 33.9451 530.856 34.1997 530.668 34.3872C530.48 34.5747 530.226 34.6799 529.961 34.6799H504.541C504.381 34.6939 504.221 34.6727 504.071 34.6177C503.921 34.5627 503.784 34.4751 503.672 34.3616C503.559 34.248 503.473 34.1111 503.419 33.9604C503.365 33.8098 503.346 33.6492 503.361 33.49V26.02C503.397 25.7513 503.529 25.5047 503.733 25.3262C503.938 25.1477 504.2 25.0493 504.471 25.0493C504.742 25.0493 505.004 25.1477 505.208 25.3262C505.412 25.5047 505.545 25.7513 505.581 26.02V32.76L529.961 32.6799ZM508.961 12.95H515.321C517.691 12.95 519.211 11.58 519.211 9.21997C519.225 8.71581 519.14 8.21368 518.96 7.74268C518.779 7.27167 518.507 6.8412 518.16 6.47583C517.812 6.11046 517.395 5.81753 516.934 5.61401C516.472 5.41049 515.975 5.30039 515.471 5.29004H508.841C508.338 5.30028 507.843 5.4105 507.384 5.6145C506.924 5.81851 506.51 6.11208 506.166 6.47803C505.821 6.84397 505.553 7.27505 505.377 7.74585C505.201 8.21665 505.121 8.71776 505.141 9.21997C505.105 9.72584 505.18 10.2335 505.36 10.7075C505.54 11.1816 505.821 11.6108 506.184 11.9656C506.546 12.3203 506.981 12.592 507.459 12.762C507.937 12.9319 508.446 12.9961 508.951 12.95H508.961ZM534.261 12.1001C534.526 12.1001 534.78 12.2053 534.968 12.3928C535.155 12.5804 535.261 12.8349 535.261 13.1001C535.261 13.3653 535.155 13.6196 534.968 13.8071C534.78 13.9947 534.526 14.1001 534.261 14.1001H530.091V26.3101C530.065 26.5876 529.936 26.8451 529.729 27.0327C529.523 27.2203 529.255 27.3242 528.976 27.3242C528.697 27.3242 528.428 27.2203 528.222 27.0327C528.016 26.8451 527.887 26.5876 527.861 26.3101V2.03003C527.887 1.75253 528.016 1.4947 528.222 1.30713C528.428 1.11956 528.697 1.01562 528.976 1.01562C529.255 1.01562 529.523 1.11956 529.729 1.30713C529.936 1.4947 530.065 1.75253 530.091 2.03003V12.1699L534.261 12.1001Z" fill="#182E6A"/>
<path d="M555.49 3.29004C555.49 14.17 548.42 18.9101 538.66 19.6501C538.395 19.6501 538.141 19.5447 537.953 19.3572C537.766 19.1696 537.66 18.9154 537.66 18.6501C537.659 18.4029 537.749 18.1639 537.913 17.9792C538.078 17.7946 538.305 17.6773 538.55 17.6501C547.55 16.9401 553.28 12.87 553.28 3.72998H538.77C538.505 3.72998 538.251 3.62479 538.063 3.43726C537.876 3.24972 537.77 2.9952 537.77 2.72998C537.77 2.46476 537.876 2.21049 538.063 2.02295C538.251 1.83541 538.505 1.72998 538.77 1.72998H554.27C554.435 1.71269 554.601 1.7324 554.757 1.7876C554.913 1.84279 555.054 1.93214 555.171 2.04907C555.288 2.166 555.377 2.3075 555.433 2.46338C555.488 2.61926 555.508 2.78549 555.49 2.94995V3.29004ZM561.38 22.1699C565.38 22.1699 568.59 24.68 568.59 28.46C568.59 32.24 565.41 34.78 561.38 34.78H546.32C542.32 34.78 539.1 32.23 539.1 28.46C539.1 24.69 542.28 22.1699 546.32 22.1699H561.38ZM561.26 32.8601C564.11 32.8601 566.37 31.12 566.37 28.46C566.37 25.8 564.11 24.0901 561.26 24.0901H546.43C543.58 24.0901 541.32 25.79 541.32 28.46C541.32 31.13 543.58 32.8601 546.43 32.8601H561.26ZM556.6 15.1401C556.335 15.1401 556.081 15.0347 555.893 14.8472C555.706 14.6596 555.6 14.4054 555.6 14.1401C555.6 13.8749 555.706 13.6204 555.893 13.4329C556.081 13.2453 556.335 13.1401 556.6 13.1401H565.67V7.55005H557.67C557.405 7.55005 557.151 7.44462 556.963 7.25708C556.776 7.06954 556.67 6.81527 556.67 6.55005C556.67 6.28483 556.776 6.03055 556.963 5.84302C557.151 5.65548 557.405 5.55005 557.67 5.55005H565.67V1.81006C565.67 1.51567 565.787 1.23331 565.995 1.02515C566.204 0.816981 566.486 0.699951 566.78 0.699951C567.075 0.699951 567.357 0.816981 567.565 1.02515C567.773 1.23331 567.89 1.51567 567.89 1.81006V19.8101C567.89 20.1044 567.773 20.3868 567.565 20.595C567.357 20.8031 567.075 20.9199 566.78 20.9199C566.486 20.9199 566.204 20.8031 565.995 20.595C565.787 20.3868 565.67 20.1044 565.67 19.8101V15.04L556.6 15.1401Z" fill="#182E6A"/>
<path d="M574.43 33.45C574.164 33.45 573.91 33.3448 573.723 33.1572C573.535 32.9697 573.43 32.7152 573.43 32.45C573.43 32.1847 573.535 31.9305 573.723 31.7429C573.91 31.5554 574.164 31.45 574.43 31.45H589.2V23.3801C589.236 23.1114 589.368 22.8648 589.573 22.6863C589.777 22.5078 590.039 22.4094 590.31 22.4094C590.581 22.4094 590.843 22.5078 591.047 22.6863C591.251 22.8648 591.384 23.1114 591.42 23.3801V31.45H606.18C606.445 31.45 606.699 31.5554 606.887 31.7429C607.075 31.9305 607.18 32.1847 607.18 32.45C607.18 32.7152 607.075 32.9697 606.887 33.1572C606.699 33.3448 606.445 33.45 606.18 33.45H574.43ZM577.43 20.28C577.271 20.2935 577.111 20.2724 576.961 20.218C576.811 20.1636 576.675 20.0773 576.562 19.9651C576.449 19.8529 576.361 19.7175 576.306 19.5681C576.25 19.4188 576.228 19.259 576.24 19.1001V2.78003C576.24 2.48564 576.357 2.20328 576.565 1.99512C576.773 1.78695 577.055 1.66992 577.35 1.66992C577.644 1.66992 577.927 1.78695 578.135 1.99512C578.343 2.20328 578.46 2.48564 578.46 2.78003V8.33008H602.22V2.78003C602.22 2.48564 602.337 2.20328 602.545 1.99512C602.753 1.78695 603.035 1.66992 603.33 1.66992C603.624 1.66992 603.907 1.78695 604.115 1.99512C604.323 2.20328 604.44 2.48564 604.44 2.78003V19.1001C604.452 19.259 604.429 19.4188 604.374 19.5681C604.318 19.7175 604.231 19.8529 604.117 19.9651C604.004 20.0773 603.868 20.1636 603.718 20.218C603.568 20.2724 603.409 20.2935 603.25 20.28H577.43ZM578.43 18.3501H602.19V10.25H578.43V18.3501Z" fill="#182E6A"/>
<path d="M611.43 33.45C611.164 33.45 610.91 33.3448 610.723 33.1572C610.535 32.9697 610.43 32.7152 610.43 32.45C610.43 32.1847 610.535 31.9305 610.723 31.7429C610.91 31.5554 611.164 31.45 611.43 31.45H626.2V25.1599C626.236 24.8912 626.368 24.6448 626.573 24.4663C626.777 24.2878 627.039 24.1895 627.31 24.1895C627.581 24.1895 627.843 24.2878 628.047 24.4663C628.251 24.6448 628.384 24.8912 628.42 25.1599V31.45H643.18C643.445 31.45 643.699 31.5554 643.887 31.7429C644.075 31.9305 644.18 32.1847 644.18 32.45C644.18 32.7152 644.075 32.9697 643.887 33.1572C643.699 33.3448 643.445 33.45 643.18 33.45H611.43ZM612.88 7.17993C612.615 7.17993 612.36 7.07474 612.173 6.88721C611.985 6.69967 611.88 6.44515 611.88 6.17993C611.88 5.91472 611.985 5.66044 612.173 5.4729C612.36 5.28536 612.615 5.17993 612.88 5.17993H626.2V1.03003C626.236 0.761275 626.368 0.514691 626.573 0.336182C626.777 0.157672 627.039 0.0593262 627.31 0.0593262C627.581 0.0593262 627.843 0.157672 628.047 0.336182C628.251 0.514691 628.384 0.761275 628.42 1.03003V5.29004H641.7C641.965 5.29004 642.219 5.39547 642.407 5.58301C642.595 5.77054 642.7 6.02482 642.7 6.29004C642.7 6.55526 642.595 6.80953 642.407 6.99707C642.219 7.18461 641.965 7.29004 641.7 7.29004L612.88 7.17993ZM620.28 22.6101C615.99 22.6101 613.03 19.9501 613.03 16.3901C613.03 12.8301 616.03 10.1799 620.28 10.1799H634.34C638.63 10.1799 641.59 12.8401 641.59 16.3901C641.59 19.9401 638.59 22.6101 634.34 22.6101H620.28ZM634.12 20.6899C637.12 20.6899 639.37 18.8701 639.37 16.3901C639.37 13.9101 637.15 12.1001 634.12 12.1001H620.5C617.5 12.1001 615.25 13.9101 615.25 16.3901C615.25 18.8701 617.47 20.6899 620.5 20.6899H634.12Z" fill="#182E6A"/>
<path d="M664.201 3.15015C664.201 13.4701 658.021 17.9801 649.691 18.8701C649.554 18.8797 649.416 18.8609 649.287 18.8149C649.157 18.769 649.039 18.6969 648.938 18.603C648.838 18.5092 648.758 18.3957 648.703 18.2695C648.649 18.1434 648.621 18.0075 648.621 17.8701C648.618 17.629 648.703 17.3949 648.859 17.2112C649.015 17.0274 649.233 16.9063 649.471 16.8701C654.321 16.3501 658.241 14.43 660.311 10.76H650.141C649.876 10.76 649.621 10.6546 649.434 10.467C649.246 10.2795 649.141 10.0252 649.141 9.76001C649.141 9.49479 649.246 9.24051 649.434 9.05298C649.621 8.86544 649.876 8.76001 650.141 8.76001H661.201C661.748 7.11293 662.011 5.3853 661.981 3.65015H649.771C649.506 3.65015 649.252 3.54471 649.064 3.35718C648.876 3.16964 648.771 2.91536 648.771 2.65015C648.771 2.38493 648.876 2.13041 649.064 1.94287C649.252 1.75533 649.506 1.65015 649.771 1.65015H663.201C663.335 1.63785 663.471 1.65527 663.598 1.70117C663.725 1.74708 663.84 1.82034 663.935 1.91577C664.031 2.0112 664.104 2.12626 664.15 2.25317C664.196 2.38009 664.213 2.51575 664.201 2.65015V3.15015ZM678.671 22.03C678.83 22.0145 678.99 22.0343 679.14 22.0881C679.291 22.1419 679.427 22.2285 679.54 22.3413C679.653 22.4541 679.739 22.5905 679.793 22.7407C679.847 22.8909 679.867 23.0511 679.851 23.21V33.6401C679.851 33.9345 679.734 34.2166 679.526 34.4248C679.318 34.633 679.035 34.75 678.741 34.75C678.447 34.75 678.164 34.633 677.956 34.4248C677.748 34.2166 677.631 33.9345 677.631 33.6401V33.4199L651.691 34.53C651.529 34.5521 651.364 34.537 651.209 34.4861C651.054 34.4352 650.912 34.3497 650.794 34.2361C650.677 34.1225 650.587 33.9838 650.531 33.8303C650.475 33.6768 650.454 33.5127 650.471 33.3501V23.21C650.457 23.0506 650.478 22.8902 650.534 22.74C650.589 22.5898 650.676 22.4537 650.789 22.3411C650.903 22.2284 651.04 22.1421 651.19 22.0884C651.341 22.0346 651.502 22.0147 651.661 22.03H678.671ZM652.671 32.53L677.611 31.53V24.03H652.671V32.53ZM679.831 1.92993V19.1401C679.831 19.4345 679.714 19.7166 679.506 19.9248C679.298 20.133 679.015 20.25 678.721 20.25C678.427 20.25 678.144 20.133 677.936 19.9248C677.728 19.7166 677.611 19.4345 677.611 19.1401V10.74H671.021V19.1401C671.021 19.4345 670.904 19.7166 670.696 19.9248C670.488 20.133 670.205 20.25 669.911 20.25C669.617 20.25 669.334 20.133 669.126 19.9248C668.918 19.7166 668.801 19.4345 668.801 19.1401V1.92993C668.801 1.63554 668.918 1.35318 669.126 1.14502C669.334 0.936854 669.617 0.820068 669.911 0.820068C670.205 0.820068 670.488 0.936854 670.696 1.14502C670.904 1.35318 671.021 1.63554 671.021 1.92993V8.82007H677.611V1.92993C677.611 1.63554 677.728 1.35318 677.936 1.14502C678.144 0.936854 678.427 0.820068 678.721 0.820068C679.015 0.820068 679.298 0.936854 679.506 1.14502C679.714 1.35318 679.831 1.63554 679.831 1.92993Z" fill="#182E6A"/>
<path d="M686.1 32.9001C685.834 32.9001 685.58 32.7947 685.392 32.6072C685.205 32.4196 685.1 32.1654 685.1 31.9001C685.1 31.6349 685.205 31.3804 685.392 31.1929C685.58 31.0053 685.834 30.9001 686.1 30.9001H689.62L688.729 7.37012C688.718 7.22325 688.74 7.07565 688.792 6.93799C688.844 6.80032 688.927 6.67596 689.033 6.57373C689.139 6.4715 689.266 6.39398 689.406 6.34668C689.545 6.29938 689.693 6.28342 689.84 6.30005C690.118 6.28903 690.391 6.3874 690.598 6.57422C690.805 6.76104 690.931 7.02152 690.949 7.30005L691.8 30.9099H696.77L697.659 7.30005C697.677 7.02152 697.804 6.76104 698.011 6.57422C698.218 6.3874 698.491 6.28903 698.77 6.30005C698.916 6.28342 699.064 6.29938 699.204 6.34668C699.343 6.39398 699.47 6.4715 699.576 6.57373C699.682 6.67596 699.765 6.80032 699.817 6.93799C699.87 7.07565 699.891 7.22325 699.88 7.37012L698.949 30.9001H702.429C702.695 30.9001 702.949 31.0053 703.137 31.1929C703.324 31.3804 703.429 31.6349 703.429 31.9001C703.429 32.1654 703.324 32.4196 703.137 32.6072C702.949 32.7947 702.695 32.9001 702.429 32.9001H686.1ZM686.469 4.65991C686.204 4.65991 685.95 4.55472 685.762 4.36719C685.575 4.17965 685.469 3.92513 685.469 3.65991C685.469 3.3947 685.575 3.14042 685.762 2.95288C685.95 2.76534 686.204 2.65991 686.469 2.65991H702.01C702.275 2.65991 702.529 2.76534 702.717 2.95288C702.904 3.14042 703.01 3.3947 703.01 3.65991C703.01 3.92513 702.904 4.17965 702.717 4.36719C702.529 4.55472 702.275 4.65991 702.01 4.65991H686.469ZM707.34 33.6599V17.6001H702.419C702.154 17.6001 701.9 17.4947 701.712 17.3071C701.525 17.1196 701.419 16.8653 701.419 16.6001C701.419 16.3349 701.525 16.0804 701.712 15.8928C701.9 15.7053 702.154 15.6001 702.419 15.6001H707.34V1.87012C707.34 1.57573 707.456 1.29337 707.665 1.08521C707.873 0.87704 708.155 0.76001 708.449 0.76001C708.744 0.76001 709.026 0.87704 709.234 1.08521C709.443 1.29337 709.56 1.57573 709.56 1.87012V33.5801C709.56 33.8745 709.443 34.1568 709.234 34.365C709.026 34.5732 708.744 34.6899 708.449 34.6899C708.155 34.6899 707.873 34.5732 707.665 34.365C707.456 34.1568 707.34 33.8745 707.34 33.5801V33.6599ZM714.63 33.6599V1.94995C714.63 1.65556 714.746 1.3732 714.955 1.16504C715.163 0.956874 715.445 0.840088 715.74 0.840088C716.034 0.840088 716.316 0.956874 716.524 1.16504C716.733 1.3732 716.85 1.65556 716.85 1.94995V33.6599C716.85 33.9543 716.733 34.2367 716.524 34.4448C716.316 34.653 716.034 34.77 715.74 34.77C715.445 34.77 715.163 34.653 714.955 34.4448C714.746 34.2367 714.63 33.9543 714.63 33.6599Z" fill="#182E6A"/>
<path d="M722.92 12.6899V8.91992C722.92 3.69992 727.28 1 732.61 1C737.94 1 742.31 3.69992 742.31 8.91992V12.6899C742.31 17.9499 737.98 20.6899 732.61 20.6899C727.24 20.6899 722.92 17.9499 722.92 12.6899ZM726.25 34.6001C726.09 34.6138 725.929 34.5923 725.779 34.5374C725.628 34.4824 725.492 34.3953 725.378 34.282C725.265 34.1686 725.178 34.0317 725.123 33.8811C725.068 33.7305 725.046 33.5696 725.06 33.4099V24.3501C725.096 24.0813 725.229 23.8348 725.433 23.6562C725.637 23.4777 725.899 23.3794 726.17 23.3794C726.441 23.3794 726.703 23.4777 726.907 23.6562C727.111 23.8348 727.244 24.0813 727.28 24.3501V32.6799H753.28C753.545 32.6799 753.8 32.7854 753.987 32.9729C754.175 33.1604 754.28 33.4147 754.28 33.6799C754.28 33.9451 754.175 34.1997 753.987 34.3872C753.8 34.5747 753.545 34.6799 753.28 34.6799L726.25 34.6001ZM740.08 12.6001V9.03003C740.08 5.03003 736.9 2.91992 732.65 2.91992C728.4 2.91992 725.14 5.07003 725.14 9.03003V12.6201C725.14 16.6201 728.36 18.73 732.65 18.73C736.94 18.73 740.08 16.5801 740.08 12.6201V12.6001ZM751.26 24.29V1.93994C751.26 1.64555 751.377 1.36319 751.585 1.15503C751.793 0.946864 752.076 0.830078 752.37 0.830078C752.665 0.830078 752.947 0.946864 753.155 1.15503C753.363 1.36319 753.48 1.64555 753.48 1.93994V24.29C753.48 24.5844 753.363 24.8668 753.155 25.075C752.947 25.2831 752.665 25.4001 752.37 25.4001C752.076 25.4001 751.793 25.2831 751.585 25.075C751.377 24.8668 751.26 24.5844 751.26 24.29Z" fill="#182E6A"/>
<path d="M52.1798 67.2501C51.4798 67.2501 51.1098 66.8101 51.1798 66.2501C51.2498 65.6901 51.63 65.3602 52.37 65.3602H57.4698L59.88 56.18C59.9352 55.9361 60.0798 55.7219 60.2853 55.5794C60.4907 55.4369 60.7421 55.3763 60.9899 55.41C61.1299 55.4004 61.27 55.427 61.3968 55.4871C61.5236 55.5472 61.6329 55.6389 61.7142 55.7532C61.7955 55.8676 61.8459 56.0009 61.8609 56.1404C61.876 56.28 61.855 56.4211 61.7999 56.5501L59.5399 65.3602H67.1698L69.5299 56.18C69.5847 55.9419 69.725 55.732 69.9239 55.5902C70.1229 55.4483 70.367 55.3842 70.61 55.41C71.24 55.41 71.6799 55.7801 71.4999 56.5501L69.2399 65.3602H74.2399C74.3768 65.3401 74.5165 65.3564 74.6451 65.4073C74.7738 65.4582 74.8869 65.5421 74.973 65.6505C75.0591 65.7588 75.1151 65.8876 75.1356 66.0245C75.1561 66.1613 75.1405 66.3012 75.09 66.43C75.0391 66.6556 74.9117 66.8566 74.7294 66.9988C74.547 67.1411 74.3211 67.2157 74.09 67.21H68.7699L66.0699 77.6402H71.1798C71.3202 77.6257 71.4621 77.6469 71.5921 77.7017C71.7222 77.7566 71.8365 77.8433 71.9242 77.9539C72.0119 78.0646 72.0704 78.1954 72.0941 78.3345C72.1178 78.4737 72.106 78.6166 72.0599 78.7501C72.0091 78.9756 71.8817 79.1767 71.6993 79.3189C71.517 79.4611 71.2911 79.5357 71.0599 79.5301H65.62L63.14 89.1502C63.0814 89.3684 62.9505 89.56 62.7689 89.6944C62.5873 89.8288 62.3658 89.8979 62.14 89.8902C61.43 89.8902 61.0298 89.5601 61.2098 88.7801L63.5099 79.5301H55.9198L53.3998 89.1502C53.3412 89.3684 53.2105 89.56 53.0289 89.6944C52.8473 89.8288 52.6255 89.8979 52.3998 89.8902C51.7398 89.8902 51.2898 89.5601 51.4798 88.7801L53.8099 79.5301H49.11C48.41 79.5301 48.04 79.0901 48.11 78.5301C48.18 77.9701 48.5199 77.6002 49.2899 77.6002H54.2899L57.0299 67.17L52.1798 67.2501ZM59.0599 67.2501L56.36 77.68H63.9498L66.6498 67.2501H59.0599Z" fill="#182E6A"/>
<path d="M78.2301 86.1899C78.2237 85.9893 78.2715 85.7907 78.3682 85.6147C78.465 85.4388 78.6072 85.292 78.7801 85.1899C82.7801 82.8999 88.8902 76.8301 88.8902 69.1001V59.9199H80.3402C80.0749 59.9199 79.8204 59.8147 79.6329 59.6272C79.4454 59.4397 79.3402 59.1851 79.3402 58.9199C79.3402 58.6547 79.4454 58.4004 79.6329 58.2129C79.8204 58.0254 80.0749 57.9199 80.3402 57.9199H99.65C99.9152 57.9199 100.17 58.0254 100.357 58.2129C100.545 58.4004 100.65 58.6547 100.65 58.9199C100.65 59.1851 100.545 59.4397 100.357 59.6272C100.17 59.8147 99.9152 59.9199 99.65 59.9199H91.1002V69.1001C91.1002 76.8301 97.2101 82.8999 101.24 85.1899C101.433 85.3164 101.58 85.5009 101.662 85.7166C101.743 85.9322 101.754 86.1679 101.693 86.3901C101.632 86.6123 101.502 86.8094 101.322 86.9531C101.141 87.0968 100.92 87.1797 100.69 87.1899C100.493 87.1924 100.3 87.1406 100.13 87.04C95.8802 84.6 91.0701 79.34 90.0001 74.04C88.9201 79.36 84.1502 84.62 79.8602 87.04C79.6961 87.1371 79.5093 87.1889 79.3187 87.1904C79.1281 87.1919 78.9405 87.143 78.775 87.0486C78.6094 86.9541 78.4717 86.8177 78.3761 86.6528C78.2804 86.488 78.23 86.3007 78.2301 86.1101V86.1899ZM107.39 88.6699V56.96C107.39 56.6656 107.507 56.3832 107.715 56.175C107.923 55.9669 108.206 55.8501 108.5 55.8501C108.794 55.8501 109.077 55.9669 109.285 56.175C109.493 56.3832 109.61 56.6656 109.61 56.96V88.6699C109.61 88.9643 109.493 89.2467 109.285 89.4548C109.077 89.663 108.794 89.78 108.5 89.78C108.206 89.78 107.923 89.663 107.715 89.4548C107.507 89.2467 107.39 88.9643 107.39 88.6699Z" fill="#182E6A"/>
<path d="M130.62 89.03V76.3401H115.89C115.624 76.3401 115.37 76.2347 115.182 76.0471C114.995 75.8596 114.89 75.6053 114.89 75.3401C114.89 75.0749 114.995 74.8203 115.182 74.6328C115.37 74.4453 115.624 74.3401 115.89 74.3401H147.64C147.905 74.3401 148.159 74.4453 148.347 74.6328C148.534 74.8203 148.64 75.0749 148.64 75.3401C148.64 75.6053 148.534 75.8596 148.347 76.0471C148.159 76.2347 147.905 76.3401 147.64 76.3401H132.84V89.03C132.84 89.3244 132.723 89.6068 132.514 89.8149C132.306 90.0231 132.024 90.1401 131.729 90.1401C131.435 90.1401 131.153 90.0231 130.945 89.8149C130.736 89.6068 130.62 89.3244 130.62 89.03ZM141.76 70.5701C142.66 66.7473 143.278 62.8634 143.61 58.95H118.34C118.074 58.95 117.82 58.8448 117.632 58.6572C117.445 58.4697 117.34 58.2152 117.34 57.95C117.34 57.6847 117.445 57.4305 117.632 57.2429C117.82 57.0554 118.074 56.95 118.34 56.95H144.83C145.61 56.95 145.979 57.39 145.939 58.2C145.582 62.4135 144.913 66.5949 143.939 70.71C143.877 70.9724 143.725 71.2048 143.51 71.3672C143.294 71.5296 143.029 71.6121 142.76 71.6001C142.13 71.6901 141.57 71.2101 141.77 70.5801L141.76 70.5701Z" fill="#182E6A"/>
<path d="M154.56 73.3201C154.401 73.334 154.24 73.3126 154.09 73.2576C153.94 73.2025 153.804 73.1153 153.691 73.0017C153.578 72.8881 153.492 72.7512 153.438 72.6006C153.385 72.4499 153.365 72.2893 153.38 72.1301V57.6301C153.406 57.3552 153.534 57.0999 153.738 56.9141C153.942 56.7283 154.209 56.6252 154.485 56.6252C154.761 56.6252 155.027 56.7283 155.232 56.9141C155.436 57.0999 155.564 57.3552 155.59 57.6301V62.6301H169.17V57.6301C169.196 57.3526 169.325 57.0948 169.531 56.9072C169.737 56.7197 170.006 56.6157 170.285 56.6157C170.564 56.6157 170.832 56.7197 171.038 56.9072C171.245 57.0948 171.373 57.3526 171.4 57.6301V72.1301C171.413 72.2899 171.392 72.4505 171.337 72.6011C171.282 72.7517 171.195 72.8886 171.082 73.002C170.968 73.1153 170.832 73.2024 170.681 73.2573C170.53 73.3123 170.37 73.3338 170.21 73.3201H154.56ZM161.48 89.78C157.48 89.78 154.26 87.23 154.26 83.46C154.26 79.69 157.45 77.1699 161.48 77.1699H176.39C180.39 77.1699 183.61 79.68 183.61 83.46C183.61 87.24 180.42 89.78 176.39 89.78H161.48ZM155.59 71.3901H169.17V64.55H155.59V71.3901ZM176.28 87.8601C179.13 87.8601 181.39 86.12 181.39 83.46C181.39 80.8 179.13 79.0901 176.28 79.0901H161.59C158.74 79.0901 156.48 80.79 156.48 83.46C156.48 86.13 158.74 87.8601 161.59 87.8601H176.28ZM180.28 74.9099V56.9099C180.28 56.6155 180.397 56.3334 180.605 56.1252C180.813 55.9171 181.096 55.8 181.39 55.8C181.684 55.8 181.967 55.9171 182.175 56.1252C182.383 56.3334 182.5 56.6155 182.5 56.9099V63.72H186.68C186.945 63.72 187.2 63.8254 187.387 64.0129C187.575 64.2005 187.68 64.4548 187.68 64.72C187.68 64.9852 187.575 65.2397 187.387 65.4272C187.2 65.6148 186.945 65.72 186.68 65.72H182.5V74.9399C182.5 75.2343 182.383 75.5167 182.175 75.7249C181.967 75.933 181.684 76.05 181.39 76.05C181.096 76.05 180.813 75.933 180.605 75.7249C180.397 75.5167 180.28 75.2343 180.28 74.9399V74.9099Z" fill="#182E6A"/>
<path d="M197.85 88.4099C199.177 84.8641 200.07 81.1706 200.51 77.4099H189.6C189.334 77.4099 189.08 77.3047 188.892 77.1172C188.705 76.9297 188.6 76.6751 188.6 76.4099C188.6 76.1447 188.705 75.8904 188.892 75.7029C189.08 75.5153 189.334 75.4099 189.6 75.4099H214.06C214.325 75.4099 214.579 75.5153 214.767 75.7029C214.954 75.8904 215.06 76.1447 215.06 76.4099C215.06 76.6751 214.954 76.9297 214.767 77.1172C214.579 77.3047 214.325 77.4099 214.06 77.4099H202.77C202.286 81.2915 201.353 85.1038 199.99 88.77C199.916 89.0129 199.77 89.2279 199.572 89.3867C199.374 89.5455 199.133 89.6407 198.88 89.6599C198.722 89.6698 198.564 89.6423 198.419 89.5793C198.274 89.5164 198.146 89.4198 198.045 89.2979C197.945 89.1759 197.875 89.0318 197.841 88.8774C197.807 88.7231 197.81 88.5629 197.85 88.4099ZM198.29 71.6501C194.11 71.6501 191.149 68.2501 191.149 64.0701C191.149 59.8901 194.15 56.52 198.29 56.52H205.179C209.359 56.52 212.32 59.8901 212.32 64.0701C212.32 68.2501 209.319 71.6501 205.179 71.6501H198.29ZM204.99 69.73C207.91 69.73 210.1 67.1001 210.1 64.0701C210.135 63.3647 210.03 62.6593 209.792 61.9944C209.554 61.3294 209.187 60.718 208.712 60.1951C208.238 59.6721 207.665 59.2479 207.026 58.9468C206.387 58.6456 205.695 58.4733 204.99 58.4399H198.52C197.114 58.5724 195.808 59.2243 194.858 60.2683C193.908 61.3123 193.381 62.6733 193.381 64.085C193.381 65.4967 193.908 66.8576 194.858 67.9016C195.808 68.9456 197.114 69.5976 198.52 69.73H204.99ZM218.679 88.6699V56.96C218.679 56.6656 218.796 56.3832 219.005 56.175C219.213 55.9669 219.495 55.8501 219.79 55.8501C220.084 55.8501 220.366 55.9669 220.574 56.175C220.783 56.3832 220.899 56.6656 220.899 56.96V88.6699C220.899 88.9643 220.783 89.2467 220.574 89.4548C220.366 89.663 220.084 89.78 219.79 89.78C219.495 89.78 219.213 89.663 219.005 89.4548C218.796 89.2467 218.679 88.9643 218.679 88.6699Z" fill="#182E6A"/>
<path d="M227.67 86.71V58.9199C227.656 58.7615 227.678 58.602 227.732 58.4526C227.787 58.3032 227.873 58.1676 227.985 58.0552C228.098 57.9427 228.234 57.8562 228.383 57.8018C228.533 57.7473 228.692 57.7263 228.85 57.74H241.14C241.406 57.74 241.66 57.8454 241.847 58.033C242.035 58.2205 242.14 58.4748 242.14 58.74C242.14 59.0052 242.035 59.2595 241.847 59.447C241.66 59.6346 241.406 59.74 241.14 59.74H229.89V85.98C234.014 85.9011 238.113 85.3304 242.1 84.28C242.236 84.2514 242.376 84.2537 242.511 84.2869C242.646 84.3201 242.771 84.3835 242.877 84.4719C242.984 84.5604 243.07 84.6718 243.127 84.7979C243.185 84.924 243.213 85.0613 243.21 85.2C243.205 85.4086 243.135 85.6106 243.01 85.7773C242.884 85.9441 242.709 86.0676 242.51 86.1301C238.054 87.2502 233.485 87.8572 228.89 87.9399C228.724 87.9636 228.554 87.9481 228.394 87.8945C228.235 87.8409 228.09 87.7508 227.971 87.6313C227.853 87.5119 227.764 87.3663 227.712 87.2063C227.659 87.0463 227.645 86.8764 227.67 86.71ZM256.09 88.71V72.5801H248.58V88.9001C248.58 89.1945 248.463 89.4767 248.255 89.6848C248.047 89.893 247.765 90.01 247.47 90.01C247.176 90.01 246.894 89.893 246.685 89.6848C246.477 89.4767 246.36 89.1945 246.36 88.9001V57C246.36 56.7056 246.477 56.4233 246.685 56.2151C246.894 56.0069 247.176 55.8901 247.47 55.8901C247.765 55.8901 248.047 56.0069 248.255 56.2151C248.463 56.4233 248.58 56.7056 248.58 57V70.6599H256.09V57C256.09 56.7056 256.207 56.4233 256.415 56.2151C256.623 56.0069 256.906 55.8901 257.2 55.8901C257.495 55.8901 257.777 56.0069 257.985 56.2151C258.193 56.4233 258.31 56.7056 258.31 57V88.71C258.31 89.0044 258.193 89.2867 257.985 89.4949C257.777 89.703 257.495 89.8201 257.2 89.8201C256.906 89.8201 256.623 89.703 256.415 89.4949C256.207 89.2867 256.09 89.0044 256.09 88.71Z" fill="#182E6A"/>
<path d="M279.66 58.1501C279.66 68.4701 273.48 72.9801 265.15 73.8701C265.013 73.8797 264.875 73.8609 264.746 73.8149C264.616 73.769 264.498 73.6969 264.397 73.603C264.297 73.5092 264.217 73.3957 264.162 73.2695C264.108 73.1434 264.08 73.0075 264.08 72.8701C264.077 72.629 264.162 72.3949 264.318 72.2112C264.474 72.0274 264.692 71.9063 264.93 71.8701C269.78 71.3501 273.7 69.43 275.77 65.76H265.6C265.335 65.76 265.08 65.6546 264.893 65.467C264.705 65.2795 264.6 65.0252 264.6 64.76C264.6 64.4948 264.705 64.2405 264.893 64.053C265.08 63.8654 265.335 63.76 265.6 63.76H276.66C277.207 62.1129 277.47 60.3853 277.44 58.6501H265.23C264.965 58.6501 264.711 58.5447 264.523 58.3572C264.335 58.1696 264.23 57.9154 264.23 57.6501C264.23 57.3849 264.335 57.1304 264.523 56.9429C264.711 56.7553 264.965 56.6501 265.23 56.6501H278.66C278.794 56.6378 278.93 56.6553 279.057 56.7012C279.184 56.7471 279.299 56.8203 279.394 56.9158C279.49 57.0112 279.563 57.1263 279.609 57.2532C279.655 57.3801 279.672 57.5157 279.66 57.6501V58.1501ZM294.13 77.0601C294.289 77.0445 294.449 77.0644 294.599 77.1182C294.75 77.172 294.886 77.2585 294.999 77.3713C295.112 77.4842 295.198 77.6205 295.252 77.7708C295.306 77.921 295.326 78.0812 295.31 78.24V88.6699C295.31 88.9643 295.193 89.2467 294.985 89.4548C294.777 89.663 294.494 89.78 294.2 89.78C293.906 89.78 293.623 89.663 293.415 89.4548C293.207 89.2467 293.09 88.9643 293.09 88.6699V88.45L267.15 89.5601C266.988 89.5821 266.823 89.567 266.668 89.5161C266.513 89.4652 266.371 89.3797 266.254 89.2661C266.136 89.1525 266.046 89.0138 265.99 88.8604C265.934 88.7069 265.913 88.5427 265.93 88.3801V78.24C265.914 78.0812 265.934 77.921 265.988 77.7708C266.042 77.6205 266.128 77.4842 266.241 77.3713C266.354 77.2585 266.49 77.172 266.641 77.1182C266.791 77.0644 266.951 77.0445 267.11 77.0601H294.13ZM268.13 87.5601L293.07 86.5601V79.03H268.13V87.5601ZM295.29 56.96V74.1699C295.29 74.4643 295.173 74.7467 294.965 74.9548C294.757 75.163 294.474 75.28 294.18 75.28C293.886 75.28 293.603 75.163 293.395 74.9548C293.187 74.7467 293.07 74.4643 293.07 74.1699V65.77H286.48V74.1699C286.48 74.4643 286.363 74.7467 286.155 74.9548C285.947 75.163 285.665 75.28 285.37 75.28C285.076 75.28 284.793 75.163 284.585 74.9548C284.377 74.7467 284.26 74.4643 284.26 74.1699V56.96C284.26 56.6656 284.377 56.3832 284.585 56.175C284.793 55.9669 285.076 55.8501 285.37 55.8501C285.665 55.8501 285.947 55.9669 286.155 56.175C286.363 56.3832 286.48 56.6656 286.48 56.96V63.8501H293.07V56.96C293.07 56.6656 293.187 56.3832 293.395 56.175C293.603 55.9669 293.886 55.8501 294.18 55.8501C294.474 55.8501 294.757 55.9669 294.965 56.175C295.173 56.3832 295.29 56.6656 295.29 56.96Z" fill="#182E6A"/>
<path d="M301.56 87.9001C301.294 87.9001 301.04 87.7947 300.853 87.6072C300.665 87.4196 300.56 87.1654 300.56 86.9001C300.56 86.6349 300.665 86.3804 300.853 86.1929C301.04 86.0053 301.294 85.9001 301.56 85.9001H305.08L304.189 62.3701C304.178 62.2233 304.2 62.0757 304.252 61.938C304.304 61.8003 304.387 61.676 304.493 61.5737C304.599 61.4715 304.726 61.394 304.865 61.3467C305.005 61.2994 305.153 61.2834 305.3 61.3C305.578 61.289 305.85 61.3874 306.058 61.5742C306.265 61.761 306.391 62.0215 306.409 62.3L307.26 85.9099H312.179L313.07 62.3C313.085 62.0206 313.211 61.7586 313.418 61.5713C313.626 61.3839 313.9 61.2864 314.179 61.3C314.326 61.2834 314.474 61.2994 314.614 61.3467C314.753 61.394 314.881 61.4715 314.987 61.5737C315.093 61.676 315.175 61.8003 315.227 61.938C315.279 62.0757 315.301 62.2233 315.29 62.3701L314.36 85.9001H317.84C318.105 85.9001 318.359 86.0053 318.547 86.1929C318.734 86.3804 318.84 86.6349 318.84 86.9001C318.84 87.1654 318.734 87.4196 318.547 87.6072C318.359 87.7947 318.105 87.9001 317.84 87.9001H301.56ZM301.929 59.6599C301.664 59.6599 301.41 59.5547 301.222 59.3672C301.035 59.1797 300.929 58.9251 300.929 58.6599C300.929 58.3947 301.035 58.1404 301.222 57.9529C301.41 57.7653 301.664 57.6599 301.929 57.6599H317.469C317.735 57.6599 317.989 57.7653 318.177 57.9529C318.364 58.1404 318.469 58.3947 318.469 58.6599C318.469 58.9251 318.364 59.1797 318.177 59.3672C317.989 59.5547 317.735 59.6599 317.469 59.6599H301.929ZM322.8 88.6599V72.6001H317.88C317.614 72.6001 317.36 72.4947 317.172 72.3071C316.985 72.1196 316.88 71.8653 316.88 71.6001C316.88 71.3349 316.985 71.0804 317.172 70.8928C317.36 70.7053 317.614 70.6001 317.88 70.6001H322.77V56.8701C322.77 56.5757 322.887 56.2934 323.095 56.0852C323.303 55.877 323.585 55.76 323.88 55.76C324.174 55.76 324.456 55.877 324.664 56.0852C324.872 56.2934 324.99 56.5757 324.99 56.8701V88.5801C324.99 88.8745 324.872 89.1568 324.664 89.365C324.456 89.5732 324.174 89.6899 323.88 89.6899C323.585 89.6899 323.303 89.5732 323.095 89.365C322.887 89.1568 322.77 88.8745 322.77 88.5801L322.8 88.6599ZM330.09 88.6599V56.95C330.09 56.6556 330.206 56.3732 330.415 56.165C330.623 55.9569 330.905 55.8401 331.199 55.8401C331.494 55.8401 331.776 55.9569 331.984 56.165C332.193 56.3732 332.31 56.6556 332.31 56.95V88.6599C332.31 88.9543 332.193 89.2367 331.984 89.4448C331.776 89.653 331.494 89.77 331.199 89.77C330.905 89.77 330.623 89.653 330.415 89.4448C330.206 89.2367 330.09 88.9543 330.09 88.6599Z" fill="#182E6A"/>
<path d="M338.38 67.6899V63.9199C338.38 58.6999 342.74 56 348.07 56C353.4 56 357.76 58.6999 357.76 63.9199V67.6899C357.76 72.9499 353.43 75.6899 348.07 75.6899C342.71 75.6899 338.38 72.9499 338.38 67.6899ZM341.71 89.6001C341.55 89.6138 341.389 89.5923 341.239 89.5374C341.088 89.4824 340.951 89.3953 340.838 89.282C340.725 89.1686 340.637 89.0317 340.583 88.8811C340.528 88.7305 340.506 88.5696 340.52 88.4099V79.3501C340.556 79.0813 340.688 78.8348 340.893 78.6562C341.097 78.4777 341.359 78.3794 341.63 78.3794C341.901 78.3794 342.163 78.4777 342.367 78.6562C342.571 78.8348 342.704 79.0813 342.74 79.3501V87.6799H368.77C369.035 87.6799 369.289 87.7854 369.477 87.9729C369.664 88.1604 369.77 88.4147 369.77 88.6799C369.77 88.9451 369.664 89.1997 369.477 89.3872C369.289 89.5747 369.035 89.6799 368.77 89.6799L341.71 89.6001ZM355.54 67.6001V64.03C355.54 60.03 352.36 57.9199 348.11 57.9199C343.86 57.9199 340.59 60.07 340.59 64.03V67.6201C340.59 71.6201 343.82 73.73 348.11 73.73C352.4 73.73 355.54 71.5801 355.54 67.6201V67.6001ZM366.72 79.29V56.9399C366.72 56.6456 366.837 56.3632 367.045 56.155C367.253 55.9469 367.535 55.8301 367.83 55.8301C368.124 55.8301 368.407 55.9469 368.615 56.155C368.823 56.3632 368.94 56.6456 368.94 56.9399V79.29C368.94 79.5844 368.823 79.8668 368.615 80.075C368.407 80.2831 368.124 80.4001 367.83 80.4001C367.535 80.4001 367.253 80.2831 367.045 80.075C366.837 79.8668 366.72 79.5844 366.72 79.29Z" fill="#182E6A"/>
<path d="M388.62 67.2501C387.92 67.2501 387.55 66.8101 387.62 66.2501C387.69 65.6901 388.07 65.3602 388.81 65.3602H393.91L396.32 56.18C396.375 55.9361 396.52 55.7219 396.725 55.5794C396.931 55.4369 397.182 55.3763 397.43 55.41C397.57 55.4004 397.71 55.427 397.837 55.4871C397.964 55.5472 398.073 55.6389 398.154 55.7532C398.236 55.8676 398.286 56.0009 398.301 56.1404C398.316 56.28 398.295 56.4211 398.24 56.5501L395.99 65.3602H403.61L405.98 56.18C406.035 55.9437 406.173 55.7355 406.37 55.5938C406.567 55.4522 406.809 55.3868 407.05 55.41C407.68 55.41 408.12 55.7801 407.94 56.5501L405.68 65.3602H410.68C410.817 65.3412 410.957 65.358 411.085 65.409C411.214 65.46 411.327 65.5437 411.413 65.6514C411.5 65.7592 411.557 65.8875 411.579 66.024C411.602 66.1605 411.588 66.3003 411.54 66.43C411.489 66.6556 411.362 66.8566 411.18 66.9988C410.997 67.1411 410.771 67.2157 410.54 67.21H405.17L402.47 77.6402H407.58C407.721 77.6257 407.862 77.6469 407.993 77.7017C408.123 77.7566 408.237 77.8433 408.325 77.9539C408.412 78.0646 408.471 78.1954 408.494 78.3345C408.518 78.4737 408.506 78.6166 408.46 78.7501C408.409 78.9756 408.282 79.1767 408.099 79.3189C407.917 79.4611 407.691 79.5357 407.46 79.5301H402.02L399.54 89.1502C399.482 89.3684 399.351 89.56 399.169 89.6944C398.988 89.8288 398.766 89.8979 398.54 89.8902C397.83 89.8902 397.43 89.5601 397.61 88.7801L399.91 79.5301H392.32L389.81 89.1502C389.752 89.3684 389.621 89.56 389.439 89.6944C389.258 89.8288 389.036 89.8979 388.81 89.8902C388.15 89.8902 387.7 89.5601 387.89 88.7801L390.22 79.5301H385.52C384.82 79.5301 384.45 79.0901 384.52 78.5301C384.59 77.9701 384.93 77.6002 385.71 77.6002H390.71L393.45 67.17L388.62 67.2501ZM395.5 67.2501L392.8 77.68H400.39L403.09 67.2501H395.5Z" fill="#182E6A"/>
<path d="M414.85 85.4199C414.851 85.2568 414.889 85.0961 414.96 84.9492C415.031 84.8023 415.133 84.6729 415.26 84.5701C420.33 80.3501 420.85 73.0199 420.85 59.6599H416.189C415.924 59.6599 415.67 59.5547 415.482 59.3672C415.295 59.1797 415.189 58.9251 415.189 58.6599C415.189 58.3947 415.295 58.1404 415.482 57.9529C415.67 57.7653 415.924 57.6599 416.189 57.6599H421.699C421.887 57.642 422.077 57.6666 422.254 57.7317C422.431 57.7968 422.591 57.901 422.723 58.0364C422.854 58.1717 422.954 58.3347 423.014 58.5137C423.074 58.6926 423.093 58.8828 423.07 59.0701V59.4001C423.07 73.0201 422.44 80.8201 416.74 86.1101C416.525 86.3027 416.248 86.4093 415.959 86.4099C415.685 86.4115 415.419 86.3113 415.214 86.1284C415.009 85.9455 414.879 85.6931 414.85 85.4199ZM423.33 87.1599C423.342 86.8489 423.474 86.5551 423.699 86.3401C428.469 81.8701 429.909 75.1299 429.909 59.6599H425.25C424.984 59.6599 424.73 59.5547 424.542 59.3672C424.355 59.1797 424.25 58.9251 424.25 58.6599C424.25 58.3947 424.355 58.1404 424.542 57.9529C424.73 57.7653 424.984 57.6599 425.25 57.6599H430.77C430.957 57.642 431.147 57.6666 431.324 57.7317C431.501 57.7968 431.661 57.901 431.793 58.0364C431.924 58.1717 432.024 58.3347 432.084 58.5137C432.144 58.6926 432.163 58.8828 432.14 59.0701V59.4001C432.14 75.4001 430.589 82.5301 425.219 87.8501C425.017 88.0592 424.741 88.181 424.449 88.1899C424.165 88.1982 423.889 88.0952 423.68 87.9028C423.471 87.7104 423.345 87.4437 423.33 87.1599ZM436.39 88.6699V56.96C436.39 56.6656 436.506 56.3832 436.715 56.175C436.923 55.9669 437.205 55.8501 437.5 55.8501C437.794 55.8501 438.076 55.9669 438.284 56.175C438.493 56.3832 438.61 56.6656 438.61 56.96V70.6201H444.53V56.96C444.53 56.6656 444.647 56.3832 444.855 56.175C445.063 55.9669 445.345 55.8501 445.64 55.8501C445.934 55.8501 446.216 55.9669 446.424 56.175C446.632 56.3832 446.75 56.6656 446.75 56.96V88.6699C446.75 88.9643 446.632 89.2467 446.424 89.4548C446.216 89.663 445.934 89.78 445.64 89.78C445.345 89.78 445.063 89.663 444.855 89.4548C444.647 89.2467 444.53 88.9643 444.53 88.6699V72.54H438.61V88.6699C438.61 88.9643 438.493 89.2467 438.284 89.4548C438.076 89.663 437.794 89.78 437.5 89.78C437.205 89.78 436.923 89.663 436.715 89.4548C436.506 89.2467 436.39 88.9643 436.39 88.6699Z" fill="#182E6A"/>
<path d="M484.08 70.76C484.345 70.76 484.6 70.8654 484.787 71.053C484.975 71.2405 485.08 71.4948 485.08 71.76C485.08 72.0252 484.975 72.2795 484.787 72.467C484.6 72.6546 484.345 72.76 484.08 72.76H452.33C452.065 72.76 451.81 72.6546 451.623 72.467C451.435 72.2795 451.33 72.0252 451.33 71.76C451.33 71.4948 451.435 71.2405 451.623 71.053C451.81 70.8654 452.065 70.76 452.33 70.76H461.1C462.612 66.8264 463.717 62.7486 464.4 58.5901H454.4C454.135 58.5901 453.88 58.4847 453.693 58.2971C453.505 58.1096 453.4 57.8553 453.4 57.5901C453.4 57.3249 453.505 57.0703 453.693 56.8828C453.88 56.6953 454.135 56.5901 454.4 56.5901H465.77C466.58 56.5901 466.88 57.0699 466.77 57.9199C466.046 62.2689 464.918 66.5408 463.4 70.6799H477.05C478.419 66.733 479.374 62.6545 479.9 58.51H469.5C469.235 58.51 468.981 58.4046 468.793 58.217C468.605 58.0295 468.5 57.7752 468.5 57.51C468.5 57.2448 468.605 56.9905 468.793 56.803C468.981 56.6154 469.235 56.51 469.5 56.51H481.23C482.05 56.51 482.45 56.95 482.31 57.76C481.732 62.1277 480.727 66.4283 479.31 70.6001L484.08 70.76ZM483.45 88.6001C483.45 88.8653 483.345 89.1196 483.157 89.3071C482.97 89.4947 482.715 89.6001 482.45 89.6001C474.28 89.3801 469.39 86.0501 468.21 82.6001C467.02 86.0401 462.14 89.3701 453.96 89.6001C453.695 89.6001 453.44 89.4947 453.253 89.3071C453.065 89.1196 452.96 88.8653 452.96 88.6001C452.959 88.3466 453.055 88.1022 453.228 87.9165C453.4 87.7309 453.637 87.6178 453.89 87.6001C461.77 87.3801 467.1 83.9699 467.1 79.4199V78.2C467.136 77.9312 467.269 77.6849 467.473 77.5063C467.677 77.3278 467.939 77.2292 468.21 77.2292C468.481 77.2292 468.743 77.3278 468.947 77.5063C469.151 77.6849 469.284 77.9312 469.32 78.2V79.4199C469.32 83.9699 474.65 87.4201 482.53 87.6001C482.781 87.6203 483.015 87.7343 483.186 87.9197C483.357 88.1051 483.451 88.3482 483.45 88.6001Z" fill="#182E6A"/>
<path d="M489.699 61.3301C489.434 61.3301 489.18 61.2246 488.992 61.0371C488.805 60.8496 488.699 60.5953 488.699 60.3301C488.699 60.0649 488.805 59.8103 488.992 59.6228C489.18 59.4353 489.434 59.3301 489.699 59.3301H498.699V56.03C498.735 55.7613 498.868 55.5147 499.072 55.3362C499.276 55.1577 499.538 55.0593 499.809 55.0593C500.081 55.0593 500.342 55.1577 500.547 55.3362C500.751 55.5147 500.883 55.7613 500.919 56.03V59.4299H509.869C510.135 59.4299 510.389 59.5354 510.576 59.7229C510.764 59.9104 510.869 60.1647 510.869 60.4299C510.869 60.6951 510.764 60.9497 510.576 61.1372C510.389 61.3247 510.135 61.4299 509.869 61.4299L489.699 61.3301ZM495.699 64.1001H503.949C507.209 64.1001 509.759 66.58 509.759 70.28C509.759 73.98 507.209 76.5 503.949 76.5H495.699C494.116 76.41 492.627 75.7175 491.538 74.5647C490.448 73.4118 489.842 71.8861 489.842 70.3C489.842 68.714 490.448 67.188 491.538 66.0352C492.627 64.8823 494.116 64.1901 495.699 64.1001ZM492.889 89.6001C492.73 89.6138 492.569 89.5923 492.418 89.5374C492.268 89.4824 492.131 89.3953 492.017 89.282C491.904 89.1686 491.817 89.0317 491.762 88.8811C491.707 88.7305 491.686 88.5696 491.699 88.4099V80.03C491.726 79.7525 491.854 79.4947 492.061 79.3071C492.267 79.1196 492.535 79.0156 492.814 79.0156C493.093 79.0156 493.362 79.1196 493.568 79.3071C493.774 79.4947 493.903 79.7525 493.929 80.03V87.6899H518.929C519.194 87.6899 519.449 87.7954 519.636 87.9829C519.824 88.1704 519.929 88.4247 519.929 88.6899C519.929 88.9552 519.824 89.2097 519.636 89.3972C519.449 89.5848 519.194 89.6899 518.929 89.6899L492.889 89.6001ZM503.319 74.6001C504.417 74.547 505.453 74.0732 506.211 73.2773C506.97 72.4814 507.393 71.4243 507.393 70.325C507.393 69.2256 506.97 68.1685 506.211 67.3726C505.453 66.5767 504.417 66.1032 503.319 66.05H496.319C495.221 66.1032 494.186 66.5767 493.427 67.3726C492.669 68.1685 492.246 69.2256 492.246 70.325C492.246 71.4243 492.669 72.4814 493.427 73.2773C494.186 74.0732 495.221 74.547 496.319 74.6001H503.319ZM516.769 80.03V56.97C516.769 56.6756 516.886 56.3932 517.094 56.1851C517.303 55.9769 517.585 55.8601 517.879 55.8601C518.174 55.8601 518.456 55.9769 518.664 56.1851C518.872 56.3932 518.989 56.6756 518.989 56.97V66.3301H523.179C523.444 66.3301 523.699 66.4353 523.886 66.6228C524.074 66.8103 524.179 67.0649 524.179 67.3301C524.179 67.5953 524.074 67.8496 523.886 68.0371C523.699 68.2246 523.444 68.3301 523.179 68.3301H518.989V80.03C518.989 80.3244 518.872 80.6068 518.664 80.8149C518.456 81.0231 518.174 81.1401 517.879 81.1401C517.585 81.1401 517.303 81.0231 517.094 80.8149C516.886 80.6068 516.769 80.3244 516.769 80.03Z" fill="#182E6A"/>
<path d="M525.67 86.1899C525.664 85.9893 525.712 85.7907 525.808 85.6147C525.905 85.4388 526.047 85.292 526.22 85.1899C530.22 82.8999 536.33 76.8301 536.33 69.1001V59.9199H527.77C527.505 59.9199 527.251 59.8147 527.063 59.6272C526.876 59.4397 526.77 59.1851 526.77 58.9199C526.77 58.6547 526.876 58.4004 527.063 58.2129C527.251 58.0254 527.505 57.9199 527.77 57.9199H547.08C547.346 57.9199 547.6 58.0254 547.787 58.2129C547.975 58.4004 548.08 58.6547 548.08 58.9199C548.08 59.1851 547.975 59.4397 547.787 59.6272C547.6 59.8147 547.346 59.9199 547.08 59.9199H538.54V69.1001C538.54 76.8301 544.64 82.8999 548.67 85.1899C548.863 85.3164 549.01 85.5009 549.092 85.7166C549.173 85.9322 549.184 86.1679 549.123 86.3901C549.062 86.6123 548.932 86.8094 548.752 86.9531C548.572 87.0968 548.351 87.1797 548.12 87.1899C547.923 87.1924 547.73 87.1406 547.56 87.04C543.31 84.6 538.5 79.34 537.42 74.04C536.35 79.36 531.58 84.62 527.29 87.04C527.126 87.1371 526.939 87.1889 526.749 87.1904C526.558 87.1919 526.371 87.143 526.205 87.0486C526.04 86.9541 525.902 86.8177 525.806 86.6528C525.71 86.488 525.66 86.3007 525.66 86.1101L525.67 86.1899ZM554.83 88.6699V56.96C554.83 56.6656 554.947 56.3832 555.155 56.175C555.363 55.9669 555.646 55.8501 555.94 55.8501C556.235 55.8501 556.517 55.9669 556.725 56.175C556.933 56.3832 557.05 56.6656 557.05 56.96V88.6699C557.05 88.9643 556.933 89.2467 556.725 89.4548C556.517 89.663 556.235 89.78 555.94 89.78C555.646 89.78 555.363 89.663 555.155 89.4548C554.947 89.2467 554.83 88.9643 554.83 88.6699Z" fill="#182E6A"/>
<path d="M578.06 89.03V76.3401H563.33C563.065 76.3401 562.81 76.2347 562.623 76.0471C562.435 75.8596 562.33 75.6053 562.33 75.3401C562.33 75.0749 562.435 74.8203 562.623 74.6328C562.81 74.4453 563.065 74.3401 563.33 74.3401H595.08C595.345 74.3401 595.6 74.4453 595.787 74.6328C595.975 74.8203 596.08 75.0749 596.08 75.3401C596.08 75.6053 595.975 75.8596 595.787 76.0471C595.6 76.2347 595.345 76.3401 595.08 76.3401H580.28V89.03C580.28 89.3244 580.163 89.6068 579.955 89.8149C579.747 90.0231 579.464 90.1401 579.17 90.1401C578.876 90.1401 578.593 90.0231 578.385 89.8149C578.177 89.6068 578.06 89.3244 578.06 89.03ZM589.2 70.5701C590.1 66.7473 590.719 62.8634 591.05 58.95H565.77C565.505 58.95 565.251 58.8448 565.063 58.6572C564.875 58.4697 564.77 58.2152 564.77 57.95C564.77 57.6847 564.875 57.4305 565.063 57.2429C565.251 57.0554 565.505 56.95 565.77 56.95H592.26C593.04 56.95 593.41 57.39 593.37 58.2C593.012 62.4135 592.344 66.5949 591.37 70.71C591.309 70.9733 591.158 71.2069 590.942 71.3696C590.726 71.5324 590.46 71.6141 590.19 71.6001C589.57 71.6901 589.01 71.2101 589.2 70.5801V70.5701Z" fill="#182E6A"/>
<path d="M602 73.5801C601.84 73.594 601.68 73.5726 601.53 73.5176C601.379 73.4626 601.243 73.3753 601.131 73.2617C601.018 73.1481 600.932 73.0112 600.878 72.8606C600.824 72.71 600.804 72.5493 600.82 72.3901V58.03C600.804 57.8712 600.824 57.711 600.878 57.5608C600.931 57.4106 601.018 57.274 601.131 57.1611C601.243 57.0483 601.38 56.962 601.53 56.9082C601.681 56.8544 601.841 56.8346 602 56.8501H617.649C617.809 56.8348 617.969 56.8547 618.12 56.9084C618.271 56.9622 618.408 57.0485 618.521 57.1611C618.635 57.2737 618.722 57.4099 618.777 57.5601C618.832 57.7102 618.854 57.8707 618.84 58.03V72.3501C618.853 72.5098 618.832 72.6704 618.777 72.821C618.722 72.9716 618.635 73.1086 618.521 73.2219C618.408 73.3353 618.271 73.4223 618.121 73.4773C617.97 73.5323 617.809 73.5537 617.649 73.54L602 73.5801ZM603.85 89.5801C603.69 89.5938 603.529 89.5723 603.378 89.5173C603.228 89.4624 603.091 89.3753 602.978 89.262C602.864 89.1486 602.777 89.0117 602.722 88.8611C602.667 88.7105 602.646 88.5499 602.659 88.3901V78.8801C602.686 78.6026 602.815 78.3448 603.021 78.1572C603.227 77.9697 603.496 77.8657 603.774 77.8657C604.053 77.8657 604.322 77.9697 604.528 78.1572C604.734 78.3448 604.863 78.6026 604.89 78.8801V87.6599H629.89C630.155 87.6599 630.409 87.7653 630.597 87.9529C630.784 88.1404 630.89 88.3947 630.89 88.6599C630.89 88.9251 630.784 89.1796 630.597 89.3672C630.409 89.5547 630.155 89.6599 629.89 89.6599L603.85 89.5801ZM603.04 71.5801H616.62V58.74H603.04V71.5801ZM627.75 79.5801V56.8601C627.75 56.5657 627.867 56.2834 628.075 56.0752C628.283 55.867 628.565 55.75 628.86 55.75C629.154 55.75 629.436 55.867 629.645 56.0752C629.853 56.2834 629.969 56.5657 629.969 56.8601V66.03H634.159C634.425 66.03 634.679 66.1355 634.867 66.323C635.054 66.5105 635.159 66.7648 635.159 67.03C635.159 67.2952 635.054 67.5495 634.867 67.7371C634.679 67.9246 634.425 68.03 634.159 68.03H629.969V79.76C629.969 80.0544 629.853 80.3368 629.645 80.5449C629.436 80.7531 629.154 80.8701 628.86 80.8701C628.565 80.8701 628.283 80.7531 628.075 80.5449C627.867 80.3368 627.75 80.0544 627.75 79.76V79.5801Z" fill="#182E6A"/>
<path d="M637.33 72.36C637.065 72.36 636.81 72.2546 636.623 72.067C636.435 71.8795 636.33 71.6252 636.33 71.36C636.33 71.0948 636.435 70.8403 636.623 70.6527C636.81 70.4652 637.065 70.36 637.33 70.36H669.08C669.345 70.36 669.6 70.4652 669.787 70.6527C669.975 70.8403 670.08 71.0948 670.08 71.36C670.08 71.6252 669.975 71.8795 669.787 72.067C669.6 72.2546 669.345 72.36 669.08 72.36H637.33ZM640.33 89.6C640.171 89.6122 640.011 89.5895 639.862 89.5338C639.713 89.4782 639.577 89.3909 639.465 89.2777C639.353 89.1645 639.267 89.0281 639.212 88.8783C639.158 88.7285 639.136 88.5686 639.15 88.4098V83.09C639.136 82.9312 639.158 82.7713 639.212 82.6215C639.267 82.4717 639.353 82.3355 639.465 82.2223C639.577 82.1091 639.713 82.0216 639.862 81.966C640.011 81.9103 640.171 81.8879 640.33 81.9H665.13V78.1698H640C639.735 78.1698 639.481 78.0646 639.293 77.8771C639.105 77.6896 639 77.435 639 77.1698C639 76.9046 639.105 76.6503 639.293 76.4628C639.481 76.2753 639.735 76.1698 640 76.1698H666.16C666.32 76.1543 666.482 76.1746 666.633 76.2289C666.784 76.2832 666.922 76.3703 667.036 76.484C667.15 76.5978 667.237 76.7354 667.291 76.8869C667.345 77.0383 667.366 77.1999 667.35 77.36V82.4999C667.364 82.6592 667.343 82.8197 667.288 82.9699C667.233 83.12 667.145 83.2562 667.032 83.3688C666.918 83.4814 666.781 83.5677 666.63 83.6215C666.48 83.6752 666.319 83.6951 666.16 83.6798H641.37V87.61H667.05C667.315 87.61 667.57 87.7152 667.757 87.9027C667.945 88.0903 668.05 88.3448 668.05 88.61C668.05 88.8752 667.945 89.1295 667.757 89.317C667.57 89.5046 667.315 89.61 667.05 89.61L640.33 89.6ZM640.33 66.2899C640.171 66.3021 640.011 66.2797 639.862 66.224C639.713 66.1684 639.577 66.0809 639.465 65.9677C639.353 65.8545 639.267 65.7183 639.212 65.5685C639.158 65.4187 639.136 65.2588 639.15 65.1V57.85C639.136 57.6916 639.157 57.5321 639.212 57.3827C639.266 57.2333 639.353 57.0974 639.465 56.985C639.578 56.8726 639.713 56.7863 639.863 56.7318C640.012 56.6774 640.172 56.6561 640.33 56.6698H666.5C666.765 56.6698 667.019 56.7753 667.207 56.9628C667.395 57.1503 667.5 57.4046 667.5 57.6698C667.5 57.935 667.395 58.1896 667.207 58.3771C667.019 58.5646 666.765 58.6698 666.5 58.6698H641.37V64.4398H666.68C666.945 64.4398 667.2 64.5453 667.387 64.7328C667.575 64.9203 667.68 65.1746 667.68 65.4398C667.68 65.7051 667.575 65.9596 667.387 66.1471C667.2 66.3347 666.945 66.4398 666.68 66.4398L640.33 66.2899Z" fill="#182E6A"/>
<path d="M674.331 87.03C674.323 86.8029 674.394 86.5802 674.53 86.3984C674.666 86.2167 674.861 86.0867 675.081 86.03C685.731 83.29 691.8 74.8901 691.73 59.6401H675.48C675.215 59.6401 674.961 59.5347 674.773 59.3472C674.586 59.1596 674.48 58.9054 674.48 58.6401C674.48 58.3749 674.586 58.1204 674.773 57.9329C674.961 57.7453 675.215 57.6401 675.48 57.6401H692.581C692.768 57.6222 692.958 57.6465 693.135 57.7117C693.312 57.7768 693.472 57.881 693.604 58.0164C693.735 58.1517 693.835 58.3147 693.895 58.4937C693.955 58.6726 693.974 58.8628 693.95 59.05V59.3401C693.95 75.9201 687.101 85.0201 675.591 87.8701C675.452 87.9086 675.307 87.9167 675.165 87.894C675.023 87.8714 674.888 87.8182 674.768 87.7385C674.649 87.6588 674.548 87.5544 674.472 87.4321C674.397 87.3099 674.348 87.1726 674.331 87.03ZM702.831 88.6899V56.98C702.831 56.6856 702.947 56.4032 703.156 56.1951C703.364 55.9869 703.646 55.8701 703.94 55.8701C704.235 55.8701 704.517 55.9869 704.725 56.1951C704.934 56.4032 705.051 56.6856 705.051 56.98V88.6899C705.051 88.9843 704.934 89.2667 704.725 89.4749C704.517 89.683 704.235 89.8 703.94 89.8C703.646 89.8 703.364 89.683 703.156 89.4749C702.947 89.2667 702.831 88.9843 702.831 88.6899Z" fill="#182E6A"/>
</g>
<defs>
<clipPath id="clip0_252_3454">
<rect width="100%" height="100%" fill="white"/>
</clipPath>
</defs>
</svg>
