<svg class="tree-image-resource" viewBox="0 0 860 860" fill="none" xmlns="http://www.w3.org/2000/svg">
<g clip-path="url(#clip0_137_3592)">
<path d="M337.86 493.13L365.82 410.08L328.7 397.59C328.7 397.59 311.04 439.41 306.15 457.17C301.26 474.93 297.3 495.25 314.97 503.67" fill="#FFEBD1"/>
<path d="M337.86 493.13L365.82 410.08L328.7 397.59C328.7 397.59 311.04 439.41 306.15 457.17C301.26 474.93 297.3 495.25 314.97 503.67" stroke="#0A13FF" stroke-width="5" stroke-linecap="round" stroke-linejoin="round"/>
<path d="M493.91 410.07L531.03 397.58L568.02 505.31C574.11 514.01 579.4 534.86 566.77 546.27C563.6 549.13 558.11 550.3 553.38 550.74C548.14 551.23 544.39 545.59 547.13 541.1C547.15 541.06 547.18 541.02 547.21 540.98C545.8 543.76 544.94 544.83 541.17 543.88C534.82 542.28 530.03 533.72 533.22 523.12C530.61 518.02 528.33 512.31 526.24 506.1L493.92 410.07H493.91Z" fill="#FFEBD1" stroke="#0A13FF" stroke-width="5" stroke-linecap="round" stroke-linejoin="round"/>
<path d="M319.73 428.87C325.186 428.87 329.61 424.447 329.61 418.99C329.61 413.533 325.186 409.11 319.73 409.11C314.273 409.11 309.85 413.533 309.85 418.99C309.85 424.447 314.273 428.87 319.73 428.87Z" fill="white" stroke="#0A13FF" stroke-width="5" stroke-miterlimit="10"/>
<path d="M326.659 445.19C332.116 445.19 336.539 440.767 336.539 435.31C336.539 429.853 332.116 425.43 326.659 425.43C321.203 425.43 316.779 429.853 316.779 435.31C316.779 440.767 321.203 445.19 326.659 445.19Z" fill="white" stroke="#0A13FF" stroke-width="5" stroke-miterlimit="10"/>
<path d="M339.489 456.41C344.946 456.41 349.369 451.987 349.369 446.53C349.369 441.073 344.946 436.65 339.489 436.65C334.033 436.65 329.609 441.073 329.609 446.53C329.609 451.987 334.033 456.41 339.489 456.41Z" fill="white" stroke="#0A13FF" stroke-width="5" stroke-miterlimit="10"/>
<path d="M347.269 547.4C353.797 547.4 359.089 542.484 359.089 536.42C359.089 530.356 353.797 525.44 347.269 525.44C340.741 525.44 335.449 530.356 335.449 536.42C335.449 542.484 340.741 547.4 347.269 547.4Z" fill="white" stroke="#0A13FF" stroke-width="5.19" stroke-miterlimit="10"/>
<path d="M370.91 550.73C377.438 550.73 382.73 545.814 382.73 539.75C382.73 533.686 377.438 528.77 370.91 528.77C364.382 528.77 359.09 533.686 359.09 539.75C359.09 545.814 364.382 550.73 370.91 550.73Z" fill="white" stroke="#0A13FF" stroke-width="5.19" stroke-miterlimit="10"/>
<path d="M394.539 553.6C401.067 553.6 406.359 548.684 406.359 542.62C406.359 536.556 401.067 531.64 394.539 531.64C388.011 531.64 382.719 536.556 382.719 542.62C382.719 548.684 388.011 553.6 394.539 553.6Z" fill="white" stroke="#0A13FF" stroke-width="5.19" stroke-miterlimit="10"/>
<path d="M418.179 554.43C424.707 554.43 429.999 549.514 429.999 543.45C429.999 537.386 424.707 532.47 418.179 532.47C411.651 532.47 406.359 537.386 406.359 543.45C406.359 549.514 411.651 554.43 418.179 554.43Z" fill="white" stroke="#0A13FF" stroke-width="5.19" stroke-miterlimit="10"/>
<path d="M512.73 550.73C519.258 550.73 524.55 545.814 524.55 539.75C524.55 533.686 519.258 528.77 512.73 528.77C506.202 528.77 500.91 533.686 500.91 539.75C500.91 545.814 506.202 550.73 512.73 550.73Z" fill="white" stroke="#0A13FF" stroke-width="5.19" stroke-miterlimit="10"/>
<path d="M489.09 553.6C495.618 553.6 500.91 548.684 500.91 542.62C500.91 536.556 495.618 531.64 489.09 531.64C482.562 531.64 477.27 536.556 477.27 542.62C477.27 548.684 482.562 553.6 489.09 553.6Z" fill="white" stroke="#0A13FF" stroke-width="5.19" stroke-miterlimit="10"/>
<path d="M465.459 554.43C471.987 554.43 477.279 549.514 477.279 543.45C477.279 537.386 471.987 532.47 465.459 532.47C458.931 532.47 453.639 537.386 453.639 543.45C453.639 549.514 458.931 554.43 465.459 554.43Z" fill="white" stroke="#0A13FF" stroke-width="5.19" stroke-miterlimit="10"/>
<path d="M441.82 555.89C448.348 555.89 453.64 550.974 453.64 544.91C453.64 538.846 448.348 533.93 441.82 533.93C435.292 533.93 430 538.846 430 544.91C430 550.974 435.292 555.89 441.82 555.89Z" fill="white" stroke="#0A13FF" stroke-width="5.19" stroke-miterlimit="10"/>
<path d="M540.269 428.87C545.725 428.87 550.149 424.447 550.149 418.99C550.149 413.533 545.725 409.11 540.269 409.11C534.812 409.11 530.389 413.533 530.389 418.99C530.389 424.447 534.812 428.87 540.269 428.87Z" fill="white" stroke="#0A13FF" stroke-width="5" stroke-miterlimit="10"/>
<path d="M533.339 445.19C538.796 445.19 543.219 440.767 543.219 435.31C543.219 429.853 538.796 425.43 533.339 425.43C527.882 425.43 523.459 429.853 523.459 435.31C523.459 440.767 527.882 445.19 533.339 445.19Z" fill="white" stroke="#0A13FF" stroke-width="5" stroke-miterlimit="10"/>
<path d="M520.509 456.41C525.965 456.41 530.389 451.987 530.389 446.53C530.389 441.073 525.965 436.65 520.509 436.65C515.052 436.65 510.629 441.073 510.629 446.53C510.629 451.987 515.052 456.41 520.509 456.41Z" fill="white" stroke="#0A13FF" stroke-width="5" stroke-miterlimit="10"/>
<path d="M429.999 375.64L346.919 448.35H346.889C321.439 437.08 314.049 404.53 331.989 383.27C354.269 356.87 380.979 348.94 400.139 348.94H426.989" fill="white"/>
<path d="M429.999 375.64L346.919 448.35H346.889C321.439 437.08 314.049 404.53 331.989 383.27C354.269 356.87 380.979 348.94 400.139 348.94H426.989" stroke="#0A13FF" stroke-width="5" stroke-miterlimit="10"/>
<path d="M430 375.64L513.08 448.35H513.11C538.56 437.08 545.95 404.53 528.01 383.27C505.73 356.87 479.02 348.94 459.86 348.94H433.01" fill="white"/>
<path d="M430 375.64L513.08 448.35H513.11C538.56 437.08 545.95 404.53 528.01 383.27C505.73 356.87 479.02 348.94 459.86 348.94H433.01" stroke="#0A13FF" stroke-width="5" stroke-miterlimit="10"/>
<path d="M503.769 390.84C496.419 372.78 486.459 354.73 429.999 354.73C373.539 354.73 363.569 372.78 356.229 390.84C343.929 421.07 335.449 533.65 335.449 533.65C365.039 537.95 400.679 539.89 429.999 539.76C459.319 539.9 494.959 537.95 524.549 533.65C524.549 533.65 516.069 421.07 503.769 390.84Z" fill="white"/>
<path d="M507.849 407.25C514.189 441.6 524.549 533.19 524.549 533.19C494.959 537.49 447.909 539.76 429.999 539.76C412.089 539.76 365.039 537.49 335.449 533.19C335.449 533.19 345.809 441.6 352.149 407.25" fill="white"/>
<path d="M507.849 407.25C514.189 441.6 524.549 533.19 524.549 533.19C494.959 537.49 447.909 539.76 429.999 539.76C412.089 539.76 365.039 537.49 335.449 533.19C335.449 533.19 345.809 441.6 352.149 407.25" stroke="#0A13FF" stroke-width="5" stroke-miterlimit="10"/>
<path d="M377.5 352.39C365.16 356.11 351.88 363.18 339.49 375.23C380.91 362.22 398.25 396.08 430 385.5L429.97 377.9L413.61 348.94H400.15C399.97 348.94 399.79 348.94 399.6 348.94C397.09 348.98 388.29 349.71 377.49 352.38L377.5 352.39Z" fill="#1860FC" stroke="#0A13FF" stroke-width="5" stroke-linecap="round" stroke-linejoin="round"/>
<path d="M482.5 352.39C494.84 356.11 508.12 363.18 520.51 375.23C479.09 362.22 461.75 396.08 430 385.5L430.03 377.9L446.39 348.94H459.85C460.03 348.94 460.21 348.94 460.4 348.94C462.91 348.98 471.71 349.71 482.51 352.38L482.5 352.39Z" fill="#1860FC" stroke="#0A13FF" stroke-width="5" stroke-linecap="round" stroke-linejoin="round"/>
<path d="M429.999 375.65C446.275 375.65 459.469 362.456 459.469 346.18C459.469 329.904 446.275 316.71 429.999 316.71C413.723 316.71 400.529 329.904 400.529 346.18C400.529 362.456 413.723 375.65 429.999 375.65Z" fill="#FFEBD1" stroke="#0A13FF" stroke-width="5" stroke-miterlimit="10"/>
<path d="M429.999 389.66C433.479 389.66 436.299 386.839 436.299 383.36C436.299 379.881 433.479 377.06 429.999 377.06C426.52 377.06 423.699 379.881 423.699 383.36C423.699 386.839 426.52 389.66 429.999 389.66Z" fill="#1860FC" stroke="#0A13FF" stroke-width="5" stroke-miterlimit="10"/>
<path d="M541.409 548.45C540.419 548.45 539.449 548.44 538.489 548.41C493.059 547.13 469.069 519.14 451.589 491.92C435.629 467.07 419.139 441.37 386.409 429.48L384.059 428.63L387.819 418.29L390.169 419.14C426.389 432.3 443.909 459.59 460.849 485.97C488.289 528.71 512.559 537.47 540.559 537.47C542.829 537.47 545.179 537.4 547.539 537.26L550.039 537.11L550.699 548.09L548.199 548.24C545.909 548.38 543.619 548.45 541.409 548.45Z" fill="#D250F7"/>
<path d="M389.319 421.5C424.739 434.37 442.029 461.3 458.749 487.33C477.909 517.17 499.269 539.98 540.559 539.98C542.879 539.98 545.249 539.91 547.689 539.76L548.049 545.75C545.779 545.89 543.559 545.95 541.409 545.95C540.449 545.95 539.499 545.94 538.559 545.91C495.929 544.71 472.719 520.19 453.699 490.57C437.519 465.37 420.789 439.31 387.269 427.13L389.319 421.49M386.329 415.08L384.619 419.78L382.569 425.42L380.859 430.12L385.559 431.83C417.489 443.43 433.759 468.77 449.489 493.27C461.249 511.59 471.989 523.82 484.299 532.92C499.889 544.44 517.589 550.32 538.419 550.91C539.399 550.94 540.409 550.95 541.409 550.95C543.669 550.95 545.999 550.88 548.339 550.74L553.329 550.44L553.029 545.45L552.669 539.46L552.369 534.47L547.379 534.77C545.059 534.91 542.759 534.98 540.549 534.98C522.459 534.98 507.329 530.35 494.299 520.81C487.169 515.6 477.169 506.78 462.949 484.63C445.779 457.89 428.029 430.24 391.019 416.8L386.319 415.09L386.329 415.08Z" fill="#0A13FF"/>
<path d="M386.483 389.671C384.67 387.494 381.435 387.199 379.258 389.012C377.081 390.825 376.786 394.06 378.599 396.237L392.461 412.88C394.275 415.057 397.509 415.352 399.686 413.539C401.863 411.726 402.158 408.491 400.345 406.314L386.483 389.671Z" fill="#D250F7" stroke="#0A13FF" stroke-width="4.54" stroke-miterlimit="10"/>
<path d="M372.054 401.699C370.24 399.522 367.006 399.227 364.829 401.041C362.652 402.854 362.357 406.088 364.17 408.265L378.032 424.909C379.845 427.086 383.08 427.381 385.257 425.568C387.434 423.755 387.729 420.52 385.915 418.343L372.054 401.699Z" fill="#D250F7" stroke="#0A13FF" stroke-width="4.54" stroke-miterlimit="10"/>
<path d="M365.895 424.918L402.547 394.391L407.635 400.499C416.057 410.612 414.684 425.667 404.572 434.089C394.46 442.511 379.404 441.138 370.982 431.026L365.895 424.918Z" fill="#D250F7" stroke="#0A13FF" stroke-width="5" stroke-miterlimit="10"/>
<path d="M314.959 503.66C339.479 515.72 387.659 489.86 405.619 477.07C423.579 464.28 424.939 452.93 421.609 441.97C418.789 432.69 407.099 427.18 398.309 433.29C398.559 430.18 396.469 426.94 392.759 425.78C386.509 423.82 379.869 430.49 377.049 441.2C372.159 444.18 339.489 461.89 339.489 461.89" fill="#FFEBD1"/>
<path d="M314.959 503.66C339.479 515.72 387.659 489.86 405.619 477.07C423.579 464.28 424.939 452.93 421.609 441.97C418.789 432.69 407.099 427.18 398.309 433.29C398.559 430.18 396.469 426.94 392.759 425.78C386.509 423.82 379.869 430.49 377.049 441.2C372.159 444.18 339.489 461.89 339.489 461.89" stroke="#0A13FF" stroke-width="5" stroke-linecap="round" stroke-linejoin="round"/>
<path d="M568.02 505.31C577.48 517.37 580.92 536.35 568.29 547.75C565.12 550.61 559.77 551.94 555.46 551.6C550.21 551.19 546.72 549.44 546.8 544.11C546.88 538.78 543.95 536.82 533.61 536.87C532.02 533.2 531.62 528.41 533.21 523.11" fill="#FFEBD1"/>
<path d="M568.02 505.31C577.48 517.37 580.92 536.35 568.29 547.75C565.12 550.61 559.77 551.94 555.46 551.6C550.21 551.19 546.72 549.44 546.8 544.11C546.88 538.78 543.95 536.82 533.61 536.87C532.02 533.2 531.62 528.41 533.21 523.11" stroke="#0A13FF" stroke-width="5" stroke-linecap="round" stroke-linejoin="round"/>
</g>
<defs>
<clipPath id="clip0_137_3592">
<rect width="100%" height="100%" fill="white"/>
</clipPath>
</defs>
</svg>
