<svg class="tree-image-resource" viewBox="0 0 860 860" fill="none" xmlns="http://www.w3.org/2000/svg">
<g clip-path="url(#clip0_137_3636)">
<path d="M337.862 493.13L365.822 410.08L328.702 397.59C328.702 397.59 311.042 439.41 306.152 457.17C301.262 474.93 297.302 495.25 314.972 503.67" fill="#FFEBD1"/>
<path d="M337.862 493.13L365.822 410.08L328.702 397.59C328.702 397.59 311.042 439.41 306.152 457.17C301.262 474.93 297.302 495.25 314.972 503.67" stroke="#0A13FF" stroke-width="5" stroke-linecap="round" stroke-linejoin="round"/>
<path d="M493.91 410.07L531.03 397.58L568.02 505.31C574.11 514.01 579.4 534.86 566.77 546.27C563.6 549.13 558.11 550.3 553.38 550.74C548.14 551.23 544.39 545.59 547.13 541.1C547.15 541.06 547.18 541.02 547.21 540.98C545.8 543.76 544.94 544.83 541.17 543.88C534.82 542.28 530.03 533.72 533.22 523.12C530.61 518.02 528.33 512.31 526.24 506.1L493.92 410.07H493.91Z" fill="#FFEBD1" stroke="#0A13FF" stroke-width="5" stroke-linecap="round" stroke-linejoin="round"/>
<path d="M430.003 375.64L346.923 448.35C346.923 448.35 323.163 437.89 307.473 426.25C330.873 364.79 373.053 348.93 400.143 348.93H426.993" fill="white"/>
<path d="M430.003 375.64L346.923 448.35C346.923 448.35 323.163 437.89 307.473 426.25C330.873 364.79 373.053 348.93 400.143 348.93H426.993" stroke="#0A13FF" stroke-width="5" stroke-miterlimit="10"/>
<path d="M430.004 375.64L513.084 448.35C513.084 448.35 536.844 437.89 552.534 426.25C529.134 364.79 486.954 348.93 459.864 348.93H433.014" fill="white"/>
<path d="M430.004 375.64L513.084 448.35C513.084 448.35 536.844 437.89 552.534 426.25C529.134 364.79 486.954 348.93 459.864 348.93H433.014" stroke="#0A13FF" stroke-width="5" stroke-miterlimit="10"/>
<path d="M503.773 390.84C496.423 372.78 486.463 354.73 430.003 354.73C373.543 354.73 363.573 372.78 356.233 390.84C343.933 421.07 335.453 533.65 335.453 533.65C365.043 537.95 400.683 539.89 430.003 539.76C459.323 539.9 494.963 537.95 524.553 533.65C524.553 533.65 516.073 421.07 503.773 390.84Z" fill="white"/>
<path d="M507.853 407.25C514.193 441.6 524.553 533.19 524.553 533.19C494.963 537.49 447.913 539.76 430.003 539.76C412.093 539.76 365.043 537.49 335.453 533.19C335.453 533.19 345.813 441.6 352.153 407.25" fill="white"/>
<path d="M507.853 407.25C514.193 441.6 524.553 533.19 524.553 533.19C494.963 537.49 447.913 539.76 430.003 539.76C412.093 539.76 365.043 537.49 335.453 533.19C335.453 533.19 345.813 441.6 352.153 407.25" stroke="#0A13FF" stroke-width="5" stroke-miterlimit="10"/>
<path d="M377.502 352.39C365.162 356.11 351.882 363.18 339.492 375.23C380.912 362.22 398.252 396.08 430.002 385.5L429.972 377.9L413.612 348.94H400.152C399.972 348.94 399.792 348.94 399.602 348.94C397.092 348.98 388.292 349.71 377.492 352.38L377.502 352.39Z" fill="#1860FC" stroke="#0A13FF" stroke-width="5" stroke-linecap="round" stroke-linejoin="round"/>
<path d="M482.504 352.39C494.844 356.11 508.124 363.18 520.514 375.23C479.094 362.22 461.754 396.08 430.004 385.5L430.034 377.9L446.394 348.94H459.854C460.034 348.94 460.214 348.94 460.404 348.94C462.914 348.98 471.714 349.71 482.514 352.38L482.504 352.39Z" fill="#1860FC" stroke="#0A13FF" stroke-width="5" stroke-linecap="round" stroke-linejoin="round"/>
<path d="M430.001 375.65C446.277 375.65 459.471 362.456 459.471 346.18C459.471 329.904 446.277 316.71 430.001 316.71C413.725 316.71 400.531 329.904 400.531 346.18C400.531 362.456 413.725 375.65 430.001 375.65Z" fill="#FFEBD1" stroke="#0A13FF" stroke-width="5" stroke-miterlimit="10"/>
<path d="M430.003 389.66C433.483 389.66 436.303 386.839 436.303 383.36C436.303 379.881 433.483 377.06 430.003 377.06C426.524 377.06 423.703 379.881 423.703 383.36C423.703 386.839 426.524 389.66 430.003 389.66Z" fill="#1860FC" stroke="#0A13FF" stroke-width="5" stroke-miterlimit="10"/>
<path d="M333.91 383.36L353.93 397.57C405.08 405.08 455.8 405.19 506.06 397.48L528.09 383.36" stroke="#0A13FF" stroke-width="8" stroke-miterlimit="10"/>
<path d="M348.422 427.32C403.292 432.58 457.532 432.71 511.112 427.32" stroke="#0A13FF" stroke-width="8" stroke-miterlimit="10"/>
<path d="M344.891 455.99C402.171 461.78 458.911 461.9 515.101 455.99" stroke="#0A13FF" stroke-width="8" stroke-miterlimit="10"/>
<path d="M341.23 484.66C400.65 493.26 459.92 493.21 519.05 484.66" stroke="#0A13FF" stroke-width="8" stroke-miterlimit="10"/>
<path d="M337.762 513.33C398.292 523.1 459.802 523.52 522.422 513.33" stroke="#0A13FF" stroke-width="8" stroke-miterlimit="10"/>
<path d="M541.412 548.45C540.422 548.45 539.452 548.44 538.492 548.41C493.062 547.13 469.072 519.14 451.592 491.92C435.632 467.07 419.143 441.37 386.413 429.48L384.062 428.63L387.823 418.29L390.173 419.14C426.393 432.3 443.913 459.59 460.853 485.97C488.293 528.71 512.562 537.47 540.562 537.47C542.833 537.47 545.182 537.4 547.542 537.26L550.042 537.11L550.703 548.09L548.203 548.24C545.913 548.38 543.622 548.45 541.412 548.45Z" fill="#D250F7"/>
<path d="M389.323 421.5C424.743 434.37 442.033 461.3 458.753 487.33C477.913 517.17 499.273 539.98 540.563 539.98C542.883 539.98 545.253 539.91 547.693 539.76L548.053 545.75C545.783 545.89 543.563 545.95 541.413 545.95C540.453 545.95 539.503 545.94 538.563 545.91C495.933 544.71 472.723 520.19 453.703 490.57C437.523 465.37 420.793 439.31 387.273 427.13L389.323 421.49M386.333 415.08L384.623 419.78L382.573 425.42L380.863 430.12L385.563 431.83C417.493 443.43 433.763 468.77 449.493 493.27C461.253 511.59 471.993 523.82 484.303 532.92C499.893 544.44 517.593 550.32 538.423 550.91C539.403 550.94 540.413 550.95 541.413 550.95C543.673 550.95 546.003 550.88 548.343 550.74L553.333 550.44L553.033 545.45L552.673 539.46L552.373 534.47L547.383 534.77C545.063 534.91 542.763 534.98 540.553 534.98C522.463 534.98 507.333 530.35 494.303 520.81C487.173 515.6 477.173 506.78 462.953 484.63C445.783 457.89 428.033 430.24 391.023 416.8L386.323 415.09L386.333 415.08Z" fill="#0A13FF"/>
<path d="M386.487 389.671C384.674 387.494 381.439 387.199 379.262 389.012C377.085 390.825 376.79 394.06 378.603 396.237L392.465 412.88C394.278 415.057 397.513 415.352 399.69 413.539C401.867 411.726 402.162 408.491 400.349 406.314L386.487 389.671Z" fill="#D250F7" stroke="#0A13FF" stroke-width="4.54" stroke-miterlimit="10"/>
<path d="M372.057 401.699C370.244 399.522 367.01 399.227 364.832 401.041C362.655 402.854 362.361 406.088 364.174 408.265L378.036 424.909C379.849 427.086 383.083 427.381 385.261 425.568C387.438 423.755 387.732 420.52 385.919 418.343L372.057 401.699Z" fill="#D250F7" stroke="#0A13FF" stroke-width="4.54" stroke-miterlimit="10"/>
<path d="M365.898 424.918L402.551 394.391L407.639 400.499C416.061 410.612 414.688 425.667 404.576 434.089C394.464 442.511 379.408 441.138 370.986 431.026L365.898 424.918Z" fill="#D250F7" stroke="#0A13FF" stroke-width="5" stroke-miterlimit="10"/>
<path d="M314.961 503.66C339.481 515.72 387.661 489.86 405.621 477.07C423.581 464.28 424.941 452.93 421.611 441.97C418.791 432.69 407.101 427.18 398.311 433.29C398.561 430.18 396.471 426.94 392.761 425.78C386.511 423.82 379.871 430.49 377.051 441.2C372.161 444.18 339.491 461.89 339.491 461.89" fill="#FFEBD1"/>
<path d="M314.961 503.66C339.481 515.72 387.661 489.86 405.621 477.07C423.581 464.28 424.941 452.93 421.611 441.97C418.791 432.69 407.101 427.18 398.311 433.29C398.561 430.18 396.471 426.94 392.761 425.78C386.511 423.82 379.871 430.49 377.051 441.2C372.161 444.18 339.491 461.89 339.491 461.89" stroke="#0A13FF" stroke-width="5" stroke-linecap="round" stroke-linejoin="round"/>
<path d="M568.02 505.31C577.48 517.37 580.92 536.35 568.29 547.75C565.12 550.61 559.77 551.94 555.46 551.6C550.21 551.19 546.72 549.44 546.8 544.11C546.88 538.78 543.95 536.82 533.61 536.87C532.02 533.2 531.62 528.41 533.21 523.11" fill="#FFEBD1"/>
<path d="M568.02 505.31C577.48 517.37 580.92 536.35 568.29 547.75C565.12 550.61 559.77 551.94 555.46 551.6C550.21 551.19 546.72 549.44 546.8 544.11C546.88 538.78 543.95 536.82 533.61 536.87C532.02 533.2 531.62 528.41 533.21 523.11" stroke="#0A13FF" stroke-width="5" stroke-linecap="round" stroke-linejoin="round"/>
<path d="M545.043 409.3L511.113 427.32" stroke="#0A13FF" stroke-width="8" stroke-miterlimit="10"/>
<path d="M314.961 409.3L348.891 427.32" stroke="#0A13FF" stroke-width="8" stroke-miterlimit="10"/>
</g>
<defs>
<clipPath id="clip0_137_3636">
<rect width="100%" height="100%" fill="white"/>
</clipPath>
</defs>
</svg>
