<svg class="tree-image-resource" viewBox="0 0 860 860" fill="none" xmlns="http://www.w3.org/2000/svg">
<g clip-path="url(#clip0_137_3765)">
<path d="M337.862 493.13L365.822 410.08L328.702 397.59C328.702 397.59 311.042 439.41 306.152 457.17C301.262 474.93 297.302 495.25 314.972 503.67" fill="#FFEBD1"/>
<path d="M337.862 493.13L365.822 410.08L328.702 397.59C328.702 397.59 311.042 439.41 306.152 457.17C301.262 474.93 297.302 495.25 314.972 503.67" stroke="#0A13FF" stroke-width="5" stroke-linecap="round" stroke-linejoin="round"/>
<path d="M493.91 410.07L531.03 397.58L568.02 505.31C574.11 514.01 579.4 534.86 566.77 546.27C563.6 549.13 558.11 550.3 553.38 550.74C548.14 551.23 544.39 545.59 547.13 541.1C547.15 541.06 547.18 541.02 547.21 540.98C545.8 543.76 544.94 544.83 541.17 543.88C534.82 542.28 530.03 533.72 533.22 523.12C530.61 518.02 528.33 512.31 526.24 506.1L493.92 410.07H493.91Z" fill="#FFEBD1" stroke="#0A13FF" stroke-width="5" stroke-linecap="round" stroke-linejoin="round"/>
<path d="M430 375.64L345.31 458.72C345.31 458.72 352.65 498.34 339.49 506.78C327.39 514.54 308.89 510.25 302 500.34C299.19 496.31 288.42 479.53 307.48 426.26C330.88 364.8 373.06 348.94 400.15 348.94H427" class="fill"/>
<path d="M430 375.64L345.31 458.72C345.31 458.72 352.65 498.34 339.49 506.78C327.39 514.54 308.89 510.25 302 500.34C299.19 496.31 288.42 479.53 307.48 426.26C330.88 364.8 373.06 348.94 400.15 348.94H427" stroke="#0A13FF" stroke-width="5" stroke-miterlimit="10"/>
<path d="M430 375.64L522.07 511.88L578.39 491.09C578.39 491.09 563.66 452.59 552.52 426.25C529.12 364.79 486.94 348.93 459.85 348.93H433" class="fill"/>
<path d="M430 375.64L522.07 511.88L578.39 491.09C578.39 491.09 563.66 452.59 552.52 426.25C529.12 364.79 486.94 348.93 459.85 348.93H433" stroke="#0A13FF" stroke-width="5" stroke-miterlimit="10"/>
<path d="M564.19 459.11C549.39 459.11 549.37 482.11 564.19 482.11C568.37 482.11 571.37 480.27 573.19 477.64C575.28 474.62 570.9 468.74 570.9 468.74C570.9 468.74 570.03 459.11 564.18 459.11H564.19Z" fill="#0A13FF"/>
<path d="M519.85 448.17C505.05 448.17 505.03 471.17 519.85 471.17C534.67 471.17 534.67 448.17 519.85 448.17Z" fill="#0A13FF"/>
<path d="M542.061 402.97C527.261 402.97 527.241 425.97 542.061 425.97C546.131 425.97 549.081 424.23 550.921 421.71L542.061 402.97Z" fill="#0A13FF"/>
<path d="M503.769 390.84C496.419 372.78 486.459 354.73 429.999 354.73C373.539 354.73 363.569 372.78 356.229 390.84C343.929 421.07 335.449 533.65 335.449 533.65C365.039 537.95 400.679 539.89 429.999 539.76C459.319 539.9 494.959 537.95 524.549 533.65C524.549 533.65 516.069 421.07 503.769 390.84Z" class="fill"/>
<path d="M507.849 407.25C514.189 441.6 524.549 533.19 524.549 533.19C494.959 537.49 447.909 539.76 429.999 539.76C412.089 539.76 365.039 537.49 335.449 533.19C335.449 533.19 345.809 441.6 352.149 407.25" class="fill"/>
<path d="M507.849 407.25C514.189 441.6 524.549 533.19 524.549 533.19C494.959 537.49 447.909 539.76 429.999 539.76C412.089 539.76 365.039 537.49 335.449 533.19C335.449 533.19 345.809 441.6 352.149 407.25" stroke="#0A13FF" stroke-width="5" stroke-miterlimit="10"/>
<path d="M491.541 499.28C476.741 499.28 476.721 522.28 491.541 522.28C506.361 522.28 506.361 499.28 491.541 499.28Z" fill="#0A13FF"/>
<path d="M370.44 497.89C355.64 497.89 355.62 520.89 370.44 520.89C385.26 520.89 385.26 497.89 370.44 497.89Z" fill="#0A13FF"/>
<path d="M430.639 466.11C415.839 466.11 415.819 489.11 430.639 489.11C445.459 489.11 445.459 466.11 430.639 466.11Z" fill="#0A13FF"/>
<path d="M377.498 352.39C365.158 356.11 351.878 363.18 339.488 375.23C380.908 362.22 398.248 396.08 429.998 385.5L429.968 377.9L413.608 348.94H400.148C399.968 348.94 399.788 348.94 399.598 348.94C397.088 348.98 388.288 349.71 377.488 352.38L377.498 352.39Z" fill="#1860FC" stroke="#0A13FF" stroke-width="5" stroke-linecap="round" stroke-linejoin="round"/>
<path d="M482.5 352.39C494.84 356.11 508.12 363.18 520.51 375.23C479.09 362.22 461.75 396.08 430 385.5L430.03 377.9L446.39 348.94H459.85C460.03 348.94 460.21 348.94 460.4 348.94C462.91 348.98 471.71 349.71 482.51 352.38L482.5 352.39Z" fill="#1860FC" stroke="#0A13FF" stroke-width="5" stroke-linecap="round" stroke-linejoin="round"/>
<path d="M430.001 375.65C446.277 375.65 459.471 362.456 459.471 346.18C459.471 329.904 446.277 316.71 430.001 316.71C413.725 316.71 400.531 329.904 400.531 346.18C400.531 362.456 413.725 375.65 430.001 375.65Z" fill="#FFEBD1" stroke="#0A13FF" stroke-width="5" stroke-miterlimit="10"/>
<path d="M429.999 389.66C433.479 389.66 436.299 386.839 436.299 383.36C436.299 379.881 433.479 377.06 429.999 377.06C426.52 377.06 423.699 379.881 423.699 383.36C423.699 386.839 426.52 389.66 429.999 389.66Z" fill="#1860FC" stroke="#0A13FF" stroke-width="5" stroke-miterlimit="10"/>
<path d="M541.412 548.45C540.422 548.45 539.452 548.44 538.492 548.41C493.062 547.13 469.072 519.14 451.592 491.92C435.632 467.07 419.143 441.37 386.413 429.48L384.062 428.63L387.823 418.29L390.173 419.14C426.393 432.3 443.913 459.59 460.853 485.97C488.293 528.71 512.562 537.47 540.562 537.47C542.833 537.47 545.182 537.4 547.542 537.26L550.042 537.11L550.703 548.09L548.203 548.24C545.913 548.38 543.622 548.45 541.412 548.45Z" fill="#D250F7"/>
<path d="M389.321 421.5C424.741 434.37 442.031 461.3 458.751 487.33C477.911 517.17 499.271 539.98 540.561 539.98C542.881 539.98 545.251 539.91 547.691 539.76L548.051 545.75C545.781 545.89 543.561 545.95 541.421 545.95C540.461 545.95 539.501 545.94 538.571 545.91C495.941 544.71 472.731 520.19 453.711 490.57C437.531 465.37 420.801 439.31 387.281 427.13L389.331 421.49M386.341 415.08L384.631 419.78L382.581 425.42L380.871 430.12L385.571 431.83C417.501 443.43 433.771 468.77 449.501 493.27C461.261 511.59 472.001 523.82 484.311 532.92C499.901 544.44 517.601 550.32 538.431 550.91C539.421 550.94 540.421 550.95 541.431 550.95C543.681 550.95 546.021 550.88 548.361 550.74L553.351 550.44L553.051 545.45L552.691 539.46L552.391 534.47L547.401 534.77C545.081 534.91 542.781 534.98 540.571 534.98C522.481 534.98 507.351 530.35 494.321 520.81C487.191 515.6 477.191 506.78 462.971 484.63C445.801 457.89 428.051 430.24 391.041 416.8L386.341 415.09V415.08Z" fill="#0A13FF"/>
<path d="M386.483 389.671C384.67 387.494 381.435 387.199 379.258 389.012C377.081 390.825 376.786 394.06 378.599 396.237L392.461 412.88C394.275 415.057 397.509 415.352 399.686 413.539C401.863 411.726 402.158 408.491 400.345 406.314L386.483 389.671Z" fill="#D250F7" stroke="#0A13FF" stroke-width="4.54" stroke-miterlimit="10"/>
<path d="M372.054 401.699C370.24 399.522 367.006 399.227 364.829 401.041C362.652 402.854 362.357 406.088 364.17 408.265L378.032 424.909C379.845 427.086 383.08 427.381 385.257 425.568C387.434 423.755 387.729 420.52 385.915 418.343L372.054 401.699Z" fill="#D250F7" stroke="#0A13FF" stroke-width="4.54" stroke-miterlimit="10"/>
<path d="M365.895 424.918L402.547 394.391L407.635 400.499C416.057 410.612 414.684 425.667 404.572 434.089C394.46 442.511 379.404 441.138 370.982 431.026L365.895 424.918Z" fill="#D250F7" stroke="#0A13FF" stroke-width="5" stroke-miterlimit="10"/>
<path d="M314.961 503.66C339.481 515.72 387.661 489.86 405.621 477.07C423.581 464.28 424.941 452.93 421.611 441.97C418.791 432.69 407.101 427.18 398.311 433.29C398.561 430.18 396.471 426.94 392.761 425.78C386.511 423.82 379.871 430.49 377.051 441.2C372.161 444.18 339.491 461.89 339.491 461.89" fill="#FFEBD1"/>
<path d="M314.961 503.66C339.481 515.72 387.661 489.86 405.621 477.07C423.581 464.28 424.941 452.93 421.611 441.97C418.791 432.69 407.101 427.18 398.311 433.29C398.561 430.18 396.471 426.94 392.761 425.78C386.511 423.82 379.871 430.49 377.051 441.2C372.161 444.18 339.491 461.89 339.491 461.89" stroke="#0A13FF" stroke-width="5" stroke-linecap="round" stroke-linejoin="round"/>
<path d="M568.02 505.31C577.48 517.37 580.92 536.35 568.29 547.75C565.12 550.61 559.77 551.94 555.46 551.6C550.21 551.19 546.72 549.44 546.8 544.11C546.88 538.78 543.95 536.82 533.61 536.87C532.02 533.2 531.62 528.41 533.21 523.11" fill="#FFEBD1"/>
<path d="M568.02 505.31C577.48 517.37 580.92 536.35 568.29 547.75C565.12 550.61 559.77 551.94 555.46 551.6C550.21 551.19 546.72 549.44 546.8 544.11C546.88 538.78 543.95 536.82 533.61 536.87C532.02 533.2 531.62 528.41 533.21 523.11" stroke="#0A13FF" stroke-width="5" stroke-linecap="round" stroke-linejoin="round"/>
<path d="M330.36 458.06L369.01 440.56L396.08 488.78C396.08 488.78 336.46 524.39 307.02 505.31" class="fill"/>
<path d="M330.36 458.06L369.01 440.56L396.08 488.78C396.08 488.78 336.46 524.39 307.02 505.31" stroke="#0A13FF" stroke-width="5" stroke-linecap="round" stroke-linejoin="round"/>
<path d="M328.789 453.332L320.105 457.161L324.034 466.073L332.718 462.245L328.789 453.332Z" class="fill"/>
<path d="M478.772 414.47C463.972 414.47 463.952 437.47 478.772 437.47C493.592 437.47 493.592 414.47 478.772 414.47Z" fill="#0A13FF"/>
<path d="M317.032 492.95C310.262 492.95 306.582 497.76 306.002 502.99C305.312 509.18 325.532 513.18 327.102 509.55C330.052 502.74 326.702 492.95 317.032 492.95Z" fill="#0A13FF"/>
<path d="M346.219 451.78C345.779 457.83 349.469 464.24 357.289 464.24C368.829 464.24 371.389 450.25 364.919 444.09C363.099 442.35 346.609 446.37 346.209 451.78H346.219Z" fill="#0A13FF"/>
<path d="M324.338 401.76C309.538 401.76 309.518 424.76 324.338 424.76C339.158 424.76 339.158 401.76 324.338 401.76Z" fill="#0A13FF"/>
</g>
<defs>
<clipPath id="clip0_137_3765">
<rect width="100%" height="100%" class="fill"/>
</clipPath>
</defs>
</svg>
