<svg class="tree-image-resource" viewBox="0 0 860 860" fill="none" xmlns="http://www.w3.org/2000/svg">
<g clip-path="url(#clip0_137_3673)">
<path d="M337.858 493.13L365.818 410.08L328.698 397.59C328.698 397.59 311.038 439.41 306.148 457.17C301.258 474.93 297.298 495.25 314.968 503.67" fill="#FFEBD1"/>
<path d="M337.858 493.13L365.818 410.08L328.698 397.59C328.698 397.59 311.038 439.41 306.148 457.17C301.258 474.93 297.298 495.25 314.968 503.67" stroke="#0A13FF" stroke-width="5" stroke-linecap="round" stroke-linejoin="round"/>
<path d="M493.906 410.07L531.026 397.58L568.016 505.31C574.106 514.01 579.396 534.86 566.766 546.27C563.596 549.13 558.106 550.3 553.376 550.74C548.136 551.23 544.386 545.59 547.126 541.1C547.146 541.06 547.176 541.02 547.206 540.98C545.796 543.76 544.936 544.83 541.166 543.88C534.816 542.28 530.026 533.72 533.216 523.12C530.606 518.02 528.326 512.31 526.236 506.1L493.916 410.07H493.906Z" fill="#FFEBD1" stroke="#0A13FF" stroke-width="5" stroke-linecap="round" stroke-linejoin="round"/>
<path d="M429.998 375.64L346.918 448.35L286.328 481.18C286.328 481.18 295.848 456.72 307.478 426.25C330.878 364.79 373.058 348.93 400.148 348.93H426.998" fill="white"/>
<path d="M429.998 375.64L346.918 448.35L286.328 481.18C286.328 481.18 295.848 456.72 307.478 426.25C330.878 364.79 373.058 348.93 400.148 348.93H426.998" stroke="#0A13FF" stroke-width="5" stroke-miterlimit="10"/>
<path d="M430 375.64L513.08 448.35L572.35 477.55C572.35 477.55 566.41 462.03 552.52 426.25C529.12 364.79 486.94 348.93 459.85 348.93H433" fill="white"/>
<path d="M430 375.64L513.08 448.35L572.35 477.55C572.35 477.55 566.41 462.03 552.52 426.25C529.12 364.79 486.94 348.93 459.85 348.93H433" stroke="#0A13FF" stroke-width="5" stroke-miterlimit="10"/>
<path d="M503.769 390.84C496.419 372.78 486.459 354.73 429.999 354.73C373.539 354.73 363.569 372.78 356.229 390.84C343.929 421.07 335.449 533.65 335.449 533.65C365.039 537.95 400.679 539.89 429.999 539.76C459.319 539.9 494.959 537.95 524.549 533.65C524.549 533.65 516.069 421.07 503.769 390.84Z" fill="white"/>
<path d="M507.849 407.25C514.189 441.6 524.549 533.19 524.549 533.19C494.959 537.49 447.909 539.76 429.999 539.76C412.089 539.76 365.039 537.49 335.449 533.19C335.449 533.19 345.809 441.6 352.149 407.25" fill="white"/>
<path d="M507.849 407.25C514.189 441.6 524.549 533.19 524.549 533.19C494.959 537.49 447.909 539.76 429.999 539.76C412.089 539.76 365.039 537.49 335.449 533.19C335.449 533.19 345.809 441.6 352.149 407.25" stroke="#0A13FF" stroke-width="5" stroke-miterlimit="10"/>
<path d="M377.498 352.39C365.158 356.11 351.878 363.18 339.488 375.23C380.908 362.22 398.248 396.08 429.998 385.5L429.968 377.9L413.608 348.94H400.148C399.968 348.94 399.788 348.94 399.598 348.94C397.088 348.98 388.288 349.71 377.488 352.38L377.498 352.39Z" fill="#1860FC" stroke="#0A13FF" stroke-width="5" stroke-linecap="round" stroke-linejoin="round"/>
<path d="M482.5 352.39C494.84 356.11 508.12 363.18 520.51 375.23C479.09 362.22 461.75 396.08 430 385.5L430.03 377.9L446.39 348.94H459.85C460.03 348.94 460.21 348.94 460.4 348.94C462.91 348.98 471.71 349.71 482.51 352.38L482.5 352.39Z" fill="#1860FC" stroke="#0A13FF" stroke-width="5" stroke-linecap="round" stroke-linejoin="round"/>
<path d="M429.997 375.65C446.273 375.65 459.467 362.456 459.467 346.18C459.467 329.904 446.273 316.71 429.997 316.71C413.722 316.71 400.527 329.904 400.527 346.18C400.527 362.456 413.722 375.65 429.997 375.65Z" fill="#FFEBD1" stroke="#0A13FF" stroke-width="5" stroke-miterlimit="10"/>
<path d="M429.999 389.66C433.479 389.66 436.299 386.839 436.299 383.36C436.299 379.881 433.479 377.06 429.999 377.06C426.52 377.06 423.699 379.881 423.699 383.36C423.699 386.839 426.52 389.66 429.999 389.66Z" fill="#1860FC" stroke="#0A13FF" stroke-width="5" stroke-miterlimit="10"/>
<path d="M541.409 548.45C540.419 548.45 539.449 548.44 538.489 548.41C493.059 547.13 469.069 519.14 451.589 491.92C435.629 467.07 419.139 441.37 386.409 429.48L384.059 428.63L387.819 418.29L390.169 419.14C426.389 432.3 443.909 459.59 460.849 485.97C488.289 528.71 512.559 537.47 540.559 537.47C542.829 537.47 545.179 537.4 547.539 537.26L550.039 537.11L550.699 548.09L548.199 548.24C545.909 548.38 543.619 548.45 541.409 548.45Z" fill="#D250F7"/>
<path d="M389.319 421.5C424.739 434.37 442.029 461.3 458.749 487.33C477.909 517.17 499.269 539.98 540.559 539.98C542.879 539.98 545.249 539.91 547.689 539.76L548.049 545.75C545.779 545.89 543.559 545.95 541.409 545.95C540.449 545.95 539.499 545.94 538.559 545.91C495.929 544.71 472.719 520.19 453.699 490.57C437.519 465.37 420.789 439.31 387.269 427.13L389.319 421.49M386.329 415.08L384.619 419.78L382.569 425.42L380.859 430.12L385.559 431.83C417.489 443.43 433.759 468.77 449.489 493.27C461.249 511.59 471.989 523.82 484.299 532.92C499.889 544.44 517.589 550.32 538.419 550.91C539.399 550.94 540.409 550.95 541.409 550.95C543.669 550.95 545.999 550.88 548.339 550.74L553.329 550.44L553.029 545.45L552.669 539.46L552.369 534.47L547.379 534.77C545.059 534.91 542.759 534.98 540.549 534.98C522.459 534.98 507.329 530.35 494.299 520.81C487.169 515.6 477.169 506.78 462.949 484.63C445.779 457.89 428.029 430.24 391.019 416.8L386.319 415.09L386.329 415.08Z" fill="#0A13FF"/>
<path d="M386.483 389.671C384.67 387.494 381.435 387.199 379.258 389.012C377.081 390.825 376.786 394.06 378.599 396.237L392.461 412.88C394.275 415.057 397.509 415.352 399.686 413.539C401.863 411.726 402.158 408.491 400.345 406.314L386.483 389.671Z" fill="#D250F7" stroke="#0A13FF" stroke-width="4.54" stroke-miterlimit="10"/>
<path d="M372.054 401.699C370.24 399.522 367.006 399.227 364.829 401.041C362.652 402.854 362.357 406.088 364.17 408.265L378.032 424.909C379.845 427.086 383.08 427.381 385.257 425.568C387.434 423.755 387.729 420.52 385.915 418.343L372.054 401.699Z" fill="#D250F7" stroke="#0A13FF" stroke-width="4.54" stroke-miterlimit="10"/>
<path d="M365.895 424.918L402.547 394.391L407.635 400.499C416.057 410.612 414.684 425.667 404.572 434.089C394.46 442.511 379.404 441.138 370.982 431.026L365.895 424.918Z" fill="#D250F7" stroke="#0A13FF" stroke-width="5" stroke-miterlimit="10"/>
<path d="M314.957 503.66C339.477 515.72 387.657 489.86 405.617 477.07C423.577 464.28 424.937 452.93 421.607 441.97C418.787 432.69 407.097 427.18 398.307 433.29C398.557 430.18 396.467 426.94 392.757 425.78C386.507 423.82 379.867 430.49 377.047 441.2C372.157 444.18 339.487 461.89 339.487 461.89" fill="#FFEBD1"/>
<path d="M314.957 503.66C339.477 515.72 387.657 489.86 405.617 477.07C423.577 464.28 424.937 452.93 421.607 441.97C418.787 432.69 407.097 427.18 398.307 433.29C398.557 430.18 396.467 426.94 392.757 425.78C386.507 423.82 379.867 430.49 377.047 441.2C372.157 444.18 339.487 461.89 339.487 461.89" stroke="#0A13FF" stroke-width="5" stroke-linecap="round" stroke-linejoin="round"/>
<path d="M568.016 505.31C577.476 517.37 580.916 536.35 568.286 547.75C565.116 550.61 559.767 551.94 555.457 551.6C550.207 551.19 546.716 549.44 546.796 544.11C546.876 538.78 543.946 536.82 533.606 536.87C532.016 533.2 531.617 528.41 533.207 523.11" fill="#FFEBD1"/>
<path d="M568.016 505.31C577.476 517.37 580.916 536.35 568.286 547.75C565.116 550.61 559.767 551.94 555.457 551.6C550.207 551.19 546.716 549.44 546.796 544.11C546.876 538.78 543.946 536.82 533.606 536.87C532.016 533.2 531.617 528.41 533.207 523.11" stroke="#0A13FF" stroke-width="5" stroke-linecap="round" stroke-linejoin="round"/>
</g>
<defs>
<clipPath id="clip0_137_3673">
<rect width="100%" height="100%" fill="white"/>
</clipPath>
</defs>
</svg>
