<svg class="tree-image-resource" viewBox="0 0 860 860" fill="none" xmlns="http://www.w3.org/2000/svg">
<g clip-path="url(#clip0_153_4381)">
<path d="M329.731 507.47C363.171 503.49 369.111 404.97 369.111 404.97C353.301 381.88 339.721 371.04 331.991 392.48C331.991 392.48 314.331 434.3 309.441 452.06C304.551 469.82 300.591 490.14 318.261 498.56" fill="#FFEBD1"/>
<path d="M329.731 507.47C363.171 503.49 369.111 404.97 369.111 404.97C353.301 381.88 339.721 371.04 331.991 392.48C331.991 392.48 314.331 434.3 309.441 452.06C304.551 469.82 300.591 490.14 318.261 498.56" stroke="#0A13FF" stroke-width="5" stroke-linecap="round" stroke-linejoin="round"/>
<path d="M517.4 483.02L493.84 413.04C498.43 392.88 492.87 349.24 524.48 385.26C524.48 385.26 548.42 429.91 561.2 455.63C570.08 473.5 551.42 501.68 551.42 501.68C551.42 501.68 559.04 515.85 554.72 526.42C549.4 539.47 523.65 541.58 507.99 515.22" fill="#FFEBD1"/>
<path d="M517.4 483.02L493.84 413.04C498.43 392.88 492.87 349.24 524.48 385.26C524.48 385.26 548.42 429.91 561.2 455.63C570.08 473.5 551.42 501.68 551.42 501.68C551.42 501.68 559.04 515.85 554.72 526.42C549.4 539.47 523.65 541.58 507.99 515.22" stroke="#0A13FF" stroke-width="5" stroke-linecap="round" stroke-linejoin="round"/>
<path d="M430 375.64L508.9 413.26C508.9 413.26 514.55 402.25 526.59 381.64C504.6 356.55 478.6 348.94 459.84 348.94H432.99" fill="white"/>
<path d="M430 375.64L508.9 413.26C508.9 413.26 514.55 402.25 526.59 381.64C504.6 356.55 478.6 348.94 459.84 348.94H432.99" stroke="#0A13FF" stroke-width="5" stroke-miterlimit="10"/>
<path d="M430 375.64L351.1 413.26C351.1 413.26 345.45 402.25 333.41 381.64C355.4 356.55 381.4 348.94 400.16 348.94H427.01" fill="white"/>
<path d="M430 375.64L351.1 413.26C351.1 413.26 345.45 402.25 333.41 381.64C355.4 356.55 381.4 348.94 400.16 348.94H427.01" stroke="#0A13FF" stroke-width="5" stroke-miterlimit="10"/>
<path d="M503.769 390.84C496.419 372.78 486.459 354.73 429.999 354.73C373.539 354.73 363.569 372.78 356.229 390.84C343.929 421.07 335.449 533.65 335.449 533.65C365.039 537.95 400.679 539.89 429.999 539.76C459.319 539.9 494.959 537.95 524.549 533.65C524.549 533.65 516.069 421.07 503.769 390.84Z" fill="white"/>
<path d="M507.849 407.25C514.189 441.6 524.549 533.19 524.549 533.19C494.959 537.49 447.909 539.76 429.999 539.76C412.089 539.76 365.039 537.49 335.449 533.19C335.449 533.19 345.809 441.6 352.149 407.25" fill="white"/>
<path d="M507.849 407.25C514.189 441.6 524.549 533.19 524.549 533.19C494.959 537.49 447.909 539.76 429.999 539.76C412.089 539.76 365.039 537.49 335.449 533.19C335.449 533.19 345.809 441.6 352.149 407.25" stroke="#0A13FF" stroke-width="5" stroke-miterlimit="10"/>
<path d="M377.5 352.39C365.16 356.11 351.88 363.18 339.49 375.23C380.91 362.22 398.25 396.08 430 385.5L429.97 377.9L413.61 348.94H400.15C399.97 348.94 399.79 348.94 399.6 348.94C397.09 348.98 388.29 349.71 377.49 352.38L377.5 352.39Z" fill="#FF86E6" stroke="#0A13FF" stroke-width="5" stroke-linecap="round" stroke-linejoin="round"/>
<path d="M482.5 352.39C494.84 356.11 508.12 363.18 520.51 375.23C479.09 362.22 461.75 396.08 430 385.5L430.03 377.9L446.39 348.94H459.85C460.03 348.94 460.21 348.94 460.4 348.94C462.91 348.98 471.71 349.71 482.51 352.38L482.5 352.39Z" fill="#FF86E6" stroke="#0A13FF" stroke-width="5" stroke-linecap="round" stroke-linejoin="round"/>
<path d="M429.999 375.65C446.275 375.65 459.469 362.456 459.469 346.18C459.469 329.904 446.275 316.71 429.999 316.71C413.723 316.71 400.529 329.904 400.529 346.18C400.529 362.456 413.723 375.65 429.999 375.65Z" fill="#FFEBD1" stroke="#0A13FF" stroke-width="5" stroke-miterlimit="10"/>
<path d="M429.999 389.66C433.479 389.66 436.299 386.839 436.299 383.36C436.299 379.881 433.479 377.06 429.999 377.06C426.52 377.06 423.699 379.881 423.699 383.36C423.699 386.839 426.52 389.66 429.999 389.66Z" fill="#FF86E6" stroke="#0A13FF" stroke-width="5" stroke-miterlimit="10"/>
<path d="M518.99 479.91L524.49 472.28" stroke="#0A13FF" stroke-width="5" stroke-linecap="round" stroke-linejoin="round"/>
<path d="M429.941 389.66C433.42 389.66 436.241 386.839 436.241 383.36C436.241 379.881 433.42 377.06 429.941 377.06C426.461 377.06 423.641 379.881 423.641 383.36C423.641 386.839 426.461 389.66 429.941 389.66Z" fill="#FF86E6" stroke="#0A13FF" stroke-width="5" stroke-miterlimit="10"/>
<path d="M329.729 507.47C293.549 514.13 272.719 448.18 269.449 423.78C266.519 401.92 273.489 387.5 284.229 383.52C293.319 380.15 306.289 385.24 308.369 395.75C310.349 393.34 314.099 392.47 317.579 394.21C323.429 397.15 323.579 406.55 318.159 416.21C319.609 421.76 333.649 453.95 333.649 453.95" fill="#FFEBD1"/>
<path d="M329.729 507.47C293.549 514.13 272.719 448.18 269.449 423.78C266.519 401.92 273.489 387.5 284.229 383.52C293.319 380.15 306.289 385.24 308.369 395.75C310.349 393.34 314.099 392.47 317.579 394.21C323.429 397.15 323.579 406.55 318.159 416.21C319.609 421.76 333.649 453.95 333.649 453.95" stroke="#0A13FF" stroke-width="5" stroke-linecap="round" stroke-linejoin="round"/>
<path d="M312.181 350.74H259.631C256.737 350.74 254.391 353.086 254.391 355.98V444.73C254.391 447.624 256.737 449.97 259.631 449.97H312.181C315.075 449.97 317.421 447.624 317.421 444.73V355.98C317.421 353.086 315.075 350.74 312.181 350.74Z" fill="#0A5EFF" stroke="#0A13FF" stroke-width="5.89" stroke-linecap="round" stroke-linejoin="round"/>
<path d="M263.32 358.96V430.08V435.92V441.75L267.09 437.99L270.85 441.75L274.62 437.99L278.38 441.75L282.14 437.99L285.91 441.75L289.67 437.99L293.43 441.75L297.2 437.99L300.96 441.75L304.73 437.99L308.49 441.75V435.92V430.08V358.96H263.32Z" fill="white"/>
<path d="M317.95 418.21C323.252 418.21 327.55 412.47 327.55 405.39C327.55 398.31 323.252 392.57 317.95 392.57C312.648 392.57 308.35 398.31 308.35 405.39C308.35 412.47 312.648 418.21 317.95 418.21Z" fill="#FFEBD1" stroke="#0A13FF" stroke-width="5" stroke-linecap="round" stroke-linejoin="round"/>
<path d="M261.94 405.92C261.94 419.22 256.81 430 250.48 430C244.15 430 240.52 419.22 240.52 405.92C240.52 392.62 244.15 381.84 250.48 381.84C256.81 381.84 261.94 392.62 261.94 405.92Z" fill="#FFEBD1" stroke="#0A13FF" stroke-width="5" stroke-linecap="round" stroke-linejoin="round"/>
<path d="M268.76 430H303.25" stroke="#CF003F" stroke-width="3" stroke-miterlimit="10"/>
<path d="M268.949 368.66H303.059" stroke="#0A13FF" stroke-width="3" stroke-miterlimit="10"/>
<path d="M268.949 378.64H303.059" stroke="#0A13FF" stroke-width="3" stroke-miterlimit="10"/>
<path d="M268.949 388.62H303.059" stroke="#0A13FF" stroke-width="3" stroke-miterlimit="10"/>
<path d="M268.949 398.6H303.059" stroke="#0A13FF" stroke-width="3" stroke-miterlimit="10"/>
<path d="M268.949 408.58H303.059" stroke="#0A13FF" stroke-width="3" stroke-miterlimit="10"/>
<path d="M268.949 418.56H303.059" stroke="#0A13FF" stroke-width="3" stroke-miterlimit="10"/>
</g>
<defs>
<clipPath id="clip0_153_4381">
<rect width="100%" height="100%" fill="white"/>
</clipPath>
</defs>
</svg>
