<svg class="tree-image-resource" viewBox="0 0 860 860" fill="none" xmlns="http://www.w3.org/2000/svg">
<g clip-path="url(#clip0_153_4334)">
<path d="M517.4 483.02L493.84 413.04L524.48 403.33C524.48 403.33 548.42 429.91 561.2 455.63C570.08 473.5 551.42 501.68 551.42 501.68C551.42 501.68 559.04 515.85 554.72 526.42C549.4 539.47 523.65 541.58 507.99 515.22" fill="#FFEBD1"/>
<path d="M517.4 483.02L493.84 413.04L524.48 403.33C524.48 403.33 548.42 429.91 561.2 455.63C570.08 473.5 551.42 501.68 551.42 501.68C551.42 501.68 559.04 515.85 554.72 526.42C549.4 539.47 523.65 541.58 507.99 515.22" stroke="#0A13FF" stroke-width="5" stroke-linecap="round" stroke-linejoin="round"/>
<path d="M329.731 507.47C363.171 503.49 369.111 404.97 369.111 404.97L331.991 392.48C331.991 392.48 314.331 434.3 309.441 452.06C304.551 469.82 300.591 490.14 318.261 498.56" fill="#FFEBD1"/>
<path d="M329.731 507.47C363.171 503.49 369.111 404.97 369.111 404.97L331.991 392.48C331.991 392.48 314.331 434.3 309.441 452.06C304.551 469.82 300.591 490.14 318.261 498.56" stroke="#0A13FF" stroke-width="5" stroke-linecap="round" stroke-linejoin="round"/>
<path d="M319.73 428.87C325.186 428.87 329.61 424.446 329.61 418.99C329.61 413.533 325.186 409.11 319.73 409.11C314.273 409.11 309.85 413.533 309.85 418.99C309.85 424.446 314.273 428.87 319.73 428.87Z" fill="white" stroke="#0A13FF" stroke-width="5" stroke-miterlimit="10"/>
<path d="M326.659 445.19C332.116 445.19 336.539 440.767 336.539 435.31C336.539 429.853 332.116 425.43 326.659 425.43C321.203 425.43 316.779 429.853 316.779 435.31C316.779 440.767 321.203 445.19 326.659 445.19Z" fill="white" stroke="#0A13FF" stroke-width="5" stroke-miterlimit="10"/>
<path d="M339.489 456.41C344.946 456.41 349.369 451.986 349.369 446.53C349.369 441.073 344.946 436.65 339.489 436.65C334.033 436.65 329.609 441.073 329.609 446.53C329.609 451.986 334.033 456.41 339.489 456.41Z" fill="white" stroke="#0A13FF" stroke-width="5" stroke-miterlimit="10"/>
<path d="M347.269 547.4C353.797 547.4 359.089 542.484 359.089 536.42C359.089 530.356 353.797 525.44 347.269 525.44C340.741 525.44 335.449 530.356 335.449 536.42C335.449 542.484 340.741 547.4 347.269 547.4Z" fill="white" stroke="#0A13FF" stroke-width="5.19" stroke-miterlimit="10"/>
<path d="M370.91 550.73C377.438 550.73 382.73 545.814 382.73 539.75C382.73 533.686 377.438 528.77 370.91 528.77C364.382 528.77 359.09 533.686 359.09 539.75C359.09 545.814 364.382 550.73 370.91 550.73Z" fill="white" stroke="#0A13FF" stroke-width="5.19" stroke-miterlimit="10"/>
<path d="M394.539 553.6C401.067 553.6 406.359 548.684 406.359 542.62C406.359 536.556 401.067 531.64 394.539 531.64C388.011 531.64 382.719 536.556 382.719 542.62C382.719 548.684 388.011 553.6 394.539 553.6Z" fill="white" stroke="#0A13FF" stroke-width="5.19" stroke-miterlimit="10"/>
<path d="M418.179 554.43C424.707 554.43 429.999 549.514 429.999 543.45C429.999 537.386 424.707 532.47 418.179 532.47C411.651 532.47 406.359 537.386 406.359 543.45C406.359 549.514 411.651 554.43 418.179 554.43Z" fill="white" stroke="#0A13FF" stroke-width="5.19" stroke-miterlimit="10"/>
<path d="M512.73 550.73C519.258 550.73 524.55 545.814 524.55 539.75C524.55 533.686 519.258 528.77 512.73 528.77C506.202 528.77 500.91 533.686 500.91 539.75C500.91 545.814 506.202 550.73 512.73 550.73Z" fill="white" stroke="#0A13FF" stroke-width="5.19" stroke-miterlimit="10"/>
<path d="M489.09 553.6C495.618 553.6 500.91 548.684 500.91 542.62C500.91 536.556 495.618 531.64 489.09 531.64C482.562 531.64 477.27 536.556 477.27 542.62C477.27 548.684 482.562 553.6 489.09 553.6Z" fill="white" stroke="#0A13FF" stroke-width="5.19" stroke-miterlimit="10"/>
<path d="M465.459 554.43C471.987 554.43 477.279 549.514 477.279 543.45C477.279 537.386 471.987 532.47 465.459 532.47C458.931 532.47 453.639 537.386 453.639 543.45C453.639 549.514 458.931 554.43 465.459 554.43Z" fill="white" stroke="#0A13FF" stroke-width="5.19" stroke-miterlimit="10"/>
<path d="M441.82 555.89C448.348 555.89 453.64 550.974 453.64 544.91C453.64 538.846 448.348 533.93 441.82 533.93C435.292 533.93 430 538.846 430 544.91C430 550.974 435.292 555.89 441.82 555.89Z" fill="white" stroke="#0A13FF" stroke-width="5.19" stroke-miterlimit="10"/>
<path d="M540.269 428.87C545.725 428.87 550.149 424.446 550.149 418.99C550.149 413.533 545.725 409.11 540.269 409.11C534.812 409.11 530.389 413.533 530.389 418.99C530.389 424.446 534.812 428.87 540.269 428.87Z" fill="white" stroke="#0A13FF" stroke-width="5" stroke-miterlimit="10"/>
<path d="M533.339 445.19C538.796 445.19 543.219 440.767 543.219 435.31C543.219 429.853 538.796 425.43 533.339 425.43C527.882 425.43 523.459 429.853 523.459 435.31C523.459 440.767 527.882 445.19 533.339 445.19Z" fill="white" stroke="#0A13FF" stroke-width="5" stroke-miterlimit="10"/>
<path d="M520.509 456.41C525.965 456.41 530.389 451.986 530.389 446.53C530.389 441.073 525.965 436.65 520.509 436.65C515.052 436.65 510.629 441.073 510.629 446.53C510.629 451.986 515.052 456.41 520.509 456.41Z" fill="white" stroke="#0A13FF" stroke-width="5" stroke-miterlimit="10"/>
<path d="M429.999 375.64L346.919 448.35H346.889C321.439 437.08 314.049 404.53 331.989 383.27C354.269 356.87 380.979 348.94 400.139 348.94H426.989" fill="white"/>
<path d="M429.999 375.64L346.919 448.35H346.889C321.439 437.08 314.049 404.53 331.989 383.27C354.269 356.87 380.979 348.94 400.139 348.94H426.989" stroke="#0A13FF" stroke-width="5" stroke-miterlimit="10"/>
<path d="M430 375.64L513.08 448.35H513.11C538.56 437.08 545.95 404.53 528.01 383.27C505.73 356.87 479.02 348.94 459.86 348.94H433.01" fill="white"/>
<path d="M430 375.64L513.08 448.35H513.11C538.56 437.08 545.95 404.53 528.01 383.27C505.73 356.87 479.02 348.94 459.86 348.94H433.01" stroke="#0A13FF" stroke-width="5" stroke-miterlimit="10"/>
<path d="M503.769 390.84C496.419 372.78 486.459 354.73 429.999 354.73C373.539 354.73 363.569 372.78 356.229 390.84C343.929 421.07 335.449 533.65 335.449 533.65C365.039 537.95 400.679 539.89 429.999 539.76C459.319 539.9 494.959 537.95 524.549 533.65C524.549 533.65 516.069 421.07 503.769 390.84Z" fill="white"/>
<path d="M507.849 407.25C514.189 441.6 524.549 533.19 524.549 533.19C494.959 537.49 447.909 539.76 429.999 539.76C412.089 539.76 365.039 537.49 335.449 533.19C335.449 533.19 345.809 441.6 352.149 407.25" fill="white"/>
<path d="M507.849 407.25C514.189 441.6 524.549 533.19 524.549 533.19C494.959 537.49 447.909 539.76 429.999 539.76C412.089 539.76 365.039 537.49 335.449 533.19C335.449 533.19 345.809 441.6 352.149 407.25" stroke="#0A13FF" stroke-width="5" stroke-miterlimit="10"/>
<path d="M377.5 352.39C365.16 356.11 351.88 363.18 339.49 375.23C380.91 362.22 398.25 396.08 430 385.5L429.97 377.9L413.61 348.94H400.15C399.97 348.94 399.79 348.94 399.6 348.94C397.09 348.98 388.29 349.71 377.49 352.38L377.5 352.39Z" fill="#FF86E6" stroke="#0A13FF" stroke-width="5" stroke-linecap="round" stroke-linejoin="round"/>
<path d="M482.5 352.39C494.84 356.11 508.12 363.18 520.51 375.23C479.09 362.22 461.75 396.08 430 385.5L430.03 377.9L446.39 348.94H459.85C460.03 348.94 460.21 348.94 460.4 348.94C462.91 348.98 471.71 349.71 482.51 352.38L482.5 352.39Z" fill="#FF86E6" stroke="#0A13FF" stroke-width="5" stroke-linecap="round" stroke-linejoin="round"/>
<path d="M429.999 375.65C446.275 375.65 459.469 362.456 459.469 346.18C459.469 329.904 446.275 316.71 429.999 316.71C413.723 316.71 400.529 329.904 400.529 346.18C400.529 362.456 413.723 375.65 429.999 375.65Z" fill="#FFEBD1" stroke="#0A13FF" stroke-width="5" stroke-miterlimit="10"/>
<path d="M429.999 389.66C433.479 389.66 436.299 386.839 436.299 383.36C436.299 379.881 433.479 377.06 429.999 377.06C426.52 377.06 423.699 379.881 423.699 383.36C423.699 386.839 426.52 389.66 429.999 389.66Z" fill="#FF86E6" stroke="#0A13FF" stroke-width="5" stroke-miterlimit="10"/>
<path d="M518.99 479.91L524.49 472.28" stroke="#0A13FF" stroke-width="5" stroke-linecap="round" stroke-linejoin="round"/>
<path d="M429.941 389.66C433.42 389.66 436.241 386.839 436.241 383.36C436.241 379.881 433.42 377.06 429.941 377.06C426.461 377.06 423.641 379.881 423.641 383.36C423.641 386.839 426.461 389.66 429.941 389.66Z" fill="#FF86E6" stroke="#0A13FF" stroke-width="5" stroke-miterlimit="10"/>
<path d="M329.729 507.47C293.549 514.13 272.719 448.18 269.449 423.78C266.519 401.92 273.489 387.5 284.229 383.52C293.319 380.15 306.289 385.24 308.369 395.75C310.349 393.34 314.099 392.47 317.579 394.21C323.429 397.15 323.579 406.55 318.159 416.21C319.609 421.76 333.649 456.41 333.649 456.41" fill="#FFEBD1"/>
<path d="M329.729 507.47C293.549 514.13 272.719 448.18 269.449 423.78C266.519 401.92 273.489 387.5 284.229 383.52C293.319 380.15 306.289 385.24 308.369 395.75C310.349 393.34 314.099 392.47 317.579 394.21C323.429 397.15 323.579 406.55 318.159 416.21C319.609 421.76 333.649 456.41 333.649 456.41" stroke="#0A13FF" stroke-width="5" stroke-linecap="round" stroke-linejoin="round"/>
<path d="M312.181 350.74H259.631C256.737 350.74 254.391 353.086 254.391 355.98V444.73C254.391 447.624 256.737 449.97 259.631 449.97H312.181C315.075 449.97 317.421 447.624 317.421 444.73V355.98C317.421 353.086 315.075 350.74 312.181 350.74Z" fill="#0A5EFF" stroke="#0A13FF" stroke-width="5.89" stroke-linecap="round" stroke-linejoin="round"/>
<path d="M263.32 358.96V430.08V435.92V441.75L267.09 437.99L270.85 441.75L274.62 437.99L278.38 441.75L282.14 437.99L285.91 441.75L289.67 437.99L293.43 441.75L297.2 437.99L300.96 441.75L304.73 437.99L308.49 441.75V435.92V430.08V358.96H263.32Z" fill="white"/>
<path d="M317.95 418.21C323.252 418.21 327.55 412.47 327.55 405.39C327.55 398.31 323.252 392.57 317.95 392.57C312.648 392.57 308.35 398.31 308.35 405.39C308.35 412.47 312.648 418.21 317.95 418.21Z" fill="#FFEBD1" stroke="#0A13FF" stroke-width="5" stroke-linecap="round" stroke-linejoin="round"/>
<path d="M261.94 405.92C261.94 419.22 256.81 430 250.48 430C244.15 430 240.52 419.22 240.52 405.92C240.52 392.62 244.15 381.84 250.48 381.84C256.81 381.84 261.94 392.62 261.94 405.92Z" fill="#FFEBD1" stroke="#0A13FF" stroke-width="5" stroke-linecap="round" stroke-linejoin="round"/>
<path d="M268.76 430H303.25" stroke="#CF003F" stroke-width="3" stroke-miterlimit="10"/>
<path d="M268.949 368.66H303.059" stroke="#0A13FF" stroke-width="3" stroke-miterlimit="10"/>
<path d="M268.949 378.64H303.059" stroke="#0A13FF" stroke-width="3" stroke-miterlimit="10"/>
<path d="M268.949 388.62H303.059" stroke="#0A13FF" stroke-width="3" stroke-miterlimit="10"/>
<path d="M268.949 398.6H303.059" stroke="#0A13FF" stroke-width="3" stroke-miterlimit="10"/>
<path d="M268.949 408.58H303.059" stroke="#0A13FF" stroke-width="3" stroke-miterlimit="10"/>
<path d="M268.949 418.56H303.059" stroke="#0A13FF" stroke-width="3" stroke-miterlimit="10"/>
</g>
<defs>
<clipPath id="clip0_153_4334">
<rect width="100%" height="100%" fill="white"/>
</clipPath>
</defs>
</svg>
