<svg class="tree-image-resource" viewBox="0 0 860 860" fill="none" xmlns="http://www.w3.org/2000/svg">
<g clip-path="url(#clip0_153_4562)">
<path d="M517.4 483.02L493.84 413.04L524.48 403.33C524.48 403.33 548.42 429.91 561.2 455.63C570.08 473.5 551.42 501.68 551.42 501.68C551.42 501.68 559.04 515.85 554.72 526.42C549.4 539.47 523.65 541.58 507.99 515.22" fill="#FFEBD1"/>
<path d="M517.4 483.02L493.84 413.04L524.48 403.33C524.48 403.33 548.42 429.91 561.2 455.63C570.08 473.5 551.42 501.68 551.42 501.68C551.42 501.68 559.04 515.85 554.72 526.42C549.4 539.47 523.65 541.58 507.99 515.22" stroke="#0A13FF" stroke-width="5" stroke-linecap="round" stroke-linejoin="round"/>
<path d="M329.731 507.47C363.171 503.49 369.111 404.97 369.111 404.97L331.991 392.48C331.991 392.48 314.331 434.3 309.441 452.06C304.551 469.82 300.591 490.14 318.261 498.56" fill="#FFEBD1"/>
<path d="M329.731 507.47C363.171 503.49 369.111 404.97 369.111 404.97L331.991 392.48C331.991 392.48 314.331 434.3 309.441 452.06C304.551 469.82 300.591 490.14 318.261 498.56" stroke="#0A13FF" stroke-width="5" stroke-linecap="round" stroke-linejoin="round"/>
<path d="M337.858 493.13L365.818 410.08L328.698 397.59C328.698 397.59 311.038 439.41 306.148 457.17C301.258 474.93 297.298 495.25 314.968 503.67" fill="#FFEBD1"/>
<path d="M337.858 493.13L365.818 410.08L328.698 397.59C328.698 397.59 311.038 439.41 306.148 457.17C301.258 474.93 297.298 495.25 314.968 503.67" stroke="#0A13FF" stroke-width="5" stroke-linecap="round" stroke-linejoin="round"/>
<path d="M429.998 375.64L352.268 499.53C352.268 499.53 346.988 505.47 333.908 506.44C319.568 507.5 315.248 489.82 308.358 479.91C305.548 475.88 288.418 479.53 307.488 426.25C330.888 364.79 373.068 348.93 400.158 348.93H427.008" class="fill"/>
<path d="M429.998 375.64L352.268 499.53C352.268 499.53 346.988 505.47 333.908 506.44C319.568 507.5 315.248 489.82 308.358 479.91C305.548 475.88 288.418 479.53 307.488 426.25C330.888 364.79 373.068 348.93 400.158 348.93H427.008" stroke="#0A13FF" stroke-width="5" stroke-miterlimit="10"/>
<path d="M429.996 375.64L518.886 480.51L557.196 498.2C557.196 498.2 574.746 464.1 563.596 437.76C557.296 421.22 538.566 396.48 530.206 385.96C507.506 357.4 479.636 348.93 459.836 348.93H432.986" class="fill"/>
<path d="M429.996 375.64L518.886 480.51L557.196 498.2C557.196 498.2 574.746 464.1 563.596 437.76C557.296 421.22 538.566 396.48 530.206 385.96C507.506 357.4 479.636 348.93 459.836 348.93H432.986" stroke="#0A13FF" stroke-width="5" stroke-miterlimit="10"/>
<path d="M503.769 390.84C496.419 372.78 486.459 354.73 429.999 354.73C373.539 354.73 363.569 372.78 356.229 390.84C343.929 421.07 335.449 533.65 335.449 533.65C365.039 537.95 400.679 539.89 429.999 539.76C459.319 539.9 494.959 537.95 524.549 533.65C524.549 533.65 516.069 421.07 503.769 390.84Z" class="fill"/>
<path d="M377.498 352.39C365.158 356.11 351.878 363.18 339.488 375.23C380.908 362.22 398.248 396.08 429.998 385.5L429.968 377.9L413.608 348.94H400.148C399.968 348.94 399.788 348.94 399.598 348.94C397.088 348.98 388.288 349.71 377.488 352.38L377.498 352.39Z" fill="#FF86E6" stroke="#0A13FF" stroke-width="5" stroke-linecap="round" stroke-linejoin="round"/>
<path d="M482.496 352.39C494.836 356.11 508.116 363.18 520.506 375.23C479.086 362.22 461.746 396.08 429.996 385.5L430.026 377.9L446.386 348.94H459.846C460.026 348.94 460.206 348.94 460.396 348.94C462.906 348.98 471.706 349.71 482.506 352.38L482.496 352.39Z" fill="#FF86E6" stroke="#0A13FF" stroke-width="5" stroke-linecap="round" stroke-linejoin="round"/>
<path d="M429.997 375.65C446.273 375.65 459.467 362.456 459.467 346.18C459.467 329.904 446.273 316.71 429.997 316.71C413.722 316.71 400.527 329.904 400.527 346.18C400.527 362.456 413.722 375.65 429.997 375.65Z" fill="#FFEBD1" stroke="#0A13FF" stroke-width="5" stroke-miterlimit="10"/>
<path d="M429.999 389.66C433.479 389.66 436.299 386.839 436.299 383.36C436.299 379.881 433.479 377.06 429.999 377.06C426.52 377.06 423.699 379.881 423.699 383.36C423.699 386.839 426.52 389.66 429.999 389.66Z" fill="#FF86E6" stroke="#0A13FF" stroke-width="5" stroke-miterlimit="10"/>
<path d="M328.789 453.333L320.105 457.161L324.034 466.073L332.718 462.245L328.789 453.333Z" class="fill"/>
<path d="M516.281 464.97L524.491 453.59" stroke="#0A13FF" stroke-width="5" stroke-linecap="round" stroke-linejoin="round"/>
<path d="M429.941 389.66C433.42 389.66 436.241 386.839 436.241 383.36C436.241 379.881 433.42 377.06 429.941 377.06C426.461 377.06 423.641 379.881 423.641 383.36C423.641 386.839 426.461 389.66 429.941 389.66Z" fill="#FF86E6" stroke="#0A13FF" stroke-width="5" stroke-miterlimit="10"/>
<path d="M329.729 507.47C293.549 514.13 272.719 448.18 269.449 423.78C266.519 401.92 273.489 387.5 284.229 383.52C293.319 380.15 306.289 385.24 308.369 395.75C310.349 393.34 314.099 392.47 317.579 394.21C323.429 397.15 323.579 406.55 318.159 416.21C319.609 421.76 329.879 445.21 329.879 445.21" fill="#FFEBD1"/>
<path d="M329.729 507.47C293.549 514.13 272.719 448.18 269.449 423.78C266.519 401.92 273.489 387.5 284.229 383.52C293.319 380.15 306.289 385.24 308.369 395.75C310.349 393.34 314.099 392.47 317.579 394.21C323.429 397.15 323.579 406.55 318.159 416.21C319.609 421.76 329.879 445.21 329.879 445.21" stroke="#0A13FF" stroke-width="5" stroke-linecap="round" stroke-linejoin="round"/>
<path d="M332.778 449.97L317.948 418.21L265.398 450.61C265.398 450.61 291.158 534.53 337.618 508.99" class="fill"/>
<path d="M332.778 449.97L317.948 418.21L265.398 450.61C265.398 450.61 291.158 534.53 337.618 508.99" stroke="#0A13FF" stroke-width="5" stroke-miterlimit="10"/>
<path d="M312.181 350.74H259.631C256.737 350.74 254.391 353.086 254.391 355.98V444.73C254.391 447.624 256.737 449.97 259.631 449.97H312.181C315.075 449.97 317.421 447.624 317.421 444.73V355.98C317.421 353.086 315.075 350.74 312.181 350.74Z" fill="#0A5EFF" stroke="#0A13FF" stroke-width="5.89" stroke-linecap="round" stroke-linejoin="round"/>
<path d="M263.32 358.96V430.08V435.92V441.75L267.09 437.99L270.85 441.75L274.62 437.99L278.38 441.75L282.14 437.99L285.91 441.75L289.67 437.99L293.43 441.75L297.2 437.99L300.96 441.75L304.73 437.99L308.49 441.75V435.92V430.08V358.96H263.32Z" fill="white"/>
<path d="M317.948 418.21C323.25 418.21 327.548 412.47 327.548 405.39C327.548 398.31 323.25 392.57 317.948 392.57C312.646 392.57 308.348 398.31 308.348 405.39C308.348 412.47 312.646 418.21 317.948 418.21Z" fill="#FFEBD1" stroke="#0A13FF" stroke-width="5" stroke-linecap="round" stroke-linejoin="round"/>
<path d="M261.94 405.92C261.94 419.22 256.81 430 250.48 430C244.15 430 240.52 419.22 240.52 405.92C240.52 392.62 244.15 381.84 250.48 381.84C256.81 381.84 261.94 392.62 261.94 405.92Z" fill="#FFEBD1" stroke="#0A13FF" stroke-width="5" stroke-linecap="round" stroke-linejoin="round"/>
<path d="M268.758 430H303.248" stroke="#CF003F" stroke-width="3" stroke-miterlimit="10"/>
<path d="M268.949 368.66H303.059" stroke="#0A13FF" stroke-width="3" stroke-miterlimit="10"/>
<path d="M268.949 378.64H303.059" stroke="#0A13FF" stroke-width="3" stroke-miterlimit="10"/>
<path d="M268.949 388.62H303.059" stroke="#0A13FF" stroke-width="3" stroke-miterlimit="10"/>
<path d="M268.949 398.6H303.059" stroke="#0A13FF" stroke-width="3" stroke-miterlimit="10"/>
<path d="M268.949 408.58H303.059" stroke="#0A13FF" stroke-width="3" stroke-miterlimit="10"/>
<path d="M268.949 418.56H303.059" stroke="#0A13FF" stroke-width="3" stroke-miterlimit="10"/>
<path d="M507.849 407.25C514.189 441.6 524.549 533.19 524.549 533.19C494.959 537.49 447.909 539.76 429.999 539.76C412.089 539.76 365.039 537.49 335.449 533.19C335.449 533.19 345.809 441.6 352.149 407.25" class="fill"/>
<path d="M507.849 407.25C514.189 441.6 524.549 533.19 524.549 533.19C494.959 537.49 447.909 539.76 429.999 539.76C412.089 539.76 365.039 537.49 335.449 533.19C335.449 533.19 345.809 441.6 352.149 407.25" stroke="#0A13FF" stroke-width="5" stroke-miterlimit="10"/>
<path d="M564.19 459.11C549.39 459.11 549.37 482.11 564.19 482.11C568.37 482.11 567.31 469.56 567.31 469.56C567.31 469.56 570.03 459.11 564.19 459.11Z" fill="#0A13FF"/>
<path d="M519.85 448.17C505.05 448.17 505.03 471.17 519.85 471.17C534.67 471.17 534.67 448.17 519.85 448.17Z" fill="#0A13FF"/>
<path d="M542.688 402.92C528.018 404.88 531.048 427.68 545.738 425.72C549.768 425.18 552.468 423.06 553.948 420.32L542.688 402.92Z" fill="#0A13FF"/>
<path d="M507.849 407.25C514.189 441.6 524.549 533.19 524.549 533.19C494.959 537.49 447.909 539.76 429.999 539.76C412.089 539.76 365.039 537.49 335.449 533.19C335.449 533.19 345.809 441.6 352.149 407.25" class="fill"/>
<path d="M507.849 407.25C514.189 441.6 524.549 533.19 524.549 533.19C494.959 537.49 447.909 539.76 429.999 539.76C412.089 539.76 365.039 537.49 335.449 533.19C335.449 533.19 345.809 441.6 352.149 407.25" stroke="#0A13FF" stroke-width="5" stroke-miterlimit="10"/>
<path d="M491.541 499.28C476.741 499.28 476.721 522.28 491.541 522.28C506.361 522.28 506.361 499.28 491.541 499.28Z" fill="#0A13FF"/>
<path d="M370.44 497.89C355.64 497.89 355.62 520.89 370.44 520.89C385.26 520.89 385.26 497.89 370.44 497.89Z" fill="#0A13FF"/>
<path d="M430.639 466.11C415.839 466.11 415.819 489.11 430.639 489.11C445.459 489.11 445.459 466.11 430.639 466.11Z" fill="#0A13FF"/>
<path d="M473.697 414.47C458.897 414.47 458.877 437.47 473.697 437.47C488.517 437.47 488.517 414.47 473.697 414.47Z" fill="#0A13FF"/>
<path d="M315.329 497.5C308.559 497.5 304.879 502.31 304.299 507.54C303.609 513.73 323.829 517.73 325.399 514.1C328.349 507.29 324.999 497.5 315.329 497.5Z" fill="#0A13FF"/>
<path d="M389.428 414.34C374.628 414.34 374.608 437.34 389.428 437.34C404.248 437.34 404.248 414.34 389.428 414.34Z" fill="#0A13FF"/>
<path d="M330.578 384.38C331.968 388.42 335.438 391.66 340.998 391.66C352.098 391.66 354.888 378.72 349.328 372.25C347.478 370.09 332.998 374.6 330.578 384.38Z" fill="#0A13FF"/>
</g>
<defs>
<clipPath id="clip0_153_4562">
<rect width="100%" height="100%" class="fill"/>
</clipPath>
</defs>
</svg>
