<svg class="tree-image-resource" viewBox="0 0 860 860" fill="none" xmlns="http://www.w3.org/2000/svg">
<g clip-path="url(#clip0_153_4133)">
<path d="M337.86 493.13L365.82 410.08L339.49 375.24C339.49 375.24 336.11 379.53 328.7 397.59C321.29 415.65 311.04 439.41 306.15 457.17C301.26 474.93 297.3 495.25 314.97 503.67" fill="#FFEBD1"/>
<path d="M337.86 493.13L365.82 410.08L339.49 375.24C339.49 375.24 336.11 379.53 328.7 397.59C321.29 415.65 311.04 439.41 306.15 457.17C301.26 474.93 297.3 495.25 314.97 503.67" stroke="#0A13FF" stroke-width="5" stroke-linecap="round" stroke-linejoin="round"/>
<path d="M522.14 493.13L494.18 410.08L520.51 375.24C520.51 375.24 523.89 379.53 531.3 397.59C538.71 415.65 548.96 439.41 553.85 457.17C558.74 474.93 562.7 495.25 545.03 503.67" fill="#FFEBD1"/>
<path d="M522.14 493.13L494.18 410.08L520.51 375.24C520.51 375.24 523.89 379.53 531.3 397.59C538.71 415.65 548.96 439.41 553.85 457.17C558.74 474.93 562.7 495.25 545.03 503.67" stroke="#0A13FF" stroke-width="5" stroke-linecap="round" stroke-linejoin="round"/>
<path d="M430 375.64L508.9 413.26C508.9 413.26 514.55 402.25 526.59 381.64C504.6 356.55 478.6 348.94 459.84 348.94H432.99" class="fill"/>
<path d="M430 375.64L508.9 413.26C508.9 413.26 514.55 402.25 526.59 381.64C504.6 356.55 478.6 348.94 459.84 348.94H432.99" stroke="#0A13FF" stroke-width="5" stroke-miterlimit="10"/>
<path d="M430 375.64L351.1 413.26C351.1 413.26 345.45 402.25 333.41 381.64C355.4 356.55 381.4 348.94 400.16 348.94H427.01" class="fill"/>
<path d="M430 375.64L351.1 413.26C351.1 413.26 345.45 402.25 333.41 381.64C355.4 356.55 381.4 348.94 400.16 348.94H427.01" stroke="#0A13FF" stroke-width="5" stroke-miterlimit="10"/>
<path d="M503.769 390.84C496.419 372.78 486.459 354.73 429.999 354.73C373.539 354.73 363.569 372.78 356.229 390.84C343.929 421.07 335.449 533.65 335.449 533.65C365.039 537.95 400.679 539.89 429.999 539.76C459.319 539.9 494.959 537.95 524.549 533.65C524.549 533.65 516.069 421.07 503.769 390.84Z" class="fill"/>
<path d="M507.849 407.25C514.189 441.6 524.549 533.19 524.549 533.19C494.959 537.49 447.909 539.76 429.999 539.76C412.089 539.76 365.039 537.49 335.449 533.19C335.449 533.19 345.809 441.6 352.149 407.25" class="fill"/>
<path d="M507.849 407.25C514.189 441.6 524.549 533.19 524.549 533.19C494.959 537.49 447.909 539.76 429.999 539.76C412.089 539.76 365.039 537.49 335.449 533.19C335.449 533.19 345.809 441.6 352.149 407.25" stroke="#0A13FF" stroke-width="5" stroke-miterlimit="10"/>
<path d="M377.5 352.39C365.16 356.11 351.88 363.18 339.49 375.23C380.91 362.22 398.25 396.08 430 385.5L429.97 377.9L413.61 348.94H400.15C399.97 348.94 399.79 348.94 399.6 348.94C397.09 348.98 388.29 349.71 377.49 352.38L377.5 352.39Z" fill="#52B1F9" stroke="#0A13FF" stroke-width="5" stroke-linecap="round" stroke-linejoin="round"/>
<path d="M482.5 352.39C494.84 356.11 508.12 363.18 520.51 375.23C479.09 362.22 461.75 396.08 430 385.5L430.03 377.9L446.39 348.94H459.85C460.03 348.94 460.21 348.94 460.4 348.94C462.91 348.98 471.71 349.71 482.51 352.38L482.5 352.39Z" fill="#52B1F9" stroke="#0A13FF" stroke-width="5" stroke-linecap="round" stroke-linejoin="round"/>
<path d="M429.999 375.65C446.275 375.65 459.469 362.456 459.469 346.18C459.469 329.904 446.275 316.71 429.999 316.71C413.723 316.71 400.529 329.904 400.529 346.18C400.529 362.456 413.723 375.65 429.999 375.65Z" fill="#FFEBD1" stroke="#0A13FF" stroke-width="5" stroke-miterlimit="10"/>
<path d="M429.999 389.66C433.479 389.66 436.299 386.839 436.299 383.36C436.299 379.881 433.479 377.06 429.999 377.06C426.52 377.06 423.699 379.881 423.699 383.36C423.699 386.839 426.52 389.66 429.999 389.66Z" fill="#52B1F9" stroke="#0A13FF" stroke-width="5" stroke-linecap="round" stroke-linejoin="round"/>
<path d="M454.509 505.03H405.489L399.719 418.06H460.279L454.509 505.03Z" fill="#C594FF" stroke="#0A13FF" stroke-width="5" stroke-linecap="round" stroke-linejoin="round"/>
<path d="M314.959 503.66C339.479 515.72 382.879 498.59 402.679 488.87C422.469 479.15 425.639 468.17 424.129 456.81C422.849 447.2 412.199 439.87 402.539 444.48C403.289 441.45 401.749 437.92 398.269 436.17C392.419 433.23 384.789 438.73 380.279 448.85C374.969 451 339.869 463.2 339.869 463.2" fill="#FFEBD1"/>
<path d="M314.959 503.66C339.479 515.72 382.879 498.59 402.679 488.87C422.469 479.15 425.639 468.17 424.129 456.81C422.849 447.2 412.199 439.87 402.539 444.48C403.289 441.45 401.749 437.92 398.269 436.17C392.419 433.23 384.789 438.73 380.279 448.85C374.969 451 339.869 463.2 339.869 463.2" stroke="#0A13FF" stroke-width="5" stroke-linecap="round" stroke-linejoin="round"/>
<path d="M545.039 503.66C520.519 515.72 477.119 498.59 457.319 488.87C437.529 479.15 434.359 468.17 435.869 456.81C437.149 447.2 447.799 439.87 457.459 444.48C456.709 441.45 458.249 437.92 461.729 436.17C467.579 433.23 475.209 438.73 479.719 448.85C485.029 451 520.129 463.2 520.129 463.2" fill="#FFEBD1"/>
<path d="M545.039 503.66C520.519 515.72 477.119 498.59 457.319 488.87C437.529 479.15 434.359 468.17 435.869 456.81C437.149 447.2 447.799 439.87 457.459 444.48C456.709 441.45 458.249 437.92 461.729 436.17C467.579 433.23 475.209 438.73 479.719 448.85C485.029 451 520.129 463.2 520.129 463.2" stroke="#0A13FF" stroke-width="5" stroke-linecap="round" stroke-linejoin="round"/>
<path d="M458.67 403.23H401.34V416.11H458.67V403.23Z" fill="#C594FF" stroke="#0A13FF" stroke-width="5" stroke-linecap="round" stroke-linejoin="round"/>
<path d="M465.449 413.74H394.549V426.62H465.449V413.74Z" fill="#C594FF" stroke="#0A13FF" stroke-width="5" stroke-linecap="round" stroke-linejoin="round"/>
</g>
<defs>
<clipPath id="clip0_153_4133">
<rect width="100%" height="100%" class="fill"/>
</clipPath>
</defs>
</svg>
