<svg class="tree-image-resource" viewBox="0 0 860 860" fill="none" xmlns="http://www.w3.org/2000/svg">
<g clip-path="url(#clip0_153_4183)">
<path d="M337.858 493.13L365.818 410.08L328.698 397.59C328.698 397.59 311.038 439.41 306.148 457.17C301.258 474.93 297.298 495.25 314.968 503.67" fill="#FFEBD1"/>
<path d="M337.858 493.13L365.818 410.08L328.698 397.59C328.698 397.59 311.038 439.41 306.148 457.17C301.258 474.93 297.298 495.25 314.968 503.67" stroke="#0A13FF" stroke-width="5" stroke-linecap="round" stroke-linejoin="round"/>
<path d="M522.14 493.13L494.18 410.08L531.3 397.59C531.3 397.59 548.96 439.41 553.85 457.17C558.74 474.93 562.7 495.25 545.03 503.67" fill="#FFEBD1"/>
<path d="M522.14 493.13L494.18 410.08L531.3 397.59C531.3 397.59 548.96 439.41 553.85 457.17C558.74 474.93 562.7 495.25 545.03 503.67" stroke="#0A13FF" stroke-width="5" stroke-linecap="round" stroke-linejoin="round"/>
<path d="M429.998 375.64L346.918 448.35L286.328 481.18C286.328 481.18 295.848 456.72 307.478 426.25C330.878 364.79 373.058 348.93 400.148 348.93H426.998" class="fill"/>
<path d="M429.998 375.64L346.918 448.35L286.328 481.18C286.328 481.18 295.848 456.72 307.478 426.25C330.878 364.79 373.058 348.93 400.148 348.93H426.998" stroke="#0A13FF" stroke-width="5" stroke-miterlimit="10"/>
<path d="M430 375.64L513.08 448.35L572.35 477.55C572.35 477.55 566.41 462.03 552.52 426.25C529.12 364.79 486.94 348.93 459.85 348.93H433" class="fill"/>
<path d="M430 375.64L513.08 448.35L572.35 477.55C572.35 477.55 566.41 462.03 552.52 426.25C529.12 364.79 486.94 348.93 459.85 348.93H433" stroke="#0A13FF" stroke-width="5" stroke-miterlimit="10"/>
<path d="M503.769 390.84C496.419 372.78 486.459 354.73 429.999 354.73C373.539 354.73 363.569 372.78 356.229 390.84C343.929 421.07 335.449 533.65 335.449 533.65C365.039 537.95 400.679 539.89 429.999 539.76C459.319 539.9 494.959 537.95 524.549 533.65C524.549 533.65 516.069 421.07 503.769 390.84Z" class="fill"/>
<path d="M507.849 407.25C514.189 441.6 524.549 533.19 524.549 533.19C494.959 537.49 447.909 539.76 429.999 539.76C412.089 539.76 365.039 537.49 335.449 533.19C335.449 533.19 345.809 441.6 352.149 407.25" class="fill"/>
<path d="M507.849 407.25C514.189 441.6 524.549 533.19 524.549 533.19C494.959 537.49 447.909 539.76 429.999 539.76C412.089 539.76 365.039 537.49 335.449 533.19C335.449 533.19 345.809 441.6 352.149 407.25" stroke="#0A13FF" stroke-width="5" stroke-miterlimit="10"/>
<path d="M377.498 352.39C365.158 356.11 351.878 363.18 339.488 375.23C380.908 362.22 398.248 396.08 429.998 385.5L429.968 377.9L413.608 348.94H400.148C399.968 348.94 399.788 348.94 399.598 348.94C397.088 348.98 388.288 349.71 377.488 352.38L377.498 352.39Z" fill="#52B1F9" stroke="#0A13FF" stroke-width="5" stroke-linecap="round" stroke-linejoin="round"/>
<path d="M482.5 352.39C494.84 356.11 508.12 363.18 520.51 375.23C479.09 362.22 461.75 396.08 430 385.5L430.03 377.9L446.39 348.94H459.85C460.03 348.94 460.21 348.94 460.4 348.94C462.91 348.98 471.71 349.71 482.51 352.38L482.5 352.39Z" fill="#52B1F9" stroke="#0A13FF" stroke-width="5" stroke-linecap="round" stroke-linejoin="round"/>
<path d="M429.997 375.65C446.273 375.65 459.467 362.456 459.467 346.18C459.467 329.904 446.273 316.71 429.997 316.71C413.722 316.71 400.527 329.904 400.527 346.18C400.527 362.456 413.722 375.65 429.997 375.65Z" fill="#FFEBD1" stroke="#0A13FF" stroke-width="5" stroke-miterlimit="10"/>
<path d="M429.999 389.66C433.479 389.66 436.299 386.839 436.299 383.36C436.299 379.881 433.479 377.06 429.999 377.06C426.52 377.06 423.699 379.881 423.699 383.36C423.699 386.839 426.52 389.66 429.999 389.66Z" fill="#52B1F9" stroke="#0A13FF" stroke-width="5" stroke-linecap="round" stroke-linejoin="round"/>
<path d="M454.509 505.03H405.489L399.719 418.06H460.279L454.509 505.03Z" fill="#C594FF" stroke="#0A13FF" stroke-width="5" stroke-linecap="round" stroke-linejoin="round"/>
<path d="M314.957 503.66C339.477 515.72 382.877 498.59 402.677 488.87C422.467 479.15 425.637 468.17 424.127 456.81C422.847 447.2 412.197 439.87 402.537 444.48C403.287 441.45 401.747 437.92 398.267 436.17C392.417 433.23 384.787 438.73 380.277 448.85C374.967 451 339.867 463.2 339.867 463.2" fill="#FFEBD1"/>
<path d="M314.957 503.66C339.477 515.72 382.877 498.59 402.677 488.87C422.467 479.15 425.637 468.17 424.127 456.81C422.847 447.2 412.197 439.87 402.537 444.48C403.287 441.45 401.747 437.92 398.267 436.17C392.417 433.23 384.787 438.73 380.277 448.85C374.967 451 339.867 463.2 339.867 463.2" stroke="#0A13FF" stroke-width="5" stroke-linecap="round" stroke-linejoin="round"/>
<path d="M545.035 503.66C520.515 515.72 477.115 498.59 457.315 488.87C437.525 479.15 434.355 468.17 435.865 456.81C437.145 447.2 447.795 439.87 457.455 444.48C456.705 441.45 458.245 437.92 461.725 436.17C467.575 433.23 475.205 438.73 479.715 448.85C485.025 451 520.125 463.2 520.125 463.2" fill="#FFEBD1"/>
<path d="M545.035 503.66C520.515 515.72 477.115 498.59 457.315 488.87C437.525 479.15 434.355 468.17 435.865 456.81C437.145 447.2 447.795 439.87 457.455 444.48C456.705 441.45 458.245 437.92 461.725 436.17C467.575 433.23 475.205 438.73 479.715 448.85C485.025 451 520.125 463.2 520.125 463.2" stroke="#0A13FF" stroke-width="5" stroke-linecap="round" stroke-linejoin="round"/>
<path d="M458.666 403.23H401.336V416.11H458.666V403.23Z" fill="#C594FF" stroke="#0A13FF" stroke-width="5" stroke-linecap="round" stroke-linejoin="round"/>
<path d="M465.447 413.74H394.547V426.62H465.447V413.74Z" fill="#C594FF" stroke="#0A13FF" stroke-width="5" stroke-linecap="round" stroke-linejoin="round"/>
</g>
<defs>
<clipPath id="clip0_153_4183">
<rect width="100%" height="100%" class="fill"/>
</clipPath>
</defs>
</svg>
