<svg class="tree-image-resource" viewBox="0 0 860 860" fill="none" xmlns="http://www.w3.org/2000/svg">
<g clip-path="url(#clip0_153_4306)">
<path d="M430 375.64L514.69 458.72C514.69 458.72 507.35 498.34 520.51 506.78C532.61 514.54 551.11 510.25 558 500.34C560.81 496.31 571.58 479.53 552.52 426.26C529.12 364.8 486.94 348.94 459.85 348.94H433" class="fill"/>
<path d="M430 375.64L514.69 458.72C514.69 458.72 507.35 498.34 520.51 506.78C532.61 514.54 551.11 510.25 558 500.34C560.81 496.31 571.58 479.53 552.52 426.26C529.12 364.8 486.94 348.94 459.85 348.94H433" stroke="#0A13FF" stroke-width="5" stroke-miterlimit="10"/>
<path d="M337.862 493.13L365.822 410.08L328.702 397.59C328.702 397.59 311.042 439.41 306.152 457.17C301.262 474.93 297.302 495.25 314.972 503.67" fill="#FFEBD1"/>
<path d="M337.862 493.13L365.822 410.08L328.702 397.59C328.702 397.59 311.042 439.41 306.152 457.17C301.262 474.93 297.302 495.25 314.972 503.67" stroke="#0A13FF" stroke-width="5" stroke-linecap="round" stroke-linejoin="round"/>
<path d="M430 375.64L345.31 458.72C345.31 458.72 352.65 498.34 339.49 506.78C327.39 514.54 308.89 510.25 302 500.34C299.19 496.31 288.42 479.53 307.48 426.26C330.88 364.8 373.06 348.94 400.15 348.94H427" class="fill"/>
<path d="M430 375.64L345.31 458.72C345.31 458.72 352.65 498.34 339.49 506.78C327.39 514.54 308.89 510.25 302 500.34C299.19 496.31 288.42 479.53 307.48 426.26C330.88 364.8 373.06 348.94 400.15 348.94H427" stroke="#0A13FF" stroke-width="5" stroke-miterlimit="10"/>
<path d="M503.769 390.84C496.419 372.78 486.459 354.73 429.999 354.73C373.539 354.73 363.569 372.78 356.229 390.84C343.929 421.07 335.449 533.65 335.449 533.65C365.039 537.95 400.679 539.89 429.999 539.76C459.319 539.9 494.959 537.95 524.549 533.65C524.549 533.65 516.069 421.07 503.769 390.84Z" class="fill"/>
<path d="M352.149 407.25C347.399 433 329.969 566.54 321.539 631.79H537.209C529.199 566.54 512.599 432.99 507.849 407.25" class="fill"/>
<path d="M352.149 407.25C347.399 433 329.969 566.54 321.539 631.79H537.209C529.199 566.54 512.599 432.99 507.849 407.25" stroke="#0A13FF" stroke-width="5" stroke-miterlimit="10"/>
<path d="M377.498 352.39C365.158 356.11 351.878 363.18 339.488 375.23C380.908 362.22 398.248 396.08 429.998 385.5L429.968 377.9L413.608 348.94H400.148C399.968 348.94 399.788 348.94 399.598 348.94C397.088 348.98 388.288 349.71 377.488 352.38L377.498 352.39Z" fill="#52B1F9" stroke="#0A13FF" stroke-width="5" stroke-linecap="round" stroke-linejoin="round"/>
<path d="M482.5 352.39C494.84 356.11 508.12 363.18 520.51 375.23C479.09 362.22 461.75 396.08 430 385.5L430.03 377.9L446.39 348.94H459.85C460.03 348.94 460.21 348.94 460.4 348.94C462.91 348.98 471.71 349.71 482.51 352.38L482.5 352.39Z" fill="#52B1F9" stroke="#0A13FF" stroke-width="5" stroke-linecap="round" stroke-linejoin="round"/>
<path d="M430.001 375.65C446.277 375.65 459.471 362.456 459.471 346.18C459.471 329.904 446.277 316.71 430.001 316.71C413.725 316.71 400.531 329.904 400.531 346.18C400.531 362.456 413.725 375.65 430.001 375.65Z" fill="#FFEBD1" stroke="#0A13FF" stroke-width="5" stroke-miterlimit="10"/>
<path d="M429.999 389.66C433.479 389.66 436.299 386.839 436.299 383.36C436.299 379.881 433.479 377.06 429.999 377.06C426.52 377.06 423.699 379.881 423.699 383.36C423.699 386.839 426.52 389.66 429.999 389.66Z" fill="#52B1F9" stroke="#0A13FF" stroke-width="5" stroke-linecap="round" stroke-linejoin="round"/>
<path d="M328.789 453.332L320.105 457.161L324.034 466.073L332.718 462.245L328.789 453.332Z" class="fill"/>
<path d="M454.513 505.03H405.493L399.723 418.06H460.283L454.513 505.03Z" fill="#C594FF" stroke="#0A13FF" stroke-width="5" stroke-linecap="round" stroke-linejoin="round"/>
<path d="M314.961 503.66C339.481 515.72 382.881 498.59 402.681 488.87C422.471 479.15 425.641 468.17 424.131 456.81C422.851 447.2 412.201 439.87 402.541 444.48C403.291 441.45 401.751 437.92 398.271 436.17C392.421 433.23 384.791 438.73 380.281 448.85C374.971 451 339.871 463.2 339.871 463.2" fill="#FFEBD1"/>
<path d="M314.961 503.66C339.481 515.72 382.881 498.59 402.681 488.87C422.471 479.15 425.641 468.17 424.131 456.81C422.851 447.2 412.201 439.87 402.541 444.48C403.291 441.45 401.751 437.92 398.271 436.17C392.421 433.23 384.791 438.73 380.281 448.85C374.971 451 339.871 463.2 339.871 463.2" stroke="#0A13FF" stroke-width="5" stroke-linecap="round" stroke-linejoin="round"/>
<path d="M545.039 503.66C520.519 515.72 477.119 498.59 457.319 488.87C437.529 479.15 434.359 468.17 435.869 456.81C437.149 447.2 447.799 439.87 457.459 444.48C456.709 441.45 458.249 437.92 461.729 436.17C467.579 433.23 475.209 438.73 479.719 448.85C485.029 451 520.129 463.2 520.129 463.2" fill="#FFEBD1"/>
<path d="M545.039 503.66C520.519 515.72 477.119 498.59 457.319 488.87C437.529 479.15 434.359 468.17 435.869 456.81C437.149 447.2 447.799 439.87 457.459 444.48C456.709 441.45 458.249 437.92 461.729 436.17C467.579 433.23 475.209 438.73 479.719 448.85C485.029 451 520.129 463.2 520.129 463.2" stroke="#0A13FF" stroke-width="5" stroke-linecap="round" stroke-linejoin="round"/>
<path d="M458.67 403.23H401.34V416.11H458.67V403.23Z" fill="#C594FF" stroke="#0A13FF" stroke-width="5" stroke-linecap="round" stroke-linejoin="round"/>
<path d="M465.451 413.74H394.551V426.62H465.451V413.74Z" fill="#C594FF" stroke="#0A13FF" stroke-width="5" stroke-linecap="round" stroke-linejoin="round"/>
<path d="M333.911 459.67L371.701 445.91L396.091 494.58C396.091 494.58 336.471 524.39 307.031 505.31" class="fill"/>
<path d="M333.911 459.67L371.701 445.91L396.091 494.58C396.091 494.58 336.471 524.39 307.031 505.31" stroke="#0A13FF" stroke-width="5" stroke-linecap="round" stroke-linejoin="round"/>
<path d="M526.09 459.67L488.3 445.91L463.91 494.58C463.91 494.58 523.53 524.39 552.97 505.31" class="fill"/>
<path d="M526.09 459.67L488.3 445.91L463.91 494.58C463.91 494.58 523.53 524.39 552.97 505.31" stroke="#0A13FF" stroke-width="5" stroke-linecap="round" stroke-linejoin="round"/>
</g>
<defs>
<clipPath id="clip0_153_4306">
<rect width="100%" height="100%" class="fill"/>
</clipPath>
</defs>
</svg>
