<svg class="tree-image-resource" viewBox="0 0 860 860" fill="none" xmlns="http://www.w3.org/2000/svg">
<g clip-path="url(#clip0_153_4094)">
<path d="M522.14 493.13L494.18 410.08L531.3 397.59C531.3 397.59 548.96 439.41 553.85 457.17C558.74 474.93 562.7 495.25 545.03 503.67" fill="#FFEBD1"/>
<path d="M522.14 493.13L494.18 410.08L531.3 397.59C531.3 397.59 548.96 439.41 553.85 457.17C558.74 474.93 562.7 495.25 545.03 503.67" stroke="#0A13FF" stroke-width="5" stroke-linecap="round" stroke-linejoin="round"/>
<path d="M337.86 493.13L365.82 410.08L328.7 397.59C328.7 397.59 311.04 439.41 306.15 457.17C301.26 474.93 297.3 495.25 314.97 503.67" fill="#FFEBD1"/>
<path d="M337.86 493.13L365.82 410.08L328.7 397.59C328.7 397.59 311.04 439.41 306.15 457.17C301.26 474.93 297.3 495.25 314.97 503.67" stroke="#0A13FF" stroke-width="5" stroke-linecap="round" stroke-linejoin="round"/>
<path d="M319.73 428.87C325.186 428.87 329.61 424.447 329.61 418.99C329.61 413.533 325.186 409.11 319.73 409.11C314.273 409.11 309.85 413.533 309.85 418.99C309.85 424.447 314.273 428.87 319.73 428.87Z" class="fill" stroke="#0A13FF" stroke-width="5" stroke-miterlimit="10"/>
<path d="M326.659 445.19C332.116 445.19 336.539 440.767 336.539 435.31C336.539 429.853 332.116 425.43 326.659 425.43C321.203 425.43 316.779 429.853 316.779 435.31C316.779 440.767 321.203 445.19 326.659 445.19Z" class="fill" stroke="#0A13FF" stroke-width="5" stroke-miterlimit="10"/>
<path d="M339.489 456.41C344.946 456.41 349.369 451.987 349.369 446.53C349.369 441.073 344.946 436.65 339.489 436.65C334.033 436.65 329.609 441.073 329.609 446.53C329.609 451.987 334.033 456.41 339.489 456.41Z" class="fill" stroke="#0A13FF" stroke-width="5" stroke-miterlimit="10"/>
<path d="M347.269 547.4C353.797 547.4 359.089 542.484 359.089 536.42C359.089 530.356 353.797 525.44 347.269 525.44C340.741 525.44 335.449 530.356 335.449 536.42C335.449 542.484 340.741 547.4 347.269 547.4Z" class="fill" stroke="#0A13FF" stroke-width="5.19" stroke-miterlimit="10"/>
<path d="M370.91 550.73C377.438 550.73 382.73 545.814 382.73 539.75C382.73 533.686 377.438 528.77 370.91 528.77C364.382 528.77 359.09 533.686 359.09 539.75C359.09 545.814 364.382 550.73 370.91 550.73Z" class="fill" stroke="#0A13FF" stroke-width="5.19" stroke-miterlimit="10"/>
<path d="M394.539 553.6C401.067 553.6 406.359 548.684 406.359 542.62C406.359 536.556 401.067 531.64 394.539 531.64C388.011 531.64 382.719 536.556 382.719 542.62C382.719 548.684 388.011 553.6 394.539 553.6Z" class="fill" stroke="#0A13FF" stroke-width="5.19" stroke-miterlimit="10"/>
<path d="M418.179 554.43C424.707 554.43 429.999 549.514 429.999 543.45C429.999 537.386 424.707 532.47 418.179 532.47C411.651 532.47 406.359 537.386 406.359 543.45C406.359 549.514 411.651 554.43 418.179 554.43Z" class="fill" stroke="#0A13FF" stroke-width="5.19" stroke-miterlimit="10"/>
<path d="M512.73 550.73C519.258 550.73 524.55 545.814 524.55 539.75C524.55 533.686 519.258 528.77 512.73 528.77C506.202 528.77 500.91 533.686 500.91 539.75C500.91 545.814 506.202 550.73 512.73 550.73Z" class="fill" stroke="#0A13FF" stroke-width="5.19" stroke-miterlimit="10"/>
<path d="M489.09 553.6C495.618 553.6 500.91 548.684 500.91 542.62C500.91 536.556 495.618 531.64 489.09 531.64C482.562 531.64 477.27 536.556 477.27 542.62C477.27 548.684 482.562 553.6 489.09 553.6Z" class="fill" stroke="#0A13FF" stroke-width="5.19" stroke-miterlimit="10"/>
<path d="M465.459 554.43C471.987 554.43 477.279 549.514 477.279 543.45C477.279 537.386 471.987 532.47 465.459 532.47C458.931 532.47 453.639 537.386 453.639 543.45C453.639 549.514 458.931 554.43 465.459 554.43Z" class="fill" stroke="#0A13FF" stroke-width="5.19" stroke-miterlimit="10"/>
<path d="M441.82 555.89C448.348 555.89 453.64 550.974 453.64 544.91C453.64 538.846 448.348 533.93 441.82 533.93C435.292 533.93 430 538.846 430 544.91C430 550.974 435.292 555.89 441.82 555.89Z" class="fill" stroke="#0A13FF" stroke-width="5.19" stroke-miterlimit="10"/>
<path d="M540.269 428.87C545.725 428.87 550.149 424.447 550.149 418.99C550.149 413.533 545.725 409.11 540.269 409.11C534.812 409.11 530.389 413.533 530.389 418.99C530.389 424.447 534.812 428.87 540.269 428.87Z" class="fill" stroke="#0A13FF" stroke-width="5" stroke-miterlimit="10"/>
<path d="M533.339 445.19C538.796 445.19 543.219 440.767 543.219 435.31C543.219 429.853 538.796 425.43 533.339 425.43C527.882 425.43 523.459 429.853 523.459 435.31C523.459 440.767 527.882 445.19 533.339 445.19Z" class="fill" stroke="#0A13FF" stroke-width="5" stroke-miterlimit="10"/>
<path d="M520.509 456.41C525.965 456.41 530.389 451.987 530.389 446.53C530.389 441.073 525.965 436.65 520.509 436.65C515.052 436.65 510.629 441.073 510.629 446.53C510.629 451.987 515.052 456.41 520.509 456.41Z" class="fill" stroke="#0A13FF" stroke-width="5" stroke-miterlimit="10"/>
<path d="M429.999 375.64L346.919 448.35H346.889C321.439 437.08 314.049 404.53 331.989 383.27C354.269 356.87 380.979 348.94 400.139 348.94H426.989" class="fill"/>
<path d="M429.999 375.64L346.919 448.35H346.889C321.439 437.08 314.049 404.53 331.989 383.27C354.269 356.87 380.979 348.94 400.139 348.94H426.989" stroke="#0A13FF" stroke-width="5" stroke-miterlimit="10"/>
<path d="M430 375.64L513.08 448.35H513.11C538.56 437.08 545.95 404.53 528.01 383.27C505.73 356.87 479.02 348.94 459.86 348.94H433.01" class="fill"/>
<path d="M430 375.64L513.08 448.35H513.11C538.56 437.08 545.95 404.53 528.01 383.27C505.73 356.87 479.02 348.94 459.86 348.94H433.01" stroke="#0A13FF" stroke-width="5" stroke-miterlimit="10"/>
<path d="M503.769 390.84C496.419 372.78 486.459 354.73 429.999 354.73C373.539 354.73 363.569 372.78 356.229 390.84C343.929 421.07 335.449 533.65 335.449 533.65C365.039 537.95 400.679 539.89 429.999 539.76C459.319 539.9 494.959 537.95 524.549 533.65C524.549 533.65 516.069 421.07 503.769 390.84Z" class="fill"/>
<path d="M507.849 407.25C514.189 441.6 524.549 533.19 524.549 533.19C494.959 537.49 447.909 539.76 429.999 539.76C412.089 539.76 365.039 537.49 335.449 533.19C335.449 533.19 345.809 441.6 352.149 407.25" class="fill"/>
<path d="M507.849 407.25C514.189 441.6 524.549 533.19 524.549 533.19C494.959 537.49 447.909 539.76 429.999 539.76C412.089 539.76 365.039 537.49 335.449 533.19C335.449 533.19 345.809 441.6 352.149 407.25" stroke="#0A13FF" stroke-width="5" stroke-miterlimit="10"/>
<path d="M377.5 352.39C365.16 356.11 351.88 363.18 339.49 375.23C380.91 362.22 398.25 396.08 430 385.5L429.97 377.9L413.61 348.94H400.15C399.97 348.94 399.79 348.94 399.6 348.94C397.09 348.98 388.29 349.71 377.49 352.38L377.5 352.39Z" fill="#52B1F9" stroke="#0A13FF" stroke-width="5" stroke-linecap="round" stroke-linejoin="round"/>
<path d="M482.5 352.39C494.84 356.11 508.12 363.18 520.51 375.23C479.09 362.22 461.75 396.08 430 385.5L430.03 377.9L446.39 348.94H459.85C460.03 348.94 460.21 348.94 460.4 348.94C462.91 348.98 471.71 349.71 482.51 352.38L482.5 352.39Z" fill="#52B1F9" stroke="#0A13FF" stroke-width="5" stroke-linecap="round" stroke-linejoin="round"/>
<path d="M429.999 375.65C446.275 375.65 459.469 362.456 459.469 346.18C459.469 329.904 446.275 316.71 429.999 316.71C413.723 316.71 400.529 329.904 400.529 346.18C400.529 362.456 413.723 375.65 429.999 375.65Z" fill="#FFEBD1" stroke="#0A13FF" stroke-width="5" stroke-miterlimit="10"/>
<path d="M429.999 389.66C433.479 389.66 436.299 386.839 436.299 383.36C436.299 379.881 433.479 377.06 429.999 377.06C426.52 377.06 423.699 379.881 423.699 383.36C423.699 386.839 426.52 389.66 429.999 389.66Z" fill="#52B1F9" stroke="#0A13FF" stroke-width="5" stroke-linecap="round" stroke-linejoin="round"/>
<path d="M454.509 505.03H405.489L399.719 418.06H460.279L454.509 505.03Z" fill="#C594FF" stroke="#0A13FF" stroke-width="5" stroke-linecap="round" stroke-linejoin="round"/>
<path d="M314.959 503.66C339.479 515.72 382.879 498.59 402.679 488.87C422.469 479.15 425.639 468.17 424.129 456.81C422.849 447.2 412.199 439.87 402.539 444.48C403.289 441.45 401.749 437.92 398.269 436.17C392.419 433.23 384.789 438.73 380.279 448.85C374.969 451 339.869 463.2 339.869 463.2" fill="#FFEBD1"/>
<path d="M314.959 503.66C339.479 515.72 382.879 498.59 402.679 488.87C422.469 479.15 425.639 468.17 424.129 456.81C422.849 447.2 412.199 439.87 402.539 444.48C403.289 441.45 401.749 437.92 398.269 436.17C392.419 433.23 384.789 438.73 380.279 448.85C374.969 451 339.869 463.2 339.869 463.2" stroke="#0A13FF" stroke-width="5" stroke-linecap="round" stroke-linejoin="round"/>
<path d="M545.039 503.66C520.519 515.72 477.119 498.59 457.319 488.87C437.529 479.15 434.359 468.17 435.869 456.81C437.149 447.2 447.799 439.87 457.459 444.48C456.709 441.45 458.249 437.92 461.729 436.17C467.579 433.23 475.209 438.73 479.719 448.85C485.029 451 520.129 463.2 520.129 463.2" fill="#FFEBD1"/>
<path d="M545.039 503.66C520.519 515.72 477.119 498.59 457.319 488.87C437.529 479.15 434.359 468.17 435.869 456.81C437.149 447.2 447.799 439.87 457.459 444.48C456.709 441.45 458.249 437.92 461.729 436.17C467.579 433.23 475.209 438.73 479.719 448.85C485.029 451 520.129 463.2 520.129 463.2" stroke="#0A13FF" stroke-width="5" stroke-linecap="round" stroke-linejoin="round"/>
<path d="M458.67 403.23H401.34V416.11H458.67V403.23Z" fill="#C594FF" stroke="#0A13FF" stroke-width="5" stroke-linecap="round" stroke-linejoin="round"/>
<path d="M465.449 413.74H394.549V426.62H465.449V413.74Z" fill="#C594FF" stroke="#0A13FF" stroke-width="5" stroke-linecap="round" stroke-linejoin="round"/>
</g>
<defs>
<clipPath id="clip0_153_4094">
<rect width="100%" height="100%" class="fill"/>
</clipPath>
</defs>
</svg>
