<svg class="tree-image-resource" viewBox="0 0 860 860" fill="none" xmlns="http://www.w3.org/2000/svg">
<g clip-path="url(#clip0_153_4273)">
<path d="M522.14 493.13L494.18 410.08L531.3 397.59C531.3 397.59 548.96 439.41 553.85 457.17C558.74 474.93 562.7 495.25 545.03 503.67" fill="#FFEBD1"/>
<path d="M522.14 493.13L494.18 410.08L531.3 397.59C531.3 397.59 548.96 439.41 553.85 457.17C558.74 474.93 562.7 495.25 545.03 503.67" stroke="#0A13FF" stroke-width="5" stroke-linecap="round" stroke-linejoin="round"/>
<path d="M337.862 493.13L365.822 410.08L328.702 397.59C328.702 397.59 311.042 439.41 306.152 457.17C301.262 474.93 297.302 495.25 314.972 503.67" fill="#FFEBD1"/>
<path d="M337.862 493.13L365.822 410.08L328.702 397.59C328.702 397.59 311.042 439.41 306.152 457.17C301.262 474.93 297.302 495.25 314.972 503.67" stroke="#0A13FF" stroke-width="5" stroke-linecap="round" stroke-linejoin="round"/>
<path d="M430.003 375.64L346.923 448.35C346.923 448.35 323.163 437.89 307.473 426.25C330.873 364.79 373.053 348.93 400.143 348.93H426.993" fill="white"/>
<path d="M430.003 375.64L346.923 448.35C346.923 448.35 323.163 437.89 307.473 426.25C330.873 364.79 373.053 348.93 400.143 348.93H426.993" stroke="#0A13FF" stroke-width="5" stroke-miterlimit="10"/>
<path d="M430.004 375.64L513.084 448.35C513.084 448.35 536.844 437.89 552.534 426.25C529.134 364.79 486.954 348.93 459.864 348.93H433.014" fill="white"/>
<path d="M430.004 375.64L513.084 448.35C513.084 448.35 536.844 437.89 552.534 426.25C529.134 364.79 486.954 348.93 459.864 348.93H433.014" stroke="#0A13FF" stroke-width="5" stroke-miterlimit="10"/>
<path d="M503.773 390.84C496.423 372.78 486.463 354.73 430.003 354.73C373.543 354.73 363.573 372.78 356.233 390.84C343.933 421.07 335.453 533.65 335.453 533.65C365.043 537.95 400.683 539.89 430.003 539.76C459.323 539.9 494.963 537.95 524.553 533.65C524.553 533.65 516.073 421.07 503.773 390.84Z" fill="white"/>
<path d="M507.853 407.25C514.193 441.6 524.553 533.19 524.553 533.19C494.963 537.49 447.913 539.76 430.003 539.76C412.093 539.76 365.043 537.49 335.453 533.19C335.453 533.19 345.813 441.6 352.153 407.25" fill="white"/>
<path d="M507.853 407.25C514.193 441.6 524.553 533.19 524.553 533.19C494.963 537.49 447.913 539.76 430.003 539.76C412.093 539.76 365.043 537.49 335.453 533.19C335.453 533.19 345.813 441.6 352.153 407.25" stroke="#0A13FF" stroke-width="5" stroke-miterlimit="10"/>
<path d="M377.502 352.39C365.162 356.11 351.882 363.18 339.492 375.23C380.912 362.22 398.252 396.08 430.002 385.5L429.972 377.9L413.612 348.94H400.152C399.972 348.94 399.792 348.94 399.602 348.94C397.092 348.98 388.292 349.71 377.492 352.38L377.502 352.39Z" fill="#52B1F9" stroke="#0A13FF" stroke-width="5" stroke-linecap="round" stroke-linejoin="round"/>
<path d="M482.504 352.39C494.844 356.11 508.124 363.18 520.514 375.23C479.094 362.22 461.754 396.08 430.004 385.5L430.034 377.9L446.394 348.94H459.854C460.034 348.94 460.214 348.94 460.404 348.94C462.914 348.98 471.714 349.71 482.514 352.38L482.504 352.39Z" fill="#52B1F9" stroke="#0A13FF" stroke-width="5" stroke-linecap="round" stroke-linejoin="round"/>
<path d="M430.001 375.65C446.277 375.65 459.471 362.456 459.471 346.18C459.471 329.904 446.277 316.71 430.001 316.71C413.725 316.71 400.531 329.904 400.531 346.18C400.531 362.456 413.725 375.65 430.001 375.65Z" fill="#FFEBD1" stroke="#0A13FF" stroke-width="5" stroke-miterlimit="10"/>
<path d="M430.003 389.66C433.483 389.66 436.303 386.839 436.303 383.36C436.303 379.881 433.483 377.06 430.003 377.06C426.524 377.06 423.703 379.881 423.703 383.36C423.703 386.839 426.524 389.66 430.003 389.66Z" fill="#52B1F9" stroke="#0A13FF" stroke-width="5" stroke-linecap="round" stroke-linejoin="round"/>
<path d="M333.91 383.36L353.93 397.57C405.08 405.08 455.8 405.19 506.06 397.48L528.09 383.36" stroke="#0A13FF" stroke-width="8" stroke-miterlimit="10"/>
<path d="M348.422 427.32C403.292 432.58 457.532 432.71 511.112 427.32" stroke="#0A13FF" stroke-width="8" stroke-miterlimit="10"/>
<path d="M344.891 455.99C402.171 461.78 458.911 461.9 515.101 455.99" stroke="#0A13FF" stroke-width="8" stroke-miterlimit="10"/>
<path d="M341.23 484.66C400.65 493.26 459.92 493.21 519.05 484.66" stroke="#0A13FF" stroke-width="8" stroke-miterlimit="10"/>
<path d="M337.762 513.33C398.292 523.1 459.802 523.52 522.422 513.33" stroke="#0A13FF" stroke-width="8" stroke-miterlimit="10"/>
<path d="M545.043 409.3L511.113 427.32" stroke="#0A13FF" stroke-width="8" stroke-miterlimit="10"/>
<path d="M314.961 409.3L348.891 427.32" stroke="#0A13FF" stroke-width="8" stroke-miterlimit="10"/>
<path d="M454.513 505.03H405.493L399.723 418.06H460.283L454.513 505.03Z" fill="#C594FF" stroke="#0A13FF" stroke-width="5" stroke-linecap="round" stroke-linejoin="round"/>
<path d="M314.961 503.66C339.481 515.72 382.881 498.59 402.681 488.87C422.471 479.15 425.641 468.17 424.131 456.81C422.851 447.2 412.201 439.87 402.541 444.48C403.291 441.45 401.751 437.92 398.271 436.17C392.421 433.23 384.791 438.73 380.281 448.85C374.971 451 339.871 463.2 339.871 463.2" fill="#FFEBD1"/>
<path d="M314.961 503.66C339.481 515.72 382.881 498.59 402.681 488.87C422.471 479.15 425.641 468.17 424.131 456.81C422.851 447.2 412.201 439.87 402.541 444.48C403.291 441.45 401.751 437.92 398.271 436.17C392.421 433.23 384.791 438.73 380.281 448.85C374.971 451 339.871 463.2 339.871 463.2" stroke="#0A13FF" stroke-width="5" stroke-linecap="round" stroke-linejoin="round"/>
<path d="M545.039 503.66C520.519 515.72 477.119 498.59 457.319 488.87C437.529 479.15 434.359 468.17 435.869 456.81C437.149 447.2 447.799 439.87 457.459 444.48C456.709 441.45 458.249 437.92 461.729 436.17C467.579 433.23 475.209 438.73 479.719 448.85C485.029 451 520.129 463.2 520.129 463.2" fill="#FFEBD1"/>
<path d="M545.039 503.66C520.519 515.72 477.119 498.59 457.319 488.87C437.529 479.15 434.359 468.17 435.869 456.81C437.149 447.2 447.799 439.87 457.459 444.48C456.709 441.45 458.249 437.92 461.729 436.17C467.579 433.23 475.209 438.73 479.719 448.85C485.029 451 520.129 463.2 520.129 463.2" stroke="#0A13FF" stroke-width="5" stroke-linecap="round" stroke-linejoin="round"/>
<path d="M458.67 403.23H401.34V416.11H458.67V403.23Z" fill="#C594FF" stroke="#0A13FF" stroke-width="5" stroke-linecap="round" stroke-linejoin="round"/>
<path d="M465.451 413.74H394.551V426.62H465.451V413.74Z" fill="#C594FF" stroke="#0A13FF" stroke-width="5" stroke-linecap="round" stroke-linejoin="round"/>
</g>
<defs>
<clipPath id="clip0_153_4273">
<rect width="100%" height="100%" fill="white"/>
</clipPath>
</defs>
</svg>
